<?xml version="1.0" encoding="UTF-8" standalone="no"?>
<!DOCTYPE svg PUBLIC "-//W3C//DTD SVG 1.1//EN"
 "http://www.w3.org/Graphics/SVG/1.1/DTD/svg11.dtd">
<!-- Generated by graphviz version 2.47.3 (20210619.1520)
 -->
<!-- Title: dependencies Pages: 1 -->
<svg width="4533pt" height="174pt"
 viewBox="0.00 0.00 4533.00 173.80" xmlns="http://www.w3.org/2000/svg" xmlns:xlink="http://www.w3.org/1999/xlink">
<g id="graph0" class="graph" transform="scale(1 1) rotate(0) translate(4 169.8)">
<title>dependencies</title>
<polygon fill="white" stroke="transparent" points="-4,4 -4,-169.8 4529,-169.8 4529,4 -4,4"/>
<text text-anchor="middle" x="2262.5" y="-8.2" font-family="sans-serif" font-size="14.00">dependencies</text>
<g id="clust1" class="cluster">
<title>cluster_EventsModule</title>
<polygon fill="none" stroke="black" stroke-dasharray="1,5" points="8,-32.8 8,-157.8 4517,-157.8 4517,-32.8 8,-32.8"/>
</g>
<g id="clust2" class="cluster">
<title>cluster_EventsModule_declarations</title>
<polygon fill="none" stroke="black" points="182,-40.8 182,-92.8 4509,-92.8 4509,-40.8 182,-40.8"/>
</g>
<g id="clust25" class="cluster">
<title>cluster_EventsModule_imports</title>
<polygon fill="none" stroke="black" points="16,-40.8 16,-92.8 174,-92.8 174,-40.8 16,-40.8"/>
</g>
<!-- CollaboratingCommunitiesComponent -->
<g id="node1" class="node">
<title>CollaboratingCommunitiesComponent</title>
<polygon fill="#ffffb3" stroke="black" points="4500.77,-84.8 4267.23,-84.8 4267.23,-48.8 4500.77,-48.8 4500.77,-84.8"/>
<text text-anchor="middle" x="4384" y="-62.6" font-family="Times,serif" font-size="14.00">CollaboratingCommunitiesComponent</text>
</g>
<!-- EventsModule -->
<g id="node23" class="node">
<title>EventsModule</title>
<polygon fill="#8dd3c7" stroke="black" points="2104.65,-149.8 2101.65,-153.8 2080.65,-153.8 2077.65,-149.8 2007.35,-149.8 2007.35,-113.8 2104.65,-113.8 2104.65,-149.8"/>
<text text-anchor="middle" x="2056" y="-127.6" font-family="Times,serif" font-size="14.00">EventsModule</text>
</g>
<!-- CollaboratingCommunitiesComponent&#45;&gt;EventsModule -->
<g id="edge1" class="edge">
<title>CollaboratingCommunitiesComponent&#45;&gt;EventsModule</title>
<path fill="none" stroke="black" d="M4384,-84.95C4384,-108.56 4384,-146.8 4384,-146.8 4384,-146.8 2114.89,-146.8 2114.89,-146.8"/>
<polygon fill="black" stroke="black" points="2114.89,-143.3 2104.89,-146.8 2114.89,-150.3 2114.89,-143.3"/>
</g>
<!-- CreateEventComponent -->
<g id="node2" class="node">
<title>CreateEventComponent</title>
<polygon fill="#ffffb3" stroke="black" points="4249.02,-84.8 4098.98,-84.8 4098.98,-48.8 4249.02,-48.8 4249.02,-84.8"/>
<text text-anchor="middle" x="4174" y="-62.6" font-family="Times,serif" font-size="14.00">CreateEventComponent</text>
</g>
<!-- CreateEventComponent&#45;&gt;EventsModule -->
<g id="edge2" class="edge">
<title>CreateEventComponent&#45;&gt;EventsModule</title>
<path fill="none" stroke="black" d="M4174,-84.89C4174,-107.93 4174,-144.8 4174,-144.8 4174,-144.8 2114.73,-144.8 2114.73,-144.8"/>
<polygon fill="black" stroke="black" points="2114.73,-141.3 2104.73,-144.8 2114.73,-148.3 2114.73,-141.3"/>
</g>
<!-- EditEventComponent -->
<g id="node3" class="node">
<title>EditEventComponent</title>
<polygon fill="#ffffb3" stroke="black" points="4080.82,-84.8 3943.18,-84.8 3943.18,-48.8 4080.82,-48.8 4080.82,-84.8"/>
<text text-anchor="middle" x="4012" y="-62.6" font-family="Times,serif" font-size="14.00">EditEventComponent</text>
</g>
<!-- EditEventComponent&#45;&gt;EventsModule -->
<g id="edge3" class="edge">
<title>EditEventComponent&#45;&gt;EventsModule</title>
<path fill="none" stroke="black" d="M4012,-85.09C4012,-107.01 4012,-140.8 4012,-140.8 4012,-140.8 2114.84,-140.8 2114.84,-140.8"/>
<polygon fill="black" stroke="black" points="2114.84,-137.3 2104.84,-140.8 2114.84,-144.3 2114.84,-137.3"/>
</g>
<!-- EventCommentsComponent -->
<g id="node4" class="node">
<title>EventCommentsComponent</title>
<polygon fill="#ffffb3" stroke="black" points="3925.16,-84.8 3750.84,-84.8 3750.84,-48.8 3925.16,-48.8 3925.16,-84.8"/>
<text text-anchor="middle" x="3838" y="-62.6" font-family="Times,serif" font-size="14.00">EventCommentsComponent</text>
</g>
<!-- EventCommentsComponent&#45;&gt;EventsModule -->
<g id="edge4" class="edge">
<title>EventCommentsComponent&#45;&gt;EventsModule</title>
<path fill="none" stroke="black" d="M3838,-85.08C3838,-106.12 3838,-137.8 3838,-137.8 3838,-137.8 2115.05,-137.8 2115.05,-137.8"/>
<polygon fill="black" stroke="black" points="2115.05,-134.3 2105.05,-137.8 2115.05,-141.3 2115.05,-134.3"/>
</g>
<!-- EventDashboardComponent -->
<g id="node5" class="node">
<title>EventDashboardComponent</title>
<polygon fill="#ffffb3" stroke="black" points="3732.13,-84.8 3557.87,-84.8 3557.87,-48.8 3732.13,-48.8 3732.13,-84.8"/>
<text text-anchor="middle" x="3645" y="-62.6" font-family="Times,serif" font-size="14.00">EventDashboardComponent</text>
</g>
<!-- EventDashboardComponent&#45;&gt;EventsModule -->
<g id="edge5" class="edge">
<title>EventDashboardComponent&#45;&gt;EventsModule</title>
<path fill="none" stroke="black" d="M3645,-85.02C3645,-105.17 3645,-134.8 3645,-134.8 3645,-134.8 2114.86,-134.8 2114.86,-134.8"/>
<polygon fill="black" stroke="black" points="2114.86,-131.3 2104.86,-134.8 2114.86,-138.3 2114.86,-131.3"/>
</g>
<!-- EventEmbeddedVideoStreamComponent -->
<g id="node6" class="node">
<title>EventEmbeddedVideoStreamComponent</title>
<polygon fill="#ffffb3" stroke="black" points="3539.73,-84.8 3292.27,-84.8 3292.27,-48.8 3539.73,-48.8 3539.73,-84.8"/>
<text text-anchor="middle" x="3416" y="-62.6" font-family="Times,serif" font-size="14.00">EventEmbeddedVideoStreamComponent</text>
</g>
<!-- EventEmbeddedVideoStreamComponent&#45;&gt;EventsModule -->
<g id="edge6" class="edge">
<title>EventEmbeddedVideoStreamComponent&#45;&gt;EventsModule</title>
<path fill="none" stroke="black" d="M3416,-84.91C3416,-104.14 3416,-131.8 3416,-131.8 3416,-131.8 2114.8,-131.8 2114.8,-131.8"/>
<polygon fill="black" stroke="black" points="2114.8,-128.3 2104.8,-131.8 2114.8,-135.3 2114.8,-128.3"/>
</g>
<!-- EventEmbeddedVideoStreamV2Component -->
<g id="node7" class="node">
<title>EventEmbeddedVideoStreamV2Component</title>
<polygon fill="#ffffb3" stroke="black" points="3274.33,-84.8 3009.67,-84.8 3009.67,-48.8 3274.33,-48.8 3274.33,-84.8"/>
<text text-anchor="middle" x="3142" y="-62.6" font-family="Times,serif" font-size="14.00">EventEmbeddedVideoStreamV2Component</text>
</g>
<!-- EventEmbeddedVideoStreamV2Component&#45;&gt;EventsModule -->
<g id="edge7" class="edge">
<title>EventEmbeddedVideoStreamV2Component&#45;&gt;EventsModule</title>
<path fill="none" stroke="black" d="M3142,-85.02C3142,-103.63 3142,-129.8 3142,-129.8 3142,-129.8 2114.77,-129.8 2114.77,-129.8"/>
<polygon fill="black" stroke="black" points="2114.77,-126.3 2104.77,-129.8 2114.77,-133.3 2114.77,-126.3"/>
</g>
<!-- EventFormResponsesComponent -->
<g id="node8" class="node">
<title>EventFormResponsesComponent</title>
<polygon fill="#ffffb3" stroke="black" points="2991.92,-84.8 2788.08,-84.8 2788.08,-48.8 2991.92,-48.8 2991.92,-84.8"/>
<text text-anchor="middle" x="2890" y="-62.6" font-family="Times,serif" font-size="14.00">EventFormResponsesComponent</text>
</g>
<!-- EventFormResponsesComponent&#45;&gt;EventsModule -->
<g id="edge8" class="edge">
<title>EventFormResponsesComponent&#45;&gt;EventsModule</title>
<path fill="none" stroke="black" d="M2890,-84.82C2890,-102.17 2890,-125.8 2890,-125.8 2890,-125.8 2114.75,-125.8 2114.75,-125.8"/>
<polygon fill="black" stroke="black" points="2114.75,-122.3 2104.75,-125.8 2114.75,-129.3 2114.75,-122.3"/>
</g>
<!-- EventLocationTracksComponent -->
<g id="node9" class="node">
<title>EventLocationTracksComponent</title>
<polygon fill="#ffffb3" stroke="black" points="2769.84,-84.8 2568.16,-84.8 2568.16,-48.8 2769.84,-48.8 2769.84,-84.8"/>
<text text-anchor="middle" x="2669" y="-62.6" font-family="Times,serif" font-size="14.00">EventLocationTracksComponent</text>
</g>
<!-- EventLocationTracksComponent&#45;&gt;EventsModule -->
<g id="edge9" class="edge">
<title>EventLocationTracksComponent&#45;&gt;EventsModule</title>
<path fill="none" stroke="black" d="M2669,-84.83C2669,-101.2 2669,-122.8 2669,-122.8 2669,-122.8 2114.87,-122.8 2114.87,-122.8"/>
<polygon fill="black" stroke="black" points="2114.87,-119.3 2104.87,-122.8 2114.87,-126.3 2114.87,-119.3"/>
</g>
<!-- EventLocationsComponent -->
<g id="node10" class="node">
<title>EventLocationsComponent</title>
<polygon fill="#ffffb3" stroke="black" points="2549.7,-84.8 2380.3,-84.8 2380.3,-48.8 2549.7,-48.8 2549.7,-84.8"/>
<text text-anchor="middle" x="2465" y="-62.6" font-family="Times,serif" font-size="14.00">EventLocationsComponent</text>
</g>
<!-- EventLocationsComponent&#45;&gt;EventsModule -->
<g id="edge10" class="edge">
<title>EventLocationsComponent&#45;&gt;EventsModule</title>
<path fill="none" stroke="black" d="M2465,-85.04C2465,-100.37 2465,-119.8 2465,-119.8 2465,-119.8 2114.93,-119.8 2114.93,-119.8"/>
<polygon fill="black" stroke="black" points="2114.93,-116.3 2104.93,-119.8 2114.93,-123.3 2114.93,-116.3"/>
</g>
<!-- EventRecordingsComponent -->
<g id="node11" class="node">
<title>EventRecordingsComponent</title>
<polygon fill="#ffffb3" stroke="black" points="2362.75,-84.8 2185.25,-84.8 2185.25,-48.8 2362.75,-48.8 2362.75,-84.8"/>
<text text-anchor="middle" x="2274" y="-62.6" font-family="Times,serif" font-size="14.00">EventRecordingsComponent</text>
</g>
<!-- EventRecordingsComponent&#45;&gt;EventsModule -->
<g id="edge11" class="edge">
<title>EventRecordingsComponent&#45;&gt;EventsModule</title>
<path fill="none" stroke="black" d="M2274,-84.85C2274,-99.17 2274,-116.8 2274,-116.8 2274,-116.8 2114.92,-116.8 2114.92,-116.8"/>
<polygon fill="black" stroke="black" points="2114.92,-113.3 2104.92,-116.8 2114.92,-120.3 2114.92,-113.3"/>
</g>
<!-- EventSimpleRegistrationComponent -->
<g id="node12" class="node">
<title>EventSimpleRegistrationComponent</title>
<polygon fill="#ffffb3" stroke="black" points="2167.09,-84.8 1944.91,-84.8 1944.91,-48.8 2167.09,-48.8 2167.09,-84.8"/>
<text text-anchor="middle" x="2056" y="-62.6" font-family="Times,serif" font-size="14.00">EventSimpleRegistrationComponent</text>
</g>
<!-- EventSimpleRegistrationComponent&#45;&gt;EventsModule -->
<g id="edge12" class="edge">
<title>EventSimpleRegistrationComponent&#45;&gt;EventsModule</title>
<path fill="none" stroke="black" d="M2056,-84.91C2056,-84.91 2056,-103.79 2056,-103.79"/>
<polygon fill="black" stroke="black" points="2052.5,-103.79 2056,-113.79 2059.5,-103.79 2052.5,-103.79"/>
</g>
<!-- EventSpeakersComponent -->
<g id="node13" class="node">
<title>EventSpeakersComponent</title>
<polygon fill="#ffffb3" stroke="black" points="1927.02,-84.8 1762.98,-84.8 1762.98,-48.8 1927.02,-48.8 1927.02,-84.8"/>
<text text-anchor="middle" x="1845" y="-62.6" font-family="Times,serif" font-size="14.00">EventSpeakersComponent</text>
</g>
<!-- EventSpeakersComponent&#45;&gt;EventsModule -->
<g id="edge13" class="edge">
<title>EventSpeakersComponent&#45;&gt;EventsModule</title>
<path fill="none" stroke="black" d="M1845,-84.85C1845,-99.17 1845,-116.8 1845,-116.8 1845,-116.8 1997.33,-116.8 1997.33,-116.8"/>
<polygon fill="black" stroke="black" points="1997.33,-120.3 2007.33,-116.8 1997.33,-113.3 1997.33,-120.3"/>
</g>
<!-- EventStatsComponent -->
<g id="node14" class="node">
<title>EventStatsComponent</title>
<polygon fill="#ffffb3" stroke="black" points="1744.71,-84.8 1603.29,-84.8 1603.29,-48.8 1744.71,-48.8 1744.71,-84.8"/>
<text text-anchor="middle" x="1674" y="-62.6" font-family="Times,serif" font-size="14.00">EventStatsComponent</text>
</g>
<!-- EventStatsComponent&#45;&gt;EventsModule -->
<g id="edge14" class="edge">
<title>EventStatsComponent&#45;&gt;EventsModule</title>
<path fill="none" stroke="black" d="M1674,-85.04C1674,-100.37 1674,-119.8 1674,-119.8 1674,-119.8 1997.23,-119.8 1997.23,-119.8"/>
<polygon fill="black" stroke="black" points="1997.23,-123.3 2007.23,-119.8 1997.23,-116.3 1997.23,-123.3"/>
</g>
<!-- EventStatusComponent -->
<g id="node15" class="node">
<title>EventStatusComponent</title>
<polygon fill="#ffffb3" stroke="black" points="1585.21,-84.8 1436.79,-84.8 1436.79,-48.8 1585.21,-48.8 1585.21,-84.8"/>
<text text-anchor="middle" x="1511" y="-62.6" font-family="Times,serif" font-size="14.00">EventStatusComponent</text>
</g>
<!-- EventStatusComponent&#45;&gt;EventsModule -->
<g id="edge15" class="edge">
<title>EventStatusComponent&#45;&gt;EventsModule</title>
<path fill="none" stroke="black" d="M1511,-84.83C1511,-101.2 1511,-122.8 1511,-122.8 1511,-122.8 1997.16,-122.8 1997.16,-122.8"/>
<polygon fill="black" stroke="black" points="1997.16,-126.3 2007.16,-122.8 1997.16,-119.3 1997.16,-126.3"/>
</g>
<!-- EventUpdatesComponent -->
<g id="node16" class="node">
<title>EventUpdatesComponent</title>
<polygon fill="#ffffb3" stroke="black" points="1418.86,-84.8 1259.14,-84.8 1259.14,-48.8 1418.86,-48.8 1418.86,-84.8"/>
<text text-anchor="middle" x="1339" y="-62.6" font-family="Times,serif" font-size="14.00">EventUpdatesComponent</text>
</g>
<!-- EventUpdatesComponent&#45;&gt;EventsModule -->
<g id="edge16" class="edge">
<title>EventUpdatesComponent&#45;&gt;EventsModule</title>
<path fill="none" stroke="black" d="M1339,-84.82C1339,-102.17 1339,-125.8 1339,-125.8 1339,-125.8 1997.28,-125.8 1997.28,-125.8"/>
<polygon fill="black" stroke="black" points="1997.28,-129.3 2007.28,-125.8 1997.28,-122.3 1997.28,-129.3"/>
</g>
<!-- FormGroupsComponent -->
<g id="node17" class="node">
<title>FormGroupsComponent</title>
<polygon fill="#ffffb3" stroke="black" points="1241.38,-84.8 1088.62,-84.8 1088.62,-48.8 1241.38,-48.8 1241.38,-84.8"/>
<text text-anchor="middle" x="1165" y="-62.6" font-family="Times,serif" font-size="14.00">FormGroupsComponent</text>
</g>
<!-- FormGroupsComponent&#45;&gt;EventsModule -->
<g id="edge17" class="edge">
<title>FormGroupsComponent&#45;&gt;EventsModule</title>
<path fill="none" stroke="black" d="M1165,-85.02C1165,-103.63 1165,-129.8 1165,-129.8 1165,-129.8 1997.15,-129.8 1997.15,-129.8"/>
<polygon fill="black" stroke="black" points="1997.15,-133.3 2007.15,-129.8 1997.15,-126.3 1997.15,-133.3"/>
</g>
<!-- SponsorsComponent -->
<g id="node18" class="node">
<title>SponsorsComponent</title>
<polygon fill="#ffffb3" stroke="black" points="1070.17,-84.8 937.83,-84.8 937.83,-48.8 1070.17,-48.8 1070.17,-84.8"/>
<text text-anchor="middle" x="1004" y="-62.6" font-family="Times,serif" font-size="14.00">SponsorsComponent</text>
</g>
<!-- SponsorsComponent&#45;&gt;EventsModule -->
<g id="edge18" class="edge">
<title>SponsorsComponent&#45;&gt;EventsModule</title>
<path fill="none" stroke="black" d="M1004,-84.91C1004,-104.14 1004,-131.8 1004,-131.8 1004,-131.8 1997.02,-131.8 1997.02,-131.8"/>
<polygon fill="black" stroke="black" points="1997.02,-135.3 2007.02,-131.8 1997.02,-128.3 1997.02,-135.3"/>
</g>
<!-- UserDetailsCellComponent -->
<g id="node19" class="node">
<title>UserDetailsCellComponent</title>
<polygon fill="#ffffb3" stroke="black" points="919.24,-84.8 748.76,-84.8 748.76,-48.8 919.24,-48.8 919.24,-84.8"/>
<text text-anchor="middle" x="834" y="-62.6" font-family="Times,serif" font-size="14.00">UserDetailsCellComponent</text>
</g>
<!-- UserDetailsCellComponent&#45;&gt;EventsModule -->
<g id="edge19" class="edge">
<title>UserDetailsCellComponent&#45;&gt;EventsModule</title>
<path fill="none" stroke="black" d="M834,-85.02C834,-105.17 834,-134.8 834,-134.8 834,-134.8 1997.34,-134.8 1997.34,-134.8"/>
<polygon fill="black" stroke="black" points="1997.34,-138.3 2007.34,-134.8 1997.34,-131.3 1997.34,-138.3"/>
</g>
<!-- UserDetailsComponent -->
<g id="node20" class="node">
<title>UserDetailsComponent</title>
<polygon fill="#ffffb3" stroke="black" points="730.91,-84.8 583.09,-84.8 583.09,-48.8 730.91,-48.8 730.91,-84.8"/>
<text text-anchor="middle" x="657" y="-62.6" font-family="Times,serif" font-size="14.00">UserDetailsComponent</text>
</g>
<!-- UserDetailsComponent&#45;&gt;EventsModule -->
<g id="edge20" class="edge">
<title>UserDetailsComponent&#45;&gt;EventsModule</title>
<path fill="none" stroke="black" d="M657,-85.08C657,-106.12 657,-137.8 657,-137.8 657,-137.8 1997.03,-137.8 1997.03,-137.8"/>
<polygon fill="black" stroke="black" points="1997.03,-141.3 2007.03,-137.8 1997.03,-134.3 1997.03,-141.3"/>
</g>
<!-- UserEventRegistrationsComponent -->
<g id="node21" class="node">
<title>UserEventRegistrationsComponent</title>
<polygon fill="#ffffb3" stroke="black" points="565.29,-84.8 350.71,-84.8 350.71,-48.8 565.29,-48.8 565.29,-84.8"/>
<text text-anchor="middle" x="458" y="-62.6" font-family="Times,serif" font-size="14.00">UserEventRegistrationsComponent</text>
</g>
<!-- UserEventRegistrationsComponent&#45;&gt;EventsModule -->
<g id="edge21" class="edge">
<title>UserEventRegistrationsComponent&#45;&gt;EventsModule</title>
<path fill="none" stroke="black" d="M458,-85.09C458,-107.01 458,-140.8 458,-140.8 458,-140.8 1997.3,-140.8 1997.3,-140.8"/>
<polygon fill="black" stroke="black" points="1997.3,-144.3 2007.3,-140.8 1997.3,-137.3 1997.3,-144.3"/>
</g>
<!-- VolunteersComponent -->
<g id="node22" class="node">
<title>VolunteersComponent</title>
<polygon fill="#ffffb3" stroke="black" points="332.25,-84.8 189.75,-84.8 189.75,-48.8 332.25,-48.8 332.25,-84.8"/>
<text text-anchor="middle" x="261" y="-62.6" font-family="Times,serif" font-size="14.00">VolunteersComponent</text>
</g>
<!-- VolunteersComponent&#45;&gt;EventsModule -->
<g id="edge22" class="edge">
<title>VolunteersComponent&#45;&gt;EventsModule</title>
<path fill="none" stroke="black" d="M261,-84.89C261,-107.93 261,-144.8 261,-144.8 261,-144.8 1997.06,-144.8 1997.06,-144.8"/>
<polygon fill="black" stroke="black" points="1997.06,-148.3 2007.06,-144.8 1997.06,-141.3 1997.06,-148.3"/>
</g>
<!-- EventsRoutingModule -->
<g id="node24" class="node">
<title>EventsRoutingModule</title>
<polygon fill="#8dd3c7" stroke="black" points="166.27,-84.8 163.27,-88.8 142.27,-88.8 139.27,-84.8 23.73,-84.8 23.73,-48.8 166.27,-48.8 166.27,-84.8"/>
<text text-anchor="middle" x="95" y="-62.6" font-family="Times,serif" font-size="14.00">EventsRoutingModule</text>
</g>
<!-- EventsRoutingModule&#45;&gt;EventsModule -->
<g id="edge23" class="edge">
<title>EventsRoutingModule&#45;&gt;EventsModule</title>
<path fill="none" stroke="black" d="M95,-84.95C95,-108.56 95,-146.8 95,-146.8 95,-146.8 1997.04,-146.8 1997.04,-146.8"/>
<polygon fill="black" stroke="black" points="1997.04,-150.3 2007.04,-146.8 1997.04,-143.3 1997.04,-150.3"/>
</g>
</g>
</svg>
