<?xml version="1.0" encoding="UTF-8" standalone="no"?>
<!DOCTYPE svg PUBLIC "-//W3C//DTD SVG 1.1//EN"
 "http://www.w3.org/Graphics/SVG/1.1/DTD/svg11.dtd">
<!-- Generated by graphviz version 2.47.0 (20210316.0004)
 -->
<!-- Title: dependencies Pages: 1 -->
<svg width="4056pt" height="211pt"
     viewBox="0.00 0.00 4056.00 211.00" xmlns="http://www.w3.org/2000/svg">
<g id="graph0" class="graph" transform="scale(1 1) rotate(0) translate(4 207)">
<title>dependencies</title>
<polygon fill="white" stroke="transparent" points="-4,4 -4,-207 4052,-207 4052,4 -4,4"/>
<text text-anchor="start" x="2003.01" y="-42.4" font-family="sans-serif" font-weight="bold" font-size="14.00">Legend</text>
<polygon fill="#ffffb3" stroke="transparent" points="1790,-10 1790,-30 1810,-30 1810,-10 1790,-10"/>
<text text-anchor="start" x="1813.63" y="-15.4" font-family="sans-serif" font-size="14.00"> &#160;Declarations</text>
<polygon fill="#8dd3c7" stroke="transparent" points="1903,-10 1903,-30 1923,-30 1923,-10 1903,-10"/>
<text text-anchor="start" x="1926.73" y="-15.4" font-family="sans-serif" font-size="14.00"> &#160;Module</text>
<polygon fill="#80b1d3" stroke="transparent" points="1989,-10 1989,-30 2009,-30 2009,-10 1989,-10"/>
<text text-anchor="start" x="2012.78" y="-15.4" font-family="sans-serif" font-size="14.00"> &#160;Bootstrap</text>
<polygon fill="#fdb462" stroke="transparent" points="2086,-10 2086,-30 2106,-30 2106,-10 2086,-10"/>
<text text-anchor="start" x="2109.67" y="-15.4" font-family="sans-serif" font-size="14.00"> &#160;Providers</text>
<polygon fill="#fb8072" stroke="transparent" points="2182,-10 2182,-30 2202,-30 2202,-10 2182,-10"/>
<text text-anchor="start" x="2205.73" y="-15.4" font-family="sans-serif" font-size="14.00"> &#160;Exports</text>
<g id="clust1" class="cluster">
<title>cluster_EventsModule</title>
<polygon fill="none" stroke="black" stroke-dasharray="1,5" points="8,-70 8,-195 4040,-195 4040,-70 8,-70"/>
</g>
<g id="clust2" class="cluster">
<title>cluster_EventsModule_declarations</title>
<polygon fill="none" stroke="black" points="182,-78 182,-130 4032,-130 4032,-78 182,-78"/>
</g>
<g id="clust23" class="cluster">
<title>cluster_EventsModule_imports</title>
<polygon fill="none" stroke="black" points="16,-78 16,-130 174,-130 174,-78 16,-78"/>
</g>
<!-- CollaboratingCommunitiesComponent -->
<g id="node1" class="node">
<title>CollaboratingCommunitiesComponent</title>
<polygon fill="#ffffb3" stroke="black" points="4023.77,-122 3790.23,-122 3790.23,-86 4023.77,-86 4023.77,-122"/>
<text text-anchor="middle" x="3907" y="-99.8" font-family="Times,serif" font-size="14.00">CollaboratingCommunitiesComponent</text>
</g>
<!-- EventsModule -->
<g id="node21" class="node">
<title>EventsModule</title>
<polygon fill="#8dd3c7" stroke="black" points="1893.65,-187 1890.65,-191 1869.65,-191 1866.65,-187 1796.35,-187 1796.35,-151 1893.65,-151 1893.65,-187"/>
<text text-anchor="middle" x="1845" y="-164.8" font-family="Times,serif" font-size="14.00">EventsModule</text>
</g>
<!-- CollaboratingCommunitiesComponent&#45;&gt;EventsModule -->
<g id="edge1" class="edge">
<title>CollaboratingCommunitiesComponent&#45;&gt;EventsModule</title>
<path fill="none" stroke="black" d="M3907,-122.15C3907,-145.76 3907,-184 3907,-184 3907,-184 1903.69,-184 1903.69,-184"/>
<polygon fill="black" stroke="black" points="1903.69,-180.5 1893.69,-184 1903.69,-187.5 1903.69,-180.5"/>
</g>
<!-- CreateEventComponent -->
<g id="node2" class="node">
<title>CreateEventComponent</title>
<polygon fill="#ffffb3" stroke="black" points="3772.02,-122 3621.98,-122 3621.98,-86 3772.02,-86 3772.02,-122"/>
<text text-anchor="middle" x="3697" y="-99.8" font-family="Times,serif" font-size="14.00">CreateEventComponent</text>
</g>
<!-- CreateEventComponent&#45;&gt;EventsModule -->
<g id="edge2" class="edge">
<title>CreateEventComponent&#45;&gt;EventsModule</title>
<path fill="none" stroke="black" d="M3697,-122.25C3697,-145.02 3697,-181 3697,-181 3697,-181 1904.06,-181 1904.06,-181"/>
<polygon fill="black" stroke="black" points="1904.06,-177.5 1894.06,-181 1904.06,-184.5 1904.06,-177.5"/>
</g>
<!-- EditEventComponent -->
<g id="node3" class="node">
<title>EditEventComponent</title>
<polygon fill="#ffffb3" stroke="black" points="3603.82,-122 3466.18,-122 3466.18,-86 3603.82,-86 3603.82,-122"/>
<text text-anchor="middle" x="3535" y="-99.8" font-family="Times,serif" font-size="14.00">EditEventComponent</text>
</g>
<!-- EditEventComponent&#45;&gt;EventsModule -->
<g id="edge3" class="edge">
<title>EditEventComponent&#45;&gt;EventsModule</title>
<path fill="none" stroke="black" d="M3535,-122.29C3535,-144.21 3535,-178 3535,-178 3535,-178 1903.76,-178 1903.76,-178"/>
<polygon fill="black" stroke="black" points="1903.76,-174.5 1893.76,-178 1903.76,-181.5 1903.76,-174.5"/>
</g>
<!-- EventCommentsComponent -->
<g id="node4" class="node">
<title>EventCommentsComponent</title>
<polygon fill="#ffffb3" stroke="black" points="3448.16,-122 3273.84,-122 3273.84,-86 3448.16,-86 3448.16,-122"/>
<text text-anchor="middle" x="3361" y="-99.8" font-family="Times,serif" font-size="14.00">EventCommentsComponent</text>
</g>
<!-- EventCommentsComponent&#45;&gt;EventsModule -->
<g id="edge4" class="edge">
<title>EventCommentsComponent&#45;&gt;EventsModule</title>
<path fill="none" stroke="black" d="M3361,-122.03C3361,-142.77 3361,-174 3361,-174 3361,-174 1903.72,-174 1903.72,-174"/>
<polygon fill="black" stroke="black" points="1903.72,-170.5 1893.72,-174 1903.72,-177.5 1903.72,-170.5"/>
</g>
<!-- EventDashboardComponent -->
<g id="node5" class="node">
<title>EventDashboardComponent</title>
<polygon fill="#ffffb3" stroke="black" points="3255.13,-122 3080.87,-122 3080.87,-86 3255.13,-86 3255.13,-122"/>
<text text-anchor="middle" x="3168" y="-99.8" font-family="Times,serif" font-size="14.00">EventDashboardComponent</text>
</g>
<!-- EventDashboardComponent&#45;&gt;EventsModule -->
<g id="edge5" class="edge">
<title>EventDashboardComponent&#45;&gt;EventsModule</title>
<path fill="none" stroke="black" d="M3168,-122.31C3168,-142.15 3168,-171 3168,-171 3168,-171 1903.66,-171 1903.66,-171"/>
<polygon fill="black" stroke="black" points="1903.66,-167.5 1893.66,-171 1903.66,-174.5 1903.66,-167.5"/>
</g>
<!-- EventEmbeddedVideoStreamComponent -->
<g id="node6" class="node">
<title>EventEmbeddedVideoStreamComponent</title>
<polygon fill="#ffffb3" stroke="black" points="3062.73,-122 2815.27,-122 2815.27,-86 3062.73,-86 3062.73,-122"/>
<text text-anchor="middle" x="2939" y="-99.8" font-family="Times,serif" font-size="14.00">EventEmbeddedVideoStreamComponent</text>
</g>
<!-- EventEmbeddedVideoStreamComponent&#45;&gt;EventsModule -->
<g id="edge6" class="edge">
<title>EventEmbeddedVideoStreamComponent&#45;&gt;EventsModule</title>
<path fill="none" stroke="black" d="M2939,-122.17C2939,-141.09 2939,-168 2939,-168 2939,-168 1903.78,-168 1903.78,-168"/>
<polygon fill="black" stroke="black" points="1903.78,-164.5 1893.78,-168 1903.78,-171.5 1903.78,-164.5"/>
</g>
<!-- EventFormResponsesComponent -->
<g id="node7" class="node">
<title>EventFormResponsesComponent</title>
<polygon fill="#ffffb3" stroke="black" points="2796.92,-122 2593.08,-122 2593.08,-86 2796.92,-86 2796.92,-122"/>
<text text-anchor="middle" x="2695" y="-99.8" font-family="Times,serif" font-size="14.00">EventFormResponsesComponent</text>
</g>
<!-- EventFormResponsesComponent&#45;&gt;EventsModule -->
<g id="edge7" class="edge">
<title>EventFormResponsesComponent&#45;&gt;EventsModule</title>
<path fill="none" stroke="black" d="M2695,-122.3C2695,-140.27 2695,-165 2695,-165 2695,-165 1903.75,-165 1903.75,-165"/>
<polygon fill="black" stroke="black" points="1903.75,-161.5 1893.75,-165 1903.75,-168.5 1903.75,-161.5"/>
</g>
<!-- EventLocationTracksComponent -->
<g id="node8" class="node">
<title>EventLocationTracksComponent</title>
<polygon fill="#ffffb3" stroke="black" points="2574.84,-122 2373.16,-122 2373.16,-86 2574.84,-86 2574.84,-122"/>
<text text-anchor="middle" x="2474" y="-99.8" font-family="Times,serif" font-size="14.00">EventLocationTracksComponent</text>
</g>
<!-- EventLocationTracksComponent&#45;&gt;EventsModule -->
<g id="edge8" class="edge">
<title>EventLocationTracksComponent&#45;&gt;EventsModule</title>
<path fill="none" stroke="black" d="M2474,-122.04C2474,-138.73 2474,-161 2474,-161 2474,-161 1903.83,-161 1903.83,-161"/>
<polygon fill="black" stroke="black" points="1903.83,-157.5 1893.83,-161 1903.83,-164.5 1903.83,-157.5"/>
</g>
<!-- EventLocationsComponent -->
<g id="node9" class="node">
<title>EventLocationsComponent</title>
<polygon fill="#ffffb3" stroke="black" points="2354.7,-122 2185.3,-122 2185.3,-86 2354.7,-86 2354.7,-122"/>
<text text-anchor="middle" x="2270" y="-99.8" font-family="Times,serif" font-size="14.00">EventLocationsComponent</text>
</g>
<!-- EventLocationsComponent&#45;&gt;EventsModule -->
<g id="edge9" class="edge">
<title>EventLocationsComponent&#45;&gt;EventsModule</title>
<path fill="none" stroke="black" d="M2270,-122.28C2270,-137.95 2270,-158 2270,-158 2270,-158 1903.75,-158 1903.75,-158"/>
<polygon fill="black" stroke="black" points="1903.75,-154.5 1893.75,-158 1903.75,-161.5 1903.75,-154.5"/>
</g>
<!-- EventSimpleRegistrationComponent -->
<g id="node10" class="node">
<title>EventSimpleRegistrationComponent</title>
<polygon fill="#ffffb3" stroke="black" points="2167.09,-122 1944.91,-122 1944.91,-86 2167.09,-86 2167.09,-122"/>
<text text-anchor="middle" x="2056" y="-99.8" font-family="Times,serif" font-size="14.00">EventSimpleRegistrationComponent</text>
</g>
<!-- EventSimpleRegistrationComponent&#45;&gt;EventsModule -->
<g id="edge10" class="edge">
<title>EventSimpleRegistrationComponent&#45;&gt;EventsModule</title>
<path fill="none" stroke="black" d="M2056,-122.12C2056,-136.78 2056,-155 2056,-155 2056,-155 1903.67,-155 1903.67,-155"/>
<polygon fill="black" stroke="black" points="1903.67,-151.5 1893.67,-155 1903.67,-158.5 1903.67,-151.5"/>
</g>
<!-- EventSpeakersComponent -->
<g id="node11" class="node">
<title>EventSpeakersComponent</title>
<polygon fill="#ffffb3" stroke="black" points="1927.02,-122 1762.98,-122 1762.98,-86 1927.02,-86 1927.02,-122"/>
<text text-anchor="middle" x="1845" y="-99.8" font-family="Times,serif" font-size="14.00">EventSpeakersComponent</text>
</g>
<!-- EventSpeakersComponent&#45;&gt;EventsModule -->
<g id="edge11" class="edge">
<title>EventSpeakersComponent&#45;&gt;EventsModule</title>
<path fill="none" stroke="black" d="M1845,-122.11C1845,-122.11 1845,-140.99 1845,-140.99"/>
<polygon fill="black" stroke="black" points="1841.5,-140.99 1845,-150.99 1848.5,-140.99 1841.5,-140.99"/>
</g>
<!-- EventStatsComponent -->
<g id="node12" class="node">
<title>EventStatsComponent</title>
<polygon fill="#ffffb3" stroke="black" points="1744.71,-122 1603.29,-122 1603.29,-86 1744.71,-86 1744.71,-122"/>
<text text-anchor="middle" x="1674" y="-99.8" font-family="Times,serif" font-size="14.00">EventStatsComponent</text>
</g>
<!-- EventStatsComponent&#45;&gt;EventsModule -->
<g id="edge12" class="edge">
<title>EventStatsComponent&#45;&gt;EventsModule</title>
<path fill="none" stroke="black" d="M1674,-122.12C1674,-136.78 1674,-155 1674,-155 1674,-155 1786,-155 1786,-155"/>
<polygon fill="black" stroke="black" points="1786,-158.5 1796,-155 1786,-151.5 1786,-158.5"/>
</g>
<!-- EventStatusComponent -->
<g id="node13" class="node">
<title>EventStatusComponent</title>
<polygon fill="#ffffb3" stroke="black" points="1585.21,-122 1436.79,-122 1436.79,-86 1585.21,-86 1585.21,-122"/>
<text text-anchor="middle" x="1511" y="-99.8" font-family="Times,serif" font-size="14.00">EventStatusComponent</text>
</g>
<!-- EventStatusComponent&#45;&gt;EventsModule -->
<g id="edge13" class="edge">
<title>EventStatusComponent&#45;&gt;EventsModule</title>
<path fill="none" stroke="black" d="M1511,-122.28C1511,-137.95 1511,-158 1511,-158 1511,-158 1786.08,-158 1786.08,-158"/>
<polygon fill="black" stroke="black" points="1786.08,-161.5 1796.08,-158 1786.08,-154.5 1786.08,-161.5"/>
</g>
<!-- EventUpdatesComponent -->
<g id="node14" class="node">
<title>EventUpdatesComponent</title>
<polygon fill="#ffffb3" stroke="black" points="1418.86,-122 1259.14,-122 1259.14,-86 1418.86,-86 1418.86,-122"/>
<text text-anchor="middle" x="1339" y="-99.8" font-family="Times,serif" font-size="14.00">EventUpdatesComponent</text>
</g>
<!-- EventUpdatesComponent&#45;&gt;EventsModule -->
<g id="edge14" class="edge">
<title>EventUpdatesComponent&#45;&gt;EventsModule</title>
<path fill="none" stroke="black" d="M1339,-122.04C1339,-138.73 1339,-161 1339,-161 1339,-161 1786.02,-161 1786.02,-161"/>
<polygon fill="black" stroke="black" points="1786.02,-164.5 1796.02,-161 1786.02,-157.5 1786.02,-164.5"/>
</g>
<!-- FormGroupsComponent -->
<g id="node15" class="node">
<title>FormGroupsComponent</title>
<polygon fill="#ffffb3" stroke="black" points="1241.38,-122 1088.62,-122 1088.62,-86 1241.38,-86 1241.38,-122"/>
<text text-anchor="middle" x="1165" y="-99.8" font-family="Times,serif" font-size="14.00">FormGroupsComponent</text>
</g>
<!-- FormGroupsComponent&#45;&gt;EventsModule -->
<g id="edge15" class="edge">
<title>FormGroupsComponent&#45;&gt;EventsModule</title>
<path fill="none" stroke="black" d="M1165,-122.3C1165,-140.27 1165,-165 1165,-165 1165,-165 1786.1,-165 1786.1,-165"/>
<polygon fill="black" stroke="black" points="1786.1,-168.5 1796.1,-165 1786.1,-161.5 1786.1,-168.5"/>
</g>
<!-- SponsorsComponent -->
<g id="node16" class="node">
<title>SponsorsComponent</title>
<polygon fill="#ffffb3" stroke="black" points="1070.17,-122 937.83,-122 937.83,-86 1070.17,-86 1070.17,-122"/>
<text text-anchor="middle" x="1004" y="-99.8" font-family="Times,serif" font-size="14.00">SponsorsComponent</text>
</g>
<!-- SponsorsComponent&#45;&gt;EventsModule -->
<g id="edge16" class="edge">
<title>SponsorsComponent&#45;&gt;EventsModule</title>
<path fill="none" stroke="black" d="M1004,-122.17C1004,-141.09 1004,-168 1004,-168 1004,-168 1786.15,-168 1786.15,-168"/>
<polygon fill="black" stroke="black" points="1786.15,-171.5 1796.15,-168 1786.15,-164.5 1786.15,-171.5"/>
</g>
<!-- UserDetailsCellComponent -->
<g id="node17" class="node">
<title>UserDetailsCellComponent</title>
<polygon fill="#ffffb3" stroke="black" points="919.24,-122 748.76,-122 748.76,-86 919.24,-86 919.24,-122"/>
<text text-anchor="middle" x="834" y="-99.8" font-family="Times,serif" font-size="14.00">UserDetailsCellComponent</text>
</g>
<!-- UserDetailsCellComponent&#45;&gt;EventsModule -->
<g id="edge17" class="edge">
<title>UserDetailsCellComponent&#45;&gt;EventsModule</title>
<path fill="none" stroke="black" d="M834,-122.31C834,-142.15 834,-171 834,-171 834,-171 1786.24,-171 1786.24,-171"/>
<polygon fill="black" stroke="black" points="1786.24,-174.5 1796.24,-171 1786.24,-167.5 1786.24,-174.5"/>
</g>
<!-- UserDetailsComponent -->
<g id="node18" class="node">
<title>UserDetailsComponent</title>
<polygon fill="#ffffb3" stroke="black" points="730.91,-122 583.09,-122 583.09,-86 730.91,-86 730.91,-122"/>
<text text-anchor="middle" x="657" y="-99.8" font-family="Times,serif" font-size="14.00">UserDetailsComponent</text>
</g>
<!-- UserDetailsComponent&#45;&gt;EventsModule -->
<g id="edge18" class="edge">
<title>UserDetailsComponent&#45;&gt;EventsModule</title>
<path fill="none" stroke="black" d="M657,-122.03C657,-142.77 657,-174 657,-174 657,-174 1786.21,-174 1786.21,-174"/>
<polygon fill="black" stroke="black" points="1786.21,-177.5 1796.21,-174 1786.21,-170.5 1786.21,-177.5"/>
</g>
<!-- UserEventRegistrationsComponent -->
<g id="node19" class="node">
<title>UserEventRegistrationsComponent</title>
<polygon fill="#ffffb3" stroke="black" points="565.29,-122 350.71,-122 350.71,-86 565.29,-86 565.29,-122"/>
<text text-anchor="middle" x="458" y="-99.8" font-family="Times,serif" font-size="14.00">UserEventRegistrationsComponent</text>
</g>
<!-- UserEventRegistrationsComponent&#45;&gt;EventsModule -->
<g id="edge19" class="edge">
<title>UserEventRegistrationsComponent&#45;&gt;EventsModule</title>
<path fill="none" stroke="black" d="M458,-122.29C458,-144.21 458,-178 458,-178 458,-178 1786.04,-178 1786.04,-178"/>
<polygon fill="black" stroke="black" points="1786.04,-181.5 1796.04,-178 1786.04,-174.5 1786.04,-181.5"/>
</g>
<!-- VolunteersComponent -->
<g id="node20" class="node">
<title>VolunteersComponent</title>
<polygon fill="#ffffb3" stroke="black" points="332.25,-122 189.75,-122 189.75,-86 332.25,-86 332.25,-122"/>
<text text-anchor="middle" x="261" y="-99.8" font-family="Times,serif" font-size="14.00">VolunteersComponent</text>
</g>
<!-- VolunteersComponent&#45;&gt;EventsModule -->
<g id="edge20" class="edge">
<title>VolunteersComponent&#45;&gt;EventsModule</title>
<path fill="none" stroke="black" d="M261,-122.25C261,-145.02 261,-181 261,-181 261,-181 1786.29,-181 1786.29,-181"/>
<polygon fill="black" stroke="black" points="1786.29,-184.5 1796.29,-181 1786.29,-177.5 1786.29,-184.5"/>
</g>
<!-- EventsRoutingModule -->
<g id="node22" class="node">
<title>EventsRoutingModule</title>
<polygon fill="#8dd3c7" stroke="black" points="166.27,-122 163.27,-126 142.27,-126 139.27,-122 23.73,-122 23.73,-86 166.27,-86 166.27,-122"/>
<text text-anchor="middle" x="95" y="-99.8" font-family="Times,serif" font-size="14.00">EventsRoutingModule</text>
</g>
<!-- EventsRoutingModule&#45;&gt;EventsModule -->
<g id="edge21" class="edge">
<title>EventsRoutingModule&#45;&gt;EventsModule</title>
<path fill="none" stroke="black" d="M95,-122.15C95,-145.76 95,-184 95,-184 95,-184 1785.91,-184 1785.91,-184"/>
<polygon fill="black" stroke="black" points="1785.91,-187.5 1795.91,-184 1785.91,-180.5 1785.91,-187.5"/>
</g>
</g>
</svg>
