<?xml version="1.0" encoding="UTF-8" standalone="no"?>
<!DOCTYPE svg PUBLIC "-//W3C//DTD SVG 1.1//EN"
 "http://www.w3.org/Graphics/SVG/1.1/DTD/svg11.dtd">
<!-- Generated by graphviz version 5.0.0 (20220707.1540)
 -->
<!-- Title: dependencies Pages: 1 -->
<svg width="4950pt" height="247pt"
 viewBox="0.00 0.00 4950.00 246.80" xmlns="http://www.w3.org/2000/svg" xmlns:xlink="http://www.w3.org/1999/xlink">
<g id="graph0" class="graph" transform="scale(1 1) rotate(0) translate(4 242.8)">
<title>dependencies</title>
<polygon fill="white" stroke="transparent" points="-4,4 -4,-242.8 4946,-242.8 4946,4 -4,4"/>
<text text-anchor="middle" x="2471" y="-8.2" font-family="sans-serif" font-size="14.00">dependencies</text>
<g id="clust1" class="cluster">
<title>cluster_EventsModule</title>
<polygon fill="none" stroke="black" stroke-dasharray="1,5" points="8,-32.8 8,-230.8 4934,-230.8 4934,-32.8 8,-32.8"/>
</g>
<g id="clust27" class="cluster">
<title>cluster_EventsModule_exports</title>
<polygon fill="none" stroke="black" points="2318,-170.8 2318,-222.8 2484,-222.8 2484,-170.8 2318,-170.8"/>
</g>
<g id="clust26" class="cluster">
<title>cluster_EventsModule_imports</title>
<polygon fill="none" stroke="black" points="4424,-40.8 4424,-92.8 4926,-92.8 4926,-40.8 4424,-40.8"/>
</g>
<g id="clust2" class="cluster">
<title>cluster_EventsModule_declarations</title>
<polygon fill="none" stroke="black" points="16,-40.8 16,-92.8 4416,-92.8 4416,-40.8 16,-40.8"/>
</g>
<!-- CollaboratingCommunitiesComponent -->
<g id="node1" class="node">
<title>CollaboratingCommunitiesComponent</title>
<polygon fill="#ffffb3" stroke="black" points="4407.77,-84.8 4174.23,-84.8 4174.23,-48.8 4407.77,-48.8 4407.77,-84.8"/>
<text text-anchor="middle" x="4291" y="-62.6" font-family="Times,serif" font-size="14.00">CollaboratingCommunitiesComponent</text>
</g>
<!-- EventsModule -->
<g id="node24" class="node">
<title>EventsModule</title>
<polygon fill="#8dd3c7" stroke="black" points="2449.66,-149.8 2446.66,-153.8 2425.66,-153.8 2422.66,-149.8 2352.34,-149.8 2352.34,-113.8 2449.66,-113.8 2449.66,-149.8"/>
<text text-anchor="middle" x="2401" y="-127.6" font-family="Times,serif" font-size="14.00">EventsModule</text>
</g>
<!-- CollaboratingCommunitiesComponent&#45;&gt;EventsModule -->
<g id="edge1" class="edge">
<title>CollaboratingCommunitiesComponent&#45;&gt;EventsModule</title>
<path fill="none" stroke="black" d="M4291,-84.97C4291,-106.3 4291,-138.8 4291,-138.8 4291,-138.8 2460.1,-138.8 2460.1,-138.8"/>
<polygon fill="black" stroke="black" points="2460.1,-135.3 2450.1,-138.8 2460.1,-142.3 2460.1,-135.3"/>
</g>
<!-- CreateEventComponent -->
<g id="node2" class="node">
<title>CreateEventComponent</title>
<polygon fill="#ffffb3" stroke="black" points="4156.02,-84.8 4005.98,-84.8 4005.98,-48.8 4156.02,-48.8 4156.02,-84.8"/>
<text text-anchor="middle" x="4081" y="-62.6" font-family="Times,serif" font-size="14.00">CreateEventComponent</text>
</g>
<!-- CreateEventComponent&#45;&gt;EventsModule -->
<g id="edge2" class="edge">
<title>CreateEventComponent&#45;&gt;EventsModule</title>
<path fill="none" stroke="black" d="M4081,-84.83C4081,-105.57 4081,-136.8 4081,-136.8 4081,-136.8 2459.92,-136.8 2459.92,-136.8"/>
<polygon fill="black" stroke="black" points="2459.92,-133.3 2449.92,-136.8 2459.92,-140.3 2459.92,-133.3"/>
</g>
<!-- EditEventComponent -->
<g id="node3" class="node">
<title>EditEventComponent</title>
<polygon fill="#ffffb3" stroke="black" points="3987.82,-84.8 3850.18,-84.8 3850.18,-48.8 3987.82,-48.8 3987.82,-84.8"/>
<text text-anchor="middle" x="3919" y="-62.6" font-family="Times,serif" font-size="14.00">EditEventComponent</text>
</g>
<!-- EditEventComponent&#45;&gt;EventsModule -->
<g id="edge3" class="edge">
<title>EditEventComponent&#45;&gt;EventsModule</title>
<path fill="none" stroke="black" d="M3919,-85.11C3919,-104.95 3919,-133.8 3919,-133.8 3919,-133.8 2459.79,-133.8 2459.79,-133.8"/>
<polygon fill="black" stroke="black" points="2459.79,-130.3 2449.79,-133.8 2459.79,-137.3 2459.79,-130.3"/>
</g>
<!-- EntryPassScanComponent -->
<g id="node4" class="node">
<title>EntryPassScanComponent</title>
<polygon fill="#ffffb3" stroke="black" points="3832.05,-84.8 3667.95,-84.8 3667.95,-48.8 3832.05,-48.8 3832.05,-84.8"/>
<text text-anchor="middle" x="3750" y="-62.6" font-family="Times,serif" font-size="14.00">EntryPassScanComponent</text>
</g>
<!-- EntryPassScanComponent&#45;&gt;EventsModule -->
<g id="edge4" class="edge">
<title>EntryPassScanComponent&#45;&gt;EventsModule</title>
<path fill="none" stroke="black" d="M3750,-84.97C3750,-103.89 3750,-130.8 3750,-130.8 3750,-130.8 2459.81,-130.8 2459.81,-130.8"/>
<polygon fill="black" stroke="black" points="2459.81,-127.3 2449.81,-130.8 2459.81,-134.3 2459.81,-127.3"/>
</g>
<!-- EventCommentsComponent -->
<g id="node5" class="node">
<title>EventCommentsComponent</title>
<polygon fill="#ffffb3" stroke="black" points="3649.16,-84.8 3474.84,-84.8 3474.84,-48.8 3649.16,-48.8 3649.16,-84.8"/>
<text text-anchor="middle" x="3562" y="-62.6" font-family="Times,serif" font-size="14.00">EventCommentsComponent</text>
</g>
<!-- EventCommentsComponent&#45;&gt;EventsModule -->
<g id="edge5" class="edge">
<title>EventCommentsComponent&#45;&gt;EventsModule</title>
<path fill="none" stroke="black" d="M3562,-85.1C3562,-103.07 3562,-127.8 3562,-127.8 3562,-127.8 2459.78,-127.8 2459.78,-127.8"/>
<polygon fill="black" stroke="black" points="2459.78,-124.3 2449.78,-127.8 2459.78,-131.3 2459.78,-124.3"/>
</g>
<!-- EventDashboardComponent -->
<g id="node6" class="node">
<title>EventDashboardComponent</title>
<polygon fill="#ffffb3" stroke="black" points="3456.14,-84.8 3281.86,-84.8 3281.86,-48.8 3456.14,-48.8 3456.14,-84.8"/>
<text text-anchor="middle" x="3369" y="-62.6" font-family="Times,serif" font-size="14.00">EventDashboardComponent</text>
</g>
<!-- EventDashboardComponent&#45;&gt;EventsModule -->
<g id="edge6" class="edge">
<title>EventDashboardComponent&#45;&gt;EventsModule</title>
<path fill="none" stroke="black" d="M3369,-84.82C3369,-102.17 3369,-125.8 3369,-125.8 3369,-125.8 2459.67,-125.8 2459.67,-125.8"/>
<polygon fill="black" stroke="black" points="2459.67,-122.3 2449.67,-125.8 2459.67,-129.3 2459.67,-122.3"/>
</g>
<!-- EventDetailsComponent -->
<g id="node7" class="node">
<title>EventDetailsComponent</title>
<polygon fill="#ffffb3" stroke="black" points="3263.64,-84.8 3110.36,-84.8 3110.36,-48.8 3263.64,-48.8 3263.64,-84.8"/>
<text text-anchor="middle" x="3187" y="-62.6" font-family="Times,serif" font-size="14.00">EventDetailsComponent</text>
</g>
<!-- EventDetailsComponent&#45;&gt;EventsModule -->
<g id="edge7" class="edge">
<title>EventDetailsComponent&#45;&gt;EventsModule</title>
<path fill="none" stroke="black" d="M3187,-84.83C3187,-101.2 3187,-122.8 3187,-122.8 3187,-122.8 2459.87,-122.8 2459.87,-122.8"/>
<polygon fill="black" stroke="black" points="2459.87,-119.3 2449.87,-122.8 2459.87,-126.3 2459.87,-119.3"/>
</g>
<!-- EventEmbeddedVideoStreamComponent -->
<g id="node8" class="node">
<title>EventEmbeddedVideoStreamComponent</title>
<polygon fill="#ffffb3" stroke="black" points="3091.72,-84.8 2844.28,-84.8 2844.28,-48.8 3091.72,-48.8 3091.72,-84.8"/>
<text text-anchor="middle" x="2968" y="-62.6" font-family="Times,serif" font-size="14.00">EventEmbeddedVideoStreamComponent</text>
</g>
<!-- EventEmbeddedVideoStreamComponent&#45;&gt;EventsModule -->
<g id="edge8" class="edge">
<title>EventEmbeddedVideoStreamComponent&#45;&gt;EventsModule</title>
<path fill="none" stroke="black" d="M2968,-85.04C2968,-100.37 2968,-119.8 2968,-119.8 2968,-119.8 2459.83,-119.8 2459.83,-119.8"/>
<polygon fill="black" stroke="black" points="2459.83,-116.3 2449.83,-119.8 2459.83,-123.3 2459.83,-116.3"/>
</g>
<!-- EventFormResponsesComponent -->
<g id="node9" class="node">
<title>EventFormResponsesComponent</title>
<polygon fill="#ffffb3" stroke="black" points="2825.94,-84.8 2622.06,-84.8 2622.06,-48.8 2825.94,-48.8 2825.94,-84.8"/>
<text text-anchor="middle" x="2724" y="-62.6" font-family="Times,serif" font-size="14.00">EventFormResponsesComponent</text>
</g>
<!-- EventFormResponsesComponent&#45;&gt;EventsModule -->
<g id="edge9" class="edge">
<title>EventFormResponsesComponent&#45;&gt;EventsModule</title>
<path fill="none" stroke="black" d="M2724,-84.85C2724,-99.17 2724,-116.8 2724,-116.8 2724,-116.8 2459.71,-116.8 2459.71,-116.8"/>
<polygon fill="black" stroke="black" points="2459.71,-113.3 2449.71,-116.8 2459.71,-120.3 2459.71,-113.3"/>
</g>
<!-- EventLocationTracksComponent -->
<g id="node10" class="node">
<title>EventLocationTracksComponent</title>
<polygon fill="#ffffb3" stroke="black" points="2603.84,-84.8 2402.16,-84.8 2402.16,-48.8 2603.84,-48.8 2603.84,-84.8"/>
<text text-anchor="middle" x="2503" y="-62.6" font-family="Times,serif" font-size="14.00">EventLocationTracksComponent</text>
</g>
<!-- EventLocationTracksComponent&#45;&gt;EventsModule -->
<g id="edge10" class="edge">
<title>EventLocationTracksComponent&#45;&gt;EventsModule</title>
<path fill="none" stroke="black" d="M2425.96,-84.91C2425.96,-84.91 2425.96,-103.79 2425.96,-103.79"/>
<polygon fill="black" stroke="black" points="2422.46,-103.79 2425.96,-113.79 2429.46,-103.79 2422.46,-103.79"/>
</g>
<!-- EventLocationsComponent -->
<g id="node11" class="node">
<title>EventLocationsComponent</title>
<polygon fill="#ffffb3" stroke="black" points="2383.69,-84.8 2214.31,-84.8 2214.31,-48.8 2383.69,-48.8 2383.69,-84.8"/>
<text text-anchor="middle" x="2299" y="-62.6" font-family="Times,serif" font-size="14.00">EventLocationsComponent</text>
</g>
<!-- EventLocationsComponent&#45;&gt;EventsModule -->
<g id="edge11" class="edge">
<title>EventLocationsComponent&#45;&gt;EventsModule</title>
<path fill="none" stroke="black" d="M2367.88,-84.91C2367.88,-84.91 2367.88,-103.79 2367.88,-103.79"/>
<polygon fill="black" stroke="black" points="2364.38,-103.79 2367.88,-113.79 2371.38,-103.79 2364.38,-103.79"/>
</g>
<!-- EventRecordingsComponent -->
<g id="node12" class="node">
<title>EventRecordingsComponent</title>
<polygon fill="#ffffb3" stroke="black" points="2196.75,-84.8 2019.25,-84.8 2019.25,-48.8 2196.75,-48.8 2196.75,-84.8"/>
<text text-anchor="middle" x="2108" y="-62.6" font-family="Times,serif" font-size="14.00">EventRecordingsComponent</text>
</g>
<!-- EventRecordingsComponent&#45;&gt;EventsModule -->
<g id="edge12" class="edge">
<title>EventRecordingsComponent&#45;&gt;EventsModule</title>
<path fill="none" stroke="black" d="M2108,-84.85C2108,-99.17 2108,-116.8 2108,-116.8 2108,-116.8 2342.29,-116.8 2342.29,-116.8"/>
<polygon fill="black" stroke="black" points="2342.29,-120.3 2352.29,-116.8 2342.29,-113.3 2342.29,-120.3"/>
</g>
<!-- EventSimpleRegistrationComponent -->
<g id="node13" class="node">
<title>EventSimpleRegistrationComponent</title>
<polygon fill="#ffffb3" stroke="black" points="2001.09,-84.8 1778.91,-84.8 1778.91,-48.8 2001.09,-48.8 2001.09,-84.8"/>
<text text-anchor="middle" x="1890" y="-62.6" font-family="Times,serif" font-size="14.00">EventSimpleRegistrationComponent</text>
</g>
<!-- EventSimpleRegistrationComponent&#45;&gt;EventsModule -->
<g id="edge13" class="edge">
<title>EventSimpleRegistrationComponent&#45;&gt;EventsModule</title>
<path fill="none" stroke="black" d="M1890,-85.04C1890,-100.37 1890,-119.8 1890,-119.8 1890,-119.8 2342,-119.8 2342,-119.8"/>
<polygon fill="black" stroke="black" points="2342,-123.3 2352,-119.8 2342,-116.3 2342,-123.3"/>
</g>
<!-- EventSpeakersComponent -->
<g id="node14" class="node">
<title>EventSpeakersComponent</title>
<polygon fill="#ffffb3" stroke="black" points="1761.03,-84.8 1596.97,-84.8 1596.97,-48.8 1761.03,-48.8 1761.03,-84.8"/>
<text text-anchor="middle" x="1679" y="-62.6" font-family="Times,serif" font-size="14.00">EventSpeakersComponent</text>
</g>
<!-- EventSpeakersComponent&#45;&gt;EventsModule -->
<g id="edge14" class="edge">
<title>EventSpeakersComponent&#45;&gt;EventsModule</title>
<path fill="none" stroke="black" d="M1679,-84.83C1679,-101.2 1679,-122.8 1679,-122.8 1679,-122.8 2342.22,-122.8 2342.22,-122.8"/>
<polygon fill="black" stroke="black" points="2342.22,-126.3 2352.22,-122.8 2342.22,-119.3 2342.22,-126.3"/>
</g>
<!-- EventStatsComponent -->
<g id="node15" class="node">
<title>EventStatsComponent</title>
<polygon fill="#ffffb3" stroke="black" points="1578.71,-84.8 1437.29,-84.8 1437.29,-48.8 1578.71,-48.8 1578.71,-84.8"/>
<text text-anchor="middle" x="1508" y="-62.6" font-family="Times,serif" font-size="14.00">EventStatsComponent</text>
</g>
<!-- EventStatsComponent&#45;&gt;EventsModule -->
<g id="edge15" class="edge">
<title>EventStatsComponent&#45;&gt;EventsModule</title>
<path fill="none" stroke="black" d="M1508,-84.82C1508,-102.17 1508,-125.8 1508,-125.8 1508,-125.8 2342.04,-125.8 2342.04,-125.8"/>
<polygon fill="black" stroke="black" points="2342.04,-129.3 2352.04,-125.8 2342.04,-122.3 2342.04,-129.3"/>
</g>
<!-- EventStatusComponent -->
<g id="node16" class="node">
<title>EventStatusComponent</title>
<polygon fill="#ffffb3" stroke="black" points="1419.21,-84.8 1270.79,-84.8 1270.79,-48.8 1419.21,-48.8 1419.21,-84.8"/>
<text text-anchor="middle" x="1345" y="-62.6" font-family="Times,serif" font-size="14.00">EventStatusComponent</text>
</g>
<!-- EventStatusComponent&#45;&gt;EventsModule -->
<g id="edge16" class="edge">
<title>EventStatusComponent&#45;&gt;EventsModule</title>
<path fill="none" stroke="black" d="M1345,-85.1C1345,-103.07 1345,-127.8 1345,-127.8 1345,-127.8 2342.18,-127.8 2342.18,-127.8"/>
<polygon fill="black" stroke="black" points="2342.18,-131.3 2352.18,-127.8 2342.18,-124.3 2342.18,-131.3"/>
</g>
<!-- EventUpdatesComponent -->
<g id="node17" class="node">
<title>EventUpdatesComponent</title>
<polygon fill="#ffffb3" stroke="black" points="1252.86,-84.8 1093.14,-84.8 1093.14,-48.8 1252.86,-48.8 1252.86,-84.8"/>
<text text-anchor="middle" x="1173" y="-62.6" font-family="Times,serif" font-size="14.00">EventUpdatesComponent</text>
</g>
<!-- EventUpdatesComponent&#45;&gt;EventsModule -->
<g id="edge17" class="edge">
<title>EventUpdatesComponent&#45;&gt;EventsModule</title>
<path fill="none" stroke="black" d="M1173,-84.97C1173,-103.89 1173,-130.8 1173,-130.8 1173,-130.8 2342.1,-130.8 2342.1,-130.8"/>
<polygon fill="black" stroke="black" points="2342.1,-134.3 2352.1,-130.8 2342.1,-127.3 2342.1,-134.3"/>
</g>
<!-- FormGroupsComponent -->
<g id="node18" class="node">
<title>FormGroupsComponent</title>
<polygon fill="#ffffb3" stroke="black" points="1075.39,-84.8 922.61,-84.8 922.61,-48.8 1075.39,-48.8 1075.39,-84.8"/>
<text text-anchor="middle" x="999" y="-62.6" font-family="Times,serif" font-size="14.00">FormGroupsComponent</text>
</g>
<!-- FormGroupsComponent&#45;&gt;EventsModule -->
<g id="edge18" class="edge">
<title>FormGroupsComponent&#45;&gt;EventsModule</title>
<path fill="none" stroke="black" d="M999,-85.11C999,-104.95 999,-133.8 999,-133.8 999,-133.8 2342.33,-133.8 2342.33,-133.8"/>
<polygon fill="black" stroke="black" points="2342.33,-137.3 2352.33,-133.8 2342.33,-130.3 2342.33,-137.3"/>
</g>
<!-- SponsorsComponent -->
<g id="node19" class="node">
<title>SponsorsComponent</title>
<polygon fill="#ffffb3" stroke="black" points="904.18,-84.8 771.82,-84.8 771.82,-48.8 904.18,-48.8 904.18,-84.8"/>
<text text-anchor="middle" x="838" y="-62.6" font-family="Times,serif" font-size="14.00">SponsorsComponent</text>
</g>
<!-- SponsorsComponent&#45;&gt;EventsModule -->
<g id="edge19" class="edge">
<title>SponsorsComponent&#45;&gt;EventsModule</title>
<path fill="none" stroke="black" d="M838,-84.83C838,-105.57 838,-136.8 838,-136.8 838,-136.8 2342.08,-136.8 2342.08,-136.8"/>
<polygon fill="black" stroke="black" points="2342.08,-140.3 2352.08,-136.8 2342.08,-133.3 2342.08,-140.3"/>
</g>
<!-- UserDetailsCellComponent -->
<g id="node20" class="node">
<title>UserDetailsCellComponent</title>
<polygon fill="#ffffb3" stroke="black" points="753.25,-84.8 582.75,-84.8 582.75,-48.8 753.25,-48.8 753.25,-84.8"/>
<text text-anchor="middle" x="668" y="-62.6" font-family="Times,serif" font-size="14.00">UserDetailsCellComponent</text>
</g>
<!-- UserDetailsCellComponent&#45;&gt;EventsModule -->
<g id="edge20" class="edge">
<title>UserDetailsCellComponent&#45;&gt;EventsModule</title>
<path fill="none" stroke="black" d="M668,-84.97C668,-106.3 668,-138.8 668,-138.8 668,-138.8 2341.93,-138.8 2341.93,-138.8"/>
<polygon fill="black" stroke="black" points="2341.93,-142.3 2351.93,-138.8 2341.93,-135.3 2341.93,-142.3"/>
</g>
<!-- UserDetailsComponent -->
<g id="node21" class="node">
<title>UserDetailsComponent</title>
<polygon fill="#ffffb3" stroke="black" points="564.92,-84.8 417.08,-84.8 417.08,-48.8 564.92,-48.8 564.92,-84.8"/>
<text text-anchor="middle" x="491" y="-62.6" font-family="Times,serif" font-size="14.00">UserDetailsComponent</text>
</g>
<!-- UserDetailsComponent&#45;&gt;EventsModule -->
<g id="edge21" class="edge">
<title>UserDetailsComponent&#45;&gt;EventsModule</title>
<path fill="none" stroke="black" d="M491,-84.96C491,-107.15 491,-141.8 491,-141.8 491,-141.8 2341.87,-141.8 2341.87,-141.8"/>
<polygon fill="black" stroke="black" points="2341.87,-145.3 2351.87,-141.8 2341.87,-138.3 2341.87,-145.3"/>
</g>
<!-- UserEventRegistrationsComponent -->
<g id="node22" class="node">
<title>UserEventRegistrationsComponent</title>
<polygon fill="#ffffb3" stroke="black" points="399.3,-84.8 184.7,-84.8 184.7,-48.8 399.3,-48.8 399.3,-84.8"/>
<text text-anchor="middle" x="292" y="-62.6" font-family="Times,serif" font-size="14.00">UserEventRegistrationsComponent</text>
</g>
<!-- UserEventRegistrationsComponent&#45;&gt;EventsModule -->
<g id="edge22" class="edge">
<title>UserEventRegistrationsComponent&#45;&gt;EventsModule</title>
<path fill="none" stroke="black" d="M292,-84.89C292,-107.93 292,-144.8 292,-144.8 292,-144.8 2342.23,-144.8 2342.23,-144.8"/>
<polygon fill="black" stroke="black" points="2342.23,-148.3 2352.23,-144.8 2342.23,-141.3 2342.23,-148.3"/>
</g>
<!-- VolunteersComponent -->
<g id="node23" class="node">
<title>VolunteersComponent</title>
<polygon fill="#ffffb3" stroke="black" points="166.26,-84.8 23.74,-84.8 23.74,-48.8 166.26,-48.8 166.26,-84.8"/>
<text text-anchor="middle" x="95" y="-62.6" font-family="Times,serif" font-size="14.00">VolunteersComponent</text>
</g>
<!-- VolunteersComponent&#45;&gt;EventsModule -->
<g id="edge23" class="edge">
<title>VolunteersComponent&#45;&gt;EventsModule</title>
<path fill="none" stroke="black" d="M95,-85.18C95,-109.08 95,-147.8 95,-147.8 95,-147.8 2342.3,-147.8 2342.3,-147.8"/>
<polygon fill="black" stroke="black" points="2342.3,-151.3 2352.3,-147.8 2342.3,-144.3 2342.3,-151.3"/>
</g>
<!-- UserDetailsComponent  -->
<g id="node28" class="node">
<title>UserDetailsComponent </title>
<polygon fill="#fb8072" stroke="black" points="2476.42,-214.8 2325.58,-214.8 2325.58,-178.8 2476.42,-178.8 2476.42,-214.8"/>
<text text-anchor="middle" x="2401" y="-192.6" font-family="Times,serif" font-size="14.00">UserDetailsComponent </text>
</g>
<!-- EventsModule&#45;&gt;UserDetailsComponent  -->
<g id="edge27" class="edge">
<title>EventsModule&#45;&gt;UserDetailsComponent </title>
<path fill="none" stroke="black" stroke-dasharray="5,2" d="M2401,-149.91C2401,-149.91 2401,-168.79 2401,-168.79"/>
<polygon fill="black" stroke="black" points="2397.5,-168.79 2401,-178.79 2404.5,-168.79 2397.5,-168.79"/>
</g>
<!-- EventsRoutingModule -->
<g id="node25" class="node">
<title>EventsRoutingModule</title>
<polygon fill="#8dd3c7" stroke="black" points="4918.27,-84.8 4915.27,-88.8 4894.27,-88.8 4891.27,-84.8 4775.73,-84.8 4775.73,-48.8 4918.27,-48.8 4918.27,-84.8"/>
<text text-anchor="middle" x="4847" y="-62.6" font-family="Times,serif" font-size="14.00">EventsRoutingModule</text>
</g>
<!-- EventsRoutingModule&#45;&gt;EventsModule -->
<g id="edge24" class="edge">
<title>EventsRoutingModule&#45;&gt;EventsModule</title>
<path fill="none" stroke="black" d="M4847,-85.18C4847,-109.08 4847,-147.8 4847,-147.8 4847,-147.8 2459.86,-147.8 2459.86,-147.8"/>
<polygon fill="black" stroke="black" points="2459.86,-144.3 2449.86,-147.8 2459.86,-151.3 2459.86,-144.3"/>
</g>
<!-- MiniUserProfileModule -->
<g id="node26" class="node">
<title>MiniUserProfileModule</title>
<polygon fill="#8dd3c7" stroke="black" points="4757.82,-84.8 4754.82,-88.8 4733.82,-88.8 4730.82,-84.8 4606.18,-84.8 4606.18,-48.8 4757.82,-48.8 4757.82,-84.8"/>
<text text-anchor="middle" x="4682" y="-62.6" font-family="Times,serif" font-size="14.00">MiniUserProfileModule</text>
</g>
<!-- MiniUserProfileModule&#45;&gt;EventsModule -->
<g id="edge25" class="edge">
<title>MiniUserProfileModule&#45;&gt;EventsModule</title>
<path fill="none" stroke="black" d="M4682,-84.89C4682,-107.93 4682,-144.8 4682,-144.8 4682,-144.8 2459.7,-144.8 2459.7,-144.8"/>
<polygon fill="black" stroke="black" points="2459.7,-141.3 2449.7,-144.8 2459.7,-148.3 2459.7,-141.3"/>
</g>
<!-- SharedDirectivesModule -->
<g id="node27" class="node">
<title>SharedDirectivesModule</title>
<polygon fill="#8dd3c7" stroke="black" points="4587.96,-84.8 4584.96,-88.8 4563.96,-88.8 4560.96,-84.8 4432.04,-84.8 4432.04,-48.8 4587.96,-48.8 4587.96,-84.8"/>
<text text-anchor="middle" x="4510" y="-62.6" font-family="Times,serif" font-size="14.00">SharedDirectivesModule</text>
</g>
<!-- SharedDirectivesModule&#45;&gt;EventsModule -->
<g id="edge26" class="edge">
<title>SharedDirectivesModule&#45;&gt;EventsModule</title>
<path fill="none" stroke="black" d="M4510,-84.96C4510,-107.15 4510,-141.8 4510,-141.8 4510,-141.8 2459.77,-141.8 2459.77,-141.8"/>
<polygon fill="black" stroke="black" points="2459.77,-138.3 2449.77,-141.8 2459.77,-145.3 2459.77,-138.3"/>
</g>
</g>
</svg>
