<?xml version="1.0" encoding="UTF-8" standalone="no"?>
<!DOCTYPE svg PUBLIC "-//W3C//DTD SVG 1.1//EN"
 "http://www.w3.org/Graphics/SVG/1.1/DTD/svg11.dtd">
<!-- Generated by graphviz version 2.47.3 (20210619.1520)
 -->
<!-- Title: dependencies Pages: 1 -->
<svg width="1030pt" height="174pt"
 viewBox="0.00 0.00 1030.00 173.80" xmlns="http://www.w3.org/2000/svg" xmlns:xlink="http://www.w3.org/1999/xlink">
<g id="graph0" class="graph" transform="scale(1 1) rotate(0) translate(4 169.8)">
<title>dependencies</title>
<polygon fill="white" stroke="transparent" points="-4,4 -4,-169.8 1026,-169.8 1026,4 -4,4"/>
<text text-anchor="middle" x="511" y="-8.2" font-family="sans-serif" font-size="14.00">dependencies</text>
<g id="clust1" class="cluster">
<title>cluster_SpeakerResourcesModule</title>
<polygon fill="none" stroke="black" stroke-dasharray="1,5" points="8,-32.8 8,-157.8 1014,-157.8 1014,-32.8 8,-32.8"/>
</g>
<g id="clust6" class="cluster">
<title>cluster_SpeakerResourcesModule_imports</title>
<polygon fill="none" stroke="black" points="782,-40.8 782,-92.8 1006,-92.8 1006,-40.8 782,-40.8"/>
</g>
<g id="clust2" class="cluster">
<title>cluster_SpeakerResourcesModule_declarations</title>
<polygon fill="none" stroke="black" points="16,-40.8 16,-92.8 774,-92.8 774,-40.8 16,-40.8"/>
</g>
<!-- SpeakerResourceComponent -->
<g id="node1" class="node">
<title>SpeakerResourceComponent</title>
<polygon fill="#ffffb3" stroke="black" points="766.01,-84.8 587.99,-84.8 587.99,-48.8 766.01,-48.8 766.01,-84.8"/>
<text text-anchor="middle" x="677" y="-62.6" font-family="Times,serif" font-size="14.00">SpeakerResourceComponent</text>
</g>
<!-- SpeakerResourcesModule -->
<g id="node4" class="node">
<title>SpeakerResourcesModule</title>
<polygon fill="#8dd3c7" stroke="black" points="644.17,-149.8 641.17,-153.8 620.17,-153.8 617.17,-149.8 481.83,-149.8 481.83,-113.8 644.17,-113.8 644.17,-149.8"/>
<text text-anchor="middle" x="563" y="-127.6" font-family="Times,serif" font-size="14.00">SpeakerResourcesModule</text>
</g>
<!-- SpeakerResourceComponent&#45;&gt;SpeakerResourcesModule -->
<g id="edge1" class="edge">
<title>SpeakerResourceComponent&#45;&gt;SpeakerResourcesModule</title>
<path fill="none" stroke="black" d="M615.92,-84.91C615.92,-84.91 615.92,-103.79 615.92,-103.79"/>
<polygon fill="black" stroke="black" points="612.42,-103.79 615.92,-113.79 619.42,-103.79 612.42,-103.79"/>
</g>
<!-- SpeakerResourceDiscussionComponent -->
<g id="node2" class="node">
<title>SpeakerResourceDiscussionComponent</title>
<polygon fill="#ffffb3" stroke="black" points="569.94,-84.8 330.06,-84.8 330.06,-48.8 569.94,-48.8 569.94,-84.8"/>
<text text-anchor="middle" x="450" y="-62.6" font-family="Times,serif" font-size="14.00">SpeakerResourceDiscussionComponent</text>
</g>
<!-- SpeakerResourceDiscussionComponent&#45;&gt;SpeakerResourcesModule -->
<g id="edge2" class="edge">
<title>SpeakerResourceDiscussionComponent&#45;&gt;SpeakerResourcesModule</title>
<path fill="none" stroke="black" d="M525.94,-84.91C525.94,-84.91 525.94,-103.79 525.94,-103.79"/>
<polygon fill="black" stroke="black" points="522.44,-103.79 525.94,-113.79 529.44,-103.79 522.44,-103.79"/>
</g>
<!-- SpeakerResourceDiscussionMessageComponent -->
<g id="node3" class="node">
<title>SpeakerResourceDiscussionMessageComponent</title>
<polygon fill="#ffffb3" stroke="black" points="312.42,-84.8 23.58,-84.8 23.58,-48.8 312.42,-48.8 312.42,-84.8"/>
<text text-anchor="middle" x="168" y="-62.6" font-family="Times,serif" font-size="14.00">SpeakerResourceDiscussionMessageComponent</text>
</g>
<!-- SpeakerResourceDiscussionMessageComponent&#45;&gt;SpeakerResourcesModule -->
<g id="edge3" class="edge">
<title>SpeakerResourceDiscussionMessageComponent&#45;&gt;SpeakerResourcesModule</title>
<path fill="none" stroke="black" d="M168,-84.91C168,-104.14 168,-131.8 168,-131.8 168,-131.8 471.63,-131.8 471.63,-131.8"/>
<polygon fill="black" stroke="black" points="471.63,-135.3 481.63,-131.8 471.63,-128.3 471.63,-135.3"/>
</g>
<!-- SpeakerResourcesRoutingModule -->
<g id="node5" class="node">
<title>SpeakerResourcesRoutingModule</title>
<polygon fill="#8dd3c7" stroke="black" points="997.78,-84.8 994.78,-88.8 973.78,-88.8 970.78,-84.8 790.22,-84.8 790.22,-48.8 997.78,-48.8 997.78,-84.8"/>
<text text-anchor="middle" x="894" y="-62.6" font-family="Times,serif" font-size="14.00">SpeakerResourcesRoutingModule</text>
</g>
<!-- SpeakerResourcesRoutingModule&#45;&gt;SpeakerResourcesModule -->
<g id="edge4" class="edge">
<title>SpeakerResourcesRoutingModule&#45;&gt;SpeakerResourcesModule</title>
<path fill="none" stroke="black" d="M894,-84.91C894,-104.14 894,-131.8 894,-131.8 894,-131.8 654.4,-131.8 654.4,-131.8"/>
<polygon fill="black" stroke="black" points="654.4,-128.3 644.4,-131.8 654.4,-135.3 654.4,-128.3"/>
</g>
</g>
</svg>
