<?xml version="1.0" encoding="UTF-8" standalone="no"?>
<!DOCTYPE svg PUBLIC "-//W3C//DTD SVG 1.1//EN"
 "http://www.w3.org/Graphics/SVG/1.1/DTD/svg11.dtd">
<!-- Generated by graphviz version 2.47.0 (20210316.0004)
 -->
<!-- Title: dependencies Pages: 1 -->
<svg width="1030pt" height="211pt"
     viewBox="0.00 0.00 1030.00 211.00" xmlns="http://www.w3.org/2000/svg">
<g id="graph0" class="graph" transform="scale(1 1) rotate(0) translate(4 207)">
<title>dependencies</title>
<polygon fill="white" stroke="transparent" points="-4,4 -4,-207 1026,-207 1026,4 -4,4"/>
<text text-anchor="start" x="490.01" y="-42.4" font-family="sans-serif" font-weight="bold" font-size="14.00">Legend</text>
<polygon fill="#ffffb3" stroke="transparent" points="277,-10 277,-30 297,-30 297,-10 277,-10"/>
<text text-anchor="start" x="300.63" y="-15.4" font-family="sans-serif" font-size="14.00"> &#160;Declarations</text>
<polygon fill="#8dd3c7" stroke="transparent" points="390,-10 390,-30 410,-30 410,-10 390,-10"/>
<text text-anchor="start" x="413.73" y="-15.4" font-family="sans-serif" font-size="14.00"> &#160;Module</text>
<polygon fill="#80b1d3" stroke="transparent" points="476,-10 476,-30 496,-30 496,-10 476,-10"/>
<text text-anchor="start" x="499.78" y="-15.4" font-family="sans-serif" font-size="14.00"> &#160;Bootstrap</text>
<polygon fill="#fdb462" stroke="transparent" points="573,-10 573,-30 593,-30 593,-10 573,-10"/>
<text text-anchor="start" x="596.67" y="-15.4" font-family="sans-serif" font-size="14.00"> &#160;Providers</text>
<polygon fill="#fb8072" stroke="transparent" points="669,-10 669,-30 689,-30 689,-10 669,-10"/>
<text text-anchor="start" x="692.73" y="-15.4" font-family="sans-serif" font-size="14.00"> &#160;Exports</text>
<g id="clust1" class="cluster">
<title>cluster_SpeakerResourcesModule</title>
<polygon fill="none" stroke="black" stroke-dasharray="1,5" points="8,-70 8,-195 1014,-195 1014,-70 8,-70"/>
</g>
<g id="clust6" class="cluster">
<title>cluster_SpeakerResourcesModule_imports</title>
<polygon fill="none" stroke="black" points="782,-78 782,-130 1006,-130 1006,-78 782,-78"/>
</g>
<g id="clust2" class="cluster">
<title>cluster_SpeakerResourcesModule_declarations</title>
<polygon fill="none" stroke="black" points="16,-78 16,-130 774,-130 774,-78 16,-78"/>
</g>
<!-- SpeakerResourceComponent -->
<g id="node1" class="node">
<title>SpeakerResourceComponent</title>
<polygon fill="#ffffb3" stroke="black" points="766.01,-122 587.99,-122 587.99,-86 766.01,-86 766.01,-122"/>
<text text-anchor="middle" x="677" y="-99.8" font-family="Times,serif" font-size="14.00">SpeakerResourceComponent</text>
</g>
<!-- SpeakerResourcesModule -->
<g id="node4" class="node">
<title>SpeakerResourcesModule</title>
<polygon fill="#8dd3c7" stroke="black" points="644.17,-187 641.17,-191 620.17,-191 617.17,-187 481.83,-187 481.83,-151 644.17,-151 644.17,-187"/>
<text text-anchor="middle" x="563" y="-164.8" font-family="Times,serif" font-size="14.00">SpeakerResourcesModule</text>
</g>
<!-- SpeakerResourceComponent&#45;&gt;SpeakerResourcesModule -->
<g id="edge1" class="edge">
<title>SpeakerResourceComponent&#45;&gt;SpeakerResourcesModule</title>
<path fill="none" stroke="black" d="M615.92,-122.11C615.92,-122.11 615.92,-140.99 615.92,-140.99"/>
<polygon fill="black" stroke="black" points="612.42,-140.99 615.92,-150.99 619.42,-140.99 612.42,-140.99"/>
</g>
<!-- SpeakerResourceDiscussionComponent -->
<g id="node2" class="node">
<title>SpeakerResourceDiscussionComponent</title>
<polygon fill="#ffffb3" stroke="black" points="569.94,-122 330.06,-122 330.06,-86 569.94,-86 569.94,-122"/>
<text text-anchor="middle" x="450" y="-99.8" font-family="Times,serif" font-size="14.00">SpeakerResourceDiscussionComponent</text>
</g>
<!-- SpeakerResourceDiscussionComponent&#45;&gt;SpeakerResourcesModule -->
<g id="edge2" class="edge">
<title>SpeakerResourceDiscussionComponent&#45;&gt;SpeakerResourcesModule</title>
<path fill="none" stroke="black" d="M525.94,-122.11C525.94,-122.11 525.94,-140.99 525.94,-140.99"/>
<polygon fill="black" stroke="black" points="522.44,-140.99 525.94,-150.99 529.44,-140.99 522.44,-140.99"/>
</g>
<!-- SpeakerResourceDiscussionMessageComponent -->
<g id="node3" class="node">
<title>SpeakerResourceDiscussionMessageComponent</title>
<polygon fill="#ffffb3" stroke="black" points="312.42,-122 23.58,-122 23.58,-86 312.42,-86 312.42,-122"/>
<text text-anchor="middle" x="168" y="-99.8" font-family="Times,serif" font-size="14.00">SpeakerResourceDiscussionMessageComponent</text>
</g>
<!-- SpeakerResourceDiscussionMessageComponent&#45;&gt;SpeakerResourcesModule -->
<g id="edge3" class="edge">
<title>SpeakerResourceDiscussionMessageComponent&#45;&gt;SpeakerResourcesModule</title>
<path fill="none" stroke="black" d="M168,-122.11C168,-141.34 168,-169 168,-169 168,-169 471.63,-169 471.63,-169"/>
<polygon fill="black" stroke="black" points="471.63,-172.5 481.63,-169 471.63,-165.5 471.63,-172.5"/>
</g>
<!-- SpeakerResourcesRoutingModule -->
<g id="node5" class="node">
<title>SpeakerResourcesRoutingModule</title>
<polygon fill="#8dd3c7" stroke="black" points="997.78,-122 994.78,-126 973.78,-126 970.78,-122 790.22,-122 790.22,-86 997.78,-86 997.78,-122"/>
<text text-anchor="middle" x="894" y="-99.8" font-family="Times,serif" font-size="14.00">SpeakerResourcesRoutingModule</text>
</g>
<!-- SpeakerResourcesRoutingModule&#45;&gt;SpeakerResourcesModule -->
<g id="edge4" class="edge">
<title>SpeakerResourcesRoutingModule&#45;&gt;SpeakerResourcesModule</title>
<path fill="none" stroke="black" d="M894,-122.11C894,-141.34 894,-169 894,-169 894,-169 654.4,-169 654.4,-169"/>
<polygon fill="black" stroke="black" points="654.4,-165.5 644.4,-169 654.4,-172.5 654.4,-165.5"/>
</g>
</g>
</svg>
