<?xml version="1.0" encoding="UTF-8" standalone="no"?>
<!DOCTYPE svg PUBLIC "-//W3C//DTD SVG 1.1//EN"
 "http://www.w3.org/Graphics/SVG/1.1/DTD/svg11.dtd">
<!-- Generated by graphviz version 2.47.3 (20210619.1520)
 -->
<!-- Title: dependencies Pages: 1 -->
<svg width="1030pt" height="174pt"
 viewBox="0.00 0.00 1030.00 173.80" xmlns="http://www.w3.org/2000/svg" xmlns:xlink="http://www.w3.org/1999/xlink">
<g id="graph0" class="graph" transform="scale(1 1) rotate(0) translate(4 169.8)">
<title>dependencies</title>
<polygon fill="white" stroke="transparent" points="-4,4 -4,-169.8 1026,-169.8 1026,4 -4,4"/>
<text text-anchor="middle" x="511" y="-8.2" font-family="sans-serif" font-size="14.00">dependencies</text>
<g id="clust1" class="cluster">
<title>cluster_SpeakerResourcesModule</title>
<polygon fill="none" stroke="black" stroke-dasharray="1,5" points="8,-32.8 8,-157.8 1014,-157.8 1014,-32.8 8,-32.8"/>
</g>
<g id="clust2" class="cluster">
<title>cluster_SpeakerResourcesModule_declarations</title>
<polygon fill="none" stroke="black" points="248,-40.8 248,-92.8 1006,-92.8 1006,-40.8 248,-40.8"/>
</g>
<g id="clust6" class="cluster">
<title>cluster_SpeakerResourcesModule_imports</title>
<polygon fill="none" stroke="black" points="16,-40.8 16,-92.8 240,-92.8 240,-40.8 16,-40.8"/>
</g>
<!-- SpeakerResourceComponent -->
<g id="node1" class="node">
<title>SpeakerResourceComponent</title>
<polygon fill="#ffffb3" stroke="black" points="998.01,-84.8 819.99,-84.8 819.99,-48.8 998.01,-48.8 998.01,-84.8"/>
<text text-anchor="middle" x="909" y="-62.6" font-family="Times,serif" font-size="14.00">SpeakerResourceComponent</text>
</g>
<!-- SpeakerResourcesModule -->
<g id="node4" class="node">
<title>SpeakerResourcesModule</title>
<polygon fill="#8dd3c7" stroke="black" points="622.17,-149.8 619.17,-153.8 598.17,-153.8 595.17,-149.8 459.83,-149.8 459.83,-113.8 622.17,-113.8 622.17,-149.8"/>
<text text-anchor="middle" x="541" y="-127.6" font-family="Times,serif" font-size="14.00">SpeakerResourcesModule</text>
</g>
<!-- SpeakerResourceComponent&#45;&gt;SpeakerResourcesModule -->
<g id="edge1" class="edge">
<title>SpeakerResourceComponent&#45;&gt;SpeakerResourcesModule</title>
<path fill="none" stroke="black" d="M909,-84.91C909,-104.14 909,-131.8 909,-131.8 909,-131.8 632.21,-131.8 632.21,-131.8"/>
<polygon fill="black" stroke="black" points="632.21,-128.3 622.21,-131.8 632.21,-135.3 632.21,-128.3"/>
</g>
<!-- SpeakerResourceDiscussionComponent -->
<g id="node2" class="node">
<title>SpeakerResourceDiscussionComponent</title>
<polygon fill="#ffffb3" stroke="black" points="801.94,-84.8 562.06,-84.8 562.06,-48.8 801.94,-48.8 801.94,-84.8"/>
<text text-anchor="middle" x="682" y="-62.6" font-family="Times,serif" font-size="14.00">SpeakerResourceDiscussionComponent</text>
</g>
<!-- SpeakerResourceDiscussionComponent&#45;&gt;SpeakerResourcesModule -->
<g id="edge2" class="edge">
<title>SpeakerResourceDiscussionComponent&#45;&gt;SpeakerResourcesModule</title>
<path fill="none" stroke="black" d="M592.06,-84.91C592.06,-84.91 592.06,-103.79 592.06,-103.79"/>
<polygon fill="black" stroke="black" points="588.56,-103.79 592.06,-113.79 595.56,-103.79 588.56,-103.79"/>
</g>
<!-- SpeakerResourceDiscussionMessageComponent -->
<g id="node3" class="node">
<title>SpeakerResourceDiscussionMessageComponent</title>
<polygon fill="#ffffb3" stroke="black" points="544.42,-84.8 255.58,-84.8 255.58,-48.8 544.42,-48.8 544.42,-84.8"/>
<text text-anchor="middle" x="400" y="-62.6" font-family="Times,serif" font-size="14.00">SpeakerResourceDiscussionMessageComponent</text>
</g>
<!-- SpeakerResourceDiscussionMessageComponent&#45;&gt;SpeakerResourcesModule -->
<g id="edge3" class="edge">
<title>SpeakerResourceDiscussionMessageComponent&#45;&gt;SpeakerResourcesModule</title>
<path fill="none" stroke="black" d="M502.19,-84.91C502.19,-84.91 502.19,-103.79 502.19,-103.79"/>
<polygon fill="black" stroke="black" points="498.69,-103.79 502.19,-113.79 505.69,-103.79 498.69,-103.79"/>
</g>
<!-- SpeakerResourcesRoutingModule -->
<g id="node5" class="node">
<title>SpeakerResourcesRoutingModule</title>
<polygon fill="#8dd3c7" stroke="black" points="231.78,-84.8 228.78,-88.8 207.78,-88.8 204.78,-84.8 24.22,-84.8 24.22,-48.8 231.78,-48.8 231.78,-84.8"/>
<text text-anchor="middle" x="128" y="-62.6" font-family="Times,serif" font-size="14.00">SpeakerResourcesRoutingModule</text>
</g>
<!-- SpeakerResourcesRoutingModule&#45;&gt;SpeakerResourcesModule -->
<g id="edge4" class="edge">
<title>SpeakerResourcesRoutingModule&#45;&gt;SpeakerResourcesModule</title>
<path fill="none" stroke="black" d="M128,-84.91C128,-104.14 128,-131.8 128,-131.8 128,-131.8 449.9,-131.8 449.9,-131.8"/>
<polygon fill="black" stroke="black" points="449.9,-135.3 459.9,-131.8 449.9,-128.3 449.9,-135.3"/>
</g>
</g>
</svg>
