<?xml version="1.0" encoding="UTF-8" standalone="no"?>
<!DOCTYPE svg PUBLIC "-//W3C//DTD SVG 1.1//EN"
 "http://www.w3.org/Graphics/SVG/1.1/DTD/svg11.dtd">
<!-- Generated by graphviz version 5.0.0 (20220707.1540)
 -->
<!-- Title: dependencies Pages: 1 -->
<svg width="635pt" height="174pt"
 viewBox="0.00 0.00 635.00 173.80" xmlns="http://www.w3.org/2000/svg" xmlns:xlink="http://www.w3.org/1999/xlink">
<g id="graph0" class="graph" transform="scale(1 1) rotate(0) translate(4 169.8)">
<title>dependencies</title>
<polygon fill="white" stroke="transparent" points="-4,4 -4,-169.8 631,-169.8 631,4 -4,4"/>
<text text-anchor="middle" x="313.5" y="-8.2" font-family="sans-serif" font-size="14.00">dependencies</text>
<g id="clust1" class="cluster">
<title>cluster_SpeakerResourcesModule</title>
<polygon fill="none" stroke="black" stroke-dasharray="1,5" points="8,-32.8 8,-157.8 619,-157.8 619,-32.8 8,-32.8"/>
</g>
<g id="clust2" class="cluster">
<title>cluster_SpeakerResourcesModule_declarations</title>
<polygon fill="none" stroke="black" points="417,-40.8 417,-92.8 611,-92.8 611,-40.8 417,-40.8"/>
</g>
<g id="clust4" class="cluster">
<title>cluster_SpeakerResourcesModule_imports</title>
<polygon fill="none" stroke="black" points="16,-40.8 16,-92.8 409,-92.8 409,-40.8 16,-40.8"/>
</g>
<!-- SpeakerResourceComponent -->
<g id="node1" class="node">
<title>SpeakerResourceComponent</title>
<polygon fill="#ffffb3" stroke="black" points="603.01,-84.8 424.99,-84.8 424.99,-48.8 603.01,-48.8 603.01,-84.8"/>
<text text-anchor="middle" x="514" y="-62.6" font-family="Times,serif" font-size="14.00">SpeakerResourceComponent</text>
</g>
<!-- SpeakerResourcesModule -->
<g id="node2" class="node">
<title>SpeakerResourcesModule</title>
<polygon fill="#8dd3c7" stroke="black" points="406.18,-149.8 403.18,-153.8 382.18,-153.8 379.18,-149.8 243.82,-149.8 243.82,-113.8 406.18,-113.8 406.18,-149.8"/>
<text text-anchor="middle" x="325" y="-127.6" font-family="Times,serif" font-size="14.00">SpeakerResourcesModule</text>
</g>
<!-- SpeakerResourceComponent&#45;&gt;SpeakerResourcesModule -->
<g id="edge1" class="edge">
<title>SpeakerResourceComponent&#45;&gt;SpeakerResourcesModule</title>
<path fill="none" stroke="black" d="M514,-84.91C514,-104.14 514,-131.8 514,-131.8 514,-131.8 416.25,-131.8 416.25,-131.8"/>
<polygon fill="black" stroke="black" points="416.25,-128.3 406.25,-131.8 416.25,-135.3 416.25,-128.3"/>
</g>
<!-- MiniUserProfileModule -->
<g id="node3" class="node">
<title>MiniUserProfileModule</title>
<polygon fill="#8dd3c7" stroke="black" points="400.82,-84.8 397.82,-88.8 376.82,-88.8 373.82,-84.8 249.18,-84.8 249.18,-48.8 400.82,-48.8 400.82,-84.8"/>
<text text-anchor="middle" x="325" y="-62.6" font-family="Times,serif" font-size="14.00">MiniUserProfileModule</text>
</g>
<!-- MiniUserProfileModule&#45;&gt;SpeakerResourcesModule -->
<g id="edge2" class="edge">
<title>MiniUserProfileModule&#45;&gt;SpeakerResourcesModule</title>
<path fill="none" stroke="black" d="M325,-84.91C325,-84.91 325,-103.79 325,-103.79"/>
<polygon fill="black" stroke="black" points="321.5,-103.79 325,-113.79 328.5,-103.79 321.5,-103.79"/>
</g>
<!-- SpeakerResourcesRoutingModule -->
<g id="node4" class="node">
<title>SpeakerResourcesRoutingModule</title>
<polygon fill="#8dd3c7" stroke="black" points="231.8,-84.8 228.8,-88.8 207.8,-88.8 204.8,-84.8 24.2,-84.8 24.2,-48.8 231.8,-48.8 231.8,-84.8"/>
<text text-anchor="middle" x="128" y="-62.6" font-family="Times,serif" font-size="14.00">SpeakerResourcesRoutingModule</text>
</g>
<!-- SpeakerResourcesRoutingModule&#45;&gt;SpeakerResourcesModule -->
<g id="edge3" class="edge">
<title>SpeakerResourcesRoutingModule&#45;&gt;SpeakerResourcesModule</title>
<path fill="none" stroke="black" d="M128,-84.91C128,-104.14 128,-131.8 128,-131.8 128,-131.8 233.74,-131.8 233.74,-131.8"/>
<polygon fill="black" stroke="black" points="233.74,-135.3 243.74,-131.8 233.74,-128.3 233.74,-135.3"/>
</g>
</g>
</svg>
