<?xml version="1.0" encoding="UTF-8" standalone="no"?>
<!DOCTYPE svg PUBLIC "-//W3C//DTD SVG 1.1//EN"
 "http://www.w3.org/Graphics/SVG/1.1/DTD/svg11.dtd">
<!-- Generated by graphviz version 5.0.0 (20220707.1540)
 -->
<!-- Title: dependencies Pages: 1 -->
<svg width="3126pt" height="174pt"
 viewBox="0.00 0.00 3126.00 173.80" xmlns="http://www.w3.org/2000/svg" xmlns:xlink="http://www.w3.org/1999/xlink">
<g id="graph0" class="graph" transform="scale(1 1) rotate(0) translate(4 169.8)">
<title>dependencies</title>
<polygon fill="white" stroke="transparent" points="-4,4 -4,-169.8 3122,-169.8 3122,4 -4,4"/>
<text text-anchor="middle" x="1559" y="-8.2" font-family="sans-serif" font-size="14.00">dependencies</text>
<g id="clust1" class="cluster">
<title>cluster_HomepageModule</title>
<polygon fill="none" stroke="black" stroke-dasharray="1,5" points="8,-32.8 8,-157.8 3110,-157.8 3110,-32.8 8,-32.8"/>
</g>
<g id="clust2" class="cluster">
<title>cluster_HomepageModule_declarations</title>
<polygon fill="none" stroke="black" points="1015,-40.8 1015,-92.8 3102,-92.8 3102,-40.8 1015,-40.8"/>
</g>
<g id="clust13" class="cluster">
<title>cluster_HomepageModule_imports</title>
<polygon fill="none" stroke="black" points="16,-40.8 16,-92.8 1007,-92.8 1007,-40.8 16,-40.8"/>
</g>
<!-- HomepageAboutComponent -->
<g id="node1" class="node">
<title>HomepageAboutComponent</title>
<polygon fill="#ffffb3" stroke="black" points="3094.47,-84.8 2917.53,-84.8 2917.53,-48.8 3094.47,-48.8 3094.47,-84.8"/>
<text text-anchor="middle" x="3006" y="-62.6" font-family="Times,serif" font-size="14.00">HomepageAboutComponent</text>
</g>
<!-- HomepageModule -->
<g id="node11" class="node">
<title>HomepageModule</title>
<polygon fill="#8dd3c7" stroke="black" points="1498.19,-149.8 1495.19,-153.8 1474.19,-153.8 1471.19,-149.8 1377.81,-149.8 1377.81,-113.8 1498.19,-113.8 1498.19,-149.8"/>
<text text-anchor="middle" x="1438" y="-127.6" font-family="Times,serif" font-size="14.00">HomepageModule</text>
</g>
<!-- HomepageAboutComponent&#45;&gt;HomepageModule -->
<g id="edge1" class="edge">
<title>HomepageAboutComponent&#45;&gt;HomepageModule</title>
<path fill="none" stroke="black" d="M3006,-85.12C3006,-108.46 3006,-145.8 3006,-145.8 3006,-145.8 1508.51,-145.8 1508.51,-145.8"/>
<polygon fill="black" stroke="black" points="1508.51,-142.3 1498.51,-145.8 1508.51,-149.3 1508.51,-142.3"/>
</g>
<!-- HomepageBuildsComponent -->
<g id="node2" class="node">
<title>HomepageBuildsComponent</title>
<polygon fill="#ffffb3" stroke="black" points="2899.04,-84.8 2720.96,-84.8 2720.96,-48.8 2899.04,-48.8 2899.04,-84.8"/>
<text text-anchor="middle" x="2810" y="-62.6" font-family="Times,serif" font-size="14.00">HomepageBuildsComponent</text>
</g>
<!-- HomepageBuildsComponent&#45;&gt;HomepageModule -->
<g id="edge2" class="edge">
<title>HomepageBuildsComponent&#45;&gt;HomepageModule</title>
<path fill="none" stroke="black" d="M2810,-85.09C2810,-107.01 2810,-140.8 2810,-140.8 2810,-140.8 1508.28,-140.8 1508.28,-140.8"/>
<polygon fill="black" stroke="black" points="1508.28,-137.3 1498.28,-140.8 1508.28,-144.3 1508.28,-137.3"/>
</g>
<!-- HomepageComponent -->
<g id="node3" class="node">
<title>HomepageComponent</title>
<polygon fill="#ffffb3" stroke="black" points="2702.97,-84.8 2561.03,-84.8 2561.03,-48.8 2702.97,-48.8 2702.97,-84.8"/>
<text text-anchor="middle" x="2632" y="-62.6" font-family="Times,serif" font-size="14.00">HomepageComponent</text>
</g>
<!-- HomepageComponent&#45;&gt;HomepageModule -->
<g id="edge3" class="edge">
<title>HomepageComponent&#45;&gt;HomepageModule</title>
<path fill="none" stroke="black" d="M2632,-84.83C2632,-105.57 2632,-136.8 2632,-136.8 2632,-136.8 1508.44,-136.8 1508.44,-136.8"/>
<polygon fill="black" stroke="black" points="1508.44,-133.3 1498.44,-136.8 1508.44,-140.3 1508.44,-133.3"/>
</g>
<!-- HomepageEventsCardComponent -->
<g id="node4" class="node">
<title>HomepageEventsCardComponent</title>
<polygon fill="#ffffb3" stroke="black" points="2542.79,-84.8 2335.21,-84.8 2335.21,-48.8 2542.79,-48.8 2542.79,-84.8"/>
<text text-anchor="middle" x="2439" y="-62.6" font-family="Times,serif" font-size="14.00">HomepageEventsCardComponent</text>
</g>
<!-- HomepageEventsCardComponent&#45;&gt;HomepageModule -->
<g id="edge4" class="edge">
<title>HomepageEventsCardComponent&#45;&gt;HomepageModule</title>
<path fill="none" stroke="black" d="M2439,-84.91C2439,-104.14 2439,-131.8 2439,-131.8 2439,-131.8 1508.36,-131.8 1508.36,-131.8"/>
<polygon fill="black" stroke="black" points="1508.36,-128.3 1498.36,-131.8 1508.36,-135.3 1508.36,-128.3"/>
</g>
<!-- HomepageEventsComponent -->
<g id="node5" class="node">
<title>HomepageEventsComponent</title>
<polygon fill="#ffffb3" stroke="black" points="2317.08,-84.8 2136.92,-84.8 2136.92,-48.8 2317.08,-48.8 2317.08,-84.8"/>
<text text-anchor="middle" x="2227" y="-62.6" font-family="Times,serif" font-size="14.00">HomepageEventsComponent</text>
</g>
<!-- HomepageEventsComponent&#45;&gt;HomepageModule -->
<g id="edge5" class="edge">
<title>HomepageEventsComponent&#45;&gt;HomepageModule</title>
<path fill="none" stroke="black" d="M2227,-85.1C2227,-103.07 2227,-127.8 2227,-127.8 2227,-127.8 1508.28,-127.8 1508.28,-127.8"/>
<polygon fill="black" stroke="black" points="1508.28,-124.3 1498.28,-127.8 1508.28,-131.3 1508.28,-124.3"/>
</g>
<!-- HomepageExpertsComponent -->
<g id="node6" class="node">
<title>HomepageExpertsComponent</title>
<polygon fill="#ffffb3" stroke="black" points="2119.24,-84.8 1934.76,-84.8 1934.76,-48.8 2119.24,-48.8 2119.24,-84.8"/>
<text text-anchor="middle" x="2027" y="-62.6" font-family="Times,serif" font-size="14.00">HomepageExpertsComponent</text>
</g>
<!-- HomepageExpertsComponent&#45;&gt;HomepageModule -->
<g id="edge6" class="edge">
<title>HomepageExpertsComponent&#45;&gt;HomepageModule</title>
<path fill="none" stroke="black" d="M2027,-84.83C2027,-101.2 2027,-122.8 2027,-122.8 2027,-122.8 1508.27,-122.8 1508.27,-122.8"/>
<polygon fill="black" stroke="black" points="1508.27,-119.3 1498.27,-122.8 1508.27,-126.3 1508.27,-119.3"/>
</g>
<!-- HomepageFeaturedCommunitiesComponent -->
<g id="node7" class="node">
<title>HomepageFeaturedCommunitiesComponent</title>
<polygon fill="#ffffb3" stroke="black" points="1916.4,-84.8 1649.6,-84.8 1649.6,-48.8 1916.4,-48.8 1916.4,-84.8"/>
<text text-anchor="middle" x="1783" y="-62.6" font-family="Times,serif" font-size="14.00">HomepageFeaturedCommunitiesComponent</text>
</g>
<!-- HomepageFeaturedCommunitiesComponent&#45;&gt;HomepageModule -->
<g id="edge7" class="edge">
<title>HomepageFeaturedCommunitiesComponent&#45;&gt;HomepageModule</title>
<path fill="none" stroke="black" d="M1783,-84.99C1783,-99.98 1783,-118.8 1783,-118.8 1783,-118.8 1508.49,-118.8 1508.49,-118.8"/>
<polygon fill="black" stroke="black" points="1508.49,-115.3 1498.49,-118.8 1508.49,-122.3 1508.49,-115.3"/>
</g>
<!-- HomepageFeaturesComponent -->
<g id="node8" class="node">
<title>HomepageFeaturesComponent</title>
<polygon fill="#ffffb3" stroke="black" points="1631.9,-84.8 1442.1,-84.8 1442.1,-48.8 1631.9,-48.8 1631.9,-84.8"/>
<text text-anchor="middle" x="1537" y="-62.6" font-family="Times,serif" font-size="14.00">HomepageFeaturesComponent</text>
</g>
<!-- HomepageFeaturesComponent&#45;&gt;HomepageModule -->
<g id="edge8" class="edge">
<title>HomepageFeaturesComponent&#45;&gt;HomepageModule</title>
<path fill="none" stroke="black" d="M1470.2,-84.91C1470.2,-84.91 1470.2,-103.79 1470.2,-103.79"/>
<polygon fill="black" stroke="black" points="1466.7,-103.79 1470.2,-113.79 1473.7,-103.79 1466.7,-103.79"/>
</g>
<!-- HomepageLabsComponent -->
<g id="node9" class="node">
<title>HomepageLabsComponent</title>
<polygon fill="#ffffb3" stroke="black" points="1424.69,-84.8 1255.31,-84.8 1255.31,-48.8 1424.69,-48.8 1424.69,-84.8"/>
<text text-anchor="middle" x="1340" y="-62.6" font-family="Times,serif" font-size="14.00">HomepageLabsComponent</text>
</g>
<!-- HomepageLabsComponent&#45;&gt;HomepageModule -->
<g id="edge9" class="edge">
<title>HomepageLabsComponent&#45;&gt;HomepageModule</title>
<path fill="none" stroke="black" d="M1401.25,-84.91C1401.25,-84.91 1401.25,-103.79 1401.25,-103.79"/>
<polygon fill="black" stroke="black" points="1397.75,-103.79 1401.25,-113.79 1404.75,-103.79 1397.75,-103.79"/>
</g>
<!-- HomepageTestimonialsComponent -->
<g id="node10" class="node">
<title>HomepageTestimonialsComponent</title>
<polygon fill="#ffffb3" stroke="black" points="1237.3,-84.8 1022.7,-84.8 1022.7,-48.8 1237.3,-48.8 1237.3,-84.8"/>
<text text-anchor="middle" x="1130" y="-62.6" font-family="Times,serif" font-size="14.00">HomepageTestimonialsComponent</text>
</g>
<!-- HomepageTestimonialsComponent&#45;&gt;HomepageModule -->
<g id="edge10" class="edge">
<title>HomepageTestimonialsComponent&#45;&gt;HomepageModule</title>
<path fill="none" stroke="black" d="M1130,-84.99C1130,-99.98 1130,-118.8 1130,-118.8 1130,-118.8 1367.88,-118.8 1367.88,-118.8"/>
<polygon fill="black" stroke="black" points="1367.88,-122.3 1377.88,-118.8 1367.88,-115.3 1367.88,-122.3"/>
</g>
<!-- HomepageRoutingModule -->
<g id="node12" class="node">
<title>HomepageRoutingModule</title>
<polygon fill="#8dd3c7" stroke="black" points="998.81,-84.8 995.81,-88.8 974.81,-88.8 971.81,-84.8 833.19,-84.8 833.19,-48.8 998.81,-48.8 998.81,-84.8"/>
<text text-anchor="middle" x="916" y="-62.6" font-family="Times,serif" font-size="14.00">HomepageRoutingModule</text>
</g>
<!-- HomepageRoutingModule&#45;&gt;HomepageModule -->
<g id="edge11" class="edge">
<title>HomepageRoutingModule&#45;&gt;HomepageModule</title>
<path fill="none" stroke="black" d="M916,-84.83C916,-101.2 916,-122.8 916,-122.8 916,-122.8 1367.87,-122.8 1367.87,-122.8"/>
<polygon fill="black" stroke="black" points="1367.87,-126.3 1377.87,-122.8 1367.87,-119.3 1367.87,-126.3"/>
</g>
<!-- MiniUserProfileModule -->
<g id="node13" class="node">
<title>MiniUserProfileModule</title>
<polygon fill="#8dd3c7" stroke="black" points="815.82,-84.8 812.82,-88.8 791.82,-88.8 788.82,-84.8 664.18,-84.8 664.18,-48.8 815.82,-48.8 815.82,-84.8"/>
<text text-anchor="middle" x="740" y="-62.6" font-family="Times,serif" font-size="14.00">MiniUserProfileModule</text>
</g>
<!-- MiniUserProfileModule&#45;&gt;HomepageModule -->
<g id="edge12" class="edge">
<title>MiniUserProfileModule&#45;&gt;HomepageModule</title>
<path fill="none" stroke="black" d="M740,-85.1C740,-103.07 740,-127.8 740,-127.8 740,-127.8 1367.88,-127.8 1367.88,-127.8"/>
<polygon fill="black" stroke="black" points="1367.88,-131.3 1377.88,-127.8 1367.88,-124.3 1367.88,-131.3"/>
</g>
<!-- PublicCommunityModule -->
<g id="node14" class="node">
<title>PublicCommunityModule</title>
<polygon fill="#8dd3c7" stroke="black" points="646.23,-84.8 643.23,-88.8 622.23,-88.8 619.23,-84.8 483.77,-84.8 483.77,-48.8 646.23,-48.8 646.23,-84.8"/>
<text text-anchor="middle" x="565" y="-62.6" font-family="Times,serif" font-size="14.00">PublicCommunityModule</text>
</g>
<!-- PublicCommunityModule&#45;&gt;HomepageModule -->
<g id="edge13" class="edge">
<title>PublicCommunityModule&#45;&gt;HomepageModule</title>
<path fill="none" stroke="black" d="M565,-84.91C565,-104.14 565,-131.8 565,-131.8 565,-131.8 1367.65,-131.8 1367.65,-131.8"/>
<polygon fill="black" stroke="black" points="1367.65,-135.3 1377.65,-131.8 1367.65,-128.3 1367.65,-135.3"/>
</g>
<!-- SearchModule -->
<g id="node15" class="node">
<title>SearchModule</title>
<polygon fill="#8dd3c7" stroke="black" points="465.64,-84.8 462.64,-88.8 441.64,-88.8 438.64,-84.8 368.36,-84.8 368.36,-48.8 465.64,-48.8 465.64,-84.8"/>
<text text-anchor="middle" x="417" y="-62.6" font-family="Times,serif" font-size="14.00">SearchModule</text>
</g>
<!-- SearchModule&#45;&gt;HomepageModule -->
<g id="edge14" class="edge">
<title>SearchModule&#45;&gt;HomepageModule</title>
<path fill="none" stroke="black" d="M417,-84.83C417,-105.57 417,-136.8 417,-136.8 417,-136.8 1367.57,-136.8 1367.57,-136.8"/>
<polygon fill="black" stroke="black" points="1367.57,-140.3 1377.57,-136.8 1367.57,-133.3 1367.57,-140.3"/>
</g>
<!-- SharedDirectivesModule -->
<g id="node16" class="node">
<title>SharedDirectivesModule</title>
<polygon fill="#8dd3c7" stroke="black" points="349.96,-84.8 346.96,-88.8 325.96,-88.8 322.96,-84.8 194.04,-84.8 194.04,-48.8 349.96,-48.8 349.96,-84.8"/>
<text text-anchor="middle" x="272" y="-62.6" font-family="Times,serif" font-size="14.00">SharedDirectivesModule</text>
</g>
<!-- SharedDirectivesModule&#45;&gt;HomepageModule -->
<g id="edge15" class="edge">
<title>SharedDirectivesModule&#45;&gt;HomepageModule</title>
<path fill="none" stroke="black" d="M272,-85.09C272,-107.01 272,-140.8 272,-140.8 272,-140.8 1367.77,-140.8 1367.77,-140.8"/>
<polygon fill="black" stroke="black" points="1367.77,-144.3 1377.77,-140.8 1367.77,-137.3 1367.77,-144.3"/>
</g>
<!-- SkeletonScreensModule -->
<g id="node17" class="node">
<title>SkeletonScreensModule</title>
<polygon fill="#8dd3c7" stroke="black" points="176.08,-84.8 173.08,-88.8 152.08,-88.8 149.08,-84.8 23.92,-84.8 23.92,-48.8 176.08,-48.8 176.08,-84.8"/>
<text text-anchor="middle" x="100" y="-62.6" font-family="Times,serif" font-size="14.00">SkeletonScreensModule</text>
</g>
<!-- SkeletonScreensModule&#45;&gt;HomepageModule -->
<g id="edge16" class="edge">
<title>SkeletonScreensModule&#45;&gt;HomepageModule</title>
<path fill="none" stroke="black" d="M100,-85.12C100,-108.46 100,-145.8 100,-145.8 100,-145.8 1367.47,-145.8 1367.47,-145.8"/>
<polygon fill="black" stroke="black" points="1367.47,-149.3 1377.47,-145.8 1367.47,-142.3 1367.47,-149.3"/>
</g>
</g>
</svg>
