<?xml version="1.0" encoding="UTF-8" standalone="no"?>
<!DOCTYPE svg PUBLIC "-//W3C//DTD SVG 1.1//EN"
 "http://www.w3.org/Graphics/SVG/1.1/DTD/svg11.dtd">
<!-- Generated by graphviz version 2.47.0 (20210316.0004)
 -->
<!-- Title: dependencies Pages: 1 -->
<svg width="600pt" height="211pt"
     viewBox="0.00 0.00 600.00 211.00" xmlns="http://www.w3.org/2000/svg">
<g id="graph0" class="graph" transform="scale(1 1) rotate(0) translate(4 207)">
<title>dependencies</title>
<polygon fill="white" stroke="transparent" points="-4,4 -4,-207 596,-207 596,4 -4,4"/>
<text text-anchor="start" x="275.01" y="-42.4" font-family="sans-serif" font-weight="bold" font-size="14.00">Legend</text>
<polygon fill="#ffffb3" stroke="transparent" points="62,-10 62,-30 82,-30 82,-10 62,-10"/>
<text text-anchor="start" x="85.63" y="-15.4" font-family="sans-serif" font-size="14.00"> &#160;Declarations</text>
<polygon fill="#8dd3c7" stroke="transparent" points="175,-10 175,-30 195,-30 195,-10 175,-10"/>
<text text-anchor="start" x="198.73" y="-15.4" font-family="sans-serif" font-size="14.00"> &#160;Module</text>
<polygon fill="#80b1d3" stroke="transparent" points="261,-10 261,-30 281,-30 281,-10 261,-10"/>
<text text-anchor="start" x="284.78" y="-15.4" font-family="sans-serif" font-size="14.00"> &#160;Bootstrap</text>
<polygon fill="#fdb462" stroke="transparent" points="358,-10 358,-30 378,-30 378,-10 358,-10"/>
<text text-anchor="start" x="381.67" y="-15.4" font-family="sans-serif" font-size="14.00"> &#160;Providers</text>
<polygon fill="#fb8072" stroke="transparent" points="454,-10 454,-30 474,-30 474,-10 454,-10"/>
<text text-anchor="start" x="477.73" y="-15.4" font-family="sans-serif" font-size="14.00"> &#160;Exports</text>
<g id="clust1" class="cluster">
<title>cluster_DataFormsModule</title>
<polygon fill="none" stroke="black" stroke-dasharray="1,5" points="8,-70 8,-195 584,-195 584,-70 8,-70"/>
</g>
<g id="clust5" class="cluster">
<title>cluster_DataFormsModule_imports</title>
<polygon fill="none" stroke="black" points="394,-78 394,-130 576,-130 576,-78 394,-78"/>
</g>
<g id="clust2" class="cluster">
<title>cluster_DataFormsModule_declarations</title>
<polygon fill="none" stroke="black" points="16,-78 16,-130 386,-130 386,-78 16,-78"/>
</g>
<!-- CreateDataFormComponent -->
<g id="node1" class="node">
<title>CreateDataFormComponent</title>
<polygon fill="#ffffb3" stroke="black" points="378.12,-122 203.88,-122 203.88,-86 378.12,-86 378.12,-122"/>
<text text-anchor="middle" x="291" y="-99.8" font-family="Times,serif" font-size="14.00">CreateDataFormComponent</text>
</g>
<!-- DataFormsModule -->
<g id="node3" class="node">
<title>DataFormsModule</title>
<polygon fill="#8dd3c7" stroke="black" points="351.75,-187 348.75,-191 327.75,-191 324.75,-187 230.25,-187 230.25,-151 351.75,-151 351.75,-187"/>
<text text-anchor="middle" x="291" y="-164.8" font-family="Times,serif" font-size="14.00">DataFormsModule</text>
</g>
<!-- CreateDataFormComponent&#45;&gt;DataFormsModule -->
<g id="edge1" class="edge">
<title>CreateDataFormComponent&#45;&gt;DataFormsModule</title>
<path fill="none" stroke="black" d="M291,-122.11C291,-122.11 291,-140.99 291,-140.99"/>
<polygon fill="black" stroke="black" points="287.5,-140.99 291,-150.99 294.5,-140.99 287.5,-140.99"/>
</g>
<!-- EditDataFormComponent -->
<g id="node2" class="node">
<title>EditDataFormComponent</title>
<polygon fill="#ffffb3" stroke="black" points="185.93,-122 24.07,-122 24.07,-86 185.93,-86 185.93,-122"/>
<text text-anchor="middle" x="105" y="-99.8" font-family="Times,serif" font-size="14.00">EditDataFormComponent</text>
</g>
<!-- EditDataFormComponent&#45;&gt;DataFormsModule -->
<g id="edge2" class="edge">
<title>EditDataFormComponent&#45;&gt;DataFormsModule</title>
<path fill="none" stroke="black" d="M105,-122.11C105,-141.34 105,-169 105,-169 105,-169 220.1,-169 220.1,-169"/>
<polygon fill="black" stroke="black" points="220.1,-172.5 230.1,-169 220.1,-165.5 220.1,-172.5"/>
</g>
<!-- DataFormsRoutingModule -->
<g id="node4" class="node">
<title>DataFormsRoutingModule</title>
<polygon fill="#8dd3c7" stroke="black" points="568.37,-122 565.37,-126 544.37,-126 541.37,-122 401.63,-122 401.63,-86 568.37,-86 568.37,-122"/>
<text text-anchor="middle" x="485" y="-99.8" font-family="Times,serif" font-size="14.00">DataFormsRoutingModule</text>
</g>
<!-- DataFormsRoutingModule&#45;&gt;DataFormsModule -->
<g id="edge3" class="edge">
<title>DataFormsRoutingModule&#45;&gt;DataFormsModule</title>
<path fill="none" stroke="black" d="M485,-122.11C485,-141.34 485,-169 485,-169 485,-169 361.85,-169 361.85,-169"/>
<polygon fill="black" stroke="black" points="361.85,-165.5 351.85,-169 361.85,-172.5 361.85,-165.5"/>
</g>
</g>
</svg>
