<?xml version="1.0" encoding="UTF-8" standalone="no"?>
<!DOCTYPE svg PUBLIC "-//W3C//DTD SVG 1.1//EN"
 "http://www.w3.org/Graphics/SVG/1.1/DTD/svg11.dtd">
<!-- Generated by graphviz version 2.47.3 (20210619.1520)
 -->
<!-- Title: dependencies Pages: 1 -->
<svg width="600pt" height="174pt"
 viewBox="0.00 0.00 600.00 173.80" xmlns="http://www.w3.org/2000/svg" xmlns:xlink="http://www.w3.org/1999/xlink">
<g id="graph0" class="graph" transform="scale(1 1) rotate(0) translate(4 169.8)">
<title>dependencies</title>
<polygon fill="white" stroke="transparent" points="-4,4 -4,-169.8 596,-169.8 596,4 -4,4"/>
<text text-anchor="middle" x="296" y="-8.2" font-family="sans-serif" font-size="14.00">dependencies</text>
<g id="clust1" class="cluster">
<title>cluster_DataFormsModule</title>
<polygon fill="none" stroke="black" stroke-dasharray="1,5" points="8,-32.8 8,-157.8 584,-157.8 584,-32.8 8,-32.8"/>
</g>
<g id="clust5" class="cluster">
<title>cluster_DataFormsModule_imports</title>
<polygon fill="none" stroke="black" points="394,-40.8 394,-92.8 576,-92.8 576,-40.8 394,-40.8"/>
</g>
<g id="clust2" class="cluster">
<title>cluster_DataFormsModule_declarations</title>
<polygon fill="none" stroke="black" points="16,-40.8 16,-92.8 386,-92.8 386,-40.8 16,-40.8"/>
</g>
<!-- CreateDataFormComponent -->
<g id="node1" class="node">
<title>CreateDataFormComponent</title>
<polygon fill="#ffffb3" stroke="black" points="378.12,-84.8 203.88,-84.8 203.88,-48.8 378.12,-48.8 378.12,-84.8"/>
<text text-anchor="middle" x="291" y="-62.6" font-family="Times,serif" font-size="14.00">CreateDataFormComponent</text>
</g>
<!-- DataFormsModule -->
<g id="node3" class="node">
<title>DataFormsModule</title>
<polygon fill="#8dd3c7" stroke="black" points="351.75,-149.8 348.75,-153.8 327.75,-153.8 324.75,-149.8 230.25,-149.8 230.25,-113.8 351.75,-113.8 351.75,-149.8"/>
<text text-anchor="middle" x="291" y="-127.6" font-family="Times,serif" font-size="14.00">DataFormsModule</text>
</g>
<!-- CreateDataFormComponent&#45;&gt;DataFormsModule -->
<g id="edge1" class="edge">
<title>CreateDataFormComponent&#45;&gt;DataFormsModule</title>
<path fill="none" stroke="black" d="M291,-84.91C291,-84.91 291,-103.79 291,-103.79"/>
<polygon fill="black" stroke="black" points="287.5,-103.79 291,-113.79 294.5,-103.79 287.5,-103.79"/>
</g>
<!-- EditDataFormComponent -->
<g id="node2" class="node">
<title>EditDataFormComponent</title>
<polygon fill="#ffffb3" stroke="black" points="185.93,-84.8 24.07,-84.8 24.07,-48.8 185.93,-48.8 185.93,-84.8"/>
<text text-anchor="middle" x="105" y="-62.6" font-family="Times,serif" font-size="14.00">EditDataFormComponent</text>
</g>
<!-- EditDataFormComponent&#45;&gt;DataFormsModule -->
<g id="edge2" class="edge">
<title>EditDataFormComponent&#45;&gt;DataFormsModule</title>
<path fill="none" stroke="black" d="M105,-84.91C105,-104.14 105,-131.8 105,-131.8 105,-131.8 220.1,-131.8 220.1,-131.8"/>
<polygon fill="black" stroke="black" points="220.1,-135.3 230.1,-131.8 220.1,-128.3 220.1,-135.3"/>
</g>
<!-- DataFormsRoutingModule -->
<g id="node4" class="node">
<title>DataFormsRoutingModule</title>
<polygon fill="#8dd3c7" stroke="black" points="568.37,-84.8 565.37,-88.8 544.37,-88.8 541.37,-84.8 401.63,-84.8 401.63,-48.8 568.37,-48.8 568.37,-84.8"/>
<text text-anchor="middle" x="485" y="-62.6" font-family="Times,serif" font-size="14.00">DataFormsRoutingModule</text>
</g>
<!-- DataFormsRoutingModule&#45;&gt;DataFormsModule -->
<g id="edge3" class="edge">
<title>DataFormsRoutingModule&#45;&gt;DataFormsModule</title>
<path fill="none" stroke="black" d="M485,-84.91C485,-104.14 485,-131.8 485,-131.8 485,-131.8 361.85,-131.8 361.85,-131.8"/>
<polygon fill="black" stroke="black" points="361.85,-128.3 351.85,-131.8 361.85,-135.3 361.85,-128.3"/>
</g>
</g>
</svg>
