<?xml version="1.0" encoding="UTF-8" standalone="no"?>
<!DOCTYPE svg PUBLIC "-//W3C//DTD SVG 1.1//EN"
 "http://www.w3.org/Graphics/SVG/1.1/DTD/svg11.dtd">
<!-- Generated by graphviz version 2.47.3 (20210619.1520)
 -->
<!-- Title: dependencies Pages: 1 -->
<svg width="600pt" height="174pt"
 viewBox="0.00 0.00 600.00 173.80" xmlns="http://www.w3.org/2000/svg" xmlns:xlink="http://www.w3.org/1999/xlink">
<g id="graph0" class="graph" transform="scale(1 1) rotate(0) translate(4 169.8)">
<title>dependencies</title>
<polygon fill="white" stroke="transparent" points="-4,4 -4,-169.8 596,-169.8 596,4 -4,4"/>
<text text-anchor="middle" x="296" y="-8.2" font-family="sans-serif" font-size="14.00">dependencies</text>
<g id="clust1" class="cluster">
<title>cluster_DataFormsModule</title>
<polygon fill="none" stroke="black" stroke-dasharray="1,5" points="8,-32.8 8,-157.8 584,-157.8 584,-32.8 8,-32.8"/>
</g>
<g id="clust2" class="cluster">
<title>cluster_DataFormsModule_declarations</title>
<polygon fill="none" stroke="black" points="206,-40.8 206,-92.8 576,-92.8 576,-40.8 206,-40.8"/>
</g>
<g id="clust5" class="cluster">
<title>cluster_DataFormsModule_imports</title>
<polygon fill="none" stroke="black" points="16,-40.8 16,-92.8 198,-92.8 198,-40.8 16,-40.8"/>
</g>
<!-- CreateDataFormComponent -->
<g id="node1" class="node">
<title>CreateDataFormComponent</title>
<polygon fill="#ffffb3" stroke="black" points="568.12,-84.8 393.88,-84.8 393.88,-48.8 568.12,-48.8 568.12,-84.8"/>
<text text-anchor="middle" x="481" y="-62.6" font-family="Times,serif" font-size="14.00">CreateDataFormComponent</text>
</g>
<!-- DataFormsModule -->
<g id="node3" class="node">
<title>DataFormsModule</title>
<polygon fill="#8dd3c7" stroke="black" points="355.75,-149.8 352.75,-153.8 331.75,-153.8 328.75,-149.8 234.25,-149.8 234.25,-113.8 355.75,-113.8 355.75,-149.8"/>
<text text-anchor="middle" x="295" y="-127.6" font-family="Times,serif" font-size="14.00">DataFormsModule</text>
</g>
<!-- CreateDataFormComponent&#45;&gt;DataFormsModule -->
<g id="edge1" class="edge">
<title>CreateDataFormComponent&#45;&gt;DataFormsModule</title>
<path fill="none" stroke="black" d="M481,-84.91C481,-104.14 481,-131.8 481,-131.8 481,-131.8 365.9,-131.8 365.9,-131.8"/>
<polygon fill="black" stroke="black" points="365.9,-128.3 355.9,-131.8 365.9,-135.3 365.9,-128.3"/>
</g>
<!-- EditDataFormComponent -->
<g id="node2" class="node">
<title>EditDataFormComponent</title>
<polygon fill="#ffffb3" stroke="black" points="375.93,-84.8 214.07,-84.8 214.07,-48.8 375.93,-48.8 375.93,-84.8"/>
<text text-anchor="middle" x="295" y="-62.6" font-family="Times,serif" font-size="14.00">EditDataFormComponent</text>
</g>
<!-- EditDataFormComponent&#45;&gt;DataFormsModule -->
<g id="edge2" class="edge">
<title>EditDataFormComponent&#45;&gt;DataFormsModule</title>
<path fill="none" stroke="black" d="M295,-84.91C295,-84.91 295,-103.79 295,-103.79"/>
<polygon fill="black" stroke="black" points="291.5,-103.79 295,-113.79 298.5,-103.79 291.5,-103.79"/>
</g>
<!-- DataFormsRoutingModule -->
<g id="node4" class="node">
<title>DataFormsRoutingModule</title>
<polygon fill="#8dd3c7" stroke="black" points="190.37,-84.8 187.37,-88.8 166.37,-88.8 163.37,-84.8 23.63,-84.8 23.63,-48.8 190.37,-48.8 190.37,-84.8"/>
<text text-anchor="middle" x="107" y="-62.6" font-family="Times,serif" font-size="14.00">DataFormsRoutingModule</text>
</g>
<!-- DataFormsRoutingModule&#45;&gt;DataFormsModule -->
<g id="edge3" class="edge">
<title>DataFormsRoutingModule&#45;&gt;DataFormsModule</title>
<path fill="none" stroke="black" d="M107,-84.91C107,-104.14 107,-131.8 107,-131.8 107,-131.8 224.22,-131.8 224.22,-131.8"/>
<polygon fill="black" stroke="black" points="224.22,-135.3 234.22,-131.8 224.22,-128.3 224.22,-135.3"/>
</g>
</g>
</svg>
