<?xml version="1.0" encoding="UTF-8" standalone="no"?>
<!DOCTYPE svg PUBLIC "-//W3C//DTD SVG 1.1//EN"
 "http://www.w3.org/Graphics/SVG/1.1/DTD/svg11.dtd">
<!-- Generated by graphviz version 5.0.0 (20220707.1540)
 -->
<!-- Title: dependencies Pages: 1 -->
<svg width="1256pt" height="174pt"
 viewBox="0.00 0.00 1256.00 173.80" xmlns="http://www.w3.org/2000/svg" xmlns:xlink="http://www.w3.org/1999/xlink">
<g id="graph0" class="graph" transform="scale(1 1) rotate(0) translate(4 169.8)">
<title>dependencies</title>
<polygon fill="white" stroke="transparent" points="-4,4 -4,-169.8 1252,-169.8 1252,4 -4,4"/>
<text text-anchor="middle" x="624" y="-8.2" font-family="sans-serif" font-size="14.00">dependencies</text>
<g id="clust1" class="cluster">
<title>cluster_EmailConfirmationsModule</title>
<polygon fill="none" stroke="black" stroke-dasharray="1,5" points="8,-32.8 8,-157.8 1240,-157.8 1240,-32.8 8,-32.8"/>
</g>
<g id="clust7" class="cluster">
<title>cluster_EmailConfirmationsModule_imports</title>
<polygon fill="none" stroke="black" points="824,-40.8 824,-92.8 1232,-92.8 1232,-40.8 824,-40.8"/>
</g>
<g id="clust2" class="cluster">
<title>cluster_EmailConfirmationsModule_declarations</title>
<polygon fill="none" stroke="black" points="16,-40.8 16,-92.8 816,-92.8 816,-40.8 16,-40.8"/>
</g>
<!-- CollaborationCommunityComponent -->
<g id="node1" class="node">
<title>CollaborationCommunityComponent</title>
<polygon fill="#ffffb3" stroke="black" points="807.71,-84.8 582.29,-84.8 582.29,-48.8 807.71,-48.8 807.71,-84.8"/>
<text text-anchor="middle" x="695" y="-62.6" font-family="Times,serif" font-size="14.00">CollaborationCommunityComponent</text>
</g>
<!-- EmailConfirmationsModule -->
<g id="node5" class="node">
<title>EmailConfirmationsModule</title>
<polygon fill="#8dd3c7" stroke="black" points="669.87,-149.8 666.87,-153.8 645.87,-153.8 642.87,-149.8 496.13,-149.8 496.13,-113.8 669.87,-113.8 669.87,-149.8"/>
<text text-anchor="middle" x="583" y="-127.6" font-family="Times,serif" font-size="14.00">EmailConfirmationsModule</text>
</g>
<!-- CollaborationCommunityComponent&#45;&gt;EmailConfirmationsModule -->
<g id="edge1" class="edge">
<title>CollaborationCommunityComponent&#45;&gt;EmailConfirmationsModule</title>
<path fill="none" stroke="black" d="M626.16,-84.91C626.16,-84.91 626.16,-103.79 626.16,-103.79"/>
<polygon fill="black" stroke="black" points="622.66,-103.79 626.16,-113.79 629.66,-103.79 622.66,-103.79"/>
</g>
<!-- EmailUnsubscribeComponent -->
<g id="node2" class="node">
<title>EmailUnsubscribeComponent</title>
<polygon fill="#ffffb3" stroke="black" points="564.25,-84.8 379.75,-84.8 379.75,-48.8 564.25,-48.8 564.25,-84.8"/>
<text text-anchor="middle" x="472" y="-62.6" font-family="Times,serif" font-size="14.00">EmailUnsubscribeComponent</text>
</g>
<!-- EmailUnsubscribeComponent&#45;&gt;EmailConfirmationsModule -->
<g id="edge2" class="edge">
<title>EmailUnsubscribeComponent&#45;&gt;EmailConfirmationsModule</title>
<path fill="none" stroke="black" d="M530.22,-84.91C530.22,-84.91 530.22,-103.79 530.22,-103.79"/>
<polygon fill="black" stroke="black" points="526.72,-103.79 530.22,-113.79 533.72,-103.79 526.72,-103.79"/>
</g>
<!-- RsvpComponent -->
<g id="node3" class="node">
<title>RsvpComponent</title>
<polygon fill="#ffffb3" stroke="black" points="362.12,-84.8 251.88,-84.8 251.88,-48.8 362.12,-48.8 362.12,-84.8"/>
<text text-anchor="middle" x="307" y="-62.6" font-family="Times,serif" font-size="14.00">RsvpComponent</text>
</g>
<!-- RsvpComponent&#45;&gt;EmailConfirmationsModule -->
<g id="edge3" class="edge">
<title>RsvpComponent&#45;&gt;EmailConfirmationsModule</title>
<path fill="none" stroke="black" d="M307,-84.82C307,-102.17 307,-125.8 307,-125.8 307,-125.8 486.05,-125.8 486.05,-125.8"/>
<polygon fill="black" stroke="black" points="486.05,-129.3 496.05,-125.8 486.05,-122.3 486.05,-129.3"/>
</g>
<!-- UserRoleConfirmationComponent -->
<g id="node4" class="node">
<title>UserRoleConfirmationComponent</title>
<polygon fill="#ffffb3" stroke="black" points="233.64,-84.8 24.36,-84.8 24.36,-48.8 233.64,-48.8 233.64,-84.8"/>
<text text-anchor="middle" x="129" y="-62.6" font-family="Times,serif" font-size="14.00">UserRoleConfirmationComponent</text>
</g>
<!-- UserRoleConfirmationComponent&#45;&gt;EmailConfirmationsModule -->
<g id="edge4" class="edge">
<title>UserRoleConfirmationComponent&#45;&gt;EmailConfirmationsModule</title>
<path fill="none" stroke="black" d="M129,-85.08C129,-106.12 129,-137.8 129,-137.8 129,-137.8 486,-137.8 486,-137.8"/>
<polygon fill="black" stroke="black" points="486,-141.3 496,-137.8 486,-134.3 486,-141.3"/>
</g>
<!-- EmailConfirmationsRoutingModule -->
<g id="node6" class="node">
<title>EmailConfirmationsRoutingModule</title>
<polygon fill="#8dd3c7" stroke="black" points="1224.49,-84.8 1221.49,-88.8 1200.49,-88.8 1197.49,-84.8 1005.51,-84.8 1005.51,-48.8 1224.49,-48.8 1224.49,-84.8"/>
<text text-anchor="middle" x="1115" y="-62.6" font-family="Times,serif" font-size="14.00">EmailConfirmationsRoutingModule</text>
</g>
<!-- EmailConfirmationsRoutingModule&#45;&gt;EmailConfirmationsModule -->
<g id="edge5" class="edge">
<title>EmailConfirmationsRoutingModule&#45;&gt;EmailConfirmationsModule</title>
<path fill="none" stroke="black" d="M1115,-85.08C1115,-106.12 1115,-137.8 1115,-137.8 1115,-137.8 679.96,-137.8 679.96,-137.8"/>
<polygon fill="black" stroke="black" points="679.96,-134.3 669.96,-137.8 679.96,-141.3 679.96,-134.3"/>
</g>
<!-- SharedDirectivesModule -->
<g id="node7" class="node">
<title>SharedDirectivesModule</title>
<polygon fill="#8dd3c7" stroke="black" points="987.96,-84.8 984.96,-88.8 963.96,-88.8 960.96,-84.8 832.04,-84.8 832.04,-48.8 987.96,-48.8 987.96,-84.8"/>
<text text-anchor="middle" x="910" y="-62.6" font-family="Times,serif" font-size="14.00">SharedDirectivesModule</text>
</g>
<!-- SharedDirectivesModule&#45;&gt;EmailConfirmationsModule -->
<g id="edge6" class="edge">
<title>SharedDirectivesModule&#45;&gt;EmailConfirmationsModule</title>
<path fill="none" stroke="black" d="M910,-84.82C910,-102.17 910,-125.8 910,-125.8 910,-125.8 680.2,-125.8 680.2,-125.8"/>
<polygon fill="black" stroke="black" points="680.2,-122.3 670.2,-125.8 680.2,-129.3 680.2,-122.3"/>
</g>
</g>
</svg>
