<?xml version="1.0" encoding="UTF-8" standalone="no"?>
<!DOCTYPE svg PUBLIC "-//W3C//DTD SVG 1.1//EN"
 "http://www.w3.org/Graphics/SVG/1.1/DTD/svg11.dtd">
<!-- Generated by graphviz version 2.47.3 (20210619.1520)
 -->
<!-- Title: dependencies Pages: 1 -->
<svg width="1256pt" height="174pt"
 viewBox="0.00 0.00 1256.00 173.80" xmlns="http://www.w3.org/2000/svg" xmlns:xlink="http://www.w3.org/1999/xlink">
<g id="graph0" class="graph" transform="scale(1 1) rotate(0) translate(4 169.8)">
<title>dependencies</title>
<polygon fill="white" stroke="transparent" points="-4,4 -4,-169.8 1252,-169.8 1252,4 -4,4"/>
<text text-anchor="middle" x="624" y="-8.2" font-family="sans-serif" font-size="14.00">dependencies</text>
<g id="clust1" class="cluster">
<title>cluster_EmailConfirmationsModule</title>
<polygon fill="none" stroke="black" stroke-dasharray="1,5" points="8,-32.8 8,-157.8 1240,-157.8 1240,-32.8 8,-32.8"/>
</g>
<g id="clust2" class="cluster">
<title>cluster_EmailConfirmationsModule_declarations</title>
<polygon fill="none" stroke="black" points="432,-40.8 432,-92.8 1232,-92.8 1232,-40.8 432,-40.8"/>
</g>
<g id="clust7" class="cluster">
<title>cluster_EmailConfirmationsModule_imports</title>
<polygon fill="none" stroke="black" points="16,-40.8 16,-92.8 424,-92.8 424,-40.8 16,-40.8"/>
</g>
<!-- CollaborationCommunityComponent -->
<g id="node1" class="node">
<title>CollaborationCommunityComponent</title>
<polygon fill="#ffffb3" stroke="black" points="1223.72,-84.8 998.28,-84.8 998.28,-48.8 1223.72,-48.8 1223.72,-84.8"/>
<text text-anchor="middle" x="1111" y="-62.6" font-family="Times,serif" font-size="14.00">CollaborationCommunityComponent</text>
</g>
<!-- EmailConfirmationsModule -->
<g id="node5" class="node">
<title>EmailConfirmationsModule</title>
<polygon fill="#8dd3c7" stroke="black" points="720.87,-149.8 717.87,-153.8 696.87,-153.8 693.87,-149.8 547.13,-149.8 547.13,-113.8 720.87,-113.8 720.87,-149.8"/>
<text text-anchor="middle" x="634" y="-127.6" font-family="Times,serif" font-size="14.00">EmailConfirmationsModule</text>
</g>
<!-- CollaborationCommunityComponent&#45;&gt;EmailConfirmationsModule -->
<g id="edge1" class="edge">
<title>CollaborationCommunityComponent&#45;&gt;EmailConfirmationsModule</title>
<path fill="none" stroke="black" d="M1111,-85.08C1111,-106.12 1111,-137.8 1111,-137.8 1111,-137.8 730.93,-137.8 730.93,-137.8"/>
<polygon fill="black" stroke="black" points="730.93,-134.3 720.93,-137.8 730.93,-141.3 730.93,-134.3"/>
</g>
<!-- EmailUnsubscribeComponent -->
<g id="node2" class="node">
<title>EmailUnsubscribeComponent</title>
<polygon fill="#ffffb3" stroke="black" points="980.25,-84.8 795.75,-84.8 795.75,-48.8 980.25,-48.8 980.25,-84.8"/>
<text text-anchor="middle" x="888" y="-62.6" font-family="Times,serif" font-size="14.00">EmailUnsubscribeComponent</text>
</g>
<!-- EmailUnsubscribeComponent&#45;&gt;EmailConfirmationsModule -->
<g id="edge2" class="edge">
<title>EmailUnsubscribeComponent&#45;&gt;EmailConfirmationsModule</title>
<path fill="none" stroke="black" d="M888,-84.82C888,-102.17 888,-125.8 888,-125.8 888,-125.8 731.06,-125.8 731.06,-125.8"/>
<polygon fill="black" stroke="black" points="731.06,-122.3 721.06,-125.8 731.06,-129.3 731.06,-122.3"/>
</g>
<!-- RsvpComponent -->
<g id="node3" class="node">
<title>RsvpComponent</title>
<polygon fill="#ffffb3" stroke="black" points="778.11,-84.8 667.89,-84.8 667.89,-48.8 778.11,-48.8 778.11,-84.8"/>
<text text-anchor="middle" x="723" y="-62.6" font-family="Times,serif" font-size="14.00">RsvpComponent</text>
</g>
<!-- RsvpComponent&#45;&gt;EmailConfirmationsModule -->
<g id="edge3" class="edge">
<title>RsvpComponent&#45;&gt;EmailConfirmationsModule</title>
<path fill="none" stroke="black" d="M694.44,-84.91C694.44,-84.91 694.44,-103.79 694.44,-103.79"/>
<polygon fill="black" stroke="black" points="690.94,-103.79 694.44,-113.79 697.94,-103.79 690.94,-103.79"/>
</g>
<!-- UserRoleConfirmationComponent -->
<g id="node4" class="node">
<title>UserRoleConfirmationComponent</title>
<polygon fill="#ffffb3" stroke="black" points="649.64,-84.8 440.36,-84.8 440.36,-48.8 649.64,-48.8 649.64,-84.8"/>
<text text-anchor="middle" x="545" y="-62.6" font-family="Times,serif" font-size="14.00">UserRoleConfirmationComponent</text>
</g>
<!-- UserRoleConfirmationComponent&#45;&gt;EmailConfirmationsModule -->
<g id="edge4" class="edge">
<title>UserRoleConfirmationComponent&#45;&gt;EmailConfirmationsModule</title>
<path fill="none" stroke="black" d="M598.44,-84.91C598.44,-84.91 598.44,-103.79 598.44,-103.79"/>
<polygon fill="black" stroke="black" points="594.94,-103.79 598.44,-113.79 601.94,-103.79 594.94,-103.79"/>
</g>
<!-- EmailConfirmationsRoutingModule -->
<g id="node6" class="node">
<title>EmailConfirmationsRoutingModule</title>
<polygon fill="#8dd3c7" stroke="black" points="416.49,-84.8 413.49,-88.8 392.49,-88.8 389.49,-84.8 197.51,-84.8 197.51,-48.8 416.49,-48.8 416.49,-84.8"/>
<text text-anchor="middle" x="307" y="-62.6" font-family="Times,serif" font-size="14.00">EmailConfirmationsRoutingModule</text>
</g>
<!-- EmailConfirmationsRoutingModule&#45;&gt;EmailConfirmationsModule -->
<g id="edge5" class="edge">
<title>EmailConfirmationsRoutingModule&#45;&gt;EmailConfirmationsModule</title>
<path fill="none" stroke="black" d="M307,-84.82C307,-102.17 307,-125.8 307,-125.8 307,-125.8 536.8,-125.8 536.8,-125.8"/>
<polygon fill="black" stroke="black" points="536.8,-129.3 546.8,-125.8 536.8,-122.3 536.8,-129.3"/>
</g>
<!-- SharedDirectivesModule -->
<g id="node7" class="node">
<title>SharedDirectivesModule</title>
<polygon fill="#8dd3c7" stroke="black" points="179.95,-84.8 176.95,-88.8 155.95,-88.8 152.95,-84.8 24.05,-84.8 24.05,-48.8 179.95,-48.8 179.95,-84.8"/>
<text text-anchor="middle" x="102" y="-62.6" font-family="Times,serif" font-size="14.00">SharedDirectivesModule</text>
</g>
<!-- SharedDirectivesModule&#45;&gt;EmailConfirmationsModule -->
<g id="edge6" class="edge">
<title>SharedDirectivesModule&#45;&gt;EmailConfirmationsModule</title>
<path fill="none" stroke="black" d="M102,-85.08C102,-106.12 102,-137.8 102,-137.8 102,-137.8 537.04,-137.8 537.04,-137.8"/>
<polygon fill="black" stroke="black" points="537.04,-141.3 547.04,-137.8 537.04,-134.3 537.04,-141.3"/>
</g>
</g>
</svg>
