<?xml version="1.0" encoding="UTF-8" standalone="no"?>
<!DOCTYPE svg PUBLIC "-//W3C//DTD SVG 1.1//EN"
 "http://www.w3.org/Graphics/SVG/1.1/DTD/svg11.dtd">
<!-- Generated by graphviz version 2.47.0 (20210316.0004)
 -->
<!-- Title: dependencies Pages: 1 -->
<svg width="1082pt" height="211pt"
     viewBox="0.00 0.00 1082.00 211.00" xmlns="http://www.w3.org/2000/svg">
<g id="graph0" class="graph" transform="scale(1 1) rotate(0) translate(4 207)">
<title>dependencies</title>
<polygon fill="white" stroke="transparent" points="-4,4 -4,-207 1078,-207 1078,4 -4,4"/>
<text text-anchor="start" x="516.01" y="-42.4" font-family="sans-serif" font-weight="bold" font-size="14.00">Legend</text>
<polygon fill="#ffffb3" stroke="transparent" points="303,-10 303,-30 323,-30 323,-10 303,-10"/>
<text text-anchor="start" x="326.63" y="-15.4" font-family="sans-serif" font-size="14.00"> &#160;Declarations</text>
<polygon fill="#8dd3c7" stroke="transparent" points="416,-10 416,-30 436,-30 436,-10 416,-10"/>
<text text-anchor="start" x="439.73" y="-15.4" font-family="sans-serif" font-size="14.00"> &#160;Module</text>
<polygon fill="#80b1d3" stroke="transparent" points="502,-10 502,-30 522,-30 522,-10 502,-10"/>
<text text-anchor="start" x="525.78" y="-15.4" font-family="sans-serif" font-size="14.00"> &#160;Bootstrap</text>
<polygon fill="#fdb462" stroke="transparent" points="599,-10 599,-30 619,-30 619,-10 599,-10"/>
<text text-anchor="start" x="622.67" y="-15.4" font-family="sans-serif" font-size="14.00"> &#160;Providers</text>
<polygon fill="#fb8072" stroke="transparent" points="695,-10 695,-30 715,-30 715,-10 695,-10"/>
<text text-anchor="start" x="718.73" y="-15.4" font-family="sans-serif" font-size="14.00"> &#160;Exports</text>
<g id="clust1" class="cluster">
<title>cluster_EmailConfirmationsModule</title>
<polygon fill="none" stroke="black" stroke-dasharray="1,5" points="8,-70 8,-195 1066,-195 1066,-70 8,-70"/>
</g>
<g id="clust7" class="cluster">
<title>cluster_EmailConfirmationsModule_imports</title>
<polygon fill="none" stroke="black" points="824,-78 824,-130 1058,-130 1058,-78 824,-78"/>
</g>
<g id="clust2" class="cluster">
<title>cluster_EmailConfirmationsModule_declarations</title>
<polygon fill="none" stroke="black" points="16,-78 16,-130 816,-130 816,-78 16,-78"/>
</g>
<!-- CollaborationCommunityComponent -->
<g id="node1" class="node">
<title>CollaborationCommunityComponent</title>
<polygon fill="#ffffb3" stroke="black" points="807.72,-122 582.28,-122 582.28,-86 807.72,-86 807.72,-122"/>
<text text-anchor="middle" x="695" y="-99.8" font-family="Times,serif" font-size="14.00">CollaborationCommunityComponent</text>
</g>
<!-- EmailConfirmationsModule -->
<g id="node5" class="node">
<title>EmailConfirmationsModule</title>
<polygon fill="#8dd3c7" stroke="black" points="558.87,-187 555.87,-191 534.87,-191 531.87,-187 385.13,-187 385.13,-151 558.87,-151 558.87,-187"/>
<text text-anchor="middle" x="472" y="-164.8" font-family="Times,serif" font-size="14.00">EmailConfirmationsModule</text>
</g>
<!-- CollaborationCommunityComponent&#45;&gt;EmailConfirmationsModule -->
<g id="edge1" class="edge">
<title>CollaborationCommunityComponent&#45;&gt;EmailConfirmationsModule</title>
<path fill="none" stroke="black" d="M695,-122.02C695,-139.37 695,-163 695,-163 695,-163 569.18,-163 569.18,-163"/>
<polygon fill="black" stroke="black" points="569.18,-159.5 559.18,-163 569.18,-166.5 569.18,-159.5"/>
</g>
<!-- EmailUnsubscribeComponent -->
<g id="node2" class="node">
<title>EmailUnsubscribeComponent</title>
<polygon fill="#ffffb3" stroke="black" points="564.25,-122 379.75,-122 379.75,-86 564.25,-86 564.25,-122"/>
<text text-anchor="middle" x="472" y="-99.8" font-family="Times,serif" font-size="14.00">EmailUnsubscribeComponent</text>
</g>
<!-- EmailUnsubscribeComponent&#45;&gt;EmailConfirmationsModule -->
<g id="edge2" class="edge">
<title>EmailUnsubscribeComponent&#45;&gt;EmailConfirmationsModule</title>
<path fill="none" stroke="black" d="M472,-122.11C472,-122.11 472,-140.99 472,-140.99"/>
<polygon fill="black" stroke="black" points="468.5,-140.99 472,-150.99 475.5,-140.99 468.5,-140.99"/>
</g>
<!-- RsvpComponent -->
<g id="node3" class="node">
<title>RsvpComponent</title>
<polygon fill="#ffffb3" stroke="black" points="362.11,-122 251.89,-122 251.89,-86 362.11,-86 362.11,-122"/>
<text text-anchor="middle" x="307" y="-99.8" font-family="Times,serif" font-size="14.00">RsvpComponent</text>
</g>
<!-- RsvpComponent&#45;&gt;EmailConfirmationsModule -->
<g id="edge3" class="edge">
<title>RsvpComponent&#45;&gt;EmailConfirmationsModule</title>
<path fill="none" stroke="black" d="M307,-122.02C307,-139.37 307,-163 307,-163 307,-163 374.67,-163 374.67,-163"/>
<polygon fill="black" stroke="black" points="374.67,-166.5 384.67,-163 374.67,-159.5 374.67,-166.5"/>
</g>
<!-- UserRoleConfirmationComponent -->
<g id="node4" class="node">
<title>UserRoleConfirmationComponent</title>
<polygon fill="#ffffb3" stroke="black" points="233.64,-122 24.36,-122 24.36,-86 233.64,-86 233.64,-122"/>
<text text-anchor="middle" x="129" y="-99.8" font-family="Times,serif" font-size="14.00">UserRoleConfirmationComponent</text>
</g>
<!-- UserRoleConfirmationComponent&#45;&gt;EmailConfirmationsModule -->
<g id="edge4" class="edge">
<title>UserRoleConfirmationComponent&#45;&gt;EmailConfirmationsModule</title>
<path fill="none" stroke="black" d="M129,-122.28C129,-143.32 129,-175 129,-175 129,-175 375,-175 375,-175"/>
<polygon fill="black" stroke="black" points="375,-178.5 385,-175 375,-171.5 375,-178.5"/>
</g>
<!-- EmailConfirmationsRoutingModule -->
<g id="node6" class="node">
<title>EmailConfirmationsRoutingModule</title>
<polygon fill="#8dd3c7" stroke="black" points="1050.49,-122 1047.49,-126 1026.49,-126 1023.49,-122 831.51,-122 831.51,-86 1050.49,-86 1050.49,-122"/>
<text text-anchor="middle" x="941" y="-99.8" font-family="Times,serif" font-size="14.00">EmailConfirmationsRoutingModule</text>
</g>
<!-- EmailConfirmationsRoutingModule&#45;&gt;EmailConfirmationsModule -->
<g id="edge5" class="edge">
<title>EmailConfirmationsRoutingModule&#45;&gt;EmailConfirmationsModule</title>
<path fill="none" stroke="black" d="M941,-122.28C941,-143.32 941,-175 941,-175 941,-175 569.12,-175 569.12,-175"/>
<polygon fill="black" stroke="black" points="569.12,-171.5 559.12,-175 569.12,-178.5 569.12,-171.5"/>
</g>
</g>
</svg>
