<?xml version="1.0" encoding="UTF-8" standalone="no"?>
<!DOCTYPE svg PUBLIC "-//W3C//DTD SVG 1.1//EN"
 "http://www.w3.org/Graphics/SVG/1.1/DTD/svg11.dtd">
<!-- Generated by graphviz version 2.47.3 (20210619.1520)
 -->
<!-- Title: dependencies Pages: 1 -->
<svg width="4259pt" height="247pt"
 viewBox="0.00 0.00 4259.00 246.80" xmlns="http://www.w3.org/2000/svg" xmlns:xlink="http://www.w3.org/1999/xlink">
<g id="graph0" class="graph" transform="scale(1 1) rotate(0) translate(4 242.8)">
<title>dependencies</title>
<polygon fill="white" stroke="transparent" points="-4,4 -4,-242.8 4255,-242.8 4255,4 -4,4"/>
<text text-anchor="middle" x="2125.5" y="-8.2" font-family="sans-serif" font-size="14.00">dependencies</text>
<g id="clust1" class="cluster">
<title>cluster_UsersModule</title>
<polygon fill="none" stroke="black" stroke-dasharray="1,5" points="8,-32.8 8,-230.8 4243,-230.8 4243,-32.8 8,-32.8"/>
</g>
<g id="clust2" class="cluster">
<title>cluster_UsersModule_declarations</title>
<polygon fill="none" stroke="black" points="350,-40.8 350,-92.8 4235,-92.8 4235,-40.8 350,-40.8"/>
</g>
<g id="clust24" class="cluster">
<title>cluster_UsersModule_imports</title>
<polygon fill="none" stroke="black" points="16,-40.8 16,-92.8 342,-92.8 342,-40.8 16,-40.8"/>
</g>
<g id="clust25" class="cluster">
<title>cluster_UsersModule_exports</title>
<polygon fill="none" stroke="black" points="1974,-170.8 1974,-222.8 2170,-222.8 2170,-170.8 1974,-170.8"/>
</g>
<!-- BasicUserProfileComponent -->
<g id="node1" class="node">
<title>BasicUserProfileComponent</title>
<polygon fill="#ffffb3" stroke="black" points="4227.46,-84.8 4050.54,-84.8 4050.54,-48.8 4227.46,-48.8 4227.46,-84.8"/>
<text text-anchor="middle" x="4139" y="-62.6" font-family="Times,serif" font-size="14.00">BasicUserProfileComponent</text>
</g>
<!-- UsersModule -->
<g id="node22" class="node">
<title>UsersModule</title>
<polygon fill="#8dd3c7" stroke="black" points="2117.92,-149.8 2114.92,-153.8 2093.92,-153.8 2090.92,-149.8 2026.08,-149.8 2026.08,-113.8 2117.92,-113.8 2117.92,-149.8"/>
<text text-anchor="middle" x="2072" y="-127.6" font-family="Times,serif" font-size="14.00">UsersModule</text>
</g>
<!-- BasicUserProfileComponent&#45;&gt;UsersModule -->
<g id="edge1" class="edge">
<title>BasicUserProfileComponent&#45;&gt;UsersModule</title>
<path fill="none" stroke="black" d="M4139,-84.95C4139,-108.56 4139,-146.8 4139,-146.8 4139,-146.8 2128.07,-146.8 2128.07,-146.8"/>
<polygon fill="black" stroke="black" points="2128.07,-143.3 2118.07,-146.8 2128.07,-150.3 2128.07,-143.3"/>
</g>
<!-- PublicProfileComponent -->
<g id="node2" class="node">
<title>PublicProfileComponent</title>
<polygon fill="#ffffb3" stroke="black" points="4032.71,-84.8 3877.29,-84.8 3877.29,-48.8 4032.71,-48.8 4032.71,-84.8"/>
<text text-anchor="middle" x="3955" y="-62.6" font-family="Times,serif" font-size="14.00">PublicProfileComponent</text>
</g>
<!-- PublicProfileComponent&#45;&gt;UsersModule -->
<g id="edge2" class="edge">
<title>PublicProfileComponent&#45;&gt;UsersModule</title>
<path fill="none" stroke="black" d="M3955,-85.05C3955,-107.82 3955,-143.8 3955,-143.8 3955,-143.8 2128.08,-143.8 2128.08,-143.8"/>
<polygon fill="black" stroke="black" points="2128.08,-140.3 2118.08,-143.8 2128.08,-147.3 2128.08,-140.3"/>
</g>
<!-- UserBadgesComponent -->
<g id="node3" class="node">
<title>UserBadgesComponent</title>
<polygon fill="#ffffb3" stroke="black" points="3859.47,-84.8 3710.53,-84.8 3710.53,-48.8 3859.47,-48.8 3859.47,-84.8"/>
<text text-anchor="middle" x="3785" y="-62.6" font-family="Times,serif" font-size="14.00">UserBadgesComponent</text>
</g>
<!-- UserBadgesComponent&#45;&gt;UsersModule -->
<g id="edge3" class="edge">
<title>UserBadgesComponent&#45;&gt;UsersModule</title>
<path fill="none" stroke="black" d="M3785,-85.09C3785,-107.01 3785,-140.8 3785,-140.8 3785,-140.8 2127.82,-140.8 2127.82,-140.8"/>
<polygon fill="black" stroke="black" points="2127.82,-137.3 2117.82,-140.8 2127.82,-144.3 2127.82,-137.3"/>
</g>
<!-- UserBasicDetailsComponent -->
<g id="node4" class="node">
<title>UserBasicDetailsComponent</title>
<polygon fill="#ffffb3" stroke="black" points="3692.01,-84.8 3513.99,-84.8 3513.99,-48.8 3692.01,-48.8 3692.01,-84.8"/>
<text text-anchor="middle" x="3603" y="-62.6" font-family="Times,serif" font-size="14.00">UserBasicDetailsComponent</text>
</g>
<!-- UserBasicDetailsComponent&#45;&gt;UsersModule -->
<g id="edge4" class="edge">
<title>UserBasicDetailsComponent&#45;&gt;UsersModule</title>
<path fill="none" stroke="black" d="M3603,-85.08C3603,-106.12 3603,-137.8 3603,-137.8 3603,-137.8 2127.82,-137.8 2127.82,-137.8"/>
<polygon fill="black" stroke="black" points="2127.82,-134.3 2117.82,-137.8 2127.82,-141.3 2127.82,-134.3"/>
</g>
<!-- UserBasicSocialComponent -->
<g id="node5" class="node">
<title>UserBasicSocialComponent</title>
<polygon fill="#ffffb3" stroke="black" points="3495.85,-84.8 3322.15,-84.8 3322.15,-48.8 3495.85,-48.8 3495.85,-84.8"/>
<text text-anchor="middle" x="3409" y="-62.6" font-family="Times,serif" font-size="14.00">UserBasicSocialComponent</text>
</g>
<!-- UserBasicSocialComponent&#45;&gt;UsersModule -->
<g id="edge5" class="edge">
<title>UserBasicSocialComponent&#45;&gt;UsersModule</title>
<path fill="none" stroke="black" d="M3409,-85.02C3409,-105.17 3409,-134.8 3409,-134.8 3409,-134.8 2128.02,-134.8 2128.02,-134.8"/>
<polygon fill="black" stroke="black" points="2128.02,-131.3 2118.02,-134.8 2128.02,-138.3 2128.02,-131.3"/>
</g>
<!-- UserBuildCardComponent -->
<g id="node6" class="node">
<title>UserBuildCardComponent</title>
<polygon fill="#ffffb3" stroke="black" points="3304.09,-84.8 3137.91,-84.8 3137.91,-48.8 3304.09,-48.8 3304.09,-84.8"/>
<text text-anchor="middle" x="3221" y="-62.6" font-family="Times,serif" font-size="14.00">UserBuildCardComponent</text>
</g>
<!-- UserBuildCardComponent&#45;&gt;UsersModule -->
<g id="edge6" class="edge">
<title>UserBuildCardComponent&#45;&gt;UsersModule</title>
<path fill="none" stroke="black" d="M3221,-84.91C3221,-104.14 3221,-131.8 3221,-131.8 3221,-131.8 2127.75,-131.8 2127.75,-131.8"/>
<polygon fill="black" stroke="black" points="2127.75,-128.3 2117.75,-131.8 2127.75,-135.3 2127.75,-128.3"/>
</g>
<!-- UserCommunityCardComponent -->
<g id="node7" class="node">
<title>UserCommunityCardComponent</title>
<polygon fill="#ffffb3" stroke="black" points="3119.87,-84.8 2918.13,-84.8 2918.13,-48.8 3119.87,-48.8 3119.87,-84.8"/>
<text text-anchor="middle" x="3019" y="-62.6" font-family="Times,serif" font-size="14.00">UserCommunityCardComponent</text>
</g>
<!-- UserCommunityCardComponent&#45;&gt;UsersModule -->
<g id="edge7" class="edge">
<title>UserCommunityCardComponent&#45;&gt;UsersModule</title>
<path fill="none" stroke="black" d="M3019,-85.07C3019,-103.36 3019,-128.8 3019,-128.8 3019,-128.8 2128,-128.8 2128,-128.8"/>
<polygon fill="black" stroke="black" points="2128,-125.3 2118,-128.8 2128,-132.3 2128,-125.3"/>
</g>
<!-- UserContentComponent -->
<g id="node8" class="node">
<title>UserContentComponent</title>
<polygon fill="#ffffb3" stroke="black" points="2900.09,-84.8 2747.91,-84.8 2747.91,-48.8 2900.09,-48.8 2900.09,-84.8"/>
<text text-anchor="middle" x="2824" y="-62.6" font-family="Times,serif" font-size="14.00">UserContentComponent</text>
</g>
<!-- UserContentComponent&#45;&gt;UsersModule -->
<g id="edge8" class="edge">
<title>UserContentComponent&#45;&gt;UsersModule</title>
<path fill="none" stroke="black" d="M2824,-84.82C2824,-102.17 2824,-125.8 2824,-125.8 2824,-125.8 2127.91,-125.8 2127.91,-125.8"/>
<polygon fill="black" stroke="black" points="2127.91,-122.3 2117.91,-125.8 2127.91,-129.3 2127.91,-122.3"/>
</g>
<!-- UserContributionsComponent -->
<g id="node9" class="node">
<title>UserContributionsComponent</title>
<polygon fill="#ffffb3" stroke="black" points="2730.26,-84.8 2545.74,-84.8 2545.74,-48.8 2730.26,-48.8 2730.26,-84.8"/>
<text text-anchor="middle" x="2638" y="-62.6" font-family="Times,serif" font-size="14.00">UserContributionsComponent</text>
</g>
<!-- UserContributionsComponent&#45;&gt;UsersModule -->
<g id="edge9" class="edge">
<title>UserContributionsComponent&#45;&gt;UsersModule</title>
<path fill="none" stroke="black" d="M2638,-84.83C2638,-101.2 2638,-122.8 2638,-122.8 2638,-122.8 2127.84,-122.8 2127.84,-122.8"/>
<polygon fill="black" stroke="black" points="2127.84,-119.3 2117.84,-122.8 2127.84,-126.3 2127.84,-119.3"/>
</g>
<!-- UserCoverPhotoComponent -->
<g id="node10" class="node">
<title>UserCoverPhotoComponent</title>
<polygon fill="#ffffb3" stroke="black" points="2527.14,-84.8 2352.86,-84.8 2352.86,-48.8 2527.14,-48.8 2527.14,-84.8"/>
<text text-anchor="middle" x="2440" y="-62.6" font-family="Times,serif" font-size="14.00">UserCoverPhotoComponent</text>
</g>
<!-- UserCoverPhotoComponent&#45;&gt;UsersModule -->
<g id="edge10" class="edge">
<title>UserCoverPhotoComponent&#45;&gt;UsersModule</title>
<path fill="none" stroke="black" d="M2440,-85.04C2440,-100.37 2440,-119.8 2440,-119.8 2440,-119.8 2127.86,-119.8 2127.86,-119.8"/>
<polygon fill="black" stroke="black" points="2127.86,-116.3 2117.86,-119.8 2127.86,-123.3 2127.86,-116.3"/>
</g>
<!-- UserExtraDetailsComponent -->
<g id="node11" class="node">
<title>UserExtraDetailsComponent</title>
<polygon fill="#ffffb3" stroke="black" points="2334.73,-84.8 2157.27,-84.8 2157.27,-48.8 2334.73,-48.8 2334.73,-84.8"/>
<text text-anchor="middle" x="2246" y="-62.6" font-family="Times,serif" font-size="14.00">UserExtraDetailsComponent</text>
</g>
<!-- UserExtraDetailsComponent&#45;&gt;UsersModule -->
<g id="edge11" class="edge">
<title>UserExtraDetailsComponent&#45;&gt;UsersModule</title>
<path fill="none" stroke="black" d="M2248.55,-84.85C2248.55,-99.17 2248.55,-116.8 2248.55,-116.8 2248.55,-116.8 2127.92,-116.8 2127.92,-116.8"/>
<polygon fill="black" stroke="black" points="2127.92,-113.3 2117.92,-116.8 2127.92,-120.3 2127.92,-113.3"/>
</g>
<!-- UserFeedComponent -->
<g id="node12" class="node">
<title>UserFeedComponent</title>
<polygon fill="#ffffb3" stroke="black" points="2139.47,-84.8 2004.53,-84.8 2004.53,-48.8 2139.47,-48.8 2139.47,-84.8"/>
<text text-anchor="middle" x="2072" y="-62.6" font-family="Times,serif" font-size="14.00">UserFeedComponent</text>
</g>
<!-- UserFeedComponent&#45;&gt;UsersModule -->
<g id="edge12" class="edge">
<title>UserFeedComponent&#45;&gt;UsersModule</title>
<path fill="none" stroke="black" d="M2072,-84.91C2072,-84.91 2072,-103.79 2072,-103.79"/>
<polygon fill="black" stroke="black" points="2068.5,-103.79 2072,-113.79 2075.5,-103.79 2068.5,-103.79"/>
</g>
<!-- UserFeedInputComponent -->
<g id="node13" class="node">
<title>UserFeedInputComponent</title>
<polygon fill="#ffffb3" stroke="black" points="1986.02,-84.8 1821.98,-84.8 1821.98,-48.8 1986.02,-48.8 1986.02,-84.8"/>
<text text-anchor="middle" x="1904" y="-62.6" font-family="Times,serif" font-size="14.00">UserFeedInputComponent</text>
</g>
<!-- UserFeedInputComponent&#45;&gt;UsersModule -->
<g id="edge13" class="edge">
<title>UserFeedInputComponent&#45;&gt;UsersModule</title>
<path fill="none" stroke="black" d="M1901.75,-84.85C1901.75,-99.17 1901.75,-116.8 1901.75,-116.8 1901.75,-116.8 2015.93,-116.8 2015.93,-116.8"/>
<polygon fill="black" stroke="black" points="2015.93,-120.3 2025.93,-116.8 2015.93,-113.3 2015.93,-120.3"/>
</g>
<!-- UserFeedPostComponent -->
<g id="node14" class="node">
<title>UserFeedPostComponent</title>
<polygon fill="#ffffb3" stroke="black" points="1803.59,-84.8 1644.41,-84.8 1644.41,-48.8 1803.59,-48.8 1803.59,-84.8"/>
<text text-anchor="middle" x="1724" y="-62.6" font-family="Times,serif" font-size="14.00">UserFeedPostComponent</text>
</g>
<!-- UserFeedPostComponent&#45;&gt;UsersModule -->
<g id="edge14" class="edge">
<title>UserFeedPostComponent&#45;&gt;UsersModule</title>
<path fill="none" stroke="black" d="M1724,-85.04C1724,-100.37 1724,-119.8 1724,-119.8 1724,-119.8 2016.15,-119.8 2016.15,-119.8"/>
<polygon fill="black" stroke="black" points="2016.15,-123.3 2026.15,-119.8 2016.15,-116.3 2016.15,-123.3"/>
</g>
<!-- UserFeedPostsComponent -->
<g id="node15" class="node">
<title>UserFeedPostsComponent</title>
<polygon fill="#ffffb3" stroke="black" points="1626.03,-84.8 1461.97,-84.8 1461.97,-48.8 1626.03,-48.8 1626.03,-84.8"/>
<text text-anchor="middle" x="1544" y="-62.6" font-family="Times,serif" font-size="14.00">UserFeedPostsComponent</text>
</g>
<!-- UserFeedPostsComponent&#45;&gt;UsersModule -->
<g id="edge15" class="edge">
<title>UserFeedPostsComponent&#45;&gt;UsersModule</title>
<path fill="none" stroke="black" d="M1544,-84.83C1544,-101.2 1544,-122.8 1544,-122.8 1544,-122.8 2016.07,-122.8 2016.07,-122.8"/>
<polygon fill="black" stroke="black" points="2016.07,-126.3 2026.07,-122.8 2016.07,-119.3 2016.07,-126.3"/>
</g>
<!-- UserLabCardComponent -->
<g id="node16" class="node">
<title>UserLabCardComponent</title>
<polygon fill="#ffffb3" stroke="black" points="1443.24,-84.8 1286.76,-84.8 1286.76,-48.8 1443.24,-48.8 1443.24,-84.8"/>
<text text-anchor="middle" x="1365" y="-62.6" font-family="Times,serif" font-size="14.00">UserLabCardComponent</text>
</g>
<!-- UserLabCardComponent&#45;&gt;UsersModule -->
<g id="edge16" class="edge">
<title>UserLabCardComponent&#45;&gt;UsersModule</title>
<path fill="none" stroke="black" d="M1365,-84.82C1365,-102.17 1365,-125.8 1365,-125.8 1365,-125.8 2016.16,-125.8 2016.16,-125.8"/>
<polygon fill="black" stroke="black" points="2016.16,-129.3 2026.16,-125.8 2016.16,-122.3 2016.16,-129.3"/>
</g>
<!-- UserNetworkComponent -->
<g id="node17" class="node">
<title>UserNetworkComponent</title>
<polygon fill="#ffffb3" stroke="black" points="1268.24,-84.8 1111.76,-84.8 1111.76,-48.8 1268.24,-48.8 1268.24,-84.8"/>
<text text-anchor="middle" x="1190" y="-62.6" font-family="Times,serif" font-size="14.00">UserNetworkComponent</text>
</g>
<!-- UserNetworkComponent&#45;&gt;UsersModule -->
<g id="edge17" class="edge">
<title>UserNetworkComponent&#45;&gt;UsersModule</title>
<path fill="none" stroke="black" d="M1190,-85.07C1190,-103.36 1190,-128.8 1190,-128.8 1190,-128.8 2016.13,-128.8 2016.13,-128.8"/>
<polygon fill="black" stroke="black" points="2016.13,-132.3 2026.13,-128.8 2016.13,-125.3 2016.13,-132.3"/>
</g>
<!-- UserNetworkListComponent -->
<g id="node18" class="node">
<title>UserNetworkListComponent</title>
<polygon fill="#ffffb3" stroke="black" points="1093.02,-84.8 914.98,-84.8 914.98,-48.8 1093.02,-48.8 1093.02,-84.8"/>
<text text-anchor="middle" x="1004" y="-62.6" font-family="Times,serif" font-size="14.00">UserNetworkListComponent</text>
</g>
<!-- UserNetworkListComponent&#45;&gt;UsersModule -->
<g id="edge18" class="edge">
<title>UserNetworkListComponent&#45;&gt;UsersModule</title>
<path fill="none" stroke="black" d="M1004,-84.91C1004,-104.14 1004,-131.8 1004,-131.8 1004,-131.8 2016.11,-131.8 2016.11,-131.8"/>
<polygon fill="black" stroke="black" points="2016.11,-135.3 2026.11,-131.8 2016.11,-128.3 2016.11,-135.3"/>
</g>
<!-- UserPastEventCardComponent -->
<g id="node19" class="node">
<title>UserPastEventCardComponent</title>
<polygon fill="#ffffb3" stroke="black" points="896.46,-84.8 705.54,-84.8 705.54,-48.8 896.46,-48.8 896.46,-84.8"/>
<text text-anchor="middle" x="801" y="-62.6" font-family="Times,serif" font-size="14.00">UserPastEventCardComponent</text>
</g>
<!-- UserPastEventCardComponent&#45;&gt;UsersModule -->
<g id="edge19" class="edge">
<title>UserPastEventCardComponent&#45;&gt;UsersModule</title>
<path fill="none" stroke="black" d="M801,-85.02C801,-105.17 801,-134.8 801,-134.8 801,-134.8 2016.01,-134.8 2016.01,-134.8"/>
<polygon fill="black" stroke="black" points="2016.01,-138.3 2026.01,-134.8 2016.01,-131.3 2016.01,-138.3"/>
</g>
<!-- UserSocialCardComponent -->
<g id="node20" class="node">
<title>UserSocialCardComponent</title>
<polygon fill="#ffffb3" stroke="black" points="687.96,-84.8 518.04,-84.8 518.04,-48.8 687.96,-48.8 687.96,-84.8"/>
<text text-anchor="middle" x="603" y="-62.6" font-family="Times,serif" font-size="14.00">UserSocialCardComponent</text>
</g>
<!-- UserSocialCardComponent&#45;&gt;UsersModule -->
<g id="edge20" class="edge">
<title>UserSocialCardComponent&#45;&gt;UsersModule</title>
<path fill="none" stroke="black" d="M603,-85.08C603,-106.12 603,-137.8 603,-137.8 603,-137.8 2016.02,-137.8 2016.02,-137.8"/>
<polygon fill="black" stroke="black" points="2016.02,-141.3 2026.02,-137.8 2016.02,-134.3 2016.02,-141.3"/>
</g>
<!-- UserSocialComponent -->
<g id="node21" class="node">
<title>UserSocialComponent</title>
<polygon fill="#ffffb3" stroke="black" points="500.25,-84.8 357.75,-84.8 357.75,-48.8 500.25,-48.8 500.25,-84.8"/>
<text text-anchor="middle" x="429" y="-62.6" font-family="Times,serif" font-size="14.00">UserSocialComponent</text>
</g>
<!-- UserSocialComponent&#45;&gt;UsersModule -->
<g id="edge21" class="edge">
<title>UserSocialComponent&#45;&gt;UsersModule</title>
<path fill="none" stroke="black" d="M429,-85.09C429,-107.01 429,-140.8 429,-140.8 429,-140.8 2015.91,-140.8 2015.91,-140.8"/>
<polygon fill="black" stroke="black" points="2015.91,-144.3 2025.91,-140.8 2015.91,-137.3 2015.91,-144.3"/>
</g>
<!-- BasicUserProfileComponent  -->
<g id="node25" class="node">
<title>BasicUserProfileComponent </title>
<polygon fill="#fb8072" stroke="black" points="2162.46,-214.8 1981.54,-214.8 1981.54,-178.8 2162.46,-178.8 2162.46,-214.8"/>
<text text-anchor="middle" x="2072" y="-192.6" font-family="Times,serif" font-size="14.00">BasicUserProfileComponent </text>
</g>
<!-- UsersModule&#45;&gt;BasicUserProfileComponent  -->
<g id="edge24" class="edge">
<title>UsersModule&#45;&gt;BasicUserProfileComponent </title>
<path fill="none" stroke="black" stroke-dasharray="5,2" d="M2072,-149.91C2072,-149.91 2072,-168.79 2072,-168.79"/>
<polygon fill="black" stroke="black" points="2068.5,-168.79 2072,-178.79 2075.5,-168.79 2068.5,-168.79"/>
</g>
<!-- SharedDirectivesModule -->
<g id="node23" class="node">
<title>SharedDirectivesModule</title>
<polygon fill="#8dd3c7" stroke="black" points="333.95,-84.8 330.95,-88.8 309.95,-88.8 306.95,-84.8 178.05,-84.8 178.05,-48.8 333.95,-48.8 333.95,-84.8"/>
<text text-anchor="middle" x="256" y="-62.6" font-family="Times,serif" font-size="14.00">SharedDirectivesModule</text>
</g>
<!-- SharedDirectivesModule&#45;&gt;UsersModule -->
<g id="edge22" class="edge">
<title>SharedDirectivesModule&#45;&gt;UsersModule</title>
<path fill="none" stroke="black" d="M256,-85.05C256,-107.82 256,-143.8 256,-143.8 256,-143.8 2016.2,-143.8 2016.2,-143.8"/>
<polygon fill="black" stroke="black" points="2016.2,-147.3 2026.2,-143.8 2016.2,-140.3 2016.2,-147.3"/>
</g>
<!-- UsersRoutingModule -->
<g id="node24" class="node">
<title>UsersRoutingModule</title>
<polygon fill="#8dd3c7" stroke="black" points="160.04,-84.8 157.04,-88.8 136.04,-88.8 133.04,-84.8 23.96,-84.8 23.96,-48.8 160.04,-48.8 160.04,-84.8"/>
<text text-anchor="middle" x="92" y="-62.6" font-family="Times,serif" font-size="14.00">UsersRoutingModule</text>
</g>
<!-- UsersRoutingModule&#45;&gt;UsersModule -->
<g id="edge23" class="edge">
<title>UsersRoutingModule&#45;&gt;UsersModule</title>
<path fill="none" stroke="black" d="M92,-84.95C92,-108.56 92,-146.8 92,-146.8 92,-146.8 2015.97,-146.8 2015.97,-146.8"/>
<polygon fill="black" stroke="black" points="2015.97,-150.3 2025.97,-146.8 2015.97,-143.3 2015.97,-150.3"/>
</g>
</g>
</svg>
