<?xml version="1.0" encoding="UTF-8" standalone="no"?>
<!DOCTYPE svg PUBLIC "-//W3C//DTD SVG 1.1//EN"
 "http://www.w3.org/Graphics/SVG/1.1/DTD/svg11.dtd">
<!-- Generated by graphviz version 2.47.0 (20210316.0004)
 -->
<!-- Title: dependencies Pages: 1 -->
<svg width="4250pt" height="284pt"
     viewBox="0.00 0.00 4250.00 284.00" xmlns="http://www.w3.org/2000/svg">
<g id="graph0" class="graph" transform="scale(1 1) rotate(0) translate(4 280)">
<title>dependencies</title>
<polygon fill="white" stroke="transparent" points="-4,4 -4,-280 4246,-280 4246,4 -4,4"/>
<text text-anchor="start" x="2100.01" y="-42.4" font-family="sans-serif" font-weight="bold" font-size="14.00">Legend</text>
<polygon fill="#ffffb3" stroke="transparent" points="1887,-10 1887,-30 1907,-30 1907,-10 1887,-10"/>
<text text-anchor="start" x="1910.63" y="-15.4" font-family="sans-serif" font-size="14.00"> &#160;Declarations</text>
<polygon fill="#8dd3c7" stroke="transparent" points="2000,-10 2000,-30 2020,-30 2020,-10 2000,-10"/>
<text text-anchor="start" x="2023.73" y="-15.4" font-family="sans-serif" font-size="14.00"> &#160;Module</text>
<polygon fill="#80b1d3" stroke="transparent" points="2086,-10 2086,-30 2106,-30 2106,-10 2086,-10"/>
<text text-anchor="start" x="2109.78" y="-15.4" font-family="sans-serif" font-size="14.00"> &#160;Bootstrap</text>
<polygon fill="#fdb462" stroke="transparent" points="2183,-10 2183,-30 2203,-30 2203,-10 2183,-10"/>
<text text-anchor="start" x="2206.67" y="-15.4" font-family="sans-serif" font-size="14.00"> &#160;Providers</text>
<polygon fill="#fb8072" stroke="transparent" points="2279,-10 2279,-30 2299,-30 2299,-10 2279,-10"/>
<text text-anchor="start" x="2302.73" y="-15.4" font-family="sans-serif" font-size="14.00"> &#160;Exports</text>
<g id="clust1" class="cluster">
<title>cluster_UsersModule</title>
<polygon fill="none" stroke="black" stroke-dasharray="1,5" points="8,-70 8,-268 4234,-268 4234,-70 8,-70"/>
</g>
<g id="clust25" class="cluster">
<title>cluster_UsersModule_imports</title>
<polygon fill="none" stroke="black" points="4074,-78 4074,-130 4226,-130 4226,-78 4074,-78"/>
</g>
<g id="clust26" class="cluster">
<title>cluster_UsersModule_exports</title>
<polygon fill="none" stroke="black" points="1902,-208 1902,-260 2267,-260 2267,-208 1902,-208"/>
</g>
<g id="clust2" class="cluster">
<title>cluster_UsersModule_declarations</title>
<polygon fill="none" stroke="black" points="16,-78 16,-130 4066,-130 4066,-78 16,-78"/>
</g>
<!-- BasicUserProfileComponent -->
<g id="node1" class="node">
<title>BasicUserProfileComponent</title>
<polygon fill="#ffffb3" stroke="black" points="4058.46,-122 3881.54,-122 3881.54,-86 4058.46,-86 4058.46,-122"/>
<text text-anchor="middle" x="3970" y="-99.8" font-family="Times,serif" font-size="14.00">BasicUserProfileComponent</text>
</g>
<!-- UsersModule -->
<g id="node23" class="node">
<title>UsersModule</title>
<polygon fill="#8dd3c7" stroke="black" points="2122.92,-187 2119.92,-191 2098.92,-191 2095.92,-187 2031.08,-187 2031.08,-151 2122.92,-151 2122.92,-187"/>
<text text-anchor="middle" x="2077" y="-164.8" font-family="Times,serif" font-size="14.00">UsersModule</text>
</g>
<!-- BasicUserProfileComponent&#45;&gt;UsersModule -->
<g id="edge1" class="edge">
<title>BasicUserProfileComponent&#45;&gt;UsersModule</title>
<path fill="none" stroke="black" d="M3970,-122.25C3970,-145.02 3970,-181 3970,-181 3970,-181 2132.86,-181 2132.86,-181"/>
<polygon fill="black" stroke="black" points="2132.86,-177.5 2122.86,-181 2132.86,-184.5 2132.86,-177.5"/>
</g>
<!-- PublicProfileComponent -->
<g id="node2" class="node">
<title>PublicProfileComponent</title>
<polygon fill="#ffffb3" stroke="black" points="3863.71,-122 3708.29,-122 3708.29,-86 3863.71,-86 3863.71,-122"/>
<text text-anchor="middle" x="3786" y="-99.8" font-family="Times,serif" font-size="14.00">PublicProfileComponent</text>
</g>
<!-- PublicProfileComponent&#45;&gt;UsersModule -->
<g id="edge2" class="edge">
<title>PublicProfileComponent&#45;&gt;UsersModule</title>
<path fill="none" stroke="black" d="M3786,-122.29C3786,-144.21 3786,-178 3786,-178 3786,-178 2132.71,-178 2132.71,-178"/>
<polygon fill="black" stroke="black" points="2132.71,-174.5 2122.71,-178 2132.71,-181.5 2132.71,-174.5"/>
</g>
<!-- UserBadgesComponent -->
<g id="node3" class="node">
<title>UserBadgesComponent</title>
<polygon fill="#ffffb3" stroke="black" points="3690.47,-122 3541.53,-122 3541.53,-86 3690.47,-86 3690.47,-122"/>
<text text-anchor="middle" x="3616" y="-99.8" font-family="Times,serif" font-size="14.00">UserBadgesComponent</text>
</g>
<!-- UserBadgesComponent&#45;&gt;UsersModule -->
<g id="edge3" class="edge">
<title>UserBadgesComponent&#45;&gt;UsersModule</title>
<path fill="none" stroke="black" d="M3616,-122.28C3616,-143.32 3616,-175 3616,-175 3616,-175 2133.06,-175 2133.06,-175"/>
<polygon fill="black" stroke="black" points="2133.06,-171.5 2123.06,-175 2133.06,-178.5 2133.06,-171.5"/>
</g>
<!-- UserBasicDetailsComponent -->
<g id="node4" class="node">
<title>UserBasicDetailsComponent</title>
<polygon fill="#ffffb3" stroke="black" points="3523.01,-122 3344.99,-122 3344.99,-86 3523.01,-86 3523.01,-122"/>
<text text-anchor="middle" x="3434" y="-99.8" font-family="Times,serif" font-size="14.00">UserBasicDetailsComponent</text>
</g>
<!-- UserBasicDetailsComponent&#45;&gt;UsersModule -->
<g id="edge4" class="edge">
<title>UserBasicDetailsComponent&#45;&gt;UsersModule</title>
<path fill="none" stroke="black" d="M3434,-122.22C3434,-142.37 3434,-172 3434,-172 3434,-172 2132.93,-172 2132.93,-172"/>
<polygon fill="black" stroke="black" points="2132.93,-168.5 2122.93,-172 2132.93,-175.5 2132.93,-168.5"/>
</g>
<!-- UserBasicSocialComponent -->
<g id="node5" class="node">
<title>UserBasicSocialComponent</title>
<polygon fill="#ffffb3" stroke="black" points="3326.85,-122 3153.15,-122 3153.15,-86 3326.85,-86 3326.85,-122"/>
<text text-anchor="middle" x="3240" y="-99.8" font-family="Times,serif" font-size="14.00">UserBasicSocialComponent</text>
</g>
<!-- UserBasicSocialComponent&#45;&gt;UsersModule -->
<g id="edge5" class="edge">
<title>UserBasicSocialComponent&#45;&gt;UsersModule</title>
<path fill="none" stroke="black" d="M3240,-122.11C3240,-141.34 3240,-169 3240,-169 3240,-169 2132.95,-169 2132.95,-169"/>
<polygon fill="black" stroke="black" points="2132.95,-165.5 2122.95,-169 2132.95,-172.5 2132.95,-165.5"/>
</g>
<!-- UserBuildCardComponent -->
<g id="node6" class="node">
<title>UserBuildCardComponent</title>
<polygon fill="#ffffb3" stroke="black" points="3135.09,-122 2968.91,-122 2968.91,-86 3135.09,-86 3135.09,-122"/>
<text text-anchor="middle" x="3052" y="-99.8" font-family="Times,serif" font-size="14.00">UserBuildCardComponent</text>
</g>
<!-- UserBuildCardComponent&#45;&gt;UsersModule -->
<g id="edge6" class="edge">
<title>UserBuildCardComponent&#45;&gt;UsersModule</title>
<path fill="none" stroke="black" d="M3052,-122.27C3052,-140.56 3052,-166 3052,-166 3052,-166 2132.72,-166 2132.72,-166"/>
<polygon fill="black" stroke="black" points="2132.72,-162.5 2122.72,-166 2132.72,-169.5 2132.72,-162.5"/>
</g>
<!-- UserCommunityCardComponent -->
<g id="node7" class="node">
<title>UserCommunityCardComponent</title>
<polygon fill="#ffffb3" stroke="black" points="2950.87,-122 2749.13,-122 2749.13,-86 2950.87,-86 2950.87,-122"/>
<text text-anchor="middle" x="2850" y="-99.8" font-family="Times,serif" font-size="14.00">UserCommunityCardComponent</text>
</g>
<!-- UserCommunityCardComponent&#45;&gt;UsersModule -->
<g id="edge7" class="edge">
<title>UserCommunityCardComponent&#45;&gt;UsersModule</title>
<path fill="none" stroke="black" d="M2850,-122.02C2850,-139.37 2850,-163 2850,-163 2850,-163 2132.75,-163 2132.75,-163"/>
<polygon fill="black" stroke="black" points="2132.75,-159.5 2122.75,-163 2132.75,-166.5 2132.75,-159.5"/>
</g>
<!-- UserContentComponent -->
<g id="node8" class="node">
<title>UserContentComponent</title>
<polygon fill="#ffffb3" stroke="black" points="2731.09,-122 2578.91,-122 2578.91,-86 2731.09,-86 2731.09,-122"/>
<text text-anchor="middle" x="2655" y="-99.8" font-family="Times,serif" font-size="14.00">UserContentComponent</text>
</g>
<!-- UserContentComponent&#45;&gt;UsersModule -->
<g id="edge8" class="edge">
<title>UserContentComponent&#45;&gt;UsersModule</title>
<path fill="none" stroke="black" d="M2655,-122.03C2655,-138.4 2655,-160 2655,-160 2655,-160 2132.84,-160 2132.84,-160"/>
<polygon fill="black" stroke="black" points="2132.84,-156.5 2122.84,-160 2132.84,-163.5 2132.84,-156.5"/>
</g>
<!-- UserContributionsComponent -->
<g id="node9" class="node">
<title>UserContributionsComponent</title>
<polygon fill="#ffffb3" stroke="black" points="2561.26,-122 2376.74,-122 2376.74,-86 2561.26,-86 2561.26,-122"/>
<text text-anchor="middle" x="2469" y="-99.8" font-family="Times,serif" font-size="14.00">UserContributionsComponent</text>
</g>
<!-- UserContributionsComponent&#45;&gt;UsersModule -->
<g id="edge9" class="edge">
<title>UserContributionsComponent&#45;&gt;UsersModule</title>
<path fill="none" stroke="black" d="M2469,-122.24C2469,-137.57 2469,-157 2469,-157 2469,-157 2132.73,-157 2132.73,-157"/>
<polygon fill="black" stroke="black" points="2132.73,-153.5 2122.73,-157 2132.73,-160.5 2132.73,-153.5"/>
</g>
<!-- UserCoverPhotoComponent -->
<g id="node10" class="node">
<title>UserCoverPhotoComponent</title>
<polygon fill="#ffffb3" stroke="black" points="2358.14,-122 2183.86,-122 2183.86,-86 2358.14,-86 2358.14,-122"/>
<text text-anchor="middle" x="2271" y="-99.8" font-family="Times,serif" font-size="14.00">UserCoverPhotoComponent</text>
</g>
<!-- UserCoverPhotoComponent&#45;&gt;UsersModule -->
<g id="edge10" class="edge">
<title>UserCoverPhotoComponent&#45;&gt;UsersModule</title>
<path fill="none" stroke="black" d="M2221.45,-122.05C2221.45,-136.37 2221.45,-154 2221.45,-154 2221.45,-154 2133.1,-154 2133.1,-154"/>
<polygon fill="black" stroke="black" points="2133.1,-150.5 2123.1,-154 2133.1,-157.5 2133.1,-150.5"/>
</g>
<!-- UserExtraDetailsComponent -->
<g id="node11" class="node">
<title>UserExtraDetailsComponent</title>
<polygon fill="#ffffb3" stroke="black" points="2165.73,-122 1988.27,-122 1988.27,-86 2165.73,-86 2165.73,-122"/>
<text text-anchor="middle" x="2077" y="-99.8" font-family="Times,serif" font-size="14.00">UserExtraDetailsComponent</text>
</g>
<!-- UserExtraDetailsComponent&#45;&gt;UsersModule -->
<g id="edge11" class="edge">
<title>UserExtraDetailsComponent&#45;&gt;UsersModule</title>
<path fill="none" stroke="black" d="M2077,-122.11C2077,-122.11 2077,-140.99 2077,-140.99"/>
<polygon fill="black" stroke="black" points="2073.5,-140.99 2077,-150.99 2080.5,-140.99 2073.5,-140.99"/>
</g>
<!-- UserFeedComponent -->
<g id="node12" class="node">
<title>UserFeedComponent</title>
<polygon fill="#ffffb3" stroke="black" points="1970.47,-122 1835.53,-122 1835.53,-86 1970.47,-86 1970.47,-122"/>
<text text-anchor="middle" x="1903" y="-99.8" font-family="Times,serif" font-size="14.00">UserFeedComponent</text>
</g>
<!-- UserFeedComponent&#45;&gt;UsersModule -->
<g id="edge12" class="edge">
<title>UserFeedComponent&#45;&gt;UsersModule</title>
<path fill="none" stroke="black" d="M1940.01,-122.05C1940.01,-136.37 1940.01,-154 1940.01,-154 1940.01,-154 2021,-154 2021,-154"/>
<polygon fill="black" stroke="black" points="2021,-157.5 2031,-154 2021,-150.5 2021,-157.5"/>
</g>
<!-- UserFeedInputComponent -->
<g id="node13" class="node">
<title>UserFeedInputComponent</title>
<polygon fill="#ffffb3" stroke="black" points="1817.02,-122 1652.98,-122 1652.98,-86 1817.02,-86 1817.02,-122"/>
<text text-anchor="middle" x="1735" y="-99.8" font-family="Times,serif" font-size="14.00">UserFeedInputComponent</text>
</g>
<!-- UserFeedInputComponent&#45;&gt;UsersModule -->
<g id="edge13" class="edge">
<title>UserFeedInputComponent&#45;&gt;UsersModule</title>
<path fill="none" stroke="black" d="M1735,-122.24C1735,-137.57 1735,-157 1735,-157 1735,-157 2021.23,-157 2021.23,-157"/>
<polygon fill="black" stroke="black" points="2021.23,-160.5 2031.23,-157 2021.23,-153.5 2021.23,-160.5"/>
</g>
<!-- UserFeedPostComponent -->
<g id="node14" class="node">
<title>UserFeedPostComponent</title>
<polygon fill="#ffffb3" stroke="black" points="1634.59,-122 1475.41,-122 1475.41,-86 1634.59,-86 1634.59,-122"/>
<text text-anchor="middle" x="1555" y="-99.8" font-family="Times,serif" font-size="14.00">UserFeedPostComponent</text>
</g>
<!-- UserFeedPostComponent&#45;&gt;UsersModule -->
<g id="edge14" class="edge">
<title>UserFeedPostComponent&#45;&gt;UsersModule</title>
<path fill="none" stroke="black" d="M1555,-122.03C1555,-138.4 1555,-160 1555,-160 1555,-160 2021.13,-160 2021.13,-160"/>
<polygon fill="black" stroke="black" points="2021.13,-163.5 2031.13,-160 2021.13,-156.5 2021.13,-163.5"/>
</g>
<!-- UserFeedPostsComponent -->
<g id="node15" class="node">
<title>UserFeedPostsComponent</title>
<polygon fill="#ffffb3" stroke="black" points="1457.03,-122 1292.97,-122 1292.97,-86 1457.03,-86 1457.03,-122"/>
<text text-anchor="middle" x="1375" y="-99.8" font-family="Times,serif" font-size="14.00">UserFeedPostsComponent</text>
</g>
<!-- UserFeedPostsComponent&#45;&gt;UsersModule -->
<g id="edge15" class="edge">
<title>UserFeedPostsComponent&#45;&gt;UsersModule</title>
<path fill="none" stroke="black" d="M1375,-122.02C1375,-139.37 1375,-163 1375,-163 1375,-163 2021.21,-163 2021.21,-163"/>
<polygon fill="black" stroke="black" points="2021.21,-166.5 2031.21,-163 2021.21,-159.5 2021.21,-166.5"/>
</g>
<!-- UserFollowComponent -->
<g id="node16" class="node">
<title>UserFollowComponent</title>
<polygon fill="#ffffb3" stroke="black" points="1274.93,-122 1127.07,-122 1127.07,-86 1274.93,-86 1274.93,-122"/>
<text text-anchor="middle" x="1201" y="-99.8" font-family="Times,serif" font-size="14.00">UserFollowComponent</text>
</g>
<!-- UserFollowComponent&#45;&gt;UsersModule -->
<g id="edge16" class="edge">
<title>UserFollowComponent&#45;&gt;UsersModule</title>
<path fill="none" stroke="black" d="M1201,-122.27C1201,-140.56 1201,-166 1201,-166 1201,-166 2021.14,-166 2021.14,-166"/>
<polygon fill="black" stroke="black" points="2021.14,-169.5 2031.14,-166 2021.14,-162.5 2021.14,-169.5"/>
</g>
<!-- UserLabCardComponent -->
<g id="node17" class="node">
<title>UserLabCardComponent</title>
<polygon fill="#ffffb3" stroke="black" points="1109.24,-122 952.76,-122 952.76,-86 1109.24,-86 1109.24,-122"/>
<text text-anchor="middle" x="1031" y="-99.8" font-family="Times,serif" font-size="14.00">UserLabCardComponent</text>
</g>
<!-- UserLabCardComponent&#45;&gt;UsersModule -->
<g id="edge17" class="edge">
<title>UserLabCardComponent&#45;&gt;UsersModule</title>
<path fill="none" stroke="black" d="M1031,-122.11C1031,-141.34 1031,-169 1031,-169 1031,-169 2021.04,-169 2021.04,-169"/>
<polygon fill="black" stroke="black" points="2021.04,-172.5 2031.04,-169 2021.04,-165.5 2021.04,-172.5"/>
</g>
<!-- UserNetworkComponent -->
<g id="node18" class="node">
<title>UserNetworkComponent</title>
<polygon fill="#ffffb3" stroke="black" points="934.24,-122 777.76,-122 777.76,-86 934.24,-86 934.24,-122"/>
<text text-anchor="middle" x="856" y="-99.8" font-family="Times,serif" font-size="14.00">UserNetworkComponent</text>
</g>
<!-- UserNetworkComponent&#45;&gt;UsersModule -->
<g id="edge18" class="edge">
<title>UserNetworkComponent&#45;&gt;UsersModule</title>
<path fill="none" stroke="black" d="M856,-122.22C856,-142.37 856,-172 856,-172 856,-172 2021,-172 2021,-172"/>
<polygon fill="black" stroke="black" points="2021,-175.5 2031,-172 2021,-168.5 2021,-175.5"/>
</g>
<!-- UserNetworkListComponent -->
<g id="node19" class="node">
<title>UserNetworkListComponent</title>
<polygon fill="#ffffb3" stroke="black" points="759.02,-122 580.98,-122 580.98,-86 759.02,-86 759.02,-122"/>
<text text-anchor="middle" x="670" y="-99.8" font-family="Times,serif" font-size="14.00">UserNetworkListComponent</text>
</g>
<!-- UserNetworkListComponent&#45;&gt;UsersModule -->
<g id="edge19" class="edge">
<title>UserNetworkListComponent&#45;&gt;UsersModule</title>
<path fill="none" stroke="black" d="M670,-122.28C670,-143.32 670,-175 670,-175 670,-175 2020.99,-175 2020.99,-175"/>
<polygon fill="black" stroke="black" points="2020.99,-178.5 2030.99,-175 2020.99,-171.5 2020.99,-178.5"/>
</g>
<!-- UserPastEventCardComponent -->
<g id="node20" class="node">
<title>UserPastEventCardComponent</title>
<polygon fill="#ffffb3" stroke="black" points="562.46,-122 371.54,-122 371.54,-86 562.46,-86 562.46,-122"/>
<text text-anchor="middle" x="467" y="-99.8" font-family="Times,serif" font-size="14.00">UserPastEventCardComponent</text>
</g>
<!-- UserPastEventCardComponent&#45;&gt;UsersModule -->
<g id="edge20" class="edge">
<title>UserPastEventCardComponent&#45;&gt;UsersModule</title>
<path fill="none" stroke="black" d="M467,-122.29C467,-144.21 467,-178 467,-178 467,-178 2020.98,-178 2020.98,-178"/>
<polygon fill="black" stroke="black" points="2020.98,-181.5 2030.98,-178 2020.98,-174.5 2020.98,-181.5"/>
</g>
<!-- UserSocialCardComponent -->
<g id="node21" class="node">
<title>UserSocialCardComponent</title>
<polygon fill="#ffffb3" stroke="black" points="353.96,-122 184.04,-122 184.04,-86 353.96,-86 353.96,-122"/>
<text text-anchor="middle" x="269" y="-99.8" font-family="Times,serif" font-size="14.00">UserSocialCardComponent</text>
</g>
<!-- UserSocialCardComponent&#45;&gt;UsersModule -->
<g id="edge21" class="edge">
<title>UserSocialCardComponent&#45;&gt;UsersModule</title>
<path fill="none" stroke="black" d="M269,-122.25C269,-145.02 269,-181 269,-181 269,-181 2020.95,-181 2020.95,-181"/>
<polygon fill="black" stroke="black" points="2020.95,-184.5 2030.95,-181 2020.95,-177.5 2020.95,-184.5"/>
</g>
<!-- UserSocialComponent -->
<g id="node22" class="node">
<title>UserSocialComponent</title>
<polygon fill="#ffffb3" stroke="black" points="166.25,-122 23.75,-122 23.75,-86 166.25,-86 166.25,-122"/>
<text text-anchor="middle" x="95" y="-99.8" font-family="Times,serif" font-size="14.00">UserSocialComponent</text>
</g>
<!-- UserSocialComponent&#45;&gt;UsersModule -->
<g id="edge22" class="edge">
<title>UserSocialComponent&#45;&gt;UsersModule</title>
<path fill="none" stroke="black" d="M95,-122.15C95,-145.76 95,-184 95,-184 95,-184 2020.92,-184 2020.92,-184"/>
<polygon fill="black" stroke="black" points="2020.92,-187.5 2030.92,-184 2020.92,-180.5 2020.92,-187.5"/>
</g>
<!-- BasicUserProfileComponent  -->
<g id="node25" class="node">
<title>BasicUserProfileComponent </title>
<polygon fill="#fb8072" stroke="black" points="2259.46,-252 2078.54,-252 2078.54,-216 2259.46,-216 2259.46,-252"/>
<text text-anchor="middle" x="2169" y="-229.8" font-family="Times,serif" font-size="14.00">BasicUserProfileComponent </text>
</g>
<!-- UsersModule&#45;&gt;BasicUserProfileComponent  -->
<g id="edge24" class="edge">
<title>UsersModule&#45;&gt;BasicUserProfileComponent </title>
<path fill="none" stroke="black" stroke-dasharray="5,2" d="M2100.74,-187.11C2100.74,-187.11 2100.74,-205.99 2100.74,-205.99"/>
<polygon fill="black" stroke="black" points="2097.24,-205.99 2100.74,-215.99 2104.24,-205.99 2097.24,-205.99"/>
</g>
<!-- UserFollowComponent  -->
<g id="node26" class="node">
<title>UserFollowComponent </title>
<polygon fill="#fb8072" stroke="black" points="2060.43,-252 1909.57,-252 1909.57,-216 2060.43,-216 2060.43,-252"/>
<text text-anchor="middle" x="1985" y="-229.8" font-family="Times,serif" font-size="14.00">UserFollowComponent </text>
</g>
<!-- UsersModule&#45;&gt;UserFollowComponent  -->
<g id="edge25" class="edge">
<title>UsersModule&#45;&gt;UserFollowComponent </title>
<path fill="none" stroke="black" stroke-dasharray="5,2" d="M2045.88,-187.11C2045.88,-187.11 2045.88,-205.99 2045.88,-205.99"/>
<polygon fill="black" stroke="black" points="2042.38,-205.99 2045.88,-215.99 2049.38,-205.99 2042.38,-205.99"/>
</g>
<!-- UsersRoutingModule -->
<g id="node24" class="node">
<title>UsersRoutingModule</title>
<polygon fill="#8dd3c7" stroke="black" points="4218.04,-122 4215.04,-126 4194.04,-126 4191.04,-122 4081.96,-122 4081.96,-86 4218.04,-86 4218.04,-122"/>
<text text-anchor="middle" x="4150" y="-99.8" font-family="Times,serif" font-size="14.00">UsersRoutingModule</text>
</g>
<!-- UsersRoutingModule&#45;&gt;UsersModule -->
<g id="edge23" class="edge">
<title>UsersRoutingModule&#45;&gt;UsersModule</title>
<path fill="none" stroke="black" d="M4150,-122.15C4150,-145.76 4150,-184 4150,-184 4150,-184 2132.71,-184 2132.71,-184"/>
<polygon fill="black" stroke="black" points="2132.71,-180.5 2122.71,-184 2132.71,-187.5 2132.71,-180.5"/>
</g>
</g>
</svg>
