<?xml version="1.0" encoding="UTF-8" standalone="no"?>
<!DOCTYPE svg PUBLIC "-//W3C//DTD SVG 1.1//EN"
 "http://www.w3.org/Graphics/SVG/1.1/DTD/svg11.dtd">
<!-- Generated by graphviz version 5.0.0 (20220707.1540)
 -->
<!-- Title: dependencies Pages: 1 -->
<svg width="685pt" height="174pt"
 viewBox="0.00 0.00 685.00 173.80" xmlns="http://www.w3.org/2000/svg" xmlns:xlink="http://www.w3.org/1999/xlink">
<g id="graph0" class="graph" transform="scale(1 1) rotate(0) translate(4 169.8)">
<title>dependencies</title>
<polygon fill="white" stroke="transparent" points="-4,4 -4,-169.8 681,-169.8 681,4 -4,4"/>
<text text-anchor="middle" x="338.5" y="-8.2" font-family="sans-serif" font-size="14.00">dependencies</text>
<g id="clust1" class="cluster">
<title>cluster_PublicBlogsModule</title>
<polygon fill="none" stroke="black" stroke-dasharray="1,5" points="8,-32.8 8,-157.8 669,-157.8 669,-32.8 8,-32.8"/>
</g>
<g id="clust2" class="cluster">
<title>cluster_PublicBlogsModule_declarations</title>
<polygon fill="none" stroke="black" points="383,-40.8 383,-92.8 661,-92.8 661,-40.8 383,-40.8"/>
</g>
<g id="clust5" class="cluster">
<title>cluster_PublicBlogsModule_imports</title>
<polygon fill="none" stroke="black" points="16,-40.8 16,-92.8 375,-92.8 375,-40.8 16,-40.8"/>
</g>
<!-- BlogComponent -->
<g id="node1" class="node">
<title>BlogComponent</title>
<polygon fill="#ffffb3" stroke="black" points="653.06,-84.8 544.94,-84.8 544.94,-48.8 653.06,-48.8 653.06,-84.8"/>
<text text-anchor="middle" x="599" y="-62.6" font-family="Times,serif" font-size="14.00">BlogComponent</text>
</g>
<!-- PublicBlogsModule -->
<g id="node3" class="node">
<title>PublicBlogsModule</title>
<polygon fill="#8dd3c7" stroke="black" points="439.01,-149.8 436.01,-153.8 415.01,-153.8 412.01,-149.8 310.99,-149.8 310.99,-113.8 439.01,-113.8 439.01,-149.8"/>
<text text-anchor="middle" x="375" y="-127.6" font-family="Times,serif" font-size="14.00">PublicBlogsModule</text>
</g>
<!-- BlogComponent&#45;&gt;PublicBlogsModule -->
<g id="edge1" class="edge">
<title>BlogComponent&#45;&gt;PublicBlogsModule</title>
<path fill="none" stroke="black" d="M599,-84.91C599,-104.14 599,-131.8 599,-131.8 599,-131.8 449.19,-131.8 449.19,-131.8"/>
<polygon fill="black" stroke="black" points="449.19,-128.3 439.19,-131.8 449.19,-135.3 449.19,-128.3"/>
</g>
<!-- BlogsListComponent -->
<g id="node2" class="node">
<title>BlogsListComponent</title>
<polygon fill="#ffffb3" stroke="black" points="526.79,-84.8 391.21,-84.8 391.21,-48.8 526.79,-48.8 526.79,-84.8"/>
<text text-anchor="middle" x="459" y="-62.6" font-family="Times,serif" font-size="14.00">BlogsListComponent</text>
</g>
<!-- BlogsListComponent&#45;&gt;PublicBlogsModule -->
<g id="edge2" class="edge">
<title>BlogsListComponent&#45;&gt;PublicBlogsModule</title>
<path fill="none" stroke="black" d="M415.06,-84.91C415.06,-84.91 415.06,-103.79 415.06,-103.79"/>
<polygon fill="black" stroke="black" points="411.56,-103.79 415.06,-113.79 418.56,-103.79 411.56,-103.79"/>
</g>
<!-- MiniUserProfileModule -->
<g id="node4" class="node">
<title>MiniUserProfileModule</title>
<polygon fill="#8dd3c7" stroke="black" points="366.82,-84.8 363.82,-88.8 342.82,-88.8 339.82,-84.8 215.18,-84.8 215.18,-48.8 366.82,-48.8 366.82,-84.8"/>
<text text-anchor="middle" x="291" y="-62.6" font-family="Times,serif" font-size="14.00">MiniUserProfileModule</text>
</g>
<!-- MiniUserProfileModule&#45;&gt;PublicBlogsModule -->
<g id="edge3" class="edge">
<title>MiniUserProfileModule&#45;&gt;PublicBlogsModule</title>
<path fill="none" stroke="black" d="M338.83,-84.91C338.83,-84.91 338.83,-103.79 338.83,-103.79"/>
<polygon fill="black" stroke="black" points="335.33,-103.79 338.83,-113.79 342.33,-103.79 335.33,-103.79"/>
</g>
<!-- PublicBlogsRoutingModule -->
<g id="node5" class="node">
<title>PublicBlogsRoutingModule</title>
<polygon fill="#8dd3c7" stroke="black" points="197.62,-84.8 194.62,-88.8 173.62,-88.8 170.62,-84.8 24.38,-84.8 24.38,-48.8 197.62,-48.8 197.62,-84.8"/>
<text text-anchor="middle" x="111" y="-62.6" font-family="Times,serif" font-size="14.00">PublicBlogsRoutingModule</text>
</g>
<!-- PublicBlogsRoutingModule&#45;&gt;PublicBlogsModule -->
<g id="edge4" class="edge">
<title>PublicBlogsRoutingModule&#45;&gt;PublicBlogsModule</title>
<path fill="none" stroke="black" d="M111,-84.91C111,-104.14 111,-131.8 111,-131.8 111,-131.8 300.76,-131.8 300.76,-131.8"/>
<polygon fill="black" stroke="black" points="300.76,-135.3 310.76,-131.8 300.76,-128.3 300.76,-135.3"/>
</g>
</g>
</svg>
