<?xml version="1.0" encoding="UTF-8" standalone="no"?>
<!DOCTYPE svg PUBLIC "-//W3C//DTD SVG 1.1//EN"
 "http://www.w3.org/Graphics/SVG/1.1/DTD/svg11.dtd">
<!-- Generated by graphviz version 2.47.0 (20210316.0004)
 -->
<!-- Title: dependencies Pages: 1 -->
<svg width="1294pt" height="211pt"
     viewBox="0.00 0.00 1294.00 211.00" xmlns="http://www.w3.org/2000/svg">
<g id="graph0" class="graph" transform="scale(1 1) rotate(0) translate(4 207)">
<title>dependencies</title>
<polygon fill="white" stroke="transparent" points="-4,4 -4,-207 1290,-207 1290,4 -4,4"/>
<text text-anchor="start" x="622.01" y="-42.4" font-family="sans-serif" font-weight="bold" font-size="14.00">Legend</text>
<polygon fill="#ffffb3" stroke="transparent" points="409,-10 409,-30 429,-30 429,-10 409,-10"/>
<text text-anchor="start" x="432.63" y="-15.4" font-family="sans-serif" font-size="14.00"> &#160;Declarations</text>
<polygon fill="#8dd3c7" stroke="transparent" points="522,-10 522,-30 542,-30 542,-10 522,-10"/>
<text text-anchor="start" x="545.73" y="-15.4" font-family="sans-serif" font-size="14.00"> &#160;Module</text>
<polygon fill="#80b1d3" stroke="transparent" points="608,-10 608,-30 628,-30 628,-10 608,-10"/>
<text text-anchor="start" x="631.78" y="-15.4" font-family="sans-serif" font-size="14.00"> &#160;Bootstrap</text>
<polygon fill="#fdb462" stroke="transparent" points="705,-10 705,-30 725,-30 725,-10 705,-10"/>
<text text-anchor="start" x="728.67" y="-15.4" font-family="sans-serif" font-size="14.00"> &#160;Providers</text>
<polygon fill="#fb8072" stroke="transparent" points="801,-10 801,-30 821,-30 821,-10 801,-10"/>
<text text-anchor="start" x="824.73" y="-15.4" font-family="sans-serif" font-size="14.00"> &#160;Exports</text>
<g id="clust1" class="cluster">
<title>cluster_PublicCommunityGroupsModule</title>
<polygon fill="none" stroke="black" stroke-dasharray="1,5" points="8,-70 8,-195 1278,-195 1278,-70 8,-70"/>
</g>
<g id="clust2" class="cluster">
<title>cluster_PublicCommunityGroupsModule_declarations</title>
<polygon fill="none" stroke="black" points="288,-78 288,-130 1270,-130 1270,-78 288,-78"/>
</g>
<g id="clust7" class="cluster">
<title>cluster_PublicCommunityGroupsModule_imports</title>
<polygon fill="none" stroke="black" points="16,-78 16,-130 280,-130 280,-78 16,-78"/>
</g>
<!-- CommunityGroupAboutComponent -->
<g id="node1" class="node">
<title>CommunityGroupAboutComponent</title>
<polygon fill="#ffffb3" stroke="black" points="1262.5,-122 1043.5,-122 1043.5,-86 1262.5,-86 1262.5,-122"/>
<text text-anchor="middle" x="1153" y="-99.8" font-family="Times,serif" font-size="14.00">CommunityGroupAboutComponent</text>
</g>
<!-- PublicCommunityGroupsModule -->
<g id="node5" class="node">
<title>PublicCommunityGroupsModule</title>
<polygon fill="#8dd3c7" stroke="black" points="740.94,-187 737.94,-191 716.94,-191 713.94,-187 537.06,-187 537.06,-151 740.94,-151 740.94,-187"/>
<text text-anchor="middle" x="639" y="-164.8" font-family="Times,serif" font-size="14.00">PublicCommunityGroupsModule</text>
</g>
<!-- CommunityGroupAboutComponent&#45;&gt;PublicCommunityGroupsModule -->
<g id="edge1" class="edge">
<title>CommunityGroupAboutComponent&#45;&gt;PublicCommunityGroupsModule</title>
<path fill="none" stroke="black" d="M1153,-122.28C1153,-143.32 1153,-175 1153,-175 1153,-175 750.86,-175 750.86,-175"/>
<polygon fill="black" stroke="black" points="750.86,-171.5 740.86,-175 750.86,-178.5 750.86,-171.5"/>
</g>
<!-- CommunityGroupCommunitiesComponent -->
<g id="node2" class="node">
<title>CommunityGroupCommunitiesComponent</title>
<polygon fill="#ffffb3" stroke="black" points="1025.95,-122 766.05,-122 766.05,-86 1025.95,-86 1025.95,-122"/>
<text text-anchor="middle" x="896" y="-99.8" font-family="Times,serif" font-size="14.00">CommunityGroupCommunitiesComponent</text>
</g>
<!-- CommunityGroupCommunitiesComponent&#45;&gt;PublicCommunityGroupsModule -->
<g id="edge2" class="edge">
<title>CommunityGroupCommunitiesComponent&#45;&gt;PublicCommunityGroupsModule</title>
<path fill="none" stroke="black" d="M896,-122.02C896,-139.37 896,-163 896,-163 896,-163 750.94,-163 750.94,-163"/>
<polygon fill="black" stroke="black" points="750.94,-159.5 740.94,-163 750.94,-166.5 750.94,-159.5"/>
</g>
<!-- CommunityGroupHomeComponent -->
<g id="node3" class="node">
<title>CommunityGroupHomeComponent</title>
<polygon fill="#ffffb3" stroke="black" points="748.21,-122 529.79,-122 529.79,-86 748.21,-86 748.21,-122"/>
<text text-anchor="middle" x="639" y="-99.8" font-family="Times,serif" font-size="14.00">CommunityGroupHomeComponent</text>
</g>
<!-- CommunityGroupHomeComponent&#45;&gt;PublicCommunityGroupsModule -->
<g id="edge3" class="edge">
<title>CommunityGroupHomeComponent&#45;&gt;PublicCommunityGroupsModule</title>
<path fill="none" stroke="black" d="M639,-122.11C639,-122.11 639,-140.99 639,-140.99"/>
<polygon fill="black" stroke="black" points="635.5,-140.99 639,-150.99 642.5,-140.99 635.5,-140.99"/>
</g>
<!-- CommunityGroupTeamComponent -->
<g id="node4" class="node">
<title>CommunityGroupTeamComponent</title>
<polygon fill="#ffffb3" stroke="black" points="511.87,-122 296.13,-122 296.13,-86 511.87,-86 511.87,-122"/>
<text text-anchor="middle" x="404" y="-99.8" font-family="Times,serif" font-size="14.00">CommunityGroupTeamComponent</text>
</g>
<!-- CommunityGroupTeamComponent&#45;&gt;PublicCommunityGroupsModule -->
<g id="edge4" class="edge">
<title>CommunityGroupTeamComponent&#45;&gt;PublicCommunityGroupsModule</title>
<path fill="none" stroke="black" d="M404,-122.02C404,-139.37 404,-163 404,-163 404,-163 526.95,-163 526.95,-163"/>
<polygon fill="black" stroke="black" points="526.95,-166.5 536.95,-163 526.95,-159.5 526.95,-166.5"/>
</g>
<!-- PublicCommunityGroupsRoutingModule -->
<g id="node6" class="node">
<title>PublicCommunityGroupsRoutingModule</title>
<polygon fill="#8dd3c7" stroke="black" points="272.06,-122 269.06,-126 248.06,-126 245.06,-122 23.94,-122 23.94,-86 272.06,-86 272.06,-122"/>
<text text-anchor="middle" x="148" y="-99.8" font-family="Times,serif" font-size="14.00">PublicCommunityGroupsRoutingModule</text>
</g>
<!-- PublicCommunityGroupsRoutingModule&#45;&gt;PublicCommunityGroupsModule -->
<g id="edge5" class="edge">
<title>PublicCommunityGroupsRoutingModule&#45;&gt;PublicCommunityGroupsModule</title>
<path fill="none" stroke="black" d="M148,-122.28C148,-143.32 148,-175 148,-175 148,-175 527.26,-175 527.26,-175"/>
<polygon fill="black" stroke="black" points="527.26,-178.5 537.26,-175 527.26,-171.5 527.26,-178.5"/>
</g>
</g>
</svg>
