<?xml version="1.0" encoding="UTF-8" standalone="no"?>
<!DOCTYPE svg PUBLIC "-//W3C//DTD SVG 1.1//EN"
 "http://www.w3.org/Graphics/SVG/1.1/DTD/svg11.dtd">
<!-- Generated by graphviz version 5.0.0 (20220707.1540)
 -->
<!-- Title: dependencies Pages: 1 -->
<svg width="1469pt" height="174pt"
 viewBox="0.00 0.00 1469.00 173.80" xmlns="http://www.w3.org/2000/svg" xmlns:xlink="http://www.w3.org/1999/xlink">
<g id="graph0" class="graph" transform="scale(1 1) rotate(0) translate(4 169.8)">
<title>dependencies</title>
<polygon fill="white" stroke="transparent" points="-4,4 -4,-169.8 1465,-169.8 1465,4 -4,4"/>
<text text-anchor="middle" x="730.5" y="-8.2" font-family="sans-serif" font-size="14.00">dependencies</text>
<g id="clust1" class="cluster">
<title>cluster_PublicCommunityGroupsModule</title>
<polygon fill="none" stroke="black" stroke-dasharray="1,5" points="8,-32.8 8,-157.8 1453,-157.8 1453,-32.8 8,-32.8"/>
</g>
<g id="clust7" class="cluster">
<title>cluster_PublicCommunityGroupsModule_imports</title>
<polygon fill="none" stroke="black" points="1007,-40.8 1007,-92.8 1445,-92.8 1445,-40.8 1007,-40.8"/>
</g>
<g id="clust2" class="cluster">
<title>cluster_PublicCommunityGroupsModule_declarations</title>
<polygon fill="none" stroke="black" points="16,-40.8 16,-92.8 999,-92.8 999,-40.8 16,-40.8"/>
</g>
<!-- CommunityGroupAboutComponent -->
<g id="node1" class="node">
<title>CommunityGroupAboutComponent</title>
<polygon fill="#ffffb3" stroke="black" points="990.5,-84.8 771.5,-84.8 771.5,-48.8 990.5,-48.8 990.5,-84.8"/>
<text text-anchor="middle" x="881" y="-62.6" font-family="Times,serif" font-size="14.00">CommunityGroupAboutComponent</text>
</g>
<!-- PublicCommunityGroupsModule -->
<g id="node5" class="node">
<title>PublicCommunityGroupsModule</title>
<polygon fill="#8dd3c7" stroke="black" points="853.95,-149.8 850.95,-153.8 829.95,-153.8 826.95,-149.8 650.05,-149.8 650.05,-113.8 853.95,-113.8 853.95,-149.8"/>
<text text-anchor="middle" x="752" y="-127.6" font-family="Times,serif" font-size="14.00">PublicCommunityGroupsModule</text>
</g>
<!-- CommunityGroupAboutComponent&#45;&gt;PublicCommunityGroupsModule -->
<g id="edge1" class="edge">
<title>CommunityGroupAboutComponent&#45;&gt;PublicCommunityGroupsModule</title>
<path fill="none" stroke="black" d="M812.61,-84.91C812.61,-84.91 812.61,-103.79 812.61,-103.79"/>
<polygon fill="black" stroke="black" points="809.11,-103.79 812.61,-113.79 816.11,-103.79 809.11,-103.79"/>
</g>
<!-- CommunityGroupCommunitiesComponent -->
<g id="node2" class="node">
<title>CommunityGroupCommunitiesComponent</title>
<polygon fill="#ffffb3" stroke="black" points="753.95,-84.8 494.05,-84.8 494.05,-48.8 753.95,-48.8 753.95,-84.8"/>
<text text-anchor="middle" x="624" y="-62.6" font-family="Times,serif" font-size="14.00">CommunityGroupCommunitiesComponent</text>
</g>
<!-- CommunityGroupCommunitiesComponent&#45;&gt;PublicCommunityGroupsModule -->
<g id="edge2" class="edge">
<title>CommunityGroupCommunitiesComponent&#45;&gt;PublicCommunityGroupsModule</title>
<path fill="none" stroke="black" d="M702,-84.91C702,-84.91 702,-103.79 702,-103.79"/>
<polygon fill="black" stroke="black" points="698.5,-103.79 702,-113.79 705.5,-103.79 698.5,-103.79"/>
</g>
<!-- CommunityGroupHomeComponent -->
<g id="node3" class="node">
<title>CommunityGroupHomeComponent</title>
<polygon fill="#ffffb3" stroke="black" points="476.21,-84.8 257.79,-84.8 257.79,-48.8 476.21,-48.8 476.21,-84.8"/>
<text text-anchor="middle" x="367" y="-62.6" font-family="Times,serif" font-size="14.00">CommunityGroupHomeComponent</text>
</g>
<!-- CommunityGroupHomeComponent&#45;&gt;PublicCommunityGroupsModule -->
<g id="edge3" class="edge">
<title>CommunityGroupHomeComponent&#45;&gt;PublicCommunityGroupsModule</title>
<path fill="none" stroke="black" d="M367,-84.82C367,-102.17 367,-125.8 367,-125.8 367,-125.8 640.09,-125.8 640.09,-125.8"/>
<polygon fill="black" stroke="black" points="640.09,-129.3 650.09,-125.8 640.09,-122.3 640.09,-129.3"/>
</g>
<!-- CommunityGroupTeamComponent -->
<g id="node4" class="node">
<title>CommunityGroupTeamComponent</title>
<polygon fill="#ffffb3" stroke="black" points="239.87,-84.8 24.13,-84.8 24.13,-48.8 239.87,-48.8 239.87,-84.8"/>
<text text-anchor="middle" x="132" y="-62.6" font-family="Times,serif" font-size="14.00">CommunityGroupTeamComponent</text>
</g>
<!-- CommunityGroupTeamComponent&#45;&gt;PublicCommunityGroupsModule -->
<g id="edge4" class="edge">
<title>CommunityGroupTeamComponent&#45;&gt;PublicCommunityGroupsModule</title>
<path fill="none" stroke="black" d="M132,-85.08C132,-106.12 132,-137.8 132,-137.8 132,-137.8 639.97,-137.8 639.97,-137.8"/>
<polygon fill="black" stroke="black" points="639.97,-141.3 649.97,-137.8 639.97,-134.3 639.97,-141.3"/>
</g>
<!-- PublicCommunityGroupsRoutingModule -->
<g id="node6" class="node">
<title>PublicCommunityGroupsRoutingModule</title>
<polygon fill="#8dd3c7" stroke="black" points="1437.07,-84.8 1434.07,-88.8 1413.07,-88.8 1410.07,-84.8 1188.93,-84.8 1188.93,-48.8 1437.07,-48.8 1437.07,-84.8"/>
<text text-anchor="middle" x="1313" y="-62.6" font-family="Times,serif" font-size="14.00">PublicCommunityGroupsRoutingModule</text>
</g>
<!-- PublicCommunityGroupsRoutingModule&#45;&gt;PublicCommunityGroupsModule -->
<g id="edge5" class="edge">
<title>PublicCommunityGroupsRoutingModule&#45;&gt;PublicCommunityGroupsModule</title>
<path fill="none" stroke="black" d="M1313,-85.08C1313,-106.12 1313,-137.8 1313,-137.8 1313,-137.8 863.92,-137.8 863.92,-137.8"/>
<polygon fill="black" stroke="black" points="863.92,-134.3 853.92,-137.8 863.92,-141.3 863.92,-134.3"/>
</g>
<!-- SharedDirectivesModule -->
<g id="node7" class="node">
<title>SharedDirectivesModule</title>
<polygon fill="#8dd3c7" stroke="black" points="1170.96,-84.8 1167.96,-88.8 1146.96,-88.8 1143.96,-84.8 1015.04,-84.8 1015.04,-48.8 1170.96,-48.8 1170.96,-84.8"/>
<text text-anchor="middle" x="1093" y="-62.6" font-family="Times,serif" font-size="14.00">SharedDirectivesModule</text>
</g>
<!-- SharedDirectivesModule&#45;&gt;PublicCommunityGroupsModule -->
<g id="edge6" class="edge">
<title>SharedDirectivesModule&#45;&gt;PublicCommunityGroupsModule</title>
<path fill="none" stroke="black" d="M1093,-84.82C1093,-102.17 1093,-125.8 1093,-125.8 1093,-125.8 863.85,-125.8 863.85,-125.8"/>
<polygon fill="black" stroke="black" points="863.85,-122.3 853.85,-125.8 863.85,-129.3 863.85,-122.3"/>
</g>
</g>
</svg>
