<?xml version="1.0" encoding="UTF-8" standalone="no"?>
<!DOCTYPE svg PUBLIC "-//W3C//DTD SVG 1.1//EN"
 "http://www.w3.org/Graphics/SVG/1.1/DTD/svg11.dtd">
<!-- Generated by graphviz version 2.47.3 (20210619.1520)
 -->
<!-- Title: dependencies Pages: 1 -->
<svg width="1468pt" height="174pt"
 viewBox="0.00 0.00 1468.00 173.80" xmlns="http://www.w3.org/2000/svg" xmlns:xlink="http://www.w3.org/1999/xlink">
<g id="graph0" class="graph" transform="scale(1 1) rotate(0) translate(4 169.8)">
<title>dependencies</title>
<polygon fill="white" stroke="transparent" points="-4,4 -4,-169.8 1464,-169.8 1464,4 -4,4"/>
<text text-anchor="middle" x="730" y="-8.2" font-family="sans-serif" font-size="14.00">dependencies</text>
<g id="clust1" class="cluster">
<title>cluster_PublicCommunityGroupsModule</title>
<polygon fill="none" stroke="black" stroke-dasharray="1,5" points="8,-32.8 8,-157.8 1452,-157.8 1452,-32.8 8,-32.8"/>
</g>
<g id="clust2" class="cluster">
<title>cluster_PublicCommunityGroupsModule_declarations</title>
<polygon fill="none" stroke="black" points="462,-40.8 462,-92.8 1444,-92.8 1444,-40.8 462,-40.8"/>
</g>
<g id="clust7" class="cluster">
<title>cluster_PublicCommunityGroupsModule_imports</title>
<polygon fill="none" stroke="black" points="16,-40.8 16,-92.8 454,-92.8 454,-40.8 16,-40.8"/>
</g>
<!-- CommunityGroupAboutComponent -->
<g id="node1" class="node">
<title>CommunityGroupAboutComponent</title>
<polygon fill="#ffffb3" stroke="black" points="1436.5,-84.8 1217.5,-84.8 1217.5,-48.8 1436.5,-48.8 1436.5,-84.8"/>
<text text-anchor="middle" x="1327" y="-62.6" font-family="Times,serif" font-size="14.00">CommunityGroupAboutComponent</text>
</g>
<!-- PublicCommunityGroupsModule -->
<g id="node5" class="node">
<title>PublicCommunityGroupsModule</title>
<polygon fill="#8dd3c7" stroke="black" points="796.94,-149.8 793.94,-153.8 772.94,-153.8 769.94,-149.8 593.06,-149.8 593.06,-113.8 796.94,-113.8 796.94,-149.8"/>
<text text-anchor="middle" x="695" y="-127.6" font-family="Times,serif" font-size="14.00">PublicCommunityGroupsModule</text>
</g>
<!-- CommunityGroupAboutComponent&#45;&gt;PublicCommunityGroupsModule -->
<g id="edge1" class="edge">
<title>CommunityGroupAboutComponent&#45;&gt;PublicCommunityGroupsModule</title>
<path fill="none" stroke="black" d="M1327,-85.08C1327,-106.12 1327,-137.8 1327,-137.8 1327,-137.8 806.89,-137.8 806.89,-137.8"/>
<polygon fill="black" stroke="black" points="806.89,-134.3 796.89,-137.8 806.89,-141.3 806.89,-134.3"/>
</g>
<!-- CommunityGroupCommunitiesComponent -->
<g id="node2" class="node">
<title>CommunityGroupCommunitiesComponent</title>
<polygon fill="#ffffb3" stroke="black" points="1199.95,-84.8 940.05,-84.8 940.05,-48.8 1199.95,-48.8 1199.95,-84.8"/>
<text text-anchor="middle" x="1070" y="-62.6" font-family="Times,serif" font-size="14.00">CommunityGroupCommunitiesComponent</text>
</g>
<!-- CommunityGroupCommunitiesComponent&#45;&gt;PublicCommunityGroupsModule -->
<g id="edge2" class="edge">
<title>CommunityGroupCommunitiesComponent&#45;&gt;PublicCommunityGroupsModule</title>
<path fill="none" stroke="black" d="M1070,-84.82C1070,-102.17 1070,-125.8 1070,-125.8 1070,-125.8 806.98,-125.8 806.98,-125.8"/>
<polygon fill="black" stroke="black" points="806.98,-122.3 796.98,-125.8 806.98,-129.3 806.98,-122.3"/>
</g>
<!-- CommunityGroupHomeComponent -->
<g id="node3" class="node">
<title>CommunityGroupHomeComponent</title>
<polygon fill="#ffffb3" stroke="black" points="922.21,-84.8 703.79,-84.8 703.79,-48.8 922.21,-48.8 922.21,-84.8"/>
<text text-anchor="middle" x="813" y="-62.6" font-family="Times,serif" font-size="14.00">CommunityGroupHomeComponent</text>
</g>
<!-- CommunityGroupHomeComponent&#45;&gt;PublicCommunityGroupsModule -->
<g id="edge3" class="edge">
<title>CommunityGroupHomeComponent&#45;&gt;PublicCommunityGroupsModule</title>
<path fill="none" stroke="black" d="M750.31,-84.91C750.31,-84.91 750.31,-103.79 750.31,-103.79"/>
<polygon fill="black" stroke="black" points="746.81,-103.79 750.31,-113.79 753.81,-103.79 746.81,-103.79"/>
</g>
<!-- CommunityGroupTeamComponent -->
<g id="node4" class="node">
<title>CommunityGroupTeamComponent</title>
<polygon fill="#ffffb3" stroke="black" points="685.87,-84.8 470.13,-84.8 470.13,-48.8 685.87,-48.8 685.87,-84.8"/>
<text text-anchor="middle" x="578" y="-62.6" font-family="Times,serif" font-size="14.00">CommunityGroupTeamComponent</text>
</g>
<!-- CommunityGroupTeamComponent&#45;&gt;PublicCommunityGroupsModule -->
<g id="edge4" class="edge">
<title>CommunityGroupTeamComponent&#45;&gt;PublicCommunityGroupsModule</title>
<path fill="none" stroke="black" d="M639.61,-84.91C639.61,-84.91 639.61,-103.79 639.61,-103.79"/>
<polygon fill="black" stroke="black" points="636.11,-103.79 639.61,-113.79 643.11,-103.79 636.11,-103.79"/>
</g>
<!-- PublicCommunityGroupsRoutingModule -->
<g id="node6" class="node">
<title>PublicCommunityGroupsRoutingModule</title>
<polygon fill="#8dd3c7" stroke="black" points="446.06,-84.8 443.06,-88.8 422.06,-88.8 419.06,-84.8 197.94,-84.8 197.94,-48.8 446.06,-48.8 446.06,-84.8"/>
<text text-anchor="middle" x="322" y="-62.6" font-family="Times,serif" font-size="14.00">PublicCommunityGroupsRoutingModule</text>
</g>
<!-- PublicCommunityGroupsRoutingModule&#45;&gt;PublicCommunityGroupsModule -->
<g id="edge5" class="edge">
<title>PublicCommunityGroupsRoutingModule&#45;&gt;PublicCommunityGroupsModule</title>
<path fill="none" stroke="black" d="M322,-84.82C322,-102.17 322,-125.8 322,-125.8 322,-125.8 583.08,-125.8 583.08,-125.8"/>
<polygon fill="black" stroke="black" points="583.08,-129.3 593.08,-125.8 583.08,-122.3 583.08,-129.3"/>
</g>
<!-- SharedDirectivesModule -->
<g id="node7" class="node">
<title>SharedDirectivesModule</title>
<polygon fill="#8dd3c7" stroke="black" points="179.95,-84.8 176.95,-88.8 155.95,-88.8 152.95,-84.8 24.05,-84.8 24.05,-48.8 179.95,-48.8 179.95,-84.8"/>
<text text-anchor="middle" x="102" y="-62.6" font-family="Times,serif" font-size="14.00">SharedDirectivesModule</text>
</g>
<!-- SharedDirectivesModule&#45;&gt;PublicCommunityGroupsModule -->
<g id="edge6" class="edge">
<title>SharedDirectivesModule&#45;&gt;PublicCommunityGroupsModule</title>
<path fill="none" stroke="black" d="M102,-85.08C102,-106.12 102,-137.8 102,-137.8 102,-137.8 583.06,-137.8 583.06,-137.8"/>
<polygon fill="black" stroke="black" points="583.06,-141.3 593.06,-137.8 583.06,-134.3 583.06,-141.3"/>
</g>
</g>
</svg>
