<?xml version="1.0" encoding="UTF-8" standalone="no"?>
<!DOCTYPE svg PUBLIC "-//W3C//DTD SVG 1.1//EN"
 "http://www.w3.org/Graphics/SVG/1.1/DTD/svg11.dtd">
<!-- Generated by graphviz version 5.0.0 (20220707.1540)
 -->
<!-- Title: dependencies Pages: 1 -->
<svg width="528pt" height="247pt"
 viewBox="0.00 0.00 528.00 246.80" xmlns="http://www.w3.org/2000/svg" xmlns:xlink="http://www.w3.org/1999/xlink">
<g id="graph0" class="graph" transform="scale(1 1) rotate(0) translate(4 242.8)">
<title>dependencies</title>
<polygon fill="white" stroke="transparent" points="-4,4 -4,-242.8 524,-242.8 524,4 -4,4"/>
<text text-anchor="middle" x="260" y="-8.2" font-family="sans-serif" font-size="14.00">dependencies</text>
<g id="clust1" class="cluster">
<title>cluster_MentionModule</title>
<polygon fill="none" stroke="black" stroke-dasharray="1,5" points="8,-32.8 8,-230.8 512,-230.8 512,-32.8 8,-32.8"/>
</g>
<g id="clust7" class="cluster">
<title>cluster_MentionModule_exports</title>
<polygon fill="none" stroke="black" points="198,-170.8 198,-222.8 334,-222.8 334,-170.8 198,-170.8"/>
</g>
<g id="clust2" class="cluster">
<title>cluster_MentionModule_declarations</title>
<polygon fill="none" stroke="black" points="16,-40.8 16,-92.8 504,-92.8 504,-40.8 16,-40.8"/>
</g>
<!-- EntityProfileComponent -->
<g id="node1" class="node">
<title>EntityProfileComponent</title>
<polygon fill="#ffffb3" stroke="black" points="495.66,-84.8 342.34,-84.8 342.34,-48.8 495.66,-48.8 495.66,-84.8"/>
<text text-anchor="middle" x="419" y="-62.6" font-family="Times,serif" font-size="14.00">EntityProfileComponent</text>
</g>
<!-- MentionModule -->
<g id="node4" class="node">
<title>MentionModule</title>
<polygon fill="#8dd3c7" stroke="black" points="319.49,-149.8 316.49,-153.8 295.49,-153.8 292.49,-149.8 212.51,-149.8 212.51,-113.8 319.49,-113.8 319.49,-149.8"/>
<text text-anchor="middle" x="266" y="-127.6" font-family="Times,serif" font-size="14.00">MentionModule</text>
</g>
<!-- EntityProfileComponent&#45;&gt;MentionModule -->
<g id="edge1" class="edge">
<title>EntityProfileComponent&#45;&gt;MentionModule</title>
<path fill="none" stroke="black" d="M419,-84.91C419,-104.14 419,-131.8 419,-131.8 419,-131.8 329.51,-131.8 329.51,-131.8"/>
<polygon fill="black" stroke="black" points="329.51,-128.3 319.51,-131.8 329.51,-135.3 329.51,-128.3"/>
</g>
<!-- MentionDirective -->
<g id="node2" class="node">
<title>MentionDirective</title>
<polygon fill="#ffffb3" stroke="black" points="323.53,-84.8 208.47,-84.8 208.47,-48.8 323.53,-48.8 323.53,-84.8"/>
<text text-anchor="middle" x="266" y="-62.6" font-family="Times,serif" font-size="14.00">MentionDirective</text>
</g>
<!-- MentionDirective&#45;&gt;MentionModule -->
<g id="edge2" class="edge">
<title>MentionDirective&#45;&gt;MentionModule</title>
<path fill="none" stroke="black" d="M266,-84.91C266,-84.91 266,-103.79 266,-103.79"/>
<polygon fill="black" stroke="black" points="262.5,-103.79 266,-113.79 269.5,-103.79 262.5,-103.79"/>
</g>
<!-- SuggestionBoxComponent -->
<g id="node3" class="node">
<title>SuggestionBoxComponent</title>
<polygon fill="#ffffb3" stroke="black" points="190.4,-84.8 23.6,-84.8 23.6,-48.8 190.4,-48.8 190.4,-84.8"/>
<text text-anchor="middle" x="107" y="-62.6" font-family="Times,serif" font-size="14.00">SuggestionBoxComponent</text>
</g>
<!-- SuggestionBoxComponent&#45;&gt;MentionModule -->
<g id="edge3" class="edge">
<title>SuggestionBoxComponent&#45;&gt;MentionModule</title>
<path fill="none" stroke="black" d="M107,-84.91C107,-104.14 107,-131.8 107,-131.8 107,-131.8 202.17,-131.8 202.17,-131.8"/>
<polygon fill="black" stroke="black" points="202.17,-135.3 212.17,-131.8 202.17,-128.3 202.17,-135.3"/>
</g>
<!-- MentionDirective  -->
<g id="node5" class="node">
<title>MentionDirective </title>
<polygon fill="#fb8072" stroke="black" points="325.52,-214.8 206.48,-214.8 206.48,-178.8 325.52,-178.8 325.52,-214.8"/>
<text text-anchor="middle" x="266" y="-192.6" font-family="Times,serif" font-size="14.00">MentionDirective </text>
</g>
<!-- MentionModule&#45;&gt;MentionDirective  -->
<g id="edge4" class="edge">
<title>MentionModule&#45;&gt;MentionDirective </title>
<path fill="none" stroke="black" stroke-dasharray="5,2" d="M266,-149.91C266,-149.91 266,-168.79 266,-168.79"/>
<polygon fill="black" stroke="black" points="262.5,-168.79 266,-178.79 269.5,-168.79 262.5,-168.79"/>
</g>
</g>
</svg>
