<?xml version="1.0" encoding="UTF-8" standalone="no"?>
<!DOCTYPE svg PUBLIC "-//W3C//DTD SVG 1.1//EN"
 "http://www.w3.org/Graphics/SVG/1.1/DTD/svg11.dtd">
<!-- Generated by graphviz version 2.47.3 (20210619.1520)
 -->
<!-- Title: dependencies Pages: 1 -->
<svg width="368pt" height="247pt"
 viewBox="0.00 0.00 368.00 246.80" xmlns="http://www.w3.org/2000/svg" xmlns:xlink="http://www.w3.org/1999/xlink">
<g id="graph0" class="graph" transform="scale(1 1) rotate(0) translate(4 242.8)">
<title>dependencies</title>
<polygon fill="white" stroke="transparent" points="-4,4 -4,-242.8 364,-242.8 364,4 -4,4"/>
<text text-anchor="middle" x="180" y="-8.2" font-family="sans-serif" font-size="14.00">dependencies</text>
<g id="clust1" class="cluster">
<title>cluster_PageAdsModule</title>
<polygon fill="none" stroke="black" stroke-dasharray="1,5" points="8,-32.8 8,-230.8 352,-230.8 352,-32.8 8,-32.8"/>
</g>
<g id="clust2" class="cluster">
<title>cluster_PageAdsModule_declarations</title>
<polygon fill="none" stroke="black" points="196,-40.8 196,-92.8 344,-92.8 344,-40.8 196,-40.8"/>
</g>
<g id="clust5" class="cluster">
<title>cluster_PageAdsModule_exports</title>
<polygon fill="none" stroke="black" points="110,-170.8 110,-222.8 260,-222.8 260,-170.8 110,-170.8"/>
</g>
<g id="clust4" class="cluster">
<title>cluster_PageAdsModule_imports</title>
<polygon fill="none" stroke="black" points="16,-40.8 16,-92.8 188,-92.8 188,-40.8 16,-40.8"/>
</g>
<!-- PageAdsComponent -->
<g id="node1" class="node">
<title>PageAdsComponent</title>
<polygon fill="#ffffb3" stroke="black" points="335.6,-84.8 204.4,-84.8 204.4,-48.8 335.6,-48.8 335.6,-84.8"/>
<text text-anchor="middle" x="270" y="-62.6" font-family="Times,serif" font-size="14.00">PageAdsComponent</text>
</g>
<!-- PageAdsModule -->
<g id="node2" class="node">
<title>PageAdsModule</title>
<polygon fill="#8dd3c7" stroke="black" points="239.81,-149.8 236.81,-153.8 215.81,-153.8 212.81,-149.8 130.19,-149.8 130.19,-113.8 239.81,-113.8 239.81,-149.8"/>
<text text-anchor="middle" x="185" y="-127.6" font-family="Times,serif" font-size="14.00">PageAdsModule</text>
</g>
<!-- PageAdsComponent&#45;&gt;PageAdsModule -->
<g id="edge1" class="edge">
<title>PageAdsComponent&#45;&gt;PageAdsModule</title>
<path fill="none" stroke="black" d="M222.05,-84.91C222.05,-84.91 222.05,-103.79 222.05,-103.79"/>
<polygon fill="black" stroke="black" points="218.55,-103.79 222.05,-113.79 225.55,-103.79 218.55,-103.79"/>
</g>
<!-- PageAdsComponent  -->
<g id="node4" class="node">
<title>PageAdsComponent </title>
<polygon fill="#fb8072" stroke="black" points="252.1,-214.8 117.9,-214.8 117.9,-178.8 252.1,-178.8 252.1,-214.8"/>
<text text-anchor="middle" x="185" y="-192.6" font-family="Times,serif" font-size="14.00">PageAdsComponent </text>
</g>
<!-- PageAdsModule&#45;&gt;PageAdsComponent  -->
<g id="edge3" class="edge">
<title>PageAdsModule&#45;&gt;PageAdsComponent </title>
<path fill="none" stroke="black" stroke-dasharray="5,2" d="M185,-149.91C185,-149.91 185,-168.79 185,-168.79"/>
<polygon fill="black" stroke="black" points="181.5,-168.79 185,-178.79 188.5,-168.79 181.5,-168.79"/>
</g>
<!-- SharedDirectivesModule -->
<g id="node3" class="node">
<title>SharedDirectivesModule</title>
<polygon fill="#8dd3c7" stroke="black" points="179.95,-84.8 176.95,-88.8 155.95,-88.8 152.95,-84.8 24.05,-84.8 24.05,-48.8 179.95,-48.8 179.95,-84.8"/>
<text text-anchor="middle" x="102" y="-62.6" font-family="Times,serif" font-size="14.00">SharedDirectivesModule</text>
</g>
<!-- SharedDirectivesModule&#45;&gt;PageAdsModule -->
<g id="edge2" class="edge">
<title>SharedDirectivesModule&#45;&gt;PageAdsModule</title>
<path fill="none" stroke="black" d="M155.16,-84.91C155.16,-84.91 155.16,-103.79 155.16,-103.79"/>
<polygon fill="black" stroke="black" points="151.66,-103.79 155.16,-113.79 158.66,-103.79 151.66,-103.79"/>
</g>
</g>
</svg>
