<?xml version="1.0" encoding="UTF-8" standalone="no"?>
<!DOCTYPE svg PUBLIC "-//W3C//DTD SVG 1.1//EN"
 "http://www.w3.org/Graphics/SVG/1.1/DTD/svg11.dtd">
<!-- Generated by graphviz version 2.47.3 (20210619.1520)
 -->
<!-- Title: dependencies Pages: 1 -->
<svg width="368pt" height="247pt"
 viewBox="0.00 0.00 368.00 246.80" xmlns="http://www.w3.org/2000/svg" xmlns:xlink="http://www.w3.org/1999/xlink">
<g id="graph0" class="graph" transform="scale(1 1) rotate(0) translate(4 242.8)">
<title>dependencies</title>
<polygon fill="white" stroke="transparent" points="-4,4 -4,-242.8 364,-242.8 364,4 -4,4"/>
<text text-anchor="middle" x="180" y="-8.2" font-family="sans-serif" font-size="14.00">dependencies</text>
<g id="clust1" class="cluster">
<title>cluster_PageAdsModule</title>
<polygon fill="none" stroke="black" stroke-dasharray="1,5" points="8,-32.8 8,-230.8 352,-230.8 352,-32.8 8,-32.8"/>
</g>
<g id="clust5" class="cluster">
<title>cluster_PageAdsModule_exports</title>
<polygon fill="none" stroke="black" points="99,-170.8 99,-222.8 249,-222.8 249,-170.8 99,-170.8"/>
</g>
<g id="clust4" class="cluster">
<title>cluster_PageAdsModule_imports</title>
<polygon fill="none" stroke="black" points="172,-40.8 172,-92.8 344,-92.8 344,-40.8 172,-40.8"/>
</g>
<g id="clust2" class="cluster">
<title>cluster_PageAdsModule_declarations</title>
<polygon fill="none" stroke="black" points="16,-40.8 16,-92.8 164,-92.8 164,-40.8 16,-40.8"/>
</g>
<!-- PageAdsComponent -->
<g id="node1" class="node">
<title>PageAdsComponent</title>
<polygon fill="#ffffb3" stroke="black" points="155.6,-84.8 24.4,-84.8 24.4,-48.8 155.6,-48.8 155.6,-84.8"/>
<text text-anchor="middle" x="90" y="-62.6" font-family="Times,serif" font-size="14.00">PageAdsComponent</text>
</g>
<!-- PageAdsModule -->
<g id="node2" class="node">
<title>PageAdsModule</title>
<polygon fill="#8dd3c7" stroke="black" points="228.81,-149.8 225.81,-153.8 204.81,-153.8 201.81,-149.8 119.19,-149.8 119.19,-113.8 228.81,-113.8 228.81,-149.8"/>
<text text-anchor="middle" x="174" y="-127.6" font-family="Times,serif" font-size="14.00">PageAdsModule</text>
</g>
<!-- PageAdsComponent&#45;&gt;PageAdsModule -->
<g id="edge1" class="edge">
<title>PageAdsComponent&#45;&gt;PageAdsModule</title>
<path fill="none" stroke="black" d="M137.45,-84.91C137.45,-84.91 137.45,-103.79 137.45,-103.79"/>
<polygon fill="black" stroke="black" points="133.95,-103.79 137.45,-113.79 140.95,-103.79 133.95,-103.79"/>
</g>
<!-- PageAdsComponent  -->
<g id="node4" class="node">
<title>PageAdsComponent </title>
<polygon fill="#fb8072" stroke="black" points="241.1,-214.8 106.9,-214.8 106.9,-178.8 241.1,-178.8 241.1,-214.8"/>
<text text-anchor="middle" x="174" y="-192.6" font-family="Times,serif" font-size="14.00">PageAdsComponent </text>
</g>
<!-- PageAdsModule&#45;&gt;PageAdsComponent  -->
<g id="edge3" class="edge">
<title>PageAdsModule&#45;&gt;PageAdsComponent </title>
<path fill="none" stroke="black" stroke-dasharray="5,2" d="M174,-149.91C174,-149.91 174,-168.79 174,-168.79"/>
<polygon fill="black" stroke="black" points="170.5,-168.79 174,-178.79 177.5,-168.79 170.5,-168.79"/>
</g>
<!-- SharedDirectivesModule -->
<g id="node3" class="node">
<title>SharedDirectivesModule</title>
<polygon fill="#8dd3c7" stroke="black" points="335.95,-84.8 332.95,-88.8 311.95,-88.8 308.95,-84.8 180.05,-84.8 180.05,-48.8 335.95,-48.8 335.95,-84.8"/>
<text text-anchor="middle" x="258" y="-62.6" font-family="Times,serif" font-size="14.00">SharedDirectivesModule</text>
</g>
<!-- SharedDirectivesModule&#45;&gt;PageAdsModule -->
<g id="edge2" class="edge">
<title>SharedDirectivesModule&#45;&gt;PageAdsModule</title>
<path fill="none" stroke="black" d="M204.34,-84.91C204.34,-84.91 204.34,-103.79 204.34,-103.79"/>
<polygon fill="black" stroke="black" points="200.84,-103.79 204.34,-113.79 207.84,-103.79 200.84,-103.79"/>
</g>
</g>
</svg>
