<?xml version="1.0" encoding="UTF-8" standalone="no"?>
<!DOCTYPE svg PUBLIC "-//W3C//DTD SVG 1.1//EN"
 "http://www.w3.org/Graphics/SVG/1.1/DTD/svg11.dtd">
<!-- Generated by graphviz version 5.0.0 (20220707.1540)
 -->
<!-- Title: dependencies Pages: 1 -->
<svg width="1259pt" height="247pt"
 viewBox="0.00 0.00 1259.00 246.80" xmlns="http://www.w3.org/2000/svg" xmlns:xlink="http://www.w3.org/1999/xlink">
<g id="graph0" class="graph" transform="scale(1 1) rotate(0) translate(4 242.8)">
<title>dependencies</title>
<polygon fill="white" stroke="transparent" points="-4,4 -4,-242.8 1255,-242.8 1255,4 -4,4"/>
<text text-anchor="middle" x="625.5" y="-8.2" font-family="sans-serif" font-size="14.00">dependencies</text>
<g id="clust1" class="cluster">
<title>cluster_MiniUserProfileModule</title>
<polygon fill="none" stroke="black" stroke-dasharray="1,5" points="8,-32.8 8,-230.8 1243,-230.8 1243,-32.8 8,-32.8"/>
</g>
<g id="clust10" class="cluster">
<title>cluster_MiniUserProfileModule_exports</title>
<polygon fill="none" stroke="black" points="102,-170.8 102,-222.8 1148,-222.8 1148,-170.8 102,-170.8"/>
</g>
<g id="clust2" class="cluster">
<title>cluster_MiniUserProfileModule_declarations</title>
<polygon fill="none" stroke="black" points="16,-40.8 16,-92.8 1235,-92.8 1235,-40.8 16,-40.8"/>
</g>
<!-- MiniUserProfileComponent -->
<g id="node1" class="node">
<title>MiniUserProfileComponent</title>
<polygon fill="#ffffb3" stroke="black" points="1226.6,-84.8 1053.4,-84.8 1053.4,-48.8 1226.6,-48.8 1226.6,-84.8"/>
<text text-anchor="middle" x="1140" y="-62.6" font-family="Times,serif" font-size="14.00">MiniUserProfileComponent</text>
</g>
<!-- MiniUserProfileModule -->
<g id="node7" class="node">
<title>MiniUserProfileModule</title>
<polygon fill="#8dd3c7" stroke="black" points="760.82,-149.8 757.82,-153.8 736.82,-153.8 733.82,-149.8 609.18,-149.8 609.18,-113.8 760.82,-113.8 760.82,-149.8"/>
<text text-anchor="middle" x="685" y="-127.6" font-family="Times,serif" font-size="14.00">MiniUserProfileModule</text>
</g>
<!-- MiniUserProfileComponent&#45;&gt;MiniUserProfileModule -->
<g id="edge1" class="edge">
<title>MiniUserProfileComponent&#45;&gt;MiniUserProfileModule</title>
<path fill="none" stroke="black" d="M1096.56,-85.07C1096.56,-103.36 1096.56,-128.8 1096.56,-128.8 1096.56,-128.8 770.97,-128.8 770.97,-128.8"/>
<polygon fill="black" stroke="black" points="770.97,-125.3 760.97,-128.8 770.97,-132.3 770.97,-125.3"/>
</g>
<!-- MiniUserProfileDirective -->
<g id="node2" class="node">
<title>MiniUserProfileDirective</title>
<polygon fill="#ffffb3" stroke="black" points="1035.85,-84.8 876.15,-84.8 876.15,-48.8 1035.85,-48.8 1035.85,-84.8"/>
<text text-anchor="middle" x="956" y="-62.6" font-family="Times,serif" font-size="14.00">MiniUserProfileDirective</text>
</g>
<!-- MiniUserProfileDirective&#45;&gt;MiniUserProfileModule -->
<g id="edge2" class="edge">
<title>MiniUserProfileDirective&#45;&gt;MiniUserProfileModule</title>
<path fill="none" stroke="black" d="M917.27,-84.81C917.27,-100.85 917.27,-121.8 917.27,-121.8 917.27,-121.8 770.73,-121.8 770.73,-121.8"/>
<polygon fill="black" stroke="black" points="770.73,-118.3 760.73,-121.8 770.73,-125.3 770.73,-118.3"/>
</g>
<!-- UserFollowComponent -->
<g id="node3" class="node">
<title>UserFollowComponent</title>
<polygon fill="#ffffb3" stroke="black" points="857.94,-84.8 710.06,-84.8 710.06,-48.8 857.94,-48.8 857.94,-84.8"/>
<text text-anchor="middle" x="784" y="-62.6" font-family="Times,serif" font-size="14.00">UserFollowComponent</text>
</g>
<!-- UserFollowComponent&#45;&gt;MiniUserProfileModule -->
<g id="edge3" class="edge">
<title>UserFollowComponent&#45;&gt;MiniUserProfileModule</title>
<path fill="none" stroke="black" d="M735.47,-84.91C735.47,-84.91 735.47,-103.79 735.47,-103.79"/>
<polygon fill="black" stroke="black" points="731.97,-103.79 735.47,-113.79 738.97,-103.79 731.97,-103.79"/>
</g>
<!-- UserProfileCardLargeComponent -->
<g id="node4" class="node">
<title>UserProfileCardLargeComponent</title>
<polygon fill="#ffffb3" stroke="black" points="691.72,-84.8 486.28,-84.8 486.28,-48.8 691.72,-48.8 691.72,-84.8"/>
<text text-anchor="middle" x="589" y="-62.6" font-family="Times,serif" font-size="14.00">UserProfileCardLargeComponent</text>
</g>
<!-- UserProfileCardLargeComponent&#45;&gt;MiniUserProfileModule -->
<g id="edge4" class="edge">
<title>UserProfileCardLargeComponent&#45;&gt;MiniUserProfileModule</title>
<path fill="none" stroke="black" d="M650.6,-84.91C650.6,-84.91 650.6,-103.79 650.6,-103.79"/>
<polygon fill="black" stroke="black" points="647.1,-103.79 650.6,-113.79 654.1,-103.79 647.1,-103.79"/>
</g>
<!-- UserProfileCardMediumComponent -->
<g id="node5" class="node">
<title>UserProfileCardMediumComponent</title>
<polygon fill="#ffffb3" stroke="black" points="468.02,-84.8 247.98,-84.8 247.98,-48.8 468.02,-48.8 468.02,-84.8"/>
<text text-anchor="middle" x="358" y="-62.6" font-family="Times,serif" font-size="14.00">UserProfileCardMediumComponent</text>
</g>
<!-- UserProfileCardMediumComponent&#45;&gt;MiniUserProfileModule -->
<g id="edge5" class="edge">
<title>UserProfileCardMediumComponent&#45;&gt;MiniUserProfileModule</title>
<path fill="none" stroke="black" d="M403.12,-84.81C403.12,-100.85 403.12,-121.8 403.12,-121.8 403.12,-121.8 599.09,-121.8 599.09,-121.8"/>
<polygon fill="black" stroke="black" points="599.09,-125.3 609.09,-121.8 599.09,-118.3 599.09,-125.3"/>
</g>
<!-- UserProfileCardSmallComponent -->
<g id="node6" class="node">
<title>UserProfileCardSmallComponent</title>
<polygon fill="#ffffb3" stroke="black" points="229.75,-84.8 24.25,-84.8 24.25,-48.8 229.75,-48.8 229.75,-84.8"/>
<text text-anchor="middle" x="127" y="-62.6" font-family="Times,serif" font-size="14.00">UserProfileCardSmallComponent</text>
</g>
<!-- UserProfileCardSmallComponent&#45;&gt;MiniUserProfileModule -->
<g id="edge6" class="edge">
<title>UserProfileCardSmallComponent&#45;&gt;MiniUserProfileModule</title>
<path fill="none" stroke="black" d="M170.12,-85.07C170.12,-103.36 170.12,-128.8 170.12,-128.8 170.12,-128.8 599.31,-128.8 599.31,-128.8"/>
<polygon fill="black" stroke="black" points="599.31,-132.3 609.31,-128.8 599.31,-125.3 599.31,-132.3"/>
</g>
<!-- MiniUserProfileDirective  -->
<g id="node8" class="node">
<title>MiniUserProfileDirective </title>
<polygon fill="#fb8072" stroke="black" points="1139.85,-214.8 976.15,-214.8 976.15,-178.8 1139.85,-178.8 1139.85,-214.8"/>
<text text-anchor="middle" x="1058" y="-192.6" font-family="Times,serif" font-size="14.00">MiniUserProfileDirective </text>
</g>
<!-- MiniUserProfileModule&#45;&gt;MiniUserProfileDirective  -->
<g id="edge7" class="edge">
<title>MiniUserProfileModule&#45;&gt;MiniUserProfileDirective </title>
<path fill="none" stroke="black" stroke-dasharray="5,2" d="M760.7,-135.8C855.63,-135.8 1006.12,-135.8 1006.12,-135.8 1006.12,-135.8 1006.12,-168.5 1006.12,-168.5"/>
<polygon fill="black" stroke="black" points="1002.63,-168.5 1006.12,-178.5 1009.63,-168.5 1002.63,-168.5"/>
</g>
<!-- UserFollowComponent  -->
<g id="node9" class="node">
<title>UserFollowComponent </title>
<polygon fill="#fb8072" stroke="black" points="958.44,-214.8 807.56,-214.8 807.56,-178.8 958.44,-178.8 958.44,-214.8"/>
<text text-anchor="middle" x="883" y="-192.6" font-family="Times,serif" font-size="14.00">UserFollowComponent </text>
</g>
<!-- MiniUserProfileModule&#45;&gt;UserFollowComponent  -->
<g id="edge8" class="edge">
<title>MiniUserProfileModule&#45;&gt;UserFollowComponent </title>
<path fill="none" stroke="black" stroke-dasharray="5,2" d="M760.97,-142.8C797.15,-142.8 832.62,-142.8 832.62,-142.8 832.62,-142.8 832.62,-168.52 832.62,-168.52"/>
<polygon fill="black" stroke="black" points="829.13,-168.52 832.62,-178.52 836.13,-168.52 829.13,-168.52"/>
</g>
<!-- UserProfileCardLargeComponent  -->
<g id="node10" class="node">
<title>UserProfileCardLargeComponent </title>
<polygon fill="#fb8072" stroke="black" points="789.72,-214.8 580.28,-214.8 580.28,-178.8 789.72,-178.8 789.72,-214.8"/>
<text text-anchor="middle" x="685" y="-192.6" font-family="Times,serif" font-size="14.00">UserProfileCardLargeComponent </text>
</g>
<!-- MiniUserProfileModule&#45;&gt;UserProfileCardLargeComponent  -->
<g id="edge9" class="edge">
<title>MiniUserProfileModule&#45;&gt;UserProfileCardLargeComponent </title>
<path fill="none" stroke="black" stroke-dasharray="5,2" d="M685,-149.91C685,-149.91 685,-168.79 685,-168.79"/>
<polygon fill="black" stroke="black" points="681.5,-168.79 685,-178.79 688.5,-168.79 681.5,-168.79"/>
</g>
<!-- UserProfileCardMediumComponent  -->
<g id="node11" class="node">
<title>UserProfileCardMediumComponent </title>
<polygon fill="#fb8072" stroke="black" points="562.02,-214.8 337.98,-214.8 337.98,-178.8 562.02,-178.8 562.02,-214.8"/>
<text text-anchor="middle" x="450" y="-192.6" font-family="Times,serif" font-size="14.00">UserProfileCardMediumComponent </text>
</g>
<!-- MiniUserProfileModule&#45;&gt;UserProfileCardMediumComponent  -->
<g id="edge10" class="edge">
<title>MiniUserProfileModule&#45;&gt;UserProfileCardMediumComponent </title>
<path fill="none" stroke="black" stroke-dasharray="5,2" d="M609.25,-142.8C567.51,-142.8 524.07,-142.8 524.07,-142.8 524.07,-142.8 524.07,-168.52 524.07,-168.52"/>
<polygon fill="black" stroke="black" points="520.58,-168.52 524.07,-178.52 527.58,-168.52 520.58,-168.52"/>
</g>
<!-- UserProfileCardSmallComponent  -->
<g id="node12" class="node">
<title>UserProfileCardSmallComponent </title>
<polygon fill="#fb8072" stroke="black" points="319.75,-214.8 110.25,-214.8 110.25,-178.8 319.75,-178.8 319.75,-214.8"/>
<text text-anchor="middle" x="215" y="-192.6" font-family="Times,serif" font-size="14.00">UserProfileCardSmallComponent </text>
</g>
<!-- MiniUserProfileModule&#45;&gt;UserProfileCardSmallComponent  -->
<g id="edge11" class="edge">
<title>MiniUserProfileModule&#45;&gt;UserProfileCardSmallComponent </title>
<path fill="none" stroke="black" stroke-dasharray="5,2" d="M609.04,-135.8C492.7,-135.8 283.68,-135.8 283.68,-135.8 283.68,-135.8 283.68,-168.5 283.68,-168.5"/>
<polygon fill="black" stroke="black" points="280.18,-168.5 283.68,-178.5 287.18,-168.5 280.18,-168.5"/>
</g>
</g>
</svg>
