<?xml version="1.0" encoding="UTF-8" standalone="no"?>
<!DOCTYPE svg PUBLIC "-//W3C//DTD SVG 1.1//EN"
 "http://www.w3.org/Graphics/SVG/1.1/DTD/svg11.dtd">
<!-- Generated by graphviz version 2.47.3 (20210619.1520)
 -->
<!-- Title: dependencies Pages: 1 -->
<svg width="589pt" height="247pt"
 viewBox="0.00 0.00 589.00 246.80" xmlns="http://www.w3.org/2000/svg" xmlns:xlink="http://www.w3.org/1999/xlink">
<g id="graph0" class="graph" transform="scale(1 1) rotate(0) translate(4 242.8)">
<title>dependencies</title>
<polygon fill="white" stroke="transparent" points="-4,4 -4,-242.8 585,-242.8 585,4 -4,4"/>
<text text-anchor="middle" x="290.5" y="-8.2" font-family="sans-serif" font-size="14.00">dependencies</text>
<g id="clust1" class="cluster">
<title>cluster_LibErrorHandlerModule</title>
<polygon fill="none" stroke="black" stroke-dasharray="1,5" points="8,-32.8 8,-230.8 573,-230.8 573,-32.8 8,-32.8"/>
</g>
<g id="clust6" class="cluster">
<title>cluster_LibErrorHandlerModule_exports</title>
<polygon fill="none" stroke="black" points="200,-170.8 200,-222.8 394,-222.8 394,-170.8 200,-170.8"/>
</g>
<g id="clust5" class="cluster">
<title>cluster_LibErrorHandlerModule_imports</title>
<polygon fill="none" stroke="black" points="393,-40.8 393,-92.8 565,-92.8 565,-40.8 393,-40.8"/>
</g>
<g id="clust2" class="cluster">
<title>cluster_LibErrorHandlerModule_declarations</title>
<polygon fill="none" stroke="black" points="16,-40.8 16,-92.8 385,-92.8 385,-40.8 16,-40.8"/>
</g>
<!-- Error404PageComponent -->
<g id="node1" class="node">
<title>Error404PageComponent</title>
<polygon fill="#ffffb3" stroke="black" points="376.58,-84.8 217.42,-84.8 217.42,-48.8 376.58,-48.8 376.58,-84.8"/>
<text text-anchor="middle" x="297" y="-62.6" font-family="Times,serif" font-size="14.00">Error404PageComponent</text>
</g>
<!-- LibErrorHandlerModule -->
<g id="node3" class="node">
<title>LibErrorHandlerModule</title>
<polygon fill="#8dd3c7" stroke="black" points="373.61,-149.8 370.61,-153.8 349.61,-153.8 346.61,-149.8 220.39,-149.8 220.39,-113.8 373.61,-113.8 373.61,-149.8"/>
<text text-anchor="middle" x="297" y="-127.6" font-family="Times,serif" font-size="14.00">LibErrorHandlerModule</text>
</g>
<!-- Error404PageComponent&#45;&gt;LibErrorHandlerModule -->
<g id="edge1" class="edge">
<title>Error404PageComponent&#45;&gt;LibErrorHandlerModule</title>
<path fill="none" stroke="black" d="M297,-84.91C297,-84.91 297,-103.79 297,-103.79"/>
<polygon fill="black" stroke="black" points="293.5,-103.79 297,-113.79 300.5,-103.79 293.5,-103.79"/>
</g>
<!-- LibErrorHandlerComponent -->
<g id="node2" class="node">
<title>LibErrorHandlerComponent</title>
<polygon fill="#ffffb3" stroke="black" points="199.9,-84.8 24.1,-84.8 24.1,-48.8 199.9,-48.8 199.9,-84.8"/>
<text text-anchor="middle" x="112" y="-62.6" font-family="Times,serif" font-size="14.00">LibErrorHandlerComponent</text>
</g>
<!-- LibErrorHandlerComponent&#45;&gt;LibErrorHandlerModule -->
<g id="edge2" class="edge">
<title>LibErrorHandlerComponent&#45;&gt;LibErrorHandlerModule</title>
<path fill="none" stroke="black" d="M112,-84.91C112,-104.14 112,-131.8 112,-131.8 112,-131.8 210.15,-131.8 210.15,-131.8"/>
<polygon fill="black" stroke="black" points="210.15,-135.3 220.15,-131.8 210.15,-128.3 210.15,-135.3"/>
</g>
<!-- LibErrorHandlerComponent  -->
<g id="node5" class="node">
<title>LibErrorHandlerComponent </title>
<polygon fill="#fb8072" stroke="black" points="386.4,-214.8 207.6,-214.8 207.6,-178.8 386.4,-178.8 386.4,-214.8"/>
<text text-anchor="middle" x="297" y="-192.6" font-family="Times,serif" font-size="14.00">LibErrorHandlerComponent </text>
</g>
<!-- LibErrorHandlerModule&#45;&gt;LibErrorHandlerComponent  -->
<g id="edge4" class="edge">
<title>LibErrorHandlerModule&#45;&gt;LibErrorHandlerComponent </title>
<path fill="none" stroke="black" stroke-dasharray="5,2" d="M297,-149.91C297,-149.91 297,-168.79 297,-168.79"/>
<polygon fill="black" stroke="black" points="293.5,-168.79 297,-178.79 300.5,-168.79 293.5,-168.79"/>
</g>
<!-- SharedDirectivesModule -->
<g id="node4" class="node">
<title>SharedDirectivesModule</title>
<polygon fill="#8dd3c7" stroke="black" points="556.95,-84.8 553.95,-88.8 532.95,-88.8 529.95,-84.8 401.05,-84.8 401.05,-48.8 556.95,-48.8 556.95,-84.8"/>
<text text-anchor="middle" x="479" y="-62.6" font-family="Times,serif" font-size="14.00">SharedDirectivesModule</text>
</g>
<!-- SharedDirectivesModule&#45;&gt;LibErrorHandlerModule -->
<g id="edge3" class="edge">
<title>SharedDirectivesModule&#45;&gt;LibErrorHandlerModule</title>
<path fill="none" stroke="black" d="M479,-84.91C479,-104.14 479,-131.8 479,-131.8 479,-131.8 383.66,-131.8 383.66,-131.8"/>
<polygon fill="black" stroke="black" points="383.66,-128.3 373.66,-131.8 383.66,-135.3 383.66,-128.3"/>
</g>
</g>
</svg>
