<?xml version="1.0" encoding="UTF-8" standalone="no"?>
<!DOCTYPE svg PUBLIC "-//W3C//DTD SVG 1.1//EN"
 "http://www.w3.org/Graphics/SVG/1.1/DTD/svg11.dtd">
<!-- Generated by graphviz version 5.0.0 (20220707.1540)
 -->
<!-- Title: dependencies Pages: 1 -->
<svg width="458pt" height="174pt"
 viewBox="0.00 0.00 458.00 173.80" xmlns="http://www.w3.org/2000/svg" xmlns:xlink="http://www.w3.org/1999/xlink">
<g id="graph0" class="graph" transform="scale(1 1) rotate(0) translate(4 169.8)">
<title>dependencies</title>
<polygon fill="white" stroke="transparent" points="-4,4 -4,-169.8 454,-169.8 454,4 -4,4"/>
<text text-anchor="middle" x="225" y="-8.2" font-family="sans-serif" font-size="14.00">dependencies</text>
<g id="clust1" class="cluster">
<title>cluster_PublicPagesModule</title>
<polygon fill="none" stroke="black" stroke-dasharray="1,5" points="8,-32.8 8,-157.8 442,-157.8 442,-32.8 8,-32.8"/>
</g>
<g id="clust4" class="cluster">
<title>cluster_PublicPagesModule_imports</title>
<polygon fill="none" stroke="black" points="244,-40.8 244,-92.8 434,-92.8 434,-40.8 244,-40.8"/>
</g>
<g id="clust2" class="cluster">
<title>cluster_PublicPagesModule_declarations</title>
<polygon fill="none" stroke="black" points="16,-40.8 16,-92.8 236,-92.8 236,-40.8 16,-40.8"/>
</g>
<!-- PublicPageGuidelinesComponent -->
<g id="node1" class="node">
<title>PublicPageGuidelinesComponent</title>
<polygon fill="#ffffb3" stroke="black" points="228.48,-84.8 23.52,-84.8 23.52,-48.8 228.48,-48.8 228.48,-84.8"/>
<text text-anchor="middle" x="126" y="-62.6" font-family="Times,serif" font-size="14.00">PublicPageGuidelinesComponent</text>
</g>
<!-- PublicPagesModule -->
<g id="node2" class="node">
<title>PublicPagesModule</title>
<polygon fill="#8dd3c7" stroke="black" points="295.99,-149.8 292.99,-153.8 271.99,-153.8 268.99,-149.8 168.01,-149.8 168.01,-113.8 295.99,-113.8 295.99,-149.8"/>
<text text-anchor="middle" x="232" y="-127.6" font-family="Times,serif" font-size="14.00">PublicPagesModule</text>
</g>
<!-- PublicPageGuidelinesComponent&#45;&gt;PublicPagesModule -->
<g id="edge1" class="edge">
<title>PublicPageGuidelinesComponent&#45;&gt;PublicPagesModule</title>
<path fill="none" stroke="black" d="M198.25,-84.91C198.25,-84.91 198.25,-103.79 198.25,-103.79"/>
<polygon fill="black" stroke="black" points="194.75,-103.79 198.25,-113.79 201.75,-103.79 194.75,-103.79"/>
</g>
<!-- PublicPagesRoutingModule -->
<g id="node3" class="node">
<title>PublicPagesRoutingModule</title>
<polygon fill="#8dd3c7" stroke="black" points="425.61,-84.8 422.61,-88.8 401.61,-88.8 398.61,-84.8 252.39,-84.8 252.39,-48.8 425.61,-48.8 425.61,-84.8"/>
<text text-anchor="middle" x="339" y="-62.6" font-family="Times,serif" font-size="14.00">PublicPagesRoutingModule</text>
</g>
<!-- PublicPagesRoutingModule&#45;&gt;PublicPagesModule -->
<g id="edge2" class="edge">
<title>PublicPagesRoutingModule&#45;&gt;PublicPagesModule</title>
<path fill="none" stroke="black" d="M274.22,-84.91C274.22,-84.91 274.22,-103.79 274.22,-103.79"/>
<polygon fill="black" stroke="black" points="270.72,-103.79 274.22,-113.79 277.72,-103.79 270.72,-103.79"/>
</g>
</g>
</svg>
