<?xml version="1.0" encoding="UTF-8" standalone="no"?>
<!DOCTYPE svg PUBLIC "-//W3C//DTD SVG 1.1//EN"
 "http://www.w3.org/Graphics/SVG/1.1/DTD/svg11.dtd">
<!-- Generated by graphviz version 2.47.0 (20210316.0004)
 -->
<!-- Title: dependencies Pages: 1 -->
<svg width="504pt" height="284pt"
     viewBox="0.00 0.00 504.00 284.00" xmlns="http://www.w3.org/2000/svg">
<g id="graph0" class="graph" transform="scale(1 1) rotate(0) translate(4 280)">
<title>dependencies</title>
<polygon fill="white" stroke="transparent" points="-4,4 -4,-280 500,-280 500,4 -4,4"/>
<text text-anchor="start" x="227.01" y="-42.4" font-family="sans-serif" font-weight="bold" font-size="14.00">Legend</text>
<polygon fill="#ffffb3" stroke="transparent" points="14,-10 14,-30 34,-30 34,-10 14,-10"/>
<text text-anchor="start" x="37.63" y="-15.4" font-family="sans-serif" font-size="14.00"> &#160;Declarations</text>
<polygon fill="#8dd3c7" stroke="transparent" points="127,-10 127,-30 147,-30 147,-10 127,-10"/>
<text text-anchor="start" x="150.73" y="-15.4" font-family="sans-serif" font-size="14.00"> &#160;Module</text>
<polygon fill="#80b1d3" stroke="transparent" points="213,-10 213,-30 233,-30 233,-10 213,-10"/>
<text text-anchor="start" x="236.78" y="-15.4" font-family="sans-serif" font-size="14.00"> &#160;Bootstrap</text>
<polygon fill="#fdb462" stroke="transparent" points="310,-10 310,-30 330,-30 330,-10 310,-10"/>
<text text-anchor="start" x="333.67" y="-15.4" font-family="sans-serif" font-size="14.00"> &#160;Providers</text>
<polygon fill="#fb8072" stroke="transparent" points="406,-10 406,-30 426,-30 426,-10 406,-10"/>
<text text-anchor="start" x="429.73" y="-15.4" font-family="sans-serif" font-size="14.00"> &#160;Exports</text>
<g id="clust1" class="cluster">
<title>cluster_ReusableComponentsModule</title>
<polygon fill="none" stroke="black" stroke-dasharray="1,5" points="50,-70 50,-268 446,-268 446,-70 50,-70"/>
</g>
<g id="clust2" class="cluster">
<title>cluster_ReusableComponentsModule_declarations</title>
<polygon fill="none" stroke="black" points="61,-78 61,-130 434,-130 434,-78 61,-78"/>
</g>
<g id="clust6" class="cluster">
<title>cluster_ReusableComponentsModule_exports</title>
<polygon fill="none" stroke="black" points="58,-208 58,-260 438,-260 438,-208 58,-208"/>
</g>
<!-- CommunityEmailsListComponent -->
<g id="node1" class="node">
<title>CommunityEmailsListComponent</title>
<polygon fill="#ffffb3" stroke="black" points="426.39,-122 217.61,-122 217.61,-86 426.39,-86 426.39,-122"/>
<text text-anchor="middle" x="322" y="-99.8" font-family="Times,serif" font-size="14.00">CommunityEmailsListComponent</text>
</g>
<!-- ReusableComponentsModule -->
<g id="node3" class="node">
<title>ReusableComponentsModule</title>
<polygon fill="#8dd3c7" stroke="black" points="324.64,-187 321.64,-191 300.64,-191 297.64,-187 143.36,-187 143.36,-151 324.64,-151 324.64,-187"/>
<text text-anchor="middle" x="234" y="-164.8" font-family="Times,serif" font-size="14.00">ReusableComponentsModule</text>
</g>
<!-- CommunityEmailsListComponent&#45;&gt;ReusableComponentsModule -->
<g id="edge1" class="edge">
<title>CommunityEmailsListComponent&#45;&gt;ReusableComponentsModule</title>
<path fill="none" stroke="black" d="M271.19,-122.11C271.19,-122.11 271.19,-140.99 271.19,-140.99"/>
<polygon fill="black" stroke="black" points="267.69,-140.99 271.19,-150.99 274.69,-140.99 267.69,-140.99"/>
</g>
<!-- LabCardComponent -->
<g id="node2" class="node">
<title>LabCardComponent</title>
<polygon fill="#ffffb3" stroke="black" points="199.31,-122 68.69,-122 68.69,-86 199.31,-86 199.31,-122"/>
<text text-anchor="middle" x="134" y="-99.8" font-family="Times,serif" font-size="14.00">LabCardComponent</text>
</g>
<!-- LabCardComponent&#45;&gt;ReusableComponentsModule -->
<g id="edge2" class="edge">
<title>LabCardComponent&#45;&gt;ReusableComponentsModule</title>
<path fill="none" stroke="black" d="M171.17,-122.11C171.17,-122.11 171.17,-140.99 171.17,-140.99"/>
<polygon fill="black" stroke="black" points="167.67,-140.99 171.17,-150.99 174.67,-140.99 167.67,-140.99"/>
</g>
<!-- CommunityEmailsListComponent  -->
<g id="node4" class="node">
<title>CommunityEmailsListComponent </title>
<polygon fill="#fb8072" stroke="black" points="430.39,-252 217.61,-252 217.61,-216 430.39,-216 430.39,-252"/>
<text text-anchor="middle" x="324" y="-229.8" font-family="Times,serif" font-size="14.00">CommunityEmailsListComponent </text>
</g>
<!-- ReusableComponentsModule&#45;&gt;CommunityEmailsListComponent  -->
<g id="edge3" class="edge">
<title>ReusableComponentsModule&#45;&gt;CommunityEmailsListComponent </title>
<path fill="none" stroke="black" stroke-dasharray="5,2" d="M271.31,-187.11C271.31,-187.11 271.31,-205.99 271.31,-205.99"/>
<polygon fill="black" stroke="black" points="267.81,-205.99 271.31,-215.99 274.81,-205.99 267.81,-205.99"/>
</g>
<!-- LabCardComponent  -->
<g id="node5" class="node">
<title>LabCardComponent </title>
<polygon fill="#fb8072" stroke="black" points="199.81,-252 66.19,-252 66.19,-216 199.81,-216 199.81,-252"/>
<text text-anchor="middle" x="133" y="-229.8" font-family="Times,serif" font-size="14.00">LabCardComponent </text>
</g>
<!-- ReusableComponentsModule&#45;&gt;LabCardComponent  -->
<g id="edge4" class="edge">
<title>ReusableComponentsModule&#45;&gt;LabCardComponent </title>
<path fill="none" stroke="black" stroke-dasharray="5,2" d="M171.54,-187.11C171.54,-187.11 171.54,-205.99 171.54,-205.99"/>
<polygon fill="black" stroke="black" points="168.04,-205.99 171.54,-215.99 175.04,-205.99 168.04,-205.99"/>
</g>
</g>
</svg>
