<?xml version="1.0" encoding="UTF-8" standalone="no"?>
<!DOCTYPE svg PUBLIC "-//W3C//DTD SVG 1.1//EN"
 "http://www.w3.org/Graphics/SVG/1.1/DTD/svg11.dtd">
<!-- Generated by graphviz version 5.0.0 (20220707.1540)
 -->
<!-- Title: dependencies Pages: 1 -->
<svg width="420pt" height="247pt"
 viewBox="0.00 0.00 420.00 246.80" xmlns="http://www.w3.org/2000/svg" xmlns:xlink="http://www.w3.org/1999/xlink">
<g id="graph0" class="graph" transform="scale(1 1) rotate(0) translate(4 242.8)">
<title>dependencies</title>
<polygon fill="white" stroke="transparent" points="-4,4 -4,-242.8 416,-242.8 416,4 -4,4"/>
<text text-anchor="middle" x="206" y="-8.2" font-family="sans-serif" font-size="14.00">dependencies</text>
<g id="clust1" class="cluster">
<title>cluster_ReusableComponentsModule</title>
<polygon fill="none" stroke="black" stroke-dasharray="1,5" points="8,-32.8 8,-230.8 404,-230.8 404,-32.8 8,-32.8"/>
</g>
<g id="clust2" class="cluster">
<title>cluster_ReusableComponentsModule_declarations</title>
<polygon fill="none" stroke="black" points="19,-40.8 19,-92.8 392,-92.8 392,-40.8 19,-40.8"/>
</g>
<g id="clust6" class="cluster">
<title>cluster_ReusableComponentsModule_exports</title>
<polygon fill="none" stroke="black" points="16,-170.8 16,-222.8 396,-222.8 396,-170.8 16,-170.8"/>
</g>
<!-- CommunityEmailsListComponent -->
<g id="node1" class="node">
<title>CommunityEmailsListComponent</title>
<polygon fill="#ffffb3" stroke="black" points="384.39,-84.8 175.61,-84.8 175.61,-48.8 384.39,-48.8 384.39,-84.8"/>
<text text-anchor="middle" x="280" y="-62.6" font-family="Times,serif" font-size="14.00">CommunityEmailsListComponent</text>
</g>
<!-- ReusableComponentsModule -->
<g id="node3" class="node">
<title>ReusableComponentsModule</title>
<polygon fill="#8dd3c7" stroke="black" points="282.65,-149.8 279.65,-153.8 258.65,-153.8 255.65,-149.8 101.35,-149.8 101.35,-113.8 282.65,-113.8 282.65,-149.8"/>
<text text-anchor="middle" x="192" y="-127.6" font-family="Times,serif" font-size="14.00">ReusableComponentsModule</text>
</g>
<!-- CommunityEmailsListComponent&#45;&gt;ReusableComponentsModule -->
<g id="edge1" class="edge">
<title>CommunityEmailsListComponent&#45;&gt;ReusableComponentsModule</title>
<path fill="none" stroke="black" d="M229.19,-84.91C229.19,-84.91 229.19,-103.79 229.19,-103.79"/>
<polygon fill="black" stroke="black" points="225.69,-103.79 229.19,-113.79 232.69,-103.79 225.69,-103.79"/>
</g>
<!-- LabCardComponent -->
<g id="node2" class="node">
<title>LabCardComponent</title>
<polygon fill="#ffffb3" stroke="black" points="157.31,-84.8 26.69,-84.8 26.69,-48.8 157.31,-48.8 157.31,-84.8"/>
<text text-anchor="middle" x="92" y="-62.6" font-family="Times,serif" font-size="14.00">LabCardComponent</text>
</g>
<!-- LabCardComponent&#45;&gt;ReusableComponentsModule -->
<g id="edge2" class="edge">
<title>LabCardComponent&#45;&gt;ReusableComponentsModule</title>
<path fill="none" stroke="black" d="M129.17,-84.91C129.17,-84.91 129.17,-103.79 129.17,-103.79"/>
<polygon fill="black" stroke="black" points="125.67,-103.79 129.17,-113.79 132.67,-103.79 125.67,-103.79"/>
</g>
<!-- CommunityEmailsListComponent  -->
<g id="node4" class="node">
<title>CommunityEmailsListComponent </title>
<polygon fill="#fb8072" stroke="black" points="388.39,-214.8 175.61,-214.8 175.61,-178.8 388.39,-178.8 388.39,-214.8"/>
<text text-anchor="middle" x="282" y="-192.6" font-family="Times,serif" font-size="14.00">CommunityEmailsListComponent </text>
</g>
<!-- ReusableComponentsModule&#45;&gt;CommunityEmailsListComponent  -->
<g id="edge3" class="edge">
<title>ReusableComponentsModule&#45;&gt;CommunityEmailsListComponent </title>
<path fill="none" stroke="black" stroke-dasharray="5,2" d="M229.31,-149.91C229.31,-149.91 229.31,-168.79 229.31,-168.79"/>
<polygon fill="black" stroke="black" points="225.81,-168.79 229.31,-178.79 232.81,-168.79 225.81,-168.79"/>
</g>
<!-- LabCardComponent  -->
<g id="node5" class="node">
<title>LabCardComponent </title>
<polygon fill="#fb8072" stroke="black" points="157.81,-214.8 24.19,-214.8 24.19,-178.8 157.81,-178.8 157.81,-214.8"/>
<text text-anchor="middle" x="91" y="-192.6" font-family="Times,serif" font-size="14.00">LabCardComponent </text>
</g>
<!-- ReusableComponentsModule&#45;&gt;LabCardComponent  -->
<g id="edge4" class="edge">
<title>ReusableComponentsModule&#45;&gt;LabCardComponent </title>
<path fill="none" stroke="black" stroke-dasharray="5,2" d="M129.54,-149.91C129.54,-149.91 129.54,-168.79 129.54,-168.79"/>
<polygon fill="black" stroke="black" points="126.04,-168.79 129.54,-178.79 133.04,-168.79 126.04,-168.79"/>
</g>
</g>
</svg>
