<?xml version="1.0" encoding="UTF-8" standalone="no"?>
<!DOCTYPE svg PUBLIC "-//W3C//DTD SVG 1.1//EN"
 "http://www.w3.org/Graphics/SVG/1.1/DTD/svg11.dtd">
<!-- Generated by graphviz version 5.0.0 (20220707.1540)
 -->
<!-- Title: dependencies Pages: 1 -->
<svg width="1701pt" height="247pt"
 viewBox="0.00 0.00 1701.00 246.80" xmlns="http://www.w3.org/2000/svg" xmlns:xlink="http://www.w3.org/1999/xlink">
<g id="graph0" class="graph" transform="scale(1 1) rotate(0) translate(4 242.8)">
<title>dependencies</title>
<polygon fill="white" stroke="transparent" points="-4,4 -4,-242.8 1697,-242.8 1697,4 -4,4"/>
<text text-anchor="middle" x="846.5" y="-8.2" font-family="sans-serif" font-size="14.00">dependencies</text>
<g id="clust1" class="cluster">
<title>cluster_HmsVideoModule</title>
<polygon fill="none" stroke="black" stroke-dasharray="1,5" points="8,-32.8 8,-230.8 1685,-230.8 1685,-32.8 8,-32.8"/>
</g>
<g id="clust11" class="cluster">
<title>cluster_HmsVideoModule_imports</title>
<polygon fill="none" stroke="black" points="1505,-40.8 1505,-92.8 1677,-92.8 1677,-40.8 1505,-40.8"/>
</g>
<g id="clust12" class="cluster">
<title>cluster_HmsVideoModule_exports</title>
<polygon fill="none" stroke="black" points="705,-170.8 705,-222.8 867,-222.8 867,-170.8 705,-170.8"/>
</g>
<g id="clust2" class="cluster">
<title>cluster_HmsVideoModule_declarations</title>
<polygon fill="none" stroke="black" points="16,-40.8 16,-92.8 1497,-92.8 1497,-40.8 16,-40.8"/>
</g>
<!-- ConferenceComponent -->
<g id="node1" class="node">
<title>ConferenceComponent</title>
<polygon fill="#ffffb3" stroke="black" points="1488.85,-84.8 1343.15,-84.8 1343.15,-48.8 1488.85,-48.8 1488.85,-84.8"/>
<text text-anchor="middle" x="1416" y="-62.6" font-family="Times,serif" font-size="14.00">ConferenceComponent</text>
</g>
<!-- HmsVideoModule -->
<g id="node9" class="node">
<title>HmsVideoModule</title>
<polygon fill="#8dd3c7" stroke="black" points="846.21,-149.8 843.21,-153.8 822.21,-153.8 819.21,-149.8 725.79,-149.8 725.79,-113.8 846.21,-113.8 846.21,-149.8"/>
<text text-anchor="middle" x="786" y="-127.6" font-family="Times,serif" font-size="14.00">HmsVideoModule</text>
</g>
<!-- ConferenceComponent&#45;&gt;HmsVideoModule -->
<g id="edge1" class="edge">
<title>ConferenceComponent&#45;&gt;HmsVideoModule</title>
<path fill="none" stroke="black" d="M1416,-84.93C1416,-105.37 1416,-135.8 1416,-135.8 1416,-135.8 856.12,-135.8 856.12,-135.8"/>
<polygon fill="black" stroke="black" points="856.12,-132.3 846.12,-135.8 856.12,-139.3 856.12,-132.3"/>
</g>
<!-- ConferenceSettingsComponent -->
<g id="node2" class="node">
<title>ConferenceSettingsComponent</title>
<polygon fill="#ffffb3" stroke="black" points="1325.47,-84.8 1134.53,-84.8 1134.53,-48.8 1325.47,-48.8 1325.47,-84.8"/>
<text text-anchor="middle" x="1230" y="-62.6" font-family="Times,serif" font-size="14.00">ConferenceSettingsComponent</text>
</g>
<!-- ConferenceSettingsComponent&#45;&gt;HmsVideoModule -->
<g id="edge2" class="edge">
<title>ConferenceSettingsComponent&#45;&gt;HmsVideoModule</title>
<path fill="none" stroke="black" d="M1230,-85.07C1230,-103.36 1230,-128.8 1230,-128.8 1230,-128.8 856.34,-128.8 856.34,-128.8"/>
<polygon fill="black" stroke="black" points="856.34,-125.3 846.34,-128.8 856.34,-132.3 856.34,-125.3"/>
</g>
<!-- ConferenceUserVideoComponent -->
<g id="node3" class="node">
<title>ConferenceUserVideoComponent</title>
<polygon fill="#ffffb3" stroke="black" points="1116.5,-84.8 909.5,-84.8 909.5,-48.8 1116.5,-48.8 1116.5,-84.8"/>
<text text-anchor="middle" x="1013" y="-62.6" font-family="Times,serif" font-size="14.00">ConferenceUserVideoComponent</text>
</g>
<!-- ConferenceUserVideoComponent&#45;&gt;HmsVideoModule -->
<g id="edge3" class="edge">
<title>ConferenceUserVideoComponent&#45;&gt;HmsVideoModule</title>
<path fill="none" stroke="black" d="M1013,-84.81C1013,-100.85 1013,-121.8 1013,-121.8 1013,-121.8 856.24,-121.8 856.24,-121.8"/>
<polygon fill="black" stroke="black" points="856.24,-118.3 846.24,-121.8 856.24,-125.3 856.24,-118.3"/>
</g>
<!-- ConferenceUserVideosComponent -->
<g id="node4" class="node">
<title>ConferenceUserVideosComponent</title>
<polygon fill="#ffffb3" stroke="black" points="891.95,-84.8 680.05,-84.8 680.05,-48.8 891.95,-48.8 891.95,-84.8"/>
<text text-anchor="middle" x="786" y="-62.6" font-family="Times,serif" font-size="14.00">ConferenceUserVideosComponent</text>
</g>
<!-- ConferenceUserVideosComponent&#45;&gt;HmsVideoModule -->
<g id="edge4" class="edge">
<title>ConferenceUserVideosComponent&#45;&gt;HmsVideoModule</title>
<path fill="none" stroke="black" d="M786,-84.91C786,-84.91 786,-103.79 786,-103.79"/>
<polygon fill="black" stroke="black" points="782.5,-103.79 786,-113.79 789.5,-103.79 782.5,-103.79"/>
</g>
<!-- HmsBeamComponent -->
<g id="node5" class="node">
<title>HmsBeamComponent</title>
<polygon fill="#ffffb3" stroke="black" points="662.44,-84.8 521.56,-84.8 521.56,-48.8 662.44,-48.8 662.44,-84.8"/>
<text text-anchor="middle" x="592" y="-62.6" font-family="Times,serif" font-size="14.00">HmsBeamComponent</text>
</g>
<!-- HmsBeamComponent&#45;&gt;HmsVideoModule -->
<g id="edge5" class="edge">
<title>HmsBeamComponent&#45;&gt;HmsVideoModule</title>
<path fill="none" stroke="black" d="M592,-84.81C592,-100.85 592,-121.8 592,-121.8 592,-121.8 715.68,-121.8 715.68,-121.8"/>
<polygon fill="black" stroke="black" points="715.68,-125.3 725.68,-121.8 715.68,-118.3 715.68,-125.3"/>
</g>
<!-- HmsVideoComponent -->
<g id="node6" class="node">
<title>HmsVideoComponent</title>
<polygon fill="#ffffb3" stroke="black" points="503.99,-84.8 362.01,-84.8 362.01,-48.8 503.99,-48.8 503.99,-84.8"/>
<text text-anchor="middle" x="433" y="-62.6" font-family="Times,serif" font-size="14.00">HmsVideoComponent</text>
</g>
<!-- HmsVideoComponent&#45;&gt;HmsVideoModule -->
<g id="edge6" class="edge">
<title>HmsVideoComponent&#45;&gt;HmsVideoModule</title>
<path fill="none" stroke="black" d="M433,-85.07C433,-103.36 433,-128.8 433,-128.8 433,-128.8 715.72,-128.8 715.72,-128.8"/>
<polygon fill="black" stroke="black" points="715.72,-132.3 725.72,-128.8 715.72,-125.3 715.72,-132.3"/>
</g>
<!-- LocalPreviewComponent -->
<g id="node7" class="node">
<title>LocalPreviewComponent</title>
<polygon fill="#ffffb3" stroke="black" points="343.58,-84.8 184.42,-84.8 184.42,-48.8 343.58,-48.8 343.58,-84.8"/>
<text text-anchor="middle" x="264" y="-62.6" font-family="Times,serif" font-size="14.00">LocalPreviewComponent</text>
</g>
<!-- LocalPreviewComponent&#45;&gt;HmsVideoModule -->
<g id="edge7" class="edge">
<title>LocalPreviewComponent&#45;&gt;HmsVideoModule</title>
<path fill="none" stroke="black" d="M264,-84.93C264,-105.37 264,-135.8 264,-135.8 264,-135.8 715.87,-135.8 715.87,-135.8"/>
<polygon fill="black" stroke="black" points="715.87,-139.3 725.87,-135.8 715.87,-132.3 715.87,-139.3"/>
</g>
<!-- SelectRoleComponent -->
<g id="node8" class="node">
<title>SelectRoleComponent</title>
<polygon fill="#ffffb3" stroke="black" points="165.98,-84.8 24.02,-84.8 24.02,-48.8 165.98,-48.8 165.98,-84.8"/>
<text text-anchor="middle" x="95" y="-62.6" font-family="Times,serif" font-size="14.00">SelectRoleComponent</text>
</g>
<!-- SelectRoleComponent&#45;&gt;HmsVideoModule -->
<g id="edge8" class="edge">
<title>SelectRoleComponent&#45;&gt;HmsVideoModule</title>
<path fill="none" stroke="black" d="M95,-84.81C95,-107.29 95,-142.8 95,-142.8 95,-142.8 715.89,-142.8 715.89,-142.8"/>
<polygon fill="black" stroke="black" points="715.89,-146.3 725.89,-142.8 715.89,-139.3 715.89,-146.3"/>
</g>
<!-- HmsVideoComponent  -->
<g id="node11" class="node">
<title>HmsVideoComponent </title>
<polygon fill="#fb8072" stroke="black" points="858.99,-214.8 713.01,-214.8 713.01,-178.8 858.99,-178.8 858.99,-214.8"/>
<text text-anchor="middle" x="786" y="-192.6" font-family="Times,serif" font-size="14.00">HmsVideoComponent </text>
</g>
<!-- HmsVideoModule&#45;&gt;HmsVideoComponent  -->
<g id="edge10" class="edge">
<title>HmsVideoModule&#45;&gt;HmsVideoComponent </title>
<path fill="none" stroke="black" stroke-dasharray="5,2" d="M786,-149.91C786,-149.91 786,-168.79 786,-168.79"/>
<polygon fill="black" stroke="black" points="782.5,-168.79 786,-178.79 789.5,-168.79 782.5,-168.79"/>
</g>
<!-- SharedDirectivesModule -->
<g id="node10" class="node">
<title>SharedDirectivesModule</title>
<polygon fill="#8dd3c7" stroke="black" points="1668.96,-84.8 1665.96,-88.8 1644.96,-88.8 1641.96,-84.8 1513.04,-84.8 1513.04,-48.8 1668.96,-48.8 1668.96,-84.8"/>
<text text-anchor="middle" x="1591" y="-62.6" font-family="Times,serif" font-size="14.00">SharedDirectivesModule</text>
</g>
<!-- SharedDirectivesModule&#45;&gt;HmsVideoModule -->
<g id="edge9" class="edge">
<title>SharedDirectivesModule&#45;&gt;HmsVideoModule</title>
<path fill="none" stroke="black" d="M1591,-84.81C1591,-107.29 1591,-142.8 1591,-142.8 1591,-142.8 856.18,-142.8 856.18,-142.8"/>
<polygon fill="black" stroke="black" points="856.18,-139.3 846.18,-142.8 856.18,-146.3 856.18,-139.3"/>
</g>
</g>
</svg>
