<?xml version="1.0" encoding="UTF-8" standalone="no"?>
<!DOCTYPE svg PUBLIC "-//W3C//DTD SVG 1.1//EN"
 "http://www.w3.org/Graphics/SVG/1.1/DTD/svg11.dtd">
<!-- Generated by graphviz version 2.47.0 (20210316.0004)
 -->
<!-- Title: dependencies Pages: 1 -->
<svg width="1004pt" height="284pt"
     viewBox="0.00 0.00 1004.00 284.00" xmlns="http://www.w3.org/2000/svg">
<g id="graph0" class="graph" transform="scale(1 1) rotate(0) translate(4 280)">
<title>dependencies</title>
<polygon fill="white" stroke="transparent" points="-4,4 -4,-280 1000,-280 1000,4 -4,4"/>
<text text-anchor="start" x="477.01" y="-42.4" font-family="sans-serif" font-weight="bold" font-size="14.00">Legend</text>
<polygon fill="#ffffb3" stroke="transparent" points="264,-10 264,-30 284,-30 284,-10 264,-10"/>
<text text-anchor="start" x="287.63" y="-15.4" font-family="sans-serif" font-size="14.00"> &#160;Declarations</text>
<polygon fill="#8dd3c7" stroke="transparent" points="377,-10 377,-30 397,-30 397,-10 377,-10"/>
<text text-anchor="start" x="400.73" y="-15.4" font-family="sans-serif" font-size="14.00"> &#160;Module</text>
<polygon fill="#80b1d3" stroke="transparent" points="463,-10 463,-30 483,-30 483,-10 463,-10"/>
<text text-anchor="start" x="486.78" y="-15.4" font-family="sans-serif" font-size="14.00"> &#160;Bootstrap</text>
<polygon fill="#fdb462" stroke="transparent" points="560,-10 560,-30 580,-30 580,-10 560,-10"/>
<text text-anchor="start" x="583.67" y="-15.4" font-family="sans-serif" font-size="14.00"> &#160;Providers</text>
<polygon fill="#fb8072" stroke="transparent" points="656,-10 656,-30 676,-30 676,-10 656,-10"/>
<text text-anchor="start" x="679.73" y="-15.4" font-family="sans-serif" font-size="14.00"> &#160;Exports</text>
<g id="clust1" class="cluster">
<title>cluster_HmsVideoModule</title>
<polygon fill="none" stroke="black" stroke-dasharray="1,5" points="8,-70 8,-268 988,-268 988,-70 8,-70"/>
</g>
<g id="clust10" class="cluster">
<title>cluster_HmsVideoModule_exports</title>
<polygon fill="none" stroke="black" points="402,-208 402,-260 564,-260 564,-208 402,-208"/>
</g>
<g id="clust2" class="cluster">
<title>cluster_HmsVideoModule_declarations</title>
<polygon fill="none" stroke="black" points="16,-78 16,-130 980,-130 980,-78 16,-78"/>
</g>
<!-- ConferenceComponent -->
<g id="node1" class="node">
<title>ConferenceComponent</title>
<polygon fill="#ffffb3" stroke="black" points="971.85,-122 826.15,-122 826.15,-86 971.85,-86 971.85,-122"/>
<text text-anchor="middle" x="899" y="-99.8" font-family="Times,serif" font-size="14.00">ConferenceComponent</text>
</g>
<!-- HmsVideoModule -->
<g id="node7" class="node">
<title>HmsVideoModule</title>
<polygon fill="#8dd3c7" stroke="black" points="543.2,-187 540.2,-191 519.2,-191 516.2,-187 422.8,-187 422.8,-151 543.2,-151 543.2,-187"/>
<text text-anchor="middle" x="483" y="-164.8" font-family="Times,serif" font-size="14.00">HmsVideoModule</text>
</g>
<!-- ConferenceComponent&#45;&gt;HmsVideoModule -->
<g id="edge1" class="edge">
<title>ConferenceComponent&#45;&gt;HmsVideoModule</title>
<path fill="none" stroke="black" d="M899,-122.28C899,-143.32 899,-175 899,-175 899,-175 553.49,-175 553.49,-175"/>
<polygon fill="black" stroke="black" points="553.49,-171.5 543.49,-175 553.49,-178.5 553.49,-171.5"/>
</g>
<!-- HmsVideoComponent -->
<g id="node2" class="node">
<title>HmsVideoComponent</title>
<polygon fill="#ffffb3" stroke="black" points="807.99,-122 666.01,-122 666.01,-86 807.99,-86 807.99,-122"/>
<text text-anchor="middle" x="737" y="-99.8" font-family="Times,serif" font-size="14.00">HmsVideoComponent</text>
</g>
<!-- HmsVideoComponent&#45;&gt;HmsVideoModule -->
<g id="edge2" class="edge">
<title>HmsVideoComponent&#45;&gt;HmsVideoModule</title>
<path fill="none" stroke="black" d="M737,-122.02C737,-139.37 737,-163 737,-163 737,-163 553.19,-163 553.19,-163"/>
<polygon fill="black" stroke="black" points="553.19,-159.5 543.19,-163 553.19,-166.5 553.19,-159.5"/>
</g>
<!-- LocalPreviewComponent -->
<g id="node3" class="node">
<title>LocalPreviewComponent</title>
<polygon fill="#ffffb3" stroke="black" points="647.57,-122 488.43,-122 488.43,-86 647.57,-86 647.57,-122"/>
<text text-anchor="middle" x="568" y="-99.8" font-family="Times,serif" font-size="14.00">LocalPreviewComponent</text>
</g>
<!-- LocalPreviewComponent&#45;&gt;HmsVideoModule -->
<g id="edge3" class="edge">
<title>LocalPreviewComponent&#45;&gt;HmsVideoModule</title>
<path fill="none" stroke="black" d="M515.78,-122.11C515.78,-122.11 515.78,-140.99 515.78,-140.99"/>
<polygon fill="black" stroke="black" points="512.28,-140.99 515.78,-150.99 519.28,-140.99 512.28,-140.99"/>
</g>
<!-- SelectRoleComponent -->
<g id="node4" class="node">
<title>SelectRoleComponent</title>
<polygon fill="#ffffb3" stroke="black" points="469.98,-122 328.02,-122 328.02,-86 469.98,-86 469.98,-122"/>
<text text-anchor="middle" x="399" y="-99.8" font-family="Times,serif" font-size="14.00">SelectRoleComponent</text>
</g>
<!-- SelectRoleComponent&#45;&gt;HmsVideoModule -->
<g id="edge4" class="edge">
<title>SelectRoleComponent&#45;&gt;HmsVideoModule</title>
<path fill="none" stroke="black" d="M446.44,-122.11C446.44,-122.11 446.44,-140.99 446.44,-140.99"/>
<polygon fill="black" stroke="black" points="442.94,-140.99 446.44,-150.99 449.94,-140.99 442.94,-140.99"/>
</g>
<!-- SettingsComponent -->
<g id="node5" class="node">
<title>SettingsComponent</title>
<polygon fill="#ffffb3" stroke="black" points="310.45,-122 183.55,-122 183.55,-86 310.45,-86 310.45,-122"/>
<text text-anchor="middle" x="247" y="-99.8" font-family="Times,serif" font-size="14.00">SettingsComponent</text>
</g>
<!-- SettingsComponent&#45;&gt;HmsVideoModule -->
<g id="edge5" class="edge">
<title>SettingsComponent&#45;&gt;HmsVideoModule</title>
<path fill="none" stroke="black" d="M247,-122.02C247,-139.37 247,-163 247,-163 247,-163 412.84,-163 412.84,-163"/>
<polygon fill="black" stroke="black" points="412.84,-166.5 422.84,-163 412.84,-159.5 412.84,-166.5"/>
</g>
<!-- UserVideoComponent -->
<g id="node6" class="node">
<title>UserVideoComponent</title>
<polygon fill="#ffffb3" stroke="black" points="165.97,-122 24.03,-122 24.03,-86 165.97,-86 165.97,-122"/>
<text text-anchor="middle" x="95" y="-99.8" font-family="Times,serif" font-size="14.00">UserVideoComponent</text>
</g>
<!-- UserVideoComponent&#45;&gt;HmsVideoModule -->
<g id="edge6" class="edge">
<title>UserVideoComponent&#45;&gt;HmsVideoModule</title>
<path fill="none" stroke="black" d="M95,-122.28C95,-143.32 95,-175 95,-175 95,-175 412.8,-175 412.8,-175"/>
<polygon fill="black" stroke="black" points="412.8,-178.5 422.8,-175 412.8,-171.5 412.8,-178.5"/>
</g>
<!-- HmsVideoComponent  -->
<g id="node8" class="node">
<title>HmsVideoComponent </title>
<polygon fill="#fb8072" stroke="black" points="555.99,-252 410.01,-252 410.01,-216 555.99,-216 555.99,-252"/>
<text text-anchor="middle" x="483" y="-229.8" font-family="Times,serif" font-size="14.00">HmsVideoComponent </text>
</g>
<!-- HmsVideoModule&#45;&gt;HmsVideoComponent  -->
<g id="edge7" class="edge">
<title>HmsVideoModule&#45;&gt;HmsVideoComponent </title>
<path fill="none" stroke="black" stroke-dasharray="5,2" d="M483,-187.11C483,-187.11 483,-205.99 483,-205.99"/>
<polygon fill="black" stroke="black" points="479.5,-205.99 483,-215.99 486.5,-205.99 479.5,-205.99"/>
</g>
</g>
</svg>
