<?xml version="1.0" encoding="UTF-8" standalone="no"?>
<!DOCTYPE svg PUBLIC "-//W3C//DTD SVG 1.1//EN"
 "http://www.w3.org/Graphics/SVG/1.1/DTD/svg11.dtd">
<!-- Generated by graphviz version 2.47.3 (20210619.1520)
 -->
<!-- Title: dependencies Pages: 1 -->
<svg width="2735pt" height="247pt"
 viewBox="0.00 0.00 2735.00 246.80" xmlns="http://www.w3.org/2000/svg" xmlns:xlink="http://www.w3.org/1999/xlink">
<g id="graph0" class="graph" transform="scale(1 1) rotate(0) translate(4 242.8)">
<title>dependencies</title>
<polygon fill="white" stroke="transparent" points="-4,4 -4,-242.8 2731,-242.8 2731,4 -4,4"/>
<text text-anchor="middle" x="1363.5" y="-8.2" font-family="sans-serif" font-size="14.00">dependencies</text>
<g id="clust1" class="cluster">
<title>cluster_HmsVideoModule</title>
<polygon fill="none" stroke="black" stroke-dasharray="1,5" points="8,-32.8 8,-230.8 2719,-230.8 2719,-32.8 8,-32.8"/>
</g>
<g id="clust18" class="cluster">
<title>cluster_HmsVideoModule_exports</title>
<polygon fill="none" stroke="black" points="1122,-170.8 1122,-222.8 1464,-222.8 1464,-170.8 1122,-170.8"/>
</g>
<g id="clust2" class="cluster">
<title>cluster_HmsVideoModule_declarations</title>
<polygon fill="none" stroke="black" points="196,-40.8 196,-92.8 2711,-92.8 2711,-40.8 196,-40.8"/>
</g>
<g id="clust17" class="cluster">
<title>cluster_HmsVideoModule_imports</title>
<polygon fill="none" stroke="black" points="16,-40.8 16,-92.8 188,-92.8 188,-40.8 16,-40.8"/>
</g>
<!-- ConferenceComponent -->
<g id="node1" class="node">
<title>ConferenceComponent</title>
<polygon fill="#ffffb3" stroke="black" points="2702.85,-84.8 2557.15,-84.8 2557.15,-48.8 2702.85,-48.8 2702.85,-84.8"/>
<text text-anchor="middle" x="2630" y="-62.6" font-family="Times,serif" font-size="14.00">ConferenceComponent</text>
</g>
<!-- HmsVideoModule -->
<g id="node15" class="node">
<title>HmsVideoModule</title>
<polygon fill="#8dd3c7" stroke="black" points="1357.2,-149.8 1354.2,-153.8 1333.2,-153.8 1330.2,-149.8 1236.8,-149.8 1236.8,-113.8 1357.2,-113.8 1357.2,-149.8"/>
<text text-anchor="middle" x="1297" y="-127.6" font-family="Times,serif" font-size="14.00">HmsVideoModule</text>
</g>
<!-- ConferenceComponent&#45;&gt;HmsVideoModule -->
<g id="edge1" class="edge">
<title>ConferenceComponent&#45;&gt;HmsVideoModule</title>
<path fill="none" stroke="black" d="M2630,-85.12C2630,-108.46 2630,-145.8 2630,-145.8 2630,-145.8 1367.3,-145.8 1367.3,-145.8"/>
<polygon fill="black" stroke="black" points="1367.3,-142.3 1357.3,-145.8 1367.3,-149.3 1367.3,-142.3"/>
</g>
<!-- ConferenceSettingsComponent -->
<g id="node2" class="node">
<title>ConferenceSettingsComponent</title>
<polygon fill="#ffffb3" stroke="black" points="2539.46,-84.8 2348.54,-84.8 2348.54,-48.8 2539.46,-48.8 2539.46,-84.8"/>
<text text-anchor="middle" x="2444" y="-62.6" font-family="Times,serif" font-size="14.00">ConferenceSettingsComponent</text>
</g>
<!-- ConferenceSettingsComponent&#45;&gt;HmsVideoModule -->
<g id="edge2" class="edge">
<title>ConferenceSettingsComponent&#45;&gt;HmsVideoModule</title>
<path fill="none" stroke="black" d="M2444,-85.09C2444,-107.01 2444,-140.8 2444,-140.8 2444,-140.8 1367.45,-140.8 1367.45,-140.8"/>
<polygon fill="black" stroke="black" points="1367.45,-137.3 1357.45,-140.8 1367.45,-144.3 1367.45,-137.3"/>
</g>
<!-- ConferenceUserVideoComponent -->
<g id="node3" class="node">
<title>ConferenceUserVideoComponent</title>
<polygon fill="#ffffb3" stroke="black" points="2330.49,-84.8 2123.51,-84.8 2123.51,-48.8 2330.49,-48.8 2330.49,-84.8"/>
<text text-anchor="middle" x="2227" y="-62.6" font-family="Times,serif" font-size="14.00">ConferenceUserVideoComponent</text>
</g>
<!-- ConferenceUserVideoComponent&#45;&gt;HmsVideoModule -->
<g id="edge3" class="edge">
<title>ConferenceUserVideoComponent&#45;&gt;HmsVideoModule</title>
<path fill="none" stroke="black" d="M2227,-84.83C2227,-105.57 2227,-136.8 2227,-136.8 2227,-136.8 1367.3,-136.8 1367.3,-136.8"/>
<polygon fill="black" stroke="black" points="1367.3,-133.3 1357.3,-136.8 1367.3,-140.3 1367.3,-133.3"/>
</g>
<!-- ConferenceUserVideosComponent -->
<g id="node4" class="node">
<title>ConferenceUserVideosComponent</title>
<polygon fill="#ffffb3" stroke="black" points="2105.93,-84.8 1894.07,-84.8 1894.07,-48.8 2105.93,-48.8 2105.93,-84.8"/>
<text text-anchor="middle" x="2000" y="-62.6" font-family="Times,serif" font-size="14.00">ConferenceUserVideosComponent</text>
</g>
<!-- ConferenceUserVideosComponent&#45;&gt;HmsVideoModule -->
<g id="edge4" class="edge">
<title>ConferenceUserVideosComponent&#45;&gt;HmsVideoModule</title>
<path fill="none" stroke="black" d="M2000,-84.91C2000,-104.14 2000,-131.8 2000,-131.8 2000,-131.8 1367.24,-131.8 1367.24,-131.8"/>
<polygon fill="black" stroke="black" points="1367.24,-128.3 1357.24,-131.8 1367.24,-135.3 1367.24,-128.3"/>
</g>
<!-- ConferenceV2Component -->
<g id="node5" class="node">
<title>ConferenceV2Component</title>
<polygon fill="#ffffb3" stroke="black" points="1876.46,-84.8 1713.54,-84.8 1713.54,-48.8 1876.46,-48.8 1876.46,-84.8"/>
<text text-anchor="middle" x="1795" y="-62.6" font-family="Times,serif" font-size="14.00">ConferenceV2Component</text>
</g>
<!-- ConferenceV2Component&#45;&gt;HmsVideoModule -->
<g id="edge5" class="edge">
<title>ConferenceV2Component&#45;&gt;HmsVideoModule</title>
<path fill="none" stroke="black" d="M1795,-85.1C1795,-103.07 1795,-127.8 1795,-127.8 1795,-127.8 1367.57,-127.8 1367.57,-127.8"/>
<polygon fill="black" stroke="black" points="1367.57,-124.3 1357.57,-127.8 1367.57,-131.3 1367.57,-124.3"/>
</g>
<!-- HmsBeamComponent -->
<g id="node6" class="node">
<title>HmsBeamComponent</title>
<polygon fill="#ffffb3" stroke="black" points="1695.43,-84.8 1554.57,-84.8 1554.57,-48.8 1695.43,-48.8 1695.43,-84.8"/>
<text text-anchor="middle" x="1625" y="-62.6" font-family="Times,serif" font-size="14.00">HmsBeamComponent</text>
</g>
<!-- HmsBeamComponent&#45;&gt;HmsVideoModule -->
<g id="edge6" class="edge">
<title>HmsBeamComponent&#45;&gt;HmsVideoModule</title>
<path fill="none" stroke="black" d="M1625,-84.83C1625,-101.2 1625,-122.8 1625,-122.8 1625,-122.8 1367.16,-122.8 1367.16,-122.8"/>
<polygon fill="black" stroke="black" points="1367.16,-119.3 1357.16,-122.8 1367.16,-126.3 1367.16,-119.3"/>
</g>
<!-- HmsVideoComponent -->
<g id="node7" class="node">
<title>HmsVideoComponent</title>
<polygon fill="#ffffb3" stroke="black" points="1536.99,-84.8 1395.01,-84.8 1395.01,-48.8 1536.99,-48.8 1536.99,-84.8"/>
<text text-anchor="middle" x="1466" y="-62.6" font-family="Times,serif" font-size="14.00">HmsVideoComponent</text>
</g>
<!-- HmsVideoComponent&#45;&gt;HmsVideoModule -->
<g id="edge7" class="edge">
<title>HmsVideoComponent&#45;&gt;HmsVideoModule</title>
<path fill="none" stroke="black" d="M1425.38,-84.99C1425.38,-99.98 1425.38,-118.8 1425.38,-118.8 1425.38,-118.8 1367.43,-118.8 1367.43,-118.8"/>
<polygon fill="black" stroke="black" points="1367.43,-115.3 1357.43,-118.8 1367.43,-122.3 1367.43,-115.3"/>
</g>
<!-- HmsVideoV2Component -->
<g id="node8" class="node">
<title>HmsVideoV2Component</title>
<polygon fill="#ffffb3" stroke="black" points="1376.59,-84.8 1217.41,-84.8 1217.41,-48.8 1376.59,-48.8 1376.59,-84.8"/>
<text text-anchor="middle" x="1297" y="-62.6" font-family="Times,serif" font-size="14.00">HmsVideoV2Component</text>
</g>
<!-- HmsVideoV2Component&#45;&gt;HmsVideoModule -->
<g id="edge8" class="edge">
<title>HmsVideoV2Component&#45;&gt;HmsVideoModule</title>
<path fill="none" stroke="black" d="M1297,-84.91C1297,-84.91 1297,-103.79 1297,-103.79"/>
<polygon fill="black" stroke="black" points="1293.5,-103.79 1297,-113.79 1300.5,-103.79 1293.5,-103.79"/>
</g>
<!-- LocalPreviewComponent -->
<g id="node9" class="node">
<title>LocalPreviewComponent</title>
<polygon fill="#ffffb3" stroke="black" points="1199.57,-84.8 1040.43,-84.8 1040.43,-48.8 1199.57,-48.8 1199.57,-84.8"/>
<text text-anchor="middle" x="1120" y="-62.6" font-family="Times,serif" font-size="14.00">LocalPreviewComponent</text>
</g>
<!-- LocalPreviewComponent&#45;&gt;HmsVideoModule -->
<g id="edge9" class="edge">
<title>LocalPreviewComponent&#45;&gt;HmsVideoModule</title>
<path fill="none" stroke="black" d="M1164.62,-84.99C1164.62,-99.98 1164.62,-118.8 1164.62,-118.8 1164.62,-118.8 1226.62,-118.8 1226.62,-118.8"/>
<polygon fill="black" stroke="black" points="1226.62,-122.3 1236.62,-118.8 1226.62,-115.3 1226.62,-122.3"/>
</g>
<!-- LocalPreviewV2Component -->
<g id="node10" class="node">
<title>LocalPreviewV2Component</title>
<polygon fill="#ffffb3" stroke="black" points="1022.18,-84.8 845.82,-84.8 845.82,-48.8 1022.18,-48.8 1022.18,-84.8"/>
<text text-anchor="middle" x="934" y="-62.6" font-family="Times,serif" font-size="14.00">LocalPreviewV2Component</text>
</g>
<!-- LocalPreviewV2Component&#45;&gt;HmsVideoModule -->
<g id="edge10" class="edge">
<title>LocalPreviewV2Component&#45;&gt;HmsVideoModule</title>
<path fill="none" stroke="black" d="M934,-84.83C934,-101.2 934,-122.8 934,-122.8 934,-122.8 1226.65,-122.8 1226.65,-122.8"/>
<polygon fill="black" stroke="black" points="1226.65,-126.3 1236.65,-122.8 1226.65,-119.3 1226.65,-126.3"/>
</g>
<!-- SelectRoleComponent -->
<g id="node11" class="node">
<title>SelectRoleComponent</title>
<polygon fill="#ffffb3" stroke="black" points="827.98,-84.8 686.02,-84.8 686.02,-48.8 827.98,-48.8 827.98,-84.8"/>
<text text-anchor="middle" x="757" y="-62.6" font-family="Times,serif" font-size="14.00">SelectRoleComponent</text>
</g>
<!-- SelectRoleComponent&#45;&gt;HmsVideoModule -->
<g id="edge11" class="edge">
<title>SelectRoleComponent&#45;&gt;HmsVideoModule</title>
<path fill="none" stroke="black" d="M757,-85.1C757,-103.07 757,-127.8 757,-127.8 757,-127.8 1226.89,-127.8 1226.89,-127.8"/>
<polygon fill="black" stroke="black" points="1226.89,-131.3 1236.89,-127.8 1226.89,-124.3 1226.89,-131.3"/>
</g>
<!-- SelectRoleV2Component -->
<g id="node12" class="node">
<title>SelectRoleV2Component</title>
<polygon fill="#ffffb3" stroke="black" points="667.59,-84.8 508.41,-84.8 508.41,-48.8 667.59,-48.8 667.59,-84.8"/>
<text text-anchor="middle" x="588" y="-62.6" font-family="Times,serif" font-size="14.00">SelectRoleV2Component</text>
</g>
<!-- SelectRoleV2Component&#45;&gt;HmsVideoModule -->
<g id="edge12" class="edge">
<title>SelectRoleV2Component&#45;&gt;HmsVideoModule</title>
<path fill="none" stroke="black" d="M588,-84.91C588,-104.14 588,-131.8 588,-131.8 588,-131.8 1226.86,-131.8 1226.86,-131.8"/>
<polygon fill="black" stroke="black" points="1226.86,-135.3 1236.86,-131.8 1226.86,-128.3 1226.86,-135.3"/>
</g>
<!-- SettingsComponent -->
<g id="node13" class="node">
<title>SettingsComponent</title>
<polygon fill="#ffffb3" stroke="black" points="490.45,-84.8 363.55,-84.8 363.55,-48.8 490.45,-48.8 490.45,-84.8"/>
<text text-anchor="middle" x="427" y="-62.6" font-family="Times,serif" font-size="14.00">SettingsComponent</text>
</g>
<!-- SettingsComponent&#45;&gt;HmsVideoModule -->
<g id="edge13" class="edge">
<title>SettingsComponent&#45;&gt;HmsVideoModule</title>
<path fill="none" stroke="black" d="M427,-84.83C427,-105.57 427,-136.8 427,-136.8 427,-136.8 1226.86,-136.8 1226.86,-136.8"/>
<polygon fill="black" stroke="black" points="1226.86,-140.3 1236.86,-136.8 1226.86,-133.3 1226.86,-140.3"/>
</g>
<!-- UserVideoComponent -->
<g id="node14" class="node">
<title>UserVideoComponent</title>
<polygon fill="#ffffb3" stroke="black" points="345.97,-84.8 204.03,-84.8 204.03,-48.8 345.97,-48.8 345.97,-84.8"/>
<text text-anchor="middle" x="275" y="-62.6" font-family="Times,serif" font-size="14.00">UserVideoComponent</text>
</g>
<!-- UserVideoComponent&#45;&gt;HmsVideoModule -->
<g id="edge14" class="edge">
<title>UserVideoComponent&#45;&gt;HmsVideoModule</title>
<path fill="none" stroke="black" d="M275,-85.09C275,-107.01 275,-140.8 275,-140.8 275,-140.8 1226.88,-140.8 1226.88,-140.8"/>
<polygon fill="black" stroke="black" points="1226.88,-144.3 1236.88,-140.8 1226.88,-137.3 1226.88,-144.3"/>
</g>
<!-- HmsVideoComponent  -->
<g id="node17" class="node">
<title>HmsVideoComponent </title>
<polygon fill="#fb8072" stroke="black" points="1455.99,-214.8 1310.01,-214.8 1310.01,-178.8 1455.99,-178.8 1455.99,-214.8"/>
<text text-anchor="middle" x="1383" y="-192.6" font-family="Times,serif" font-size="14.00">HmsVideoComponent </text>
</g>
<!-- HmsVideoModule&#45;&gt;HmsVideoComponent  -->
<g id="edge16" class="edge">
<title>HmsVideoModule&#45;&gt;HmsVideoComponent </title>
<path fill="none" stroke="black" stroke-dasharray="5,2" d="M1333.68,-149.91C1333.68,-149.91 1333.68,-168.79 1333.68,-168.79"/>
<polygon fill="black" stroke="black" points="1330.18,-168.79 1333.68,-178.79 1337.18,-168.79 1330.18,-168.79"/>
</g>
<!-- HmsVideoV2Component  -->
<g id="node18" class="node">
<title>HmsVideoV2Component </title>
<polygon fill="#fb8072" stroke="black" points="1292.09,-214.8 1129.91,-214.8 1129.91,-178.8 1292.09,-178.8 1292.09,-214.8"/>
<text text-anchor="middle" x="1211" y="-192.6" font-family="Times,serif" font-size="14.00">HmsVideoV2Component </text>
</g>
<!-- HmsVideoModule&#45;&gt;HmsVideoV2Component  -->
<g id="edge17" class="edge">
<title>HmsVideoModule&#45;&gt;HmsVideoV2Component </title>
<path fill="none" stroke="black" stroke-dasharray="5,2" d="M1264.6,-149.91C1264.6,-149.91 1264.6,-168.79 1264.6,-168.79"/>
<polygon fill="black" stroke="black" points="1261.1,-168.79 1264.6,-178.79 1268.1,-168.79 1261.1,-168.79"/>
</g>
<!-- SharedDirectivesModule -->
<g id="node16" class="node">
<title>SharedDirectivesModule</title>
<polygon fill="#8dd3c7" stroke="black" points="179.95,-84.8 176.95,-88.8 155.95,-88.8 152.95,-84.8 24.05,-84.8 24.05,-48.8 179.95,-48.8 179.95,-84.8"/>
<text text-anchor="middle" x="102" y="-62.6" font-family="Times,serif" font-size="14.00">SharedDirectivesModule</text>
</g>
<!-- SharedDirectivesModule&#45;&gt;HmsVideoModule -->
<g id="edge15" class="edge">
<title>SharedDirectivesModule&#45;&gt;HmsVideoModule</title>
<path fill="none" stroke="black" d="M102,-85.12C102,-108.46 102,-145.8 102,-145.8 102,-145.8 1226.51,-145.8 1226.51,-145.8"/>
<polygon fill="black" stroke="black" points="1226.51,-149.3 1236.51,-145.8 1226.51,-142.3 1226.51,-149.3"/>
</g>
</g>
</svg>
