<?xml version="1.0" encoding="UTF-8" standalone="no"?>
<!DOCTYPE svg PUBLIC "-//W3C//DTD SVG 1.1//EN"
 "http://www.w3.org/Graphics/SVG/1.1/DTD/svg11.dtd">
<!-- Generated by graphviz version 2.47.0 (20210316.0004)
 -->
<!-- Title: dependencies Pages: 1 -->
<svg width="3660pt" height="284pt"
     viewBox="0.00 0.00 3660.00 284.00" xmlns="http://www.w3.org/2000/svg">
<g id="graph0" class="graph" transform="scale(1 1) rotate(0) translate(4 280)">
<title>dependencies</title>
<polygon fill="white" stroke="transparent" points="-4,4 -4,-280 3656,-280 3656,4 -4,4"/>
<text text-anchor="start" x="1805.01" y="-42.4" font-family="sans-serif" font-weight="bold" font-size="14.00">Legend</text>
<polygon fill="#ffffb3" stroke="transparent" points="1592,-10 1592,-30 1612,-30 1612,-10 1592,-10"/>
<text text-anchor="start" x="1615.63" y="-15.4" font-family="sans-serif" font-size="14.00"> &#160;Declarations</text>
<polygon fill="#8dd3c7" stroke="transparent" points="1705,-10 1705,-30 1725,-30 1725,-10 1705,-10"/>
<text text-anchor="start" x="1728.73" y="-15.4" font-family="sans-serif" font-size="14.00"> &#160;Module</text>
<polygon fill="#80b1d3" stroke="transparent" points="1791,-10 1791,-30 1811,-30 1811,-10 1791,-10"/>
<text text-anchor="start" x="1814.78" y="-15.4" font-family="sans-serif" font-size="14.00"> &#160;Bootstrap</text>
<polygon fill="#fdb462" stroke="transparent" points="1888,-10 1888,-30 1908,-30 1908,-10 1888,-10"/>
<text text-anchor="start" x="1911.67" y="-15.4" font-family="sans-serif" font-size="14.00"> &#160;Providers</text>
<polygon fill="#fb8072" stroke="transparent" points="1984,-10 1984,-30 2004,-30 2004,-10 1984,-10"/>
<text text-anchor="start" x="2007.73" y="-15.4" font-family="sans-serif" font-size="14.00"> &#160;Exports</text>
<g id="clust1" class="cluster">
<title>cluster_CommunityChannelsModule</title>
<polygon fill="none" stroke="black" stroke-dasharray="1,5" points="8,-70 8,-268 3644,-268 3644,-70 8,-70"/>
</g>
<g id="clust2" class="cluster">
<title>cluster_CommunityChannelsModule_declarations</title>
<polygon fill="none" stroke="black" points="264,-78 264,-130 3636,-130 3636,-78 264,-78"/>
</g>
<g id="clust20" class="cluster">
<title>cluster_CommunityChannelsModule_exports</title>
<polygon fill="none" stroke="black" points="1591,-208 1591,-260 1871,-260 1871,-208 1591,-208"/>
</g>
<g id="clust19" class="cluster">
<title>cluster_CommunityChannelsModule_imports</title>
<polygon fill="none" stroke="black" points="16,-78 16,-130 256,-130 256,-78 16,-78"/>
</g>
<!-- ArchiveChannelComponent -->
<g id="node1" class="node">
<title>ArchiveChannelComponent</title>
<polygon fill="#ffffb3" stroke="black" points="3627.58,-122 3454.42,-122 3454.42,-86 3627.58,-86 3627.58,-122"/>
<text text-anchor="middle" x="3541" y="-99.8" font-family="Times,serif" font-size="14.00">ArchiveChannelComponent</text>
</g>
<!-- CommunityChannelsModule -->
<g id="node17" class="node">
<title>CommunityChannelsModule</title>
<polygon fill="#8dd3c7" stroke="black" points="1820.05,-187 1817.05,-191 1796.05,-191 1793.05,-187 1641.95,-187 1641.95,-151 1820.05,-151 1820.05,-187"/>
<text text-anchor="middle" x="1731" y="-164.8" font-family="Times,serif" font-size="14.00">CommunityChannelsModule</text>
</g>
<!-- ArchiveChannelComponent&#45;&gt;CommunityChannelsModule -->
<g id="edge1" class="edge">
<title>ArchiveChannelComponent&#45;&gt;CommunityChannelsModule</title>
<path fill="none" stroke="black" d="M3541,-122.32C3541,-145.66 3541,-183 3541,-183 3541,-183 1830.14,-183 1830.14,-183"/>
<polygon fill="black" stroke="black" points="1830.14,-179.5 1820.14,-183 1830.14,-186.5 1830.14,-179.5"/>
</g>
<!-- ChannelMembersComponent -->
<g id="node2" class="node">
<title>ChannelMembersComponent</title>
<polygon fill="#ffffb3" stroke="black" points="3436.36,-122 3255.64,-122 3255.64,-86 3436.36,-86 3436.36,-122"/>
<text text-anchor="middle" x="3346" y="-99.8" font-family="Times,serif" font-size="14.00">ChannelMembersComponent</text>
</g>
<!-- ChannelMembersComponent&#45;&gt;CommunityChannelsModule -->
<g id="edge2" class="edge">
<title>ChannelMembersComponent&#45;&gt;CommunityChannelsModule</title>
<path fill="none" stroke="black" d="M3346,-122.16C3346,-144.35 3346,-179 3346,-179 3346,-179 1830.13,-179 1830.13,-179"/>
<polygon fill="black" stroke="black" points="1830.13,-175.5 1820.13,-179 1830.13,-182.5 1830.13,-175.5"/>
</g>
<!-- ChannelSettingsComponent -->
<g id="node3" class="node">
<title>ChannelSettingsComponent</title>
<polygon fill="#ffffb3" stroke="black" points="3237.6,-122 3064.4,-122 3064.4,-86 3237.6,-86 3237.6,-122"/>
<text text-anchor="middle" x="3151" y="-99.8" font-family="Times,serif" font-size="14.00">ChannelSettingsComponent</text>
</g>
<!-- ChannelSettingsComponent&#45;&gt;CommunityChannelsModule -->
<g id="edge3" class="edge">
<title>ChannelSettingsComponent&#45;&gt;CommunityChannelsModule</title>
<path fill="none" stroke="black" d="M3151,-122.28C3151,-143.32 3151,-175 3151,-175 3151,-175 1830.1,-175 1830.1,-175"/>
<polygon fill="black" stroke="black" points="1830.1,-171.5 1820.1,-175 1830.1,-178.5 1830.1,-171.5"/>
</g>
<!-- CommunityChannelComponent -->
<g id="node4" class="node">
<title>CommunityChannelComponent</title>
<polygon fill="#ffffb3" stroke="black" points="3046.39,-122 2851.61,-122 2851.61,-86 3046.39,-86 3046.39,-122"/>
<text text-anchor="middle" x="2949" y="-99.8" font-family="Times,serif" font-size="14.00">CommunityChannelComponent</text>
</g>
<!-- CommunityChannelComponent&#45;&gt;CommunityChannelsModule -->
<g id="edge4" class="edge">
<title>CommunityChannelComponent&#45;&gt;CommunityChannelsModule</title>
<path fill="none" stroke="black" d="M2949,-122.31C2949,-142.15 2949,-171 2949,-171 2949,-171 1830.07,-171 1830.07,-171"/>
<polygon fill="black" stroke="black" points="1830.07,-167.5 1820.07,-171 1830.07,-174.5 1830.07,-167.5"/>
</g>
<!-- CommunityChannelFormComponent -->
<g id="node5" class="node">
<title>CommunityChannelFormComponent</title>
<polygon fill="#ffffb3" stroke="black" points="2833.72,-122 2608.28,-122 2608.28,-86 2833.72,-86 2833.72,-122"/>
<text text-anchor="middle" x="2721" y="-99.8" font-family="Times,serif" font-size="14.00">CommunityChannelFormComponent</text>
</g>
<!-- CommunityChannelFormComponent&#45;&gt;CommunityChannelsModule -->
<g id="edge5" class="edge">
<title>CommunityChannelFormComponent&#45;&gt;CommunityChannelsModule</title>
<path fill="none" stroke="black" d="M2721,-122.22C2721,-140.83 2721,-167 2721,-167 2721,-167 1830.16,-167 1830.16,-167"/>
<polygon fill="black" stroke="black" points="1830.16,-163.5 1820.16,-167 1830.16,-170.5 1830.16,-163.5"/>
</g>
<!-- CommunityChannelListComponent -->
<g id="node6" class="node">
<title>CommunityChannelListComponent</title>
<polygon fill="#ffffb3" stroke="black" points="2590.17,-122 2373.83,-122 2373.83,-86 2590.17,-86 2590.17,-122"/>
<text text-anchor="middle" x="2482" y="-99.8" font-family="Times,serif" font-size="14.00">CommunityChannelListComponent</text>
</g>
<!-- CommunityChannelListComponent&#45;&gt;CommunityChannelsModule -->
<g id="edge6" class="edge">
<title>CommunityChannelListComponent&#45;&gt;CommunityChannelsModule</title>
<path fill="none" stroke="black" d="M2482,-122.02C2482,-139.37 2482,-163 2482,-163 2482,-163 1830.1,-163 1830.1,-163"/>
<polygon fill="black" stroke="black" points="1830.1,-159.5 1820.1,-163 1830.1,-166.5 1830.1,-159.5"/>
</g>
<!-- CommunityChannelMessageComponent -->
<g id="node7" class="node">
<title>CommunityChannelMessageComponent</title>
<polygon fill="#ffffb3" stroke="black" points="2355.87,-122 2112.13,-122 2112.13,-86 2355.87,-86 2355.87,-122"/>
<text text-anchor="middle" x="2234" y="-99.8" font-family="Times,serif" font-size="14.00">CommunityChannelMessageComponent</text>
</g>
<!-- CommunityChannelMessageComponent&#45;&gt;CommunityChannelsModule -->
<g id="edge7" class="edge">
<title>CommunityChannelMessageComponent&#45;&gt;CommunityChannelsModule</title>
<path fill="none" stroke="black" d="M2234,-122.01C2234,-138.05 2234,-159 2234,-159 2234,-159 1830.06,-159 1830.06,-159"/>
<polygon fill="black" stroke="black" points="1830.06,-155.5 1820.06,-159 1830.06,-162.5 1830.06,-155.5"/>
</g>
<!-- CommunityChannelsDashboardComponent -->
<g id="node8" class="node">
<title>CommunityChannelsDashboardComponent</title>
<polygon fill="#ffffb3" stroke="black" points="2094.47,-122 1833.53,-122 1833.53,-86 2094.47,-86 2094.47,-122"/>
<text text-anchor="middle" x="1964" y="-99.8" font-family="Times,serif" font-size="14.00">CommunityChannelsDashboardComponent</text>
</g>
<!-- CommunityChannelsDashboardComponent&#45;&gt;CommunityChannelsModule -->
<g id="edge8" class="edge">
<title>CommunityChannelsDashboardComponent&#45;&gt;CommunityChannelsModule</title>
<path fill="none" stroke="black" d="M1848.38,-122.12C1848.38,-136.78 1848.38,-155 1848.38,-155 1848.38,-155 1830.26,-155 1830.26,-155"/>
<polygon fill="black" stroke="black" points="1830.26,-151.5 1820.26,-155 1830.26,-158.5 1830.26,-151.5"/>
</g>
<!-- CommunityListComponent -->
<g id="node9" class="node">
<title>CommunityListComponent</title>
<polygon fill="#ffffb3" stroke="black" points="1816.01,-122 1645.99,-122 1645.99,-86 1816.01,-86 1816.01,-122"/>
<text text-anchor="middle" x="1731" y="-99.8" font-family="Times,serif" font-size="14.00">CommunityListComponent</text>
</g>
<!-- CommunityListComponent&#45;&gt;CommunityChannelsModule -->
<g id="edge9" class="edge">
<title>CommunityListComponent&#45;&gt;CommunityChannelsModule</title>
<path fill="none" stroke="black" d="M1731,-122.11C1731,-122.11 1731,-140.99 1731,-140.99"/>
<polygon fill="black" stroke="black" points="1727.5,-140.99 1731,-150.99 1734.5,-140.99 1727.5,-140.99"/>
</g>
<!-- DiscussionCommunityChannelComponent -->
<g id="node10" class="node">
<title>DiscussionCommunityChannelComponent</title>
<polygon fill="#ffffb3" stroke="black" points="1628.32,-122 1371.68,-122 1371.68,-86 1628.32,-86 1628.32,-122"/>
<text text-anchor="middle" x="1500" y="-99.8" font-family="Times,serif" font-size="14.00">DiscussionCommunityChannelComponent</text>
</g>
<!-- DiscussionCommunityChannelComponent&#45;&gt;CommunityChannelsModule -->
<g id="edge10" class="edge">
<title>DiscussionCommunityChannelComponent&#45;&gt;CommunityChannelsModule</title>
<path fill="none" stroke="black" d="M1613.46,-122.12C1613.46,-136.78 1613.46,-155 1613.46,-155 1613.46,-155 1631.92,-155 1631.92,-155"/>
<polygon fill="black" stroke="black" points="1631.92,-158.5 1641.92,-155 1631.92,-151.5 1631.92,-158.5"/>
</g>
<!-- EditChannelComponent -->
<g id="node11" class="node">
<title>EditChannelComponent</title>
<polygon fill="#ffffb3" stroke="black" points="1353.82,-122 1202.18,-122 1202.18,-86 1353.82,-86 1353.82,-122"/>
<text text-anchor="middle" x="1278" y="-99.8" font-family="Times,serif" font-size="14.00">EditChannelComponent</text>
</g>
<!-- EditChannelComponent&#45;&gt;CommunityChannelsModule -->
<g id="edge11" class="edge">
<title>EditChannelComponent&#45;&gt;CommunityChannelsModule</title>
<path fill="none" stroke="black" d="M1278,-122.01C1278,-138.05 1278,-159 1278,-159 1278,-159 1631.77,-159 1631.77,-159"/>
<polygon fill="black" stroke="black" points="1631.77,-162.5 1641.77,-159 1631.77,-155.5 1631.77,-162.5"/>
</g>
<!-- InviteFormComponent -->
<g id="node12" class="node">
<title>InviteFormComponent</title>
<polygon fill="#ffffb3" stroke="black" points="1184.32,-122 1039.68,-122 1039.68,-86 1184.32,-86 1184.32,-122"/>
<text text-anchor="middle" x="1112" y="-99.8" font-family="Times,serif" font-size="14.00">InviteFormComponent</text>
</g>
<!-- InviteFormComponent&#45;&gt;CommunityChannelsModule -->
<g id="edge12" class="edge">
<title>InviteFormComponent&#45;&gt;CommunityChannelsModule</title>
<path fill="none" stroke="black" d="M1112,-122.02C1112,-139.37 1112,-163 1112,-163 1112,-163 1631.65,-163 1631.65,-163"/>
<polygon fill="black" stroke="black" points="1631.65,-166.5 1641.65,-163 1631.65,-159.5 1631.65,-166.5"/>
</g>
<!-- JoinByTokenComponent -->
<g id="node13" class="node">
<title>JoinByTokenComponent</title>
<polygon fill="#ffffb3" stroke="black" points="1021.27,-122 864.73,-122 864.73,-86 1021.27,-86 1021.27,-122"/>
<text text-anchor="middle" x="943" y="-99.8" font-family="Times,serif" font-size="14.00">JoinByTokenComponent</text>
</g>
<!-- JoinByTokenComponent&#45;&gt;CommunityChannelsModule -->
<g id="edge13" class="edge">
<title>JoinByTokenComponent&#45;&gt;CommunityChannelsModule</title>
<path fill="none" stroke="black" d="M943,-122.22C943,-140.83 943,-167 943,-167 943,-167 1631.76,-167 1631.76,-167"/>
<polygon fill="black" stroke="black" points="1631.76,-170.5 1641.76,-167 1631.76,-163.5 1631.76,-170.5"/>
</g>
<!-- MemberComponent -->
<g id="node14" class="node">
<title>MemberComponent</title>
<polygon fill="#ffffb3" stroke="black" points="846.26,-122 717.74,-122 717.74,-86 846.26,-86 846.26,-122"/>
<text text-anchor="middle" x="782" y="-99.8" font-family="Times,serif" font-size="14.00">MemberComponent</text>
</g>
<!-- MemberComponent&#45;&gt;CommunityChannelsModule -->
<g id="edge14" class="edge">
<title>MemberComponent&#45;&gt;CommunityChannelsModule</title>
<path fill="none" stroke="black" d="M782,-122.31C782,-142.15 782,-171 782,-171 782,-171 1631.72,-171 1631.72,-171"/>
<polygon fill="black" stroke="black" points="1631.72,-174.5 1641.72,-171 1631.72,-167.5 1631.72,-174.5"/>
</g>
<!-- NewCommunityChannelComponent -->
<g id="node15" class="node">
<title>NewCommunityChannelComponent</title>
<polygon fill="#ffffb3" stroke="black" points="699.82,-122 478.18,-122 478.18,-86 699.82,-86 699.82,-122"/>
<text text-anchor="middle" x="589" y="-99.8" font-family="Times,serif" font-size="14.00">NewCommunityChannelComponent</text>
</g>
<!-- NewCommunityChannelComponent&#45;&gt;CommunityChannelsModule -->
<g id="edge15" class="edge">
<title>NewCommunityChannelComponent&#45;&gt;CommunityChannelsModule</title>
<path fill="none" stroke="black" d="M589,-122.28C589,-143.32 589,-175 589,-175 589,-175 1631.86,-175 1631.86,-175"/>
<polygon fill="black" stroke="black" points="1631.86,-178.5 1641.86,-175 1631.86,-171.5 1631.86,-178.5"/>
</g>
<!-- SendMessageFormComponent -->
<g id="node16" class="node">
<title>SendMessageFormComponent</title>
<polygon fill="#ffffb3" stroke="black" points="460.14,-122 271.86,-122 271.86,-86 460.14,-86 460.14,-122"/>
<text text-anchor="middle" x="366" y="-99.8" font-family="Times,serif" font-size="14.00">SendMessageFormComponent</text>
</g>
<!-- SendMessageFormComponent&#45;&gt;CommunityChannelsModule -->
<g id="edge16" class="edge">
<title>SendMessageFormComponent&#45;&gt;CommunityChannelsModule</title>
<path fill="none" stroke="black" d="M366,-122.16C366,-144.35 366,-179 366,-179 366,-179 1631.7,-179 1631.7,-179"/>
<polygon fill="black" stroke="black" points="1631.7,-182.5 1641.7,-179 1631.7,-175.5 1631.7,-182.5"/>
</g>
<!-- CommunityChannelsDashboardComponent  -->
<g id="node19" class="node">
<title>CommunityChannelsDashboardComponent </title>
<polygon fill="#fb8072" stroke="black" points="1863.47,-252 1598.53,-252 1598.53,-216 1863.47,-216 1863.47,-252"/>
<text text-anchor="middle" x="1731" y="-229.8" font-family="Times,serif" font-size="14.00">CommunityChannelsDashboardComponent </text>
</g>
<!-- CommunityChannelsModule&#45;&gt;CommunityChannelsDashboardComponent  -->
<g id="edge18" class="edge">
<title>CommunityChannelsModule&#45;&gt;CommunityChannelsDashboardComponent </title>
<path fill="none" stroke="black" stroke-dasharray="5,2" d="M1731,-187.11C1731,-187.11 1731,-205.99 1731,-205.99"/>
<polygon fill="black" stroke="black" points="1727.5,-205.99 1731,-215.99 1734.5,-205.99 1727.5,-205.99"/>
</g>
<!-- CommunityChannelsRoutingModule -->
<g id="node18" class="node">
<title>CommunityChannelsRoutingModule</title>
<polygon fill="#8dd3c7" stroke="black" points="247.67,-122 244.67,-126 223.67,-126 220.67,-122 24.33,-122 24.33,-86 247.67,-86 247.67,-122"/>
<text text-anchor="middle" x="136" y="-99.8" font-family="Times,serif" font-size="14.00">CommunityChannelsRoutingModule</text>
</g>
<!-- CommunityChannelsRoutingModule&#45;&gt;CommunityChannelsModule -->
<g id="edge17" class="edge">
<title>CommunityChannelsRoutingModule&#45;&gt;CommunityChannelsModule</title>
<path fill="none" stroke="black" d="M136,-122.32C136,-145.66 136,-183 136,-183 136,-183 1631.83,-183 1631.83,-183"/>
<polygon fill="black" stroke="black" points="1631.83,-186.5 1641.83,-183 1631.83,-179.5 1631.83,-186.5"/>
</g>
</g>
</svg>
