<?xml version="1.0" encoding="UTF-8" standalone="no"?>
<!DOCTYPE svg PUBLIC "-//W3C//DTD SVG 1.1//EN"
 "http://www.w3.org/Graphics/SVG/1.1/DTD/svg11.dtd">
<!-- Generated by graphviz version 2.47.3 (20210619.1520)
 -->
<!-- Title: dependencies Pages: 1 -->
<svg width="4114pt" height="247pt"
 viewBox="0.00 0.00 4114.00 246.80" xmlns="http://www.w3.org/2000/svg" xmlns:xlink="http://www.w3.org/1999/xlink">
<g id="graph0" class="graph" transform="scale(1 1) rotate(0) translate(4 242.8)">
<title>dependencies</title>
<polygon fill="white" stroke="transparent" points="-4,4 -4,-242.8 4110,-242.8 4110,4 -4,4"/>
<text text-anchor="middle" x="2053" y="-8.2" font-family="sans-serif" font-size="14.00">dependencies</text>
<g id="clust1" class="cluster">
<title>cluster_CommunityChannelsModule</title>
<polygon fill="none" stroke="black" stroke-dasharray="1,5" points="8,-32.8 8,-230.8 4098,-230.8 4098,-32.8 8,-32.8"/>
</g>
<g id="clust2" class="cluster">
<title>cluster_CommunityChannelsModule_declarations</title>
<polygon fill="none" stroke="black" points="562,-40.8 562,-92.8 4090,-92.8 4090,-40.8 562,-40.8"/>
</g>
<g id="clust20" class="cluster">
<title>cluster_CommunityChannelsModule_imports</title>
<polygon fill="none" stroke="black" points="16,-40.8 16,-92.8 554,-92.8 554,-40.8 16,-40.8"/>
</g>
<g id="clust21" class="cluster">
<title>cluster_CommunityChannelsModule_exports</title>
<polygon fill="none" stroke="black" points="1703,-170.8 1703,-222.8 1983,-222.8 1983,-170.8 1703,-170.8"/>
</g>
<!-- ArchiveChannelComponent -->
<g id="node1" class="node">
<title>ArchiveChannelComponent</title>
<polygon fill="#ffffb3" stroke="black" points="4081.58,-84.8 3908.42,-84.8 3908.42,-48.8 4081.58,-48.8 4081.58,-84.8"/>
<text text-anchor="middle" x="3995" y="-62.6" font-family="Times,serif" font-size="14.00">ArchiveChannelComponent</text>
</g>
<!-- CommunityChannelsModule -->
<g id="node18" class="node">
<title>CommunityChannelsModule</title>
<polygon fill="#8dd3c7" stroke="black" points="1932.05,-149.8 1929.05,-153.8 1908.05,-153.8 1905.05,-149.8 1753.95,-149.8 1753.95,-113.8 1932.05,-113.8 1932.05,-149.8"/>
<text text-anchor="middle" x="1843" y="-127.6" font-family="Times,serif" font-size="14.00">CommunityChannelsModule</text>
</g>
<!-- ArchiveChannelComponent&#45;&gt;CommunityChannelsModule -->
<g id="edge1" class="edge">
<title>ArchiveChannelComponent&#45;&gt;CommunityChannelsModule</title>
<path fill="none" stroke="black" d="M3995,-84.95C3995,-108.56 3995,-146.8 3995,-146.8 3995,-146.8 1942.39,-146.8 1942.39,-146.8"/>
<polygon fill="black" stroke="black" points="1942.39,-143.3 1932.39,-146.8 1942.39,-150.3 1942.39,-143.3"/>
</g>
<!-- ChannelMembersComponent -->
<g id="node2" class="node">
<title>ChannelMembersComponent</title>
<polygon fill="#ffffb3" stroke="black" points="3890.36,-84.8 3709.64,-84.8 3709.64,-48.8 3890.36,-48.8 3890.36,-84.8"/>
<text text-anchor="middle" x="3800" y="-62.6" font-family="Times,serif" font-size="14.00">ChannelMembersComponent</text>
</g>
<!-- ChannelMembersComponent&#45;&gt;CommunityChannelsModule -->
<g id="edge2" class="edge">
<title>ChannelMembersComponent&#45;&gt;CommunityChannelsModule</title>
<path fill="none" stroke="black" d="M3800,-84.81C3800,-107.29 3800,-142.8 3800,-142.8 3800,-142.8 1942.17,-142.8 1942.17,-142.8"/>
<polygon fill="black" stroke="black" points="1942.17,-139.3 1932.17,-142.8 1942.17,-146.3 1942.17,-139.3"/>
</g>
<!-- ChannelSettingsComponent -->
<g id="node3" class="node">
<title>ChannelSettingsComponent</title>
<polygon fill="#ffffb3" stroke="black" points="3691.6,-84.8 3518.4,-84.8 3518.4,-48.8 3691.6,-48.8 3691.6,-84.8"/>
<text text-anchor="middle" x="3605" y="-62.6" font-family="Times,serif" font-size="14.00">ChannelSettingsComponent</text>
</g>
<!-- ChannelSettingsComponent&#45;&gt;CommunityChannelsModule -->
<g id="edge3" class="edge">
<title>ChannelSettingsComponent&#45;&gt;CommunityChannelsModule</title>
<path fill="none" stroke="black" d="M3605,-84.84C3605,-106.46 3605,-139.8 3605,-139.8 3605,-139.8 1942.19,-139.8 1942.19,-139.8"/>
<polygon fill="black" stroke="black" points="1942.19,-136.3 1932.19,-139.8 1942.19,-143.3 1942.19,-136.3"/>
</g>
<!-- CommunityChannelComponent -->
<g id="node4" class="node">
<title>CommunityChannelComponent</title>
<polygon fill="#ffffb3" stroke="black" points="3500.39,-84.8 3305.61,-84.8 3305.61,-48.8 3500.39,-48.8 3500.39,-84.8"/>
<text text-anchor="middle" x="3403" y="-62.6" font-family="Times,serif" font-size="14.00">CommunityChannelComponent</text>
</g>
<!-- CommunityChannelComponent&#45;&gt;CommunityChannelsModule -->
<g id="edge4" class="edge">
<title>CommunityChannelComponent&#45;&gt;CommunityChannelsModule</title>
<path fill="none" stroke="black" d="M3403,-84.93C3403,-105.37 3403,-135.8 3403,-135.8 3403,-135.8 1942.19,-135.8 1942.19,-135.8"/>
<polygon fill="black" stroke="black" points="1942.19,-132.3 1932.19,-135.8 1942.19,-139.3 1942.19,-132.3"/>
</g>
<!-- CommunityChannelFormComponent -->
<g id="node5" class="node">
<title>CommunityChannelFormComponent</title>
<polygon fill="#ffffb3" stroke="black" points="3287.72,-84.8 3062.28,-84.8 3062.28,-48.8 3287.72,-48.8 3287.72,-84.8"/>
<text text-anchor="middle" x="3175" y="-62.6" font-family="Times,serif" font-size="14.00">CommunityChannelFormComponent</text>
</g>
<!-- CommunityChannelFormComponent&#45;&gt;CommunityChannelsModule -->
<g id="edge5" class="edge">
<title>CommunityChannelFormComponent&#45;&gt;CommunityChannelsModule</title>
<path fill="none" stroke="black" d="M3175,-84.91C3175,-104.14 3175,-131.8 3175,-131.8 3175,-131.8 1942.2,-131.8 1942.2,-131.8"/>
<polygon fill="black" stroke="black" points="1942.2,-128.3 1932.2,-131.8 1942.2,-135.3 1942.2,-128.3"/>
</g>
<!-- CommunityChannelListComponent -->
<g id="node6" class="node">
<title>CommunityChannelListComponent</title>
<polygon fill="#ffffb3" stroke="black" points="3044.17,-84.8 2827.83,-84.8 2827.83,-48.8 3044.17,-48.8 3044.17,-84.8"/>
<text text-anchor="middle" x="2936" y="-62.6" font-family="Times,serif" font-size="14.00">CommunityChannelListComponent</text>
</g>
<!-- CommunityChannelListComponent&#45;&gt;CommunityChannelsModule -->
<g id="edge6" class="edge">
<title>CommunityChannelListComponent&#45;&gt;CommunityChannelsModule</title>
<path fill="none" stroke="black" d="M2936,-85.07C2936,-103.36 2936,-128.8 2936,-128.8 2936,-128.8 1942.44,-128.8 1942.44,-128.8"/>
<polygon fill="black" stroke="black" points="1942.44,-125.3 1932.44,-128.8 1942.44,-132.3 1942.44,-125.3"/>
</g>
<!-- CommunityChannelMessageComponent -->
<g id="node7" class="node">
<title>CommunityChannelMessageComponent</title>
<polygon fill="#ffffb3" stroke="black" points="2809.87,-84.8 2566.13,-84.8 2566.13,-48.8 2809.87,-48.8 2809.87,-84.8"/>
<text text-anchor="middle" x="2688" y="-62.6" font-family="Times,serif" font-size="14.00">CommunityChannelMessageComponent</text>
</g>
<!-- CommunityChannelMessageComponent&#45;&gt;CommunityChannelsModule -->
<g id="edge7" class="edge">
<title>CommunityChannelMessageComponent&#45;&gt;CommunityChannelsModule</title>
<path fill="none" stroke="black" d="M2688,-84.83C2688,-101.86 2688,-124.8 2688,-124.8 2688,-124.8 1942.23,-124.8 1942.23,-124.8"/>
<polygon fill="black" stroke="black" points="1942.23,-121.3 1932.23,-124.8 1942.23,-128.3 1942.23,-121.3"/>
</g>
<!-- CommunityChannelsDashboardComponent -->
<g id="node8" class="node">
<title>CommunityChannelsDashboardComponent</title>
<polygon fill="#ffffb3" stroke="black" points="2548.47,-84.8 2287.53,-84.8 2287.53,-48.8 2548.47,-48.8 2548.47,-84.8"/>
<text text-anchor="middle" x="2418" y="-62.6" font-family="Times,serif" font-size="14.00">CommunityChannelsDashboardComponent</text>
</g>
<!-- CommunityChannelsDashboardComponent&#45;&gt;CommunityChannelsModule -->
<g id="edge8" class="edge">
<title>CommunityChannelsDashboardComponent&#45;&gt;CommunityChannelsModule</title>
<path fill="none" stroke="black" d="M2418,-84.81C2418,-100.85 2418,-121.8 2418,-121.8 2418,-121.8 1942.21,-121.8 1942.21,-121.8"/>
<polygon fill="black" stroke="black" points="1942.21,-118.3 1932.21,-121.8 1942.21,-125.3 1942.21,-118.3"/>
</g>
<!-- CommunityListComponent -->
<g id="node9" class="node">
<title>CommunityListComponent</title>
<polygon fill="#ffffb3" stroke="black" points="2270.01,-84.8 2099.99,-84.8 2099.99,-48.8 2270.01,-48.8 2270.01,-84.8"/>
<text text-anchor="middle" x="2185" y="-62.6" font-family="Times,serif" font-size="14.00">CommunityListComponent</text>
</g>
<!-- CommunityListComponent&#45;&gt;CommunityChannelsModule -->
<g id="edge9" class="edge">
<title>CommunityListComponent&#45;&gt;CommunityChannelsModule</title>
<path fill="none" stroke="black" d="M2185,-84.92C2185,-99.58 2185,-117.8 2185,-117.8 2185,-117.8 1942.41,-117.8 1942.41,-117.8"/>
<polygon fill="black" stroke="black" points="1942.41,-114.3 1932.41,-117.8 1942.41,-121.3 1942.41,-114.3"/>
</g>
<!-- DiscussionCommunityChannelComponent -->
<g id="node10" class="node">
<title>DiscussionCommunityChannelComponent</title>
<polygon fill="#ffffb3" stroke="black" points="2082.32,-84.8 1825.68,-84.8 1825.68,-48.8 2082.32,-48.8 2082.32,-84.8"/>
<text text-anchor="middle" x="1954" y="-62.6" font-family="Times,serif" font-size="14.00">DiscussionCommunityChannelComponent</text>
</g>
<!-- DiscussionCommunityChannelComponent&#45;&gt;CommunityChannelsModule -->
<g id="edge10" class="edge">
<title>DiscussionCommunityChannelComponent&#45;&gt;CommunityChannelsModule</title>
<path fill="none" stroke="black" d="M1879.06,-84.91C1879.06,-84.91 1879.06,-103.79 1879.06,-103.79"/>
<polygon fill="black" stroke="black" points="1875.56,-103.79 1879.06,-113.79 1882.56,-103.79 1875.56,-103.79"/>
</g>
<!-- EditChannelComponent -->
<g id="node11" class="node">
<title>EditChannelComponent</title>
<polygon fill="#ffffb3" stroke="black" points="1807.82,-84.8 1656.18,-84.8 1656.18,-48.8 1807.82,-48.8 1807.82,-84.8"/>
<text text-anchor="middle" x="1732" y="-62.6" font-family="Times,serif" font-size="14.00">EditChannelComponent</text>
</g>
<!-- EditChannelComponent&#45;&gt;CommunityChannelsModule -->
<g id="edge11" class="edge">
<title>EditChannelComponent&#45;&gt;CommunityChannelsModule</title>
<path fill="none" stroke="black" d="M1780.69,-84.91C1780.69,-84.91 1780.69,-103.79 1780.69,-103.79"/>
<polygon fill="black" stroke="black" points="1777.19,-103.79 1780.69,-113.79 1784.19,-103.79 1777.19,-103.79"/>
</g>
<!-- EmailJoinComponent -->
<g id="node12" class="node">
<title>EmailJoinComponent</title>
<polygon fill="#ffffb3" stroke="black" points="1638.11,-84.8 1499.89,-84.8 1499.89,-48.8 1638.11,-48.8 1638.11,-84.8"/>
<text text-anchor="middle" x="1569" y="-62.6" font-family="Times,serif" font-size="14.00">EmailJoinComponent</text>
</g>
<!-- EmailJoinComponent&#45;&gt;CommunityChannelsModule -->
<g id="edge12" class="edge">
<title>EmailJoinComponent&#45;&gt;CommunityChannelsModule</title>
<path fill="none" stroke="black" d="M1569,-84.92C1569,-99.58 1569,-117.8 1569,-117.8 1569,-117.8 1743.66,-117.8 1743.66,-117.8"/>
<polygon fill="black" stroke="black" points="1743.66,-121.3 1753.66,-117.8 1743.66,-114.3 1743.66,-121.3"/>
</g>
<!-- InviteFormComponent -->
<g id="node13" class="node">
<title>InviteFormComponent</title>
<polygon fill="#ffffb3" stroke="black" points="1482.32,-84.8 1337.68,-84.8 1337.68,-48.8 1482.32,-48.8 1482.32,-84.8"/>
<text text-anchor="middle" x="1410" y="-62.6" font-family="Times,serif" font-size="14.00">InviteFormComponent</text>
</g>
<!-- InviteFormComponent&#45;&gt;CommunityChannelsModule -->
<g id="edge13" class="edge">
<title>InviteFormComponent&#45;&gt;CommunityChannelsModule</title>
<path fill="none" stroke="black" d="M1410,-84.81C1410,-100.85 1410,-121.8 1410,-121.8 1410,-121.8 1743.81,-121.8 1743.81,-121.8"/>
<polygon fill="black" stroke="black" points="1743.81,-125.3 1753.81,-121.8 1743.81,-118.3 1743.81,-125.3"/>
</g>
<!-- JoinByTokenComponent -->
<g id="node14" class="node">
<title>JoinByTokenComponent</title>
<polygon fill="#ffffb3" stroke="black" points="1319.27,-84.8 1162.73,-84.8 1162.73,-48.8 1319.27,-48.8 1319.27,-84.8"/>
<text text-anchor="middle" x="1241" y="-62.6" font-family="Times,serif" font-size="14.00">JoinByTokenComponent</text>
</g>
<!-- JoinByTokenComponent&#45;&gt;CommunityChannelsModule -->
<g id="edge14" class="edge">
<title>JoinByTokenComponent&#45;&gt;CommunityChannelsModule</title>
<path fill="none" stroke="black" d="M1241,-84.83C1241,-101.86 1241,-124.8 1241,-124.8 1241,-124.8 1743.85,-124.8 1743.85,-124.8"/>
<polygon fill="black" stroke="black" points="1743.85,-128.3 1753.85,-124.8 1743.85,-121.3 1743.85,-128.3"/>
</g>
<!-- MemberComponent -->
<g id="node15" class="node">
<title>MemberComponent</title>
<polygon fill="#ffffb3" stroke="black" points="1144.26,-84.8 1015.74,-84.8 1015.74,-48.8 1144.26,-48.8 1144.26,-84.8"/>
<text text-anchor="middle" x="1080" y="-62.6" font-family="Times,serif" font-size="14.00">MemberComponent</text>
</g>
<!-- MemberComponent&#45;&gt;CommunityChannelsModule -->
<g id="edge15" class="edge">
<title>MemberComponent&#45;&gt;CommunityChannelsModule</title>
<path fill="none" stroke="black" d="M1080,-85.07C1080,-103.36 1080,-128.8 1080,-128.8 1080,-128.8 1743.61,-128.8 1743.61,-128.8"/>
<polygon fill="black" stroke="black" points="1743.61,-132.3 1753.61,-128.8 1743.61,-125.3 1743.61,-132.3"/>
</g>
<!-- NewCommunityChannelComponent -->
<g id="node16" class="node">
<title>NewCommunityChannelComponent</title>
<polygon fill="#ffffb3" stroke="black" points="997.82,-84.8 776.18,-84.8 776.18,-48.8 997.82,-48.8 997.82,-84.8"/>
<text text-anchor="middle" x="887" y="-62.6" font-family="Times,serif" font-size="14.00">NewCommunityChannelComponent</text>
</g>
<!-- NewCommunityChannelComponent&#45;&gt;CommunityChannelsModule -->
<g id="edge16" class="edge">
<title>NewCommunityChannelComponent&#45;&gt;CommunityChannelsModule</title>
<path fill="none" stroke="black" d="M887,-84.91C887,-104.14 887,-131.8 887,-131.8 887,-131.8 1743.92,-131.8 1743.92,-131.8"/>
<polygon fill="black" stroke="black" points="1743.92,-135.3 1753.92,-131.8 1743.92,-128.3 1743.92,-135.3"/>
</g>
<!-- SendMessageFormComponent -->
<g id="node17" class="node">
<title>SendMessageFormComponent</title>
<polygon fill="#ffffb3" stroke="black" points="758.14,-84.8 569.86,-84.8 569.86,-48.8 758.14,-48.8 758.14,-84.8"/>
<text text-anchor="middle" x="664" y="-62.6" font-family="Times,serif" font-size="14.00">SendMessageFormComponent</text>
</g>
<!-- SendMessageFormComponent&#45;&gt;CommunityChannelsModule -->
<g id="edge17" class="edge">
<title>SendMessageFormComponent&#45;&gt;CommunityChannelsModule</title>
<path fill="none" stroke="black" d="M664,-84.93C664,-105.37 664,-135.8 664,-135.8 664,-135.8 1743.9,-135.8 1743.9,-135.8"/>
<polygon fill="black" stroke="black" points="1743.9,-139.3 1753.9,-135.8 1743.9,-132.3 1743.9,-139.3"/>
</g>
<!-- CommunityChannelsDashboardComponent  -->
<g id="node22" class="node">
<title>CommunityChannelsDashboardComponent </title>
<polygon fill="#fb8072" stroke="black" points="1975.47,-214.8 1710.53,-214.8 1710.53,-178.8 1975.47,-178.8 1975.47,-214.8"/>
<text text-anchor="middle" x="1843" y="-192.6" font-family="Times,serif" font-size="14.00">CommunityChannelsDashboardComponent </text>
</g>
<!-- CommunityChannelsModule&#45;&gt;CommunityChannelsDashboardComponent  -->
<g id="edge21" class="edge">
<title>CommunityChannelsModule&#45;&gt;CommunityChannelsDashboardComponent </title>
<path fill="none" stroke="black" stroke-dasharray="5,2" d="M1843,-149.91C1843,-149.91 1843,-168.79 1843,-168.79"/>
<polygon fill="black" stroke="black" points="1839.5,-168.79 1843,-178.79 1846.5,-168.79 1839.5,-168.79"/>
</g>
<!-- CommunityChannelsRoutingModule -->
<g id="node19" class="node">
<title>CommunityChannelsRoutingModule</title>
<polygon fill="#8dd3c7" stroke="black" points="545.67,-84.8 542.67,-88.8 521.67,-88.8 518.67,-84.8 322.33,-84.8 322.33,-48.8 545.67,-48.8 545.67,-84.8"/>
<text text-anchor="middle" x="434" y="-62.6" font-family="Times,serif" font-size="14.00">CommunityChannelsRoutingModule</text>
</g>
<!-- CommunityChannelsRoutingModule&#45;&gt;CommunityChannelsModule -->
<g id="edge18" class="edge">
<title>CommunityChannelsRoutingModule&#45;&gt;CommunityChannelsModule</title>
<path fill="none" stroke="black" d="M434,-84.84C434,-106.46 434,-139.8 434,-139.8 434,-139.8 1743.79,-139.8 1743.79,-139.8"/>
<polygon fill="black" stroke="black" points="1743.79,-143.3 1753.79,-139.8 1743.79,-136.3 1743.79,-143.3"/>
</g>
<!-- MentionModule -->
<g id="node20" class="node">
<title>MentionModule</title>
<polygon fill="#8dd3c7" stroke="black" points="304.49,-84.8 301.49,-88.8 280.49,-88.8 277.49,-84.8 197.51,-84.8 197.51,-48.8 304.49,-48.8 304.49,-84.8"/>
<text text-anchor="middle" x="251" y="-62.6" font-family="Times,serif" font-size="14.00">MentionModule</text>
</g>
<!-- MentionModule&#45;&gt;CommunityChannelsModule -->
<g id="edge19" class="edge">
<title>MentionModule&#45;&gt;CommunityChannelsModule</title>
<path fill="none" stroke="black" d="M251,-84.81C251,-107.29 251,-142.8 251,-142.8 251,-142.8 1743.71,-142.8 1743.71,-142.8"/>
<polygon fill="black" stroke="black" points="1743.71,-146.3 1753.71,-142.8 1743.71,-139.3 1743.71,-146.3"/>
</g>
<!-- SharedDirectivesModule -->
<g id="node21" class="node">
<title>SharedDirectivesModule</title>
<polygon fill="#8dd3c7" stroke="black" points="179.95,-84.8 176.95,-88.8 155.95,-88.8 152.95,-84.8 24.05,-84.8 24.05,-48.8 179.95,-48.8 179.95,-84.8"/>
<text text-anchor="middle" x="102" y="-62.6" font-family="Times,serif" font-size="14.00">SharedDirectivesModule</text>
</g>
<!-- SharedDirectivesModule&#45;&gt;CommunityChannelsModule -->
<g id="edge20" class="edge">
<title>SharedDirectivesModule&#45;&gt;CommunityChannelsModule</title>
<path fill="none" stroke="black" d="M102,-84.95C102,-108.56 102,-146.8 102,-146.8 102,-146.8 1743.67,-146.8 1743.67,-146.8"/>
<polygon fill="black" stroke="black" points="1743.67,-150.3 1753.67,-146.8 1743.67,-143.3 1743.67,-150.3"/>
</g>
</g>
</svg>
