<?xml version="1.0" encoding="UTF-8" standalone="no"?>
<!DOCTYPE svg PUBLIC "-//W3C//DTD SVG 1.1//EN"
 "http://www.w3.org/Graphics/SVG/1.1/DTD/svg11.dtd">
<!-- Generated by graphviz version 2.47.3 (20210619.1520)
 -->
<!-- Title: dependencies Pages: 1 -->
<svg width="4114pt" height="247pt"
 viewBox="0.00 0.00 4114.00 246.80" xmlns="http://www.w3.org/2000/svg" xmlns:xlink="http://www.w3.org/1999/xlink">
<g id="graph0" class="graph" transform="scale(1 1) rotate(0) translate(4 242.8)">
<title>dependencies</title>
<polygon fill="white" stroke="transparent" points="-4,4 -4,-242.8 4110,-242.8 4110,4 -4,4"/>
<text text-anchor="middle" x="2053" y="-8.2" font-family="sans-serif" font-size="14.00">dependencies</text>
<g id="clust1" class="cluster">
<title>cluster_CommunityChannelsModule</title>
<polygon fill="none" stroke="black" stroke-dasharray="1,5" points="8,-32.8 8,-230.8 4098,-230.8 4098,-32.8 8,-32.8"/>
</g>
<g id="clust21" class="cluster">
<title>cluster_CommunityChannelsModule_exports</title>
<polygon fill="none" stroke="black" points="1867,-170.8 1867,-222.8 2147,-222.8 2147,-170.8 1867,-170.8"/>
</g>
<g id="clust20" class="cluster">
<title>cluster_CommunityChannelsModule_imports</title>
<polygon fill="none" stroke="black" points="3552,-40.8 3552,-92.8 4090,-92.8 4090,-40.8 3552,-40.8"/>
</g>
<g id="clust2" class="cluster">
<title>cluster_CommunityChannelsModule_declarations</title>
<polygon fill="none" stroke="black" points="16,-40.8 16,-92.8 3544,-92.8 3544,-40.8 16,-40.8"/>
</g>
<!-- ArchiveChannelComponent -->
<g id="node1" class="node">
<title>ArchiveChannelComponent</title>
<polygon fill="#ffffb3" stroke="black" points="3535.58,-84.8 3362.42,-84.8 3362.42,-48.8 3535.58,-48.8 3535.58,-84.8"/>
<text text-anchor="middle" x="3449" y="-62.6" font-family="Times,serif" font-size="14.00">ArchiveChannelComponent</text>
</g>
<!-- CommunityChannelsModule -->
<g id="node18" class="node">
<title>CommunityChannelsModule</title>
<polygon fill="#8dd3c7" stroke="black" points="2096.05,-149.8 2093.05,-153.8 2072.05,-153.8 2069.05,-149.8 1917.95,-149.8 1917.95,-113.8 2096.05,-113.8 2096.05,-149.8"/>
<text text-anchor="middle" x="2007" y="-127.6" font-family="Times,serif" font-size="14.00">CommunityChannelsModule</text>
</g>
<!-- ArchiveChannelComponent&#45;&gt;CommunityChannelsModule -->
<g id="edge1" class="edge">
<title>ArchiveChannelComponent&#45;&gt;CommunityChannelsModule</title>
<path fill="none" stroke="black" d="M3449,-84.93C3449,-105.37 3449,-135.8 3449,-135.8 3449,-135.8 2106.12,-135.8 2106.12,-135.8"/>
<polygon fill="black" stroke="black" points="2106.12,-132.3 2096.12,-135.8 2106.12,-139.3 2106.12,-132.3"/>
</g>
<!-- ChannelMembersComponent -->
<g id="node2" class="node">
<title>ChannelMembersComponent</title>
<polygon fill="#ffffb3" stroke="black" points="3344.36,-84.8 3163.64,-84.8 3163.64,-48.8 3344.36,-48.8 3344.36,-84.8"/>
<text text-anchor="middle" x="3254" y="-62.6" font-family="Times,serif" font-size="14.00">ChannelMembersComponent</text>
</g>
<!-- ChannelMembersComponent&#45;&gt;CommunityChannelsModule -->
<g id="edge2" class="edge">
<title>ChannelMembersComponent&#45;&gt;CommunityChannelsModule</title>
<path fill="none" stroke="black" d="M3254,-84.91C3254,-104.14 3254,-131.8 3254,-131.8 3254,-131.8 2106.18,-131.8 2106.18,-131.8"/>
<polygon fill="black" stroke="black" points="2106.18,-128.3 2096.18,-131.8 2106.18,-135.3 2106.18,-128.3"/>
</g>
<!-- ChannelSettingsComponent -->
<g id="node3" class="node">
<title>ChannelSettingsComponent</title>
<polygon fill="#ffffb3" stroke="black" points="3145.6,-84.8 2972.4,-84.8 2972.4,-48.8 3145.6,-48.8 3145.6,-84.8"/>
<text text-anchor="middle" x="3059" y="-62.6" font-family="Times,serif" font-size="14.00">ChannelSettingsComponent</text>
</g>
<!-- ChannelSettingsComponent&#45;&gt;CommunityChannelsModule -->
<g id="edge3" class="edge">
<title>ChannelSettingsComponent&#45;&gt;CommunityChannelsModule</title>
<path fill="none" stroke="black" d="M3059,-85.07C3059,-103.36 3059,-128.8 3059,-128.8 3059,-128.8 2106.24,-128.8 2106.24,-128.8"/>
<polygon fill="black" stroke="black" points="2106.24,-125.3 2096.24,-128.8 2106.24,-132.3 2106.24,-125.3"/>
</g>
<!-- CommunityChannelComponent -->
<g id="node4" class="node">
<title>CommunityChannelComponent</title>
<polygon fill="#ffffb3" stroke="black" points="2954.39,-84.8 2759.61,-84.8 2759.61,-48.8 2954.39,-48.8 2954.39,-84.8"/>
<text text-anchor="middle" x="2857" y="-62.6" font-family="Times,serif" font-size="14.00">CommunityChannelComponent</text>
</g>
<!-- CommunityChannelComponent&#45;&gt;CommunityChannelsModule -->
<g id="edge4" class="edge">
<title>CommunityChannelComponent&#45;&gt;CommunityChannelsModule</title>
<path fill="none" stroke="black" d="M2857,-84.83C2857,-101.86 2857,-124.8 2857,-124.8 2857,-124.8 2106.36,-124.8 2106.36,-124.8"/>
<polygon fill="black" stroke="black" points="2106.36,-121.3 2096.36,-124.8 2106.36,-128.3 2106.36,-121.3"/>
</g>
<!-- CommunityChannelFormComponent -->
<g id="node5" class="node">
<title>CommunityChannelFormComponent</title>
<polygon fill="#ffffb3" stroke="black" points="2741.72,-84.8 2516.28,-84.8 2516.28,-48.8 2741.72,-48.8 2741.72,-84.8"/>
<text text-anchor="middle" x="2629" y="-62.6" font-family="Times,serif" font-size="14.00">CommunityChannelFormComponent</text>
</g>
<!-- CommunityChannelFormComponent&#45;&gt;CommunityChannelsModule -->
<g id="edge5" class="edge">
<title>CommunityChannelFormComponent&#45;&gt;CommunityChannelsModule</title>
<path fill="none" stroke="black" d="M2629,-84.81C2629,-100.85 2629,-121.8 2629,-121.8 2629,-121.8 2106.12,-121.8 2106.12,-121.8"/>
<polygon fill="black" stroke="black" points="2106.12,-118.3 2096.12,-121.8 2106.12,-125.3 2106.12,-118.3"/>
</g>
<!-- CommunityChannelListComponent -->
<g id="node6" class="node">
<title>CommunityChannelListComponent</title>
<polygon fill="#ffffb3" stroke="black" points="2498.17,-84.8 2281.83,-84.8 2281.83,-48.8 2498.17,-48.8 2498.17,-84.8"/>
<text text-anchor="middle" x="2390" y="-62.6" font-family="Times,serif" font-size="14.00">CommunityChannelListComponent</text>
</g>
<!-- CommunityChannelListComponent&#45;&gt;CommunityChannelsModule -->
<g id="edge6" class="edge">
<title>CommunityChannelListComponent&#45;&gt;CommunityChannelsModule</title>
<path fill="none" stroke="black" d="M2390,-84.92C2390,-99.58 2390,-117.8 2390,-117.8 2390,-117.8 2106.31,-117.8 2106.31,-117.8"/>
<polygon fill="black" stroke="black" points="2106.31,-114.3 2096.31,-117.8 2106.31,-121.3 2106.31,-114.3"/>
</g>
<!-- CommunityChannelMessageComponent -->
<g id="node7" class="node">
<title>CommunityChannelMessageComponent</title>
<polygon fill="#ffffb3" stroke="black" points="2263.87,-84.8 2020.13,-84.8 2020.13,-48.8 2263.87,-48.8 2263.87,-84.8"/>
<text text-anchor="middle" x="2142" y="-62.6" font-family="Times,serif" font-size="14.00">CommunityChannelMessageComponent</text>
</g>
<!-- CommunityChannelMessageComponent&#45;&gt;CommunityChannelsModule -->
<g id="edge7" class="edge">
<title>CommunityChannelMessageComponent&#45;&gt;CommunityChannelsModule</title>
<path fill="none" stroke="black" d="M2058.17,-84.91C2058.17,-84.91 2058.17,-103.79 2058.17,-103.79"/>
<polygon fill="black" stroke="black" points="2054.67,-103.79 2058.17,-113.79 2061.67,-103.79 2054.67,-103.79"/>
</g>
<!-- CommunityChannelsDashboardComponent -->
<g id="node8" class="node">
<title>CommunityChannelsDashboardComponent</title>
<polygon fill="#ffffb3" stroke="black" points="2002.47,-84.8 1741.53,-84.8 1741.53,-48.8 2002.47,-48.8 2002.47,-84.8"/>
<text text-anchor="middle" x="1872" y="-62.6" font-family="Times,serif" font-size="14.00">CommunityChannelsDashboardComponent</text>
</g>
<!-- CommunityChannelsDashboardComponent&#45;&gt;CommunityChannelsModule -->
<g id="edge8" class="edge">
<title>CommunityChannelsDashboardComponent&#45;&gt;CommunityChannelsModule</title>
<path fill="none" stroke="black" d="M1960.11,-84.91C1960.11,-84.91 1960.11,-103.79 1960.11,-103.79"/>
<polygon fill="black" stroke="black" points="1956.61,-103.79 1960.11,-113.79 1963.61,-103.79 1956.61,-103.79"/>
</g>
<!-- CommunityListComponent -->
<g id="node9" class="node">
<title>CommunityListComponent</title>
<polygon fill="#ffffb3" stroke="black" points="1724.01,-84.8 1553.99,-84.8 1553.99,-48.8 1724.01,-48.8 1724.01,-84.8"/>
<text text-anchor="middle" x="1639" y="-62.6" font-family="Times,serif" font-size="14.00">CommunityListComponent</text>
</g>
<!-- CommunityListComponent&#45;&gt;CommunityChannelsModule -->
<g id="edge9" class="edge">
<title>CommunityListComponent&#45;&gt;CommunityChannelsModule</title>
<path fill="none" stroke="black" d="M1639,-84.92C1639,-99.58 1639,-117.8 1639,-117.8 1639,-117.8 1907.92,-117.8 1907.92,-117.8"/>
<polygon fill="black" stroke="black" points="1907.92,-121.3 1917.92,-117.8 1907.92,-114.3 1907.92,-121.3"/>
</g>
<!-- DiscussionCommunityChannelComponent -->
<g id="node10" class="node">
<title>DiscussionCommunityChannelComponent</title>
<polygon fill="#ffffb3" stroke="black" points="1536.32,-84.8 1279.68,-84.8 1279.68,-48.8 1536.32,-48.8 1536.32,-84.8"/>
<text text-anchor="middle" x="1408" y="-62.6" font-family="Times,serif" font-size="14.00">DiscussionCommunityChannelComponent</text>
</g>
<!-- DiscussionCommunityChannelComponent&#45;&gt;CommunityChannelsModule -->
<g id="edge10" class="edge">
<title>DiscussionCommunityChannelComponent&#45;&gt;CommunityChannelsModule</title>
<path fill="none" stroke="black" d="M1408,-84.81C1408,-100.85 1408,-121.8 1408,-121.8 1408,-121.8 1907.65,-121.8 1907.65,-121.8"/>
<polygon fill="black" stroke="black" points="1907.65,-125.3 1917.65,-121.8 1907.65,-118.3 1907.65,-125.3"/>
</g>
<!-- EditChannelComponent -->
<g id="node11" class="node">
<title>EditChannelComponent</title>
<polygon fill="#ffffb3" stroke="black" points="1261.82,-84.8 1110.18,-84.8 1110.18,-48.8 1261.82,-48.8 1261.82,-84.8"/>
<text text-anchor="middle" x="1186" y="-62.6" font-family="Times,serif" font-size="14.00">EditChannelComponent</text>
</g>
<!-- EditChannelComponent&#45;&gt;CommunityChannelsModule -->
<g id="edge11" class="edge">
<title>EditChannelComponent&#45;&gt;CommunityChannelsModule</title>
<path fill="none" stroke="black" d="M1186,-84.83C1186,-101.86 1186,-124.8 1186,-124.8 1186,-124.8 1907.58,-124.8 1907.58,-124.8"/>
<polygon fill="black" stroke="black" points="1907.58,-128.3 1917.58,-124.8 1907.58,-121.3 1907.58,-128.3"/>
</g>
<!-- EmailJoinComponent -->
<g id="node12" class="node">
<title>EmailJoinComponent</title>
<polygon fill="#ffffb3" stroke="black" points="1092.11,-84.8 953.89,-84.8 953.89,-48.8 1092.11,-48.8 1092.11,-84.8"/>
<text text-anchor="middle" x="1023" y="-62.6" font-family="Times,serif" font-size="14.00">EmailJoinComponent</text>
</g>
<!-- EmailJoinComponent&#45;&gt;CommunityChannelsModule -->
<g id="edge12" class="edge">
<title>EmailJoinComponent&#45;&gt;CommunityChannelsModule</title>
<path fill="none" stroke="black" d="M1023,-85.07C1023,-103.36 1023,-128.8 1023,-128.8 1023,-128.8 1907.94,-128.8 1907.94,-128.8"/>
<polygon fill="black" stroke="black" points="1907.94,-132.3 1917.94,-128.8 1907.94,-125.3 1907.94,-132.3"/>
</g>
<!-- InviteFormComponent -->
<g id="node13" class="node">
<title>InviteFormComponent</title>
<polygon fill="#ffffb3" stroke="black" points="936.32,-84.8 791.68,-84.8 791.68,-48.8 936.32,-48.8 936.32,-84.8"/>
<text text-anchor="middle" x="864" y="-62.6" font-family="Times,serif" font-size="14.00">InviteFormComponent</text>
</g>
<!-- InviteFormComponent&#45;&gt;CommunityChannelsModule -->
<g id="edge13" class="edge">
<title>InviteFormComponent&#45;&gt;CommunityChannelsModule</title>
<path fill="none" stroke="black" d="M864,-84.91C864,-104.14 864,-131.8 864,-131.8 864,-131.8 1907.79,-131.8 1907.79,-131.8"/>
<polygon fill="black" stroke="black" points="1907.79,-135.3 1917.79,-131.8 1907.79,-128.3 1907.79,-135.3"/>
</g>
<!-- JoinByTokenComponent -->
<g id="node14" class="node">
<title>JoinByTokenComponent</title>
<polygon fill="#ffffb3" stroke="black" points="773.27,-84.8 616.73,-84.8 616.73,-48.8 773.27,-48.8 773.27,-84.8"/>
<text text-anchor="middle" x="695" y="-62.6" font-family="Times,serif" font-size="14.00">JoinByTokenComponent</text>
</g>
<!-- JoinByTokenComponent&#45;&gt;CommunityChannelsModule -->
<g id="edge14" class="edge">
<title>JoinByTokenComponent&#45;&gt;CommunityChannelsModule</title>
<path fill="none" stroke="black" d="M695,-84.93C695,-105.37 695,-135.8 695,-135.8 695,-135.8 1907.85,-135.8 1907.85,-135.8"/>
<polygon fill="black" stroke="black" points="1907.85,-139.3 1917.85,-135.8 1907.85,-132.3 1907.85,-139.3"/>
</g>
<!-- MemberComponent -->
<g id="node15" class="node">
<title>MemberComponent</title>
<polygon fill="#ffffb3" stroke="black" points="598.26,-84.8 469.74,-84.8 469.74,-48.8 598.26,-48.8 598.26,-84.8"/>
<text text-anchor="middle" x="534" y="-62.6" font-family="Times,serif" font-size="14.00">MemberComponent</text>
</g>
<!-- MemberComponent&#45;&gt;CommunityChannelsModule -->
<g id="edge15" class="edge">
<title>MemberComponent&#45;&gt;CommunityChannelsModule</title>
<path fill="none" stroke="black" d="M534,-84.84C534,-106.46 534,-139.8 534,-139.8 534,-139.8 1907.9,-139.8 1907.9,-139.8"/>
<polygon fill="black" stroke="black" points="1907.9,-143.3 1917.9,-139.8 1907.9,-136.3 1907.9,-143.3"/>
</g>
<!-- NewCommunityChannelComponent -->
<g id="node16" class="node">
<title>NewCommunityChannelComponent</title>
<polygon fill="#ffffb3" stroke="black" points="451.82,-84.8 230.18,-84.8 230.18,-48.8 451.82,-48.8 451.82,-84.8"/>
<text text-anchor="middle" x="341" y="-62.6" font-family="Times,serif" font-size="14.00">NewCommunityChannelComponent</text>
</g>
<!-- NewCommunityChannelComponent&#45;&gt;CommunityChannelsModule -->
<g id="edge16" class="edge">
<title>NewCommunityChannelComponent&#45;&gt;CommunityChannelsModule</title>
<path fill="none" stroke="black" d="M341,-84.81C341,-107.29 341,-142.8 341,-142.8 341,-142.8 1907.72,-142.8 1907.72,-142.8"/>
<polygon fill="black" stroke="black" points="1907.72,-146.3 1917.72,-142.8 1907.72,-139.3 1907.72,-146.3"/>
</g>
<!-- SendMessageFormComponent -->
<g id="node17" class="node">
<title>SendMessageFormComponent</title>
<polygon fill="#ffffb3" stroke="black" points="212.14,-84.8 23.86,-84.8 23.86,-48.8 212.14,-48.8 212.14,-84.8"/>
<text text-anchor="middle" x="118" y="-62.6" font-family="Times,serif" font-size="14.00">SendMessageFormComponent</text>
</g>
<!-- SendMessageFormComponent&#45;&gt;CommunityChannelsModule -->
<g id="edge17" class="edge">
<title>SendMessageFormComponent&#45;&gt;CommunityChannelsModule</title>
<path fill="none" stroke="black" d="M118,-84.95C118,-108.56 118,-146.8 118,-146.8 118,-146.8 1907.79,-146.8 1907.79,-146.8"/>
<polygon fill="black" stroke="black" points="1907.79,-150.3 1917.79,-146.8 1907.79,-143.3 1907.79,-150.3"/>
</g>
<!-- CommunityChannelsDashboardComponent  -->
<g id="node22" class="node">
<title>CommunityChannelsDashboardComponent </title>
<polygon fill="#fb8072" stroke="black" points="2139.47,-214.8 1874.53,-214.8 1874.53,-178.8 2139.47,-178.8 2139.47,-214.8"/>
<text text-anchor="middle" x="2007" y="-192.6" font-family="Times,serif" font-size="14.00">CommunityChannelsDashboardComponent </text>
</g>
<!-- CommunityChannelsModule&#45;&gt;CommunityChannelsDashboardComponent  -->
<g id="edge21" class="edge">
<title>CommunityChannelsModule&#45;&gt;CommunityChannelsDashboardComponent </title>
<path fill="none" stroke="black" stroke-dasharray="5,2" d="M2007,-149.91C2007,-149.91 2007,-168.79 2007,-168.79"/>
<polygon fill="black" stroke="black" points="2003.5,-168.79 2007,-178.79 2010.5,-168.79 2003.5,-168.79"/>
</g>
<!-- CommunityChannelsRoutingModule -->
<g id="node19" class="node">
<title>CommunityChannelsRoutingModule</title>
<polygon fill="#8dd3c7" stroke="black" points="4081.67,-84.8 4078.67,-88.8 4057.67,-88.8 4054.67,-84.8 3858.33,-84.8 3858.33,-48.8 4081.67,-48.8 4081.67,-84.8"/>
<text text-anchor="middle" x="3970" y="-62.6" font-family="Times,serif" font-size="14.00">CommunityChannelsRoutingModule</text>
</g>
<!-- CommunityChannelsRoutingModule&#45;&gt;CommunityChannelsModule -->
<g id="edge18" class="edge">
<title>CommunityChannelsRoutingModule&#45;&gt;CommunityChannelsModule</title>
<path fill="none" stroke="black" d="M3970,-84.95C3970,-108.56 3970,-146.8 3970,-146.8 3970,-146.8 2106.12,-146.8 2106.12,-146.8"/>
<polygon fill="black" stroke="black" points="2106.12,-143.3 2096.12,-146.8 2106.12,-150.3 2106.12,-143.3"/>
</g>
<!-- MentionModule -->
<g id="node20" class="node">
<title>MentionModule</title>
<polygon fill="#8dd3c7" stroke="black" points="3840.49,-84.8 3837.49,-88.8 3816.49,-88.8 3813.49,-84.8 3733.51,-84.8 3733.51,-48.8 3840.49,-48.8 3840.49,-84.8"/>
<text text-anchor="middle" x="3787" y="-62.6" font-family="Times,serif" font-size="14.00">MentionModule</text>
</g>
<!-- MentionModule&#45;&gt;CommunityChannelsModule -->
<g id="edge19" class="edge">
<title>MentionModule&#45;&gt;CommunityChannelsModule</title>
<path fill="none" stroke="black" d="M3787,-84.81C3787,-107.29 3787,-142.8 3787,-142.8 3787,-142.8 2106.18,-142.8 2106.18,-142.8"/>
<polygon fill="black" stroke="black" points="2106.18,-139.3 2096.18,-142.8 2106.18,-146.3 2106.18,-139.3"/>
</g>
<!-- SharedDirectivesModule -->
<g id="node21" class="node">
<title>SharedDirectivesModule</title>
<polygon fill="#8dd3c7" stroke="black" points="3715.95,-84.8 3712.95,-88.8 3691.95,-88.8 3688.95,-84.8 3560.05,-84.8 3560.05,-48.8 3715.95,-48.8 3715.95,-84.8"/>
<text text-anchor="middle" x="3638" y="-62.6" font-family="Times,serif" font-size="14.00">SharedDirectivesModule</text>
</g>
<!-- SharedDirectivesModule&#45;&gt;CommunityChannelsModule -->
<g id="edge20" class="edge">
<title>SharedDirectivesModule&#45;&gt;CommunityChannelsModule</title>
<path fill="none" stroke="black" d="M3638,-84.84C3638,-106.46 3638,-139.8 3638,-139.8 3638,-139.8 2106.14,-139.8 2106.14,-139.8"/>
<polygon fill="black" stroke="black" points="2106.14,-136.3 2096.14,-139.8 2106.14,-143.3 2106.14,-136.3"/>
</g>
</g>
</svg>
