<?xml version="1.0" encoding="UTF-8" standalone="no"?>
<!DOCTYPE svg PUBLIC "-//W3C//DTD SVG 1.1//EN"
 "http://www.w3.org/Graphics/SVG/1.1/DTD/svg11.dtd">
<!-- Generated by graphviz version 5.0.0 (20220707.1540)
 -->
<!-- Title: dependencies Pages: 1 -->
<svg width="529pt" height="247pt"
 viewBox="0.00 0.00 529.00 246.80" xmlns="http://www.w3.org/2000/svg" xmlns:xlink="http://www.w3.org/1999/xlink">
<g id="graph0" class="graph" transform="scale(1 1) rotate(0) translate(4 242.8)">
<title>dependencies</title>
<polygon fill="white" stroke="transparent" points="-4,4 -4,-242.8 525,-242.8 525,4 -4,4"/>
<text text-anchor="middle" x="260.5" y="-8.2" font-family="sans-serif" font-size="14.00">dependencies</text>
<g id="clust1" class="cluster">
<title>cluster_SearchModule</title>
<polygon fill="none" stroke="black" stroke-dasharray="1,5" points="8,-32.8 8,-230.8 513,-230.8 513,-32.8 8,-32.8"/>
</g>
<g id="clust6" class="cluster">
<title>cluster_SearchModule_exports</title>
<polygon fill="none" stroke="black" points="182,-170.8 182,-222.8 344,-222.8 344,-170.8 182,-170.8"/>
</g>
<g id="clust2" class="cluster">
<title>cluster_SearchModule_declarations</title>
<polygon fill="none" stroke="black" points="182,-40.8 182,-92.8 505,-92.8 505,-40.8 182,-40.8"/>
</g>
<g id="clust5" class="cluster">
<title>cluster_SearchModule_imports</title>
<polygon fill="none" stroke="black" points="16,-40.8 16,-92.8 174,-92.8 174,-40.8 16,-40.8"/>
</g>
<!-- SearchBoxComponent -->
<g id="node1" class="node">
<title>SearchBoxComponent</title>
<polygon fill="#ffffb3" stroke="black" points="497.26,-84.8 354.74,-84.8 354.74,-48.8 497.26,-48.8 497.26,-84.8"/>
<text text-anchor="middle" x="426" y="-62.6" font-family="Times,serif" font-size="14.00">SearchBoxComponent</text>
</g>
<!-- SearchModule -->
<g id="node3" class="node">
<title>SearchModule</title>
<polygon fill="#8dd3c7" stroke="black" points="311.64,-149.8 308.64,-153.8 287.64,-153.8 284.64,-149.8 214.36,-149.8 214.36,-113.8 311.64,-113.8 311.64,-149.8"/>
<text text-anchor="middle" x="263" y="-127.6" font-family="Times,serif" font-size="14.00">SearchModule</text>
</g>
<!-- SearchBoxComponent&#45;&gt;SearchModule -->
<g id="edge1" class="edge">
<title>SearchBoxComponent&#45;&gt;SearchModule</title>
<path fill="none" stroke="black" d="M426,-84.91C426,-104.14 426,-131.8 426,-131.8 426,-131.8 321.91,-131.8 321.91,-131.8"/>
<polygon fill="black" stroke="black" points="321.91,-128.3 311.91,-131.8 321.91,-135.3 321.91,-128.3"/>
</g>
<!-- SearchPageComponent -->
<g id="node2" class="node">
<title>SearchPageComponent</title>
<polygon fill="#ffffb3" stroke="black" points="336.14,-84.8 189.86,-84.8 189.86,-48.8 336.14,-48.8 336.14,-84.8"/>
<text text-anchor="middle" x="263" y="-62.6" font-family="Times,serif" font-size="14.00">SearchPageComponent</text>
</g>
<!-- SearchPageComponent&#45;&gt;SearchModule -->
<g id="edge2" class="edge">
<title>SearchPageComponent&#45;&gt;SearchModule</title>
<path fill="none" stroke="black" d="M263,-84.91C263,-84.91 263,-103.79 263,-103.79"/>
<polygon fill="black" stroke="black" points="259.5,-103.79 263,-113.79 266.5,-103.79 259.5,-103.79"/>
</g>
<!-- SearchBoxComponent  -->
<g id="node5" class="node">
<title>SearchBoxComponent </title>
<polygon fill="#fb8072" stroke="black" points="336.26,-214.8 189.74,-214.8 189.74,-178.8 336.26,-178.8 336.26,-214.8"/>
<text text-anchor="middle" x="263" y="-192.6" font-family="Times,serif" font-size="14.00">SearchBoxComponent </text>
</g>
<!-- SearchModule&#45;&gt;SearchBoxComponent  -->
<g id="edge4" class="edge">
<title>SearchModule&#45;&gt;SearchBoxComponent </title>
<path fill="none" stroke="black" stroke-dasharray="5,2" d="M263,-149.91C263,-149.91 263,-168.79 263,-168.79"/>
<polygon fill="black" stroke="black" points="259.5,-168.79 263,-178.79 266.5,-168.79 259.5,-168.79"/>
</g>
<!-- SearchRoutingModule -->
<g id="node4" class="node">
<title>SearchRoutingModule</title>
<polygon fill="#8dd3c7" stroke="black" points="166.26,-84.8 163.26,-88.8 142.26,-88.8 139.26,-84.8 23.74,-84.8 23.74,-48.8 166.26,-48.8 166.26,-84.8"/>
<text text-anchor="middle" x="95" y="-62.6" font-family="Times,serif" font-size="14.00">SearchRoutingModule</text>
</g>
<!-- SearchRoutingModule&#45;&gt;SearchModule -->
<g id="edge3" class="edge">
<title>SearchRoutingModule&#45;&gt;SearchModule</title>
<path fill="none" stroke="black" d="M95,-84.91C95,-104.14 95,-131.8 95,-131.8 95,-131.8 203.96,-131.8 203.96,-131.8"/>
<polygon fill="black" stroke="black" points="203.96,-135.3 213.96,-131.8 203.96,-128.3 203.96,-135.3"/>
</g>
</g>
</svg>
