<?xml version="1.0" encoding="UTF-8" standalone="no"?>
<!DOCTYPE svg PUBLIC "-//W3C//DTD SVG 1.1//EN"
 "http://www.w3.org/Graphics/SVG/1.1/DTD/svg11.dtd">
<!-- Generated by graphviz version 5.0.0 (20220707.1540)
 -->
<!-- Title: dependencies Pages: 1 -->
<svg width="1219pt" height="247pt"
 viewBox="0.00 0.00 1219.00 246.80" xmlns="http://www.w3.org/2000/svg" xmlns:xlink="http://www.w3.org/1999/xlink">
<g id="graph0" class="graph" transform="scale(1 1) rotate(0) translate(4 242.8)">
<title>dependencies</title>
<polygon fill="white" stroke="transparent" points="-4,4 -4,-242.8 1215,-242.8 1215,4 -4,4"/>
<text text-anchor="middle" x="605.5" y="-8.2" font-family="sans-serif" font-size="14.00">dependencies</text>
<g id="clust1" class="cluster">
<title>cluster_NotificationsModule</title>
<polygon fill="none" stroke="black" stroke-dasharray="1,5" points="8,-32.8 8,-230.8 1203,-230.8 1203,-32.8 8,-32.8"/>
</g>
<g id="clust2" class="cluster">
<title>cluster_NotificationsModule_declarations</title>
<polygon fill="none" stroke="black" points="364,-40.8 364,-92.8 1195,-92.8 1195,-40.8 364,-40.8"/>
</g>
<g id="clust7" class="cluster">
<title>cluster_NotificationsModule_imports</title>
<polygon fill="none" stroke="black" points="16,-40.8 16,-92.8 356,-92.8 356,-40.8 16,-40.8"/>
</g>
<g id="clust8" class="cluster">
<title>cluster_NotificationsModule_exports</title>
<polygon fill="none" stroke="black" points="361,-170.8 361,-222.8 785,-222.8 785,-170.8 361,-170.8"/>
</g>
<!-- NotificationsListComponent -->
<g id="node1" class="node">
<title>NotificationsListComponent</title>
<polygon fill="#ffffb3" stroke="black" points="1187.21,-84.8 1010.79,-84.8 1010.79,-48.8 1187.21,-48.8 1187.21,-84.8"/>
<text text-anchor="middle" x="1099" y="-62.6" font-family="Times,serif" font-size="14.00">NotificationsListComponent</text>
</g>
<!-- NotificationsModule -->
<g id="node5" class="node">
<title>NotificationsModule</title>
<polygon fill="#8dd3c7" stroke="black" points="643.15,-149.8 640.15,-153.8 619.15,-153.8 616.15,-149.8 510.85,-149.8 510.85,-113.8 643.15,-113.8 643.15,-149.8"/>
<text text-anchor="middle" x="577" y="-127.6" font-family="Times,serif" font-size="14.00">NotificationsModule</text>
</g>
<!-- NotificationsListComponent&#45;&gt;NotificationsModule -->
<g id="edge1" class="edge">
<title>NotificationsListComponent&#45;&gt;NotificationsModule</title>
<path fill="none" stroke="black" d="M1099,-85.08C1099,-106.12 1099,-137.8 1099,-137.8 1099,-137.8 653.38,-137.8 653.38,-137.8"/>
<polygon fill="black" stroke="black" points="653.38,-134.3 643.38,-137.8 653.38,-141.3 653.38,-134.3"/>
</g>
<!-- NotificationsListItemComponent -->
<g id="node2" class="node">
<title>NotificationsListItemComponent</title>
<polygon fill="#ffffb3" stroke="black" points="992.86,-84.8 791.14,-84.8 791.14,-48.8 992.86,-48.8 992.86,-84.8"/>
<text text-anchor="middle" x="892" y="-62.6" font-family="Times,serif" font-size="14.00">NotificationsListItemComponent</text>
</g>
<!-- NotificationsListItemComponent&#45;&gt;NotificationsModule -->
<g id="edge2" class="edge">
<title>NotificationsListItemComponent&#45;&gt;NotificationsModule</title>
<path fill="none" stroke="black" d="M892,-84.82C892,-102.17 892,-125.8 892,-125.8 892,-125.8 653.42,-125.8 653.42,-125.8"/>
<polygon fill="black" stroke="black" points="653.42,-122.3 643.42,-125.8 653.42,-129.3 653.42,-122.3"/>
</g>
<!-- NotificationsPageComponent -->
<g id="node3" class="node">
<title>NotificationsPageComponent</title>
<polygon fill="#ffffb3" stroke="black" points="772.64,-84.8 591.36,-84.8 591.36,-48.8 772.64,-48.8 772.64,-84.8"/>
<text text-anchor="middle" x="682" y="-62.6" font-family="Times,serif" font-size="14.00">NotificationsPageComponent</text>
</g>
<!-- NotificationsPageComponent&#45;&gt;NotificationsModule -->
<g id="edge3" class="edge">
<title>NotificationsPageComponent&#45;&gt;NotificationsModule</title>
<path fill="none" stroke="black" d="M617.25,-84.91C617.25,-84.91 617.25,-103.79 617.25,-103.79"/>
<polygon fill="black" stroke="black" points="613.75,-103.79 617.25,-113.79 620.75,-103.79 613.75,-103.79"/>
</g>
<!-- NotificationsPopoverComponent -->
<g id="node4" class="node">
<title>NotificationsPopoverComponent</title>
<polygon fill="#ffffb3" stroke="black" points="573.59,-84.8 372.41,-84.8 372.41,-48.8 573.59,-48.8 573.59,-84.8"/>
<text text-anchor="middle" x="473" y="-62.6" font-family="Times,serif" font-size="14.00">NotificationsPopoverComponent</text>
</g>
<!-- NotificationsPopoverComponent&#45;&gt;NotificationsModule -->
<g id="edge4" class="edge">
<title>NotificationsPopoverComponent&#45;&gt;NotificationsModule</title>
<path fill="none" stroke="black" d="M542.11,-84.91C542.11,-84.91 542.11,-103.79 542.11,-103.79"/>
<polygon fill="black" stroke="black" points="538.61,-103.79 542.11,-113.79 545.61,-103.79 538.61,-103.79"/>
</g>
<!-- NotificationsPageComponent  -->
<g id="node8" class="node">
<title>NotificationsPageComponent </title>
<polygon fill="#fb8072" stroke="black" points="776.64,-214.8 591.36,-214.8 591.36,-178.8 776.64,-178.8 776.64,-214.8"/>
<text text-anchor="middle" x="684" y="-192.6" font-family="Times,serif" font-size="14.00">NotificationsPageComponent </text>
</g>
<!-- NotificationsModule&#45;&gt;NotificationsPageComponent  -->
<g id="edge7" class="edge">
<title>NotificationsModule&#45;&gt;NotificationsPageComponent </title>
<path fill="none" stroke="black" stroke-dasharray="5,2" d="M617.38,-149.91C617.38,-149.91 617.38,-168.79 617.38,-168.79"/>
<polygon fill="black" stroke="black" points="613.88,-168.79 617.38,-178.79 620.88,-168.79 613.88,-168.79"/>
</g>
<!-- NotificationsPopoverComponent  -->
<g id="node9" class="node">
<title>NotificationsPopoverComponent </title>
<polygon fill="#fb8072" stroke="black" points="573.09,-214.8 368.91,-214.8 368.91,-178.8 573.09,-178.8 573.09,-214.8"/>
<text text-anchor="middle" x="471" y="-192.6" font-family="Times,serif" font-size="14.00">NotificationsPopoverComponent </text>
</g>
<!-- NotificationsModule&#45;&gt;NotificationsPopoverComponent  -->
<g id="edge8" class="edge">
<title>NotificationsModule&#45;&gt;NotificationsPopoverComponent </title>
<path fill="none" stroke="black" stroke-dasharray="5,2" d="M541.99,-149.91C541.99,-149.91 541.99,-168.79 541.99,-168.79"/>
<polygon fill="black" stroke="black" points="538.49,-168.79 541.99,-178.79 545.49,-168.79 538.49,-168.79"/>
</g>
<!-- InfiniteScrollModule -->
<g id="node6" class="node">
<title>InfiniteScrollModule</title>
<polygon fill="#8dd3c7" stroke="black" points="348.2,-84.8 345.2,-88.8 324.2,-88.8 321.2,-84.8 213.8,-84.8 213.8,-48.8 348.2,-48.8 348.2,-84.8"/>
<text text-anchor="middle" x="281" y="-62.6" font-family="Times,serif" font-size="14.00">InfiniteScrollModule</text>
</g>
<!-- InfiniteScrollModule&#45;&gt;NotificationsModule -->
<g id="edge5" class="edge">
<title>InfiniteScrollModule&#45;&gt;NotificationsModule</title>
<path fill="none" stroke="black" d="M281,-84.82C281,-102.17 281,-125.8 281,-125.8 281,-125.8 500.57,-125.8 500.57,-125.8"/>
<polygon fill="black" stroke="black" points="500.57,-129.3 510.57,-125.8 500.57,-122.3 500.57,-129.3"/>
</g>
<!-- NotificationRoutingModule -->
<g id="node7" class="node">
<title>NotificationRoutingModule</title>
<polygon fill="#8dd3c7" stroke="black" points="196.32,-84.8 193.32,-88.8 172.32,-88.8 169.32,-84.8 23.68,-84.8 23.68,-48.8 196.32,-48.8 196.32,-84.8"/>
<text text-anchor="middle" x="110" y="-62.6" font-family="Times,serif" font-size="14.00">NotificationRoutingModule</text>
</g>
<!-- NotificationRoutingModule&#45;&gt;NotificationsModule -->
<g id="edge6" class="edge">
<title>NotificationRoutingModule&#45;&gt;NotificationsModule</title>
<path fill="none" stroke="black" d="M110,-85.08C110,-106.12 110,-137.8 110,-137.8 110,-137.8 500.59,-137.8 500.59,-137.8"/>
<polygon fill="black" stroke="black" points="500.59,-141.3 510.59,-137.8 500.59,-134.3 500.59,-141.3"/>
</g>
</g>
</svg>
