<?xml version="1.0" encoding="UTF-8" standalone="no"?>
<!DOCTYPE svg PUBLIC "-//W3C//DTD SVG 1.1//EN"
 "http://www.w3.org/Graphics/SVG/1.1/DTD/svg11.dtd">
<!-- Generated by graphviz version 2.47.0 (20210316.0004)
 -->
<!-- Title: dependencies Pages: 1 -->
<svg width="2268pt" height="211pt"
     viewBox="0.00 0.00 2268.00 211.00" xmlns="http://www.w3.org/2000/svg">
<g id="graph0" class="graph" transform="scale(1 1) rotate(0) translate(4 207)">
<title>dependencies</title>
<polygon fill="white" stroke="transparent" points="-4,4 -4,-207 2264,-207 2264,4 -4,4"/>
<text text-anchor="start" x="1109.01" y="-42.4" font-family="sans-serif" font-weight="bold" font-size="14.00">Legend</text>
<polygon fill="#ffffb3" stroke="transparent" points="896,-10 896,-30 916,-30 916,-10 896,-10"/>
<text text-anchor="start" x="919.63" y="-15.4" font-family="sans-serif" font-size="14.00"> &#160;Declarations</text>
<polygon fill="#8dd3c7" stroke="transparent" points="1009,-10 1009,-30 1029,-30 1029,-10 1009,-10"/>
<text text-anchor="start" x="1032.73" y="-15.4" font-family="sans-serif" font-size="14.00"> &#160;Module</text>
<polygon fill="#80b1d3" stroke="transparent" points="1095,-10 1095,-30 1115,-30 1115,-10 1095,-10"/>
<text text-anchor="start" x="1118.78" y="-15.4" font-family="sans-serif" font-size="14.00"> &#160;Bootstrap</text>
<polygon fill="#fdb462" stroke="transparent" points="1192,-10 1192,-30 1212,-30 1212,-10 1192,-10"/>
<text text-anchor="start" x="1215.67" y="-15.4" font-family="sans-serif" font-size="14.00"> &#160;Providers</text>
<polygon fill="#fb8072" stroke="transparent" points="1288,-10 1288,-30 1308,-30 1308,-10 1288,-10"/>
<text text-anchor="start" x="1311.73" y="-15.4" font-family="sans-serif" font-size="14.00"> &#160;Exports</text>
<g id="clust1" class="cluster">
<title>cluster_PublicEventsModule</title>
<polygon fill="none" stroke="black" stroke-dasharray="1,5" points="8,-70 8,-195 2252,-195 2252,-70 8,-70"/>
</g>
<g id="clust14" class="cluster">
<title>cluster_PublicEventsModule_imports</title>
<polygon fill="none" stroke="black" points="2050,-78 2050,-130 2244,-130 2244,-78 2050,-78"/>
</g>
<g id="clust2" class="cluster">
<title>cluster_PublicEventsModule_declarations</title>
<polygon fill="none" stroke="black" points="16,-78 16,-130 2042,-130 2042,-78 16,-78"/>
</g>
<!-- AgendaComponent -->
<g id="node1" class="node">
<title>AgendaComponent</title>
<polygon fill="#ffffb3" stroke="black" points="2034.37,-122 1909.63,-122 1909.63,-86 2034.37,-86 2034.37,-122"/>
<text text-anchor="middle" x="1972" y="-99.8" font-family="Times,serif" font-size="14.00">AgendaComponent</text>
</g>
<!-- PublicEventsModule -->
<g id="node12" class="node">
<title>PublicEventsModule</title>
<polygon fill="#8dd3c7" stroke="black" points="1117.93,-187 1114.93,-191 1093.93,-191 1090.93,-187 984.07,-187 984.07,-151 1117.93,-151 1117.93,-187"/>
<text text-anchor="middle" x="1051" y="-164.8" font-family="Times,serif" font-size="14.00">PublicEventsModule</text>
</g>
<!-- AgendaComponent&#45;&gt;PublicEventsModule -->
<g id="edge1" class="edge">
<title>AgendaComponent&#45;&gt;PublicEventsModule</title>
<path fill="none" stroke="black" d="M1972,-122.28C1972,-143.32 1972,-175 1972,-175 1972,-175 1127.98,-175 1127.98,-175"/>
<polygon fill="black" stroke="black" points="1127.98,-171.5 1117.98,-175 1127.98,-178.5 1127.98,-171.5"/>
</g>
<!-- AttendingMembersComponent -->
<g id="node2" class="node">
<title>AttendingMembersComponent</title>
<polygon fill="#ffffb3" stroke="black" points="1891.2,-122 1700.8,-122 1700.8,-86 1891.2,-86 1891.2,-122"/>
<text text-anchor="middle" x="1796" y="-99.8" font-family="Times,serif" font-size="14.00">AttendingMembersComponent</text>
</g>
<!-- AttendingMembersComponent&#45;&gt;PublicEventsModule -->
<g id="edge2" class="edge">
<title>AttendingMembersComponent&#45;&gt;PublicEventsModule</title>
<path fill="none" stroke="black" d="M1796,-122.11C1796,-141.34 1796,-169 1796,-169 1796,-169 1127.77,-169 1127.77,-169"/>
<polygon fill="black" stroke="black" points="1127.77,-165.5 1117.77,-169 1127.77,-172.5 1127.77,-165.5"/>
</g>
<!-- AutoAttendanceComponent -->
<g id="node3" class="node">
<title>AutoAttendanceComponent</title>
<polygon fill="#ffffb3" stroke="black" points="1682.58,-122 1509.42,-122 1509.42,-86 1682.58,-86 1682.58,-122"/>
<text text-anchor="middle" x="1596" y="-99.8" font-family="Times,serif" font-size="14.00">AutoAttendanceComponent</text>
</g>
<!-- AutoAttendanceComponent&#45;&gt;PublicEventsModule -->
<g id="edge3" class="edge">
<title>AutoAttendanceComponent&#45;&gt;PublicEventsModule</title>
<path fill="none" stroke="black" d="M1596,-122.02C1596,-139.37 1596,-163 1596,-163 1596,-163 1127.83,-163 1127.83,-163"/>
<polygon fill="black" stroke="black" points="1127.83,-159.5 1117.83,-163 1127.83,-166.5 1127.83,-159.5"/>
</g>
<!-- CollaborationCommunitiesComponent -->
<g id="node4" class="node">
<title>CollaborationCommunitiesComponent</title>
<polygon fill="#ffffb3" stroke="black" points="1491.77,-122 1258.23,-122 1258.23,-86 1491.77,-86 1491.77,-122"/>
<text text-anchor="middle" x="1375" y="-99.8" font-family="Times,serif" font-size="14.00">CollaborationCommunitiesComponent</text>
</g>
<!-- CollaborationCommunitiesComponent&#45;&gt;PublicEventsModule -->
<g id="edge4" class="edge">
<title>CollaborationCommunitiesComponent&#45;&gt;PublicEventsModule</title>
<path fill="none" stroke="black" d="M1375,-122.24C1375,-137.57 1375,-157 1375,-157 1375,-157 1127.74,-157 1127.74,-157"/>
<polygon fill="black" stroke="black" points="1127.74,-153.5 1117.74,-157 1127.74,-160.5 1127.74,-153.5"/>
</g>
<!-- EventDescriptionComponent -->
<g id="node5" class="node">
<title>EventDescriptionComponent</title>
<polygon fill="#ffffb3" stroke="black" points="1239.8,-122 1060.2,-122 1060.2,-86 1239.8,-86 1239.8,-122"/>
<text text-anchor="middle" x="1150" y="-99.8" font-family="Times,serif" font-size="14.00">EventDescriptionComponent</text>
</g>
<!-- EventDescriptionComponent&#45;&gt;PublicEventsModule -->
<g id="edge5" class="edge">
<title>EventDescriptionComponent&#45;&gt;PublicEventsModule</title>
<path fill="none" stroke="black" d="M1089.03,-122.11C1089.03,-122.11 1089.03,-140.99 1089.03,-140.99"/>
<polygon fill="black" stroke="black" points="1085.53,-140.99 1089.03,-150.99 1092.53,-140.99 1085.53,-140.99"/>
</g>
<!-- HighlightedLinksComponent -->
<g id="node6" class="node">
<title>HighlightedLinksComponent</title>
<polygon fill="#ffffb3" stroke="black" points="1042.1,-122 861.9,-122 861.9,-86 1042.1,-86 1042.1,-122"/>
<text text-anchor="middle" x="952" y="-99.8" font-family="Times,serif" font-size="14.00">HighlightedLinksComponent</text>
</g>
<!-- HighlightedLinksComponent&#45;&gt;PublicEventsModule -->
<g id="edge6" class="edge">
<title>HighlightedLinksComponent&#45;&gt;PublicEventsModule</title>
<path fill="none" stroke="black" d="M1013.17,-122.11C1013.17,-122.11 1013.17,-140.99 1013.17,-140.99"/>
<polygon fill="black" stroke="black" points="1009.67,-140.99 1013.17,-150.99 1016.67,-140.99 1009.67,-140.99"/>
</g>
<!-- HomeEventComponent -->
<g id="node7" class="node">
<title>HomeEventComponent</title>
<polygon fill="#ffffb3" stroke="black" points="844.2,-122 695.8,-122 695.8,-86 844.2,-86 844.2,-122"/>
<text text-anchor="middle" x="770" y="-99.8" font-family="Times,serif" font-size="14.00">HomeEventComponent</text>
</g>
<!-- HomeEventComponent&#45;&gt;PublicEventsModule -->
<g id="edge7" class="edge">
<title>HomeEventComponent&#45;&gt;PublicEventsModule</title>
<path fill="none" stroke="black" d="M770,-122.24C770,-137.57 770,-157 770,-157 770,-157 974.05,-157 974.05,-157"/>
<polygon fill="black" stroke="black" points="974.05,-160.5 984.05,-157 974.05,-153.5 974.05,-160.5"/>
</g>
<!-- LiveSessionsComponent -->
<g id="node8" class="node">
<title>LiveSessionsComponent</title>
<polygon fill="#ffffb3" stroke="black" points="677.71,-122 522.29,-122 522.29,-86 677.71,-86 677.71,-122"/>
<text text-anchor="middle" x="600" y="-99.8" font-family="Times,serif" font-size="14.00">LiveSessionsComponent</text>
</g>
<!-- LiveSessionsComponent&#45;&gt;PublicEventsModule -->
<g id="edge8" class="edge">
<title>LiveSessionsComponent&#45;&gt;PublicEventsModule</title>
<path fill="none" stroke="black" d="M600,-122.02C600,-139.37 600,-163 600,-163 600,-163 973.97,-163 973.97,-163"/>
<polygon fill="black" stroke="black" points="973.97,-166.5 983.97,-163 973.97,-159.5 973.97,-166.5"/>
</g>
<!-- SpeakerSessionPageComponent -->
<g id="node9" class="node">
<title>SpeakerSessionPageComponent</title>
<polygon fill="#ffffb3" stroke="black" points="504.41,-122 307.59,-122 307.59,-86 504.41,-86 504.41,-122"/>
<text text-anchor="middle" x="406" y="-99.8" font-family="Times,serif" font-size="14.00">SpeakerSessionPageComponent</text>
</g>
<!-- SpeakerSessionPageComponent&#45;&gt;PublicEventsModule -->
<g id="edge9" class="edge">
<title>SpeakerSessionPageComponent&#45;&gt;PublicEventsModule</title>
<path fill="none" stroke="black" d="M406,-122.11C406,-141.34 406,-169 406,-169 406,-169 974.1,-169 974.1,-169"/>
<polygon fill="black" stroke="black" points="974.1,-172.5 984.1,-169 974.1,-165.5 974.1,-172.5"/>
</g>
<!-- TeamComponent -->
<g id="node10" class="node">
<title>TeamComponent</title>
<polygon fill="#ffffb3" stroke="black" points="289.7,-122 176.3,-122 176.3,-86 289.7,-86 289.7,-122"/>
<text text-anchor="middle" x="233" y="-99.8" font-family="Times,serif" font-size="14.00">TeamComponent</text>
</g>
<!-- TeamComponent&#45;&gt;PublicEventsModule -->
<g id="edge10" class="edge">
<title>TeamComponent&#45;&gt;PublicEventsModule</title>
<path fill="none" stroke="black" d="M233,-122.28C233,-143.32 233,-175 233,-175 233,-175 974.06,-175 974.06,-175"/>
<polygon fill="black" stroke="black" points="974.06,-178.5 984.06,-175 974.06,-171.5 974.06,-178.5"/>
</g>
<!-- UsersListComponent -->
<g id="node11" class="node">
<title>UsersListComponent</title>
<polygon fill="#ffffb3" stroke="black" points="158.48,-122 23.52,-122 23.52,-86 158.48,-86 158.48,-122"/>
<text text-anchor="middle" x="91" y="-99.8" font-family="Times,serif" font-size="14.00">UsersListComponent</text>
</g>
<!-- UsersListComponent&#45;&gt;PublicEventsModule -->
<g id="edge11" class="edge">
<title>UsersListComponent&#45;&gt;PublicEventsModule</title>
<path fill="none" stroke="black" d="M91,-122.09C91,-145.13 91,-182 91,-182 91,-182 974.26,-182 974.26,-182"/>
<polygon fill="black" stroke="black" points="974.26,-185.5 984.26,-182 974.26,-178.5 974.26,-185.5"/>
</g>
<!-- PublicEventsRoutingModule -->
<g id="node13" class="node">
<title>PublicEventsRoutingModule</title>
<polygon fill="#8dd3c7" stroke="black" points="2236.05,-122 2233.05,-126 2212.05,-126 2209.05,-122 2057.95,-122 2057.95,-86 2236.05,-86 2236.05,-122"/>
<text text-anchor="middle" x="2147" y="-99.8" font-family="Times,serif" font-size="14.00">PublicEventsRoutingModule</text>
</g>
<!-- PublicEventsRoutingModule&#45;&gt;PublicEventsModule -->
<g id="edge12" class="edge">
<title>PublicEventsRoutingModule&#45;&gt;PublicEventsModule</title>
<path fill="none" stroke="black" d="M2147,-122.09C2147,-145.13 2147,-182 2147,-182 2147,-182 1127.91,-182 1127.91,-182"/>
<polygon fill="black" stroke="black" points="1127.91,-178.5 1117.91,-182 1127.91,-185.5 1127.91,-178.5"/>
</g>
</g>
</svg>
