<?xml version="1.0" encoding="UTF-8" standalone="no"?>
<!DOCTYPE svg PUBLIC "-//W3C//DTD SVG 1.1//EN"
 "http://www.w3.org/Graphics/SVG/1.1/DTD/svg11.dtd">
<!-- Generated by graphviz version 2.47.3 (20210619.1520)
 -->
<!-- Title: dependencies Pages: 1 -->
<svg width="3819pt" height="174pt"
 viewBox="0.00 0.00 3819.00 173.80" xmlns="http://www.w3.org/2000/svg" xmlns:xlink="http://www.w3.org/1999/xlink">
<g id="graph0" class="graph" transform="scale(1 1) rotate(0) translate(4 169.8)">
<title>dependencies</title>
<polygon fill="white" stroke="transparent" points="-4,4 -4,-169.8 3815,-169.8 3815,4 -4,4"/>
<text text-anchor="middle" x="1905.5" y="-8.2" font-family="sans-serif" font-size="14.00">dependencies</text>
<g id="clust1" class="cluster">
<title>cluster_PublicEventsModule</title>
<polygon fill="none" stroke="black" stroke-dasharray="1,5" points="8,-32.8 8,-157.8 3803,-157.8 3803,-32.8 8,-32.8"/>
</g>
<g id="clust21" class="cluster">
<title>cluster_PublicEventsModule_imports</title>
<polygon fill="none" stroke="black" points="3427,-40.8 3427,-92.8 3795,-92.8 3795,-40.8 3427,-40.8"/>
</g>
<g id="clust2" class="cluster">
<title>cluster_PublicEventsModule_declarations</title>
<polygon fill="none" stroke="black" points="16,-40.8 16,-92.8 3419,-92.8 3419,-40.8 16,-40.8"/>
</g>
<!-- AgendaComponent -->
<g id="node1" class="node">
<title>AgendaComponent</title>
<polygon fill="#ffffb3" stroke="black" points="3411.37,-84.8 3286.63,-84.8 3286.63,-48.8 3411.37,-48.8 3411.37,-84.8"/>
<text text-anchor="middle" x="3349" y="-62.6" font-family="Times,serif" font-size="14.00">AgendaComponent</text>
</g>
<!-- PublicEventsModule -->
<g id="node19" class="node">
<title>PublicEventsModule</title>
<polygon fill="#8dd3c7" stroke="black" points="1951.93,-149.8 1948.93,-153.8 1927.93,-153.8 1924.93,-149.8 1818.07,-149.8 1818.07,-113.8 1951.93,-113.8 1951.93,-149.8"/>
<text text-anchor="middle" x="1885" y="-127.6" font-family="Times,serif" font-size="14.00">PublicEventsModule</text>
</g>
<!-- AgendaComponent&#45;&gt;PublicEventsModule -->
<g id="edge1" class="edge">
<title>AgendaComponent&#45;&gt;PublicEventsModule</title>
<path fill="none" stroke="black" d="M3349,-84.84C3349,-106.46 3349,-139.8 3349,-139.8 3349,-139.8 1962.19,-139.8 1962.19,-139.8"/>
<polygon fill="black" stroke="black" points="1962.19,-136.3 1952.19,-139.8 1962.19,-143.3 1962.19,-136.3"/>
</g>
<!-- AttendingMembersComponent -->
<g id="node2" class="node">
<title>AttendingMembersComponent</title>
<polygon fill="#ffffb3" stroke="black" points="3268.2,-84.8 3077.8,-84.8 3077.8,-48.8 3268.2,-48.8 3268.2,-84.8"/>
<text text-anchor="middle" x="3173" y="-62.6" font-family="Times,serif" font-size="14.00">AttendingMembersComponent</text>
</g>
<!-- AttendingMembersComponent&#45;&gt;PublicEventsModule -->
<g id="edge2" class="edge">
<title>AttendingMembersComponent&#45;&gt;PublicEventsModule</title>
<path fill="none" stroke="black" d="M3173,-84.93C3173,-105.37 3173,-135.8 3173,-135.8 3173,-135.8 1961.98,-135.8 1961.98,-135.8"/>
<polygon fill="black" stroke="black" points="1961.99,-132.3 1951.98,-135.8 1961.98,-139.3 1961.99,-132.3"/>
</g>
<!-- AutoAttendanceComponent -->
<g id="node3" class="node">
<title>AutoAttendanceComponent</title>
<polygon fill="#ffffb3" stroke="black" points="3059.58,-84.8 2886.42,-84.8 2886.42,-48.8 3059.58,-48.8 3059.58,-84.8"/>
<text text-anchor="middle" x="2973" y="-62.6" font-family="Times,serif" font-size="14.00">AutoAttendanceComponent</text>
</g>
<!-- AutoAttendanceComponent&#45;&gt;PublicEventsModule -->
<g id="edge3" class="edge">
<title>AutoAttendanceComponent&#45;&gt;PublicEventsModule</title>
<path fill="none" stroke="black" d="M2973,-84.91C2973,-104.14 2973,-131.8 2973,-131.8 2973,-131.8 1961.83,-131.8 1961.83,-131.8"/>
<polygon fill="black" stroke="black" points="1961.83,-128.3 1951.83,-131.8 1961.83,-135.3 1961.83,-128.3"/>
</g>
<!-- CollaborationCommunitiesComponent -->
<g id="node4" class="node">
<title>CollaborationCommunitiesComponent</title>
<polygon fill="#ffffb3" stroke="black" points="2868.77,-84.8 2635.23,-84.8 2635.23,-48.8 2868.77,-48.8 2868.77,-84.8"/>
<text text-anchor="middle" x="2752" y="-62.6" font-family="Times,serif" font-size="14.00">CollaborationCommunitiesComponent</text>
</g>
<!-- CollaborationCommunitiesComponent&#45;&gt;PublicEventsModule -->
<g id="edge4" class="edge">
<title>CollaborationCommunitiesComponent&#45;&gt;PublicEventsModule</title>
<path fill="none" stroke="black" d="M2752,-85.07C2752,-103.36 2752,-128.8 2752,-128.8 2752,-128.8 1961.95,-128.8 1961.95,-128.8"/>
<polygon fill="black" stroke="black" points="1961.95,-125.3 1951.95,-128.8 1961.95,-132.3 1961.95,-125.3"/>
</g>
<!-- EventDescriptionComponent -->
<g id="node5" class="node">
<title>EventDescriptionComponent</title>
<polygon fill="#ffffb3" stroke="black" points="2616.8,-84.8 2437.2,-84.8 2437.2,-48.8 2616.8,-48.8 2616.8,-84.8"/>
<text text-anchor="middle" x="2527" y="-62.6" font-family="Times,serif" font-size="14.00">EventDescriptionComponent</text>
</g>
<!-- EventDescriptionComponent&#45;&gt;PublicEventsModule -->
<g id="edge5" class="edge">
<title>EventDescriptionComponent&#45;&gt;PublicEventsModule</title>
<path fill="none" stroke="black" d="M2527,-84.83C2527,-101.86 2527,-124.8 2527,-124.8 2527,-124.8 1961.89,-124.8 1961.89,-124.8"/>
<polygon fill="black" stroke="black" points="1961.89,-121.3 1951.89,-124.8 1961.89,-128.3 1961.89,-121.3"/>
</g>
<!-- HighlightedLinksComponent -->
<g id="node6" class="node">
<title>HighlightedLinksComponent</title>
<polygon fill="#ffffb3" stroke="black" points="2419.1,-84.8 2238.9,-84.8 2238.9,-48.8 2419.1,-48.8 2419.1,-84.8"/>
<text text-anchor="middle" x="2329" y="-62.6" font-family="Times,serif" font-size="14.00">HighlightedLinksComponent</text>
</g>
<!-- HighlightedLinksComponent&#45;&gt;PublicEventsModule -->
<g id="edge6" class="edge">
<title>HighlightedLinksComponent&#45;&gt;PublicEventsModule</title>
<path fill="none" stroke="black" d="M2329,-84.81C2329,-100.85 2329,-121.8 2329,-121.8 2329,-121.8 1961.95,-121.8 1961.95,-121.8"/>
<polygon fill="black" stroke="black" points="1961.95,-118.3 1951.95,-121.8 1961.95,-125.3 1961.95,-118.3"/>
</g>
<!-- HomeEventComponent -->
<g id="node7" class="node">
<title>HomeEventComponent</title>
<polygon fill="#ffffb3" stroke="black" points="2221.2,-84.8 2072.8,-84.8 2072.8,-48.8 2221.2,-48.8 2221.2,-84.8"/>
<text text-anchor="middle" x="2147" y="-62.6" font-family="Times,serif" font-size="14.00">HomeEventComponent</text>
</g>
<!-- HomeEventComponent&#45;&gt;PublicEventsModule -->
<g id="edge7" class="edge">
<title>HomeEventComponent&#45;&gt;PublicEventsModule</title>
<path fill="none" stroke="black" d="M2147,-84.92C2147,-99.58 2147,-117.8 2147,-117.8 2147,-117.8 1961.79,-117.8 1961.79,-117.8"/>
<polygon fill="black" stroke="black" points="1961.79,-114.3 1951.79,-117.8 1961.79,-121.3 1961.79,-114.3"/>
</g>
<!-- LiveSessionsComponent -->
<g id="node8" class="node">
<title>LiveSessionsComponent</title>
<polygon fill="#ffffb3" stroke="black" points="2054.71,-84.8 1899.29,-84.8 1899.29,-48.8 2054.71,-48.8 2054.71,-84.8"/>
<text text-anchor="middle" x="1977" y="-62.6" font-family="Times,serif" font-size="14.00">LiveSessionsComponent</text>
</g>
<!-- LiveSessionsComponent&#45;&gt;PublicEventsModule -->
<g id="edge8" class="edge">
<title>LiveSessionsComponent&#45;&gt;PublicEventsModule</title>
<path fill="none" stroke="black" d="M1925.55,-84.91C1925.55,-84.91 1925.55,-103.79 1925.55,-103.79"/>
<polygon fill="black" stroke="black" points="1922.05,-103.79 1925.55,-113.79 1929.05,-103.79 1922.05,-103.79"/>
</g>
<!-- SessionPageChatComponent -->
<g id="node9" class="node">
<title>SessionPageChatComponent</title>
<polygon fill="#ffffb3" stroke="black" points="1881.76,-84.8 1704.24,-84.8 1704.24,-48.8 1881.76,-48.8 1881.76,-84.8"/>
<text text-anchor="middle" x="1793" y="-62.6" font-family="Times,serif" font-size="14.00">SessionPageChatComponent</text>
</g>
<!-- SessionPageChatComponent&#45;&gt;PublicEventsModule -->
<g id="edge9" class="edge">
<title>SessionPageChatComponent&#45;&gt;PublicEventsModule</title>
<path fill="none" stroke="black" d="M1850.08,-84.91C1850.08,-84.91 1850.08,-103.79 1850.08,-103.79"/>
<polygon fill="black" stroke="black" points="1846.58,-103.79 1850.08,-113.79 1853.58,-103.79 1846.58,-103.79"/>
</g>
<!-- SessionPageComponent -->
<g id="node10" class="node">
<title>SessionPageComponent</title>
<polygon fill="#ffffb3" stroke="black" points="1685.82,-84.8 1534.18,-84.8 1534.18,-48.8 1685.82,-48.8 1685.82,-84.8"/>
<text text-anchor="middle" x="1610" y="-62.6" font-family="Times,serif" font-size="14.00">SessionPageComponent</text>
</g>
<!-- SessionPageComponent&#45;&gt;PublicEventsModule -->
<g id="edge10" class="edge">
<title>SessionPageComponent&#45;&gt;PublicEventsModule</title>
<path fill="none" stroke="black" d="M1610,-84.92C1610,-99.58 1610,-117.8 1610,-117.8 1610,-117.8 1808.08,-117.8 1808.08,-117.8"/>
<polygon fill="black" stroke="black" points="1808.08,-121.3 1818.08,-117.8 1808.08,-114.3 1808.08,-121.3"/>
</g>
<!-- SessionPageDetailsComponent -->
<g id="node11" class="node">
<title>SessionPageDetailsComponent</title>
<polygon fill="#ffffb3" stroke="black" points="1516.47,-84.8 1325.53,-84.8 1325.53,-48.8 1516.47,-48.8 1516.47,-84.8"/>
<text text-anchor="middle" x="1421" y="-62.6" font-family="Times,serif" font-size="14.00">SessionPageDetailsComponent</text>
</g>
<!-- SessionPageDetailsComponent&#45;&gt;PublicEventsModule -->
<g id="edge11" class="edge">
<title>SessionPageDetailsComponent&#45;&gt;PublicEventsModule</title>
<path fill="none" stroke="black" d="M1421,-84.81C1421,-100.85 1421,-121.8 1421,-121.8 1421,-121.8 1808.03,-121.8 1808.03,-121.8"/>
<polygon fill="black" stroke="black" points="1808.03,-125.3 1818.03,-121.8 1808.03,-118.3 1808.03,-125.3"/>
</g>
<!-- SessionPagePollComponent -->
<g id="node12" class="node">
<title>SessionPagePollComponent</title>
<polygon fill="#ffffb3" stroke="black" points="1307.89,-84.8 1134.11,-84.8 1134.11,-48.8 1307.89,-48.8 1307.89,-84.8"/>
<text text-anchor="middle" x="1221" y="-62.6" font-family="Times,serif" font-size="14.00">SessionPagePollComponent</text>
</g>
<!-- SessionPagePollComponent&#45;&gt;PublicEventsModule -->
<g id="edge12" class="edge">
<title>SessionPagePollComponent&#45;&gt;PublicEventsModule</title>
<path fill="none" stroke="black" d="M1221,-84.83C1221,-101.86 1221,-124.8 1221,-124.8 1221,-124.8 1807.99,-124.8 1807.99,-124.8"/>
<polygon fill="black" stroke="black" points="1807.99,-128.3 1817.99,-124.8 1807.99,-121.3 1807.99,-128.3"/>
</g>
<!-- SessionPageQnaComponent -->
<g id="node13" class="node">
<title>SessionPageQnaComponent</title>
<polygon fill="#ffffb3" stroke="black" points="1116.14,-84.8 941.86,-84.8 941.86,-48.8 1116.14,-48.8 1116.14,-84.8"/>
<text text-anchor="middle" x="1029" y="-62.6" font-family="Times,serif" font-size="14.00">SessionPageQnaComponent</text>
</g>
<!-- SessionPageQnaComponent&#45;&gt;PublicEventsModule -->
<g id="edge13" class="edge">
<title>SessionPageQnaComponent&#45;&gt;PublicEventsModule</title>
<path fill="none" stroke="black" d="M1029,-85.07C1029,-103.36 1029,-128.8 1029,-128.8 1029,-128.8 1808.19,-128.8 1808.19,-128.8"/>
<polygon fill="black" stroke="black" points="1808.19,-132.3 1818.19,-128.8 1808.19,-125.3 1808.19,-132.3"/>
</g>
<!-- SessionPageVideoComponent -->
<g id="node14" class="node">
<title>SessionPageVideoComponent</title>
<polygon fill="#ffffb3" stroke="black" points="923.53,-84.8 738.47,-84.8 738.47,-48.8 923.53,-48.8 923.53,-84.8"/>
<text text-anchor="middle" x="831" y="-62.6" font-family="Times,serif" font-size="14.00">SessionPageVideoComponent</text>
</g>
<!-- SessionPageVideoComponent&#45;&gt;PublicEventsModule -->
<g id="edge14" class="edge">
<title>SessionPageVideoComponent&#45;&gt;PublicEventsModule</title>
<path fill="none" stroke="black" d="M831,-84.91C831,-104.14 831,-131.8 831,-131.8 831,-131.8 1808.27,-131.8 1808.27,-131.8"/>
<polygon fill="black" stroke="black" points="1808.27,-135.3 1818.27,-131.8 1808.27,-128.3 1808.27,-135.3"/>
</g>
<!-- SessionPageViewersComponent -->
<g id="node15" class="node">
<title>SessionPageViewersComponent</title>
<polygon fill="#ffffb3" stroke="black" points="719.96,-84.8 522.04,-84.8 522.04,-48.8 719.96,-48.8 719.96,-84.8"/>
<text text-anchor="middle" x="621" y="-62.6" font-family="Times,serif" font-size="14.00">SessionPageViewersComponent</text>
</g>
<!-- SessionPageViewersComponent&#45;&gt;PublicEventsModule -->
<g id="edge15" class="edge">
<title>SessionPageViewersComponent&#45;&gt;PublicEventsModule</title>
<path fill="none" stroke="black" d="M621,-84.93C621,-105.37 621,-135.8 621,-135.8 621,-135.8 1807.93,-135.8 1807.93,-135.8"/>
<polygon fill="black" stroke="black" points="1807.93,-139.3 1817.93,-135.8 1807.93,-132.3 1807.93,-139.3"/>
</g>
<!-- SpeakerSessionPageComponent -->
<g id="node16" class="node">
<title>SpeakerSessionPageComponent</title>
<polygon fill="#ffffb3" stroke="black" points="504.41,-84.8 307.59,-84.8 307.59,-48.8 504.41,-48.8 504.41,-84.8"/>
<text text-anchor="middle" x="406" y="-62.6" font-family="Times,serif" font-size="14.00">SpeakerSessionPageComponent</text>
</g>
<!-- SpeakerSessionPageComponent&#45;&gt;PublicEventsModule -->
<g id="edge16" class="edge">
<title>SpeakerSessionPageComponent&#45;&gt;PublicEventsModule</title>
<path fill="none" stroke="black" d="M406,-84.84C406,-106.46 406,-139.8 406,-139.8 406,-139.8 1808.09,-139.8 1808.09,-139.8"/>
<polygon fill="black" stroke="black" points="1808.09,-143.3 1818.09,-139.8 1808.09,-136.3 1808.09,-143.3"/>
</g>
<!-- TeamComponent -->
<g id="node17" class="node">
<title>TeamComponent</title>
<polygon fill="#ffffb3" stroke="black" points="289.7,-84.8 176.3,-84.8 176.3,-48.8 289.7,-48.8 289.7,-84.8"/>
<text text-anchor="middle" x="233" y="-62.6" font-family="Times,serif" font-size="14.00">TeamComponent</text>
</g>
<!-- TeamComponent&#45;&gt;PublicEventsModule -->
<g id="edge17" class="edge">
<title>TeamComponent&#45;&gt;PublicEventsModule</title>
<path fill="none" stroke="black" d="M233,-84.81C233,-107.29 233,-142.8 233,-142.8 233,-142.8 1808.19,-142.8 1808.19,-142.8"/>
<polygon fill="black" stroke="black" points="1808.19,-146.3 1818.19,-142.8 1808.19,-139.3 1808.19,-146.3"/>
</g>
<!-- UsersListComponent -->
<g id="node18" class="node">
<title>UsersListComponent</title>
<polygon fill="#ffffb3" stroke="black" points="158.48,-84.8 23.52,-84.8 23.52,-48.8 158.48,-48.8 158.48,-84.8"/>
<text text-anchor="middle" x="91" y="-62.6" font-family="Times,serif" font-size="14.00">UsersListComponent</text>
</g>
<!-- UsersListComponent&#45;&gt;PublicEventsModule -->
<g id="edge18" class="edge">
<title>UsersListComponent&#45;&gt;PublicEventsModule</title>
<path fill="none" stroke="black" d="M91,-84.95C91,-108.56 91,-146.8 91,-146.8 91,-146.8 1808.22,-146.8 1808.22,-146.8"/>
<polygon fill="black" stroke="black" points="1808.22,-150.3 1818.22,-146.8 1808.22,-143.3 1808.22,-150.3"/>
</g>
<!-- PublicEventsRoutingModule -->
<g id="node20" class="node">
<title>PublicEventsRoutingModule</title>
<polygon fill="#8dd3c7" stroke="black" points="3787.05,-84.8 3784.05,-88.8 3763.05,-88.8 3760.05,-84.8 3608.95,-84.8 3608.95,-48.8 3787.05,-48.8 3787.05,-84.8"/>
<text text-anchor="middle" x="3698" y="-62.6" font-family="Times,serif" font-size="14.00">PublicEventsRoutingModule</text>
</g>
<!-- PublicEventsRoutingModule&#45;&gt;PublicEventsModule -->
<g id="edge19" class="edge">
<title>PublicEventsRoutingModule&#45;&gt;PublicEventsModule</title>
<path fill="none" stroke="black" d="M3698,-84.95C3698,-108.56 3698,-146.8 3698,-146.8 3698,-146.8 1961.95,-146.8 1961.95,-146.8"/>
<polygon fill="black" stroke="black" points="1961.95,-143.3 1951.95,-146.8 1961.95,-150.3 1961.95,-143.3"/>
</g>
<!-- SharedDirectivesModule -->
<g id="node21" class="node">
<title>SharedDirectivesModule</title>
<polygon fill="#8dd3c7" stroke="black" points="3590.95,-84.8 3587.95,-88.8 3566.95,-88.8 3563.95,-84.8 3435.05,-84.8 3435.05,-48.8 3590.95,-48.8 3590.95,-84.8"/>
<text text-anchor="middle" x="3513" y="-62.6" font-family="Times,serif" font-size="14.00">SharedDirectivesModule</text>
</g>
<!-- SharedDirectivesModule&#45;&gt;PublicEventsModule -->
<g id="edge20" class="edge">
<title>SharedDirectivesModule&#45;&gt;PublicEventsModule</title>
<path fill="none" stroke="black" d="M3513,-84.81C3513,-107.29 3513,-142.8 3513,-142.8 3513,-142.8 1961.85,-142.8 1961.85,-142.8"/>
<polygon fill="black" stroke="black" points="1961.85,-139.3 1951.85,-142.8 1961.85,-146.3 1961.85,-139.3"/>
</g>
</g>
</svg>
