<?xml version="1.0" encoding="UTF-8" standalone="no"?>
<!DOCTYPE svg PUBLIC "-//W3C//DTD SVG 1.1//EN"
 "http://www.w3.org/Graphics/SVG/1.1/DTD/svg11.dtd">
<!-- Generated by graphviz version 5.0.0 (20220707.1540)
 -->
<!-- Title: dependencies Pages: 1 -->
<svg width="3826pt" height="174pt"
 viewBox="0.00 0.00 3826.00 173.80" xmlns="http://www.w3.org/2000/svg" xmlns:xlink="http://www.w3.org/1999/xlink">
<g id="graph0" class="graph" transform="scale(1 1) rotate(0) translate(4 169.8)">
<title>dependencies</title>
<polygon fill="white" stroke="transparent" points="-4,4 -4,-169.8 3822,-169.8 3822,4 -4,4"/>
<text text-anchor="middle" x="1909" y="-8.2" font-family="sans-serif" font-size="14.00">dependencies</text>
<g id="clust1" class="cluster">
<title>cluster_PublicEventsModule</title>
<polygon fill="none" stroke="black" stroke-dasharray="1,5" points="8,-32.8 8,-157.8 3810,-157.8 3810,-32.8 8,-32.8"/>
</g>
<g id="clust2" class="cluster">
<title>cluster_PublicEventsModule_declarations</title>
<polygon fill="none" stroke="black" points="562,-40.8 562,-92.8 3802,-92.8 3802,-40.8 562,-40.8"/>
</g>
<g id="clust20" class="cluster">
<title>cluster_PublicEventsModule_imports</title>
<polygon fill="none" stroke="black" points="16,-40.8 16,-92.8 554,-92.8 554,-40.8 16,-40.8"/>
</g>
<!-- AgendaComponent -->
<g id="node1" class="node">
<title>AgendaComponent</title>
<polygon fill="#ffffb3" stroke="black" points="3794.37,-84.8 3669.63,-84.8 3669.63,-48.8 3794.37,-48.8 3794.37,-84.8"/>
<text text-anchor="middle" x="3732" y="-62.6" font-family="Times,serif" font-size="14.00">AgendaComponent</text>
</g>
<!-- PublicEventsModule -->
<g id="node18" class="node">
<title>PublicEventsModule</title>
<polygon fill="#8dd3c7" stroke="black" points="1947.94,-149.8 1944.94,-153.8 1923.94,-153.8 1920.94,-149.8 1814.06,-149.8 1814.06,-113.8 1947.94,-113.8 1947.94,-149.8"/>
<text text-anchor="middle" x="1881" y="-127.6" font-family="Times,serif" font-size="14.00">PublicEventsModule</text>
</g>
<!-- AgendaComponent&#45;&gt;PublicEventsModule -->
<g id="edge1" class="edge">
<title>AgendaComponent&#45;&gt;PublicEventsModule</title>
<path fill="none" stroke="black" d="M3732,-84.95C3732,-108.56 3732,-146.8 3732,-146.8 3732,-146.8 1957.97,-146.8 1957.97,-146.8"/>
<polygon fill="black" stroke="black" points="1957.97,-143.3 1947.97,-146.8 1957.97,-150.3 1957.97,-143.3"/>
</g>
<!-- AttendedMembersComponent -->
<g id="node2" class="node">
<title>AttendedMembersComponent</title>
<polygon fill="#ffffb3" stroke="black" points="3651.53,-84.8 3466.47,-84.8 3466.47,-48.8 3651.53,-48.8 3651.53,-84.8"/>
<text text-anchor="middle" x="3559" y="-62.6" font-family="Times,serif" font-size="14.00">AttendedMembersComponent</text>
</g>
<!-- AttendedMembersComponent&#45;&gt;PublicEventsModule -->
<g id="edge2" class="edge">
<title>AttendedMembersComponent&#45;&gt;PublicEventsModule</title>
<path fill="none" stroke="black" d="M3559,-84.81C3559,-107.29 3559,-142.8 3559,-142.8 3559,-142.8 1957.82,-142.8 1957.82,-142.8"/>
<polygon fill="black" stroke="black" points="1957.82,-139.3 1947.82,-142.8 1957.82,-146.3 1957.82,-139.3"/>
</g>
<!-- AttendingMembersComponent -->
<g id="node3" class="node">
<title>AttendingMembersComponent</title>
<polygon fill="#ffffb3" stroke="black" points="3448.2,-84.8 3257.8,-84.8 3257.8,-48.8 3448.2,-48.8 3448.2,-84.8"/>
<text text-anchor="middle" x="3353" y="-62.6" font-family="Times,serif" font-size="14.00">AttendingMembersComponent</text>
</g>
<!-- AttendingMembersComponent&#45;&gt;PublicEventsModule -->
<g id="edge3" class="edge">
<title>AttendingMembersComponent&#45;&gt;PublicEventsModule</title>
<path fill="none" stroke="black" d="M3353,-84.84C3353,-106.46 3353,-139.8 3353,-139.8 3353,-139.8 1958.07,-139.8 1958.07,-139.8"/>
<polygon fill="black" stroke="black" points="1958.07,-136.3 1948.07,-139.8 1958.07,-143.3 1958.07,-136.3"/>
</g>
<!-- AutoAttendanceComponent -->
<g id="node4" class="node">
<title>AutoAttendanceComponent</title>
<polygon fill="#ffffb3" stroke="black" points="3239.58,-84.8 3066.42,-84.8 3066.42,-48.8 3239.58,-48.8 3239.58,-84.8"/>
<text text-anchor="middle" x="3153" y="-62.6" font-family="Times,serif" font-size="14.00">AutoAttendanceComponent</text>
</g>
<!-- AutoAttendanceComponent&#45;&gt;PublicEventsModule -->
<g id="edge4" class="edge">
<title>AutoAttendanceComponent&#45;&gt;PublicEventsModule</title>
<path fill="none" stroke="black" d="M3153,-84.93C3153,-105.37 3153,-135.8 3153,-135.8 3153,-135.8 1958.04,-135.8 1958.04,-135.8"/>
<polygon fill="black" stroke="black" points="1958.04,-132.3 1948.04,-135.8 1958.04,-139.3 1958.04,-132.3"/>
</g>
<!-- CollaborationCommunitiesComponent -->
<g id="node5" class="node">
<title>CollaborationCommunitiesComponent</title>
<polygon fill="#ffffb3" stroke="black" points="3048.77,-84.8 2815.23,-84.8 2815.23,-48.8 3048.77,-48.8 3048.77,-84.8"/>
<text text-anchor="middle" x="2932" y="-62.6" font-family="Times,serif" font-size="14.00">CollaborationCommunitiesComponent</text>
</g>
<!-- CollaborationCommunitiesComponent&#45;&gt;PublicEventsModule -->
<g id="edge5" class="edge">
<title>CollaborationCommunitiesComponent&#45;&gt;PublicEventsModule</title>
<path fill="none" stroke="black" d="M2932,-84.91C2932,-104.14 2932,-131.8 2932,-131.8 2932,-131.8 1957.94,-131.8 1957.94,-131.8"/>
<polygon fill="black" stroke="black" points="1957.94,-128.3 1947.94,-131.8 1957.94,-135.3 1957.94,-128.3"/>
</g>
<!-- EventDescriptionComponent -->
<g id="node6" class="node">
<title>EventDescriptionComponent</title>
<polygon fill="#ffffb3" stroke="black" points="2796.8,-84.8 2617.2,-84.8 2617.2,-48.8 2796.8,-48.8 2796.8,-84.8"/>
<text text-anchor="middle" x="2707" y="-62.6" font-family="Times,serif" font-size="14.00">EventDescriptionComponent</text>
</g>
<!-- EventDescriptionComponent&#45;&gt;PublicEventsModule -->
<g id="edge6" class="edge">
<title>EventDescriptionComponent&#45;&gt;PublicEventsModule</title>
<path fill="none" stroke="black" d="M2707,-85.07C2707,-103.36 2707,-128.8 2707,-128.8 2707,-128.8 1957.9,-128.8 1957.9,-128.8"/>
<polygon fill="black" stroke="black" points="1957.9,-125.3 1947.9,-128.8 1957.9,-132.3 1957.9,-125.3"/>
</g>
<!-- HighlightedLinksComponent -->
<g id="node7" class="node">
<title>HighlightedLinksComponent</title>
<polygon fill="#ffffb3" stroke="black" points="2599.1,-84.8 2418.9,-84.8 2418.9,-48.8 2599.1,-48.8 2599.1,-84.8"/>
<text text-anchor="middle" x="2509" y="-62.6" font-family="Times,serif" font-size="14.00">HighlightedLinksComponent</text>
</g>
<!-- HighlightedLinksComponent&#45;&gt;PublicEventsModule -->
<g id="edge7" class="edge">
<title>HighlightedLinksComponent&#45;&gt;PublicEventsModule</title>
<path fill="none" stroke="black" d="M2509,-84.83C2509,-101.86 2509,-124.8 2509,-124.8 2509,-124.8 1957.91,-124.8 1957.91,-124.8"/>
<polygon fill="black" stroke="black" points="1957.91,-121.3 1947.91,-124.8 1957.91,-128.3 1957.91,-121.3"/>
</g>
<!-- HomeEventComponent -->
<g id="node8" class="node">
<title>HomeEventComponent</title>
<polygon fill="#ffffb3" stroke="black" points="2401.2,-84.8 2252.8,-84.8 2252.8,-48.8 2401.2,-48.8 2401.2,-84.8"/>
<text text-anchor="middle" x="2327" y="-62.6" font-family="Times,serif" font-size="14.00">HomeEventComponent</text>
</g>
<!-- HomeEventComponent&#45;&gt;PublicEventsModule -->
<g id="edge8" class="edge">
<title>HomeEventComponent&#45;&gt;PublicEventsModule</title>
<path fill="none" stroke="black" d="M2327,-84.81C2327,-100.85 2327,-121.8 2327,-121.8 2327,-121.8 1957.77,-121.8 1957.77,-121.8"/>
<polygon fill="black" stroke="black" points="1957.77,-118.3 1947.77,-121.8 1957.77,-125.3 1957.77,-118.3"/>
</g>
<!-- LiveSessionsComponent -->
<g id="node9" class="node">
<title>LiveSessionsComponent</title>
<polygon fill="#ffffb3" stroke="black" points="2234.72,-84.8 2079.28,-84.8 2079.28,-48.8 2234.72,-48.8 2234.72,-84.8"/>
<text text-anchor="middle" x="2157" y="-62.6" font-family="Times,serif" font-size="14.00">LiveSessionsComponent</text>
</g>
<!-- LiveSessionsComponent&#45;&gt;PublicEventsModule -->
<g id="edge9" class="edge">
<title>LiveSessionsComponent&#45;&gt;PublicEventsModule</title>
<path fill="none" stroke="black" d="M2157,-84.92C2157,-99.58 2157,-117.8 2157,-117.8 2157,-117.8 1957.81,-117.8 1957.81,-117.8"/>
<polygon fill="black" stroke="black" points="1957.81,-114.3 1947.81,-117.8 1957.81,-121.3 1957.81,-114.3"/>
</g>
<!-- SessionPageChatComponent -->
<g id="node10" class="node">
<title>SessionPageChatComponent</title>
<polygon fill="#ffffb3" stroke="black" points="2061.77,-84.8 1884.23,-84.8 1884.23,-48.8 2061.77,-48.8 2061.77,-84.8"/>
<text text-anchor="middle" x="1973" y="-62.6" font-family="Times,serif" font-size="14.00">SessionPageChatComponent</text>
</g>
<!-- SessionPageChatComponent&#45;&gt;PublicEventsModule -->
<g id="edge10" class="edge">
<title>SessionPageChatComponent&#45;&gt;PublicEventsModule</title>
<path fill="none" stroke="black" d="M1915.92,-84.91C1915.92,-84.91 1915.92,-103.79 1915.92,-103.79"/>
<polygon fill="black" stroke="black" points="1912.42,-103.79 1915.92,-113.79 1919.42,-103.79 1912.42,-103.79"/>
</g>
<!-- SessionPageComponent -->
<g id="node11" class="node">
<title>SessionPageComponent</title>
<polygon fill="#ffffb3" stroke="black" points="1865.83,-84.8 1714.17,-84.8 1714.17,-48.8 1865.83,-48.8 1865.83,-84.8"/>
<text text-anchor="middle" x="1790" y="-62.6" font-family="Times,serif" font-size="14.00">SessionPageComponent</text>
</g>
<!-- SessionPageComponent&#45;&gt;PublicEventsModule -->
<g id="edge11" class="edge">
<title>SessionPageComponent&#45;&gt;PublicEventsModule</title>
<path fill="none" stroke="black" d="M1839.97,-84.91C1839.97,-84.91 1839.97,-103.79 1839.97,-103.79"/>
<polygon fill="black" stroke="black" points="1836.47,-103.79 1839.97,-113.79 1843.47,-103.79 1836.47,-103.79"/>
</g>
<!-- SessionPageDetailsComponent -->
<g id="node12" class="node">
<title>SessionPageDetailsComponent</title>
<polygon fill="#ffffb3" stroke="black" points="1696.49,-84.8 1505.51,-84.8 1505.51,-48.8 1696.49,-48.8 1696.49,-84.8"/>
<text text-anchor="middle" x="1601" y="-62.6" font-family="Times,serif" font-size="14.00">SessionPageDetailsComponent</text>
</g>
<!-- SessionPageDetailsComponent&#45;&gt;PublicEventsModule -->
<g id="edge12" class="edge">
<title>SessionPageDetailsComponent&#45;&gt;PublicEventsModule</title>
<path fill="none" stroke="black" d="M1601,-84.92C1601,-99.58 1601,-117.8 1601,-117.8 1601,-117.8 1803.93,-117.8 1803.93,-117.8"/>
<polygon fill="black" stroke="black" points="1803.93,-121.3 1813.93,-117.8 1803.93,-114.3 1803.93,-121.3"/>
</g>
<!-- SessionPagePollComponent -->
<g id="node13" class="node">
<title>SessionPagePollComponent</title>
<polygon fill="#ffffb3" stroke="black" points="1487.9,-84.8 1314.1,-84.8 1314.1,-48.8 1487.9,-48.8 1487.9,-84.8"/>
<text text-anchor="middle" x="1401" y="-62.6" font-family="Times,serif" font-size="14.00">SessionPagePollComponent</text>
</g>
<!-- SessionPagePollComponent&#45;&gt;PublicEventsModule -->
<g id="edge13" class="edge">
<title>SessionPagePollComponent&#45;&gt;PublicEventsModule</title>
<path fill="none" stroke="black" d="M1401,-84.81C1401,-100.85 1401,-121.8 1401,-121.8 1401,-121.8 1804.26,-121.8 1804.26,-121.8"/>
<polygon fill="black" stroke="black" points="1804.26,-125.3 1814.26,-121.8 1804.26,-118.3 1804.26,-125.3"/>
</g>
<!-- SessionPageQnaComponent -->
<g id="node14" class="node">
<title>SessionPageQnaComponent</title>
<polygon fill="#ffffb3" stroke="black" points="1296.16,-84.8 1121.84,-84.8 1121.84,-48.8 1296.16,-48.8 1296.16,-84.8"/>
<text text-anchor="middle" x="1209" y="-62.6" font-family="Times,serif" font-size="14.00">SessionPageQnaComponent</text>
</g>
<!-- SessionPageQnaComponent&#45;&gt;PublicEventsModule -->
<g id="edge14" class="edge">
<title>SessionPageQnaComponent&#45;&gt;PublicEventsModule</title>
<path fill="none" stroke="black" d="M1209,-84.83C1209,-101.86 1209,-124.8 1209,-124.8 1209,-124.8 1804.11,-124.8 1804.11,-124.8"/>
<polygon fill="black" stroke="black" points="1804.11,-128.3 1814.11,-124.8 1804.11,-121.3 1804.11,-128.3"/>
</g>
<!-- SessionPageVideoComponent -->
<g id="node15" class="node">
<title>SessionPageVideoComponent</title>
<polygon fill="#ffffb3" stroke="black" points="1103.55,-84.8 918.45,-84.8 918.45,-48.8 1103.55,-48.8 1103.55,-84.8"/>
<text text-anchor="middle" x="1011" y="-62.6" font-family="Times,serif" font-size="14.00">SessionPageVideoComponent</text>
</g>
<!-- SessionPageVideoComponent&#45;&gt;PublicEventsModule -->
<g id="edge15" class="edge">
<title>SessionPageVideoComponent&#45;&gt;PublicEventsModule</title>
<path fill="none" stroke="black" d="M1011,-85.07C1011,-103.36 1011,-128.8 1011,-128.8 1011,-128.8 1804.18,-128.8 1804.18,-128.8"/>
<polygon fill="black" stroke="black" points="1804.18,-132.3 1814.18,-128.8 1804.18,-125.3 1804.18,-132.3"/>
</g>
<!-- SessionPageViewersComponent -->
<g id="node16" class="node">
<title>SessionPageViewersComponent</title>
<polygon fill="#ffffb3" stroke="black" points="899.98,-84.8 702.02,-84.8 702.02,-48.8 899.98,-48.8 899.98,-84.8"/>
<text text-anchor="middle" x="801" y="-62.6" font-family="Times,serif" font-size="14.00">SessionPageViewersComponent</text>
</g>
<!-- SessionPageViewersComponent&#45;&gt;PublicEventsModule -->
<g id="edge16" class="edge">
<title>SessionPageViewersComponent&#45;&gt;PublicEventsModule</title>
<path fill="none" stroke="black" d="M801,-84.91C801,-104.14 801,-131.8 801,-131.8 801,-131.8 1804.26,-131.8 1804.26,-131.8"/>
<polygon fill="black" stroke="black" points="1804.26,-135.3 1814.26,-131.8 1804.26,-128.3 1804.26,-135.3"/>
</g>
<!-- TeamComponent -->
<g id="node17" class="node">
<title>TeamComponent</title>
<polygon fill="#ffffb3" stroke="black" points="683.7,-84.8 570.3,-84.8 570.3,-48.8 683.7,-48.8 683.7,-84.8"/>
<text text-anchor="middle" x="627" y="-62.6" font-family="Times,serif" font-size="14.00">TeamComponent</text>
</g>
<!-- TeamComponent&#45;&gt;PublicEventsModule -->
<g id="edge17" class="edge">
<title>TeamComponent&#45;&gt;PublicEventsModule</title>
<path fill="none" stroke="black" d="M627,-84.93C627,-105.37 627,-135.8 627,-135.8 627,-135.8 1804.02,-135.8 1804.02,-135.8"/>
<polygon fill="black" stroke="black" points="1804.02,-139.3 1814.02,-135.8 1804.02,-132.3 1804.02,-139.3"/>
</g>
<!-- MiniUserProfileModule -->
<g id="node19" class="node">
<title>MiniUserProfileModule</title>
<polygon fill="#8dd3c7" stroke="black" points="545.82,-84.8 542.82,-88.8 521.82,-88.8 518.82,-84.8 394.18,-84.8 394.18,-48.8 545.82,-48.8 545.82,-84.8"/>
<text text-anchor="middle" x="470" y="-62.6" font-family="Times,serif" font-size="14.00">MiniUserProfileModule</text>
</g>
<!-- MiniUserProfileModule&#45;&gt;PublicEventsModule -->
<g id="edge18" class="edge">
<title>MiniUserProfileModule&#45;&gt;PublicEventsModule</title>
<path fill="none" stroke="black" d="M470,-84.84C470,-106.46 470,-139.8 470,-139.8 470,-139.8 1803.89,-139.8 1803.89,-139.8"/>
<polygon fill="black" stroke="black" points="1803.89,-143.3 1813.89,-139.8 1803.89,-136.3 1803.89,-143.3"/>
</g>
<!-- PublicEventsRoutingModule -->
<g id="node20" class="node">
<title>PublicEventsRoutingModule</title>
<polygon fill="#8dd3c7" stroke="black" points="376.05,-84.8 373.05,-88.8 352.05,-88.8 349.05,-84.8 197.95,-84.8 197.95,-48.8 376.05,-48.8 376.05,-84.8"/>
<text text-anchor="middle" x="287" y="-62.6" font-family="Times,serif" font-size="14.00">PublicEventsRoutingModule</text>
</g>
<!-- PublicEventsRoutingModule&#45;&gt;PublicEventsModule -->
<g id="edge19" class="edge">
<title>PublicEventsRoutingModule&#45;&gt;PublicEventsModule</title>
<path fill="none" stroke="black" d="M287,-84.81C287,-107.29 287,-142.8 287,-142.8 287,-142.8 1804.03,-142.8 1804.03,-142.8"/>
<polygon fill="black" stroke="black" points="1804.03,-146.3 1814.03,-142.8 1804.03,-139.3 1804.03,-146.3"/>
</g>
<!-- SharedDirectivesModule -->
<g id="node21" class="node">
<title>SharedDirectivesModule</title>
<polygon fill="#8dd3c7" stroke="black" points="179.96,-84.8 176.96,-88.8 155.96,-88.8 152.96,-84.8 24.04,-84.8 24.04,-48.8 179.96,-48.8 179.96,-84.8"/>
<text text-anchor="middle" x="102" y="-62.6" font-family="Times,serif" font-size="14.00">SharedDirectivesModule</text>
</g>
<!-- SharedDirectivesModule&#45;&gt;PublicEventsModule -->
<g id="edge20" class="edge">
<title>SharedDirectivesModule&#45;&gt;PublicEventsModule</title>
<path fill="none" stroke="black" d="M102,-84.95C102,-108.56 102,-146.8 102,-146.8 102,-146.8 1804.24,-146.8 1804.24,-146.8"/>
<polygon fill="black" stroke="black" points="1804.24,-150.3 1814.24,-146.8 1804.24,-143.3 1804.24,-150.3"/>
</g>
</g>
</svg>
