<?xml version="1.0" encoding="UTF-8" standalone="no"?>
<!DOCTYPE svg PUBLIC "-//W3C//DTD SVG 1.1//EN"
 "http://www.w3.org/Graphics/SVG/1.1/DTD/svg11.dtd">
<!-- Generated by graphviz version 2.47.3 (20210619.1520)
 -->
<!-- Title: dependencies Pages: 1 -->
<svg width="1793pt" height="247pt"
 viewBox="0.00 0.00 1793.00 246.80" xmlns="http://www.w3.org/2000/svg" xmlns:xlink="http://www.w3.org/1999/xlink">
<g id="graph0" class="graph" transform="scale(1 1) rotate(0) translate(4 242.8)">
<title>dependencies</title>
<polygon fill="white" stroke="transparent" points="-4,4 -4,-242.8 1789,-242.8 1789,4 -4,4"/>
<text text-anchor="middle" x="892.5" y="-8.2" font-family="sans-serif" font-size="14.00">dependencies</text>
<g id="clust1" class="cluster">
<title>cluster_MainNewslettersModule</title>
<polygon fill="none" stroke="black" stroke-dasharray="1,5" points="8,-32.8 8,-230.8 1777,-230.8 1777,-32.8 8,-32.8"/>
</g>
<g id="clust11" class="cluster">
<title>cluster_MainNewslettersModule_exports</title>
<polygon fill="none" stroke="black" points="879,-170.8 879,-222.8 1071,-222.8 1071,-170.8 879,-170.8"/>
</g>
<g id="clust2" class="cluster">
<title>cluster_MainNewslettersModule_declarations</title>
<polygon fill="none" stroke="black" points="240,-40.8 240,-92.8 1769,-92.8 1769,-40.8 240,-40.8"/>
</g>
<g id="clust10" class="cluster">
<title>cluster_MainNewslettersModule_imports</title>
<polygon fill="none" stroke="black" points="16,-40.8 16,-92.8 232,-92.8 232,-40.8 16,-40.8"/>
</g>
<!-- IndexComponent -->
<g id="node1" class="node">
<title>IndexComponent</title>
<polygon fill="#ffffb3" stroke="black" points="1760.71,-84.8 1647.29,-84.8 1647.29,-48.8 1760.71,-48.8 1760.71,-84.8"/>
<text text-anchor="middle" x="1704" y="-62.6" font-family="Times,serif" font-size="14.00">IndexComponent</text>
</g>
<!-- MainNewslettersModule -->
<g id="node8" class="node">
<title>MainNewslettersModule</title>
<polygon fill="#8dd3c7" stroke="black" points="1052.68,-149.8 1049.68,-153.8 1028.68,-153.8 1025.68,-149.8 897.32,-149.8 897.32,-113.8 1052.68,-113.8 1052.68,-149.8"/>
<text text-anchor="middle" x="975" y="-127.6" font-family="Times,serif" font-size="14.00">MainNewslettersModule</text>
</g>
<!-- IndexComponent&#45;&gt;MainNewslettersModule -->
<g id="edge1" class="edge">
<title>IndexComponent&#45;&gt;MainNewslettersModule</title>
<path fill="none" stroke="black" d="M1704,-85.09C1704,-107.01 1704,-140.8 1704,-140.8 1704,-140.8 1062.67,-140.8 1062.67,-140.8"/>
<polygon fill="black" stroke="black" points="1062.67,-137.3 1052.67,-140.8 1062.67,-144.3 1062.67,-137.3"/>
</g>
<!-- MainNewsletterComponent -->
<g id="node2" class="node">
<title>MainNewsletterComponent</title>
<polygon fill="#ffffb3" stroke="black" points="1629.52,-84.8 1458.48,-84.8 1458.48,-48.8 1629.52,-48.8 1629.52,-84.8"/>
<text text-anchor="middle" x="1544" y="-62.6" font-family="Times,serif" font-size="14.00">MainNewsletterComponent</text>
</g>
<!-- MainNewsletterComponent&#45;&gt;MainNewslettersModule -->
<g id="edge2" class="edge">
<title>MainNewsletterComponent&#45;&gt;MainNewslettersModule</title>
<path fill="none" stroke="black" d="M1544,-84.91C1544,-104.14 1544,-131.8 1544,-131.8 1544,-131.8 1062.63,-131.8 1062.63,-131.8"/>
<polygon fill="black" stroke="black" points="1062.63,-128.3 1052.63,-131.8 1062.63,-135.3 1062.63,-128.3"/>
</g>
<!-- MainNewsletterEmailStatsComponent -->
<g id="node3" class="node">
<title>MainNewsletterEmailStatsComponent</title>
<polygon fill="#ffffb3" stroke="black" points="1440.18,-84.8 1207.82,-84.8 1207.82,-48.8 1440.18,-48.8 1440.18,-84.8"/>
<text text-anchor="middle" x="1324" y="-62.6" font-family="Times,serif" font-size="14.00">MainNewsletterEmailStatsComponent</text>
</g>
<!-- MainNewsletterEmailStatsComponent&#45;&gt;MainNewslettersModule -->
<g id="edge3" class="edge">
<title>MainNewsletterEmailStatsComponent&#45;&gt;MainNewslettersModule</title>
<path fill="none" stroke="black" d="M1324,-84.83C1324,-101.2 1324,-122.8 1324,-122.8 1324,-122.8 1062.89,-122.8 1062.89,-122.8"/>
<polygon fill="black" stroke="black" points="1062.89,-119.3 1052.89,-122.8 1062.89,-126.3 1062.89,-119.3"/>
</g>
<!-- MainNewsletterFormComponent -->
<g id="node4" class="node">
<title>MainNewsletterFormComponent</title>
<polygon fill="#ffffb3" stroke="black" points="1189.85,-84.8 988.15,-84.8 988.15,-48.8 1189.85,-48.8 1189.85,-84.8"/>
<text text-anchor="middle" x="1089" y="-62.6" font-family="Times,serif" font-size="14.00">MainNewsletterFormComponent</text>
</g>
<!-- MainNewsletterFormComponent&#45;&gt;MainNewslettersModule -->
<g id="edge4" class="edge">
<title>MainNewsletterFormComponent&#45;&gt;MainNewslettersModule</title>
<path fill="none" stroke="black" d="M1020.33,-84.91C1020.33,-84.91 1020.33,-103.79 1020.33,-103.79"/>
<polygon fill="black" stroke="black" points="1016.83,-103.79 1020.33,-113.79 1023.83,-103.79 1016.83,-103.79"/>
</g>
<!-- MainNewsletterListItemComponent -->
<g id="node5" class="node">
<title>MainNewsletterListItemComponent</title>
<polygon fill="#ffffb3" stroke="black" points="970.45,-84.8 751.55,-84.8 751.55,-48.8 970.45,-48.8 970.45,-84.8"/>
<text text-anchor="middle" x="861" y="-62.6" font-family="Times,serif" font-size="14.00">MainNewsletterListItemComponent</text>
</g>
<!-- MainNewsletterListItemComponent&#45;&gt;MainNewslettersModule -->
<g id="edge5" class="edge">
<title>MainNewsletterListItemComponent&#45;&gt;MainNewslettersModule</title>
<path fill="none" stroke="black" d="M933.94,-84.91C933.94,-84.91 933.94,-103.79 933.94,-103.79"/>
<polygon fill="black" stroke="black" points="930.44,-103.79 933.94,-113.79 937.44,-103.79 930.44,-103.79"/>
</g>
<!-- MainNewsletterSchedulerComponent -->
<g id="node6" class="node">
<title>MainNewsletterSchedulerComponent</title>
<polygon fill="#ffffb3" stroke="black" points="733.99,-84.8 506.01,-84.8 506.01,-48.8 733.99,-48.8 733.99,-84.8"/>
<text text-anchor="middle" x="620" y="-62.6" font-family="Times,serif" font-size="14.00">MainNewsletterSchedulerComponent</text>
</g>
<!-- MainNewsletterSchedulerComponent&#45;&gt;MainNewslettersModule -->
<g id="edge6" class="edge">
<title>MainNewsletterSchedulerComponent&#45;&gt;MainNewslettersModule</title>
<path fill="none" stroke="black" d="M620,-84.83C620,-101.2 620,-122.8 620,-122.8 620,-122.8 887.09,-122.8 887.09,-122.8"/>
<polygon fill="black" stroke="black" points="887.09,-126.3 897.09,-122.8 887.09,-119.3 887.09,-126.3"/>
</g>
<!-- MainNewsletterTestEmailerComponent -->
<g id="node7" class="node">
<title>MainNewsletterTestEmailerComponent</title>
<polygon fill="#ffffb3" stroke="black" points="487.93,-84.8 248.07,-84.8 248.07,-48.8 487.93,-48.8 487.93,-84.8"/>
<text text-anchor="middle" x="368" y="-62.6" font-family="Times,serif" font-size="14.00">MainNewsletterTestEmailerComponent</text>
</g>
<!-- MainNewsletterTestEmailerComponent&#45;&gt;MainNewslettersModule -->
<g id="edge7" class="edge">
<title>MainNewsletterTestEmailerComponent&#45;&gt;MainNewslettersModule</title>
<path fill="none" stroke="black" d="M368,-84.91C368,-104.14 368,-131.8 368,-131.8 368,-131.8 887.2,-131.8 887.2,-131.8"/>
<polygon fill="black" stroke="black" points="887.2,-135.3 897.2,-131.8 887.2,-128.3 887.2,-135.3"/>
</g>
<!-- MainNewsletterComponent  -->
<g id="node10" class="node">
<title>MainNewsletterComponent </title>
<polygon fill="#fb8072" stroke="black" points="1062.52,-214.8 887.48,-214.8 887.48,-178.8 1062.52,-178.8 1062.52,-214.8"/>
<text text-anchor="middle" x="975" y="-192.6" font-family="Times,serif" font-size="14.00">MainNewsletterComponent </text>
</g>
<!-- MainNewslettersModule&#45;&gt;MainNewsletterComponent  -->
<g id="edge9" class="edge">
<title>MainNewslettersModule&#45;&gt;MainNewsletterComponent </title>
<path fill="none" stroke="black" stroke-dasharray="5,2" d="M975,-149.91C975,-149.91 975,-168.79 975,-168.79"/>
<polygon fill="black" stroke="black" points="971.5,-168.79 975,-178.79 978.5,-168.79 971.5,-168.79"/>
</g>
<!-- MainNewslettersRoutingModule -->
<g id="node9" class="node">
<title>MainNewslettersRoutingModule</title>
<polygon fill="#8dd3c7" stroke="black" points="224.3,-84.8 221.3,-88.8 200.3,-88.8 197.3,-84.8 23.7,-84.8 23.7,-48.8 224.3,-48.8 224.3,-84.8"/>
<text text-anchor="middle" x="124" y="-62.6" font-family="Times,serif" font-size="14.00">MainNewslettersRoutingModule</text>
</g>
<!-- MainNewslettersRoutingModule&#45;&gt;MainNewslettersModule -->
<g id="edge8" class="edge">
<title>MainNewslettersRoutingModule&#45;&gt;MainNewslettersModule</title>
<path fill="none" stroke="black" d="M124,-85.09C124,-107.01 124,-140.8 124,-140.8 124,-140.8 887.22,-140.8 887.22,-140.8"/>
<polygon fill="black" stroke="black" points="887.22,-144.3 897.22,-140.8 887.22,-137.3 887.22,-144.3"/>
</g>
</g>
</svg>
