<?xml version="1.0" encoding="UTF-8" standalone="no"?>
<!DOCTYPE svg PUBLIC "-//W3C//DTD SVG 1.1//EN"
 "http://www.w3.org/Graphics/SVG/1.1/DTD/svg11.dtd">
<!-- Generated by graphviz version 5.0.0 (20220707.1540)
 -->
<!-- Title: dependencies Pages: 1 -->
<svg width="1793pt" height="247pt"
 viewBox="0.00 0.00 1793.00 246.80" xmlns="http://www.w3.org/2000/svg" xmlns:xlink="http://www.w3.org/1999/xlink">
<g id="graph0" class="graph" transform="scale(1 1) rotate(0) translate(4 242.8)">
<title>dependencies</title>
<polygon fill="white" stroke="transparent" points="-4,4 -4,-242.8 1789,-242.8 1789,4 -4,4"/>
<text text-anchor="middle" x="892.5" y="-8.2" font-family="sans-serif" font-size="14.00">dependencies</text>
<g id="clust1" class="cluster">
<title>cluster_MainNewslettersModule</title>
<polygon fill="none" stroke="black" stroke-dasharray="1,5" points="8,-32.8 8,-230.8 1777,-230.8 1777,-32.8 8,-32.8"/>
</g>
<g id="clust10" class="cluster">
<title>cluster_MainNewslettersModule_imports</title>
<polygon fill="none" stroke="black" points="1553,-40.8 1553,-92.8 1769,-92.8 1769,-40.8 1553,-40.8"/>
</g>
<g id="clust11" class="cluster">
<title>cluster_MainNewslettersModule_exports</title>
<polygon fill="none" stroke="black" points="886,-170.8 886,-222.8 1078,-222.8 1078,-170.8 886,-170.8"/>
</g>
<g id="clust2" class="cluster">
<title>cluster_MainNewslettersModule_declarations</title>
<polygon fill="none" stroke="black" points="16,-40.8 16,-92.8 1545,-92.8 1545,-40.8 16,-40.8"/>
</g>
<!-- IndexComponent -->
<g id="node1" class="node">
<title>IndexComponent</title>
<polygon fill="#ffffb3" stroke="black" points="1536.71,-84.8 1423.29,-84.8 1423.29,-48.8 1536.71,-48.8 1536.71,-84.8"/>
<text text-anchor="middle" x="1480" y="-62.6" font-family="Times,serif" font-size="14.00">IndexComponent</text>
</g>
<!-- MainNewslettersModule -->
<g id="node8" class="node">
<title>MainNewslettersModule</title>
<polygon fill="#8dd3c7" stroke="black" points="1059.69,-149.8 1056.69,-153.8 1035.69,-153.8 1032.69,-149.8 904.31,-149.8 904.31,-113.8 1059.69,-113.8 1059.69,-149.8"/>
<text text-anchor="middle" x="982" y="-127.6" font-family="Times,serif" font-size="14.00">MainNewslettersModule</text>
</g>
<!-- IndexComponent&#45;&gt;MainNewslettersModule -->
<g id="edge1" class="edge">
<title>IndexComponent&#45;&gt;MainNewslettersModule</title>
<path fill="none" stroke="black" d="M1480,-84.91C1480,-104.14 1480,-131.8 1480,-131.8 1480,-131.8 1069.81,-131.8 1069.81,-131.8"/>
<polygon fill="black" stroke="black" points="1069.81,-128.3 1059.81,-131.8 1069.81,-135.3 1069.81,-128.3"/>
</g>
<!-- MainNewsletterComponent -->
<g id="node2" class="node">
<title>MainNewsletterComponent</title>
<polygon fill="#ffffb3" stroke="black" points="1405.53,-84.8 1234.47,-84.8 1234.47,-48.8 1405.53,-48.8 1405.53,-84.8"/>
<text text-anchor="middle" x="1320" y="-62.6" font-family="Times,serif" font-size="14.00">MainNewsletterComponent</text>
</g>
<!-- MainNewsletterComponent&#45;&gt;MainNewslettersModule -->
<g id="edge2" class="edge">
<title>MainNewsletterComponent&#45;&gt;MainNewslettersModule</title>
<path fill="none" stroke="black" d="M1320,-84.83C1320,-101.2 1320,-122.8 1320,-122.8 1320,-122.8 1069.97,-122.8 1069.97,-122.8"/>
<polygon fill="black" stroke="black" points="1069.97,-119.3 1059.97,-122.8 1069.97,-126.3 1069.97,-119.3"/>
</g>
<!-- MainNewsletterEmailStatsComponent -->
<g id="node3" class="node">
<title>MainNewsletterEmailStatsComponent</title>
<polygon fill="#ffffb3" stroke="black" points="1216.19,-84.8 983.81,-84.8 983.81,-48.8 1216.19,-48.8 1216.19,-84.8"/>
<text text-anchor="middle" x="1100" y="-62.6" font-family="Times,serif" font-size="14.00">MainNewsletterEmailStatsComponent</text>
</g>
<!-- MainNewsletterEmailStatsComponent&#45;&gt;MainNewslettersModule -->
<g id="edge3" class="edge">
<title>MainNewsletterEmailStatsComponent&#45;&gt;MainNewslettersModule</title>
<path fill="none" stroke="black" d="M1021.75,-84.91C1021.75,-84.91 1021.75,-103.79 1021.75,-103.79"/>
<polygon fill="black" stroke="black" points="1018.25,-103.79 1021.75,-113.79 1025.25,-103.79 1018.25,-103.79"/>
</g>
<!-- MainNewsletterFormComponent -->
<g id="node4" class="node">
<title>MainNewsletterFormComponent</title>
<polygon fill="#ffffb3" stroke="black" points="965.86,-84.8 764.14,-84.8 764.14,-48.8 965.86,-48.8 965.86,-84.8"/>
<text text-anchor="middle" x="865" y="-62.6" font-family="Times,serif" font-size="14.00">MainNewsletterFormComponent</text>
</g>
<!-- MainNewsletterFormComponent&#45;&gt;MainNewslettersModule -->
<g id="edge4" class="edge">
<title>MainNewsletterFormComponent&#45;&gt;MainNewslettersModule</title>
<path fill="none" stroke="black" d="M935.17,-84.91C935.17,-84.91 935.17,-103.79 935.17,-103.79"/>
<polygon fill="black" stroke="black" points="931.67,-103.79 935.17,-113.79 938.67,-103.79 931.67,-103.79"/>
</g>
<!-- MainNewsletterListItemComponent -->
<g id="node5" class="node">
<title>MainNewsletterListItemComponent</title>
<polygon fill="#ffffb3" stroke="black" points="746.46,-84.8 527.54,-84.8 527.54,-48.8 746.46,-48.8 746.46,-84.8"/>
<text text-anchor="middle" x="637" y="-62.6" font-family="Times,serif" font-size="14.00">MainNewsletterListItemComponent</text>
</g>
<!-- MainNewsletterListItemComponent&#45;&gt;MainNewslettersModule -->
<g id="edge5" class="edge">
<title>MainNewsletterListItemComponent&#45;&gt;MainNewslettersModule</title>
<path fill="none" stroke="black" d="M637,-84.83C637,-101.2 637,-122.8 637,-122.8 637,-122.8 894.15,-122.8 894.15,-122.8"/>
<polygon fill="black" stroke="black" points="894.15,-126.3 904.15,-122.8 894.15,-119.3 894.15,-126.3"/>
</g>
<!-- MainNewsletterSchedulerComponent -->
<g id="node6" class="node">
<title>MainNewsletterSchedulerComponent</title>
<polygon fill="#ffffb3" stroke="black" points="509.5,-84.8 282.5,-84.8 282.5,-48.8 509.5,-48.8 509.5,-84.8"/>
<text text-anchor="middle" x="396" y="-62.6" font-family="Times,serif" font-size="14.00">MainNewsletterSchedulerComponent</text>
</g>
<!-- MainNewsletterSchedulerComponent&#45;&gt;MainNewslettersModule -->
<g id="edge6" class="edge">
<title>MainNewsletterSchedulerComponent&#45;&gt;MainNewslettersModule</title>
<path fill="none" stroke="black" d="M396,-84.91C396,-104.14 396,-131.8 396,-131.8 396,-131.8 894.18,-131.8 894.18,-131.8"/>
<polygon fill="black" stroke="black" points="894.18,-135.3 904.18,-131.8 894.18,-128.3 894.18,-135.3"/>
</g>
<!-- MainNewsletterTestEmailerComponent -->
<g id="node7" class="node">
<title>MainNewsletterTestEmailerComponent</title>
<polygon fill="#ffffb3" stroke="black" points="263.94,-84.8 24.06,-84.8 24.06,-48.8 263.94,-48.8 263.94,-84.8"/>
<text text-anchor="middle" x="144" y="-62.6" font-family="Times,serif" font-size="14.00">MainNewsletterTestEmailerComponent</text>
</g>
<!-- MainNewsletterTestEmailerComponent&#45;&gt;MainNewslettersModule -->
<g id="edge7" class="edge">
<title>MainNewsletterTestEmailerComponent&#45;&gt;MainNewslettersModule</title>
<path fill="none" stroke="black" d="M144,-85.09C144,-107.01 144,-140.8 144,-140.8 144,-140.8 894.29,-140.8 894.29,-140.8"/>
<polygon fill="black" stroke="black" points="894.29,-144.3 904.29,-140.8 894.29,-137.3 894.29,-144.3"/>
</g>
<!-- MainNewsletterComponent  -->
<g id="node10" class="node">
<title>MainNewsletterComponent </title>
<polygon fill="#fb8072" stroke="black" points="1069.52,-214.8 894.48,-214.8 894.48,-178.8 1069.52,-178.8 1069.52,-214.8"/>
<text text-anchor="middle" x="982" y="-192.6" font-family="Times,serif" font-size="14.00">MainNewsletterComponent </text>
</g>
<!-- MainNewslettersModule&#45;&gt;MainNewsletterComponent  -->
<g id="edge9" class="edge">
<title>MainNewslettersModule&#45;&gt;MainNewsletterComponent </title>
<path fill="none" stroke="black" stroke-dasharray="5,2" d="M982,-149.91C982,-149.91 982,-168.79 982,-168.79"/>
<polygon fill="black" stroke="black" points="978.5,-168.79 982,-178.79 985.5,-168.79 978.5,-168.79"/>
</g>
<!-- MainNewslettersRoutingModule -->
<g id="node9" class="node">
<title>MainNewslettersRoutingModule</title>
<polygon fill="#8dd3c7" stroke="black" points="1761.31,-84.8 1758.31,-88.8 1737.31,-88.8 1734.31,-84.8 1560.69,-84.8 1560.69,-48.8 1761.31,-48.8 1761.31,-84.8"/>
<text text-anchor="middle" x="1661" y="-62.6" font-family="Times,serif" font-size="14.00">MainNewslettersRoutingModule</text>
</g>
<!-- MainNewslettersRoutingModule&#45;&gt;MainNewslettersModule -->
<g id="edge8" class="edge">
<title>MainNewslettersRoutingModule&#45;&gt;MainNewslettersModule</title>
<path fill="none" stroke="black" d="M1661,-85.09C1661,-107.01 1661,-140.8 1661,-140.8 1661,-140.8 1069.89,-140.8 1069.89,-140.8"/>
<polygon fill="black" stroke="black" points="1069.89,-137.3 1059.89,-140.8 1069.89,-144.3 1069.89,-137.3"/>
</g>
</g>
</svg>
