<?xml version="1.0" encoding="UTF-8" standalone="no"?>
<!DOCTYPE svg PUBLIC "-//W3C//DTD SVG 1.1//EN"
 "http://www.w3.org/Graphics/SVG/1.1/DTD/svg11.dtd">
<!-- Generated by graphviz version 2.47.0 (20210316.0004)
 -->
<!-- Title: dependencies Pages: 1 -->
<svg width="1793pt" height="284pt"
     viewBox="0.00 0.00 1793.00 284.00" xmlns="http://www.w3.org/2000/svg">
<g id="graph0" class="graph" transform="scale(1 1) rotate(0) translate(4 280)">
<title>dependencies</title>
<polygon fill="white" stroke="transparent" points="-4,4 -4,-280 1789,-280 1789,4 -4,4"/>
<text text-anchor="start" x="871.51" y="-42.4" font-family="sans-serif" font-weight="bold" font-size="14.00">Legend</text>
<polygon fill="#ffffb3" stroke="transparent" points="658.5,-10 658.5,-30 678.5,-30 678.5,-10 658.5,-10"/>
<text text-anchor="start" x="682.13" y="-15.4" font-family="sans-serif" font-size="14.00"> &#160;Declarations</text>
<polygon fill="#8dd3c7" stroke="transparent" points="771.5,-10 771.5,-30 791.5,-30 791.5,-10 771.5,-10"/>
<text text-anchor="start" x="795.23" y="-15.4" font-family="sans-serif" font-size="14.00"> &#160;Module</text>
<polygon fill="#80b1d3" stroke="transparent" points="857.5,-10 857.5,-30 877.5,-30 877.5,-10 857.5,-10"/>
<text text-anchor="start" x="881.28" y="-15.4" font-family="sans-serif" font-size="14.00"> &#160;Bootstrap</text>
<polygon fill="#fdb462" stroke="transparent" points="954.5,-10 954.5,-30 974.5,-30 974.5,-10 954.5,-10"/>
<text text-anchor="start" x="978.17" y="-15.4" font-family="sans-serif" font-size="14.00"> &#160;Providers</text>
<polygon fill="#fb8072" stroke="transparent" points="1050.5,-10 1050.5,-30 1070.5,-30 1070.5,-10 1050.5,-10"/>
<text text-anchor="start" x="1074.23" y="-15.4" font-family="sans-serif" font-size="14.00"> &#160;Exports</text>
<g id="clust1" class="cluster">
<title>cluster_MainNewslettersModule</title>
<polygon fill="none" stroke="black" stroke-dasharray="1,5" points="8,-70 8,-268 1777,-268 1777,-70 8,-70"/>
</g>
<g id="clust10" class="cluster">
<title>cluster_MainNewslettersModule_imports</title>
<polygon fill="none" stroke="black" points="1553,-78 1553,-130 1769,-130 1769,-78 1553,-78"/>
</g>
<g id="clust11" class="cluster">
<title>cluster_MainNewslettersModule_exports</title>
<polygon fill="none" stroke="black" points="886,-208 886,-260 1078,-260 1078,-208 886,-208"/>
</g>
<g id="clust2" class="cluster">
<title>cluster_MainNewslettersModule_declarations</title>
<polygon fill="none" stroke="black" points="16,-78 16,-130 1545,-130 1545,-78 16,-78"/>
</g>
<!-- IndexComponent -->
<g id="node1" class="node">
<title>IndexComponent</title>
<polygon fill="#ffffb3" stroke="black" points="1536.71,-122 1423.29,-122 1423.29,-86 1536.71,-86 1536.71,-122"/>
<text text-anchor="middle" x="1480" y="-99.8" font-family="Times,serif" font-size="14.00">IndexComponent</text>
</g>
<!-- MainNewslettersModule -->
<g id="node8" class="node">
<title>MainNewslettersModule</title>
<polygon fill="#8dd3c7" stroke="black" points="1059.68,-187 1056.68,-191 1035.68,-191 1032.68,-187 904.32,-187 904.32,-151 1059.68,-151 1059.68,-187"/>
<text text-anchor="middle" x="982" y="-164.8" font-family="Times,serif" font-size="14.00">MainNewslettersModule</text>
</g>
<!-- IndexComponent&#45;&gt;MainNewslettersModule -->
<g id="edge1" class="edge">
<title>IndexComponent&#45;&gt;MainNewslettersModule</title>
<path fill="none" stroke="black" d="M1480,-122.11C1480,-141.34 1480,-169 1480,-169 1480,-169 1069.81,-169 1069.81,-169"/>
<polygon fill="black" stroke="black" points="1069.81,-165.5 1059.81,-169 1069.81,-172.5 1069.81,-165.5"/>
</g>
<!-- MainNewsletterComponent -->
<g id="node2" class="node">
<title>MainNewsletterComponent</title>
<polygon fill="#ffffb3" stroke="black" points="1405.52,-122 1234.48,-122 1234.48,-86 1405.52,-86 1405.52,-122"/>
<text text-anchor="middle" x="1320" y="-99.8" font-family="Times,serif" font-size="14.00">MainNewsletterComponent</text>
</g>
<!-- MainNewsletterComponent&#45;&gt;MainNewslettersModule -->
<g id="edge2" class="edge">
<title>MainNewsletterComponent&#45;&gt;MainNewslettersModule</title>
<path fill="none" stroke="black" d="M1320,-122.03C1320,-138.4 1320,-160 1320,-160 1320,-160 1069.97,-160 1069.97,-160"/>
<polygon fill="black" stroke="black" points="1069.97,-156.5 1059.97,-160 1069.97,-163.5 1069.97,-156.5"/>
</g>
<!-- MainNewsletterEmailStatsComponent -->
<g id="node3" class="node">
<title>MainNewsletterEmailStatsComponent</title>
<polygon fill="#ffffb3" stroke="black" points="1216.18,-122 983.82,-122 983.82,-86 1216.18,-86 1216.18,-122"/>
<text text-anchor="middle" x="1100" y="-99.8" font-family="Times,serif" font-size="14.00">MainNewsletterEmailStatsComponent</text>
</g>
<!-- MainNewsletterEmailStatsComponent&#45;&gt;MainNewslettersModule -->
<g id="edge3" class="edge">
<title>MainNewsletterEmailStatsComponent&#45;&gt;MainNewslettersModule</title>
<path fill="none" stroke="black" d="M1021.75,-122.11C1021.75,-122.11 1021.75,-140.99 1021.75,-140.99"/>
<polygon fill="black" stroke="black" points="1018.25,-140.99 1021.75,-150.99 1025.25,-140.99 1018.25,-140.99"/>
</g>
<!-- MainNewsletterFormComponent -->
<g id="node4" class="node">
<title>MainNewsletterFormComponent</title>
<polygon fill="#ffffb3" stroke="black" points="965.85,-122 764.15,-122 764.15,-86 965.85,-86 965.85,-122"/>
<text text-anchor="middle" x="865" y="-99.8" font-family="Times,serif" font-size="14.00">MainNewsletterFormComponent</text>
</g>
<!-- MainNewsletterFormComponent&#45;&gt;MainNewslettersModule -->
<g id="edge4" class="edge">
<title>MainNewsletterFormComponent&#45;&gt;MainNewslettersModule</title>
<path fill="none" stroke="black" d="M935.17,-122.11C935.17,-122.11 935.17,-140.99 935.17,-140.99"/>
<polygon fill="black" stroke="black" points="931.67,-140.99 935.17,-150.99 938.67,-140.99 931.67,-140.99"/>
</g>
<!-- MainNewsletterListItemComponent -->
<g id="node5" class="node">
<title>MainNewsletterListItemComponent</title>
<polygon fill="#ffffb3" stroke="black" points="746.45,-122 527.55,-122 527.55,-86 746.45,-86 746.45,-122"/>
<text text-anchor="middle" x="637" y="-99.8" font-family="Times,serif" font-size="14.00">MainNewsletterListItemComponent</text>
</g>
<!-- MainNewsletterListItemComponent&#45;&gt;MainNewslettersModule -->
<g id="edge5" class="edge">
<title>MainNewsletterListItemComponent&#45;&gt;MainNewslettersModule</title>
<path fill="none" stroke="black" d="M637,-122.03C637,-138.4 637,-160 637,-160 637,-160 894.15,-160 894.15,-160"/>
<polygon fill="black" stroke="black" points="894.15,-163.5 904.15,-160 894.15,-156.5 894.15,-163.5"/>
</g>
<!-- MainNewsletterSchedulerComponent -->
<g id="node6" class="node">
<title>MainNewsletterSchedulerComponent</title>
<polygon fill="#ffffb3" stroke="black" points="509.99,-122 282.01,-122 282.01,-86 509.99,-86 509.99,-122"/>
<text text-anchor="middle" x="396" y="-99.8" font-family="Times,serif" font-size="14.00">MainNewsletterSchedulerComponent</text>
</g>
<!-- MainNewsletterSchedulerComponent&#45;&gt;MainNewslettersModule -->
<g id="edge6" class="edge">
<title>MainNewsletterSchedulerComponent&#45;&gt;MainNewslettersModule</title>
<path fill="none" stroke="black" d="M396,-122.11C396,-141.34 396,-169 396,-169 396,-169 894.18,-169 894.18,-169"/>
<polygon fill="black" stroke="black" points="894.18,-172.5 904.18,-169 894.18,-165.5 894.18,-172.5"/>
</g>
<!-- MainNewsletterTestEmailerComponent -->
<g id="node7" class="node">
<title>MainNewsletterTestEmailerComponent</title>
<polygon fill="#ffffb3" stroke="black" points="263.93,-122 24.07,-122 24.07,-86 263.93,-86 263.93,-122"/>
<text text-anchor="middle" x="144" y="-99.8" font-family="Times,serif" font-size="14.00">MainNewsletterTestEmailerComponent</text>
</g>
<!-- MainNewsletterTestEmailerComponent&#45;&gt;MainNewslettersModule -->
<g id="edge7" class="edge">
<title>MainNewsletterTestEmailerComponent&#45;&gt;MainNewslettersModule</title>
<path fill="none" stroke="black" d="M144,-122.29C144,-144.21 144,-178 144,-178 144,-178 894.29,-178 894.29,-178"/>
<polygon fill="black" stroke="black" points="894.29,-181.5 904.29,-178 894.29,-174.5 894.29,-181.5"/>
</g>
<!-- MainNewsletterComponent  -->
<g id="node10" class="node">
<title>MainNewsletterComponent </title>
<polygon fill="#fb8072" stroke="black" points="1069.52,-252 894.48,-252 894.48,-216 1069.52,-216 1069.52,-252"/>
<text text-anchor="middle" x="982" y="-229.8" font-family="Times,serif" font-size="14.00">MainNewsletterComponent </text>
</g>
<!-- MainNewslettersModule&#45;&gt;MainNewsletterComponent  -->
<g id="edge9" class="edge">
<title>MainNewslettersModule&#45;&gt;MainNewsletterComponent </title>
<path fill="none" stroke="black" stroke-dasharray="5,2" d="M982,-187.11C982,-187.11 982,-205.99 982,-205.99"/>
<polygon fill="black" stroke="black" points="978.5,-205.99 982,-215.99 985.5,-205.99 978.5,-205.99"/>
</g>
<!-- MainNewslettersRoutingModule -->
<g id="node9" class="node">
<title>MainNewslettersRoutingModule</title>
<polygon fill="#8dd3c7" stroke="black" points="1761.3,-122 1758.3,-126 1737.3,-126 1734.3,-122 1560.7,-122 1560.7,-86 1761.3,-86 1761.3,-122"/>
<text text-anchor="middle" x="1661" y="-99.8" font-family="Times,serif" font-size="14.00">MainNewslettersRoutingModule</text>
</g>
<!-- MainNewslettersRoutingModule&#45;&gt;MainNewslettersModule -->
<g id="edge8" class="edge">
<title>MainNewslettersRoutingModule&#45;&gt;MainNewslettersModule</title>
<path fill="none" stroke="black" d="M1661,-122.29C1661,-144.21 1661,-178 1661,-178 1661,-178 1069.89,-178 1069.89,-178"/>
<polygon fill="black" stroke="black" points="1069.89,-174.5 1059.89,-178 1069.89,-181.5 1069.89,-174.5"/>
</g>
</g>
</svg>
