<?xml version="1.0" encoding="UTF-8" standalone="no"?>
<!DOCTYPE svg PUBLIC "-//W3C//DTD SVG 1.1//EN"
 "http://www.w3.org/Graphics/SVG/1.1/DTD/svg11.dtd">
<!-- Generated by graphviz version 2.47.0 (20210316.0004)
 -->
<!-- Title: dependencies Pages: 1 -->
<svg width="2062pt" height="211pt"
     viewBox="0.00 0.00 2062.00 211.00" xmlns="http://www.w3.org/2000/svg">
<g id="graph0" class="graph" transform="scale(1 1) rotate(0) translate(4 207)">
<title>dependencies</title>
<polygon fill="white" stroke="transparent" points="-4,4 -4,-207 2058,-207 2058,4 -4,4"/>
<text text-anchor="start" x="1006.01" y="-42.4" font-family="sans-serif" font-weight="bold" font-size="14.00">Legend</text>
<polygon fill="#ffffb3" stroke="transparent" points="793,-10 793,-30 813,-30 813,-10 793,-10"/>
<text text-anchor="start" x="816.63" y="-15.4" font-family="sans-serif" font-size="14.00"> &#160;Declarations</text>
<polygon fill="#8dd3c7" stroke="transparent" points="906,-10 906,-30 926,-30 926,-10 906,-10"/>
<text text-anchor="start" x="929.73" y="-15.4" font-family="sans-serif" font-size="14.00"> &#160;Module</text>
<polygon fill="#80b1d3" stroke="transparent" points="992,-10 992,-30 1012,-30 1012,-10 992,-10"/>
<text text-anchor="start" x="1015.78" y="-15.4" font-family="sans-serif" font-size="14.00"> &#160;Bootstrap</text>
<polygon fill="#fdb462" stroke="transparent" points="1089,-10 1089,-30 1109,-30 1109,-10 1089,-10"/>
<text text-anchor="start" x="1112.67" y="-15.4" font-family="sans-serif" font-size="14.00"> &#160;Providers</text>
<polygon fill="#fb8072" stroke="transparent" points="1185,-10 1185,-30 1205,-30 1205,-10 1185,-10"/>
<text text-anchor="start" x="1208.73" y="-15.4" font-family="sans-serif" font-size="14.00"> &#160;Exports</text>
<g id="clust1" class="cluster">
<title>cluster_CommunityBuildsModule</title>
<polygon fill="none" stroke="black" stroke-dasharray="1,5" points="8,-70 8,-195 2046,-195 2046,-70 8,-70"/>
</g>
<g id="clust11" class="cluster">
<title>cluster_CommunityBuildsModule_imports</title>
<polygon fill="none" stroke="black" points="1814,-78 1814,-130 2038,-130 2038,-78 1814,-78"/>
</g>
<g id="clust2" class="cluster">
<title>cluster_CommunityBuildsModule_declarations</title>
<polygon fill="none" stroke="black" points="16,-78 16,-130 1806,-130 1806,-78 16,-78"/>
</g>
<!-- BuildListItemComponent -->
<g id="node1" class="node">
<title>BuildListItemComponent</title>
<polygon fill="#ffffb3" stroke="black" points="1797.89,-122 1638.11,-122 1638.11,-86 1797.89,-86 1797.89,-122"/>
<text text-anchor="middle" x="1718" y="-99.8" font-family="Times,serif" font-size="14.00">BuildListItemComponent</text>
</g>
<!-- CommunityBuildsModule -->
<g id="node9" class="node">
<title>CommunityBuildsModule</title>
<polygon fill="#8dd3c7" stroke="black" points="1148.51,-187 1145.51,-191 1124.51,-191 1121.51,-187 985.49,-187 985.49,-151 1148.51,-151 1148.51,-187"/>
<text text-anchor="middle" x="1067" y="-164.8" font-family="Times,serif" font-size="14.00">CommunityBuildsModule</text>
</g>
<!-- BuildListItemComponent&#45;&gt;CommunityBuildsModule -->
<g id="edge1" class="edge">
<title>BuildListItemComponent&#45;&gt;CommunityBuildsModule</title>
<path fill="none" stroke="black" d="M1718,-122.13C1718,-142.57 1718,-173 1718,-173 1718,-173 1158.79,-173 1158.79,-173"/>
<polygon fill="black" stroke="black" points="1158.79,-169.5 1148.79,-173 1158.79,-176.5 1158.79,-169.5"/>
</g>
<!-- CommunityBuildComponent -->
<g id="node2" class="node">
<title>CommunityBuildComponent</title>
<polygon fill="#ffffb3" stroke="black" points="1619.85,-122 1440.15,-122 1440.15,-86 1619.85,-86 1619.85,-122"/>
<text text-anchor="middle" x="1530" y="-99.8" font-family="Times,serif" font-size="14.00">CommunityBuildComponent</text>
</g>
<!-- CommunityBuildComponent&#45;&gt;CommunityBuildsModule -->
<g id="edge2" class="edge">
<title>CommunityBuildComponent&#45;&gt;CommunityBuildsModule</title>
<path fill="none" stroke="black" d="M1530,-122.27C1530,-140.56 1530,-166 1530,-166 1530,-166 1158.71,-166 1158.71,-166"/>
<polygon fill="black" stroke="black" points="1158.71,-162.5 1148.71,-166 1158.71,-169.5 1158.71,-162.5"/>
</g>
<!-- CommunityBuildDetailsComponent -->
<g id="node3" class="node">
<title>CommunityBuildDetailsComponent</title>
<polygon fill="#ffffb3" stroke="black" points="1422.5,-122 1203.5,-122 1203.5,-86 1422.5,-86 1422.5,-122"/>
<text text-anchor="middle" x="1313" y="-99.8" font-family="Times,serif" font-size="14.00">CommunityBuildDetailsComponent</text>
</g>
<!-- CommunityBuildDetailsComponent&#45;&gt;CommunityBuildsModule -->
<g id="edge3" class="edge">
<title>CommunityBuildDetailsComponent&#45;&gt;CommunityBuildsModule</title>
<path fill="none" stroke="black" d="M1313,-122.01C1313,-138.05 1313,-159 1313,-159 1313,-159 1158.57,-159 1158.57,-159"/>
<polygon fill="black" stroke="black" points="1158.57,-155.5 1148.57,-159 1158.57,-162.5 1158.57,-155.5"/>
</g>
<!-- CommunityBuildHListItemComponent -->
<g id="node4" class="node">
<title>CommunityBuildHListItemComponent</title>
<polygon fill="#ffffb3" stroke="black" points="1185.39,-122 948.61,-122 948.61,-86 1185.39,-86 1185.39,-122"/>
<text text-anchor="middle" x="1067" y="-99.8" font-family="Times,serif" font-size="14.00">CommunityBuildHListItemComponent</text>
</g>
<!-- CommunityBuildHListItemComponent&#45;&gt;CommunityBuildsModule -->
<g id="edge4" class="edge">
<title>CommunityBuildHListItemComponent&#45;&gt;CommunityBuildsModule</title>
<path fill="none" stroke="black" d="M1067,-122.11C1067,-122.11 1067,-140.99 1067,-140.99"/>
<polygon fill="black" stroke="black" points="1063.5,-140.99 1067,-150.99 1070.5,-140.99 1063.5,-140.99"/>
</g>
<!-- CommunityBuildsComponent -->
<g id="node5" class="node">
<title>CommunityBuildsComponent</title>
<polygon fill="#ffffb3" stroke="black" points="930.29,-122 745.71,-122 745.71,-86 930.29,-86 930.29,-122"/>
<text text-anchor="middle" x="838" y="-99.8" font-family="Times,serif" font-size="14.00">CommunityBuildsComponent</text>
</g>
<!-- CommunityBuildsComponent&#45;&gt;CommunityBuildsModule -->
<g id="edge5" class="edge">
<title>CommunityBuildsComponent&#45;&gt;CommunityBuildsModule</title>
<path fill="none" stroke="black" d="M838,-122.01C838,-138.05 838,-159 838,-159 838,-159 975.3,-159 975.3,-159"/>
<polygon fill="black" stroke="black" points="975.3,-162.5 985.3,-159 975.3,-155.5 975.3,-162.5"/>
</g>
<!-- CreateCommunityBuildComponent -->
<g id="node6" class="node">
<title>CreateCommunityBuildComponent</title>
<polygon fill="#ffffb3" stroke="black" points="727.88,-122 512.12,-122 512.12,-86 727.88,-86 727.88,-122"/>
<text text-anchor="middle" x="620" y="-99.8" font-family="Times,serif" font-size="14.00">CreateCommunityBuildComponent</text>
</g>
<!-- CreateCommunityBuildComponent&#45;&gt;CommunityBuildsModule -->
<g id="edge6" class="edge">
<title>CreateCommunityBuildComponent&#45;&gt;CommunityBuildsModule</title>
<path fill="none" stroke="black" d="M620,-122.27C620,-140.56 620,-166 620,-166 620,-166 975.27,-166 975.27,-166"/>
<polygon fill="black" stroke="black" points="975.27,-169.5 985.27,-166 975.27,-162.5 975.27,-169.5"/>
</g>
<!-- MyCommunityBuildsComponent -->
<g id="node7" class="node">
<title>MyCommunityBuildsComponent</title>
<polygon fill="#ffffb3" stroke="black" points="494.24,-122 289.76,-122 289.76,-86 494.24,-86 494.24,-122"/>
<text text-anchor="middle" x="392" y="-99.8" font-family="Times,serif" font-size="14.00">MyCommunityBuildsComponent</text>
</g>
<!-- MyCommunityBuildsComponent&#45;&gt;CommunityBuildsModule -->
<g id="edge7" class="edge">
<title>MyCommunityBuildsComponent&#45;&gt;CommunityBuildsModule</title>
<path fill="none" stroke="black" d="M392,-122.13C392,-142.57 392,-173 392,-173 392,-173 975.24,-173 975.24,-173"/>
<polygon fill="black" stroke="black" points="975.24,-176.5 985.24,-173 975.24,-169.5 975.24,-176.5"/>
</g>
<!-- TeammateInviteConfirmationComponent -->
<g id="node8" class="node">
<title>TeammateInviteConfirmationComponent</title>
<polygon fill="#ffffb3" stroke="black" points="272.01,-122 23.99,-122 23.99,-86 272.01,-86 272.01,-122"/>
<text text-anchor="middle" x="148" y="-99.8" font-family="Times,serif" font-size="14.00">TeammateInviteConfirmationComponent</text>
</g>
<!-- TeammateInviteConfirmationComponent&#45;&gt;CommunityBuildsModule -->
<g id="edge8" class="edge">
<title>TeammateInviteConfirmationComponent&#45;&gt;CommunityBuildsModule</title>
<path fill="none" stroke="black" d="M148,-122.01C148,-144.49 148,-180 148,-180 148,-180 975.44,-180 975.44,-180"/>
<polygon fill="black" stroke="black" points="975.44,-183.5 985.44,-180 975.44,-176.5 975.44,-183.5"/>
</g>
<!-- CommunityBuildsRoutingModule -->
<g id="node10" class="node">
<title>CommunityBuildsRoutingModule</title>
<polygon fill="#8dd3c7" stroke="black" points="2030.13,-122 2027.13,-126 2006.13,-126 2003.13,-122 1821.87,-122 1821.87,-86 2030.13,-86 2030.13,-122"/>
<text text-anchor="middle" x="1926" y="-99.8" font-family="Times,serif" font-size="14.00">CommunityBuildsRoutingModule</text>
</g>
<!-- CommunityBuildsRoutingModule&#45;&gt;CommunityBuildsModule -->
<g id="edge9" class="edge">
<title>CommunityBuildsRoutingModule&#45;&gt;CommunityBuildsModule</title>
<path fill="none" stroke="black" d="M1926,-122.01C1926,-144.49 1926,-180 1926,-180 1926,-180 1158.59,-180 1158.59,-180"/>
<polygon fill="black" stroke="black" points="1158.59,-176.5 1148.59,-180 1158.59,-183.5 1158.59,-176.5"/>
</g>
</g>
</svg>
