<?xml version="1.0" encoding="UTF-8" standalone="no"?>
<!DOCTYPE svg PUBLIC "-//W3C//DTD SVG 1.1//EN"
 "http://www.w3.org/Graphics/SVG/1.1/DTD/svg11.dtd">
<!-- Generated by graphviz version 2.47.3 (20210619.1520)
 -->
<!-- Title: dependencies Pages: 1 -->
<svg width="2236pt" height="174pt"
 viewBox="0.00 0.00 2236.00 173.80" xmlns="http://www.w3.org/2000/svg" xmlns:xlink="http://www.w3.org/1999/xlink">
<g id="graph0" class="graph" transform="scale(1 1) rotate(0) translate(4 169.8)">
<title>dependencies</title>
<polygon fill="white" stroke="transparent" points="-4,4 -4,-169.8 2232,-169.8 2232,4 -4,4"/>
<text text-anchor="middle" x="1114" y="-8.2" font-family="sans-serif" font-size="14.00">dependencies</text>
<g id="clust1" class="cluster">
<title>cluster_CommunityBuildsModule</title>
<polygon fill="none" stroke="black" stroke-dasharray="1,5" points="8,-32.8 8,-157.8 2220,-157.8 2220,-32.8 8,-32.8"/>
</g>
<g id="clust2" class="cluster">
<title>cluster_CommunityBuildsModule_declarations</title>
<polygon fill="none" stroke="black" points="422,-40.8 422,-92.8 2212,-92.8 2212,-40.8 422,-40.8"/>
</g>
<g id="clust11" class="cluster">
<title>cluster_CommunityBuildsModule_imports</title>
<polygon fill="none" stroke="black" points="16,-40.8 16,-92.8 414,-92.8 414,-40.8 16,-40.8"/>
</g>
<!-- BuildListItemComponent -->
<g id="node1" class="node">
<title>BuildListItemComponent</title>
<polygon fill="#ffffb3" stroke="black" points="2203.89,-84.8 2044.11,-84.8 2044.11,-48.8 2203.89,-48.8 2203.89,-84.8"/>
<text text-anchor="middle" x="2124" y="-62.6" font-family="Times,serif" font-size="14.00">BuildListItemComponent</text>
</g>
<!-- CommunityBuildsModule -->
<g id="node9" class="node">
<title>CommunityBuildsModule</title>
<polygon fill="#8dd3c7" stroke="black" points="1216.51,-149.8 1213.51,-153.8 1192.51,-153.8 1189.51,-149.8 1053.49,-149.8 1053.49,-113.8 1216.51,-113.8 1216.51,-149.8"/>
<text text-anchor="middle" x="1135" y="-127.6" font-family="Times,serif" font-size="14.00">CommunityBuildsModule</text>
</g>
<!-- BuildListItemComponent&#45;&gt;CommunityBuildsModule -->
<g id="edge1" class="edge">
<title>BuildListItemComponent&#45;&gt;CommunityBuildsModule</title>
<path fill="none" stroke="black" d="M2124,-84.81C2124,-107.29 2124,-142.8 2124,-142.8 2124,-142.8 1226.78,-142.8 1226.78,-142.8"/>
<polygon fill="black" stroke="black" points="1226.78,-139.3 1216.78,-142.8 1226.78,-146.3 1226.78,-139.3"/>
</g>
<!-- CommunityBuildComponent -->
<g id="node2" class="node">
<title>CommunityBuildComponent</title>
<polygon fill="#ffffb3" stroke="black" points="2025.85,-84.8 1846.15,-84.8 1846.15,-48.8 2025.85,-48.8 2025.85,-84.8"/>
<text text-anchor="middle" x="1936" y="-62.6" font-family="Times,serif" font-size="14.00">CommunityBuildComponent</text>
</g>
<!-- CommunityBuildComponent&#45;&gt;CommunityBuildsModule -->
<g id="edge2" class="edge">
<title>CommunityBuildComponent&#45;&gt;CommunityBuildsModule</title>
<path fill="none" stroke="black" d="M1936,-84.93C1936,-105.37 1936,-135.8 1936,-135.8 1936,-135.8 1226.58,-135.8 1226.58,-135.8"/>
<polygon fill="black" stroke="black" points="1226.58,-132.3 1216.58,-135.8 1226.58,-139.3 1226.58,-132.3"/>
</g>
<!-- CommunityBuildDetailsComponent -->
<g id="node3" class="node">
<title>CommunityBuildDetailsComponent</title>
<polygon fill="#ffffb3" stroke="black" points="1828.5,-84.8 1609.5,-84.8 1609.5,-48.8 1828.5,-48.8 1828.5,-84.8"/>
<text text-anchor="middle" x="1719" y="-62.6" font-family="Times,serif" font-size="14.00">CommunityBuildDetailsComponent</text>
</g>
<!-- CommunityBuildDetailsComponent&#45;&gt;CommunityBuildsModule -->
<g id="edge3" class="edge">
<title>CommunityBuildDetailsComponent&#45;&gt;CommunityBuildsModule</title>
<path fill="none" stroke="black" d="M1719,-85.07C1719,-103.36 1719,-128.8 1719,-128.8 1719,-128.8 1226.51,-128.8 1226.51,-128.8"/>
<polygon fill="black" stroke="black" points="1226.51,-125.3 1216.51,-128.8 1226.51,-132.3 1226.51,-125.3"/>
</g>
<!-- CommunityBuildHListItemComponent -->
<g id="node4" class="node">
<title>CommunityBuildHListItemComponent</title>
<polygon fill="#ffffb3" stroke="black" points="1591.39,-84.8 1354.61,-84.8 1354.61,-48.8 1591.39,-48.8 1591.39,-84.8"/>
<text text-anchor="middle" x="1473" y="-62.6" font-family="Times,serif" font-size="14.00">CommunityBuildHListItemComponent</text>
</g>
<!-- CommunityBuildHListItemComponent&#45;&gt;CommunityBuildsModule -->
<g id="edge4" class="edge">
<title>CommunityBuildHListItemComponent&#45;&gt;CommunityBuildsModule</title>
<path fill="none" stroke="black" d="M1473,-84.81C1473,-100.85 1473,-121.8 1473,-121.8 1473,-121.8 1226.82,-121.8 1226.82,-121.8"/>
<polygon fill="black" stroke="black" points="1226.82,-118.3 1216.82,-121.8 1226.82,-125.3 1226.82,-118.3"/>
</g>
<!-- CommunityBuildsComponent -->
<g id="node5" class="node">
<title>CommunityBuildsComponent</title>
<polygon fill="#ffffb3" stroke="black" points="1336.29,-84.8 1151.71,-84.8 1151.71,-48.8 1336.29,-48.8 1336.29,-84.8"/>
<text text-anchor="middle" x="1244" y="-62.6" font-family="Times,serif" font-size="14.00">CommunityBuildsComponent</text>
</g>
<!-- CommunityBuildsComponent&#45;&gt;CommunityBuildsModule -->
<g id="edge5" class="edge">
<title>CommunityBuildsComponent&#45;&gt;CommunityBuildsModule</title>
<path fill="none" stroke="black" d="M1184.05,-84.91C1184.05,-84.91 1184.05,-103.79 1184.05,-103.79"/>
<polygon fill="black" stroke="black" points="1180.55,-103.79 1184.05,-113.79 1187.55,-103.79 1180.55,-103.79"/>
</g>
<!-- CreateCommunityBuildComponent -->
<g id="node6" class="node">
<title>CreateCommunityBuildComponent</title>
<polygon fill="#ffffb3" stroke="black" points="1133.88,-84.8 918.12,-84.8 918.12,-48.8 1133.88,-48.8 1133.88,-84.8"/>
<text text-anchor="middle" x="1026" y="-62.6" font-family="Times,serif" font-size="14.00">CreateCommunityBuildComponent</text>
</g>
<!-- CreateCommunityBuildComponent&#45;&gt;CommunityBuildsModule -->
<g id="edge6" class="edge">
<title>CreateCommunityBuildComponent&#45;&gt;CommunityBuildsModule</title>
<path fill="none" stroke="black" d="M1093.72,-84.91C1093.72,-84.91 1093.72,-103.79 1093.72,-103.79"/>
<polygon fill="black" stroke="black" points="1090.22,-103.79 1093.72,-113.79 1097.22,-103.79 1090.22,-103.79"/>
</g>
<!-- MyCommunityBuildsComponent -->
<g id="node7" class="node">
<title>MyCommunityBuildsComponent</title>
<polygon fill="#ffffb3" stroke="black" points="900.24,-84.8 695.76,-84.8 695.76,-48.8 900.24,-48.8 900.24,-84.8"/>
<text text-anchor="middle" x="798" y="-62.6" font-family="Times,serif" font-size="14.00">MyCommunityBuildsComponent</text>
</g>
<!-- MyCommunityBuildsComponent&#45;&gt;CommunityBuildsModule -->
<g id="edge7" class="edge">
<title>MyCommunityBuildsComponent&#45;&gt;CommunityBuildsModule</title>
<path fill="none" stroke="black" d="M798,-84.81C798,-100.85 798,-121.8 798,-121.8 798,-121.8 1043.42,-121.8 1043.42,-121.8"/>
<polygon fill="black" stroke="black" points="1043.42,-125.3 1053.42,-121.8 1043.42,-118.3 1043.42,-125.3"/>
</g>
<!-- TeammateInviteConfirmationComponent -->
<g id="node8" class="node">
<title>TeammateInviteConfirmationComponent</title>
<polygon fill="#ffffb3" stroke="black" points="678.01,-84.8 429.99,-84.8 429.99,-48.8 678.01,-48.8 678.01,-84.8"/>
<text text-anchor="middle" x="554" y="-62.6" font-family="Times,serif" font-size="14.00">TeammateInviteConfirmationComponent</text>
</g>
<!-- TeammateInviteConfirmationComponent&#45;&gt;CommunityBuildsModule -->
<g id="edge8" class="edge">
<title>TeammateInviteConfirmationComponent&#45;&gt;CommunityBuildsModule</title>
<path fill="none" stroke="black" d="M554,-85.07C554,-103.36 554,-128.8 554,-128.8 554,-128.8 1043.3,-128.8 1043.3,-128.8"/>
<polygon fill="black" stroke="black" points="1043.3,-132.3 1053.3,-128.8 1043.3,-125.3 1043.3,-132.3"/>
</g>
<!-- CommunityBuildsRoutingModule -->
<g id="node10" class="node">
<title>CommunityBuildsRoutingModule</title>
<polygon fill="#8dd3c7" stroke="black" points="406.13,-84.8 403.13,-88.8 382.13,-88.8 379.13,-84.8 197.87,-84.8 197.87,-48.8 406.13,-48.8 406.13,-84.8"/>
<text text-anchor="middle" x="302" y="-62.6" font-family="Times,serif" font-size="14.00">CommunityBuildsRoutingModule</text>
</g>
<!-- CommunityBuildsRoutingModule&#45;&gt;CommunityBuildsModule -->
<g id="edge9" class="edge">
<title>CommunityBuildsRoutingModule&#45;&gt;CommunityBuildsModule</title>
<path fill="none" stroke="black" d="M302,-84.93C302,-105.37 302,-135.8 302,-135.8 302,-135.8 1043.23,-135.8 1043.23,-135.8"/>
<polygon fill="black" stroke="black" points="1043.23,-139.3 1053.23,-135.8 1043.23,-132.3 1043.23,-139.3"/>
</g>
<!-- SharedDirectivesModule -->
<g id="node11" class="node">
<title>SharedDirectivesModule</title>
<polygon fill="#8dd3c7" stroke="black" points="179.95,-84.8 176.95,-88.8 155.95,-88.8 152.95,-84.8 24.05,-84.8 24.05,-48.8 179.95,-48.8 179.95,-84.8"/>
<text text-anchor="middle" x="102" y="-62.6" font-family="Times,serif" font-size="14.00">SharedDirectivesModule</text>
</g>
<!-- SharedDirectivesModule&#45;&gt;CommunityBuildsModule -->
<g id="edge10" class="edge">
<title>SharedDirectivesModule&#45;&gt;CommunityBuildsModule</title>
<path fill="none" stroke="black" d="M102,-84.81C102,-107.29 102,-142.8 102,-142.8 102,-142.8 1043.08,-142.8 1043.08,-142.8"/>
<polygon fill="black" stroke="black" points="1043.08,-146.3 1053.08,-142.8 1043.08,-139.3 1043.08,-146.3"/>
</g>
</g>
</svg>
