<?xml version="1.0" encoding="UTF-8" standalone="no"?>
<!DOCTYPE svg PUBLIC "-//W3C//DTD SVG 1.1//EN"
 "http://www.w3.org/Graphics/SVG/1.1/DTD/svg11.dtd">
<!-- Generated by graphviz version 5.0.0 (20220707.1540)
 -->
<!-- Title: dependencies Pages: 1 -->
<svg width="2836pt" height="174pt"
 viewBox="0.00 0.00 2836.00 173.80" xmlns="http://www.w3.org/2000/svg" xmlns:xlink="http://www.w3.org/1999/xlink">
<g id="graph0" class="graph" transform="scale(1 1) rotate(0) translate(4 169.8)">
<title>dependencies</title>
<polygon fill="white" stroke="transparent" points="-4,4 -4,-169.8 2832,-169.8 2832,4 -4,4"/>
<text text-anchor="middle" x="1414" y="-8.2" font-family="sans-serif" font-size="14.00">dependencies</text>
<g id="clust1" class="cluster">
<title>cluster_CommunityBuildsModule</title>
<polygon fill="none" stroke="black" stroke-dasharray="1,5" points="8,-32.8 8,-157.8 2820,-157.8 2820,-32.8 8,-32.8"/>
</g>
<g id="clust2" class="cluster">
<title>cluster_CommunityBuildsModule_declarations</title>
<polygon fill="none" stroke="black" points="1053,-40.8 1053,-92.8 2812,-92.8 2812,-40.8 1053,-40.8"/>
</g>
<g id="clust11" class="cluster">
<title>cluster_CommunityBuildsModule_imports</title>
<polygon fill="none" stroke="black" points="16,-40.8 16,-92.8 1045,-92.8 1045,-40.8 16,-40.8"/>
</g>
<!-- BuildListItemComponent -->
<g id="node1" class="node">
<title>BuildListItemComponent</title>
<polygon fill="#ffffb3" stroke="black" points="2803.88,-84.8 2644.12,-84.8 2644.12,-48.8 2803.88,-48.8 2803.88,-84.8"/>
<text text-anchor="middle" x="2724" y="-62.6" font-family="Times,serif" font-size="14.00">BuildListItemComponent</text>
</g>
<!-- CommunityBuildsModule -->
<g id="node9" class="node">
<title>CommunityBuildsModule</title>
<polygon fill="#8dd3c7" stroke="black" points="1388.51,-149.8 1385.51,-153.8 1364.51,-153.8 1361.51,-149.8 1225.49,-149.8 1225.49,-113.8 1388.51,-113.8 1388.51,-149.8"/>
<text text-anchor="middle" x="1307" y="-127.6" font-family="Times,serif" font-size="14.00">CommunityBuildsModule</text>
</g>
<!-- BuildListItemComponent&#45;&gt;CommunityBuildsModule -->
<g id="edge1" class="edge">
<title>BuildListItemComponent&#45;&gt;CommunityBuildsModule</title>
<path fill="none" stroke="black" d="M2724,-84.89C2724,-107.93 2724,-144.8 2724,-144.8 2724,-144.8 1398.53,-144.8 1398.53,-144.8"/>
<polygon fill="black" stroke="black" points="1398.53,-141.3 1388.53,-144.8 1398.53,-148.3 1398.53,-141.3"/>
</g>
<!-- CommunityBuildCardComponent -->
<g id="node2" class="node">
<title>CommunityBuildCardComponent</title>
<polygon fill="#ffffb3" stroke="black" points="2626.06,-84.8 2419.94,-84.8 2419.94,-48.8 2626.06,-48.8 2626.06,-84.8"/>
<text text-anchor="middle" x="2523" y="-62.6" font-family="Times,serif" font-size="14.00">CommunityBuildCardComponent</text>
</g>
<!-- CommunityBuildCardComponent&#45;&gt;CommunityBuildsModule -->
<g id="edge2" class="edge">
<title>CommunityBuildCardComponent&#45;&gt;CommunityBuildsModule</title>
<path fill="none" stroke="black" d="M2523,-84.84C2523,-106.46 2523,-139.8 2523,-139.8 2523,-139.8 1398.67,-139.8 1398.67,-139.8"/>
<polygon fill="black" stroke="black" points="1398.67,-136.3 1388.67,-139.8 1398.67,-143.3 1398.67,-136.3"/>
</g>
<!-- CommunityBuildComponent -->
<g id="node3" class="node">
<title>CommunityBuildComponent</title>
<polygon fill="#ffffb3" stroke="black" points="2401.85,-84.8 2222.15,-84.8 2222.15,-48.8 2401.85,-48.8 2401.85,-84.8"/>
<text text-anchor="middle" x="2312" y="-62.6" font-family="Times,serif" font-size="14.00">CommunityBuildComponent</text>
</g>
<!-- CommunityBuildComponent&#45;&gt;CommunityBuildsModule -->
<g id="edge3" class="edge">
<title>CommunityBuildComponent&#45;&gt;CommunityBuildsModule</title>
<path fill="none" stroke="black" d="M2312,-85.02C2312,-105.17 2312,-134.8 2312,-134.8 2312,-134.8 1398.82,-134.8 1398.82,-134.8"/>
<polygon fill="black" stroke="black" points="1398.82,-131.3 1388.82,-134.8 1398.82,-138.3 1398.82,-131.3"/>
</g>
<!-- CommunityBuildDetailsComponent -->
<g id="node4" class="node">
<title>CommunityBuildDetailsComponent</title>
<polygon fill="#ffffb3" stroke="black" points="2204.5,-84.8 1985.5,-84.8 1985.5,-48.8 2204.5,-48.8 2204.5,-84.8"/>
<text text-anchor="middle" x="2095" y="-62.6" font-family="Times,serif" font-size="14.00">CommunityBuildDetailsComponent</text>
</g>
<!-- CommunityBuildDetailsComponent&#45;&gt;CommunityBuildsModule -->
<g id="edge4" class="edge">
<title>CommunityBuildDetailsComponent&#45;&gt;CommunityBuildsModule</title>
<path fill="none" stroke="black" d="M2095,-85.02C2095,-103.63 2095,-129.8 2095,-129.8 2095,-129.8 1398.73,-129.8 1398.73,-129.8"/>
<polygon fill="black" stroke="black" points="1398.73,-126.3 1388.73,-129.8 1398.73,-133.3 1398.73,-126.3"/>
</g>
<!-- CommunityBuildsComponent -->
<g id="node5" class="node">
<title>CommunityBuildsComponent</title>
<polygon fill="#ffffb3" stroke="black" points="1967.29,-84.8 1782.71,-84.8 1782.71,-48.8 1967.29,-48.8 1967.29,-84.8"/>
<text text-anchor="middle" x="1875" y="-62.6" font-family="Times,serif" font-size="14.00">CommunityBuildsComponent</text>
</g>
<!-- CommunityBuildsComponent&#45;&gt;CommunityBuildsModule -->
<g id="edge5" class="edge">
<title>CommunityBuildsComponent&#45;&gt;CommunityBuildsModule</title>
<path fill="none" stroke="black" d="M1875,-84.83C1875,-101.86 1875,-124.8 1875,-124.8 1875,-124.8 1398.68,-124.8 1398.68,-124.8"/>
<polygon fill="black" stroke="black" points="1398.68,-121.3 1388.68,-124.8 1398.68,-128.3 1398.68,-121.3"/>
</g>
<!-- CreateCommunityBuildComponent -->
<g id="node6" class="node">
<title>CreateCommunityBuildComponent</title>
<polygon fill="#ffffb3" stroke="black" points="1764.88,-84.8 1549.12,-84.8 1549.12,-48.8 1764.88,-48.8 1764.88,-84.8"/>
<text text-anchor="middle" x="1657" y="-62.6" font-family="Times,serif" font-size="14.00">CreateCommunityBuildComponent</text>
</g>
<!-- CreateCommunityBuildComponent&#45;&gt;CommunityBuildsModule -->
<g id="edge6" class="edge">
<title>CreateCommunityBuildComponent&#45;&gt;CommunityBuildsModule</title>
<path fill="none" stroke="black" d="M1657,-85.04C1657,-100.37 1657,-119.8 1657,-119.8 1657,-119.8 1398.62,-119.8 1398.62,-119.8"/>
<polygon fill="black" stroke="black" points="1398.62,-116.3 1388.62,-119.8 1398.62,-123.3 1398.62,-116.3"/>
</g>
<!-- MyCommunityBuildsComponent -->
<g id="node7" class="node">
<title>MyCommunityBuildsComponent</title>
<polygon fill="#ffffb3" stroke="black" points="1531.24,-84.8 1326.76,-84.8 1326.76,-48.8 1531.24,-48.8 1531.24,-84.8"/>
<text text-anchor="middle" x="1429" y="-62.6" font-family="Times,serif" font-size="14.00">MyCommunityBuildsComponent</text>
</g>
<!-- MyCommunityBuildsComponent&#45;&gt;CommunityBuildsModule -->
<g id="edge7" class="edge">
<title>MyCommunityBuildsComponent&#45;&gt;CommunityBuildsModule</title>
<path fill="none" stroke="black" d="M1357.69,-84.91C1357.69,-84.91 1357.69,-103.79 1357.69,-103.79"/>
<polygon fill="black" stroke="black" points="1354.19,-103.79 1357.69,-113.79 1361.19,-103.79 1354.19,-103.79"/>
</g>
<!-- TeammateInviteConfirmationComponent -->
<g id="node8" class="node">
<title>TeammateInviteConfirmationComponent</title>
<polygon fill="#ffffb3" stroke="black" points="1309.5,-84.8 1060.5,-84.8 1060.5,-48.8 1309.5,-48.8 1309.5,-84.8"/>
<text text-anchor="middle" x="1185" y="-62.6" font-family="Times,serif" font-size="14.00">TeammateInviteConfirmationComponent</text>
</g>
<!-- TeammateInviteConfirmationComponent&#45;&gt;CommunityBuildsModule -->
<g id="edge8" class="edge">
<title>TeammateInviteConfirmationComponent&#45;&gt;CommunityBuildsModule</title>
<path fill="none" stroke="black" d="M1267.37,-84.91C1267.37,-84.91 1267.37,-103.79 1267.37,-103.79"/>
<polygon fill="black" stroke="black" points="1263.87,-103.79 1267.37,-113.79 1270.87,-103.79 1263.87,-103.79"/>
</g>
<!-- CommunityBuildsRoutingModule -->
<g id="node10" class="node">
<title>CommunityBuildsRoutingModule</title>
<polygon fill="#8dd3c7" stroke="black" points="1037.13,-84.8 1034.13,-88.8 1013.13,-88.8 1010.13,-84.8 828.87,-84.8 828.87,-48.8 1037.13,-48.8 1037.13,-84.8"/>
<text text-anchor="middle" x="933" y="-62.6" font-family="Times,serif" font-size="14.00">CommunityBuildsRoutingModule</text>
</g>
<!-- CommunityBuildsRoutingModule&#45;&gt;CommunityBuildsModule -->
<g id="edge9" class="edge">
<title>CommunityBuildsRoutingModule&#45;&gt;CommunityBuildsModule</title>
<path fill="none" stroke="black" d="M933,-85.04C933,-100.37 933,-119.8 933,-119.8 933,-119.8 1215.39,-119.8 1215.39,-119.8"/>
<polygon fill="black" stroke="black" points="1215.39,-123.3 1225.39,-119.8 1215.39,-116.3 1215.39,-123.3"/>
</g>
<!-- InfiniteScrollModule -->
<g id="node11" class="node">
<title>InfiniteScrollModule</title>
<polygon fill="#8dd3c7" stroke="black" points="811.2,-84.8 808.2,-88.8 787.2,-88.8 784.2,-84.8 676.8,-84.8 676.8,-48.8 811.2,-48.8 811.2,-84.8"/>
<text text-anchor="middle" x="744" y="-62.6" font-family="Times,serif" font-size="14.00">InfiniteScrollModule</text>
</g>
<!-- InfiniteScrollModule&#45;&gt;CommunityBuildsModule -->
<g id="edge10" class="edge">
<title>InfiniteScrollModule&#45;&gt;CommunityBuildsModule</title>
<path fill="none" stroke="black" d="M744,-84.83C744,-101.86 744,-124.8 744,-124.8 744,-124.8 1215.44,-124.8 1215.44,-124.8"/>
<polygon fill="black" stroke="black" points="1215.44,-128.3 1225.44,-124.8 1215.44,-121.3 1215.44,-128.3"/>
</g>
<!-- MiniUserProfileModule -->
<g id="node12" class="node">
<title>MiniUserProfileModule</title>
<polygon fill="#8dd3c7" stroke="black" points="658.82,-84.8 655.82,-88.8 634.82,-88.8 631.82,-84.8 507.18,-84.8 507.18,-48.8 658.82,-48.8 658.82,-84.8"/>
<text text-anchor="middle" x="583" y="-62.6" font-family="Times,serif" font-size="14.00">MiniUserProfileModule</text>
</g>
<!-- MiniUserProfileModule&#45;&gt;CommunityBuildsModule -->
<g id="edge11" class="edge">
<title>MiniUserProfileModule&#45;&gt;CommunityBuildsModule</title>
<path fill="none" stroke="black" d="M583,-85.02C583,-103.63 583,-129.8 583,-129.8 583,-129.8 1215.36,-129.8 1215.36,-129.8"/>
<polygon fill="black" stroke="black" points="1215.36,-133.3 1225.36,-129.8 1215.36,-126.3 1215.36,-133.3"/>
</g>
<!-- PageAdsModule -->
<g id="node13" class="node">
<title>PageAdsModule</title>
<polygon fill="#8dd3c7" stroke="black" points="489.82,-84.8 486.82,-88.8 465.82,-88.8 462.82,-84.8 380.18,-84.8 380.18,-48.8 489.82,-48.8 489.82,-84.8"/>
<text text-anchor="middle" x="435" y="-62.6" font-family="Times,serif" font-size="14.00">PageAdsModule</text>
</g>
<!-- PageAdsModule&#45;&gt;CommunityBuildsModule -->
<g id="edge12" class="edge">
<title>PageAdsModule&#45;&gt;CommunityBuildsModule</title>
<path fill="none" stroke="black" d="M435,-85.02C435,-105.17 435,-134.8 435,-134.8 435,-134.8 1215.36,-134.8 1215.36,-134.8"/>
<polygon fill="black" stroke="black" points="1215.36,-138.3 1225.36,-134.8 1215.36,-131.3 1215.36,-138.3"/>
</g>
<!-- RecommendationsModule -->
<g id="node14" class="node">
<title>RecommendationsModule</title>
<polygon fill="#8dd3c7" stroke="black" points="361.75,-84.8 358.75,-88.8 337.75,-88.8 334.75,-84.8 198.25,-84.8 198.25,-48.8 361.75,-48.8 361.75,-84.8"/>
<text text-anchor="middle" x="280" y="-62.6" font-family="Times,serif" font-size="14.00">RecommendationsModule</text>
</g>
<!-- RecommendationsModule&#45;&gt;CommunityBuildsModule -->
<g id="edge13" class="edge">
<title>RecommendationsModule&#45;&gt;CommunityBuildsModule</title>
<path fill="none" stroke="black" d="M280,-84.84C280,-106.46 280,-139.8 280,-139.8 280,-139.8 1215.12,-139.8 1215.12,-139.8"/>
<polygon fill="black" stroke="black" points="1215.12,-143.3 1225.12,-139.8 1215.12,-136.3 1215.12,-143.3"/>
</g>
<!-- SharedDirectivesModule -->
<g id="node15" class="node">
<title>SharedDirectivesModule</title>
<polygon fill="#8dd3c7" stroke="black" points="179.96,-84.8 176.96,-88.8 155.96,-88.8 152.96,-84.8 24.04,-84.8 24.04,-48.8 179.96,-48.8 179.96,-84.8"/>
<text text-anchor="middle" x="102" y="-62.6" font-family="Times,serif" font-size="14.00">SharedDirectivesModule</text>
</g>
<!-- SharedDirectivesModule&#45;&gt;CommunityBuildsModule -->
<g id="edge14" class="edge">
<title>SharedDirectivesModule&#45;&gt;CommunityBuildsModule</title>
<path fill="none" stroke="black" d="M102,-84.89C102,-107.93 102,-144.8 102,-144.8 102,-144.8 1215.12,-144.8 1215.12,-144.8"/>
<polygon fill="black" stroke="black" points="1215.12,-148.3 1225.12,-144.8 1215.12,-141.3 1215.12,-148.3"/>
</g>
</g>
</svg>
