<?xml version="1.0" encoding="UTF-8" standalone="no"?>
<!DOCTYPE svg PUBLIC "-//W3C//DTD SVG 1.1//EN"
 "http://www.w3.org/Graphics/SVG/1.1/DTD/svg11.dtd">
<!-- Generated by graphviz version 2.47.0 (20210316.0004)
 -->
<!-- Title: dependencies Pages: 1 -->
<svg width="782pt" height="211pt"
     viewBox="0.00 0.00 782.00 211.00" xmlns="http://www.w3.org/2000/svg">
<g id="graph0" class="graph" transform="scale(1 1) rotate(0) translate(4 207)">
<title>dependencies</title>
<polygon fill="white" stroke="transparent" points="-4,4 -4,-207 778,-207 778,4 -4,4"/>
<text text-anchor="start" x="366.01" y="-42.4" font-family="sans-serif" font-weight="bold" font-size="14.00">Legend</text>
<polygon fill="#ffffb3" stroke="transparent" points="153,-10 153,-30 173,-30 173,-10 153,-10"/>
<text text-anchor="start" x="176.63" y="-15.4" font-family="sans-serif" font-size="14.00"> &#160;Declarations</text>
<polygon fill="#8dd3c7" stroke="transparent" points="266,-10 266,-30 286,-30 286,-10 266,-10"/>
<text text-anchor="start" x="289.73" y="-15.4" font-family="sans-serif" font-size="14.00"> &#160;Module</text>
<polygon fill="#80b1d3" stroke="transparent" points="352,-10 352,-30 372,-30 372,-10 352,-10"/>
<text text-anchor="start" x="375.78" y="-15.4" font-family="sans-serif" font-size="14.00"> &#160;Bootstrap</text>
<polygon fill="#fdb462" stroke="transparent" points="449,-10 449,-30 469,-30 469,-10 449,-10"/>
<text text-anchor="start" x="472.67" y="-15.4" font-family="sans-serif" font-size="14.00"> &#160;Providers</text>
<polygon fill="#fb8072" stroke="transparent" points="545,-10 545,-30 565,-30 565,-10 545,-10"/>
<text text-anchor="start" x="568.73" y="-15.4" font-family="sans-serif" font-size="14.00"> &#160;Exports</text>
<g id="clust1" class="cluster">
<title>cluster_SysAdminModule</title>
<polygon fill="none" stroke="black" stroke-dasharray="1,5" points="8,-70 8,-195 766,-195 766,-70 8,-70"/>
</g>
<g id="clust2" class="cluster">
<title>cluster_SysAdminModule_declarations</title>
<polygon fill="none" stroke="black" points="204,-78 204,-130 758,-130 758,-78 204,-78"/>
</g>
<g id="clust6" class="cluster">
<title>cluster_SysAdminModule_imports</title>
<polygon fill="none" stroke="black" points="16,-78 16,-130 196,-130 196,-78 16,-78"/>
</g>
<!-- AdminSurveysComponent -->
<g id="node1" class="node">
<title>AdminSurveysComponent</title>
<polygon fill="#ffffb3" stroke="black" points="749.82,-122 584.18,-122 584.18,-86 749.82,-86 749.82,-122"/>
<text text-anchor="middle" x="667" y="-99.8" font-family="Times,serif" font-size="14.00">AdminSurveysComponent</text>
</g>
<!-- SysAdminModule -->
<g id="node4" class="node">
<title>SysAdminModule</title>
<polygon fill="#8dd3c7" stroke="black" points="434.17,-187 431.17,-191 410.17,-191 407.17,-187 315.83,-187 315.83,-151 434.17,-151 434.17,-187"/>
<text text-anchor="middle" x="375" y="-164.8" font-family="Times,serif" font-size="14.00">SysAdminModule</text>
</g>
<!-- AdminSurveysComponent&#45;&gt;SysAdminModule -->
<g id="edge1" class="edge">
<title>AdminSurveysComponent&#45;&gt;SysAdminModule</title>
<path fill="none" stroke="black" d="M667,-122.11C667,-141.34 667,-169 667,-169 667,-169 444.44,-169 444.44,-169"/>
<polygon fill="black" stroke="black" points="444.44,-165.5 434.44,-169 444.44,-172.5 444.44,-165.5"/>
</g>
<!-- CommunityControlsComponent -->
<g id="node2" class="node">
<title>CommunityControlsComponent</title>
<polygon fill="#ffffb3" stroke="black" points="566.45,-122 369.55,-122 369.55,-86 566.45,-86 566.45,-122"/>
<text text-anchor="middle" x="468" y="-99.8" font-family="Times,serif" font-size="14.00">CommunityControlsComponent</text>
</g>
<!-- CommunityControlsComponent&#45;&gt;SysAdminModule -->
<g id="edge2" class="edge">
<title>CommunityControlsComponent&#45;&gt;SysAdminModule</title>
<path fill="none" stroke="black" d="M402.05,-122.11C402.05,-122.11 402.05,-140.99 402.05,-140.99"/>
<polygon fill="black" stroke="black" points="398.55,-140.99 402.05,-150.99 405.55,-140.99 398.55,-140.99"/>
</g>
<!-- SysAdminComponent -->
<g id="node3" class="node">
<title>SysAdminComponent</title>
<polygon fill="#ffffb3" stroke="black" points="352.45,-122 211.55,-122 211.55,-86 352.45,-86 352.45,-122"/>
<text text-anchor="middle" x="282" y="-99.8" font-family="Times,serif" font-size="14.00">SysAdminComponent</text>
</g>
<!-- SysAdminComponent&#45;&gt;SysAdminModule -->
<g id="edge3" class="edge">
<title>SysAdminComponent&#45;&gt;SysAdminModule</title>
<path fill="none" stroke="black" d="M333.95,-122.11C333.95,-122.11 333.95,-140.99 333.95,-140.99"/>
<polygon fill="black" stroke="black" points="330.45,-140.99 333.95,-150.99 337.45,-140.99 330.45,-140.99"/>
</g>
<!-- SysAdminRoutingModule -->
<g id="node5" class="node">
<title>SysAdminRoutingModule</title>
<polygon fill="#8dd3c7" stroke="black" points="187.78,-122 184.78,-126 163.78,-126 160.78,-122 24.22,-122 24.22,-86 187.78,-86 187.78,-122"/>
<text text-anchor="middle" x="106" y="-99.8" font-family="Times,serif" font-size="14.00">SysAdminRoutingModule</text>
</g>
<!-- SysAdminRoutingModule&#45;&gt;SysAdminModule -->
<g id="edge4" class="edge">
<title>SysAdminRoutingModule&#45;&gt;SysAdminModule</title>
<path fill="none" stroke="black" d="M106,-122.11C106,-141.34 106,-169 106,-169 106,-169 305.63,-169 305.63,-169"/>
<polygon fill="black" stroke="black" points="305.63,-172.5 315.63,-169 305.63,-165.5 305.63,-172.5"/>
</g>
</g>
</svg>
