<?xml version="1.0" encoding="UTF-8" standalone="no"?>
<!DOCTYPE svg PUBLIC "-//W3C//DTD SVG 1.1//EN"
 "http://www.w3.org/Graphics/SVG/1.1/DTD/svg11.dtd">
<!-- Generated by graphviz version 5.0.0 (20220707.1540)
 -->
<!-- Title: dependencies Pages: 1 -->
<svg width="3480pt" height="174pt"
 viewBox="0.00 0.00 3480.00 173.80" xmlns="http://www.w3.org/2000/svg" xmlns:xlink="http://www.w3.org/1999/xlink">
<g id="graph0" class="graph" transform="scale(1 1) rotate(0) translate(4 169.8)">
<title>dependencies</title>
<polygon fill="white" stroke="transparent" points="-4,4 -4,-169.8 3476,-169.8 3476,4 -4,4"/>
<text text-anchor="middle" x="1736" y="-8.2" font-family="sans-serif" font-size="14.00">dependencies</text>
<g id="clust1" class="cluster">
<title>cluster_SysAdminModule</title>
<polygon fill="none" stroke="black" stroke-dasharray="1,5" points="8,-32.8 8,-157.8 3464,-157.8 3464,-32.8 8,-32.8"/>
</g>
<g id="clust17" class="cluster">
<title>cluster_SysAdminModule_imports</title>
<polygon fill="none" stroke="black" points="2932,-40.8 2932,-92.8 3456,-92.8 3456,-40.8 2932,-40.8"/>
</g>
<g id="clust2" class="cluster">
<title>cluster_SysAdminModule_declarations</title>
<polygon fill="none" stroke="black" points="16,-40.8 16,-92.8 2924,-92.8 2924,-40.8 16,-40.8"/>
</g>
<!-- AdminBadgesAssignComponent -->
<g id="node1" class="node">
<title>AdminBadgesAssignComponent</title>
<polygon fill="#ffffb3" stroke="black" points="2916.33,-84.8 2715.67,-84.8 2715.67,-48.8 2916.33,-48.8 2916.33,-84.8"/>
<text text-anchor="middle" x="2816" y="-62.6" font-family="Times,serif" font-size="14.00">AdminBadgesAssignComponent</text>
</g>
<!-- SysAdminModule -->
<g id="node15" class="node">
<title>SysAdminModule</title>
<polygon fill="#8dd3c7" stroke="black" points="1819.18,-149.8 1816.18,-153.8 1795.18,-153.8 1792.18,-149.8 1700.82,-149.8 1700.82,-113.8 1819.18,-113.8 1819.18,-149.8"/>
<text text-anchor="middle" x="1760" y="-127.6" font-family="Times,serif" font-size="14.00">SysAdminModule</text>
</g>
<!-- AdminBadgesAssignComponent&#45;&gt;SysAdminModule -->
<g id="edge1" class="edge">
<title>AdminBadgesAssignComponent&#45;&gt;SysAdminModule</title>
<path fill="none" stroke="black" d="M2816,-85.11C2816,-104.95 2816,-133.8 2816,-133.8 2816,-133.8 1829.42,-133.8 1829.42,-133.8"/>
<polygon fill="black" stroke="black" points="1829.42,-130.3 1819.42,-133.8 1829.42,-137.3 1829.42,-130.3"/>
</g>
<!-- AdminBadgesComponent -->
<g id="node2" class="node">
<title>AdminBadgesComponent</title>
<polygon fill="#ffffb3" stroke="black" points="2697.94,-84.8 2536.06,-84.8 2536.06,-48.8 2697.94,-48.8 2697.94,-84.8"/>
<text text-anchor="middle" x="2617" y="-62.6" font-family="Times,serif" font-size="14.00">AdminBadgesComponent</text>
</g>
<!-- AdminBadgesComponent&#45;&gt;SysAdminModule -->
<g id="edge2" class="edge">
<title>AdminBadgesComponent&#45;&gt;SysAdminModule</title>
<path fill="none" stroke="black" d="M2617,-85.02C2617,-103.63 2617,-129.8 2617,-129.8 2617,-129.8 1829.24,-129.8 1829.24,-129.8"/>
<polygon fill="black" stroke="black" points="1829.24,-126.3 1819.24,-129.8 1829.24,-133.3 1829.24,-126.3"/>
</g>
<!-- AdminBadgesFormComponent -->
<g id="node3" class="node">
<title>AdminBadgesFormComponent</title>
<polygon fill="#ffffb3" stroke="black" points="2517.77,-84.8 2326.23,-84.8 2326.23,-48.8 2517.77,-48.8 2517.77,-84.8"/>
<text text-anchor="middle" x="2422" y="-62.6" font-family="Times,serif" font-size="14.00">AdminBadgesFormComponent</text>
</g>
<!-- AdminBadgesFormComponent&#45;&gt;SysAdminModule -->
<g id="edge3" class="edge">
<title>AdminBadgesFormComponent&#45;&gt;SysAdminModule</title>
<path fill="none" stroke="black" d="M2422,-84.82C2422,-102.17 2422,-125.8 2422,-125.8 2422,-125.8 1829.33,-125.8 1829.33,-125.8"/>
<polygon fill="black" stroke="black" points="1829.33,-122.3 1819.33,-125.8 1829.33,-129.3 1829.33,-122.3"/>
</g>
<!-- AdminBadgesListComponent -->
<g id="node4" class="node">
<title>AdminBadgesListComponent</title>
<polygon fill="#ffffb3" stroke="black" points="2308.71,-84.8 2125.29,-84.8 2125.29,-48.8 2308.71,-48.8 2308.71,-84.8"/>
<text text-anchor="middle" x="2217" y="-62.6" font-family="Times,serif" font-size="14.00">AdminBadgesListComponent</text>
</g>
<!-- AdminBadgesListComponent&#45;&gt;SysAdminModule -->
<g id="edge4" class="edge">
<title>AdminBadgesListComponent&#45;&gt;SysAdminModule</title>
<path fill="none" stroke="black" d="M2217,-84.81C2217,-100.85 2217,-121.8 2217,-121.8 2217,-121.8 1829.28,-121.8 1829.28,-121.8"/>
<polygon fill="black" stroke="black" points="1829.28,-118.3 1819.28,-121.8 1829.28,-125.3 1829.28,-118.3"/>
</g>
<!-- AdminFeaturedCommunitiesComponent -->
<g id="node5" class="node">
<title>AdminFeaturedCommunitiesComponent</title>
<polygon fill="#ffffb3" stroke="black" points="2107.15,-84.8 1862.85,-84.8 1862.85,-48.8 2107.15,-48.8 2107.15,-84.8"/>
<text text-anchor="middle" x="1985" y="-62.6" font-family="Times,serif" font-size="14.00">AdminFeaturedCommunitiesComponent</text>
</g>
<!-- AdminFeaturedCommunitiesComponent&#45;&gt;SysAdminModule -->
<g id="edge5" class="edge">
<title>AdminFeaturedCommunitiesComponent&#45;&gt;SysAdminModule</title>
<path fill="none" stroke="black" d="M1985,-84.92C1985,-99.58 1985,-117.8 1985,-117.8 1985,-117.8 1829.41,-117.8 1829.41,-117.8"/>
<polygon fill="black" stroke="black" points="1829.41,-114.3 1819.41,-117.8 1829.41,-121.3 1829.41,-114.3"/>
</g>
<!-- AdminPageAdsComponent -->
<g id="node6" class="node">
<title>AdminPageAdsComponent</title>
<polygon fill="#ffffb3" stroke="black" points="1844.99,-84.8 1675.01,-84.8 1675.01,-48.8 1844.99,-48.8 1844.99,-84.8"/>
<text text-anchor="middle" x="1760" y="-62.6" font-family="Times,serif" font-size="14.00">AdminPageAdsComponent</text>
</g>
<!-- AdminPageAdsComponent&#45;&gt;SysAdminModule -->
<g id="edge6" class="edge">
<title>AdminPageAdsComponent&#45;&gt;SysAdminModule</title>
<path fill="none" stroke="black" d="M1760,-84.91C1760,-84.91 1760,-103.79 1760,-103.79"/>
<polygon fill="black" stroke="black" points="1756.5,-103.79 1760,-113.79 1763.5,-103.79 1756.5,-103.79"/>
</g>
<!-- AdminPageAdsFormComponent -->
<g id="node7" class="node">
<title>AdminPageAdsFormComponent</title>
<polygon fill="#ffffb3" stroke="black" points="1657.33,-84.8 1456.67,-84.8 1456.67,-48.8 1657.33,-48.8 1657.33,-84.8"/>
<text text-anchor="middle" x="1557" y="-62.6" font-family="Times,serif" font-size="14.00">AdminPageAdsFormComponent</text>
</g>
<!-- AdminPageAdsFormComponent&#45;&gt;SysAdminModule -->
<g id="edge7" class="edge">
<title>AdminPageAdsFormComponent&#45;&gt;SysAdminModule</title>
<path fill="none" stroke="black" d="M1557,-84.92C1557,-99.58 1557,-117.8 1557,-117.8 1557,-117.8 1690.74,-117.8 1690.74,-117.8"/>
<polygon fill="black" stroke="black" points="1690.74,-121.3 1700.74,-117.8 1690.74,-114.3 1690.74,-121.3"/>
</g>
<!-- AdminPageAdsListComponent -->
<g id="node8" class="node">
<title>AdminPageAdsListComponent</title>
<polygon fill="#ffffb3" stroke="black" points="1438.77,-84.8 1247.23,-84.8 1247.23,-48.8 1438.77,-48.8 1438.77,-84.8"/>
<text text-anchor="middle" x="1343" y="-62.6" font-family="Times,serif" font-size="14.00">AdminPageAdsListComponent</text>
</g>
<!-- AdminPageAdsListComponent&#45;&gt;SysAdminModule -->
<g id="edge8" class="edge">
<title>AdminPageAdsListComponent&#45;&gt;SysAdminModule</title>
<path fill="none" stroke="black" d="M1343,-84.81C1343,-100.85 1343,-121.8 1343,-121.8 1343,-121.8 1690.7,-121.8 1690.7,-121.8"/>
<polygon fill="black" stroke="black" points="1690.7,-125.3 1700.7,-121.8 1690.7,-118.3 1690.7,-125.3"/>
</g>
<!-- AdminStaticAssetFormComponent -->
<g id="node9" class="node">
<title>AdminStaticAssetFormComponent</title>
<polygon fill="#ffffb3" stroke="black" points="1228.55,-84.8 1015.45,-84.8 1015.45,-48.8 1228.55,-48.8 1228.55,-84.8"/>
<text text-anchor="middle" x="1122" y="-62.6" font-family="Times,serif" font-size="14.00">AdminStaticAssetFormComponent</text>
</g>
<!-- AdminStaticAssetFormComponent&#45;&gt;SysAdminModule -->
<g id="edge9" class="edge">
<title>AdminStaticAssetFormComponent&#45;&gt;SysAdminModule</title>
<path fill="none" stroke="black" d="M1122,-84.82C1122,-102.17 1122,-125.8 1122,-125.8 1122,-125.8 1690.55,-125.8 1690.55,-125.8"/>
<polygon fill="black" stroke="black" points="1690.55,-129.3 1700.55,-125.8 1690.55,-122.3 1690.55,-129.3"/>
</g>
<!-- AdminStaticAssetsComponent -->
<g id="node10" class="node">
<title>AdminStaticAssetsComponent</title>
<polygon fill="#ffffb3" stroke="black" points="997.16,-84.8 808.84,-84.8 808.84,-48.8 997.16,-48.8 997.16,-84.8"/>
<text text-anchor="middle" x="903" y="-62.6" font-family="Times,serif" font-size="14.00">AdminStaticAssetsComponent</text>
</g>
<!-- AdminStaticAssetsComponent&#45;&gt;SysAdminModule -->
<g id="edge10" class="edge">
<title>AdminStaticAssetsComponent&#45;&gt;SysAdminModule</title>
<path fill="none" stroke="black" d="M903,-85.02C903,-103.63 903,-129.8 903,-129.8 903,-129.8 1690.76,-129.8 1690.76,-129.8"/>
<polygon fill="black" stroke="black" points="1690.76,-133.3 1700.76,-129.8 1690.76,-126.3 1690.76,-133.3"/>
</g>
<!-- AdminStaticAssetsListComponent -->
<g id="node11" class="node">
<title>AdminStaticAssetsListComponent</title>
<polygon fill="#ffffb3" stroke="black" points="790.44,-84.8 579.56,-84.8 579.56,-48.8 790.44,-48.8 790.44,-84.8"/>
<text text-anchor="middle" x="685" y="-62.6" font-family="Times,serif" font-size="14.00">AdminStaticAssetsListComponent</text>
</g>
<!-- AdminStaticAssetsListComponent&#45;&gt;SysAdminModule -->
<g id="edge11" class="edge">
<title>AdminStaticAssetsListComponent&#45;&gt;SysAdminModule</title>
<path fill="none" stroke="black" d="M685,-85.11C685,-104.95 685,-133.8 685,-133.8 685,-133.8 1690.67,-133.8 1690.67,-133.8"/>
<polygon fill="black" stroke="black" points="1690.67,-137.3 1700.67,-133.8 1690.67,-130.3 1690.67,-137.3"/>
</g>
<!-- AdminSurveysComponent -->
<g id="node12" class="node">
<title>AdminSurveysComponent</title>
<polygon fill="#ffffb3" stroke="black" points="561.83,-84.8 396.17,-84.8 396.17,-48.8 561.83,-48.8 561.83,-84.8"/>
<text text-anchor="middle" x="479" y="-62.6" font-family="Times,serif" font-size="14.00">AdminSurveysComponent</text>
</g>
<!-- AdminSurveysComponent&#45;&gt;SysAdminModule -->
<g id="edge12" class="edge">
<title>AdminSurveysComponent&#45;&gt;SysAdminModule</title>
<path fill="none" stroke="black" d="M479,-85.08C479,-106.12 479,-137.8 479,-137.8 479,-137.8 1690.78,-137.8 1690.78,-137.8"/>
<polygon fill="black" stroke="black" points="1690.78,-141.3 1700.78,-137.8 1690.78,-134.3 1690.78,-141.3"/>
</g>
<!-- CommunityControlsComponent -->
<g id="node13" class="node">
<title>CommunityControlsComponent</title>
<polygon fill="#ffffb3" stroke="black" points="378.46,-84.8 181.54,-84.8 181.54,-48.8 378.46,-48.8 378.46,-84.8"/>
<text text-anchor="middle" x="280" y="-62.6" font-family="Times,serif" font-size="14.00">CommunityControlsComponent</text>
</g>
<!-- CommunityControlsComponent&#45;&gt;SysAdminModule -->
<g id="edge13" class="edge">
<title>CommunityControlsComponent&#45;&gt;SysAdminModule</title>
<path fill="none" stroke="black" d="M280,-84.96C280,-107.15 280,-141.8 280,-141.8 280,-141.8 1690.61,-141.8 1690.61,-141.8"/>
<polygon fill="black" stroke="black" points="1690.61,-145.3 1700.61,-141.8 1690.61,-138.3 1690.61,-145.3"/>
</g>
<!-- SysAdminComponent -->
<g id="node14" class="node">
<title>SysAdminComponent</title>
<polygon fill="#ffffb3" stroke="black" points="164.46,-84.8 23.54,-84.8 23.54,-48.8 164.46,-48.8 164.46,-84.8"/>
<text text-anchor="middle" x="94" y="-62.6" font-family="Times,serif" font-size="14.00">SysAdminComponent</text>
</g>
<!-- SysAdminComponent&#45;&gt;SysAdminModule -->
<g id="edge14" class="edge">
<title>SysAdminComponent&#45;&gt;SysAdminModule</title>
<path fill="none" stroke="black" d="M94,-85.12C94,-108.46 94,-145.8 94,-145.8 94,-145.8 1690.71,-145.8 1690.71,-145.8"/>
<polygon fill="black" stroke="black" points="1690.71,-149.3 1700.71,-145.8 1690.71,-142.3 1690.71,-149.3"/>
</g>
<!-- MiniUserProfileModule -->
<g id="node16" class="node">
<title>MiniUserProfileModule</title>
<polygon fill="#8dd3c7" stroke="black" points="3447.82,-84.8 3444.82,-88.8 3423.82,-88.8 3420.82,-84.8 3296.18,-84.8 3296.18,-48.8 3447.82,-48.8 3447.82,-84.8"/>
<text text-anchor="middle" x="3372" y="-62.6" font-family="Times,serif" font-size="14.00">MiniUserProfileModule</text>
</g>
<!-- MiniUserProfileModule&#45;&gt;SysAdminModule -->
<g id="edge15" class="edge">
<title>MiniUserProfileModule&#45;&gt;SysAdminModule</title>
<path fill="none" stroke="black" d="M3372,-85.12C3372,-108.46 3372,-145.8 3372,-145.8 3372,-145.8 1829.28,-145.8 1829.28,-145.8"/>
<polygon fill="black" stroke="black" points="1829.28,-142.3 1819.28,-145.8 1829.28,-149.3 1829.28,-142.3"/>
</g>
<!-- SharedDirectivesModule -->
<g id="node17" class="node">
<title>SharedDirectivesModule</title>
<polygon fill="#8dd3c7" stroke="black" points="3277.96,-84.8 3274.96,-88.8 3253.96,-88.8 3250.96,-84.8 3122.04,-84.8 3122.04,-48.8 3277.96,-48.8 3277.96,-84.8"/>
<text text-anchor="middle" x="3200" y="-62.6" font-family="Times,serif" font-size="14.00">SharedDirectivesModule</text>
</g>
<!-- SharedDirectivesModule&#45;&gt;SysAdminModule -->
<g id="edge16" class="edge">
<title>SharedDirectivesModule&#45;&gt;SysAdminModule</title>
<path fill="none" stroke="black" d="M3200,-84.96C3200,-107.15 3200,-141.8 3200,-141.8 3200,-141.8 1829.59,-141.8 1829.59,-141.8"/>
<polygon fill="black" stroke="black" points="1829.59,-138.3 1819.59,-141.8 1829.59,-145.3 1829.59,-138.3"/>
</g>
<!-- SysAdminRoutingModule -->
<g id="node18" class="node">
<title>SysAdminRoutingModule</title>
<polygon fill="#8dd3c7" stroke="black" points="3103.79,-84.8 3100.79,-88.8 3079.79,-88.8 3076.79,-84.8 2940.21,-84.8 2940.21,-48.8 3103.79,-48.8 3103.79,-84.8"/>
<text text-anchor="middle" x="3022" y="-62.6" font-family="Times,serif" font-size="14.00">SysAdminRoutingModule</text>
</g>
<!-- SysAdminRoutingModule&#45;&gt;SysAdminModule -->
<g id="edge17" class="edge">
<title>SysAdminRoutingModule&#45;&gt;SysAdminModule</title>
<path fill="none" stroke="black" d="M3022,-85.08C3022,-106.12 3022,-137.8 3022,-137.8 3022,-137.8 1829.6,-137.8 1829.6,-137.8"/>
<polygon fill="black" stroke="black" points="1829.6,-134.3 1819.6,-137.8 1829.6,-141.3 1829.6,-134.3"/>
</g>
</g>
</svg>
