<?xml version="1.0" encoding="UTF-8" standalone="no"?>
<!DOCTYPE svg PUBLIC "-//W3C//DTD SVG 1.1//EN"
 "http://www.w3.org/Graphics/SVG/1.1/DTD/svg11.dtd">
<!-- Generated by graphviz version 2.47.3 (20210619.1520)
 -->
<!-- Title: dependencies Pages: 1 -->
<svg width="1834pt" height="174pt"
 viewBox="0.00 0.00 1834.00 173.80" xmlns="http://www.w3.org/2000/svg" xmlns:xlink="http://www.w3.org/1999/xlink">
<g id="graph0" class="graph" transform="scale(1 1) rotate(0) translate(4 169.8)">
<title>dependencies</title>
<polygon fill="white" stroke="transparent" points="-4,4 -4,-169.8 1830,-169.8 1830,4 -4,4"/>
<text text-anchor="middle" x="913" y="-8.2" font-family="sans-serif" font-size="14.00">dependencies</text>
<g id="clust1" class="cluster">
<title>cluster_SysAdminModule</title>
<polygon fill="none" stroke="black" stroke-dasharray="1,5" points="8,-32.8 8,-157.8 1818,-157.8 1818,-32.8 8,-32.8"/>
</g>
<g id="clust2" class="cluster">
<title>cluster_SysAdminModule_declarations</title>
<polygon fill="none" stroke="black" points="378,-40.8 378,-92.8 1810,-92.8 1810,-40.8 378,-40.8"/>
</g>
<g id="clust10" class="cluster">
<title>cluster_SysAdminModule_imports</title>
<polygon fill="none" stroke="black" points="16,-40.8 16,-92.8 370,-92.8 370,-40.8 16,-40.8"/>
</g>
<!-- AdminFeaturedCommunitiesComponent -->
<g id="node1" class="node">
<title>AdminFeaturedCommunitiesComponent</title>
<polygon fill="#ffffb3" stroke="black" points="1802.15,-84.8 1557.85,-84.8 1557.85,-48.8 1802.15,-48.8 1802.15,-84.8"/>
<text text-anchor="middle" x="1680" y="-62.6" font-family="Times,serif" font-size="14.00">AdminFeaturedCommunitiesComponent</text>
</g>
<!-- SysAdminModule -->
<g id="node8" class="node">
<title>SysAdminModule</title>
<polygon fill="#8dd3c7" stroke="black" points="900.17,-149.8 897.17,-153.8 876.17,-153.8 873.17,-149.8 781.83,-149.8 781.83,-113.8 900.17,-113.8 900.17,-149.8"/>
<text text-anchor="middle" x="841" y="-127.6" font-family="Times,serif" font-size="14.00">SysAdminModule</text>
</g>
<!-- AdminFeaturedCommunitiesComponent&#45;&gt;SysAdminModule -->
<g id="edge1" class="edge">
<title>AdminFeaturedCommunitiesComponent&#45;&gt;SysAdminModule</title>
<path fill="none" stroke="black" d="M1680,-84.81C1680,-107.29 1680,-142.8 1680,-142.8 1680,-142.8 910.33,-142.8 910.33,-142.8"/>
<polygon fill="black" stroke="black" points="910.33,-139.3 900.33,-142.8 910.33,-146.3 910.33,-139.3"/>
</g>
<!-- AdminPageAdsComponent -->
<g id="node2" class="node">
<title>AdminPageAdsComponent</title>
<polygon fill="#ffffb3" stroke="black" points="1539.98,-84.8 1370.02,-84.8 1370.02,-48.8 1539.98,-48.8 1539.98,-84.8"/>
<text text-anchor="middle" x="1455" y="-62.6" font-family="Times,serif" font-size="14.00">AdminPageAdsComponent</text>
</g>
<!-- AdminPageAdsComponent&#45;&gt;SysAdminModule -->
<g id="edge2" class="edge">
<title>AdminPageAdsComponent&#45;&gt;SysAdminModule</title>
<path fill="none" stroke="black" d="M1455,-84.93C1455,-105.37 1455,-135.8 1455,-135.8 1455,-135.8 910.43,-135.8 910.43,-135.8"/>
<polygon fill="black" stroke="black" points="910.43,-132.3 900.43,-135.8 910.43,-139.3 910.43,-132.3"/>
</g>
<!-- AdminPageAdsFormComponent -->
<g id="node3" class="node">
<title>AdminPageAdsFormComponent</title>
<polygon fill="#ffffb3" stroke="black" points="1352.32,-84.8 1151.68,-84.8 1151.68,-48.8 1352.32,-48.8 1352.32,-84.8"/>
<text text-anchor="middle" x="1252" y="-62.6" font-family="Times,serif" font-size="14.00">AdminPageAdsFormComponent</text>
</g>
<!-- AdminPageAdsFormComponent&#45;&gt;SysAdminModule -->
<g id="edge3" class="edge">
<title>AdminPageAdsFormComponent&#45;&gt;SysAdminModule</title>
<path fill="none" stroke="black" d="M1252,-85.07C1252,-103.36 1252,-128.8 1252,-128.8 1252,-128.8 910.32,-128.8 910.32,-128.8"/>
<polygon fill="black" stroke="black" points="910.32,-125.3 900.32,-128.8 910.32,-132.3 910.32,-125.3"/>
</g>
<!-- AdminPageAdsListComponent -->
<g id="node4" class="node">
<title>AdminPageAdsListComponent</title>
<polygon fill="#ffffb3" stroke="black" points="1133.76,-84.8 942.24,-84.8 942.24,-48.8 1133.76,-48.8 1133.76,-84.8"/>
<text text-anchor="middle" x="1038" y="-62.6" font-family="Times,serif" font-size="14.00">AdminPageAdsListComponent</text>
</g>
<!-- AdminPageAdsListComponent&#45;&gt;SysAdminModule -->
<g id="edge4" class="edge">
<title>AdminPageAdsListComponent&#45;&gt;SysAdminModule</title>
<path fill="none" stroke="black" d="M1038,-84.81C1038,-100.85 1038,-121.8 1038,-121.8 1038,-121.8 910.37,-121.8 910.37,-121.8"/>
<polygon fill="black" stroke="black" points="910.37,-118.3 900.37,-121.8 910.37,-125.3 910.37,-118.3"/>
</g>
<!-- AdminSurveysComponent -->
<g id="node5" class="node">
<title>AdminSurveysComponent</title>
<polygon fill="#ffffb3" stroke="black" points="923.82,-84.8 758.18,-84.8 758.18,-48.8 923.82,-48.8 923.82,-84.8"/>
<text text-anchor="middle" x="841" y="-62.6" font-family="Times,serif" font-size="14.00">AdminSurveysComponent</text>
</g>
<!-- AdminSurveysComponent&#45;&gt;SysAdminModule -->
<g id="edge5" class="edge">
<title>AdminSurveysComponent&#45;&gt;SysAdminModule</title>
<path fill="none" stroke="black" d="M841,-84.91C841,-84.91 841,-103.79 841,-103.79"/>
<polygon fill="black" stroke="black" points="837.5,-103.79 841,-113.79 844.5,-103.79 837.5,-103.79"/>
</g>
<!-- CommunityControlsComponent -->
<g id="node6" class="node">
<title>CommunityControlsComponent</title>
<polygon fill="#ffffb3" stroke="black" points="740.45,-84.8 543.55,-84.8 543.55,-48.8 740.45,-48.8 740.45,-84.8"/>
<text text-anchor="middle" x="642" y="-62.6" font-family="Times,serif" font-size="14.00">CommunityControlsComponent</text>
</g>
<!-- CommunityControlsComponent&#45;&gt;SysAdminModule -->
<g id="edge6" class="edge">
<title>CommunityControlsComponent&#45;&gt;SysAdminModule</title>
<path fill="none" stroke="black" d="M642,-84.81C642,-100.85 642,-121.8 642,-121.8 642,-121.8 771.83,-121.8 771.83,-121.8"/>
<polygon fill="black" stroke="black" points="771.83,-125.3 781.83,-121.8 771.83,-118.3 771.83,-125.3"/>
</g>
<!-- SysAdminComponent -->
<g id="node7" class="node">
<title>SysAdminComponent</title>
<polygon fill="#ffffb3" stroke="black" points="526.45,-84.8 385.55,-84.8 385.55,-48.8 526.45,-48.8 526.45,-84.8"/>
<text text-anchor="middle" x="456" y="-62.6" font-family="Times,serif" font-size="14.00">SysAdminComponent</text>
</g>
<!-- SysAdminComponent&#45;&gt;SysAdminModule -->
<g id="edge7" class="edge">
<title>SysAdminComponent&#45;&gt;SysAdminModule</title>
<path fill="none" stroke="black" d="M456,-85.07C456,-103.36 456,-128.8 456,-128.8 456,-128.8 771.69,-128.8 771.69,-128.8"/>
<polygon fill="black" stroke="black" points="771.69,-132.3 781.69,-128.8 771.69,-125.3 771.69,-132.3"/>
</g>
<!-- SharedDirectivesModule -->
<g id="node9" class="node">
<title>SharedDirectivesModule</title>
<polygon fill="#8dd3c7" stroke="black" points="361.95,-84.8 358.95,-88.8 337.95,-88.8 334.95,-84.8 206.05,-84.8 206.05,-48.8 361.95,-48.8 361.95,-84.8"/>
<text text-anchor="middle" x="284" y="-62.6" font-family="Times,serif" font-size="14.00">SharedDirectivesModule</text>
</g>
<!-- SharedDirectivesModule&#45;&gt;SysAdminModule -->
<g id="edge8" class="edge">
<title>SharedDirectivesModule&#45;&gt;SysAdminModule</title>
<path fill="none" stroke="black" d="M284,-84.93C284,-105.37 284,-135.8 284,-135.8 284,-135.8 771.66,-135.8 771.66,-135.8"/>
<polygon fill="black" stroke="black" points="771.66,-139.3 781.66,-135.8 771.66,-132.3 771.66,-139.3"/>
</g>
<!-- SysAdminRoutingModule -->
<g id="node10" class="node">
<title>SysAdminRoutingModule</title>
<polygon fill="#8dd3c7" stroke="black" points="187.78,-84.8 184.78,-88.8 163.78,-88.8 160.78,-84.8 24.22,-84.8 24.22,-48.8 187.78,-48.8 187.78,-84.8"/>
<text text-anchor="middle" x="106" y="-62.6" font-family="Times,serif" font-size="14.00">SysAdminRoutingModule</text>
</g>
<!-- SysAdminRoutingModule&#45;&gt;SysAdminModule -->
<g id="edge9" class="edge">
<title>SysAdminRoutingModule&#45;&gt;SysAdminModule</title>
<path fill="none" stroke="black" d="M106,-84.81C106,-107.29 106,-142.8 106,-142.8 106,-142.8 771.78,-142.8 771.78,-142.8"/>
<polygon fill="black" stroke="black" points="771.78,-146.3 781.78,-142.8 771.78,-139.3 771.78,-146.3"/>
</g>
</g>
</svg>
