<?xml version="1.0" encoding="UTF-8" standalone="no"?>
<!DOCTYPE svg PUBLIC "-//W3C//DTD SVG 1.1//EN"
 "http://www.w3.org/Graphics/SVG/1.1/DTD/svg11.dtd">
<!-- Generated by graphviz version 2.47.3 (20210619.1520)
 -->
<!-- Title: dependencies Pages: 1 -->
<svg width="2643pt" height="174pt"
 viewBox="0.00 0.00 2643.00 173.80" xmlns="http://www.w3.org/2000/svg" xmlns:xlink="http://www.w3.org/1999/xlink">
<g id="graph0" class="graph" transform="scale(1 1) rotate(0) translate(4 169.8)">
<title>dependencies</title>
<polygon fill="white" stroke="transparent" points="-4,4 -4,-169.8 2639,-169.8 2639,4 -4,4"/>
<text text-anchor="middle" x="1317.5" y="-8.2" font-family="sans-serif" font-size="14.00">dependencies</text>
<g id="clust1" class="cluster">
<title>cluster_SysAdminModule</title>
<polygon fill="none" stroke="black" stroke-dasharray="1,5" points="8,-32.8 8,-157.8 2627,-157.8 2627,-32.8 8,-32.8"/>
</g>
<g id="clust2" class="cluster">
<title>cluster_SysAdminModule_declarations</title>
<polygon fill="none" stroke="black" points="378,-40.8 378,-92.8 2619,-92.8 2619,-40.8 378,-40.8"/>
</g>
<g id="clust14" class="cluster">
<title>cluster_SysAdminModule_imports</title>
<polygon fill="none" stroke="black" points="16,-40.8 16,-92.8 370,-92.8 370,-40.8 16,-40.8"/>
</g>
<!-- AdminBadgesAssignComponent -->
<g id="node1" class="node">
<title>AdminBadgesAssignComponent</title>
<polygon fill="#ffffb3" stroke="black" points="2611.32,-84.8 2410.68,-84.8 2410.68,-48.8 2611.32,-48.8 2611.32,-84.8"/>
<text text-anchor="middle" x="2511" y="-62.6" font-family="Times,serif" font-size="14.00">AdminBadgesAssignComponent</text>
</g>
<!-- SysAdminModule -->
<g id="node12" class="node">
<title>SysAdminModule</title>
<polygon fill="#8dd3c7" stroke="black" points="1311.17,-149.8 1308.17,-153.8 1287.17,-153.8 1284.17,-149.8 1192.83,-149.8 1192.83,-113.8 1311.17,-113.8 1311.17,-149.8"/>
<text text-anchor="middle" x="1252" y="-127.6" font-family="Times,serif" font-size="14.00">SysAdminModule</text>
</g>
<!-- AdminBadgesAssignComponent&#45;&gt;SysAdminModule -->
<g id="edge1" class="edge">
<title>AdminBadgesAssignComponent&#45;&gt;SysAdminModule</title>
<path fill="none" stroke="black" d="M2511,-84.89C2511,-107.93 2511,-144.8 2511,-144.8 2511,-144.8 1321.46,-144.8 1321.46,-144.8"/>
<polygon fill="black" stroke="black" points="1321.46,-141.3 1311.46,-144.8 1321.46,-148.3 1321.46,-141.3"/>
</g>
<!-- AdminBadgesComponent -->
<g id="node2" class="node">
<title>AdminBadgesComponent</title>
<polygon fill="#ffffb3" stroke="black" points="2392.93,-84.8 2231.07,-84.8 2231.07,-48.8 2392.93,-48.8 2392.93,-84.8"/>
<text text-anchor="middle" x="2312" y="-62.6" font-family="Times,serif" font-size="14.00">AdminBadgesComponent</text>
</g>
<!-- AdminBadgesComponent&#45;&gt;SysAdminModule -->
<g id="edge2" class="edge">
<title>AdminBadgesComponent&#45;&gt;SysAdminModule</title>
<path fill="none" stroke="black" d="M2312,-84.84C2312,-106.46 2312,-139.8 2312,-139.8 2312,-139.8 1321.26,-139.8 1321.26,-139.8"/>
<polygon fill="black" stroke="black" points="1321.26,-136.3 1311.26,-139.8 1321.26,-143.3 1321.26,-136.3"/>
</g>
<!-- AdminBadgesFormComponent -->
<g id="node3" class="node">
<title>AdminBadgesFormComponent</title>
<polygon fill="#ffffb3" stroke="black" points="2212.76,-84.8 2021.24,-84.8 2021.24,-48.8 2212.76,-48.8 2212.76,-84.8"/>
<text text-anchor="middle" x="2117" y="-62.6" font-family="Times,serif" font-size="14.00">AdminBadgesFormComponent</text>
</g>
<!-- AdminBadgesFormComponent&#45;&gt;SysAdminModule -->
<g id="edge3" class="edge">
<title>AdminBadgesFormComponent&#45;&gt;SysAdminModule</title>
<path fill="none" stroke="black" d="M2117,-85.02C2117,-105.17 2117,-134.8 2117,-134.8 2117,-134.8 1321.45,-134.8 1321.45,-134.8"/>
<polygon fill="black" stroke="black" points="1321.45,-131.3 1311.45,-134.8 1321.45,-138.3 1321.45,-131.3"/>
</g>
<!-- AdminBadgesListComponent -->
<g id="node4" class="node">
<title>AdminBadgesListComponent</title>
<polygon fill="#ffffb3" stroke="black" points="2003.71,-84.8 1820.29,-84.8 1820.29,-48.8 2003.71,-48.8 2003.71,-84.8"/>
<text text-anchor="middle" x="1912" y="-62.6" font-family="Times,serif" font-size="14.00">AdminBadgesListComponent</text>
</g>
<!-- AdminBadgesListComponent&#45;&gt;SysAdminModule -->
<g id="edge4" class="edge">
<title>AdminBadgesListComponent&#45;&gt;SysAdminModule</title>
<path fill="none" stroke="black" d="M1912,-85.02C1912,-103.63 1912,-129.8 1912,-129.8 1912,-129.8 1321.44,-129.8 1321.44,-129.8"/>
<polygon fill="black" stroke="black" points="1321.44,-126.3 1311.44,-129.8 1321.44,-133.3 1321.44,-126.3"/>
</g>
<!-- AdminFeaturedCommunitiesComponent -->
<g id="node5" class="node">
<title>AdminFeaturedCommunitiesComponent</title>
<polygon fill="#ffffb3" stroke="black" points="1802.15,-84.8 1557.85,-84.8 1557.85,-48.8 1802.15,-48.8 1802.15,-84.8"/>
<text text-anchor="middle" x="1680" y="-62.6" font-family="Times,serif" font-size="14.00">AdminFeaturedCommunitiesComponent</text>
</g>
<!-- AdminFeaturedCommunitiesComponent&#45;&gt;SysAdminModule -->
<g id="edge5" class="edge">
<title>AdminFeaturedCommunitiesComponent&#45;&gt;SysAdminModule</title>
<path fill="none" stroke="black" d="M1680,-84.83C1680,-101.86 1680,-124.8 1680,-124.8 1680,-124.8 1321.51,-124.8 1321.51,-124.8"/>
<polygon fill="black" stroke="black" points="1321.51,-121.3 1311.51,-124.8 1321.51,-128.3 1321.51,-121.3"/>
</g>
<!-- AdminPageAdsComponent -->
<g id="node6" class="node">
<title>AdminPageAdsComponent</title>
<polygon fill="#ffffb3" stroke="black" points="1539.98,-84.8 1370.02,-84.8 1370.02,-48.8 1539.98,-48.8 1539.98,-84.8"/>
<text text-anchor="middle" x="1455" y="-62.6" font-family="Times,serif" font-size="14.00">AdminPageAdsComponent</text>
</g>
<!-- AdminPageAdsComponent&#45;&gt;SysAdminModule -->
<g id="edge6" class="edge">
<title>AdminPageAdsComponent&#45;&gt;SysAdminModule</title>
<path fill="none" stroke="black" d="M1455,-85.04C1455,-100.37 1455,-119.8 1455,-119.8 1455,-119.8 1321.26,-119.8 1321.26,-119.8"/>
<polygon fill="black" stroke="black" points="1321.26,-116.3 1311.26,-119.8 1321.26,-123.3 1321.26,-116.3"/>
</g>
<!-- AdminPageAdsFormComponent -->
<g id="node7" class="node">
<title>AdminPageAdsFormComponent</title>
<polygon fill="#ffffb3" stroke="black" points="1352.32,-84.8 1151.68,-84.8 1151.68,-48.8 1352.32,-48.8 1352.32,-84.8"/>
<text text-anchor="middle" x="1252" y="-62.6" font-family="Times,serif" font-size="14.00">AdminPageAdsFormComponent</text>
</g>
<!-- AdminPageAdsFormComponent&#45;&gt;SysAdminModule -->
<g id="edge7" class="edge">
<title>AdminPageAdsFormComponent&#45;&gt;SysAdminModule</title>
<path fill="none" stroke="black" d="M1252,-84.91C1252,-84.91 1252,-103.79 1252,-103.79"/>
<polygon fill="black" stroke="black" points="1248.5,-103.79 1252,-113.79 1255.5,-103.79 1248.5,-103.79"/>
</g>
<!-- AdminPageAdsListComponent -->
<g id="node8" class="node">
<title>AdminPageAdsListComponent</title>
<polygon fill="#ffffb3" stroke="black" points="1133.76,-84.8 942.24,-84.8 942.24,-48.8 1133.76,-48.8 1133.76,-84.8"/>
<text text-anchor="middle" x="1038" y="-62.6" font-family="Times,serif" font-size="14.00">AdminPageAdsListComponent</text>
</g>
<!-- AdminPageAdsListComponent&#45;&gt;SysAdminModule -->
<g id="edge8" class="edge">
<title>AdminPageAdsListComponent&#45;&gt;SysAdminModule</title>
<path fill="none" stroke="black" d="M1038,-85.04C1038,-100.37 1038,-119.8 1038,-119.8 1038,-119.8 1182.67,-119.8 1182.67,-119.8"/>
<polygon fill="black" stroke="black" points="1182.67,-123.3 1192.67,-119.8 1182.67,-116.3 1182.67,-123.3"/>
</g>
<!-- AdminSurveysComponent -->
<g id="node9" class="node">
<title>AdminSurveysComponent</title>
<polygon fill="#ffffb3" stroke="black" points="923.82,-84.8 758.18,-84.8 758.18,-48.8 923.82,-48.8 923.82,-84.8"/>
<text text-anchor="middle" x="841" y="-62.6" font-family="Times,serif" font-size="14.00">AdminSurveysComponent</text>
</g>
<!-- AdminSurveysComponent&#45;&gt;SysAdminModule -->
<g id="edge9" class="edge">
<title>AdminSurveysComponent&#45;&gt;SysAdminModule</title>
<path fill="none" stroke="black" d="M841,-84.83C841,-101.86 841,-124.8 841,-124.8 841,-124.8 1182.68,-124.8 1182.68,-124.8"/>
<polygon fill="black" stroke="black" points="1182.68,-128.3 1192.68,-124.8 1182.68,-121.3 1182.68,-128.3"/>
</g>
<!-- CommunityControlsComponent -->
<g id="node10" class="node">
<title>CommunityControlsComponent</title>
<polygon fill="#ffffb3" stroke="black" points="740.45,-84.8 543.55,-84.8 543.55,-48.8 740.45,-48.8 740.45,-84.8"/>
<text text-anchor="middle" x="642" y="-62.6" font-family="Times,serif" font-size="14.00">CommunityControlsComponent</text>
</g>
<!-- CommunityControlsComponent&#45;&gt;SysAdminModule -->
<g id="edge10" class="edge">
<title>CommunityControlsComponent&#45;&gt;SysAdminModule</title>
<path fill="none" stroke="black" d="M642,-85.02C642,-103.63 642,-129.8 642,-129.8 642,-129.8 1182.68,-129.8 1182.68,-129.8"/>
<polygon fill="black" stroke="black" points="1182.68,-133.3 1192.68,-129.8 1182.68,-126.3 1182.68,-133.3"/>
</g>
<!-- SysAdminComponent -->
<g id="node11" class="node">
<title>SysAdminComponent</title>
<polygon fill="#ffffb3" stroke="black" points="526.45,-84.8 385.55,-84.8 385.55,-48.8 526.45,-48.8 526.45,-84.8"/>
<text text-anchor="middle" x="456" y="-62.6" font-family="Times,serif" font-size="14.00">SysAdminComponent</text>
</g>
<!-- SysAdminComponent&#45;&gt;SysAdminModule -->
<g id="edge11" class="edge">
<title>SysAdminComponent&#45;&gt;SysAdminModule</title>
<path fill="none" stroke="black" d="M456,-85.02C456,-105.17 456,-134.8 456,-134.8 456,-134.8 1182.82,-134.8 1182.82,-134.8"/>
<polygon fill="black" stroke="black" points="1182.82,-138.3 1192.82,-134.8 1182.82,-131.3 1182.82,-138.3"/>
</g>
<!-- SharedDirectivesModule -->
<g id="node13" class="node">
<title>SharedDirectivesModule</title>
<polygon fill="#8dd3c7" stroke="black" points="361.95,-84.8 358.95,-88.8 337.95,-88.8 334.95,-84.8 206.05,-84.8 206.05,-48.8 361.95,-48.8 361.95,-84.8"/>
<text text-anchor="middle" x="284" y="-62.6" font-family="Times,serif" font-size="14.00">SharedDirectivesModule</text>
</g>
<!-- SharedDirectivesModule&#45;&gt;SysAdminModule -->
<g id="edge12" class="edge">
<title>SharedDirectivesModule&#45;&gt;SysAdminModule</title>
<path fill="none" stroke="black" d="M284,-84.84C284,-106.46 284,-139.8 284,-139.8 284,-139.8 1182.54,-139.8 1182.54,-139.8"/>
<polygon fill="black" stroke="black" points="1182.54,-143.3 1192.54,-139.8 1182.54,-136.3 1182.54,-143.3"/>
</g>
<!-- SysAdminRoutingModule -->
<g id="node14" class="node">
<title>SysAdminRoutingModule</title>
<polygon fill="#8dd3c7" stroke="black" points="187.78,-84.8 184.78,-88.8 163.78,-88.8 160.78,-84.8 24.22,-84.8 24.22,-48.8 187.78,-48.8 187.78,-84.8"/>
<text text-anchor="middle" x="106" y="-62.6" font-family="Times,serif" font-size="14.00">SysAdminRoutingModule</text>
</g>
<!-- SysAdminRoutingModule&#45;&gt;SysAdminModule -->
<g id="edge13" class="edge">
<title>SysAdminRoutingModule&#45;&gt;SysAdminModule</title>
<path fill="none" stroke="black" d="M106,-84.89C106,-107.93 106,-144.8 106,-144.8 106,-144.8 1182.8,-144.8 1182.8,-144.8"/>
<polygon fill="black" stroke="black" points="1182.8,-148.3 1192.8,-144.8 1182.8,-141.3 1182.8,-148.3"/>
</g>
</g>
</svg>
