<?xml version="1.0" encoding="UTF-8" standalone="no"?>
<!DOCTYPE svg PUBLIC "-//W3C//DTD SVG 1.1//EN"
 "http://www.w3.org/Graphics/SVG/1.1/DTD/svg11.dtd">
<!-- Generated by graphviz version 2.47.3 (20210619.1520)
 -->
<!-- Title: dependencies Pages: 1 -->
<svg width="1706pt" height="247pt"
 viewBox="0.00 0.00 1706.00 246.80" xmlns="http://www.w3.org/2000/svg" xmlns:xlink="http://www.w3.org/1999/xlink">
<g id="graph0" class="graph" transform="scale(1 1) rotate(0) translate(4 242.8)">
<title>dependencies</title>
<polygon fill="white" stroke="transparent" points="-4,4 -4,-242.8 1702,-242.8 1702,4 -4,4"/>
<text text-anchor="middle" x="849" y="-8.2" font-family="sans-serif" font-size="14.00">dependencies</text>
<g id="clust1" class="cluster">
<title>cluster_PublicCommunityModule</title>
<polygon fill="none" stroke="black" stroke-dasharray="1,5" points="8,-32.8 8,-230.8 1690,-230.8 1690,-32.8 8,-32.8"/>
</g>
<g id="clust2" class="cluster">
<title>cluster_PublicCommunityModule_declarations</title>
<polygon fill="none" stroke="black" points="422,-40.8 422,-92.8 1682,-92.8 1682,-40.8 422,-40.8"/>
</g>
<g id="clust10" class="cluster">
<title>cluster_PublicCommunityModule_imports</title>
<polygon fill="none" stroke="black" points="16,-40.8 16,-92.8 414,-92.8 414,-40.8 16,-40.8"/>
</g>
<g id="clust11" class="cluster">
<title>cluster_PublicCommunityModule_exports</title>
<polygon fill="none" stroke="black" points="742,-170.8 742,-222.8 954,-222.8 954,-170.8 742,-170.8"/>
</g>
<!-- CommunityChannelsListComponent -->
<g id="node1" class="node">
<title>CommunityChannelsListComponent</title>
<polygon fill="#ffffb3" stroke="black" points="1674.11,-84.8 1451.89,-84.8 1451.89,-48.8 1674.11,-48.8 1674.11,-84.8"/>
<text text-anchor="middle" x="1563" y="-62.6" font-family="Times,serif" font-size="14.00">CommunityChannelsListComponent</text>
</g>
<!-- PublicCommunityModule -->
<g id="node8" class="node">
<title>PublicCommunityModule</title>
<polygon fill="#8dd3c7" stroke="black" points="929.23,-149.8 926.23,-153.8 905.23,-153.8 902.23,-149.8 766.77,-149.8 766.77,-113.8 929.23,-113.8 929.23,-149.8"/>
<text text-anchor="middle" x="848" y="-127.6" font-family="Times,serif" font-size="14.00">PublicCommunityModule</text>
</g>
<!-- CommunityChannelsListComponent&#45;&gt;PublicCommunityModule -->
<g id="edge1" class="edge">
<title>CommunityChannelsListComponent&#45;&gt;PublicCommunityModule</title>
<path fill="none" stroke="black" d="M1563,-84.81C1563,-107.29 1563,-142.8 1563,-142.8 1563,-142.8 939.32,-142.8 939.32,-142.8"/>
<polygon fill="black" stroke="black" points="939.32,-139.3 929.32,-142.8 939.32,-146.3 939.32,-139.3"/>
</g>
<!-- EventsComponent -->
<g id="node2" class="node">
<title>EventsComponent</title>
<polygon fill="#ffffb3" stroke="black" points="1433.94,-84.8 1314.06,-84.8 1314.06,-48.8 1433.94,-48.8 1433.94,-84.8"/>
<text text-anchor="middle" x="1374" y="-62.6" font-family="Times,serif" font-size="14.00">EventsComponent</text>
</g>
<!-- EventsComponent&#45;&gt;PublicCommunityModule -->
<g id="edge2" class="edge">
<title>EventsComponent&#45;&gt;PublicCommunityModule</title>
<path fill="none" stroke="black" d="M1374,-84.93C1374,-105.37 1374,-135.8 1374,-135.8 1374,-135.8 939.32,-135.8 939.32,-135.8"/>
<polygon fill="black" stroke="black" points="939.32,-132.3 929.32,-135.8 939.32,-139.3 939.32,-132.3"/>
</g>
<!-- HomeCommunityComponent -->
<g id="node3" class="node">
<title>HomeCommunityComponent</title>
<polygon fill="#ffffb3" stroke="black" points="1296.44,-84.8 1113.56,-84.8 1113.56,-48.8 1296.44,-48.8 1296.44,-84.8"/>
<text text-anchor="middle" x="1205" y="-62.6" font-family="Times,serif" font-size="14.00">HomeCommunityComponent</text>
</g>
<!-- HomeCommunityComponent&#45;&gt;PublicCommunityModule -->
<g id="edge3" class="edge">
<title>HomeCommunityComponent&#45;&gt;PublicCommunityModule</title>
<path fill="none" stroke="black" d="M1205,-85.07C1205,-103.36 1205,-128.8 1205,-128.8 1205,-128.8 939.46,-128.8 939.46,-128.8"/>
<polygon fill="black" stroke="black" points="939.46,-125.3 929.46,-128.8 939.46,-132.3 939.46,-125.3"/>
</g>
<!-- MembersComponent -->
<g id="node4" class="node">
<title>MembersComponent</title>
<polygon fill="#ffffb3" stroke="black" points="1096.2,-84.8 961.8,-84.8 961.8,-48.8 1096.2,-48.8 1096.2,-84.8"/>
<text text-anchor="middle" x="1029" y="-62.6" font-family="Times,serif" font-size="14.00">MembersComponent</text>
</g>
<!-- MembersComponent&#45;&gt;PublicCommunityModule -->
<g id="edge4" class="edge">
<title>MembersComponent&#45;&gt;PublicCommunityModule</title>
<path fill="none" stroke="black" d="M1029,-84.81C1029,-100.85 1029,-121.8 1029,-121.8 1029,-121.8 939.23,-121.8 939.23,-121.8"/>
<polygon fill="black" stroke="black" points="939.23,-118.3 929.23,-121.8 939.23,-125.3 939.23,-118.3"/>
</g>
<!-- MembershipToggleComponent -->
<g id="node5" class="node">
<title>MembershipToggleComponent</title>
<polygon fill="#ffffb3" stroke="black" points="943.75,-84.8 752.25,-84.8 752.25,-48.8 943.75,-48.8 943.75,-84.8"/>
<text text-anchor="middle" x="848" y="-62.6" font-family="Times,serif" font-size="14.00">MembershipToggleComponent</text>
</g>
<!-- MembershipToggleComponent&#45;&gt;PublicCommunityModule -->
<g id="edge5" class="edge">
<title>MembershipToggleComponent&#45;&gt;PublicCommunityModule</title>
<path fill="none" stroke="black" d="M848,-84.91C848,-84.91 848,-103.79 848,-103.79"/>
<polygon fill="black" stroke="black" points="844.5,-103.79 848,-113.79 851.5,-103.79 844.5,-103.79"/>
</g>
<!-- SpeakerCardComponent -->
<g id="node6" class="node">
<title>SpeakerCardComponent</title>
<polygon fill="#ffffb3" stroke="black" points="733.63,-84.8 580.37,-84.8 580.37,-48.8 733.63,-48.8 733.63,-84.8"/>
<text text-anchor="middle" x="657" y="-62.6" font-family="Times,serif" font-size="14.00">SpeakerCardComponent</text>
</g>
<!-- SpeakerCardComponent&#45;&gt;PublicCommunityModule -->
<g id="edge6" class="edge">
<title>SpeakerCardComponent&#45;&gt;PublicCommunityModule</title>
<path fill="none" stroke="black" d="M657,-84.81C657,-100.85 657,-121.8 657,-121.8 657,-121.8 756.72,-121.8 756.72,-121.8"/>
<polygon fill="black" stroke="black" points="756.72,-125.3 766.72,-121.8 756.72,-118.3 756.72,-125.3"/>
</g>
<!-- SpeakersComponent -->
<g id="node7" class="node">
<title>SpeakersComponent</title>
<polygon fill="#ffffb3" stroke="black" points="561.86,-84.8 430.14,-84.8 430.14,-48.8 561.86,-48.8 561.86,-84.8"/>
<text text-anchor="middle" x="496" y="-62.6" font-family="Times,serif" font-size="14.00">SpeakersComponent</text>
</g>
<!-- SpeakersComponent&#45;&gt;PublicCommunityModule -->
<g id="edge7" class="edge">
<title>SpeakersComponent&#45;&gt;PublicCommunityModule</title>
<path fill="none" stroke="black" d="M496,-85.07C496,-103.36 496,-128.8 496,-128.8 496,-128.8 756.8,-128.8 756.8,-128.8"/>
<polygon fill="black" stroke="black" points="756.8,-132.3 766.8,-128.8 756.8,-125.3 756.8,-132.3"/>
</g>
<!-- MembershipToggleComponent  -->
<g id="node11" class="node">
<title>MembershipToggleComponent </title>
<polygon fill="#fb8072" stroke="black" points="945.75,-214.8 750.25,-214.8 750.25,-178.8 945.75,-178.8 945.75,-214.8"/>
<text text-anchor="middle" x="848" y="-192.6" font-family="Times,serif" font-size="14.00">MembershipToggleComponent </text>
</g>
<!-- PublicCommunityModule&#45;&gt;MembershipToggleComponent  -->
<g id="edge10" class="edge">
<title>PublicCommunityModule&#45;&gt;MembershipToggleComponent </title>
<path fill="none" stroke="black" stroke-dasharray="5,2" d="M848,-149.91C848,-149.91 848,-168.79 848,-168.79"/>
<polygon fill="black" stroke="black" points="844.5,-168.79 848,-178.79 851.5,-168.79 844.5,-168.79"/>
</g>
<!-- PublicCommunityRoutingModule -->
<g id="node9" class="node">
<title>PublicCommunityRoutingModule</title>
<polygon fill="#8dd3c7" stroke="black" points="405.85,-84.8 402.85,-88.8 381.85,-88.8 378.85,-84.8 198.15,-84.8 198.15,-48.8 405.85,-48.8 405.85,-84.8"/>
<text text-anchor="middle" x="302" y="-62.6" font-family="Times,serif" font-size="14.00">PublicCommunityRoutingModule</text>
</g>
<!-- PublicCommunityRoutingModule&#45;&gt;PublicCommunityModule -->
<g id="edge8" class="edge">
<title>PublicCommunityRoutingModule&#45;&gt;PublicCommunityModule</title>
<path fill="none" stroke="black" d="M302,-84.93C302,-105.37 302,-135.8 302,-135.8 302,-135.8 756.85,-135.8 756.85,-135.8"/>
<polygon fill="black" stroke="black" points="756.85,-139.3 766.85,-135.8 756.85,-132.3 756.85,-139.3"/>
</g>
<!-- SharedDirectivesModule -->
<g id="node10" class="node">
<title>SharedDirectivesModule</title>
<polygon fill="#8dd3c7" stroke="black" points="179.95,-84.8 176.95,-88.8 155.95,-88.8 152.95,-84.8 24.05,-84.8 24.05,-48.8 179.95,-48.8 179.95,-84.8"/>
<text text-anchor="middle" x="102" y="-62.6" font-family="Times,serif" font-size="14.00">SharedDirectivesModule</text>
</g>
<!-- SharedDirectivesModule&#45;&gt;PublicCommunityModule -->
<g id="edge9" class="edge">
<title>SharedDirectivesModule&#45;&gt;PublicCommunityModule</title>
<path fill="none" stroke="black" d="M102,-84.81C102,-107.29 102,-142.8 102,-142.8 102,-142.8 756.74,-142.8 756.74,-142.8"/>
<polygon fill="black" stroke="black" points="756.74,-146.3 766.74,-142.8 756.74,-139.3 756.74,-146.3"/>
</g>
</g>
</svg>
