<?xml version="1.0" encoding="UTF-8" standalone="no"?>
<!DOCTYPE svg PUBLIC "-//W3C//DTD SVG 1.1//EN"
 "http://www.w3.org/Graphics/SVG/1.1/DTD/svg11.dtd">
<!-- Generated by graphviz version 2.47.3 (20210619.1520)
 -->
<!-- Title: dependencies Pages: 1 -->
<svg width="1706pt" height="247pt"
 viewBox="0.00 0.00 1706.00 246.80" xmlns="http://www.w3.org/2000/svg" xmlns:xlink="http://www.w3.org/1999/xlink">
<g id="graph0" class="graph" transform="scale(1 1) rotate(0) translate(4 242.8)">
<title>dependencies</title>
<polygon fill="white" stroke="transparent" points="-4,4 -4,-242.8 1702,-242.8 1702,4 -4,4"/>
<text text-anchor="middle" x="849" y="-8.2" font-family="sans-serif" font-size="14.00">dependencies</text>
<g id="clust1" class="cluster">
<title>cluster_PublicCommunityModule</title>
<polygon fill="none" stroke="black" stroke-dasharray="1,5" points="8,-32.8 8,-230.8 1690,-230.8 1690,-32.8 8,-32.8"/>
</g>
<g id="clust11" class="cluster">
<title>cluster_PublicCommunityModule_exports</title>
<polygon fill="none" stroke="black" points="693,-170.8 693,-222.8 905,-222.8 905,-170.8 693,-170.8"/>
</g>
<g id="clust10" class="cluster">
<title>cluster_PublicCommunityModule_imports</title>
<polygon fill="none" stroke="black" points="1284,-40.8 1284,-92.8 1682,-92.8 1682,-40.8 1284,-40.8"/>
</g>
<g id="clust2" class="cluster">
<title>cluster_PublicCommunityModule_declarations</title>
<polygon fill="none" stroke="black" points="16,-40.8 16,-92.8 1276,-92.8 1276,-40.8 16,-40.8"/>
</g>
<!-- CommunityChannelsListComponent -->
<g id="node1" class="node">
<title>CommunityChannelsListComponent</title>
<polygon fill="#ffffb3" stroke="black" points="1268.11,-84.8 1045.89,-84.8 1045.89,-48.8 1268.11,-48.8 1268.11,-84.8"/>
<text text-anchor="middle" x="1157" y="-62.6" font-family="Times,serif" font-size="14.00">CommunityChannelsListComponent</text>
</g>
<!-- PublicCommunityModule -->
<g id="node8" class="node">
<title>PublicCommunityModule</title>
<polygon fill="#8dd3c7" stroke="black" points="880.23,-149.8 877.23,-153.8 856.23,-153.8 853.23,-149.8 717.77,-149.8 717.77,-113.8 880.23,-113.8 880.23,-149.8"/>
<text text-anchor="middle" x="799" y="-127.6" font-family="Times,serif" font-size="14.00">PublicCommunityModule</text>
</g>
<!-- CommunityChannelsListComponent&#45;&gt;PublicCommunityModule -->
<g id="edge1" class="edge">
<title>CommunityChannelsListComponent&#45;&gt;PublicCommunityModule</title>
<path fill="none" stroke="black" d="M1157,-85.07C1157,-103.36 1157,-128.8 1157,-128.8 1157,-128.8 890.24,-128.8 890.24,-128.8"/>
<polygon fill="black" stroke="black" points="890.24,-125.3 880.24,-128.8 890.24,-132.3 890.24,-125.3"/>
</g>
<!-- EventsComponent -->
<g id="node2" class="node">
<title>EventsComponent</title>
<polygon fill="#ffffb3" stroke="black" points="1027.94,-84.8 908.06,-84.8 908.06,-48.8 1027.94,-48.8 1027.94,-84.8"/>
<text text-anchor="middle" x="968" y="-62.6" font-family="Times,serif" font-size="14.00">EventsComponent</text>
</g>
<!-- EventsComponent&#45;&gt;PublicCommunityModule -->
<g id="edge2" class="edge">
<title>EventsComponent&#45;&gt;PublicCommunityModule</title>
<path fill="none" stroke="black" d="M968,-84.81C968,-100.85 968,-121.8 968,-121.8 968,-121.8 890.53,-121.8 890.53,-121.8"/>
<polygon fill="black" stroke="black" points="890.53,-118.3 880.53,-121.8 890.53,-125.3 890.53,-118.3"/>
</g>
<!-- HomeCommunityComponent -->
<g id="node3" class="node">
<title>HomeCommunityComponent</title>
<polygon fill="#ffffb3" stroke="black" points="890.44,-84.8 707.56,-84.8 707.56,-48.8 890.44,-48.8 890.44,-84.8"/>
<text text-anchor="middle" x="799" y="-62.6" font-family="Times,serif" font-size="14.00">HomeCommunityComponent</text>
</g>
<!-- HomeCommunityComponent&#45;&gt;PublicCommunityModule -->
<g id="edge3" class="edge">
<title>HomeCommunityComponent&#45;&gt;PublicCommunityModule</title>
<path fill="none" stroke="black" d="M799,-84.91C799,-84.91 799,-103.79 799,-103.79"/>
<polygon fill="black" stroke="black" points="795.5,-103.79 799,-113.79 802.5,-103.79 795.5,-103.79"/>
</g>
<!-- MembersComponent -->
<g id="node4" class="node">
<title>MembersComponent</title>
<polygon fill="#ffffb3" stroke="black" points="690.2,-84.8 555.8,-84.8 555.8,-48.8 690.2,-48.8 690.2,-84.8"/>
<text text-anchor="middle" x="623" y="-62.6" font-family="Times,serif" font-size="14.00">MembersComponent</text>
</g>
<!-- MembersComponent&#45;&gt;PublicCommunityModule -->
<g id="edge4" class="edge">
<title>MembersComponent&#45;&gt;PublicCommunityModule</title>
<path fill="none" stroke="black" d="M623,-84.81C623,-100.85 623,-121.8 623,-121.8 623,-121.8 707.7,-121.8 707.7,-121.8"/>
<polygon fill="black" stroke="black" points="707.7,-125.3 717.7,-121.8 707.7,-118.3 707.7,-125.3"/>
</g>
<!-- MembershipToggleComponent -->
<g id="node5" class="node">
<title>MembershipToggleComponent</title>
<polygon fill="#ffffb3" stroke="black" points="537.75,-84.8 346.25,-84.8 346.25,-48.8 537.75,-48.8 537.75,-84.8"/>
<text text-anchor="middle" x="442" y="-62.6" font-family="Times,serif" font-size="14.00">MembershipToggleComponent</text>
</g>
<!-- MembershipToggleComponent&#45;&gt;PublicCommunityModule -->
<g id="edge5" class="edge">
<title>MembershipToggleComponent&#45;&gt;PublicCommunityModule</title>
<path fill="none" stroke="black" d="M442,-85.07C442,-103.36 442,-128.8 442,-128.8 442,-128.8 707.54,-128.8 707.54,-128.8"/>
<polygon fill="black" stroke="black" points="707.54,-132.3 717.54,-128.8 707.54,-125.3 707.54,-132.3"/>
</g>
<!-- SpeakerCardComponent -->
<g id="node6" class="node">
<title>SpeakerCardComponent</title>
<polygon fill="#ffffb3" stroke="black" points="327.63,-84.8 174.37,-84.8 174.37,-48.8 327.63,-48.8 327.63,-84.8"/>
<text text-anchor="middle" x="251" y="-62.6" font-family="Times,serif" font-size="14.00">SpeakerCardComponent</text>
</g>
<!-- SpeakerCardComponent&#45;&gt;PublicCommunityModule -->
<g id="edge6" class="edge">
<title>SpeakerCardComponent&#45;&gt;PublicCommunityModule</title>
<path fill="none" stroke="black" d="M251,-84.93C251,-105.37 251,-135.8 251,-135.8 251,-135.8 707.85,-135.8 707.85,-135.8"/>
<polygon fill="black" stroke="black" points="707.85,-139.3 717.85,-135.8 707.85,-132.3 707.85,-139.3"/>
</g>
<!-- SpeakersComponent -->
<g id="node7" class="node">
<title>SpeakersComponent</title>
<polygon fill="#ffffb3" stroke="black" points="155.86,-84.8 24.14,-84.8 24.14,-48.8 155.86,-48.8 155.86,-84.8"/>
<text text-anchor="middle" x="90" y="-62.6" font-family="Times,serif" font-size="14.00">SpeakersComponent</text>
</g>
<!-- SpeakersComponent&#45;&gt;PublicCommunityModule -->
<g id="edge7" class="edge">
<title>SpeakersComponent&#45;&gt;PublicCommunityModule</title>
<path fill="none" stroke="black" d="M90,-84.81C90,-107.29 90,-142.8 90,-142.8 90,-142.8 707.67,-142.8 707.67,-142.8"/>
<polygon fill="black" stroke="black" points="707.67,-146.3 717.67,-142.8 707.67,-139.3 707.67,-146.3"/>
</g>
<!-- MembershipToggleComponent  -->
<g id="node11" class="node">
<title>MembershipToggleComponent </title>
<polygon fill="#fb8072" stroke="black" points="896.75,-214.8 701.25,-214.8 701.25,-178.8 896.75,-178.8 896.75,-214.8"/>
<text text-anchor="middle" x="799" y="-192.6" font-family="Times,serif" font-size="14.00">MembershipToggleComponent </text>
</g>
<!-- PublicCommunityModule&#45;&gt;MembershipToggleComponent  -->
<g id="edge10" class="edge">
<title>PublicCommunityModule&#45;&gt;MembershipToggleComponent </title>
<path fill="none" stroke="black" stroke-dasharray="5,2" d="M799,-149.91C799,-149.91 799,-168.79 799,-168.79"/>
<polygon fill="black" stroke="black" points="795.5,-168.79 799,-178.79 802.5,-168.79 795.5,-168.79"/>
</g>
<!-- PublicCommunityRoutingModule -->
<g id="node9" class="node">
<title>PublicCommunityRoutingModule</title>
<polygon fill="#8dd3c7" stroke="black" points="1673.85,-84.8 1670.85,-88.8 1649.85,-88.8 1646.85,-84.8 1466.15,-84.8 1466.15,-48.8 1673.85,-48.8 1673.85,-84.8"/>
<text text-anchor="middle" x="1570" y="-62.6" font-family="Times,serif" font-size="14.00">PublicCommunityRoutingModule</text>
</g>
<!-- PublicCommunityRoutingModule&#45;&gt;PublicCommunityModule -->
<g id="edge8" class="edge">
<title>PublicCommunityRoutingModule&#45;&gt;PublicCommunityModule</title>
<path fill="none" stroke="black" d="M1570,-84.81C1570,-107.29 1570,-142.8 1570,-142.8 1570,-142.8 890.42,-142.8 890.42,-142.8"/>
<polygon fill="black" stroke="black" points="890.42,-139.3 880.42,-142.8 890.42,-146.3 890.42,-139.3"/>
</g>
<!-- SharedDirectivesModule -->
<g id="node10" class="node">
<title>SharedDirectivesModule</title>
<polygon fill="#8dd3c7" stroke="black" points="1447.95,-84.8 1444.95,-88.8 1423.95,-88.8 1420.95,-84.8 1292.05,-84.8 1292.05,-48.8 1447.95,-48.8 1447.95,-84.8"/>
<text text-anchor="middle" x="1370" y="-62.6" font-family="Times,serif" font-size="14.00">SharedDirectivesModule</text>
</g>
<!-- SharedDirectivesModule&#45;&gt;PublicCommunityModule -->
<g id="edge9" class="edge">
<title>SharedDirectivesModule&#45;&gt;PublicCommunityModule</title>
<path fill="none" stroke="black" d="M1370,-84.93C1370,-105.37 1370,-135.8 1370,-135.8 1370,-135.8 890.2,-135.8 890.2,-135.8"/>
<polygon fill="black" stroke="black" points="890.2,-132.3 880.2,-135.8 890.2,-139.3 890.2,-132.3"/>
</g>
</g>
</svg>
