<?xml version="1.0" encoding="UTF-8" standalone="no"?>
<!DOCTYPE svg PUBLIC "-//W3C//DTD SVG 1.1//EN"
 "http://www.w3.org/Graphics/SVG/1.1/DTD/svg11.dtd">
<!-- Generated by graphviz version 2.47.0 (20210316.0004)
 -->
<!-- Title: dependencies Pages: 1 -->
<svg width="1721pt" height="284pt"
     viewBox="0.00 0.00 1721.00 284.00" xmlns="http://www.w3.org/2000/svg">
<g id="graph0" class="graph" transform="scale(1 1) rotate(0) translate(4 280)">
<title>dependencies</title>
<polygon fill="white" stroke="transparent" points="-4,4 -4,-280 1717,-280 1717,4 -4,4"/>
<text text-anchor="start" x="835.51" y="-42.4" font-family="sans-serif" font-weight="bold" font-size="14.00">Legend</text>
<polygon fill="#ffffb3" stroke="transparent" points="622.5,-10 622.5,-30 642.5,-30 642.5,-10 622.5,-10"/>
<text text-anchor="start" x="646.13" y="-15.4" font-family="sans-serif" font-size="14.00"> &#160;Declarations</text>
<polygon fill="#8dd3c7" stroke="transparent" points="735.5,-10 735.5,-30 755.5,-30 755.5,-10 735.5,-10"/>
<text text-anchor="start" x="759.23" y="-15.4" font-family="sans-serif" font-size="14.00"> &#160;Module</text>
<polygon fill="#80b1d3" stroke="transparent" points="821.5,-10 821.5,-30 841.5,-30 841.5,-10 821.5,-10"/>
<text text-anchor="start" x="845.28" y="-15.4" font-family="sans-serif" font-size="14.00"> &#160;Bootstrap</text>
<polygon fill="#fdb462" stroke="transparent" points="918.5,-10 918.5,-30 938.5,-30 938.5,-10 918.5,-10"/>
<text text-anchor="start" x="942.17" y="-15.4" font-family="sans-serif" font-size="14.00"> &#160;Providers</text>
<polygon fill="#fb8072" stroke="transparent" points="1014.5,-10 1014.5,-30 1034.5,-30 1034.5,-10 1014.5,-10"/>
<text text-anchor="start" x="1038.23" y="-15.4" font-family="sans-serif" font-size="14.00"> &#160;Exports</text>
<g id="clust1" class="cluster">
<title>cluster_PublicCommunityModule</title>
<polygon fill="none" stroke="black" stroke-dasharray="1,5" points="8,-70 8,-268 1705,-268 1705,-70 8,-70"/>
</g>
<g id="clust11" class="cluster">
<title>cluster_PublicCommunityModule_imports</title>
<polygon fill="none" stroke="black" points="1473,-78 1473,-130 1697,-130 1697,-78 1473,-78"/>
</g>
<g id="clust12" class="cluster">
<title>cluster_PublicCommunityModule_exports</title>
<polygon fill="none" stroke="black" points="693,-208 693,-260 905,-260 905,-208 693,-208"/>
</g>
<g id="clust2" class="cluster">
<title>cluster_PublicCommunityModule_declarations</title>
<polygon fill="none" stroke="black" points="16,-78 16,-130 1465,-130 1465,-78 16,-78"/>
</g>
<!-- CommunityChannelsListComponent -->
<g id="node1" class="node">
<title>CommunityChannelsListComponent</title>
<polygon fill="#ffffb3" stroke="black" points="1457.11,-122 1234.89,-122 1234.89,-86 1457.11,-86 1457.11,-122"/>
<text text-anchor="middle" x="1346" y="-99.8" font-family="Times,serif" font-size="14.00">CommunityChannelsListComponent</text>
</g>
<!-- PublicCommunityModule -->
<g id="node9" class="node">
<title>PublicCommunityModule</title>
<polygon fill="#8dd3c7" stroke="black" points="880.23,-187 877.23,-191 856.23,-191 853.23,-187 717.77,-187 717.77,-151 880.23,-151 880.23,-187"/>
<text text-anchor="middle" x="799" y="-164.8" font-family="Times,serif" font-size="14.00">PublicCommunityModule</text>
</g>
<!-- CommunityChannelsListComponent&#45;&gt;PublicCommunityModule -->
<g id="edge1" class="edge">
<title>CommunityChannelsListComponent&#45;&gt;PublicCommunityModule</title>
<path fill="none" stroke="black" d="M1346,-122.13C1346,-142.57 1346,-173 1346,-173 1346,-173 890.3,-173 890.3,-173"/>
<polygon fill="black" stroke="black" points="890.3,-169.5 880.3,-173 890.3,-176.5 890.3,-169.5"/>
</g>
<!-- EventResourcesComponent -->
<g id="node2" class="node">
<title>EventResourcesComponent</title>
<polygon fill="#ffffb3" stroke="black" points="1216.52,-122 1045.48,-122 1045.48,-86 1216.52,-86 1216.52,-122"/>
<text text-anchor="middle" x="1131" y="-99.8" font-family="Times,serif" font-size="14.00">EventResourcesComponent</text>
</g>
<!-- EventResourcesComponent&#45;&gt;PublicCommunityModule -->
<g id="edge2" class="edge">
<title>EventResourcesComponent&#45;&gt;PublicCommunityModule</title>
<path fill="none" stroke="black" d="M1131,-122.27C1131,-140.56 1131,-166 1131,-166 1131,-166 890.22,-166 890.22,-166"/>
<polygon fill="black" stroke="black" points="890.22,-162.5 880.22,-166 890.22,-169.5 890.22,-162.5"/>
</g>
<!-- EventsComponent -->
<g id="node3" class="node">
<title>EventsComponent</title>
<polygon fill="#ffffb3" stroke="black" points="1027.94,-122 908.06,-122 908.06,-86 1027.94,-86 1027.94,-122"/>
<text text-anchor="middle" x="968" y="-99.8" font-family="Times,serif" font-size="14.00">EventsComponent</text>
</g>
<!-- EventsComponent&#45;&gt;PublicCommunityModule -->
<g id="edge3" class="edge">
<title>EventsComponent&#45;&gt;PublicCommunityModule</title>
<path fill="none" stroke="black" d="M968,-122.01C968,-138.05 968,-159 968,-159 968,-159 890.53,-159 890.53,-159"/>
<polygon fill="black" stroke="black" points="890.53,-155.5 880.53,-159 890.53,-162.5 890.53,-155.5"/>
</g>
<!-- HomeCommunityComponent -->
<g id="node4" class="node">
<title>HomeCommunityComponent</title>
<polygon fill="#ffffb3" stroke="black" points="890.44,-122 707.56,-122 707.56,-86 890.44,-86 890.44,-122"/>
<text text-anchor="middle" x="799" y="-99.8" font-family="Times,serif" font-size="14.00">HomeCommunityComponent</text>
</g>
<!-- HomeCommunityComponent&#45;&gt;PublicCommunityModule -->
<g id="edge4" class="edge">
<title>HomeCommunityComponent&#45;&gt;PublicCommunityModule</title>
<path fill="none" stroke="black" d="M799,-122.11C799,-122.11 799,-140.99 799,-140.99"/>
<polygon fill="black" stroke="black" points="795.5,-140.99 799,-150.99 802.5,-140.99 795.5,-140.99"/>
</g>
<!-- MembersComponent -->
<g id="node5" class="node">
<title>MembersComponent</title>
<polygon fill="#ffffb3" stroke="black" points="690.2,-122 555.8,-122 555.8,-86 690.2,-86 690.2,-122"/>
<text text-anchor="middle" x="623" y="-99.8" font-family="Times,serif" font-size="14.00">MembersComponent</text>
</g>
<!-- MembersComponent&#45;&gt;PublicCommunityModule -->
<g id="edge5" class="edge">
<title>MembersComponent&#45;&gt;PublicCommunityModule</title>
<path fill="none" stroke="black" d="M623,-122.01C623,-138.05 623,-159 623,-159 623,-159 707.7,-159 707.7,-159"/>
<polygon fill="black" stroke="black" points="707.7,-162.5 717.7,-159 707.7,-155.5 707.7,-162.5"/>
</g>
<!-- MembershipToggleComponent -->
<g id="node6" class="node">
<title>MembershipToggleComponent</title>
<polygon fill="#ffffb3" stroke="black" points="537.75,-122 346.25,-122 346.25,-86 537.75,-86 537.75,-122"/>
<text text-anchor="middle" x="442" y="-99.8" font-family="Times,serif" font-size="14.00">MembershipToggleComponent</text>
</g>
<!-- MembershipToggleComponent&#45;&gt;PublicCommunityModule -->
<g id="edge6" class="edge">
<title>MembershipToggleComponent&#45;&gt;PublicCommunityModule</title>
<path fill="none" stroke="black" d="M442,-122.27C442,-140.56 442,-166 442,-166 442,-166 707.54,-166 707.54,-166"/>
<polygon fill="black" stroke="black" points="707.54,-169.5 717.54,-166 707.54,-162.5 707.54,-169.5"/>
</g>
<!-- SpeakerCardComponent -->
<g id="node7" class="node">
<title>SpeakerCardComponent</title>
<polygon fill="#ffffb3" stroke="black" points="327.63,-122 174.37,-122 174.37,-86 327.63,-86 327.63,-122"/>
<text text-anchor="middle" x="251" y="-99.8" font-family="Times,serif" font-size="14.00">SpeakerCardComponent</text>
</g>
<!-- SpeakerCardComponent&#45;&gt;PublicCommunityModule -->
<g id="edge7" class="edge">
<title>SpeakerCardComponent&#45;&gt;PublicCommunityModule</title>
<path fill="none" stroke="black" d="M251,-122.13C251,-142.57 251,-173 251,-173 251,-173 707.85,-173 707.85,-173"/>
<polygon fill="black" stroke="black" points="707.85,-176.5 717.85,-173 707.85,-169.5 707.85,-176.5"/>
</g>
<!-- SpeakersComponent -->
<g id="node8" class="node">
<title>SpeakersComponent</title>
<polygon fill="#ffffb3" stroke="black" points="155.86,-122 24.14,-122 24.14,-86 155.86,-86 155.86,-122"/>
<text text-anchor="middle" x="90" y="-99.8" font-family="Times,serif" font-size="14.00">SpeakersComponent</text>
</g>
<!-- SpeakersComponent&#45;&gt;PublicCommunityModule -->
<g id="edge8" class="edge">
<title>SpeakersComponent&#45;&gt;PublicCommunityModule</title>
<path fill="none" stroke="black" d="M90,-122.01C90,-144.49 90,-180 90,-180 90,-180 707.67,-180 707.67,-180"/>
<polygon fill="black" stroke="black" points="707.67,-183.5 717.67,-180 707.67,-176.5 707.67,-183.5"/>
</g>
<!-- MembershipToggleComponent  -->
<g id="node11" class="node">
<title>MembershipToggleComponent </title>
<polygon fill="#fb8072" stroke="black" points="896.75,-252 701.25,-252 701.25,-216 896.75,-216 896.75,-252"/>
<text text-anchor="middle" x="799" y="-229.8" font-family="Times,serif" font-size="14.00">MembershipToggleComponent </text>
</g>
<!-- PublicCommunityModule&#45;&gt;MembershipToggleComponent  -->
<g id="edge10" class="edge">
<title>PublicCommunityModule&#45;&gt;MembershipToggleComponent </title>
<path fill="none" stroke="black" stroke-dasharray="5,2" d="M799,-187.11C799,-187.11 799,-205.99 799,-205.99"/>
<polygon fill="black" stroke="black" points="795.5,-205.99 799,-215.99 802.5,-205.99 795.5,-205.99"/>
</g>
<!-- PublicCommunityRoutingModule -->
<g id="node10" class="node">
<title>PublicCommunityRoutingModule</title>
<polygon fill="#8dd3c7" stroke="black" points="1688.85,-122 1685.85,-126 1664.85,-126 1661.85,-122 1481.15,-122 1481.15,-86 1688.85,-86 1688.85,-122"/>
<text text-anchor="middle" x="1585" y="-99.8" font-family="Times,serif" font-size="14.00">PublicCommunityRoutingModule</text>
</g>
<!-- PublicCommunityRoutingModule&#45;&gt;PublicCommunityModule -->
<g id="edge9" class="edge">
<title>PublicCommunityRoutingModule&#45;&gt;PublicCommunityModule</title>
<path fill="none" stroke="black" d="M1585,-122.01C1585,-144.49 1585,-180 1585,-180 1585,-180 890.16,-180 890.16,-180"/>
<polygon fill="black" stroke="black" points="890.16,-176.5 880.16,-180 890.16,-183.5 890.16,-176.5"/>
</g>
</g>
</svg>
