<?xml version="1.0" encoding="UTF-8" standalone="no"?>
<!DOCTYPE svg PUBLIC "-//W3C//DTD SVG 1.1//EN"
 "http://www.w3.org/Graphics/SVG/1.1/DTD/svg11.dtd">
<!-- Generated by graphviz version 5.0.0 (20220707.1540)
 -->
<!-- Title: dependencies Pages: 1 -->
<svg width="2009pt" height="247pt"
 viewBox="0.00 0.00 2009.00 246.80" xmlns="http://www.w3.org/2000/svg" xmlns:xlink="http://www.w3.org/1999/xlink">
<g id="graph0" class="graph" transform="scale(1 1) rotate(0) translate(4 242.8)">
<title>dependencies</title>
<polygon fill="white" stroke="transparent" points="-4,4 -4,-242.8 2005,-242.8 2005,4 -4,4"/>
<text text-anchor="middle" x="1000.5" y="-8.2" font-family="sans-serif" font-size="14.00">dependencies</text>
<g id="clust1" class="cluster">
<title>cluster_PublicCommunityModule</title>
<polygon fill="none" stroke="black" stroke-dasharray="1,5" points="8,-32.8 8,-230.8 1993,-230.8 1993,-32.8 8,-32.8"/>
</g>
<g id="clust12" class="cluster">
<title>cluster_PublicCommunityModule_exports</title>
<polygon fill="none" stroke="black" points="911,-170.8 911,-222.8 1123,-222.8 1123,-170.8 911,-170.8"/>
</g>
<g id="clust2" class="cluster">
<title>cluster_PublicCommunityModule_declarations</title>
<polygon fill="none" stroke="black" points="591,-40.8 591,-92.8 1985,-92.8 1985,-40.8 591,-40.8"/>
</g>
<g id="clust11" class="cluster">
<title>cluster_PublicCommunityModule_imports</title>
<polygon fill="none" stroke="black" points="16,-40.8 16,-92.8 583,-92.8 583,-40.8 16,-40.8"/>
</g>
<!-- AboutComponent -->
<g id="node1" class="node">
<title>AboutComponent</title>
<polygon fill="#ffffb3" stroke="black" points="1977.33,-84.8 1860.67,-84.8 1860.67,-48.8 1977.33,-48.8 1977.33,-84.8"/>
<text text-anchor="middle" x="1919" y="-62.6" font-family="Times,serif" font-size="14.00">AboutComponent</text>
</g>
<!-- PublicCommunityModule -->
<g id="node9" class="node">
<title>PublicCommunityModule</title>
<polygon fill="#8dd3c7" stroke="black" points="1098.23,-149.8 1095.23,-153.8 1074.23,-153.8 1071.23,-149.8 935.77,-149.8 935.77,-113.8 1098.23,-113.8 1098.23,-149.8"/>
<text text-anchor="middle" x="1017" y="-127.6" font-family="Times,serif" font-size="14.00">PublicCommunityModule</text>
</g>
<!-- AboutComponent&#45;&gt;PublicCommunityModule -->
<g id="edge1" class="edge">
<title>AboutComponent&#45;&gt;PublicCommunityModule</title>
<path fill="none" stroke="black" d="M1919,-85.05C1919,-107.82 1919,-143.8 1919,-143.8 1919,-143.8 1108.24,-143.8 1108.24,-143.8"/>
<polygon fill="black" stroke="black" points="1108.24,-140.3 1098.24,-143.8 1108.24,-147.3 1108.24,-140.3"/>
</g>
<!-- CommunityChannelsListComponent -->
<g id="node2" class="node">
<title>CommunityChannelsListComponent</title>
<polygon fill="#ffffb3" stroke="black" points="1843.11,-84.8 1620.89,-84.8 1620.89,-48.8 1843.11,-48.8 1843.11,-84.8"/>
<text text-anchor="middle" x="1732" y="-62.6" font-family="Times,serif" font-size="14.00">CommunityChannelsListComponent</text>
</g>
<!-- CommunityChannelsListComponent&#45;&gt;PublicCommunityModule -->
<g id="edge2" class="edge">
<title>CommunityChannelsListComponent&#45;&gt;PublicCommunityModule</title>
<path fill="none" stroke="black" d="M1732,-85.08C1732,-106.12 1732,-137.8 1732,-137.8 1732,-137.8 1108.32,-137.8 1108.32,-137.8"/>
<polygon fill="black" stroke="black" points="1108.32,-134.3 1098.32,-137.8 1108.32,-141.3 1108.32,-134.3"/>
</g>
<!-- EventsComponent -->
<g id="node3" class="node">
<title>EventsComponent</title>
<polygon fill="#ffffb3" stroke="black" points="1602.94,-84.8 1483.06,-84.8 1483.06,-48.8 1602.94,-48.8 1602.94,-84.8"/>
<text text-anchor="middle" x="1543" y="-62.6" font-family="Times,serif" font-size="14.00">EventsComponent</text>
</g>
<!-- EventsComponent&#45;&gt;PublicCommunityModule -->
<g id="edge3" class="edge">
<title>EventsComponent&#45;&gt;PublicCommunityModule</title>
<path fill="none" stroke="black" d="M1543,-84.91C1543,-104.14 1543,-131.8 1543,-131.8 1543,-131.8 1108.32,-131.8 1108.32,-131.8"/>
<polygon fill="black" stroke="black" points="1108.32,-128.3 1098.32,-131.8 1108.32,-135.3 1108.32,-128.3"/>
</g>
<!-- HomeCommunityComponent -->
<g id="node4" class="node">
<title>HomeCommunityComponent</title>
<polygon fill="#ffffb3" stroke="black" points="1465.44,-84.8 1282.56,-84.8 1282.56,-48.8 1465.44,-48.8 1465.44,-84.8"/>
<text text-anchor="middle" x="1374" y="-62.6" font-family="Times,serif" font-size="14.00">HomeCommunityComponent</text>
</g>
<!-- HomeCommunityComponent&#45;&gt;PublicCommunityModule -->
<g id="edge4" class="edge">
<title>HomeCommunityComponent&#45;&gt;PublicCommunityModule</title>
<path fill="none" stroke="black" d="M1374,-84.82C1374,-102.17 1374,-125.8 1374,-125.8 1374,-125.8 1108.46,-125.8 1108.46,-125.8"/>
<polygon fill="black" stroke="black" points="1108.46,-122.3 1098.46,-125.8 1108.46,-129.3 1108.46,-122.3"/>
</g>
<!-- MembersComponent -->
<g id="node5" class="node">
<title>MembersComponent</title>
<polygon fill="#ffffb3" stroke="black" points="1265.21,-84.8 1130.79,-84.8 1130.79,-48.8 1265.21,-48.8 1265.21,-84.8"/>
<text text-anchor="middle" x="1198" y="-62.6" font-family="Times,serif" font-size="14.00">MembersComponent</text>
</g>
<!-- MembersComponent&#45;&gt;PublicCommunityModule -->
<g id="edge5" class="edge">
<title>MembersComponent&#45;&gt;PublicCommunityModule</title>
<path fill="none" stroke="black" d="M1198,-85.04C1198,-100.37 1198,-119.8 1198,-119.8 1198,-119.8 1108.23,-119.8 1108.23,-119.8"/>
<polygon fill="black" stroke="black" points="1108.23,-116.3 1098.23,-119.8 1108.23,-123.3 1108.23,-116.3"/>
</g>
<!-- MembershipToggleComponent -->
<g id="node6" class="node">
<title>MembershipToggleComponent</title>
<polygon fill="#ffffb3" stroke="black" points="1112.75,-84.8 921.25,-84.8 921.25,-48.8 1112.75,-48.8 1112.75,-84.8"/>
<text text-anchor="middle" x="1017" y="-62.6" font-family="Times,serif" font-size="14.00">MembershipToggleComponent</text>
</g>
<!-- MembershipToggleComponent&#45;&gt;PublicCommunityModule -->
<g id="edge6" class="edge">
<title>MembershipToggleComponent&#45;&gt;PublicCommunityModule</title>
<path fill="none" stroke="black" d="M1017,-84.91C1017,-84.91 1017,-103.79 1017,-103.79"/>
<polygon fill="black" stroke="black" points="1013.5,-103.79 1017,-113.79 1020.5,-103.79 1013.5,-103.79"/>
</g>
<!-- SpeakerCardComponent -->
<g id="node7" class="node">
<title>SpeakerCardComponent</title>
<polygon fill="#ffffb3" stroke="black" points="902.64,-84.8 749.36,-84.8 749.36,-48.8 902.64,-48.8 902.64,-84.8"/>
<text text-anchor="middle" x="826" y="-62.6" font-family="Times,serif" font-size="14.00">SpeakerCardComponent</text>
</g>
<!-- SpeakerCardComponent&#45;&gt;PublicCommunityModule -->
<g id="edge7" class="edge">
<title>SpeakerCardComponent&#45;&gt;PublicCommunityModule</title>
<path fill="none" stroke="black" d="M826,-85.04C826,-100.37 826,-119.8 826,-119.8 826,-119.8 925.72,-119.8 925.72,-119.8"/>
<polygon fill="black" stroke="black" points="925.72,-123.3 935.72,-119.8 925.72,-116.3 925.72,-123.3"/>
</g>
<!-- SpeakersComponent -->
<g id="node8" class="node">
<title>SpeakersComponent</title>
<polygon fill="#ffffb3" stroke="black" points="730.87,-84.8 599.13,-84.8 599.13,-48.8 730.87,-48.8 730.87,-84.8"/>
<text text-anchor="middle" x="665" y="-62.6" font-family="Times,serif" font-size="14.00">SpeakersComponent</text>
</g>
<!-- SpeakersComponent&#45;&gt;PublicCommunityModule -->
<g id="edge8" class="edge">
<title>SpeakersComponent&#45;&gt;PublicCommunityModule</title>
<path fill="none" stroke="black" d="M665,-84.82C665,-102.17 665,-125.8 665,-125.8 665,-125.8 925.8,-125.8 925.8,-125.8"/>
<polygon fill="black" stroke="black" points="925.8,-129.3 935.8,-125.8 925.8,-122.3 925.8,-129.3"/>
</g>
<!-- MembershipToggleComponent  -->
<g id="node13" class="node">
<title>MembershipToggleComponent </title>
<polygon fill="#fb8072" stroke="black" points="1114.75,-214.8 919.25,-214.8 919.25,-178.8 1114.75,-178.8 1114.75,-214.8"/>
<text text-anchor="middle" x="1017" y="-192.6" font-family="Times,serif" font-size="14.00">MembershipToggleComponent </text>
</g>
<!-- PublicCommunityModule&#45;&gt;MembershipToggleComponent  -->
<g id="edge12" class="edge">
<title>PublicCommunityModule&#45;&gt;MembershipToggleComponent </title>
<path fill="none" stroke="black" stroke-dasharray="5,2" d="M1017,-149.91C1017,-149.91 1017,-168.79 1017,-168.79"/>
<polygon fill="black" stroke="black" points="1013.5,-168.79 1017,-178.79 1020.5,-168.79 1013.5,-168.79"/>
</g>
<!-- MiniUserProfileModule -->
<g id="node10" class="node">
<title>MiniUserProfileModule</title>
<polygon fill="#8dd3c7" stroke="black" points="574.82,-84.8 571.82,-88.8 550.82,-88.8 547.82,-84.8 423.18,-84.8 423.18,-48.8 574.82,-48.8 574.82,-84.8"/>
<text text-anchor="middle" x="499" y="-62.6" font-family="Times,serif" font-size="14.00">MiniUserProfileModule</text>
</g>
<!-- MiniUserProfileModule&#45;&gt;PublicCommunityModule -->
<g id="edge9" class="edge">
<title>MiniUserProfileModule&#45;&gt;PublicCommunityModule</title>
<path fill="none" stroke="black" d="M499,-84.91C499,-104.14 499,-131.8 499,-131.8 499,-131.8 925.78,-131.8 925.78,-131.8"/>
<polygon fill="black" stroke="black" points="925.78,-135.3 935.78,-131.8 925.78,-128.3 925.78,-135.3"/>
</g>
<!-- PublicCommunityRoutingModule -->
<g id="node11" class="node">
<title>PublicCommunityRoutingModule</title>
<polygon fill="#8dd3c7" stroke="black" points="405.85,-84.8 402.85,-88.8 381.85,-88.8 378.85,-84.8 198.15,-84.8 198.15,-48.8 405.85,-48.8 405.85,-84.8"/>
<text text-anchor="middle" x="302" y="-62.6" font-family="Times,serif" font-size="14.00">PublicCommunityRoutingModule</text>
</g>
<!-- PublicCommunityRoutingModule&#45;&gt;PublicCommunityModule -->
<g id="edge10" class="edge">
<title>PublicCommunityRoutingModule&#45;&gt;PublicCommunityModule</title>
<path fill="none" stroke="black" d="M302,-85.08C302,-106.12 302,-137.8 302,-137.8 302,-137.8 925.68,-137.8 925.68,-137.8"/>
<polygon fill="black" stroke="black" points="925.68,-141.3 935.68,-137.8 925.68,-134.3 925.68,-141.3"/>
</g>
<!-- SharedDirectivesModule -->
<g id="node12" class="node">
<title>SharedDirectivesModule</title>
<polygon fill="#8dd3c7" stroke="black" points="179.96,-84.8 176.96,-88.8 155.96,-88.8 152.96,-84.8 24.04,-84.8 24.04,-48.8 179.96,-48.8 179.96,-84.8"/>
<text text-anchor="middle" x="102" y="-62.6" font-family="Times,serif" font-size="14.00">SharedDirectivesModule</text>
</g>
<!-- SharedDirectivesModule&#45;&gt;PublicCommunityModule -->
<g id="edge11" class="edge">
<title>SharedDirectivesModule&#45;&gt;PublicCommunityModule</title>
<path fill="none" stroke="black" d="M102,-85.05C102,-107.82 102,-143.8 102,-143.8 102,-143.8 925.8,-143.8 925.8,-143.8"/>
<polygon fill="black" stroke="black" points="925.8,-147.3 935.8,-143.8 925.8,-140.3 925.8,-147.3"/>
</g>
</g>
</svg>
