<svg width="18" height="15" viewBox="0 0 18 15" fill="none" xmlns="http://www.w3.org/2000/svg">
<path d="M5.85031 9.9C9.08187 9.9 11.7003 7.68375 11.7003 4.95C11.7003 2.21625 9.08187 0 5.85031 0C2.61875 0 0.000307812 2.21625 0.000307812 4.95C0.000307812 6.03562 0.413745 7.03969 1.11406 7.85812C1.01562 8.1225 0.86937 8.35594 0.714683 8.55281C0.579683 8.72719 0.44187 8.86219 0.34062 8.955C0.289995 9 0.247808 9.03656 0.219683 9.05906C0.20562 9.07031 0.19437 9.07875 0.188745 9.08156L0.18312 9.08719C0.0284328 9.2025 -0.0390672 9.405 0.0228078 9.58781C0.0846828 9.77062 0.256245 9.9 0.450308 9.9C1.06343 9.9 1.68218 9.7425 2.19687 9.54844C2.45562 9.45 2.6975 9.34031 2.90843 9.22781C3.77187 9.65531 4.77593 9.9 5.85031 9.9ZM12.6003 4.95C12.6003 8.10844 9.81312 10.4878 6.51125 10.7719C7.19468 12.8644 9.46156 14.4 12.1503 14.4C13.2247 14.4 14.2287 14.1553 15.095 13.7278C15.3059 13.8403 15.545 13.95 15.8037 14.0484C16.3184 14.2425 16.9372 14.4 17.5503 14.4C17.7444 14.4 17.9187 14.2734 17.9778 14.0878C18.0369 13.9022 17.9722 13.6997 17.8147 13.5844L17.8091 13.5787C17.8034 13.5731 17.7922 13.5675 17.7781 13.5562C17.75 13.5337 17.7078 13.5 17.6572 13.4522C17.5559 13.3594 17.4181 13.2244 17.2831 13.05C17.1284 12.8531 16.9822 12.6169 16.8837 12.3553C17.5841 11.5397 17.9975 10.5356 17.9975 9.44719C17.9975 6.83719 15.6097 4.69687 12.5806 4.51125C12.5919 4.65469 12.5975 4.80094 12.5975 4.94719L12.6003 4.95Z" fill="#0095FF" fill-opacity="0.2"/>
</svg>
