<?xml version="1.0" encoding="UTF-8" standalone="no"?>
<!DOCTYPE svg PUBLIC "-//W3C//DTD SVG 1.1//EN"
 "http://www.w3.org/Graphics/SVG/1.1/DTD/svg11.dtd">
<!-- Generated by graphviz version 5.0.0 (20220707.1540)
 -->
<!-- Title: dependencies Pages: 1 -->
<svg width="610pt" height="174pt"
 viewBox="0.00 0.00 610.00 173.80" xmlns="http://www.w3.org/2000/svg" xmlns:xlink="http://www.w3.org/1999/xlink">
<g id="graph0" class="graph" transform="scale(1 1) rotate(0) translate(4 169.8)">
<title>dependencies</title>
<polygon fill="white" stroke="transparent" points="-4,4 -4,-169.8 606,-169.8 606,4 -4,4"/>
<text text-anchor="middle" x="301" y="-8.2" font-family="sans-serif" font-size="14.00">dependencies</text>
<g id="clust1" class="cluster">
<title>cluster_PoliciesModule</title>
<polygon fill="none" stroke="black" stroke-dasharray="1,5" points="8,-32.8 8,-157.8 594,-157.8 594,-32.8 8,-32.8"/>
</g>
<g id="clust5" class="cluster">
<title>cluster_PoliciesModule_imports</title>
<polygon fill="none" stroke="black" points="420,-40.8 420,-92.8 586,-92.8 586,-40.8 420,-40.8"/>
</g>
<g id="clust2" class="cluster">
<title>cluster_PoliciesModule_declarations</title>
<polygon fill="none" stroke="black" points="16,-40.8 16,-92.8 412,-92.8 412,-40.8 16,-40.8"/>
</g>
<!-- PrivacyPolicyComponent -->
<g id="node1" class="node">
<title>PrivacyPolicyComponent</title>
<polygon fill="#ffffb3" stroke="black" points="403.88,-84.8 244.12,-84.8 244.12,-48.8 403.88,-48.8 403.88,-84.8"/>
<text text-anchor="middle" x="324" y="-62.6" font-family="Times,serif" font-size="14.00">PrivacyPolicyComponent</text>
</g>
<!-- PoliciesModule -->
<g id="node3" class="node">
<title>PoliciesModule</title>
<polygon fill="#8dd3c7" stroke="black" points="375.88,-149.8 372.88,-153.8 351.88,-153.8 348.88,-149.8 272.12,-149.8 272.12,-113.8 375.88,-113.8 375.88,-149.8"/>
<text text-anchor="middle" x="324" y="-127.6" font-family="Times,serif" font-size="14.00">PoliciesModule</text>
</g>
<!-- PrivacyPolicyComponent&#45;&gt;PoliciesModule -->
<g id="edge1" class="edge">
<title>PrivacyPolicyComponent&#45;&gt;PoliciesModule</title>
<path fill="none" stroke="black" d="M324,-84.91C324,-84.91 324,-103.79 324,-103.79"/>
<polygon fill="black" stroke="black" points="320.5,-103.79 324,-113.79 327.5,-103.79 320.5,-103.79"/>
</g>
<!-- TermsAndConditionsComponent -->
<g id="node2" class="node">
<title>TermsAndConditionsComponent</title>
<polygon fill="#ffffb3" stroke="black" points="226.16,-84.8 23.84,-84.8 23.84,-48.8 226.16,-48.8 226.16,-84.8"/>
<text text-anchor="middle" x="125" y="-62.6" font-family="Times,serif" font-size="14.00">TermsAndConditionsComponent</text>
</g>
<!-- TermsAndConditionsComponent&#45;&gt;PoliciesModule -->
<g id="edge2" class="edge">
<title>TermsAndConditionsComponent&#45;&gt;PoliciesModule</title>
<path fill="none" stroke="black" d="M125,-84.91C125,-104.14 125,-131.8 125,-131.8 125,-131.8 261.98,-131.8 261.98,-131.8"/>
<polygon fill="black" stroke="black" points="261.98,-135.3 271.98,-131.8 261.97,-128.3 261.98,-135.3"/>
</g>
<!-- PoliciesRoutingModule -->
<g id="node4" class="node">
<title>PoliciesRoutingModule</title>
<polygon fill="#8dd3c7" stroke="black" points="577.5,-84.8 574.5,-88.8 553.5,-88.8 550.5,-84.8 428.5,-84.8 428.5,-48.8 577.5,-48.8 577.5,-84.8"/>
<text text-anchor="middle" x="503" y="-62.6" font-family="Times,serif" font-size="14.00">PoliciesRoutingModule</text>
</g>
<!-- PoliciesRoutingModule&#45;&gt;PoliciesModule -->
<g id="edge3" class="edge">
<title>PoliciesRoutingModule&#45;&gt;PoliciesModule</title>
<path fill="none" stroke="black" d="M503,-84.91C503,-104.14 503,-131.8 503,-131.8 503,-131.8 386.26,-131.8 386.26,-131.8"/>
<polygon fill="black" stroke="black" points="386.26,-128.3 376.26,-131.8 386.26,-135.3 386.26,-128.3"/>
</g>
</g>
</svg>
