<?xml version="1.0" encoding="UTF-8" standalone="no"?>
<!DOCTYPE svg PUBLIC "-//W3C//DTD SVG 1.1//EN"
 "http://www.w3.org/Graphics/SVG/1.1/DTD/svg11.dtd">
<!-- Generated by graphviz version 2.47.0 (20210316.0004)
 -->
<!-- Title: dependencies Pages: 1 -->
<svg width="608pt" height="211pt"
     viewBox="0.00 0.00 608.00 211.00" xmlns="http://www.w3.org/2000/svg">
<g id="graph0" class="graph" transform="scale(1 1) rotate(0) translate(4 207)">
<title>dependencies</title>
<polygon fill="white" stroke="transparent" points="-4,4 -4,-207 604,-207 604,4 -4,4"/>
<text text-anchor="start" x="279.01" y="-42.4" font-family="sans-serif" font-weight="bold" font-size="14.00">Legend</text>
<polygon fill="#ffffb3" stroke="transparent" points="66,-10 66,-30 86,-30 86,-10 66,-10"/>
<text text-anchor="start" x="89.63" y="-15.4" font-family="sans-serif" font-size="14.00"> &#160;Declarations</text>
<polygon fill="#8dd3c7" stroke="transparent" points="179,-10 179,-30 199,-30 199,-10 179,-10"/>
<text text-anchor="start" x="202.73" y="-15.4" font-family="sans-serif" font-size="14.00"> &#160;Module</text>
<polygon fill="#80b1d3" stroke="transparent" points="265,-10 265,-30 285,-30 285,-10 265,-10"/>
<text text-anchor="start" x="288.78" y="-15.4" font-family="sans-serif" font-size="14.00"> &#160;Bootstrap</text>
<polygon fill="#fdb462" stroke="transparent" points="362,-10 362,-30 382,-30 382,-10 362,-10"/>
<text text-anchor="start" x="385.67" y="-15.4" font-family="sans-serif" font-size="14.00"> &#160;Providers</text>
<polygon fill="#fb8072" stroke="transparent" points="458,-10 458,-30 478,-30 478,-10 458,-10"/>
<text text-anchor="start" x="481.73" y="-15.4" font-family="sans-serif" font-size="14.00"> &#160;Exports</text>
<g id="clust1" class="cluster">
<title>cluster_PoliciesModule</title>
<polygon fill="none" stroke="black" stroke-dasharray="1,5" points="8,-70 8,-195 592,-195 592,-70 8,-70"/>
</g>
<g id="clust5" class="cluster">
<title>cluster_PoliciesModule_imports</title>
<polygon fill="none" stroke="black" points="420,-78 420,-130 584,-130 584,-78 420,-78"/>
</g>
<g id="clust2" class="cluster">
<title>cluster_PoliciesModule_declarations</title>
<polygon fill="none" stroke="black" points="16,-78 16,-130 412,-130 412,-78 16,-78"/>
</g>
<!-- PrivacyPolicyComponent -->
<g id="node1" class="node">
<title>PrivacyPolicyComponent</title>
<polygon fill="#ffffb3" stroke="black" points="403.87,-122 244.13,-122 244.13,-86 403.87,-86 403.87,-122"/>
<text text-anchor="middle" x="324" y="-99.8" font-family="Times,serif" font-size="14.00">PrivacyPolicyComponent</text>
</g>
<!-- PoliciesModule -->
<g id="node3" class="node">
<title>PoliciesModule</title>
<polygon fill="#8dd3c7" stroke="black" points="375.88,-187 372.88,-191 351.88,-191 348.88,-187 272.12,-187 272.12,-151 375.88,-151 375.88,-187"/>
<text text-anchor="middle" x="324" y="-164.8" font-family="Times,serif" font-size="14.00">PoliciesModule</text>
</g>
<!-- PrivacyPolicyComponent&#45;&gt;PoliciesModule -->
<g id="edge1" class="edge">
<title>PrivacyPolicyComponent&#45;&gt;PoliciesModule</title>
<path fill="none" stroke="black" d="M324,-122.11C324,-122.11 324,-140.99 324,-140.99"/>
<polygon fill="black" stroke="black" points="320.5,-140.99 324,-150.99 327.5,-140.99 320.5,-140.99"/>
</g>
<!-- TermsAndConditionsComponent -->
<g id="node2" class="node">
<title>TermsAndConditionsComponent</title>
<polygon fill="#ffffb3" stroke="black" points="226.16,-122 23.84,-122 23.84,-86 226.16,-86 226.16,-122"/>
<text text-anchor="middle" x="125" y="-99.8" font-family="Times,serif" font-size="14.00">TermsAndConditionsComponent</text>
</g>
<!-- TermsAndConditionsComponent&#45;&gt;PoliciesModule -->
<g id="edge2" class="edge">
<title>TermsAndConditionsComponent&#45;&gt;PoliciesModule</title>
<path fill="none" stroke="black" d="M125,-122.11C125,-141.34 125,-169 125,-169 125,-169 261.98,-169 261.98,-169"/>
<polygon fill="black" stroke="black" points="261.98,-172.5 271.98,-169 261.97,-165.5 261.98,-172.5"/>
</g>
<!-- PoliciesRoutingModule -->
<g id="node4" class="node">
<title>PoliciesRoutingModule</title>
<polygon fill="#8dd3c7" stroke="black" points="576.5,-122 573.5,-126 552.5,-126 549.5,-122 427.5,-122 427.5,-86 576.5,-86 576.5,-122"/>
<text text-anchor="middle" x="502" y="-99.8" font-family="Times,serif" font-size="14.00">PoliciesRoutingModule</text>
</g>
<!-- PoliciesRoutingModule&#45;&gt;PoliciesModule -->
<g id="edge3" class="edge">
<title>PoliciesRoutingModule&#45;&gt;PoliciesModule</title>
<path fill="none" stroke="black" d="M502,-122.11C502,-141.34 502,-169 502,-169 502,-169 385.96,-169 385.96,-169"/>
<polygon fill="black" stroke="black" points="385.96,-165.5 375.96,-169 385.96,-172.5 385.96,-165.5"/>
</g>
</g>
</svg>
