<?xml version="1.0" encoding="UTF-8" standalone="no"?>
<!DOCTYPE svg PUBLIC "-//W3C//DTD SVG 1.1//EN"
 "http://www.w3.org/Graphics/SVG/1.1/DTD/svg11.dtd">
<!-- Generated by graphviz version 2.47.3 (20210619.1520)
 -->
<!-- Title: dependencies Pages: 1 -->
<svg width="608pt" height="174pt"
 viewBox="0.00 0.00 608.00 173.80" xmlns="http://www.w3.org/2000/svg" xmlns:xlink="http://www.w3.org/1999/xlink">
<g id="graph0" class="graph" transform="scale(1 1) rotate(0) translate(4 169.8)">
<title>dependencies</title>
<polygon fill="white" stroke="transparent" points="-4,4 -4,-169.8 604,-169.8 604,4 -4,4"/>
<text text-anchor="middle" x="300" y="-8.2" font-family="sans-serif" font-size="14.00">dependencies</text>
<g id="clust1" class="cluster">
<title>cluster_PoliciesModule</title>
<polygon fill="none" stroke="black" stroke-dasharray="1,5" points="8,-32.8 8,-157.8 592,-157.8 592,-32.8 8,-32.8"/>
</g>
<g id="clust2" class="cluster">
<title>cluster_PoliciesModule_declarations</title>
<polygon fill="none" stroke="black" points="188,-40.8 188,-92.8 584,-92.8 584,-40.8 188,-40.8"/>
</g>
<g id="clust5" class="cluster">
<title>cluster_PoliciesModule_imports</title>
<polygon fill="none" stroke="black" points="16,-40.8 16,-92.8 180,-92.8 180,-40.8 16,-40.8"/>
</g>
<!-- PrivacyPolicyComponent -->
<g id="node1" class="node">
<title>PrivacyPolicyComponent</title>
<polygon fill="#ffffb3" stroke="black" points="575.87,-84.8 416.13,-84.8 416.13,-48.8 575.87,-48.8 575.87,-84.8"/>
<text text-anchor="middle" x="496" y="-62.6" font-family="Times,serif" font-size="14.00">PrivacyPolicyComponent</text>
</g>
<!-- PoliciesModule -->
<g id="node3" class="node">
<title>PoliciesModule</title>
<polygon fill="#8dd3c7" stroke="black" points="348.88,-149.8 345.88,-153.8 324.88,-153.8 321.88,-149.8 245.12,-149.8 245.12,-113.8 348.88,-113.8 348.88,-149.8"/>
<text text-anchor="middle" x="297" y="-127.6" font-family="Times,serif" font-size="14.00">PoliciesModule</text>
</g>
<!-- PrivacyPolicyComponent&#45;&gt;PoliciesModule -->
<g id="edge1" class="edge">
<title>PrivacyPolicyComponent&#45;&gt;PoliciesModule</title>
<path fill="none" stroke="black" d="M496,-84.91C496,-104.14 496,-131.8 496,-131.8 496,-131.8 359.02,-131.8 359.02,-131.8"/>
<polygon fill="black" stroke="black" points="359.03,-128.3 349.02,-131.8 359.02,-135.3 359.03,-128.3"/>
</g>
<!-- TermsAndConditionsComponent -->
<g id="node2" class="node">
<title>TermsAndConditionsComponent</title>
<polygon fill="#ffffb3" stroke="black" points="398.16,-84.8 195.84,-84.8 195.84,-48.8 398.16,-48.8 398.16,-84.8"/>
<text text-anchor="middle" x="297" y="-62.6" font-family="Times,serif" font-size="14.00">TermsAndConditionsComponent</text>
</g>
<!-- TermsAndConditionsComponent&#45;&gt;PoliciesModule -->
<g id="edge2" class="edge">
<title>TermsAndConditionsComponent&#45;&gt;PoliciesModule</title>
<path fill="none" stroke="black" d="M297,-84.91C297,-84.91 297,-103.79 297,-103.79"/>
<polygon fill="black" stroke="black" points="293.5,-103.79 297,-113.79 300.5,-103.79 293.5,-103.79"/>
</g>
<!-- PoliciesRoutingModule -->
<g id="node4" class="node">
<title>PoliciesRoutingModule</title>
<polygon fill="#8dd3c7" stroke="black" points="172.5,-84.8 169.5,-88.8 148.5,-88.8 145.5,-84.8 23.5,-84.8 23.5,-48.8 172.5,-48.8 172.5,-84.8"/>
<text text-anchor="middle" x="98" y="-62.6" font-family="Times,serif" font-size="14.00">PoliciesRoutingModule</text>
</g>
<!-- PoliciesRoutingModule&#45;&gt;PoliciesModule -->
<g id="edge3" class="edge">
<title>PoliciesRoutingModule&#45;&gt;PoliciesModule</title>
<path fill="none" stroke="black" d="M98,-84.91C98,-104.14 98,-131.8 98,-131.8 98,-131.8 234.98,-131.8 234.98,-131.8"/>
<polygon fill="black" stroke="black" points="234.98,-135.3 244.98,-131.8 234.97,-128.3 234.98,-135.3"/>
</g>
</g>
</svg>
