<?xml version="1.0" encoding="UTF-8" standalone="no"?>
<!DOCTYPE svg PUBLIC "-//W3C//DTD SVG 1.1//EN"
 "http://www.w3.org/Graphics/SVG/1.1/DTD/svg11.dtd">
<!-- Generated by graphviz version 2.47.3 (20210619.1520)
 -->
<!-- Title: dependencies Pages: 1 -->
<svg width="400pt" height="312pt"
 viewBox="0.00 0.00 400.00 311.80" xmlns="http://www.w3.org/2000/svg" xmlns:xlink="http://www.w3.org/1999/xlink">
<g id="graph0" class="graph" transform="scale(1 1) rotate(0) translate(4 307.8)">
<title>dependencies</title>
<polygon fill="white" stroke="transparent" points="-4,4 -4,-307.8 396,-307.8 396,4 -4,4"/>
<text text-anchor="middle" x="196" y="-8.2" font-family="sans-serif" font-size="14.00">dependencies</text>
<g id="clust1" class="cluster">
<title>cluster_SharedDirectivesModule</title>
<polygon fill="none" stroke="black" stroke-dasharray="1,5" points="8,-32.8 8,-295.8 384,-295.8 384,-32.8 8,-32.8"/>
</g>
<g id="clust2" class="cluster">
<title>cluster_SharedDirectivesModule_declarations</title>
<polygon fill="none" stroke="black" points="16,-105.8 16,-157.8 369,-157.8 369,-105.8 16,-105.8"/>
</g>
<g id="clust4" class="cluster">
<title>cluster_SharedDirectivesModule_LazyLoadImagesDirective_providers</title>
<polygon fill="none" stroke="black" points="19,-40.8 19,-92.8 195,-92.8 195,-40.8 19,-40.8"/>
</g>
<g id="clust6" class="cluster">
<title>cluster_SharedDirectivesModule_exports</title>
<polygon fill="none" stroke="black" points="16,-235.8 16,-287.8 376,-287.8 376,-235.8 16,-235.8"/>
</g>
<!-- HighlightLinksDirective -->
<g id="node1" class="node">
<title>HighlightLinksDirective</title>
<polygon fill="#ffffb3" stroke="black" points="360.64,-149.8 207.36,-149.8 207.36,-113.8 360.64,-113.8 360.64,-149.8"/>
<text text-anchor="middle" x="284" y="-127.6" font-family="Times,serif" font-size="14.00">HighlightLinksDirective</text>
</g>
<!-- SharedDirectivesModule -->
<g id="node3" class="node">
<title>SharedDirectivesModule</title>
<polygon fill="#8dd3c7" stroke="black" points="273.95,-214.8 270.95,-218.8 249.95,-218.8 246.95,-214.8 118.05,-214.8 118.05,-178.8 273.95,-178.8 273.95,-214.8"/>
<text text-anchor="middle" x="196" y="-192.6" font-family="Times,serif" font-size="14.00">SharedDirectivesModule</text>
</g>
<!-- HighlightLinksDirective&#45;&gt;SharedDirectivesModule -->
<g id="edge1" class="edge">
<title>HighlightLinksDirective&#45;&gt;SharedDirectivesModule</title>
<path fill="none" stroke="black" d="M240.58,-149.91C240.58,-149.91 240.58,-168.79 240.58,-168.79"/>
<polygon fill="black" stroke="black" points="237.08,-168.79 240.58,-178.79 244.08,-168.79 237.08,-168.79"/>
</g>
<!-- LazyLoadImagesDirective -->
<g id="node2" class="node">
<title>LazyLoadImagesDirective</title>
<polygon fill="#ffffb3" stroke="black" points="189.76,-149.8 24.24,-149.8 24.24,-113.8 189.76,-113.8 189.76,-149.8"/>
<text text-anchor="middle" x="107" y="-127.6" font-family="Times,serif" font-size="14.00">LazyLoadImagesDirective</text>
</g>
<!-- LazyLoadImagesDirective&#45;&gt;SharedDirectivesModule -->
<g id="edge2" class="edge">
<title>LazyLoadImagesDirective&#45;&gt;SharedDirectivesModule</title>
<path fill="none" stroke="black" d="M153.83,-149.91C153.83,-149.91 153.83,-168.79 153.83,-168.79"/>
<polygon fill="black" stroke="black" points="150.33,-168.79 153.83,-178.79 157.33,-168.79 150.33,-168.79"/>
</g>
<!-- HighlightLinksDirective  -->
<g id="node5" class="node">
<title>HighlightLinksDirective </title>
<polygon fill="#fb8072" stroke="black" points="367.64,-279.8 210.36,-279.8 210.36,-243.8 367.64,-243.8 367.64,-279.8"/>
<text text-anchor="middle" x="289" y="-257.6" font-family="Times,serif" font-size="14.00">HighlightLinksDirective </text>
</g>
<!-- SharedDirectivesModule&#45;&gt;HighlightLinksDirective  -->
<g id="edge4" class="edge">
<title>SharedDirectivesModule&#45;&gt;HighlightLinksDirective </title>
<path fill="none" stroke="black" stroke-dasharray="5,2" d="M242.2,-214.91C242.2,-214.91 242.2,-233.79 242.2,-233.79"/>
<polygon fill="black" stroke="black" points="238.7,-233.79 242.2,-243.79 245.7,-233.79 238.7,-233.79"/>
</g>
<!-- LazyLoadImagesDirective  -->
<g id="node6" class="node">
<title>LazyLoadImagesDirective </title>
<polygon fill="#fb8072" stroke="black" points="192.26,-279.8 23.74,-279.8 23.74,-243.8 192.26,-243.8 192.26,-279.8"/>
<text text-anchor="middle" x="108" y="-257.6" font-family="Times,serif" font-size="14.00">LazyLoadImagesDirective </text>
</g>
<!-- SharedDirectivesModule&#45;&gt;LazyLoadImagesDirective  -->
<g id="edge5" class="edge">
<title>SharedDirectivesModule&#45;&gt;LazyLoadImagesDirective </title>
<path fill="none" stroke="black" stroke-dasharray="5,2" d="M155.2,-214.91C155.2,-214.91 155.2,-233.79 155.2,-233.79"/>
<polygon fill="black" stroke="black" points="151.7,-233.79 155.2,-243.79 158.7,-233.79 151.7,-233.79"/>
</g>
<!-- IsBrowserService -->
<g id="node4" class="node">
<title>IsBrowserService</title>
<ellipse fill="#fdb462" stroke="black" cx="107" cy="-66.8" rx="79.85" ry="18"/>
<text text-anchor="middle" x="107" y="-62.6" font-family="Times,serif" font-size="14.00">IsBrowserService</text>
</g>
<!-- IsBrowserService&#45;&gt;LazyLoadImagesDirective -->
<g id="edge3" class="edge">
<title>IsBrowserService&#45;&gt;LazyLoadImagesDirective</title>
<path fill="none" stroke="black" d="M107,-84.91C107,-84.91 107,-103.79 107,-103.79"/>
<polygon fill="black" stroke="black" points="103.5,-103.79 107,-113.79 110.5,-103.79 103.5,-103.79"/>
</g>
</g>
</svg>
