<?xml version="1.0" encoding="UTF-8" standalone="no"?>
<!DOCTYPE svg PUBLIC "-//W3C//DTD SVG 1.1//EN"
 "http://www.w3.org/Graphics/SVG/1.1/DTD/svg11.dtd">
<!-- Generated by graphviz version 5.0.0 (20220707.1540)
 -->
<!-- Title: dependencies Pages: 1 -->
<svg width="720pt" height="247pt"
 viewBox="0.00 0.00 720.00 246.80" xmlns="http://www.w3.org/2000/svg" xmlns:xlink="http://www.w3.org/1999/xlink">
<g id="graph0" class="graph" transform="scale(1 1) rotate(0) translate(4 242.8)">
<title>dependencies</title>
<polygon fill="white" stroke="transparent" points="-4,4 -4,-242.8 716,-242.8 716,4 -4,4"/>
<text text-anchor="middle" x="356" y="-8.2" font-family="sans-serif" font-size="14.00">dependencies</text>
<g id="clust1" class="cluster">
<title>cluster_SharedDirectivesModule</title>
<polygon fill="none" stroke="black" stroke-dasharray="1,5" points="8,-32.8 8,-230.8 704,-230.8 704,-32.8 8,-32.8"/>
</g>
<g id="clust2" class="cluster">
<title>cluster_SharedDirectivesModule_declarations</title>
<polygon fill="none" stroke="black" points="24,-40.8 24,-92.8 691,-92.8 691,-40.8 24,-40.8"/>
</g>
<g id="clust8" class="cluster">
<title>cluster_SharedDirectivesModule_exports</title>
<polygon fill="none" stroke="black" points="16,-170.8 16,-222.8 696,-222.8 696,-170.8 16,-170.8"/>
</g>
<!-- BreakpointsDirective -->
<g id="node1" class="node">
<title>BreakpointsDirective</title>
<polygon fill="#ffffb3" stroke="black" points="682.74,-84.8 547.26,-84.8 547.26,-48.8 682.74,-48.8 682.74,-84.8"/>
<text text-anchor="middle" x="615" y="-62.6" font-family="Times,serif" font-size="14.00">BreakpointsDirective</text>
</g>
<!-- SharedDirectivesModule -->
<g id="node5" class="node">
<title>SharedDirectivesModule</title>
<polygon fill="#8dd3c7" stroke="black" points="371.96,-149.8 368.96,-153.8 347.96,-153.8 344.96,-149.8 216.04,-149.8 216.04,-113.8 371.96,-113.8 371.96,-149.8"/>
<text text-anchor="middle" x="294" y="-127.6" font-family="Times,serif" font-size="14.00">SharedDirectivesModule</text>
</g>
<!-- BreakpointsDirective&#45;&gt;SharedDirectivesModule -->
<g id="edge1" class="edge">
<title>BreakpointsDirective&#45;&gt;SharedDirectivesModule</title>
<path fill="none" stroke="black" d="M638.04,-85.07C638.04,-103.36 638.04,-128.8 638.04,-128.8 638.04,-128.8 382.07,-128.8 382.07,-128.8"/>
<polygon fill="black" stroke="black" points="382.07,-125.3 372.07,-128.8 382.07,-132.3 382.07,-125.3"/>
</g>
<!-- ClickOutsideDirective -->
<g id="node2" class="node">
<title>ClickOutsideDirective</title>
<polygon fill="#ffffb3" stroke="black" points="528.97,-84.8 387.03,-84.8 387.03,-48.8 528.97,-48.8 528.97,-84.8"/>
<text text-anchor="middle" x="458" y="-62.6" font-family="Times,serif" font-size="14.00">ClickOutsideDirective</text>
</g>
<!-- ClickOutsideDirective&#45;&gt;SharedDirectivesModule -->
<g id="edge2" class="edge">
<title>ClickOutsideDirective&#45;&gt;SharedDirectivesModule</title>
<path fill="none" stroke="black" d="M481.66,-84.81C481.66,-100.85 481.66,-121.8 481.66,-121.8 481.66,-121.8 382.23,-121.8 382.23,-121.8"/>
<polygon fill="black" stroke="black" points="382.23,-118.3 372.23,-121.8 382.23,-125.3 382.23,-118.3"/>
</g>
<!-- HighlightLinksDirective -->
<g id="node3" class="node">
<title>HighlightLinksDirective</title>
<polygon fill="#ffffb3" stroke="black" points="368.64,-84.8 215.36,-84.8 215.36,-48.8 368.64,-48.8 368.64,-84.8"/>
<text text-anchor="middle" x="292" y="-62.6" font-family="Times,serif" font-size="14.00">HighlightLinksDirective</text>
</g>
<!-- HighlightLinksDirective&#45;&gt;SharedDirectivesModule -->
<g id="edge3" class="edge">
<title>HighlightLinksDirective&#45;&gt;SharedDirectivesModule</title>
<path fill="none" stroke="black" d="M292.42,-84.91C292.42,-84.91 292.42,-103.79 292.42,-103.79"/>
<polygon fill="black" stroke="black" points="288.92,-103.79 292.42,-113.79 295.92,-103.79 288.92,-103.79"/>
</g>
<!-- LazyLoadImagesDirective -->
<g id="node4" class="node">
<title>LazyLoadImagesDirective</title>
<polygon fill="#ffffb3" stroke="black" points="197.76,-84.8 32.24,-84.8 32.24,-48.8 197.76,-48.8 197.76,-84.8"/>
<text text-anchor="middle" x="115" y="-62.6" font-family="Times,serif" font-size="14.00">LazyLoadImagesDirective</text>
</g>
<!-- LazyLoadImagesDirective&#45;&gt;SharedDirectivesModule -->
<g id="edge4" class="edge">
<title>LazyLoadImagesDirective&#45;&gt;SharedDirectivesModule</title>
<path fill="none" stroke="black" d="M139.04,-84.82C139.04,-102.17 139.04,-125.8 139.04,-125.8 139.04,-125.8 205.61,-125.8 205.61,-125.8"/>
<polygon fill="black" stroke="black" points="205.61,-129.3 215.61,-125.8 205.61,-122.3 205.61,-129.3"/>
</g>
<!-- BreakpointsDirective  -->
<g id="node6" class="node">
<title>BreakpointsDirective </title>
<polygon fill="#fb8072" stroke="black" points="687.74,-214.8 548.26,-214.8 548.26,-178.8 687.74,-178.8 687.74,-214.8"/>
<text text-anchor="middle" x="618" y="-192.6" font-family="Times,serif" font-size="14.00">BreakpointsDirective </text>
</g>
<!-- SharedDirectivesModule&#45;&gt;BreakpointsDirective  -->
<g id="edge5" class="edge">
<title>SharedDirectivesModule&#45;&gt;BreakpointsDirective </title>
<path fill="none" stroke="black" stroke-dasharray="5,2" d="M372.22,-135.8C460.88,-135.8 593.21,-135.8 593.21,-135.8 593.21,-135.8 593.21,-168.5 593.21,-168.5"/>
<polygon fill="black" stroke="black" points="589.71,-168.5 593.21,-178.5 596.71,-168.5 589.71,-168.5"/>
</g>
<!-- ClickOutsideDirective  -->
<g id="node7" class="node">
<title>ClickOutsideDirective </title>
<polygon fill="#fb8072" stroke="black" points="530.97,-214.8 385.03,-214.8 385.03,-178.8 530.97,-178.8 530.97,-214.8"/>
<text text-anchor="middle" x="458" y="-192.6" font-family="Times,serif" font-size="14.00">ClickOutsideDirective </text>
</g>
<!-- SharedDirectivesModule&#45;&gt;ClickOutsideDirective  -->
<g id="edge6" class="edge">
<title>SharedDirectivesModule&#45;&gt;ClickOutsideDirective </title>
<path fill="none" stroke="black" stroke-dasharray="5,2" d="M371.97,-142.8C404.27,-142.8 434.34,-142.8 434.34,-142.8 434.34,-142.8 434.34,-168.52 434.34,-168.52"/>
<polygon fill="black" stroke="black" points="430.84,-168.52 434.34,-178.52 437.84,-168.52 430.84,-168.52"/>
</g>
<!-- HighlightLinksDirective  -->
<g id="node8" class="node">
<title>HighlightLinksDirective </title>
<polygon fill="#fb8072" stroke="black" points="367.64,-214.8 210.36,-214.8 210.36,-178.8 367.64,-178.8 367.64,-214.8"/>
<text text-anchor="middle" x="289" y="-192.6" font-family="Times,serif" font-size="14.00">HighlightLinksDirective </text>
</g>
<!-- SharedDirectivesModule&#45;&gt;HighlightLinksDirective  -->
<g id="edge7" class="edge">
<title>SharedDirectivesModule&#45;&gt;HighlightLinksDirective </title>
<path fill="none" stroke="black" stroke-dasharray="5,2" d="M291.8,-149.91C291.8,-149.91 291.8,-168.79 291.8,-168.79"/>
<polygon fill="black" stroke="black" points="288.3,-168.79 291.8,-178.79 295.3,-168.79 288.3,-168.79"/>
</g>
<!-- LazyLoadImagesDirective  -->
<g id="node9" class="node">
<title>LazyLoadImagesDirective </title>
<polygon fill="#fb8072" stroke="black" points="192.26,-214.8 23.74,-214.8 23.74,-178.8 192.26,-178.8 192.26,-214.8"/>
<text text-anchor="middle" x="108" y="-192.6" font-family="Times,serif" font-size="14.00">LazyLoadImagesDirective </text>
</g>
<!-- SharedDirectivesModule&#45;&gt;LazyLoadImagesDirective  -->
<g id="edge8" class="edge">
<title>SharedDirectivesModule&#45;&gt;LazyLoadImagesDirective </title>
<path fill="none" stroke="black" stroke-dasharray="5,2" d="M215.85,-137.8C156.74,-137.8 85.71,-137.8 85.71,-137.8 85.71,-137.8 85.71,-168.78 85.71,-168.78"/>
<polygon fill="black" stroke="black" points="82.21,-168.78 85.71,-178.78 89.21,-168.78 82.21,-168.78"/>
</g>
</g>
</svg>
