<?xml version="1.0" encoding="UTF-8" standalone="no"?>
<!DOCTYPE svg PUBLIC "-//W3C//DTD SVG 1.1//EN"
 "http://www.w3.org/Graphics/SVG/1.1/DTD/svg11.dtd">
<!-- Generated by graphviz version 2.47.3 (20210619.1520)
 -->
<!-- Title: dependencies Pages: 1 -->
<svg width="557pt" height="247pt"
 viewBox="0.00 0.00 557.00 246.80" xmlns="http://www.w3.org/2000/svg" xmlns:xlink="http://www.w3.org/1999/xlink">
<g id="graph0" class="graph" transform="scale(1 1) rotate(0) translate(4 242.8)">
<title>dependencies</title>
<polygon fill="white" stroke="transparent" points="-4,4 -4,-242.8 553,-242.8 553,4 -4,4"/>
<text text-anchor="middle" x="274.5" y="-8.2" font-family="sans-serif" font-size="14.00">dependencies</text>
<g id="clust1" class="cluster">
<title>cluster_UserChatsModule</title>
<polygon fill="none" stroke="black" stroke-dasharray="1,5" points="8,-32.8 8,-230.8 541,-230.8 541,-32.8 8,-32.8"/>
</g>
<g id="clust2" class="cluster">
<title>cluster_UserChatsModule_declarations</title>
<polygon fill="none" stroke="black" points="16,-40.8 16,-92.8 533,-92.8 533,-40.8 16,-40.8"/>
</g>
<g id="clust7" class="cluster">
<title>cluster_UserChatsModule_exports</title>
<polygon fill="none" stroke="black" points="177,-170.8 177,-222.8 365,-222.8 365,-170.8 177,-170.8"/>
</g>
<!-- ChatsContainerComponent -->
<g id="node1" class="node">
<title>ChatsContainerComponent</title>
<polygon fill="#ffffb3" stroke="black" points="525.43,-84.8 356.57,-84.8 356.57,-48.8 525.43,-48.8 525.43,-84.8"/>
<text text-anchor="middle" x="441" y="-62.6" font-family="Times,serif" font-size="14.00">ChatsContainerComponent</text>
</g>
<!-- UserChatsModule -->
<g id="node4" class="node">
<title>UserChatsModule</title>
<polygon fill="#8dd3c7" stroke="black" points="329.86,-149.8 326.86,-153.8 305.86,-153.8 302.86,-149.8 212.14,-149.8 212.14,-113.8 329.86,-113.8 329.86,-149.8"/>
<text text-anchor="middle" x="271" y="-127.6" font-family="Times,serif" font-size="14.00">UserChatsModule</text>
</g>
<!-- ChatsContainerComponent&#45;&gt;UserChatsModule -->
<g id="edge1" class="edge">
<title>ChatsContainerComponent&#45;&gt;UserChatsModule</title>
<path fill="none" stroke="black" d="M441.09,-84.91C441.09,-104.14 441.09,-131.8 441.09,-131.8 441.09,-131.8 340.01,-131.8 340.01,-131.8"/>
<polygon fill="black" stroke="black" points="340.01,-128.3 330.01,-131.8 340.01,-135.3 340.01,-128.3"/>
</g>
<!-- ChatsListComponent -->
<g id="node2" class="node">
<title>ChatsListComponent</title>
<polygon fill="#ffffb3" stroke="black" points="338.5,-84.8 203.5,-84.8 203.5,-48.8 338.5,-48.8 338.5,-84.8"/>
<text text-anchor="middle" x="271" y="-62.6" font-family="Times,serif" font-size="14.00">ChatsListComponent</text>
</g>
<!-- ChatsListComponent&#45;&gt;UserChatsModule -->
<g id="edge2" class="edge">
<title>ChatsListComponent&#45;&gt;UserChatsModule</title>
<path fill="none" stroke="black" d="M271,-84.91C271,-84.91 271,-103.79 271,-103.79"/>
<polygon fill="black" stroke="black" points="267.5,-103.79 271,-113.79 274.5,-103.79 267.5,-103.79"/>
</g>
<!-- ChatsWindowComponent -->
<g id="node3" class="node">
<title>ChatsWindowComponent</title>
<polygon fill="#ffffb3" stroke="black" points="185.93,-84.8 24.07,-84.8 24.07,-48.8 185.93,-48.8 185.93,-84.8"/>
<text text-anchor="middle" x="105" y="-62.6" font-family="Times,serif" font-size="14.00">ChatsWindowComponent</text>
</g>
<!-- ChatsWindowComponent&#45;&gt;UserChatsModule -->
<g id="edge3" class="edge">
<title>ChatsWindowComponent&#45;&gt;UserChatsModule</title>
<path fill="none" stroke="black" d="M104.66,-84.91C104.66,-104.14 104.66,-131.8 104.66,-131.8 104.66,-131.8 201.89,-131.8 201.89,-131.8"/>
<polygon fill="black" stroke="black" points="201.89,-135.3 211.89,-131.8 201.89,-128.3 201.89,-135.3"/>
</g>
<!-- ChatsContainerComponent  -->
<g id="node5" class="node">
<title>ChatsContainerComponent </title>
<polygon fill="#fb8072" stroke="black" points="356.93,-214.8 185.07,-214.8 185.07,-178.8 356.93,-178.8 356.93,-214.8"/>
<text text-anchor="middle" x="271" y="-192.6" font-family="Times,serif" font-size="14.00">ChatsContainerComponent </text>
</g>
<!-- UserChatsModule&#45;&gt;ChatsContainerComponent  -->
<g id="edge4" class="edge">
<title>UserChatsModule&#45;&gt;ChatsContainerComponent </title>
<path fill="none" stroke="black" stroke-dasharray="5,2" d="M271,-149.91C271,-149.91 271,-168.79 271,-168.79"/>
<polygon fill="black" stroke="black" points="267.5,-168.79 271,-178.79 274.5,-168.79 267.5,-168.79"/>
</g>
</g>
</svg>
