<?xml version="1.0" encoding="UTF-8" standalone="no"?>
<!DOCTYPE svg PUBLIC "-//W3C//DTD SVG 1.1//EN"
 "http://www.w3.org/Graphics/SVG/1.1/DTD/svg11.dtd">
<!-- Generated by graphviz version 2.47.0 (20210316.0004)
 -->
<!-- Title: dependencies Pages: 1 -->
<svg width="557pt" height="284pt"
     viewBox="0.00 0.00 557.00 284.00" xmlns="http://www.w3.org/2000/svg">
<g id="graph0" class="graph" transform="scale(1 1) rotate(0) translate(4 280)">
<title>dependencies</title>
<polygon fill="white" stroke="transparent" points="-4,4 -4,-280 553,-280 553,4 -4,4"/>
<text text-anchor="start" x="253.51" y="-42.4" font-family="sans-serif" font-weight="bold" font-size="14.00">Legend</text>
<polygon fill="#ffffb3" stroke="transparent" points="40.5,-10 40.5,-30 60.5,-30 60.5,-10 40.5,-10"/>
<text text-anchor="start" x="64.13" y="-15.4" font-family="sans-serif" font-size="14.00"> &#160;Declarations</text>
<polygon fill="#8dd3c7" stroke="transparent" points="153.5,-10 153.5,-30 173.5,-30 173.5,-10 153.5,-10"/>
<text text-anchor="start" x="177.23" y="-15.4" font-family="sans-serif" font-size="14.00"> &#160;Module</text>
<polygon fill="#80b1d3" stroke="transparent" points="239.5,-10 239.5,-30 259.5,-30 259.5,-10 239.5,-10"/>
<text text-anchor="start" x="263.28" y="-15.4" font-family="sans-serif" font-size="14.00"> &#160;Bootstrap</text>
<polygon fill="#fdb462" stroke="transparent" points="336.5,-10 336.5,-30 356.5,-30 356.5,-10 336.5,-10"/>
<text text-anchor="start" x="360.17" y="-15.4" font-family="sans-serif" font-size="14.00"> &#160;Providers</text>
<polygon fill="#fb8072" stroke="transparent" points="432.5,-10 432.5,-30 452.5,-30 452.5,-10 432.5,-10"/>
<text text-anchor="start" x="456.23" y="-15.4" font-family="sans-serif" font-size="14.00"> &#160;Exports</text>
<g id="clust1" class="cluster">
<title>cluster_UserChatsModule</title>
<polygon fill="none" stroke="black" stroke-dasharray="1,5" points="8,-70 8,-268 541,-268 541,-70 8,-70"/>
</g>
<g id="clust2" class="cluster">
<title>cluster_UserChatsModule_declarations</title>
<polygon fill="none" stroke="black" points="16,-78 16,-130 533,-130 533,-78 16,-78"/>
</g>
<g id="clust7" class="cluster">
<title>cluster_UserChatsModule_exports</title>
<polygon fill="none" stroke="black" points="177,-208 177,-260 365,-260 365,-208 177,-208"/>
</g>
<!-- ChatsContainerComponent -->
<g id="node1" class="node">
<title>ChatsContainerComponent</title>
<polygon fill="#ffffb3" stroke="black" points="525.43,-122 356.57,-122 356.57,-86 525.43,-86 525.43,-122"/>
<text text-anchor="middle" x="441" y="-99.8" font-family="Times,serif" font-size="14.00">ChatsContainerComponent</text>
</g>
<!-- UserChatsModule -->
<g id="node4" class="node">
<title>UserChatsModule</title>
<polygon fill="#8dd3c7" stroke="black" points="329.86,-187 326.86,-191 305.86,-191 302.86,-187 212.14,-187 212.14,-151 329.86,-151 329.86,-187"/>
<text text-anchor="middle" x="271" y="-164.8" font-family="Times,serif" font-size="14.00">UserChatsModule</text>
</g>
<!-- ChatsContainerComponent&#45;&gt;UserChatsModule -->
<g id="edge1" class="edge">
<title>ChatsContainerComponent&#45;&gt;UserChatsModule</title>
<path fill="none" stroke="black" d="M441.09,-122.11C441.09,-141.34 441.09,-169 441.09,-169 441.09,-169 340.01,-169 340.01,-169"/>
<polygon fill="black" stroke="black" points="340.01,-165.5 330.01,-169 340.01,-172.5 340.01,-165.5"/>
</g>
<!-- ChatsListComponent -->
<g id="node2" class="node">
<title>ChatsListComponent</title>
<polygon fill="#ffffb3" stroke="black" points="338.5,-122 203.5,-122 203.5,-86 338.5,-86 338.5,-122"/>
<text text-anchor="middle" x="271" y="-99.8" font-family="Times,serif" font-size="14.00">ChatsListComponent</text>
</g>
<!-- ChatsListComponent&#45;&gt;UserChatsModule -->
<g id="edge2" class="edge">
<title>ChatsListComponent&#45;&gt;UserChatsModule</title>
<path fill="none" stroke="black" d="M271,-122.11C271,-122.11 271,-140.99 271,-140.99"/>
<polygon fill="black" stroke="black" points="267.5,-140.99 271,-150.99 274.5,-140.99 267.5,-140.99"/>
</g>
<!-- ChatsWindowComponent -->
<g id="node3" class="node">
<title>ChatsWindowComponent</title>
<polygon fill="#ffffb3" stroke="black" points="185.93,-122 24.07,-122 24.07,-86 185.93,-86 185.93,-122"/>
<text text-anchor="middle" x="105" y="-99.8" font-family="Times,serif" font-size="14.00">ChatsWindowComponent</text>
</g>
<!-- ChatsWindowComponent&#45;&gt;UserChatsModule -->
<g id="edge3" class="edge">
<title>ChatsWindowComponent&#45;&gt;UserChatsModule</title>
<path fill="none" stroke="black" d="M104.66,-122.11C104.66,-141.34 104.66,-169 104.66,-169 104.66,-169 201.89,-169 201.89,-169"/>
<polygon fill="black" stroke="black" points="201.89,-172.5 211.89,-169 201.89,-165.5 201.89,-172.5"/>
</g>
<!-- ChatsContainerComponent  -->
<g id="node5" class="node">
<title>ChatsContainerComponent </title>
<polygon fill="#fb8072" stroke="black" points="356.93,-252 185.07,-252 185.07,-216 356.93,-216 356.93,-252"/>
<text text-anchor="middle" x="271" y="-229.8" font-family="Times,serif" font-size="14.00">ChatsContainerComponent </text>
</g>
<!-- UserChatsModule&#45;&gt;ChatsContainerComponent  -->
<g id="edge4" class="edge">
<title>UserChatsModule&#45;&gt;ChatsContainerComponent </title>
<path fill="none" stroke="black" stroke-dasharray="5,2" d="M271,-187.11C271,-187.11 271,-205.99 271,-205.99"/>
<polygon fill="black" stroke="black" points="267.5,-205.99 271,-215.99 274.5,-205.99 267.5,-205.99"/>
</g>
</g>
</svg>
