<?xml version="1.0" encoding="UTF-8" standalone="no"?>
<!DOCTYPE svg PUBLIC "-//W3C//DTD SVG 1.1//EN"
 "http://www.w3.org/Graphics/SVG/1.1/DTD/svg11.dtd">
<!-- Generated by graphviz version 2.47.0 (20210316.0004)
 -->
<!-- Title: dependencies Pages: 1 -->
<svg width="2634pt" height="284pt"
     viewBox="0.00 0.00 2634.00 284.00" xmlns="http://www.w3.org/2000/svg">
<g id="graph0" class="graph" transform="scale(1 1) rotate(0) translate(4 280)">
<title>dependencies</title>
<polygon fill="white" stroke="transparent" points="-4,4 -4,-280 2630,-280 2630,4 -4,4"/>
<text text-anchor="start" x="1292.01" y="-42.4" font-family="sans-serif" font-weight="bold" font-size="14.00">Legend</text>
<polygon fill="#ffffb3" stroke="transparent" points="1079,-10 1079,-30 1099,-30 1099,-10 1079,-10"/>
<text text-anchor="start" x="1102.63" y="-15.4" font-family="sans-serif" font-size="14.00"> &#160;Declarations</text>
<polygon fill="#8dd3c7" stroke="transparent" points="1192,-10 1192,-30 1212,-30 1212,-10 1192,-10"/>
<text text-anchor="start" x="1215.73" y="-15.4" font-family="sans-serif" font-size="14.00"> &#160;Module</text>
<polygon fill="#80b1d3" stroke="transparent" points="1278,-10 1278,-30 1298,-30 1298,-10 1278,-10"/>
<text text-anchor="start" x="1301.78" y="-15.4" font-family="sans-serif" font-size="14.00"> &#160;Bootstrap</text>
<polygon fill="#fdb462" stroke="transparent" points="1375,-10 1375,-30 1395,-30 1395,-10 1375,-10"/>
<text text-anchor="start" x="1398.67" y="-15.4" font-family="sans-serif" font-size="14.00"> &#160;Providers</text>
<polygon fill="#fb8072" stroke="transparent" points="1471,-10 1471,-30 1491,-30 1491,-10 1471,-10"/>
<text text-anchor="start" x="1494.73" y="-15.4" font-family="sans-serif" font-size="14.00"> &#160;Exports</text>
<g id="clust1" class="cluster">
<title>cluster_LabsModule</title>
<polygon fill="none" stroke="black" stroke-dasharray="1,5" points="8,-70 8,-268 2618,-268 2618,-70 8,-70"/>
</g>
<g id="clust2" class="cluster">
<title>cluster_LabsModule_declarations</title>
<polygon fill="none" stroke="black" points="172,-78 172,-130 2610,-130 2610,-78 172,-78"/>
</g>
<g id="clust18" class="cluster">
<title>cluster_LabsModule_imports</title>
<polygon fill="none" stroke="black" points="16,-78 16,-130 164,-130 164,-78 16,-78"/>
</g>
<g id="clust19" class="cluster">
<title>cluster_LabsModule_exports</title>
<polygon fill="none" stroke="black" points="1140,-208 1140,-260 1497,-260 1497,-208 1140,-208"/>
</g>
<!-- ClickOutsideDirective -->
<g id="node1" class="node">
<title>ClickOutsideDirective</title>
<polygon fill="#ffffb3" stroke="black" points="2601.96,-122 2460.04,-122 2460.04,-86 2601.96,-86 2601.96,-122"/>
<text text-anchor="middle" x="2531" y="-99.8" font-family="Times,serif" font-size="14.00">ClickOutsideDirective</text>
</g>
<!-- LabsModule -->
<g id="node16" class="node">
<title>LabsModule</title>
<polygon fill="#8dd3c7" stroke="black" points="1369.26,-187 1366.26,-191 1345.26,-191 1342.26,-187 1282.74,-187 1282.74,-151 1369.26,-151 1369.26,-187"/>
<text text-anchor="middle" x="1326" y="-164.8" font-family="Times,serif" font-size="14.00">LabsModule</text>
</g>
<!-- ClickOutsideDirective&#45;&gt;LabsModule -->
<g id="edge1" class="edge">
<title>ClickOutsideDirective&#45;&gt;LabsModule</title>
<path fill="none" stroke="black" d="M2531,-122.32C2531,-145.66 2531,-183 2531,-183 2531,-183 1379.6,-183 1379.6,-183"/>
<polygon fill="black" stroke="black" points="1379.6,-179.5 1369.6,-183 1379.6,-186.5 1379.6,-179.5"/>
</g>
<!-- CreateLabComponent -->
<g id="node2" class="node">
<title>CreateLabComponent</title>
<polygon fill="#ffffb3" stroke="black" points="2441.63,-122 2302.37,-122 2302.37,-86 2441.63,-86 2441.63,-122"/>
<text text-anchor="middle" x="2372" y="-99.8" font-family="Times,serif" font-size="14.00">CreateLabComponent</text>
</g>
<!-- CreateLabComponent&#45;&gt;LabsModule -->
<g id="edge2" class="edge">
<title>CreateLabComponent&#45;&gt;LabsModule</title>
<path fill="none" stroke="black" d="M2372,-122.29C2372,-144.21 2372,-178 2372,-178 2372,-178 1379.28,-178 1379.28,-178"/>
<polygon fill="black" stroke="black" points="1379.28,-174.5 1369.28,-178 1379.28,-181.5 1379.28,-174.5"/>
</g>
<!-- EditLabComponent -->
<g id="node3" class="node">
<title>EditLabComponent</title>
<polygon fill="#ffffb3" stroke="black" points="2284.43,-122 2157.57,-122 2157.57,-86 2284.43,-86 2284.43,-122"/>
<text text-anchor="middle" x="2221" y="-99.8" font-family="Times,serif" font-size="14.00">EditLabComponent</text>
</g>
<!-- EditLabComponent&#45;&gt;LabsModule -->
<g id="edge3" class="edge">
<title>EditLabComponent&#45;&gt;LabsModule</title>
<path fill="none" stroke="black" d="M2221,-122.03C2221,-142.77 2221,-174 2221,-174 2221,-174 1379.47,-174 1379.47,-174"/>
<polygon fill="black" stroke="black" points="1379.47,-170.5 1369.47,-174 1379.47,-177.5 1379.47,-170.5"/>
</g>
<!-- HeaderBannerComponent -->
<g id="node4" class="node">
<title>HeaderBannerComponent</title>
<polygon fill="#ffffb3" stroke="black" points="2140.17,-122 1977.83,-122 1977.83,-86 2140.17,-86 2140.17,-122"/>
<text text-anchor="middle" x="2059" y="-99.8" font-family="Times,serif" font-size="14.00">HeaderBannerComponent</text>
</g>
<!-- HeaderBannerComponent&#45;&gt;LabsModule -->
<g id="edge4" class="edge">
<title>HeaderBannerComponent&#45;&gt;LabsModule</title>
<path fill="none" stroke="black" d="M2059,-122.11C2059,-141.34 2059,-169 2059,-169 2059,-169 1379.39,-169 1379.39,-169"/>
<polygon fill="black" stroke="black" points="1379.39,-165.5 1369.39,-169 1379.39,-172.5 1379.39,-165.5"/>
</g>
<!-- HeaderTextComponent -->
<g id="node5" class="node">
<title>HeaderTextComponent</title>
<polygon fill="#ffffb3" stroke="black" points="1959.9,-122 1812.1,-122 1812.1,-86 1959.9,-86 1959.9,-122"/>
<text text-anchor="middle" x="1886" y="-99.8" font-family="Times,serif" font-size="14.00">HeaderTextComponent</text>
</g>
<!-- HeaderTextComponent&#45;&gt;LabsModule -->
<g id="edge5" class="edge">
<title>HeaderTextComponent&#45;&gt;LabsModule</title>
<path fill="none" stroke="black" d="M1886,-122.3C1886,-140.27 1886,-165 1886,-165 1886,-165 1379.48,-165 1379.48,-165"/>
<polygon fill="black" stroke="black" points="1379.48,-161.5 1369.48,-165 1379.48,-168.5 1379.48,-161.5"/>
</g>
<!-- LabComponent -->
<g id="node6" class="node">
<title>LabComponent</title>
<polygon fill="#ffffb3" stroke="black" points="1794.6,-122 1691.4,-122 1691.4,-86 1794.6,-86 1794.6,-122"/>
<text text-anchor="middle" x="1743" y="-99.8" font-family="Times,serif" font-size="14.00">LabComponent</text>
</g>
<!-- LabComponent&#45;&gt;LabsModule -->
<g id="edge6" class="edge">
<title>LabComponent&#45;&gt;LabsModule</title>
<path fill="none" stroke="black" d="M1743,-122.03C1743,-138.4 1743,-160 1743,-160 1743,-160 1379.45,-160 1379.45,-160"/>
<polygon fill="black" stroke="black" points="1379.45,-156.5 1369.45,-160 1379.45,-163.5 1379.45,-156.5"/>
</g>
<!-- LabDetailsComponent -->
<g id="node7" class="node">
<title>LabDetailsComponent</title>
<polygon fill="#ffffb3" stroke="black" points="1673.25,-122 1530.75,-122 1530.75,-86 1673.25,-86 1673.25,-122"/>
<text text-anchor="middle" x="1602" y="-99.8" font-family="Times,serif" font-size="14.00">LabDetailsComponent</text>
</g>
<!-- LabDetailsComponent&#45;&gt;LabsModule -->
<g id="edge7" class="edge">
<title>LabDetailsComponent&#45;&gt;LabsModule</title>
<path fill="none" stroke="black" d="M1602,-122.19C1602,-137.18 1602,-156 1602,-156 1602,-156 1379.43,-156 1379.43,-156"/>
<polygon fill="black" stroke="black" points="1379.43,-152.5 1369.43,-156 1379.43,-159.5 1379.43,-152.5"/>
</g>
<!-- LabDiscussionComponent -->
<g id="node8" class="node">
<title>LabDiscussionComponent</title>
<polygon fill="#ffffb3" stroke="black" points="1512.04,-122 1347.96,-122 1347.96,-86 1512.04,-86 1512.04,-122"/>
<text text-anchor="middle" x="1430" y="-99.8" font-family="Times,serif" font-size="14.00">LabDiscussionComponent</text>
</g>
<!-- LabDiscussionComponent&#45;&gt;LabsModule -->
<g id="edge8" class="edge">
<title>LabDiscussionComponent&#45;&gt;LabsModule</title>
<path fill="none" stroke="black" d="M1358.56,-122.11C1358.56,-122.11 1358.56,-140.99 1358.56,-140.99"/>
<polygon fill="black" stroke="black" points="1355.06,-140.99 1358.56,-150.99 1362.06,-140.99 1355.06,-140.99"/>
</g>
<!-- LabDiscussionMessageComponent -->
<g id="node9" class="node">
<title>LabDiscussionMessageComponent</title>
<polygon fill="#ffffb3" stroke="black" points="1329.51,-122 1116.49,-122 1116.49,-86 1329.51,-86 1329.51,-122"/>
<text text-anchor="middle" x="1223" y="-99.8" font-family="Times,serif" font-size="14.00">LabDiscussionMessageComponent</text>
</g>
<!-- LabDiscussionMessageComponent&#45;&gt;LabsModule -->
<g id="edge9" class="edge">
<title>LabDiscussionMessageComponent&#45;&gt;LabsModule</title>
<path fill="none" stroke="black" d="M1306.19,-122.11C1306.19,-122.11 1306.19,-140.99 1306.19,-140.99"/>
<polygon fill="black" stroke="black" points="1302.69,-140.99 1306.19,-150.99 1309.69,-140.99 1302.69,-140.99"/>
</g>
<!-- LabDisplayCardComponent -->
<g id="node10" class="node">
<title>LabDisplayCardComponent</title>
<polygon fill="#ffffb3" stroke="black" points="1097.86,-122 924.14,-122 924.14,-86 1097.86,-86 1097.86,-122"/>
<text text-anchor="middle" x="1011" y="-99.8" font-family="Times,serif" font-size="14.00">LabDisplayCardComponent</text>
</g>
<!-- LabDisplayCardComponent&#45;&gt;LabsModule -->
<g id="edge10" class="edge">
<title>LabDisplayCardComponent&#45;&gt;LabsModule</title>
<path fill="none" stroke="black" d="M1011,-122.19C1011,-137.18 1011,-156 1011,-156 1011,-156 1272.53,-156 1272.53,-156"/>
<polygon fill="black" stroke="black" points="1272.53,-159.5 1282.53,-156 1272.53,-152.5 1272.53,-159.5"/>
</g>
<!-- LabListItemComponent -->
<g id="node11" class="node">
<title>LabListItemComponent</title>
<polygon fill="#ffffb3" stroke="black" points="906.04,-122 755.96,-122 755.96,-86 906.04,-86 906.04,-122"/>
<text text-anchor="middle" x="831" y="-99.8" font-family="Times,serif" font-size="14.00">LabListItemComponent</text>
</g>
<!-- LabListItemComponent&#45;&gt;LabsModule -->
<g id="edge11" class="edge">
<title>LabListItemComponent&#45;&gt;LabsModule</title>
<path fill="none" stroke="black" d="M831,-122.03C831,-138.4 831,-160 831,-160 831,-160 1272.51,-160 1272.51,-160"/>
<polygon fill="black" stroke="black" points="1272.51,-163.5 1282.51,-160 1272.51,-156.5 1272.51,-163.5"/>
</g>
<!-- LabStepComponent -->
<g id="node12" class="node">
<title>LabStepComponent</title>
<polygon fill="#ffffb3" stroke="black" points="737.99,-122 610.01,-122 610.01,-86 737.99,-86 737.99,-122"/>
<text text-anchor="middle" x="674" y="-99.8" font-family="Times,serif" font-size="14.00">LabStepComponent</text>
</g>
<!-- LabStepComponent&#45;&gt;LabsModule -->
<g id="edge12" class="edge">
<title>LabStepComponent&#45;&gt;LabsModule</title>
<path fill="none" stroke="black" d="M674,-122.3C674,-140.27 674,-165 674,-165 674,-165 1272.72,-165 1272.72,-165"/>
<polygon fill="black" stroke="black" points="1272.72,-168.5 1282.72,-165 1272.72,-161.5 1272.72,-168.5"/>
</g>
<!-- LabsComponent -->
<g id="node13" class="node">
<title>LabsComponent</title>
<polygon fill="#ffffb3" stroke="black" points="592.05,-122 483.95,-122 483.95,-86 592.05,-86 592.05,-122"/>
<text text-anchor="middle" x="538" y="-99.8" font-family="Times,serif" font-size="14.00">LabsComponent</text>
</g>
<!-- LabsComponent&#45;&gt;LabsModule -->
<g id="edge13" class="edge">
<title>LabsComponent&#45;&gt;LabsModule</title>
<path fill="none" stroke="black" d="M538,-122.11C538,-141.34 538,-169 538,-169 538,-169 1272.51,-169 1272.51,-169"/>
<polygon fill="black" stroke="black" points="1272.51,-172.5 1282.51,-169 1272.51,-165.5 1272.51,-172.5"/>
</g>
<!-- MyLabsComponent -->
<g id="node14" class="node">
<title>MyLabsComponent</title>
<polygon fill="#ffffb3" stroke="black" points="465.99,-122 338.01,-122 338.01,-86 465.99,-86 465.99,-122"/>
<text text-anchor="middle" x="402" y="-99.8" font-family="Times,serif" font-size="14.00">MyLabsComponent</text>
</g>
<!-- MyLabsComponent&#45;&gt;LabsModule -->
<g id="edge14" class="edge">
<title>MyLabsComponent&#45;&gt;LabsModule</title>
<path fill="none" stroke="black" d="M402,-122.03C402,-142.77 402,-174 402,-174 402,-174 1272.67,-174 1272.67,-174"/>
<polygon fill="black" stroke="black" points="1272.67,-177.5 1282.67,-174 1272.67,-170.5 1272.67,-177.5"/>
</g>
<!-- SearchBarComponent -->
<g id="node15" class="node">
<title>SearchBarComponent</title>
<polygon fill="#ffffb3" stroke="black" points="319.63,-122 180.37,-122 180.37,-86 319.63,-86 319.63,-122"/>
<text text-anchor="middle" x="250" y="-99.8" font-family="Times,serif" font-size="14.00">SearchBarComponent</text>
</g>
<!-- SearchBarComponent&#45;&gt;LabsModule -->
<g id="edge15" class="edge">
<title>SearchBarComponent&#45;&gt;LabsModule</title>
<path fill="none" stroke="black" d="M250,-122.29C250,-144.21 250,-178 250,-178 250,-178 1272.49,-178 1272.49,-178"/>
<polygon fill="black" stroke="black" points="1272.49,-181.5 1282.49,-178 1272.49,-174.5 1272.49,-181.5"/>
</g>
<!-- ClickOutsideDirective  -->
<g id="node18" class="node">
<title>ClickOutsideDirective </title>
<polygon fill="#fb8072" stroke="black" points="1488.96,-252 1343.04,-252 1343.04,-216 1488.96,-216 1488.96,-252"/>
<text text-anchor="middle" x="1416" y="-229.8" font-family="Times,serif" font-size="14.00">ClickOutsideDirective </text>
</g>
<!-- LabsModule&#45;&gt;ClickOutsideDirective  -->
<g id="edge17" class="edge">
<title>LabsModule&#45;&gt;ClickOutsideDirective </title>
<path fill="none" stroke="black" stroke-dasharray="5,2" d="M1356.32,-187.11C1356.32,-187.11 1356.32,-205.99 1356.32,-205.99"/>
<polygon fill="black" stroke="black" points="1352.82,-205.99 1356.32,-215.99 1359.82,-205.99 1352.82,-205.99"/>
</g>
<!-- LabDisplayCardComponent  -->
<g id="node19" class="node">
<title>LabDisplayCardComponent </title>
<polygon fill="#fb8072" stroke="black" points="1325.86,-252 1148.14,-252 1148.14,-216 1325.86,-216 1325.86,-252"/>
<text text-anchor="middle" x="1237" y="-229.8" font-family="Times,serif" font-size="14.00">LabDisplayCardComponent </text>
</g>
<!-- LabsModule&#45;&gt;LabDisplayCardComponent  -->
<g id="edge18" class="edge">
<title>LabsModule&#45;&gt;LabDisplayCardComponent </title>
<path fill="none" stroke="black" stroke-dasharray="5,2" d="M1304.15,-187.11C1304.15,-187.11 1304.15,-205.99 1304.15,-205.99"/>
<polygon fill="black" stroke="black" points="1300.65,-205.99 1304.15,-215.99 1307.65,-205.99 1300.65,-205.99"/>
</g>
<!-- LabsRoutingModule -->
<g id="node17" class="node">
<title>LabsRoutingModule</title>
<polygon fill="#8dd3c7" stroke="black" points="155.88,-122 152.88,-126 131.88,-126 128.88,-122 24.12,-122 24.12,-86 155.88,-86 155.88,-122"/>
<text text-anchor="middle" x="90" y="-99.8" font-family="Times,serif" font-size="14.00">LabsRoutingModule</text>
</g>
<!-- LabsRoutingModule&#45;&gt;LabsModule -->
<g id="edge16" class="edge">
<title>LabsRoutingModule&#45;&gt;LabsModule</title>
<path fill="none" stroke="black" d="M90,-122.32C90,-145.66 90,-183 90,-183 90,-183 1272.73,-183 1272.73,-183"/>
<polygon fill="black" stroke="black" points="1272.73,-186.5 1282.73,-183 1272.73,-179.5 1272.73,-186.5"/>
</g>
</g>
</svg>
