<?xml version="1.0" encoding="UTF-8" standalone="no"?>
<!DOCTYPE svg PUBLIC "-//W3C//DTD SVG 1.1//EN"
 "http://www.w3.org/Graphics/SVG/1.1/DTD/svg11.dtd">
<!-- Generated by graphviz version 5.0.0 (20220707.1540)
 -->
<!-- Title: dependencies Pages: 1 -->
<svg width="3067pt" height="174pt"
 viewBox="0.00 0.00 3067.00 173.80" xmlns="http://www.w3.org/2000/svg" xmlns:xlink="http://www.w3.org/1999/xlink">
<g id="graph0" class="graph" transform="scale(1 1) rotate(0) translate(4 169.8)">
<title>dependencies</title>
<polygon fill="white" stroke="transparent" points="-4,4 -4,-169.8 3063,-169.8 3063,4 -4,4"/>
<text text-anchor="middle" x="1529.5" y="-8.2" font-family="sans-serif" font-size="14.00">dependencies</text>
<g id="clust1" class="cluster">
<title>cluster_LabsModule</title>
<polygon fill="none" stroke="black" stroke-dasharray="1,5" points="8,-32.8 8,-157.8 3051,-157.8 3051,-32.8 8,-32.8"/>
</g>
<g id="clust2" class="cluster">
<title>cluster_LabsModule_declarations</title>
<polygon fill="none" stroke="black" points="974,-40.8 974,-92.8 3043,-92.8 3043,-40.8 974,-40.8"/>
</g>
<g id="clust16" class="cluster">
<title>cluster_LabsModule_imports</title>
<polygon fill="none" stroke="black" points="16,-40.8 16,-92.8 966,-92.8 966,-40.8 16,-40.8"/>
</g>
<!-- CreateLabComponent -->
<g id="node1" class="node">
<title>CreateLabComponent</title>
<polygon fill="#ffffb3" stroke="black" points="3034.63,-84.8 2895.37,-84.8 2895.37,-48.8 3034.63,-48.8 3034.63,-84.8"/>
<text text-anchor="middle" x="2965" y="-62.6" font-family="Times,serif" font-size="14.00">CreateLabComponent</text>
</g>
<!-- LabsModule -->
<g id="node14" class="node">
<title>LabsModule</title>
<polygon fill="#8dd3c7" stroke="black" points="1557.27,-149.8 1554.27,-153.8 1533.27,-153.8 1530.27,-149.8 1470.73,-149.8 1470.73,-113.8 1557.27,-113.8 1557.27,-149.8"/>
<text text-anchor="middle" x="1514" y="-127.6" font-family="Times,serif" font-size="14.00">LabsModule</text>
</g>
<!-- CreateLabComponent&#45;&gt;LabsModule -->
<g id="edge1" class="edge">
<title>CreateLabComponent&#45;&gt;LabsModule</title>
<path fill="none" stroke="black" d="M2965,-84.95C2965,-108.56 2965,-146.8 2965,-146.8 2965,-146.8 1567.43,-146.8 1567.43,-146.8"/>
<polygon fill="black" stroke="black" points="1567.43,-143.3 1557.43,-146.8 1567.43,-150.3 1567.43,-143.3"/>
</g>
<!-- EditLabComponent -->
<g id="node2" class="node">
<title>EditLabComponent</title>
<polygon fill="#ffffb3" stroke="black" points="2877.43,-84.8 2750.57,-84.8 2750.57,-48.8 2877.43,-48.8 2877.43,-84.8"/>
<text text-anchor="middle" x="2814" y="-62.6" font-family="Times,serif" font-size="14.00">EditLabComponent</text>
</g>
<!-- EditLabComponent&#45;&gt;LabsModule -->
<g id="edge2" class="edge">
<title>EditLabComponent&#45;&gt;LabsModule</title>
<path fill="none" stroke="black" d="M2814,-84.81C2814,-107.29 2814,-142.8 2814,-142.8 2814,-142.8 1567.63,-142.8 1567.63,-142.8"/>
<polygon fill="black" stroke="black" points="1567.63,-139.3 1557.63,-142.8 1567.63,-146.3 1567.63,-139.3"/>
</g>
<!-- LabComponent -->
<g id="node3" class="node">
<title>LabComponent</title>
<polygon fill="#ffffb3" stroke="black" points="2732.6,-84.8 2629.4,-84.8 2629.4,-48.8 2732.6,-48.8 2732.6,-84.8"/>
<text text-anchor="middle" x="2681" y="-62.6" font-family="Times,serif" font-size="14.00">LabComponent</text>
</g>
<!-- LabComponent&#45;&gt;LabsModule -->
<g id="edge3" class="edge">
<title>LabComponent&#45;&gt;LabsModule</title>
<path fill="none" stroke="black" d="M2681,-84.84C2681,-106.46 2681,-139.8 2681,-139.8 2681,-139.8 1567.27,-139.8 1567.27,-139.8"/>
<polygon fill="black" stroke="black" points="1567.27,-136.3 1557.27,-139.8 1567.27,-143.3 1567.27,-136.3"/>
</g>
<!-- LabDetailsComponent -->
<g id="node4" class="node">
<title>LabDetailsComponent</title>
<polygon fill="#ffffb3" stroke="black" points="2611.25,-84.8 2468.75,-84.8 2468.75,-48.8 2611.25,-48.8 2611.25,-84.8"/>
<text text-anchor="middle" x="2540" y="-62.6" font-family="Times,serif" font-size="14.00">LabDetailsComponent</text>
</g>
<!-- LabDetailsComponent&#45;&gt;LabsModule -->
<g id="edge4" class="edge">
<title>LabDetailsComponent&#45;&gt;LabsModule</title>
<path fill="none" stroke="black" d="M2540,-84.93C2540,-105.37 2540,-135.8 2540,-135.8 2540,-135.8 1567.43,-135.8 1567.43,-135.8"/>
<polygon fill="black" stroke="black" points="1567.43,-132.3 1557.43,-135.8 1567.43,-139.3 1567.43,-132.3"/>
</g>
<!-- LabDiscussionComponent -->
<g id="node5" class="node">
<title>LabDiscussionComponent</title>
<polygon fill="#ffffb3" stroke="black" points="2450.05,-84.8 2285.95,-84.8 2285.95,-48.8 2450.05,-48.8 2450.05,-84.8"/>
<text text-anchor="middle" x="2368" y="-62.6" font-family="Times,serif" font-size="14.00">LabDiscussionComponent</text>
</g>
<!-- LabDiscussionComponent&#45;&gt;LabsModule -->
<g id="edge5" class="edge">
<title>LabDiscussionComponent&#45;&gt;LabsModule</title>
<path fill="none" stroke="black" d="M2368,-84.91C2368,-104.14 2368,-131.8 2368,-131.8 2368,-131.8 1567.52,-131.8 1567.52,-131.8"/>
<polygon fill="black" stroke="black" points="1567.52,-128.3 1557.52,-131.8 1567.52,-135.3 1567.52,-128.3"/>
</g>
<!-- LabDiscussionMessageComponent -->
<g id="node6" class="node">
<title>LabDiscussionMessageComponent</title>
<polygon fill="#ffffb3" stroke="black" points="2267.53,-84.8 2054.47,-84.8 2054.47,-48.8 2267.53,-48.8 2267.53,-84.8"/>
<text text-anchor="middle" x="2161" y="-62.6" font-family="Times,serif" font-size="14.00">LabDiscussionMessageComponent</text>
</g>
<!-- LabDiscussionMessageComponent&#45;&gt;LabsModule -->
<g id="edge6" class="edge">
<title>LabDiscussionMessageComponent&#45;&gt;LabsModule</title>
<path fill="none" stroke="black" d="M2161,-85.07C2161,-103.36 2161,-128.8 2161,-128.8 2161,-128.8 1567.46,-128.8 1567.46,-128.8"/>
<polygon fill="black" stroke="black" points="1567.46,-125.3 1557.46,-128.8 1567.46,-132.3 1567.46,-125.3"/>
</g>
<!-- LabListItemComponent -->
<g id="node7" class="node">
<title>LabListItemComponent</title>
<polygon fill="#ffffb3" stroke="black" points="2036.03,-84.8 1885.97,-84.8 1885.97,-48.8 2036.03,-48.8 2036.03,-84.8"/>
<text text-anchor="middle" x="1961" y="-62.6" font-family="Times,serif" font-size="14.00">LabListItemComponent</text>
</g>
<!-- LabListItemComponent&#45;&gt;LabsModule -->
<g id="edge7" class="edge">
<title>LabListItemComponent&#45;&gt;LabsModule</title>
<path fill="none" stroke="black" d="M1961,-84.83C1961,-101.86 1961,-124.8 1961,-124.8 1961,-124.8 1567.27,-124.8 1567.27,-124.8"/>
<polygon fill="black" stroke="black" points="1567.27,-121.3 1557.27,-124.8 1567.27,-128.3 1567.27,-121.3"/>
</g>
<!-- LabStepComponent -->
<g id="node8" class="node">
<title>LabStepComponent</title>
<polygon fill="#ffffb3" stroke="black" points="1867.99,-84.8 1740.01,-84.8 1740.01,-48.8 1867.99,-48.8 1867.99,-84.8"/>
<text text-anchor="middle" x="1804" y="-62.6" font-family="Times,serif" font-size="14.00">LabStepComponent</text>
</g>
<!-- LabStepComponent&#45;&gt;LabsModule -->
<g id="edge8" class="edge">
<title>LabStepComponent&#45;&gt;LabsModule</title>
<path fill="none" stroke="black" d="M1804,-84.81C1804,-100.85 1804,-121.8 1804,-121.8 1804,-121.8 1567.42,-121.8 1567.42,-121.8"/>
<polygon fill="black" stroke="black" points="1567.42,-118.3 1557.42,-121.8 1567.42,-125.3 1567.42,-118.3"/>
</g>
<!-- LabsCardComponent -->
<g id="node9" class="node">
<title>LabsCardComponent</title>
<polygon fill="#ffffb3" stroke="black" points="1721.76,-84.8 1586.24,-84.8 1586.24,-48.8 1721.76,-48.8 1721.76,-84.8"/>
<text text-anchor="middle" x="1654" y="-62.6" font-family="Times,serif" font-size="14.00">LabsCardComponent</text>
</g>
<!-- LabsCardComponent&#45;&gt;LabsModule -->
<g id="edge9" class="edge">
<title>LabsCardComponent&#45;&gt;LabsModule</title>
<path fill="none" stroke="black" d="M1654,-84.92C1654,-99.58 1654,-117.8 1654,-117.8 1654,-117.8 1567.53,-117.8 1567.53,-117.8"/>
<polygon fill="black" stroke="black" points="1567.53,-114.3 1557.53,-117.8 1567.53,-121.3 1567.53,-114.3"/>
</g>
<!-- LabsComponent -->
<g id="node10" class="node">
<title>LabsComponent</title>
<polygon fill="#ffffb3" stroke="black" points="1568.05,-84.8 1459.95,-84.8 1459.95,-48.8 1568.05,-48.8 1568.05,-84.8"/>
<text text-anchor="middle" x="1514" y="-62.6" font-family="Times,serif" font-size="14.00">LabsComponent</text>
</g>
<!-- LabsComponent&#45;&gt;LabsModule -->
<g id="edge10" class="edge">
<title>LabsComponent&#45;&gt;LabsModule</title>
<path fill="none" stroke="black" d="M1514,-84.91C1514,-84.91 1514,-103.79 1514,-103.79"/>
<polygon fill="black" stroke="black" points="1510.5,-103.79 1514,-113.79 1517.5,-103.79 1510.5,-103.79"/>
</g>
<!-- LabsHeaderComponent -->
<g id="node11" class="node">
<title>LabsHeaderComponent</title>
<polygon fill="#ffffb3" stroke="black" points="1441.46,-84.8 1292.54,-84.8 1292.54,-48.8 1441.46,-48.8 1441.46,-84.8"/>
<text text-anchor="middle" x="1367" y="-62.6" font-family="Times,serif" font-size="14.00">LabsHeaderComponent</text>
</g>
<!-- LabsHeaderComponent&#45;&gt;LabsModule -->
<g id="edge11" class="edge">
<title>LabsHeaderComponent&#45;&gt;LabsModule</title>
<path fill="none" stroke="black" d="M1367,-84.92C1367,-99.58 1367,-117.8 1367,-117.8 1367,-117.8 1460.69,-117.8 1460.69,-117.8"/>
<polygon fill="black" stroke="black" points="1460.69,-121.3 1470.69,-117.8 1460.69,-114.3 1460.69,-121.3"/>
</g>
<!-- LabsSearchComponent -->
<g id="node12" class="node">
<title>LabsSearchComponent</title>
<polygon fill="#ffffb3" stroke="black" points="1274.14,-84.8 1127.86,-84.8 1127.86,-48.8 1274.14,-48.8 1274.14,-84.8"/>
<text text-anchor="middle" x="1201" y="-62.6" font-family="Times,serif" font-size="14.00">LabsSearchComponent</text>
</g>
<!-- LabsSearchComponent&#45;&gt;LabsModule -->
<g id="edge12" class="edge">
<title>LabsSearchComponent&#45;&gt;LabsModule</title>
<path fill="none" stroke="black" d="M1201,-84.81C1201,-100.85 1201,-121.8 1201,-121.8 1201,-121.8 1460.48,-121.8 1460.48,-121.8"/>
<polygon fill="black" stroke="black" points="1460.48,-125.3 1470.48,-121.8 1460.48,-118.3 1460.48,-125.3"/>
</g>
<!-- MyLabsComponent -->
<g id="node13" class="node">
<title>MyLabsComponent</title>
<polygon fill="#ffffb3" stroke="black" points="1109.99,-84.8 982.01,-84.8 982.01,-48.8 1109.99,-48.8 1109.99,-84.8"/>
<text text-anchor="middle" x="1046" y="-62.6" font-family="Times,serif" font-size="14.00">MyLabsComponent</text>
</g>
<!-- MyLabsComponent&#45;&gt;LabsModule -->
<g id="edge13" class="edge">
<title>MyLabsComponent&#45;&gt;LabsModule</title>
<path fill="none" stroke="black" d="M1046,-84.83C1046,-101.86 1046,-124.8 1046,-124.8 1046,-124.8 1460.39,-124.8 1460.39,-124.8"/>
<polygon fill="black" stroke="black" points="1460.39,-128.3 1470.39,-124.8 1460.39,-121.3 1460.39,-128.3"/>
</g>
<!-- InfiniteScrollModule -->
<g id="node15" class="node">
<title>InfiniteScrollModule</title>
<polygon fill="#8dd3c7" stroke="black" points="958.2,-84.8 955.2,-88.8 934.2,-88.8 931.2,-84.8 823.8,-84.8 823.8,-48.8 958.2,-48.8 958.2,-84.8"/>
<text text-anchor="middle" x="891" y="-62.6" font-family="Times,serif" font-size="14.00">InfiniteScrollModule</text>
</g>
<!-- InfiniteScrollModule&#45;&gt;LabsModule -->
<g id="edge14" class="edge">
<title>InfiniteScrollModule&#45;&gt;LabsModule</title>
<path fill="none" stroke="black" d="M891,-85.07C891,-103.36 891,-128.8 891,-128.8 891,-128.8 1460.69,-128.8 1460.69,-128.8"/>
<polygon fill="black" stroke="black" points="1460.69,-132.3 1470.69,-128.8 1460.69,-125.3 1460.69,-132.3"/>
</g>
<!-- LabsRoutingModule -->
<g id="node16" class="node">
<title>LabsRoutingModule</title>
<polygon fill="#8dd3c7" stroke="black" points="805.88,-84.8 802.88,-88.8 781.88,-88.8 778.88,-84.8 674.12,-84.8 674.12,-48.8 805.88,-48.8 805.88,-84.8"/>
<text text-anchor="middle" x="740" y="-62.6" font-family="Times,serif" font-size="14.00">LabsRoutingModule</text>
</g>
<!-- LabsRoutingModule&#45;&gt;LabsModule -->
<g id="edge15" class="edge">
<title>LabsRoutingModule&#45;&gt;LabsModule</title>
<path fill="none" stroke="black" d="M740,-84.91C740,-104.14 740,-131.8 740,-131.8 740,-131.8 1460.73,-131.8 1460.73,-131.8"/>
<polygon fill="black" stroke="black" points="1460.73,-135.3 1470.73,-131.8 1460.73,-128.3 1460.73,-135.3"/>
</g>
<!-- MentionModule -->
<g id="node17" class="node">
<title>MentionModule</title>
<polygon fill="#8dd3c7" stroke="black" points="656.49,-84.8 653.49,-88.8 632.49,-88.8 629.49,-84.8 549.51,-84.8 549.51,-48.8 656.49,-48.8 656.49,-84.8"/>
<text text-anchor="middle" x="603" y="-62.6" font-family="Times,serif" font-size="14.00">MentionModule</text>
</g>
<!-- MentionModule&#45;&gt;LabsModule -->
<g id="edge16" class="edge">
<title>MentionModule&#45;&gt;LabsModule</title>
<path fill="none" stroke="black" d="M603,-84.93C603,-105.37 603,-135.8 603,-135.8 603,-135.8 1460.67,-135.8 1460.67,-135.8"/>
<polygon fill="black" stroke="black" points="1460.67,-139.3 1470.67,-135.8 1460.67,-132.3 1460.67,-139.3"/>
</g>
<!-- MiniUserProfileModule -->
<g id="node18" class="node">
<title>MiniUserProfileModule</title>
<polygon fill="#8dd3c7" stroke="black" points="531.82,-84.8 528.82,-88.8 507.82,-88.8 504.82,-84.8 380.18,-84.8 380.18,-48.8 531.82,-48.8 531.82,-84.8"/>
<text text-anchor="middle" x="456" y="-62.6" font-family="Times,serif" font-size="14.00">MiniUserProfileModule</text>
</g>
<!-- MiniUserProfileModule&#45;&gt;LabsModule -->
<g id="edge17" class="edge">
<title>MiniUserProfileModule&#45;&gt;LabsModule</title>
<path fill="none" stroke="black" d="M456,-84.84C456,-106.46 456,-139.8 456,-139.8 456,-139.8 1460.55,-139.8 1460.55,-139.8"/>
<polygon fill="black" stroke="black" points="1460.55,-143.3 1470.55,-139.8 1460.55,-136.3 1460.55,-143.3"/>
</g>
<!-- RecommendationsModule -->
<g id="node19" class="node">
<title>RecommendationsModule</title>
<polygon fill="#8dd3c7" stroke="black" points="361.75,-84.8 358.75,-88.8 337.75,-88.8 334.75,-84.8 198.25,-84.8 198.25,-48.8 361.75,-48.8 361.75,-84.8"/>
<text text-anchor="middle" x="280" y="-62.6" font-family="Times,serif" font-size="14.00">RecommendationsModule</text>
</g>
<!-- RecommendationsModule&#45;&gt;LabsModule -->
<g id="edge18" class="edge">
<title>RecommendationsModule&#45;&gt;LabsModule</title>
<path fill="none" stroke="black" d="M280,-84.81C280,-107.29 280,-142.8 280,-142.8 280,-142.8 1460.44,-142.8 1460.44,-142.8"/>
<polygon fill="black" stroke="black" points="1460.44,-146.3 1470.44,-142.8 1460.44,-139.3 1460.44,-146.3"/>
</g>
<!-- SharedDirectivesModule -->
<g id="node20" class="node">
<title>SharedDirectivesModule</title>
<polygon fill="#8dd3c7" stroke="black" points="179.96,-84.8 176.96,-88.8 155.96,-88.8 152.96,-84.8 24.04,-84.8 24.04,-48.8 179.96,-48.8 179.96,-84.8"/>
<text text-anchor="middle" x="102" y="-62.6" font-family="Times,serif" font-size="14.00">SharedDirectivesModule</text>
</g>
<!-- SharedDirectivesModule&#45;&gt;LabsModule -->
<g id="edge19" class="edge">
<title>SharedDirectivesModule&#45;&gt;LabsModule</title>
<path fill="none" stroke="black" d="M102,-84.95C102,-108.56 102,-146.8 102,-146.8 102,-146.8 1460.58,-146.8 1460.58,-146.8"/>
<polygon fill="black" stroke="black" points="1460.58,-150.3 1470.58,-146.8 1460.58,-143.3 1460.58,-150.3"/>
</g>
</g>
</svg>
