<?xml version="1.0" encoding="UTF-8" standalone="no"?>
<!DOCTYPE svg PUBLIC "-//W3C//DTD SVG 1.1//EN"
 "http://www.w3.org/Graphics/SVG/1.1/DTD/svg11.dtd">
<!-- Generated by graphviz version 5.0.0 (20220707.1540)
 -->
<!-- Title: dependencies Pages: 1 -->
<svg width="9963pt" height="247pt"
 viewBox="0.00 0.00 9963.00 246.80" xmlns="http://www.w3.org/2000/svg" xmlns:xlink="http://www.w3.org/1999/xlink">
<g id="graph0" class="graph" transform="scale(1 1) rotate(0) translate(4 242.8)">
<title>dependencies</title>
<polygon fill="white" stroke="transparent" points="-4,4 -4,-242.8 9959,-242.8 9959,4 -4,4"/>
<text text-anchor="middle" x="4977.5" y="-8.2" font-family="sans-serif" font-size="14.00">dependencies</text>
<g id="clust1" class="cluster">
<title>cluster_AppModule</title>
<polygon fill="none" stroke="black" stroke-dasharray="1,5" points="8,-32.8 8,-230.8 9947,-230.8 9947,-32.8 8,-32.8"/>
</g>
<g id="clust2" class="cluster">
<title>cluster_AppModule_declarations</title>
<polygon fill="none" stroke="black" points="3432,-40.8 3432,-92.8 9939,-92.8 9939,-40.8 3432,-40.8"/>
</g>
<g id="clust42" class="cluster">
<title>cluster_AppModule_providers</title>
<polygon fill="none" stroke="black" points="2330,-40.8 2330,-92.8 3424,-92.8 3424,-40.8 2330,-40.8"/>
</g>
<g id="clust39" class="cluster">
<title>cluster_AppModule_imports</title>
<polygon fill="none" stroke="black" points="16,-40.8 16,-92.8 2322,-92.8 2322,-40.8 16,-40.8"/>
</g>
<g id="clust41" class="cluster">
<title>cluster_AppModule_bootstrap</title>
<polygon fill="none" stroke="black" points="4846,-170.8 4846,-222.8 4970,-222.8 4970,-170.8 4846,-170.8"/>
</g>
<!-- AboutComponent -->
<g id="node1" class="node">
<title>AboutComponent</title>
<polygon fill="#ffffb3" stroke="black" points="9931.33,-84.8 9814.67,-84.8 9814.67,-48.8 9931.33,-48.8 9931.33,-84.8"/>
<text text-anchor="middle" x="9873" y="-62.6" font-family="Times,serif" font-size="14.00">AboutComponent</text>
</g>
<!-- AppModule -->
<g id="node37" class="node">
<title>AppModule</title>
<polygon fill="#8dd3c7" stroke="black" points="4949.66,-149.8 4946.66,-153.8 4925.66,-153.8 4922.66,-149.8 4866.34,-149.8 4866.34,-113.8 4949.66,-113.8 4949.66,-149.8"/>
<text text-anchor="middle" x="4908" y="-127.6" font-family="Times,serif" font-size="14.00">AppModule</text>
</g>
<!-- AboutComponent&#45;&gt;AppModule -->
<g id="edge1" class="edge">
<title>AboutComponent&#45;&gt;AppModule</title>
<path fill="none" stroke="black" d="M9873,-85C9873,-109.16 9873,-148.8 9873,-148.8 9873,-148.8 4959.8,-148.8 4959.8,-148.8"/>
<polygon fill="black" stroke="black" points="4959.8,-145.3 4949.8,-148.8 4959.8,-152.3 4959.8,-145.3"/>
</g>
<!-- AboutOldComponent -->
<g id="node2" class="node">
<title>AboutOldComponent</title>
<polygon fill="#ffffb3" stroke="black" points="9796.83,-84.8 9659.17,-84.8 9659.17,-48.8 9796.83,-48.8 9796.83,-84.8"/>
<text text-anchor="middle" x="9728" y="-62.6" font-family="Times,serif" font-size="14.00">AboutOldComponent</text>
</g>
<!-- AboutOldComponent&#45;&gt;AppModule -->
<g id="edge2" class="edge">
<title>AboutOldComponent&#45;&gt;AppModule</title>
<path fill="none" stroke="black" d="M9728,-85.18C9728,-109.08 9728,-147.8 9728,-147.8 9728,-147.8 4959.67,-147.8 4959.67,-147.8"/>
<polygon fill="black" stroke="black" points="4959.67,-144.3 4949.67,-147.8 4959.67,-151.3 4959.67,-144.3"/>
</g>
<!-- AppComponent -->
<g id="node3" class="node">
<title>AppComponent</title>
<polygon fill="#ffffb3" stroke="black" points="9641.94,-84.8 9536.06,-84.8 9536.06,-48.8 9641.94,-48.8 9641.94,-84.8"/>
<text text-anchor="middle" x="9589" y="-62.6" font-family="Times,serif" font-size="14.00">AppComponent</text>
</g>
<!-- AppComponent&#45;&gt;AppModule -->
<g id="edge3" class="edge">
<title>AppComponent&#45;&gt;AppModule</title>
<path fill="none" stroke="black" d="M9589,-84.95C9589,-108.56 9589,-146.8 9589,-146.8 9589,-146.8 4959.9,-146.8 4959.9,-146.8"/>
<polygon fill="black" stroke="black" points="4959.9,-143.3 4949.9,-146.8 4959.9,-150.3 4959.9,-143.3"/>
</g>
<!-- CircularProgressiveBarComponent -->
<g id="node4" class="node">
<title>CircularProgressiveBarComponent</title>
<polygon fill="#ffffb3" stroke="black" points="9518.24,-84.8 9305.76,-84.8 9305.76,-48.8 9518.24,-48.8 9518.24,-84.8"/>
<text text-anchor="middle" x="9412" y="-62.6" font-family="Times,serif" font-size="14.00">CircularProgressiveBarComponent</text>
</g>
<!-- CircularProgressiveBarComponent&#45;&gt;AppModule -->
<g id="edge4" class="edge">
<title>CircularProgressiveBarComponent&#45;&gt;AppModule</title>
<path fill="none" stroke="black" d="M9412,-84.89C9412,-107.93 9412,-144.8 9412,-144.8 9412,-144.8 4959.71,-144.8 4959.71,-144.8"/>
<polygon fill="black" stroke="black" points="4959.71,-141.3 4949.71,-144.8 4959.71,-148.3 4959.71,-141.3"/>
</g>
<!-- CommunitiesAboutComponent -->
<g id="node5" class="node">
<title>CommunitiesAboutComponent</title>
<polygon fill="#ffffb3" stroke="black" points="9287.78,-84.8 9096.22,-84.8 9096.22,-48.8 9287.78,-48.8 9287.78,-84.8"/>
<text text-anchor="middle" x="9192" y="-62.6" font-family="Times,serif" font-size="14.00">CommunitiesAboutComponent</text>
</g>
<!-- CommunitiesAboutComponent&#45;&gt;AppModule -->
<g id="edge5" class="edge">
<title>CommunitiesAboutComponent&#45;&gt;AppModule</title>
<path fill="none" stroke="black" d="M9192,-85.05C9192,-107.82 9192,-143.8 9192,-143.8 9192,-143.8 4959.71,-143.8 4959.71,-143.8"/>
<polygon fill="black" stroke="black" points="4959.71,-140.3 4949.71,-143.8 4959.71,-147.3 4959.71,-140.3"/>
</g>
<!-- CommunitiesComponent -->
<g id="node6" class="node">
<title>CommunitiesComponent</title>
<polygon fill="#ffffb3" stroke="black" points="9078.28,-84.8 8921.72,-84.8 8921.72,-48.8 9078.28,-48.8 9078.28,-84.8"/>
<text text-anchor="middle" x="9000" y="-62.6" font-family="Times,serif" font-size="14.00">CommunitiesComponent</text>
</g>
<!-- CommunitiesComponent&#45;&gt;AppModule -->
<g id="edge6" class="edge">
<title>CommunitiesComponent&#45;&gt;AppModule</title>
<path fill="none" stroke="black" d="M9000,-84.81C9000,-107.29 9000,-142.8 9000,-142.8 9000,-142.8 4959.83,-142.8 4959.83,-142.8"/>
<polygon fill="black" stroke="black" points="4959.83,-139.3 4949.83,-142.8 4959.83,-146.3 4959.83,-139.3"/>
</g>
<!-- CommunitiesFeaturedComponent -->
<g id="node7" class="node">
<title>CommunitiesFeaturedComponent</title>
<polygon fill="#ffffb3" stroke="black" points="8903.76,-84.8 8698.24,-84.8 8698.24,-48.8 8903.76,-48.8 8903.76,-84.8"/>
<text text-anchor="middle" x="8801" y="-62.6" font-family="Times,serif" font-size="14.00">CommunitiesFeaturedComponent</text>
</g>
<!-- CommunitiesFeaturedComponent&#45;&gt;AppModule -->
<g id="edge7" class="edge">
<title>CommunitiesFeaturedComponent&#45;&gt;AppModule</title>
<path fill="none" stroke="black" d="M8801,-85.09C8801,-107.01 8801,-140.8 8801,-140.8 8801,-140.8 4959.74,-140.8 4959.74,-140.8"/>
<polygon fill="black" stroke="black" points="4959.74,-137.3 4949.74,-140.8 4959.74,-144.3 4959.74,-137.3"/>
</g>
<!-- CommunitiesListCardComponent -->
<g id="node8" class="node">
<title>CommunitiesListCardComponent</title>
<polygon fill="#ffffb3" stroke="black" points="8679.77,-84.8 8474.23,-84.8 8474.23,-48.8 8679.77,-48.8 8679.77,-84.8"/>
<text text-anchor="middle" x="8577" y="-62.6" font-family="Times,serif" font-size="14.00">CommunitiesListCardComponent</text>
</g>
<!-- CommunitiesListCardComponent&#45;&gt;AppModule -->
<g id="edge8" class="edge">
<title>CommunitiesListCardComponent&#45;&gt;AppModule</title>
<path fill="none" stroke="black" d="M8577,-84.84C8577,-106.46 8577,-139.8 8577,-139.8 8577,-139.8 4959.84,-139.8 4959.84,-139.8"/>
<polygon fill="black" stroke="black" points="4959.84,-136.3 4949.84,-139.8 4959.84,-143.3 4959.84,-136.3"/>
</g>
<!-- CommunitiesListComponent -->
<g id="node9" class="node">
<title>CommunitiesListComponent</title>
<polygon fill="#ffffb3" stroke="black" points="8456.06,-84.8 8277.94,-84.8 8277.94,-48.8 8456.06,-48.8 8456.06,-84.8"/>
<text text-anchor="middle" x="8367" y="-62.6" font-family="Times,serif" font-size="14.00">CommunitiesListComponent</text>
</g>
<!-- CommunitiesListComponent&#45;&gt;AppModule -->
<g id="edge9" class="edge">
<title>CommunitiesListComponent&#45;&gt;AppModule</title>
<path fill="none" stroke="black" d="M8367,-84.97C8367,-106.3 8367,-138.8 8367,-138.8 8367,-138.8 4959.87,-138.8 4959.87,-138.8"/>
<polygon fill="black" stroke="black" points="4959.87,-135.3 4949.87,-138.8 4959.87,-142.3 4959.87,-135.3"/>
</g>
<!-- CommunitiesPostsComponent -->
<g id="node10" class="node">
<title>CommunitiesPostsComponent</title>
<polygon fill="#ffffb3" stroke="black" points="8260.35,-84.8 8073.65,-84.8 8073.65,-48.8 8260.35,-48.8 8260.35,-84.8"/>
<text text-anchor="middle" x="8167" y="-62.6" font-family="Times,serif" font-size="14.00">CommunitiesPostsComponent</text>
</g>
<!-- CommunitiesPostsComponent&#45;&gt;AppModule -->
<g id="edge10" class="edge">
<title>CommunitiesPostsComponent&#45;&gt;AppModule</title>
<path fill="none" stroke="black" d="M8167,-85.08C8167,-106.12 8167,-137.8 8167,-137.8 8167,-137.8 4959.8,-137.8 4959.8,-137.8"/>
<polygon fill="black" stroke="black" points="4959.8,-134.3 4949.8,-137.8 4959.8,-141.3 4959.8,-134.3"/>
</g>
<!-- CommunityComponent -->
<g id="node11" class="node">
<title>CommunityComponent</title>
<polygon fill="#ffffb3" stroke="black" points="8056.23,-84.8 7907.77,-84.8 7907.77,-48.8 8056.23,-48.8 8056.23,-84.8"/>
<text text-anchor="middle" x="7982" y="-62.6" font-family="Times,serif" font-size="14.00">CommunityComponent</text>
</g>
<!-- CommunityComponent&#45;&gt;AppModule -->
<g id="edge11" class="edge">
<title>CommunityComponent&#45;&gt;AppModule</title>
<path fill="none" stroke="black" d="M7982,-84.93C7982,-105.37 7982,-135.8 7982,-135.8 7982,-135.8 4959.71,-135.8 4959.71,-135.8"/>
<polygon fill="black" stroke="black" points="4959.71,-132.3 4949.71,-135.8 4959.71,-139.3 4959.71,-132.3"/>
</g>
<!-- FeaturesComponent -->
<g id="node12" class="node">
<title>FeaturesComponent</title>
<polygon fill="#ffffb3" stroke="black" points="7890.26,-84.8 7761.74,-84.8 7761.74,-48.8 7890.26,-48.8 7890.26,-84.8"/>
<text text-anchor="middle" x="7826" y="-62.6" font-family="Times,serif" font-size="14.00">FeaturesComponent</text>
</g>
<!-- FeaturesComponent&#45;&gt;AppModule -->
<g id="edge12" class="edge">
<title>FeaturesComponent&#45;&gt;AppModule</title>
<path fill="none" stroke="black" d="M7826,-85.02C7826,-105.17 7826,-134.8 7826,-134.8 7826,-134.8 4959.81,-134.8 4959.81,-134.8"/>
<polygon fill="black" stroke="black" points="4959.81,-131.3 4949.81,-134.8 4959.81,-138.3 4959.81,-131.3"/>
</g>
<!-- FillDataFormComponent -->
<g id="node13" class="node">
<title>FillDataFormComponent</title>
<polygon fill="#ffffb3" stroke="black" points="7743.55,-84.8 7586.45,-84.8 7586.45,-48.8 7743.55,-48.8 7743.55,-84.8"/>
<text text-anchor="middle" x="7665" y="-62.6" font-family="Times,serif" font-size="14.00">FillDataFormComponent</text>
</g>
<!-- FillDataFormComponent&#45;&gt;AppModule -->
<g id="edge13" class="edge">
<title>FillDataFormComponent&#45;&gt;AppModule</title>
<path fill="none" stroke="black" d="M7665,-85.11C7665,-104.95 7665,-133.8 7665,-133.8 7665,-133.8 4959.93,-133.8 4959.93,-133.8"/>
<polygon fill="black" stroke="black" points="4959.93,-130.3 4949.93,-133.8 4959.93,-137.3 4959.93,-130.3"/>
</g>
<!-- FooterComponent -->
<g id="node14" class="node">
<title>FooterComponent</title>
<polygon fill="#ffffb3" stroke="black" points="7567.88,-84.8 7450.12,-84.8 7450.12,-48.8 7567.88,-48.8 7567.88,-84.8"/>
<text text-anchor="middle" x="7509" y="-62.6" font-family="Times,serif" font-size="14.00">FooterComponent</text>
</g>
<!-- FooterComponent&#45;&gt;AppModule -->
<g id="edge14" class="edge">
<title>FooterComponent&#45;&gt;AppModule</title>
<path fill="none" stroke="black" d="M7509,-84.91C7509,-104.14 7509,-131.8 7509,-131.8 7509,-131.8 4959.91,-131.8 4959.91,-131.8"/>
<polygon fill="black" stroke="black" points="4959.91,-128.3 4949.91,-131.8 4959.91,-135.3 4959.91,-128.3"/>
</g>
<!-- HomeBuildsCardComponent -->
<g id="node15" class="node">
<title>HomeBuildsCardComponent</title>
<polygon fill="#ffffb3" stroke="black" points="7431.82,-84.8 7252.18,-84.8 7252.18,-48.8 7431.82,-48.8 7431.82,-84.8"/>
<text text-anchor="middle" x="7342" y="-62.6" font-family="Times,serif" font-size="14.00">HomeBuildsCardComponent</text>
</g>
<!-- HomeBuildsCardComponent&#45;&gt;AppModule -->
<g id="edge15" class="edge">
<title>HomeBuildsCardComponent&#45;&gt;AppModule</title>
<path fill="none" stroke="black" d="M7342,-84.97C7342,-103.89 7342,-130.8 7342,-130.8 7342,-130.8 4959.73,-130.8 4959.73,-130.8"/>
<polygon fill="black" stroke="black" points="4959.73,-127.3 4949.73,-130.8 4959.73,-134.3 4959.73,-127.3"/>
</g>
<!-- HomeBuildsComponent -->
<g id="node16" class="node">
<title>HomeBuildsComponent</title>
<polygon fill="#ffffb3" stroke="black" points="7234.11,-84.8 7081.89,-84.8 7081.89,-48.8 7234.11,-48.8 7234.11,-84.8"/>
<text text-anchor="middle" x="7158" y="-62.6" font-family="Times,serif" font-size="14.00">HomeBuildsComponent</text>
</g>
<!-- HomeBuildsComponent&#45;&gt;AppModule -->
<g id="edge16" class="edge">
<title>HomeBuildsComponent&#45;&gt;AppModule</title>
<path fill="none" stroke="black" d="M7158,-85.02C7158,-103.63 7158,-129.8 7158,-129.8 7158,-129.8 4959.95,-129.8 4959.95,-129.8"/>
<polygon fill="black" stroke="black" points="4959.95,-126.3 4949.95,-129.8 4959.95,-133.3 4959.95,-126.3"/>
</g>
<!-- HomeCommunitiesComponent -->
<g id="node17" class="node">
<title>HomeCommunitiesComponent</title>
<polygon fill="#ffffb3" stroke="black" points="7063.49,-84.8 6872.51,-84.8 6872.51,-48.8 7063.49,-48.8 7063.49,-84.8"/>
<text text-anchor="middle" x="6968" y="-62.6" font-family="Times,serif" font-size="14.00">HomeCommunitiesComponent</text>
</g>
<!-- HomeCommunitiesComponent&#45;&gt;AppModule -->
<g id="edge17" class="edge">
<title>HomeCommunitiesComponent&#45;&gt;AppModule</title>
<path fill="none" stroke="black" d="M6968,-85.07C6968,-103.36 6968,-128.8 6968,-128.8 6968,-128.8 4960.08,-128.8 4960.08,-128.8"/>
<polygon fill="black" stroke="black" points="4960.08,-125.3 4950.08,-128.8 4960.08,-132.3 4960.08,-125.3"/>
</g>
<!-- HomeComponent -->
<g id="node18" class="node">
<title>HomeComponent</title>
<polygon fill="#ffffb3" stroke="black" points="6854.55,-84.8 6739.45,-84.8 6739.45,-48.8 6854.55,-48.8 6854.55,-84.8"/>
<text text-anchor="middle" x="6797" y="-62.6" font-family="Times,serif" font-size="14.00">HomeComponent</text>
</g>
<!-- HomeComponent&#45;&gt;AppModule -->
<g id="edge18" class="edge">
<title>HomeComponent&#45;&gt;AppModule</title>
<path fill="none" stroke="black" d="M6797,-84.8C6797,-102.48 6797,-126.8 6797,-126.8 6797,-126.8 4960.1,-126.8 4960.1,-126.8"/>
<polygon fill="black" stroke="black" points="4960.1,-123.3 4950.1,-126.8 4960.1,-130.3 4960.1,-123.3"/>
</g>
<!-- HomeEventsCardComponent -->
<g id="node19" class="node">
<title>HomeEventsCardComponent</title>
<polygon fill="#ffffb3" stroke="black" points="6721.36,-84.8 6540.64,-84.8 6540.64,-48.8 6721.36,-48.8 6721.36,-84.8"/>
<text text-anchor="middle" x="6631" y="-62.6" font-family="Times,serif" font-size="14.00">HomeEventsCardComponent</text>
</g>
<!-- HomeEventsCardComponent&#45;&gt;AppModule -->
<g id="edge19" class="edge">
<title>HomeEventsCardComponent&#45;&gt;AppModule</title>
<path fill="none" stroke="black" d="M6631,-84.82C6631,-102.17 6631,-125.8 6631,-125.8 6631,-125.8 4959.74,-125.8 4959.74,-125.8"/>
<polygon fill="black" stroke="black" points="4959.74,-122.3 4949.74,-125.8 4959.74,-129.3 4959.74,-122.3"/>
</g>
<!-- HomeEventsComponent -->
<g id="node20" class="node">
<title>HomeEventsComponent</title>
<polygon fill="#ffffb3" stroke="black" points="6522.65,-84.8 6369.35,-84.8 6369.35,-48.8 6522.65,-48.8 6522.65,-84.8"/>
<text text-anchor="middle" x="6446" y="-62.6" font-family="Times,serif" font-size="14.00">HomeEventsComponent</text>
</g>
<!-- HomeEventsComponent&#45;&gt;AppModule -->
<g id="edge20" class="edge">
<title>HomeEventsComponent&#45;&gt;AppModule</title>
<path fill="none" stroke="black" d="M6446,-84.83C6446,-101.86 6446,-124.8 6446,-124.8 6446,-124.8 4959.94,-124.8 4959.94,-124.8"/>
<polygon fill="black" stroke="black" points="4959.94,-121.3 4949.94,-124.8 4959.94,-128.3 4959.94,-121.3"/>
</g>
<!-- HomeExpertsComponent -->
<g id="node21" class="node">
<title>HomeExpertsComponent</title>
<polygon fill="#ffffb3" stroke="black" points="6351.31,-84.8 6192.69,-84.8 6192.69,-48.8 6351.31,-48.8 6351.31,-84.8"/>
<text text-anchor="middle" x="6272" y="-62.6" font-family="Times,serif" font-size="14.00">HomeExpertsComponent</text>
</g>
<!-- HomeExpertsComponent&#45;&gt;AppModule -->
<g id="edge21" class="edge">
<title>HomeExpertsComponent&#45;&gt;AppModule</title>
<path fill="none" stroke="black" d="M6272,-84.83C6272,-101.2 6272,-122.8 6272,-122.8 6272,-122.8 4959.94,-122.8 4959.94,-122.8"/>
<polygon fill="black" stroke="black" points="4959.94,-119.3 4949.94,-122.8 4959.94,-126.3 4959.94,-119.3"/>
</g>
<!-- HomeExternalFeedLinksComponent -->
<g id="node22" class="node">
<title>HomeExternalFeedLinksComponent</title>
<polygon fill="#ffffb3" stroke="black" points="6175.07,-84.8 5952.93,-84.8 5952.93,-48.8 6175.07,-48.8 6175.07,-84.8"/>
<text text-anchor="middle" x="6064" y="-62.6" font-family="Times,serif" font-size="14.00">HomeExternalFeedLinksComponent</text>
</g>
<!-- HomeExternalFeedLinksComponent&#45;&gt;AppModule -->
<g id="edge22" class="edge">
<title>HomeExternalFeedLinksComponent&#45;&gt;AppModule</title>
<path fill="none" stroke="black" d="M6064,-84.81C6064,-100.85 6064,-121.8 6064,-121.8 6064,-121.8 4959.83,-121.8 4959.83,-121.8"/>
<polygon fill="black" stroke="black" points="4959.83,-118.3 4949.83,-121.8 4959.83,-125.3 4959.83,-118.3"/>
</g>
<!-- HomeHeadBannerComponent -->
<g id="node23" class="node">
<title>HomeHeadBannerComponent</title>
<polygon fill="#ffffb3" stroke="black" points="5934.51,-84.8 5749.49,-84.8 5749.49,-48.8 5934.51,-48.8 5934.51,-84.8"/>
<text text-anchor="middle" x="5842" y="-62.6" font-family="Times,serif" font-size="14.00">HomeHeadBannerComponent</text>
</g>
<!-- HomeHeadBannerComponent&#45;&gt;AppModule -->
<g id="edge23" class="edge">
<title>HomeHeadBannerComponent&#45;&gt;AppModule</title>
<path fill="none" stroke="black" d="M5842,-85.08C5842,-100.75 5842,-120.8 5842,-120.8 5842,-120.8 4959.95,-120.8 4959.95,-120.8"/>
<polygon fill="black" stroke="black" points="4959.95,-117.3 4949.95,-120.8 4959.95,-124.3 4959.95,-117.3"/>
</g>
<!-- HomeLabsComponent -->
<g id="node24" class="node">
<title>HomeLabsComponent</title>
<polygon fill="#ffffb3" stroke="black" points="5731.26,-84.8 5588.74,-84.8 5588.74,-48.8 5731.26,-48.8 5731.26,-84.8"/>
<text text-anchor="middle" x="5660" y="-62.6" font-family="Times,serif" font-size="14.00">HomeLabsComponent</text>
</g>
<!-- HomeLabsComponent&#45;&gt;AppModule -->
<g id="edge24" class="edge">
<title>HomeLabsComponent&#45;&gt;AppModule</title>
<path fill="none" stroke="black" d="M5660,-85.04C5660,-100.37 5660,-119.8 5660,-119.8 5660,-119.8 4959.77,-119.8 4959.77,-119.8"/>
<polygon fill="black" stroke="black" points="4959.77,-116.3 4949.77,-119.8 4959.77,-123.3 4959.77,-116.3"/>
</g>
<!-- HomePromotionsComponent -->
<g id="node25" class="node">
<title>HomePromotionsComponent</title>
<polygon fill="#ffffb3" stroke="black" points="5571.11,-84.8 5390.89,-84.8 5390.89,-48.8 5571.11,-48.8 5571.11,-84.8"/>
<text text-anchor="middle" x="5481" y="-62.6" font-family="Times,serif" font-size="14.00">HomePromotionsComponent</text>
</g>
<!-- HomePromotionsComponent&#45;&gt;AppModule -->
<g id="edge25" class="edge">
<title>HomePromotionsComponent&#45;&gt;AppModule</title>
<path fill="none" stroke="black" d="M5481,-84.92C5481,-99.58 5481,-117.8 5481,-117.8 5481,-117.8 4959.67,-117.8 4959.67,-117.8"/>
<polygon fill="black" stroke="black" points="4959.67,-114.3 4949.67,-117.8 4959.67,-121.3 4959.67,-114.3"/>
</g>
<!-- LogoutComponent -->
<g id="node26" class="node">
<title>LogoutComponent</title>
<polygon fill="#ffffb3" stroke="black" points="5372.77,-84.8 5251.23,-84.8 5251.23,-48.8 5372.77,-48.8 5372.77,-84.8"/>
<text text-anchor="middle" x="5312" y="-62.6" font-family="Times,serif" font-size="14.00">LogoutComponent</text>
</g>
<!-- LogoutComponent&#45;&gt;AppModule -->
<g id="edge26" class="edge">
<title>LogoutComponent&#45;&gt;AppModule</title>
<path fill="none" stroke="black" d="M5312,-84.85C5312,-99.17 5312,-116.8 5312,-116.8 5312,-116.8 4959.71,-116.8 4959.71,-116.8"/>
<polygon fill="black" stroke="black" points="4959.71,-113.3 4949.71,-116.8 4959.71,-120.3 4959.71,-113.3"/>
</g>
<!-- NavbarComponent -->
<g id="node27" class="node">
<title>NavbarComponent</title>
<polygon fill="#ffffb3" stroke="black" points="5233.03,-84.8 5110.97,-84.8 5110.97,-48.8 5233.03,-48.8 5233.03,-84.8"/>
<text text-anchor="middle" x="5172" y="-62.6" font-family="Times,serif" font-size="14.00">NavbarComponent</text>
</g>
<!-- NavbarComponent&#45;&gt;AppModule -->
<g id="edge27" class="edge">
<title>NavbarComponent&#45;&gt;AppModule</title>
<path fill="none" stroke="black" d="M5172,-85.05C5172,-98.98 5172,-115.8 5172,-115.8 5172,-115.8 4959.83,-115.8 4959.83,-115.8"/>
<polygon fill="black" stroke="black" points="4959.83,-112.3 4949.83,-115.8 4959.83,-119.3 4959.83,-112.3"/>
</g>
<!-- NavbarMenuComponent -->
<g id="node28" class="node">
<title>NavbarMenuComponent</title>
<polygon fill="#ffffb3" stroke="black" points="5092.69,-84.8 4937.31,-84.8 4937.31,-48.8 5092.69,-48.8 5092.69,-84.8"/>
<text text-anchor="middle" x="5015" y="-62.6" font-family="Times,serif" font-size="14.00">NavbarMenuComponent</text>
</g>
<!-- NavbarMenuComponent&#45;&gt;AppModule -->
<g id="edge28" class="edge">
<title>NavbarMenuComponent&#45;&gt;AppModule</title>
<path fill="none" stroke="black" d="M4943.62,-84.91C4943.62,-84.91 4943.62,-103.79 4943.62,-103.79"/>
<polygon fill="black" stroke="black" points="4940.12,-103.79 4943.62,-113.79 4947.12,-103.79 4940.12,-103.79"/>
</g>
<!-- OrganizerCommunitiesListComponent -->
<g id="node29" class="node">
<title>OrganizerCommunitiesListComponent</title>
<polygon fill="#ffffb3" stroke="black" points="4919.02,-84.8 4684.98,-84.8 4684.98,-48.8 4919.02,-48.8 4919.02,-84.8"/>
<text text-anchor="middle" x="4802" y="-62.6" font-family="Times,serif" font-size="14.00">OrganizerCommunitiesListComponent</text>
</g>
<!-- OrganizerCommunitiesListComponent&#45;&gt;AppModule -->
<g id="edge29" class="edge">
<title>OrganizerCommunitiesListComponent&#45;&gt;AppModule</title>
<path fill="none" stroke="black" d="M4892.72,-84.91C4892.72,-84.91 4892.72,-103.79 4892.72,-103.79"/>
<polygon fill="black" stroke="black" points="4889.22,-103.79 4892.72,-113.79 4896.22,-103.79 4889.22,-103.79"/>
</g>
<!-- ProfileStatusBarComponent -->
<g id="node30" class="node">
<title>ProfileStatusBarComponent</title>
<polygon fill="#ffffb3" stroke="black" points="4666.88,-84.8 4493.12,-84.8 4493.12,-48.8 4666.88,-48.8 4666.88,-84.8"/>
<text text-anchor="middle" x="4580" y="-62.6" font-family="Times,serif" font-size="14.00">ProfileStatusBarComponent</text>
</g>
<!-- ProfileStatusBarComponent&#45;&gt;AppModule -->
<g id="edge30" class="edge">
<title>ProfileStatusBarComponent&#45;&gt;AppModule</title>
<path fill="none" stroke="black" d="M4580,-85.05C4580,-98.98 4580,-115.8 4580,-115.8 4580,-115.8 4856.13,-115.8 4856.13,-115.8"/>
<polygon fill="black" stroke="black" points="4856.13,-119.3 4866.13,-115.8 4856.13,-112.3 4856.13,-119.3"/>
</g>
<!-- PushNotificationComponent -->
<g id="node31" class="node">
<title>PushNotificationComponent</title>
<polygon fill="#ffffb3" stroke="black" points="4475.21,-84.8 4298.79,-84.8 4298.79,-48.8 4475.21,-48.8 4475.21,-84.8"/>
<text text-anchor="middle" x="4387" y="-62.6" font-family="Times,serif" font-size="14.00">PushNotificationComponent</text>
</g>
<!-- PushNotificationComponent&#45;&gt;AppModule -->
<g id="edge31" class="edge">
<title>PushNotificationComponent&#45;&gt;AppModule</title>
<path fill="none" stroke="black" d="M4387,-84.85C4387,-99.17 4387,-116.8 4387,-116.8 4387,-116.8 4856.25,-116.8 4856.25,-116.8"/>
<polygon fill="black" stroke="black" points="4856.25,-120.3 4866.25,-116.8 4856.25,-113.3 4856.25,-120.3"/>
</g>
<!-- SearchBarComponent -->
<g id="node32" class="node">
<title>SearchBarComponent</title>
<polygon fill="#ffffb3" stroke="black" points="4280.64,-84.8 4141.36,-84.8 4141.36,-48.8 4280.64,-48.8 4280.64,-84.8"/>
<text text-anchor="middle" x="4211" y="-62.6" font-family="Times,serif" font-size="14.00">SearchBarComponent</text>
</g>
<!-- SearchBarComponent&#45;&gt;AppModule -->
<g id="edge32" class="edge">
<title>SearchBarComponent&#45;&gt;AppModule</title>
<path fill="none" stroke="black" d="M4211,-84.92C4211,-99.58 4211,-117.8 4211,-117.8 4211,-117.8 4856.23,-117.8 4856.23,-117.8"/>
<polygon fill="black" stroke="black" points="4856.23,-121.3 4866.23,-117.8 4856.23,-114.3 4856.23,-121.3"/>
</g>
<!-- SidebarMenuComponent -->
<g id="node33" class="node">
<title>SidebarMenuComponent</title>
<polygon fill="#ffffb3" stroke="black" points="4123.26,-84.8 3966.74,-84.8 3966.74,-48.8 4123.26,-48.8 4123.26,-84.8"/>
<text text-anchor="middle" x="4045" y="-62.6" font-family="Times,serif" font-size="14.00">SidebarMenuComponent</text>
</g>
<!-- SidebarMenuComponent&#45;&gt;AppModule -->
<g id="edge33" class="edge">
<title>SidebarMenuComponent&#45;&gt;AppModule</title>
<path fill="none" stroke="black" d="M4045,-85.04C4045,-100.37 4045,-119.8 4045,-119.8 4045,-119.8 4856.08,-119.8 4856.08,-119.8"/>
<polygon fill="black" stroke="black" points="4856.08,-123.3 4866.08,-119.8 4856.08,-116.3 4856.08,-123.3"/>
</g>
<!-- SpeakerResourceFormComponent -->
<g id="node34" class="node">
<title>SpeakerResourceFormComponent</title>
<polygon fill="#ffffb3" stroke="black" points="3948.35,-84.8 3739.65,-84.8 3739.65,-48.8 3948.35,-48.8 3948.35,-84.8"/>
<text text-anchor="middle" x="3844" y="-62.6" font-family="Times,serif" font-size="14.00">SpeakerResourceFormComponent</text>
</g>
<!-- SpeakerResourceFormComponent&#45;&gt;AppModule -->
<g id="edge34" class="edge">
<title>SpeakerResourceFormComponent&#45;&gt;AppModule</title>
<path fill="none" stroke="black" d="M3844,-85.08C3844,-100.75 3844,-120.8 3844,-120.8 3844,-120.8 4856.29,-120.8 4856.29,-120.8"/>
<polygon fill="black" stroke="black" points="4856.29,-124.3 4866.29,-120.8 4856.29,-117.3 4856.29,-124.3"/>
</g>
<!-- StepperComponent -->
<g id="node35" class="node">
<title>StepperComponent</title>
<polygon fill="#ffffb3" stroke="black" points="3722.1,-84.8 3597.9,-84.8 3597.9,-48.8 3722.1,-48.8 3722.1,-84.8"/>
<text text-anchor="middle" x="3660" y="-62.6" font-family="Times,serif" font-size="14.00">StepperComponent</text>
</g>
<!-- StepperComponent&#45;&gt;AppModule -->
<g id="edge35" class="edge">
<title>StepperComponent&#45;&gt;AppModule</title>
<path fill="none" stroke="black" d="M3660,-84.81C3660,-100.85 3660,-121.8 3660,-121.8 3660,-121.8 4856.12,-121.8 4856.12,-121.8"/>
<polygon fill="black" stroke="black" points="4856.12,-125.3 4866.12,-121.8 4856.12,-118.3 4856.12,-125.3"/>
</g>
<!-- SwUpdateComponent -->
<g id="node36" class="node">
<title>SwUpdateComponent</title>
<polygon fill="#ffffb3" stroke="black" points="3579.66,-84.8 3440.34,-84.8 3440.34,-48.8 3579.66,-48.8 3579.66,-84.8"/>
<text text-anchor="middle" x="3510" y="-62.6" font-family="Times,serif" font-size="14.00">SwUpdateComponent</text>
</g>
<!-- SwUpdateComponent&#45;&gt;AppModule -->
<g id="edge36" class="edge">
<title>SwUpdateComponent&#45;&gt;AppModule</title>
<path fill="none" stroke="black" d="M3510,-84.83C3510,-101.2 3510,-122.8 3510,-122.8 3510,-122.8 4856.16,-122.8 4856.16,-122.8"/>
<polygon fill="black" stroke="black" points="4856.16,-126.3 4866.16,-122.8 4856.16,-119.3 4856.16,-126.3"/>
</g>
<!-- AppComponent  -->
<g id="node53" class="node">
<title>AppComponent </title>
<polygon fill="#80b1d3" stroke="black" points="4962.44,-214.8 4853.56,-214.8 4853.56,-178.8 4962.44,-178.8 4962.44,-214.8"/>
<text text-anchor="middle" x="4908" y="-192.6" font-family="Times,serif" font-size="14.00">AppComponent </text>
</g>
<!-- AppModule&#45;&gt;AppComponent  -->
<g id="edge52" class="edge">
<title>AppModule&#45;&gt;AppComponent </title>
<path fill="none" stroke="black" stroke-dasharray="1,5" d="M4908,-149.91C4908,-149.91 4908,-168.79 4908,-168.79"/>
<polygon fill="black" stroke="black" points="4904.5,-168.79 4908,-178.79 4911.5,-168.79 4904.5,-168.79"/>
</g>
<!-- AppRoutingModule -->
<g id="node38" class="node">
<title>AppRoutingModule</title>
<polygon fill="#8dd3c7" stroke="black" points="2314.28,-84.8 2311.28,-88.8 2290.28,-88.8 2287.28,-84.8 2185.72,-84.8 2185.72,-48.8 2314.28,-48.8 2314.28,-84.8"/>
<text text-anchor="middle" x="2250" y="-62.6" font-family="Times,serif" font-size="14.00">AppRoutingModule</text>
</g>
<!-- AppRoutingModule&#45;&gt;AppModule -->
<g id="edge37" class="edge">
<title>AppRoutingModule&#45;&gt;AppModule</title>
<path fill="none" stroke="black" d="M2250,-84.97C2250,-103.89 2250,-130.8 2250,-130.8 2250,-130.8 4856.25,-130.8 4856.25,-130.8"/>
<polygon fill="black" stroke="black" points="4856.25,-134.3 4866.25,-130.8 4856.25,-127.3 4856.25,-134.3"/>
</g>
<!-- CommunityChannelsModule -->
<g id="node39" class="node">
<title>CommunityChannelsModule</title>
<polygon fill="#8dd3c7" stroke="black" points="2167.05,-84.8 2164.05,-88.8 2143.05,-88.8 2140.05,-84.8 1988.95,-84.8 1988.95,-48.8 2167.05,-48.8 2167.05,-84.8"/>
<text text-anchor="middle" x="2078" y="-62.6" font-family="Times,serif" font-size="14.00">CommunityChannelsModule</text>
</g>
<!-- CommunityChannelsModule&#45;&gt;AppModule -->
<g id="edge38" class="edge">
<title>CommunityChannelsModule&#45;&gt;AppModule</title>
<path fill="none" stroke="black" d="M2078,-84.91C2078,-104.14 2078,-131.8 2078,-131.8 2078,-131.8 4856.08,-131.8 4856.08,-131.8"/>
<polygon fill="black" stroke="black" points="4856.08,-135.3 4866.08,-131.8 4856.08,-128.3 4856.08,-135.3"/>
</g>
<!-- LabsModule -->
<g id="node40" class="node">
<title>LabsModule</title>
<polygon fill="#8dd3c7" stroke="black" points="1970.27,-84.8 1967.27,-88.8 1946.27,-88.8 1943.27,-84.8 1883.73,-84.8 1883.73,-48.8 1970.27,-48.8 1970.27,-84.8"/>
<text text-anchor="middle" x="1927" y="-62.6" font-family="Times,serif" font-size="14.00">LabsModule</text>
</g>
<!-- LabsModule&#45;&gt;AppModule -->
<g id="edge39" class="edge">
<title>LabsModule&#45;&gt;AppModule</title>
<path fill="none" stroke="black" d="M1927,-85.11C1927,-104.95 1927,-133.8 1927,-133.8 1927,-133.8 4856.14,-133.8 4856.14,-133.8"/>
<polygon fill="black" stroke="black" points="4856.14,-137.3 4866.14,-133.8 4856.14,-130.3 4856.14,-137.3"/>
</g>
<!-- LibErrorHandlerModule -->
<g id="node41" class="node">
<title>LibErrorHandlerModule</title>
<polygon fill="#8dd3c7" stroke="black" points="1865.62,-84.8 1862.62,-88.8 1841.62,-88.8 1838.62,-84.8 1712.38,-84.8 1712.38,-48.8 1865.62,-48.8 1865.62,-84.8"/>
<text text-anchor="middle" x="1789" y="-62.6" font-family="Times,serif" font-size="14.00">LibErrorHandlerModule</text>
</g>
<!-- LibErrorHandlerModule&#45;&gt;AppModule -->
<g id="edge40" class="edge">
<title>LibErrorHandlerModule&#45;&gt;AppModule</title>
<path fill="none" stroke="black" d="M1789,-85.02C1789,-105.17 1789,-134.8 1789,-134.8 1789,-134.8 4856.27,-134.8 4856.27,-134.8"/>
<polygon fill="black" stroke="black" points="4856.27,-138.3 4866.27,-134.8 4856.27,-131.3 4856.27,-138.3"/>
</g>
<!-- MainNewslettersModule -->
<g id="node42" class="node">
<title>MainNewslettersModule</title>
<polygon fill="#8dd3c7" stroke="black" points="1694.69,-84.8 1691.69,-88.8 1670.69,-88.8 1667.69,-84.8 1539.31,-84.8 1539.31,-48.8 1694.69,-48.8 1694.69,-84.8"/>
<text text-anchor="middle" x="1617" y="-62.6" font-family="Times,serif" font-size="14.00">MainNewslettersModule</text>
</g>
<!-- MainNewslettersModule&#45;&gt;AppModule -->
<g id="edge41" class="edge">
<title>MainNewslettersModule&#45;&gt;AppModule</title>
<path fill="none" stroke="black" d="M1617,-84.93C1617,-105.37 1617,-135.8 1617,-135.8 1617,-135.8 4856.09,-135.8 4856.09,-135.8"/>
<polygon fill="black" stroke="black" points="4856.09,-139.3 4866.09,-135.8 4856.09,-132.3 4856.09,-139.3"/>
</g>
<!-- MiniUserProfileModule -->
<g id="node43" class="node">
<title>MiniUserProfileModule</title>
<polygon fill="#8dd3c7" stroke="black" points="1521.82,-84.8 1518.82,-88.8 1497.82,-88.8 1494.82,-84.8 1370.18,-84.8 1370.18,-48.8 1521.82,-48.8 1521.82,-84.8"/>
<text text-anchor="middle" x="1446" y="-62.6" font-family="Times,serif" font-size="14.00">MiniUserProfileModule</text>
</g>
<!-- MiniUserProfileModule&#45;&gt;AppModule -->
<g id="edge42" class="edge">
<title>MiniUserProfileModule&#45;&gt;AppModule</title>
<path fill="none" stroke="black" d="M1446,-85.08C1446,-106.12 1446,-137.8 1446,-137.8 1446,-137.8 4856.09,-137.8 4856.09,-137.8"/>
<polygon fill="black" stroke="black" points="4856.09,-141.3 4866.09,-137.8 4856.09,-134.3 4856.09,-141.3"/>
</g>
<!-- NotificationsModule -->
<g id="node44" class="node">
<title>NotificationsModule</title>
<polygon fill="#8dd3c7" stroke="black" points="1352.15,-84.8 1349.15,-88.8 1328.15,-88.8 1325.15,-84.8 1219.85,-84.8 1219.85,-48.8 1352.15,-48.8 1352.15,-84.8"/>
<text text-anchor="middle" x="1286" y="-62.6" font-family="Times,serif" font-size="14.00">NotificationsModule</text>
</g>
<!-- NotificationsModule&#45;&gt;AppModule -->
<g id="edge43" class="edge">
<title>NotificationsModule&#45;&gt;AppModule</title>
<path fill="none" stroke="black" d="M1286,-84.97C1286,-106.3 1286,-138.8 1286,-138.8 1286,-138.8 4856.07,-138.8 4856.07,-138.8"/>
<polygon fill="black" stroke="black" points="4856.07,-142.3 4866.07,-138.8 4856.07,-135.3 4856.07,-142.3"/>
</g>
<!-- PageAdsModule -->
<g id="node45" class="node">
<title>PageAdsModule</title>
<polygon fill="#8dd3c7" stroke="black" points="1201.82,-84.8 1198.82,-88.8 1177.82,-88.8 1174.82,-84.8 1092.18,-84.8 1092.18,-48.8 1201.82,-48.8 1201.82,-84.8"/>
<text text-anchor="middle" x="1147" y="-62.6" font-family="Times,serif" font-size="14.00">PageAdsModule</text>
</g>
<!-- PageAdsModule&#45;&gt;AppModule -->
<g id="edge44" class="edge">
<title>PageAdsModule&#45;&gt;AppModule</title>
<path fill="none" stroke="black" d="M1147,-84.84C1147,-106.46 1147,-139.8 1147,-139.8 1147,-139.8 4856.08,-139.8 4856.08,-139.8"/>
<polygon fill="black" stroke="black" points="4856.08,-143.3 4866.08,-139.8 4856.08,-136.3 4856.08,-143.3"/>
</g>
<!-- PublicCommunityModule -->
<g id="node46" class="node">
<title>PublicCommunityModule</title>
<polygon fill="#8dd3c7" stroke="black" points="1074.23,-84.8 1071.23,-88.8 1050.23,-88.8 1047.23,-84.8 911.77,-84.8 911.77,-48.8 1074.23,-48.8 1074.23,-84.8"/>
<text text-anchor="middle" x="993" y="-62.6" font-family="Times,serif" font-size="14.00">PublicCommunityModule</text>
</g>
<!-- PublicCommunityModule&#45;&gt;AppModule -->
<g id="edge45" class="edge">
<title>PublicCommunityModule&#45;&gt;AppModule</title>
<path fill="none" stroke="black" d="M993,-85.09C993,-107.01 993,-140.8 993,-140.8 993,-140.8 4856.03,-140.8 4856.03,-140.8"/>
<polygon fill="black" stroke="black" points="4856.03,-144.3 4866.03,-140.8 4856.03,-137.3 4856.03,-144.3"/>
</g>
<!-- RecommendationsModule -->
<g id="node47" class="node">
<title>RecommendationsModule</title>
<polygon fill="#8dd3c7" stroke="black" points="893.75,-84.8 890.75,-88.8 869.75,-88.8 866.75,-84.8 730.25,-84.8 730.25,-48.8 893.75,-48.8 893.75,-84.8"/>
<text text-anchor="middle" x="812" y="-62.6" font-family="Times,serif" font-size="14.00">RecommendationsModule</text>
</g>
<!-- RecommendationsModule&#45;&gt;AppModule -->
<g id="edge46" class="edge">
<title>RecommendationsModule&#45;&gt;AppModule</title>
<path fill="none" stroke="black" d="M812,-84.81C812,-107.29 812,-142.8 812,-142.8 812,-142.8 4856.13,-142.8 4856.13,-142.8"/>
<polygon fill="black" stroke="black" points="4856.13,-146.3 4866.13,-142.8 4856.13,-139.3 4856.13,-146.3"/>
</g>
<!-- SearchModule -->
<g id="node48" class="node">
<title>SearchModule</title>
<polygon fill="#8dd3c7" stroke="black" points="711.64,-84.8 708.64,-88.8 687.64,-88.8 684.64,-84.8 614.36,-84.8 614.36,-48.8 711.64,-48.8 711.64,-84.8"/>
<text text-anchor="middle" x="663" y="-62.6" font-family="Times,serif" font-size="14.00">SearchModule</text>
</g>
<!-- SearchModule&#45;&gt;AppModule -->
<g id="edge47" class="edge">
<title>SearchModule&#45;&gt;AppModule</title>
<path fill="none" stroke="black" d="M663,-85.05C663,-107.82 663,-143.8 663,-143.8 663,-143.8 4856.33,-143.8 4856.33,-143.8"/>
<polygon fill="black" stroke="black" points="4856.33,-147.3 4866.33,-143.8 4856.33,-140.3 4856.33,-147.3"/>
</g>
<!-- SharedDirectivesModule -->
<g id="node49" class="node">
<title>SharedDirectivesModule</title>
<polygon fill="#8dd3c7" stroke="black" points="595.96,-84.8 592.96,-88.8 571.96,-88.8 568.96,-84.8 440.04,-84.8 440.04,-48.8 595.96,-48.8 595.96,-84.8"/>
<text text-anchor="middle" x="518" y="-62.6" font-family="Times,serif" font-size="14.00">SharedDirectivesModule</text>
</g>
<!-- SharedDirectivesModule&#45;&gt;AppModule -->
<g id="edge48" class="edge">
<title>SharedDirectivesModule&#45;&gt;AppModule</title>
<path fill="none" stroke="black" d="M518,-84.89C518,-107.93 518,-144.8 518,-144.8 518,-144.8 4856.31,-144.8 4856.31,-144.8"/>
<polygon fill="black" stroke="black" points="4856.31,-148.3 4866.31,-144.8 4856.31,-141.3 4856.31,-148.3"/>
</g>
<!-- SkeletonScreensModule -->
<g id="node50" class="node">
<title>SkeletonScreensModule</title>
<polygon fill="#8dd3c7" stroke="black" points="422.08,-84.8 419.08,-88.8 398.08,-88.8 395.08,-84.8 269.92,-84.8 269.92,-48.8 422.08,-48.8 422.08,-84.8"/>
<text text-anchor="middle" x="346" y="-62.6" font-family="Times,serif" font-size="14.00">SkeletonScreensModule</text>
</g>
<!-- SkeletonScreensModule&#45;&gt;AppModule -->
<g id="edge49" class="edge">
<title>SkeletonScreensModule&#45;&gt;AppModule</title>
<path fill="none" stroke="black" d="M346,-84.95C346,-108.56 346,-146.8 346,-146.8 346,-146.8 4856.11,-146.8 4856.11,-146.8"/>
<polygon fill="black" stroke="black" points="4856.11,-150.3 4866.11,-146.8 4856.11,-143.3 4856.11,-150.3"/>
</g>
<!-- UserChatsModule -->
<g id="node51" class="node">
<title>UserChatsModule</title>
<polygon fill="#8dd3c7" stroke="black" points="251.88,-84.8 248.88,-88.8 227.88,-88.8 224.88,-84.8 134.12,-84.8 134.12,-48.8 251.88,-48.8 251.88,-84.8"/>
<text text-anchor="middle" x="193" y="-62.6" font-family="Times,serif" font-size="14.00">UserChatsModule</text>
</g>
<!-- UserChatsModule&#45;&gt;AppModule -->
<g id="edge50" class="edge">
<title>UserChatsModule&#45;&gt;AppModule</title>
<path fill="none" stroke="black" d="M193,-85.18C193,-109.08 193,-147.8 193,-147.8 193,-147.8 4856.16,-147.8 4856.16,-147.8"/>
<polygon fill="black" stroke="black" points="4856.16,-151.3 4866.16,-147.8 4856.16,-144.3 4856.16,-151.3"/>
</g>
<!-- UsersModule -->
<g id="node52" class="node">
<title>UsersModule</title>
<polygon fill="#8dd3c7" stroke="black" points="115.94,-84.8 112.94,-88.8 91.94,-88.8 88.94,-84.8 24.06,-84.8 24.06,-48.8 115.94,-48.8 115.94,-84.8"/>
<text text-anchor="middle" x="70" y="-62.6" font-family="Times,serif" font-size="14.00">UsersModule</text>
</g>
<!-- UsersModule&#45;&gt;AppModule -->
<g id="edge51" class="edge">
<title>UsersModule&#45;&gt;AppModule</title>
<path fill="none" stroke="black" d="M70,-85C70,-109.16 70,-148.8 70,-148.8 70,-148.8 4856.18,-148.8 4856.18,-148.8"/>
<polygon fill="black" stroke="black" points="4856.18,-152.3 4866.18,-148.8 4856.18,-145.3 4856.18,-152.3"/>
</g>
<!-- ApiParserResponseInterceptor -->
<g id="node54" class="node">
<title>ApiParserResponseInterceptor</title>
<ellipse fill="#fdb462" stroke="black" cx="3287" cy="-66.8" rx="129.06" ry="18"/>
<text text-anchor="middle" x="3287" y="-62.6" font-family="Times,serif" font-size="14.00">ApiParserResponseInterceptor</text>
</g>
<!-- ApiParserResponseInterceptor&#45;&gt;AppModule -->
<g id="edge53" class="edge">
<title>ApiParserResponseInterceptor&#45;&gt;AppModule</title>
<path fill="none" stroke="black" d="M3287,-84.83C3287,-101.86 3287,-124.8 3287,-124.8 3287,-124.8 4856.3,-124.8 4856.3,-124.8"/>
<polygon fill="black" stroke="black" points="4856.3,-128.3 4866.3,-124.8 4856.3,-121.3 4856.3,-128.3"/>
</g>
<!-- AppInitService -->
<g id="node55" class="node">
<title>AppInitService</title>
<ellipse fill="#fdb462" stroke="black" cx="3070" cy="-66.8" rx="70.07" ry="18"/>
<text text-anchor="middle" x="3070" y="-62.6" font-family="Times,serif" font-size="14.00">AppInitService</text>
</g>
<!-- AppInitService&#45;&gt;AppModule -->
<g id="edge54" class="edge">
<title>AppInitService&#45;&gt;AppModule</title>
<path fill="none" stroke="black" d="M3070,-84.82C3070,-102.17 3070,-125.8 3070,-125.8 3070,-125.8 4856.16,-125.8 4856.16,-125.8"/>
<polygon fill="black" stroke="black" points="4856.16,-129.3 4866.16,-125.8 4856.16,-122.3 4856.16,-129.3"/>
</g>
<!-- AuthTokenInterceptor -->
<g id="node56" class="node">
<title>AuthTokenInterceptor</title>
<ellipse fill="#fdb462" stroke="black" cx="2885" cy="-66.8" rx="97.26" ry="18"/>
<text text-anchor="middle" x="2885" y="-62.6" font-family="Times,serif" font-size="14.00">AuthTokenInterceptor</text>
</g>
<!-- AuthTokenInterceptor&#45;&gt;AppModule -->
<g id="edge55" class="edge">
<title>AuthTokenInterceptor&#45;&gt;AppModule</title>
<path fill="none" stroke="black" d="M2885,-84.8C2885,-102.48 2885,-126.8 2885,-126.8 2885,-126.8 4856.21,-126.8 4856.21,-126.8"/>
<polygon fill="black" stroke="black" points="4856.21,-130.3 4866.21,-126.8 4856.21,-123.3 4856.21,-130.3"/>
</g>
<!-- IsBrowserService -->
<g id="node57" class="node">
<title>IsBrowserService</title>
<ellipse fill="#fdb462" stroke="black" cx="2690" cy="-66.8" rx="79.87" ry="18"/>
<text text-anchor="middle" x="2690" y="-62.6" font-family="Times,serif" font-size="14.00">IsBrowserService</text>
</g>
<!-- IsBrowserService&#45;&gt;AppModule -->
<g id="edge56" class="edge">
<title>IsBrowserService&#45;&gt;AppModule</title>
<path fill="none" stroke="black" d="M2690,-85.07C2690,-103.36 2690,-128.8 2690,-128.8 2690,-128.8 4856.16,-128.8 4856.16,-128.8"/>
<polygon fill="black" stroke="black" points="4856.16,-132.3 4866.16,-128.8 4856.16,-125.3 4856.16,-132.3"/>
</g>
<!-- PrismJsHighlightCodeService -->
<g id="node58" class="node">
<title>PrismJsHighlightCodeService</title>
<ellipse fill="#fdb462" stroke="black" cx="2465" cy="-66.8" rx="127.41" ry="18"/>
<text text-anchor="middle" x="2465" y="-62.6" font-family="Times,serif" font-size="14.00">PrismJsHighlightCodeService</text>
</g>
<!-- PrismJsHighlightCodeService&#45;&gt;AppModule -->
<g id="edge57" class="edge">
<title>PrismJsHighlightCodeService&#45;&gt;AppModule</title>
<path fill="none" stroke="black" d="M2465,-85.02C2465,-103.63 2465,-129.8 2465,-129.8 2465,-129.8 4856.11,-129.8 4856.11,-129.8"/>
<polygon fill="black" stroke="black" points="4856.11,-133.3 4866.11,-129.8 4856.11,-126.3 4856.11,-133.3"/>
</g>
</g>
</svg>
