<?xml version="1.0" encoding="UTF-8" standalone="no"?>
<!DOCTYPE svg PUBLIC "-//W3C//DTD SVG 1.1//EN"
 "http://www.w3.org/Graphics/SVG/1.1/DTD/svg11.dtd">
<!-- Generated by graphviz version 2.47.0 (20210316.0004)
 -->
<!-- Title: dependencies Pages: 1 -->
<svg width="6847pt" height="349pt"
     viewBox="0.00 0.00 6847.00 349.00" xmlns="http://www.w3.org/2000/svg">
<g id="graph0" class="graph" transform="scale(1 1) rotate(0) translate(4 345)">
<title>dependencies</title>
<polygon fill="white" stroke="transparent" points="-4,4 -4,-345 6843,-345 6843,4 -4,4"/>
<text text-anchor="start" x="3398.51" y="-42.4" font-family="sans-serif" font-weight="bold" font-size="14.00">Legend</text>
<polygon fill="#ffffb3" stroke="transparent" points="3185.5,-10 3185.5,-30 3205.5,-30 3205.5,-10 3185.5,-10"/>
<text text-anchor="start" x="3209.13" y="-15.4" font-family="sans-serif" font-size="14.00"> &#160;Declarations</text>
<polygon fill="#8dd3c7" stroke="transparent" points="3298.5,-10 3298.5,-30 3318.5,-30 3318.5,-10 3298.5,-10"/>
<text text-anchor="start" x="3322.23" y="-15.4" font-family="sans-serif" font-size="14.00"> &#160;Module</text>
<polygon fill="#80b1d3" stroke="transparent" points="3384.5,-10 3384.5,-30 3404.5,-30 3404.5,-10 3384.5,-10"/>
<text text-anchor="start" x="3408.28" y="-15.4" font-family="sans-serif" font-size="14.00"> &#160;Bootstrap</text>
<polygon fill="#fdb462" stroke="transparent" points="3481.5,-10 3481.5,-30 3501.5,-30 3501.5,-10 3481.5,-10"/>
<text text-anchor="start" x="3505.17" y="-15.4" font-family="sans-serif" font-size="14.00"> &#160;Providers</text>
<polygon fill="#fb8072" stroke="transparent" points="3577.5,-10 3577.5,-30 3597.5,-30 3597.5,-10 3577.5,-10"/>
<text text-anchor="start" x="3601.23" y="-15.4" font-family="sans-serif" font-size="14.00"> &#160;Exports</text>
<g id="clust1" class="cluster">
<title>cluster_AppModule</title>
<polygon fill="none" stroke="black" stroke-dasharray="1,5" points="8,-70 8,-333 6831,-333 6831,-70 8,-70"/>
</g>
<g id="clust2" class="cluster">
<title>cluster_AppModule_declarations</title>
<polygon fill="none" stroke="black" points="2336,-143 2336,-195 6823,-195 6823,-143 2336,-143"/>
</g>
<g id="clust4" class="cluster">
<title>cluster_AppModule_AppComponent_providers</title>
<polygon fill="none" stroke="black" points="6540,-78 6540,-130 6716,-130 6716,-78 6540,-78"/>
</g>
<g id="clust31" class="cluster">
<title>cluster_AppModule_providers</title>
<polygon fill="none" stroke="black" points="1411,-143 1411,-195 2328,-195 2328,-143 1411,-143"/>
</g>
<g id="clust28" class="cluster">
<title>cluster_AppModule_imports</title>
<polygon fill="none" stroke="black" points="16,-143 16,-195 1403,-195 1403,-143 16,-143"/>
</g>
<g id="clust30" class="cluster">
<title>cluster_AppModule_bootstrap</title>
<polygon fill="none" stroke="black" points="3407,-273 3407,-325 3531,-325 3531,-273 3407,-273"/>
</g>
<!-- AboutComponent -->
<g id="node1" class="node">
<title>AboutComponent</title>
<polygon fill="#ffffb3" stroke="black" points="6815.33,-187 6698.67,-187 6698.67,-151 6815.33,-151 6815.33,-187"/>
<text text-anchor="middle" x="6757" y="-164.8" font-family="Times,serif" font-size="14.00">AboutComponent</text>
</g>
<!-- AppModule -->
<g id="node26" class="node">
<title>AppModule</title>
<polygon fill="#8dd3c7" stroke="black" points="3510.66,-252 3507.66,-256 3486.66,-256 3483.66,-252 3427.34,-252 3427.34,-216 3510.66,-216 3510.66,-252"/>
<text text-anchor="middle" x="3469" y="-229.8" font-family="Times,serif" font-size="14.00">AppModule</text>
</g>
<!-- AboutComponent&#45;&gt;AppModule -->
<g id="edge1" class="edge">
<title>AboutComponent&#45;&gt;AppModule</title>
<path fill="none" stroke="black" d="M6757,-187.2C6757,-211.36 6757,-251 6757,-251 6757,-251 3520.87,-251 3520.87,-251"/>
<polygon fill="black" stroke="black" points="3520.87,-247.5 3510.87,-251 3520.87,-254.5 3520.87,-247.5"/>
</g>
<!-- AppComponent -->
<g id="node2" class="node">
<title>AppComponent</title>
<polygon fill="#ffffb3" stroke="black" points="6680.94,-187 6575.06,-187 6575.06,-151 6680.94,-151 6680.94,-187"/>
<text text-anchor="middle" x="6628" y="-164.8" font-family="Times,serif" font-size="14.00">AppComponent</text>
</g>
<!-- AppComponent&#45;&gt;AppModule -->
<g id="edge2" class="edge">
<title>AppComponent&#45;&gt;AppModule</title>
<path fill="none" stroke="black" d="M6628,-187.15C6628,-210.76 6628,-249 6628,-249 6628,-249 3520.68,-249 3520.68,-249"/>
<polygon fill="black" stroke="black" points="3520.68,-245.5 3510.68,-249 3520.68,-252.5 3520.68,-245.5"/>
</g>
<!-- CommunitiesComponent -->
<g id="node3" class="node">
<title>CommunitiesComponent</title>
<polygon fill="#ffffb3" stroke="black" points="6557.28,-187 6400.72,-187 6400.72,-151 6557.28,-151 6557.28,-187"/>
<text text-anchor="middle" x="6479" y="-164.8" font-family="Times,serif" font-size="14.00">CommunitiesComponent</text>
</g>
<!-- CommunitiesComponent&#45;&gt;AppModule -->
<g id="edge4" class="edge">
<title>CommunitiesComponent&#45;&gt;AppModule</title>
<path fill="none" stroke="black" d="M6479,-187.09C6479,-210.13 6479,-247 6479,-247 6479,-247 3520.69,-247 3520.69,-247"/>
<polygon fill="black" stroke="black" points="3520.69,-243.5 3510.69,-247 3520.69,-250.5 3520.69,-243.5"/>
</g>
<!-- CommunityComponent -->
<g id="node4" class="node">
<title>CommunityComponent</title>
<polygon fill="#ffffb3" stroke="black" points="6382.23,-187 6233.77,-187 6233.77,-151 6382.23,-151 6382.23,-187"/>
<text text-anchor="middle" x="6308" y="-164.8" font-family="Times,serif" font-size="14.00">CommunityComponent</text>
</g>
<!-- CommunityComponent&#45;&gt;AppModule -->
<g id="edge5" class="edge">
<title>CommunityComponent&#45;&gt;AppModule</title>
<path fill="none" stroke="black" d="M6308,-187.01C6308,-209.49 6308,-245 6308,-245 6308,-245 3520.78,-245 3520.78,-245"/>
<polygon fill="black" stroke="black" points="3520.78,-241.5 3510.78,-245 3520.78,-248.5 3520.78,-241.5"/>
</g>
<!-- FeaturesComponent -->
<g id="node5" class="node">
<title>FeaturesComponent</title>
<polygon fill="#ffffb3" stroke="black" points="6216.25,-187 6087.75,-187 6087.75,-151 6216.25,-151 6216.25,-187"/>
<text text-anchor="middle" x="6152" y="-164.8" font-family="Times,serif" font-size="14.00">FeaturesComponent</text>
</g>
<!-- FeaturesComponent&#45;&gt;AppModule -->
<g id="edge6" class="edge">
<title>FeaturesComponent&#45;&gt;AppModule</title>
<path fill="none" stroke="black" d="M6152,-187.29C6152,-209.21 6152,-243 6152,-243 6152,-243 3520.87,-243 3520.87,-243"/>
<polygon fill="black" stroke="black" points="3520.87,-239.5 3510.87,-243 3520.87,-246.5 3520.87,-239.5"/>
</g>
<!-- FillDataFormComponent -->
<g id="node6" class="node">
<title>FillDataFormComponent</title>
<polygon fill="#ffffb3" stroke="black" points="6069.55,-187 5912.45,-187 5912.45,-151 6069.55,-151 6069.55,-187"/>
<text text-anchor="middle" x="5991" y="-164.8" font-family="Times,serif" font-size="14.00">FillDataFormComponent</text>
</g>
<!-- FillDataFormComponent&#45;&gt;AppModule -->
<g id="edge7" class="edge">
<title>FillDataFormComponent&#45;&gt;AppModule</title>
<path fill="none" stroke="black" d="M5991,-187.17C5991,-208.5 5991,-241 5991,-241 5991,-241 3520.67,-241 3520.67,-241"/>
<polygon fill="black" stroke="black" points="3520.67,-237.5 3510.67,-241 3520.67,-244.5 3520.67,-237.5"/>
</g>
<!-- HomeBuildsCardComponent -->
<g id="node7" class="node">
<title>HomeBuildsCardComponent</title>
<polygon fill="#ffffb3" stroke="black" points="5894.82,-187 5715.18,-187 5715.18,-151 5894.82,-151 5894.82,-187"/>
<text text-anchor="middle" x="5805" y="-164.8" font-family="Times,serif" font-size="14.00">HomeBuildsCardComponent</text>
</g>
<!-- HomeBuildsCardComponent&#45;&gt;AppModule -->
<g id="edge8" class="edge">
<title>HomeBuildsCardComponent&#45;&gt;AppModule</title>
<path fill="none" stroke="black" d="M5805,-187.03C5805,-207.77 5805,-239 5805,-239 5805,-239 3521.04,-239 3521.04,-239"/>
<polygon fill="black" stroke="black" points="3521.04,-235.5 3511.04,-239 3521.04,-242.5 3521.04,-235.5"/>
</g>
<!-- HomeBuildsComponent -->
<g id="node8" class="node">
<title>HomeBuildsComponent</title>
<polygon fill="#ffffb3" stroke="black" points="5697.11,-187 5544.89,-187 5544.89,-151 5697.11,-151 5697.11,-187"/>
<text text-anchor="middle" x="5621" y="-164.8" font-family="Times,serif" font-size="14.00">HomeBuildsComponent</text>
</g>
<!-- HomeBuildsComponent&#45;&gt;AppModule -->
<g id="edge9" class="edge">
<title>HomeBuildsComponent&#45;&gt;AppModule</title>
<path fill="none" stroke="black" d="M5621,-187.22C5621,-207.37 5621,-237 5621,-237 5621,-237 3521.02,-237 3521.02,-237"/>
<polygon fill="black" stroke="black" points="3521.02,-233.5 3511.02,-237 3521.02,-240.5 3521.02,-233.5"/>
</g>
<!-- HomeCommunitiesComponent -->
<g id="node9" class="node">
<title>HomeCommunitiesComponent</title>
<polygon fill="#ffffb3" stroke="black" points="5526.49,-187 5335.51,-187 5335.51,-151 5526.49,-151 5526.49,-187"/>
<text text-anchor="middle" x="5431" y="-164.8" font-family="Times,serif" font-size="14.00">HomeCommunitiesComponent</text>
</g>
<!-- HomeCommunitiesComponent&#45;&gt;AppModule -->
<g id="edge10" class="edge">
<title>HomeCommunitiesComponent&#45;&gt;AppModule</title>
<path fill="none" stroke="black" d="M5431,-187.03C5431,-206.58 5431,-235 5431,-235 5431,-235 3520.89,-235 3520.89,-235"/>
<polygon fill="black" stroke="black" points="3520.89,-231.5 3510.89,-235 3520.89,-238.5 3520.89,-231.5"/>
</g>
<!-- HomeCommunityCardComponent -->
<g id="node10" class="node">
<title>HomeCommunityCardComponent</title>
<polygon fill="#ffffb3" stroke="black" points="5317.66,-187 5108.34,-187 5108.34,-151 5317.66,-151 5317.66,-187"/>
<text text-anchor="middle" x="5213" y="-164.8" font-family="Times,serif" font-size="14.00">HomeCommunityCardComponent</text>
</g>
<!-- HomeCommunityCardComponent&#45;&gt;AppModule -->
<g id="edge11" class="edge">
<title>HomeCommunityCardComponent&#45;&gt;AppModule</title>
<path fill="none" stroke="black" d="M5213,-187.11C5213,-206.34 5213,-234 5213,-234 5213,-234 3520.82,-234 3520.82,-234"/>
<polygon fill="black" stroke="black" points="3520.82,-230.5 3510.82,-234 3520.82,-237.5 3520.82,-230.5"/>
</g>
<!-- HomeComponent -->
<g id="node11" class="node">
<title>HomeComponent</title>
<polygon fill="#ffffb3" stroke="black" points="5089.55,-187 4974.45,-187 4974.45,-151 5089.55,-151 5089.55,-187"/>
<text text-anchor="middle" x="5032" y="-164.8" font-family="Times,serif" font-size="14.00">HomeComponent</text>
</g>
<!-- HomeComponent&#45;&gt;AppModule -->
<g id="edge12" class="edge">
<title>HomeComponent&#45;&gt;AppModule</title>
<path fill="none" stroke="black" d="M5032,-187.22C5032,-205.83 5032,-232 5032,-232 5032,-232 3520.81,-232 3520.81,-232"/>
<polygon fill="black" stroke="black" points="3520.81,-228.5 3510.81,-232 3520.81,-235.5 3520.81,-228.5"/>
</g>
<!-- HomeEventsCardComponent -->
<g id="node12" class="node">
<title>HomeEventsCardComponent</title>
<polygon fill="#ffffb3" stroke="black" points="4956.36,-187 4775.64,-187 4775.64,-151 4956.36,-151 4956.36,-187"/>
<text text-anchor="middle" x="4866" y="-164.8" font-family="Times,serif" font-size="14.00">HomeEventsCardComponent</text>
</g>
<!-- HomeEventsCardComponent&#45;&gt;AppModule -->
<g id="edge13" class="edge">
<title>HomeEventsCardComponent&#45;&gt;AppModule</title>
<path fill="none" stroke="black" d="M4866,-187.3C4866,-205.27 4866,-230 4866,-230 4866,-230 3520.81,-230 3520.81,-230"/>
<polygon fill="black" stroke="black" points="3520.81,-226.5 3510.81,-230 3520.81,-233.5 3520.81,-226.5"/>
</g>
<!-- HomeEventsComponent -->
<g id="node13" class="node">
<title>HomeEventsComponent</title>
<polygon fill="#ffffb3" stroke="black" points="4757.65,-187 4604.35,-187 4604.35,-151 4757.65,-151 4757.65,-187"/>
<text text-anchor="middle" x="4681" y="-164.8" font-family="Times,serif" font-size="14.00">HomeEventsComponent</text>
</g>
<!-- HomeEventsComponent&#45;&gt;AppModule -->
<g id="edge14" class="edge">
<title>HomeEventsComponent&#45;&gt;AppModule</title>
<path fill="none" stroke="black" d="M4681,-187.02C4681,-204.37 4681,-228 4681,-228 4681,-228 3520.72,-228 3520.72,-228"/>
<polygon fill="black" stroke="black" points="3520.72,-224.5 3510.72,-228 3520.72,-231.5 3520.72,-224.5"/>
</g>
<!-- HomeExpertsComponent -->
<g id="node14" class="node">
<title>HomeExpertsComponent</title>
<polygon fill="#ffffb3" stroke="black" points="4586.31,-187 4427.69,-187 4427.69,-151 4586.31,-151 4586.31,-187"/>
<text text-anchor="middle" x="4507" y="-164.8" font-family="Times,serif" font-size="14.00">HomeExpertsComponent</text>
</g>
<!-- HomeExpertsComponent&#45;&gt;AppModule -->
<g id="edge15" class="edge">
<title>HomeExpertsComponent&#45;&gt;AppModule</title>
<path fill="none" stroke="black" d="M4507,-187.04C4507,-203.73 4507,-226 4507,-226 4507,-226 3520.98,-226 3520.98,-226"/>
<polygon fill="black" stroke="black" points="3520.98,-222.5 3510.98,-226 3520.98,-229.5 3520.98,-222.5"/>
</g>
<!-- HomeExternalFeedLinksComponent -->
<g id="node15" class="node">
<title>HomeExternalFeedLinksComponent</title>
<polygon fill="#ffffb3" stroke="black" points="4410.07,-187 4187.93,-187 4187.93,-151 4410.07,-151 4410.07,-187"/>
<text text-anchor="middle" x="4299" y="-164.8" font-family="Times,serif" font-size="14.00">HomeExternalFeedLinksComponent</text>
</g>
<!-- HomeExternalFeedLinksComponent&#45;&gt;AppModule -->
<g id="edge16" class="edge">
<title>HomeExternalFeedLinksComponent&#45;&gt;AppModule</title>
<path fill="none" stroke="black" d="M4299,-187.01C4299,-203.05 4299,-224 4299,-224 4299,-224 3520.73,-224 3520.73,-224"/>
<polygon fill="black" stroke="black" points="3520.73,-220.5 3510.73,-224 3520.73,-227.5 3520.73,-220.5"/>
</g>
<!-- HomeHeadBannerComponent -->
<g id="node16" class="node">
<title>HomeHeadBannerComponent</title>
<polygon fill="#ffffb3" stroke="black" points="4169.51,-187 3984.49,-187 3984.49,-151 4169.51,-151 4169.51,-187"/>
<text text-anchor="middle" x="4077" y="-164.8" font-family="Times,serif" font-size="14.00">HomeHeadBannerComponent</text>
</g>
<!-- HomeHeadBannerComponent&#45;&gt;AppModule -->
<g id="edge17" class="edge">
<title>HomeHeadBannerComponent&#45;&gt;AppModule</title>
<path fill="none" stroke="black" d="M4077,-187.24C4077,-202.57 4077,-222 4077,-222 4077,-222 3520.79,-222 3520.79,-222"/>
<polygon fill="black" stroke="black" points="3520.79,-218.5 3510.79,-222 3520.79,-225.5 3520.79,-218.5"/>
</g>
<!-- HomeLabsComponent -->
<g id="node17" class="node">
<title>HomeLabsComponent</title>
<polygon fill="#ffffb3" stroke="black" points="3966.26,-187 3823.74,-187 3823.74,-151 3966.26,-151 3966.26,-187"/>
<text text-anchor="middle" x="3895" y="-164.8" font-family="Times,serif" font-size="14.00">HomeLabsComponent</text>
</g>
<!-- HomeLabsComponent&#45;&gt;AppModule -->
<g id="edge18" class="edge">
<title>HomeLabsComponent&#45;&gt;AppModule</title>
<path fill="none" stroke="black" d="M3895,-187.12C3895,-201.78 3895,-220 3895,-220 3895,-220 3521.01,-220 3521.01,-220"/>
<polygon fill="black" stroke="black" points="3521.01,-216.5 3511.01,-220 3521.01,-223.5 3521.01,-216.5"/>
</g>
<!-- HomePromotionsComponent -->
<g id="node18" class="node">
<title>HomePromotionsComponent</title>
<polygon fill="#ffffb3" stroke="black" points="3806.1,-187 3625.9,-187 3625.9,-151 3806.1,-151 3806.1,-187"/>
<text text-anchor="middle" x="3716" y="-164.8" font-family="Times,serif" font-size="14.00">HomePromotionsComponent</text>
</g>
<!-- HomePromotionsComponent&#45;&gt;AppModule -->
<g id="edge19" class="edge">
<title>HomePromotionsComponent&#45;&gt;AppModule</title>
<path fill="none" stroke="black" d="M3716,-187.25C3716,-201.18 3716,-218 3716,-218 3716,-218 3520.9,-218 3520.9,-218"/>
<polygon fill="black" stroke="black" points="3520.9,-214.5 3510.9,-218 3520.9,-221.5 3520.9,-214.5"/>
</g>
<!-- LogoutComponent -->
<g id="node19" class="node">
<title>LogoutComponent</title>
<polygon fill="#ffffb3" stroke="black" points="3607.78,-187 3486.22,-187 3486.22,-151 3607.78,-151 3607.78,-187"/>
<text text-anchor="middle" x="3547" y="-164.8" font-family="Times,serif" font-size="14.00">LogoutComponent</text>
</g>
<!-- LogoutComponent&#45;&gt;AppModule -->
<g id="edge20" class="edge">
<title>LogoutComponent&#45;&gt;AppModule</title>
<path fill="none" stroke="black" d="M3498.47,-187.11C3498.47,-187.11 3498.47,-205.99 3498.47,-205.99"/>
<polygon fill="black" stroke="black" points="3494.97,-205.99 3498.47,-215.99 3501.97,-205.99 3494.97,-205.99"/>
</g>
<!-- NavbarMenuComponent -->
<g id="node20" class="node">
<title>NavbarMenuComponent</title>
<polygon fill="#ffffb3" stroke="black" points="3468.69,-187 3313.31,-187 3313.31,-151 3468.69,-151 3468.69,-187"/>
<text text-anchor="middle" x="3391" y="-164.8" font-family="Times,serif" font-size="14.00">NavbarMenuComponent</text>
</g>
<!-- NavbarMenuComponent&#45;&gt;AppModule -->
<g id="edge21" class="edge">
<title>NavbarMenuComponent&#45;&gt;AppModule</title>
<path fill="none" stroke="black" d="M3447.88,-187.11C3447.88,-187.11 3447.88,-205.99 3447.88,-205.99"/>
<polygon fill="black" stroke="black" points="3444.38,-205.99 3447.88,-215.99 3451.38,-205.99 3444.38,-205.99"/>
</g>
<!-- OrganizerCommunitiesListComponent -->
<g id="node21" class="node">
<title>OrganizerCommunitiesListComponent</title>
<polygon fill="#ffffb3" stroke="black" points="3295.02,-187 3060.98,-187 3060.98,-151 3295.02,-151 3295.02,-187"/>
<text text-anchor="middle" x="3178" y="-164.8" font-family="Times,serif" font-size="14.00">OrganizerCommunitiesListComponent</text>
</g>
<!-- OrganizerCommunitiesListComponent&#45;&gt;AppModule -->
<g id="edge22" class="edge">
<title>OrganizerCommunitiesListComponent&#45;&gt;AppModule</title>
<path fill="none" stroke="black" d="M3178,-187.25C3178,-201.18 3178,-218 3178,-218 3178,-218 3417.31,-218 3417.31,-218"/>
<polygon fill="black" stroke="black" points="3417.31,-221.5 3427.31,-218 3417.31,-214.5 3417.31,-221.5"/>
</g>
<!-- SearchBarComponent -->
<g id="node22" class="node">
<title>SearchBarComponent</title>
<polygon fill="#ffffb3" stroke="black" points="3042.63,-187 2903.37,-187 2903.37,-151 3042.63,-151 3042.63,-187"/>
<text text-anchor="middle" x="2973" y="-164.8" font-family="Times,serif" font-size="14.00">SearchBarComponent</text>
</g>
<!-- SearchBarComponent&#45;&gt;AppModule -->
<g id="edge23" class="edge">
<title>SearchBarComponent&#45;&gt;AppModule</title>
<path fill="none" stroke="black" d="M2973,-187.12C2973,-201.78 2973,-220 2973,-220 2973,-220 3417.14,-220 3417.14,-220"/>
<polygon fill="black" stroke="black" points="3417.14,-223.5 3427.14,-220 3417.14,-216.5 3417.14,-223.5"/>
</g>
<!-- SidebarMenuComponent -->
<g id="node23" class="node">
<title>SidebarMenuComponent</title>
<polygon fill="#ffffb3" stroke="black" points="2885.25,-187 2728.75,-187 2728.75,-151 2885.25,-151 2885.25,-187"/>
<text text-anchor="middle" x="2807" y="-164.8" font-family="Times,serif" font-size="14.00">SidebarMenuComponent</text>
</g>
<!-- SidebarMenuComponent&#45;&gt;AppModule -->
<g id="edge24" class="edge">
<title>SidebarMenuComponent&#45;&gt;AppModule</title>
<path fill="none" stroke="black" d="M2807,-187.24C2807,-202.57 2807,-222 2807,-222 2807,-222 3417.34,-222 3417.34,-222"/>
<polygon fill="black" stroke="black" points="3417.34,-225.5 3427.34,-222 3417.34,-218.5 3417.34,-225.5"/>
</g>
<!-- SpeakerResourceFormComponent -->
<g id="node24" class="node">
<title>SpeakerResourceFormComponent</title>
<polygon fill="#ffffb3" stroke="black" points="2710.34,-187 2501.66,-187 2501.66,-151 2710.34,-151 2710.34,-187"/>
<text text-anchor="middle" x="2606" y="-164.8" font-family="Times,serif" font-size="14.00">SpeakerResourceFormComponent</text>
</g>
<!-- SpeakerResourceFormComponent&#45;&gt;AppModule -->
<g id="edge25" class="edge">
<title>SpeakerResourceFormComponent&#45;&gt;AppModule</title>
<path fill="none" stroke="black" d="M2606,-187.01C2606,-203.05 2606,-224 2606,-224 2606,-224 3417.08,-224 3417.08,-224"/>
<polygon fill="black" stroke="black" points="3417.08,-227.5 3427.08,-224 3417.08,-220.5 3417.08,-227.5"/>
</g>
<!-- SwUpdateComponent -->
<g id="node25" class="node">
<title>SwUpdateComponent</title>
<polygon fill="#ffffb3" stroke="black" points="2483.65,-187 2344.35,-187 2344.35,-151 2483.65,-151 2483.65,-187"/>
<text text-anchor="middle" x="2414" y="-164.8" font-family="Times,serif" font-size="14.00">SwUpdateComponent</text>
</g>
<!-- SwUpdateComponent&#45;&gt;AppModule -->
<g id="edge26" class="edge">
<title>SwUpdateComponent&#45;&gt;AppModule</title>
<path fill="none" stroke="black" d="M2414,-187.04C2414,-203.73 2414,-226 2414,-226 2414,-226 3417.32,-226 3417.32,-226"/>
<polygon fill="black" stroke="black" points="3417.32,-229.5 3427.32,-226 3417.32,-222.5 3417.32,-229.5"/>
</g>
<!-- AppComponent  -->
<g id="node37" class="node">
<title>AppComponent </title>
<polygon fill="#80b1d3" stroke="black" points="3523.44,-317 3414.56,-317 3414.56,-281 3523.44,-281 3523.44,-317"/>
<text text-anchor="middle" x="3469" y="-294.8" font-family="Times,serif" font-size="14.00">AppComponent </text>
</g>
<!-- AppModule&#45;&gt;AppComponent  -->
<g id="edge36" class="edge">
<title>AppModule&#45;&gt;AppComponent </title>
<path fill="none" stroke="black" stroke-dasharray="1,5" d="M3469,-252.11C3469,-252.11 3469,-270.99 3469,-270.99"/>
<polygon fill="black" stroke="black" points="3465.5,-270.99 3469,-280.99 3472.5,-270.99 3465.5,-270.99"/>
</g>
<!-- TruncateTextPipe -->
<g id="node27" class="node">
<title>TruncateTextPipe</title>
<ellipse fill="#fdb462" stroke="black" cx="6628" cy="-104" rx="80.43" ry="18"/>
<text text-anchor="middle" x="6628" y="-99.8" font-family="Times,serif" font-size="14.00">TruncateTextPipe</text>
</g>
<!-- TruncateTextPipe&#45;&gt;AppComponent -->
<g id="edge3" class="edge">
<title>TruncateTextPipe&#45;&gt;AppComponent</title>
<path fill="none" stroke="black" d="M6628,-122.11C6628,-122.11 6628,-140.99 6628,-140.99"/>
<polygon fill="black" stroke="black" points="6624.5,-140.99 6628,-150.99 6631.5,-140.99 6624.5,-140.99"/>
</g>
<!-- AppRoutingModule -->
<g id="node28" class="node">
<title>AppRoutingModule</title>
<polygon fill="#8dd3c7" stroke="black" points="1395.27,-187 1392.27,-191 1371.27,-191 1368.27,-187 1266.73,-187 1266.73,-151 1395.27,-151 1395.27,-187"/>
<text text-anchor="middle" x="1331" y="-164.8" font-family="Times,serif" font-size="14.00">AppRoutingModule</text>
</g>
<!-- AppRoutingModule&#45;&gt;AppModule -->
<g id="edge27" class="edge">
<title>AppRoutingModule&#45;&gt;AppModule</title>
<path fill="none" stroke="black" d="M1331,-187.03C1331,-206.58 1331,-235 1331,-235 1331,-235 3417.25,-235 3417.25,-235"/>
<polygon fill="black" stroke="black" points="3417.25,-238.5 3427.25,-235 3417.25,-231.5 3417.25,-238.5"/>
</g>
<!-- CommunityChannelsModule -->
<g id="node29" class="node">
<title>CommunityChannelsModule</title>
<polygon fill="#8dd3c7" stroke="black" points="1248.05,-187 1245.05,-191 1224.05,-191 1221.05,-187 1069.95,-187 1069.95,-151 1248.05,-151 1248.05,-187"/>
<text text-anchor="middle" x="1159" y="-164.8" font-family="Times,serif" font-size="14.00">CommunityChannelsModule</text>
</g>
<!-- CommunityChannelsModule&#45;&gt;AppModule -->
<g id="edge28" class="edge">
<title>CommunityChannelsModule&#45;&gt;AppModule</title>
<path fill="none" stroke="black" d="M1159,-187.22C1159,-207.37 1159,-237 1159,-237 1159,-237 3416.93,-237 3416.93,-237"/>
<polygon fill="black" stroke="black" points="3416.93,-240.5 3426.93,-237 3416.93,-233.5 3416.93,-240.5"/>
</g>
<!-- LabsModule -->
<g id="node30" class="node">
<title>LabsModule</title>
<polygon fill="#8dd3c7" stroke="black" points="1051.26,-187 1048.26,-191 1027.26,-191 1024.26,-187 964.74,-187 964.74,-151 1051.26,-151 1051.26,-187"/>
<text text-anchor="middle" x="1008" y="-164.8" font-family="Times,serif" font-size="14.00">LabsModule</text>
</g>
<!-- LabsModule&#45;&gt;AppModule -->
<g id="edge29" class="edge">
<title>LabsModule&#45;&gt;AppModule</title>
<path fill="none" stroke="black" d="M1008,-187.03C1008,-207.77 1008,-239 1008,-239 1008,-239 3417.32,-239 3417.32,-239"/>
<polygon fill="black" stroke="black" points="3417.32,-242.5 3427.32,-239 3417.32,-235.5 3417.32,-242.5"/>
</g>
<!-- LibErrorHandlerModule -->
<g id="node31" class="node">
<title>LibErrorHandlerModule</title>
<polygon fill="#8dd3c7" stroke="black" points="946.61,-187 943.61,-191 922.61,-191 919.61,-187 793.39,-187 793.39,-151 946.61,-151 946.61,-187"/>
<text text-anchor="middle" x="870" y="-164.8" font-family="Times,serif" font-size="14.00">LibErrorHandlerModule</text>
</g>
<!-- LibErrorHandlerModule&#45;&gt;AppModule -->
<g id="edge30" class="edge">
<title>LibErrorHandlerModule&#45;&gt;AppModule</title>
<path fill="none" stroke="black" d="M870,-187.17C870,-208.5 870,-241 870,-241 870,-241 3417.12,-241 3417.12,-241"/>
<polygon fill="black" stroke="black" points="3417.12,-244.5 3427.12,-241 3417.12,-237.5 3417.12,-244.5"/>
</g>
<!-- MainNewslettersModule -->
<g id="node32" class="node">
<title>MainNewslettersModule</title>
<polygon fill="#8dd3c7" stroke="black" points="775.68,-187 772.68,-191 751.68,-191 748.68,-187 620.32,-187 620.32,-151 775.68,-151 775.68,-187"/>
<text text-anchor="middle" x="698" y="-164.8" font-family="Times,serif" font-size="14.00">MainNewslettersModule</text>
</g>
<!-- MainNewslettersModule&#45;&gt;AppModule -->
<g id="edge31" class="edge">
<title>MainNewslettersModule&#45;&gt;AppModule</title>
<path fill="none" stroke="black" d="M698,-187.29C698,-209.21 698,-243 698,-243 698,-243 3417.13,-243 3417.13,-243"/>
<polygon fill="black" stroke="black" points="3417.13,-246.5 3427.13,-243 3417.13,-239.5 3417.13,-246.5"/>
</g>
<!-- PublicCommunityModule -->
<g id="node33" class="node">
<title>PublicCommunityModule</title>
<polygon fill="#8dd3c7" stroke="black" points="602.23,-187 599.23,-191 578.23,-191 575.23,-187 439.77,-187 439.77,-151 602.23,-151 602.23,-187"/>
<text text-anchor="middle" x="521" y="-164.8" font-family="Times,serif" font-size="14.00">PublicCommunityModule</text>
</g>
<!-- PublicCommunityModule&#45;&gt;AppModule -->
<g id="edge32" class="edge">
<title>PublicCommunityModule&#45;&gt;AppModule</title>
<path fill="none" stroke="black" d="M521,-187.01C521,-209.49 521,-245 521,-245 521,-245 3417.33,-245 3417.33,-245"/>
<polygon fill="black" stroke="black" points="3417.33,-248.5 3427.33,-245 3417.33,-241.5 3417.33,-248.5"/>
</g>
<!-- SkeletonScreensModule -->
<g id="node34" class="node">
<title>SkeletonScreensModule</title>
<polygon fill="#8dd3c7" stroke="black" points="422.07,-187 419.07,-191 398.07,-191 395.07,-187 269.93,-187 269.93,-151 422.07,-151 422.07,-187"/>
<text text-anchor="middle" x="346" y="-164.8" font-family="Times,serif" font-size="14.00">SkeletonScreensModule</text>
</g>
<!-- SkeletonScreensModule&#45;&gt;AppModule -->
<g id="edge33" class="edge">
<title>SkeletonScreensModule&#45;&gt;AppModule</title>
<path fill="none" stroke="black" d="M346,-187.09C346,-210.13 346,-247 346,-247 346,-247 3417.21,-247 3417.21,-247"/>
<polygon fill="black" stroke="black" points="3417.21,-250.5 3427.21,-247 3417.21,-243.5 3417.21,-250.5"/>
</g>
<!-- UserChatsModule -->
<g id="node35" class="node">
<title>UserChatsModule</title>
<polygon fill="#8dd3c7" stroke="black" points="251.86,-187 248.86,-191 227.86,-191 224.86,-187 134.14,-187 134.14,-151 251.86,-151 251.86,-187"/>
<text text-anchor="middle" x="193" y="-164.8" font-family="Times,serif" font-size="14.00">UserChatsModule</text>
</g>
<!-- UserChatsModule&#45;&gt;AppModule -->
<g id="edge34" class="edge">
<title>UserChatsModule&#45;&gt;AppModule</title>
<path fill="none" stroke="black" d="M193,-187.15C193,-210.76 193,-249 193,-249 193,-249 3417.28,-249 3417.28,-249"/>
<polygon fill="black" stroke="black" points="3417.28,-252.5 3427.28,-249 3417.28,-245.5 3417.28,-252.5"/>
</g>
<!-- UsersModule -->
<g id="node36" class="node">
<title>UsersModule</title>
<polygon fill="#8dd3c7" stroke="black" points="115.92,-187 112.92,-191 91.92,-191 88.92,-187 24.08,-187 24.08,-151 115.92,-151 115.92,-187"/>
<text text-anchor="middle" x="70" y="-164.8" font-family="Times,serif" font-size="14.00">UsersModule</text>
</g>
<!-- UsersModule&#45;&gt;AppModule -->
<g id="edge35" class="edge">
<title>UsersModule&#45;&gt;AppModule</title>
<path fill="none" stroke="black" d="M70,-187.2C70,-211.36 70,-251 70,-251 70,-251 3417.25,-251 3417.25,-251"/>
<polygon fill="black" stroke="black" points="3417.25,-254.5 3427.25,-251 3417.25,-247.5 3417.25,-254.5"/>
</g>
<!-- ApiParserResponseInterceptor -->
<g id="node38" class="node">
<title>ApiParserResponseInterceptor</title>
<ellipse fill="#fdb462" stroke="black" cx="2191" cy="-169" rx="129.03" ry="18"/>
<text text-anchor="middle" x="2191" y="-164.8" font-family="Times,serif" font-size="14.00">ApiParserResponseInterceptor</text>
</g>
<!-- ApiParserResponseInterceptor&#45;&gt;AppModule -->
<g id="edge37" class="edge">
<title>ApiParserResponseInterceptor&#45;&gt;AppModule</title>
<path fill="none" stroke="black" d="M2191,-187.02C2191,-204.37 2191,-228 2191,-228 2191,-228 3417.21,-228 3417.21,-228"/>
<polygon fill="black" stroke="black" points="3417.21,-231.5 3427.21,-228 3417.21,-224.5 3417.21,-231.5"/>
</g>
<!-- AppInitService -->
<g id="node39" class="node">
<title>AppInitService</title>
<ellipse fill="#fdb462" stroke="black" cx="1974" cy="-169" rx="70.06" ry="18"/>
<text text-anchor="middle" x="1974" y="-164.8" font-family="Times,serif" font-size="14.00">AppInitService</text>
</g>
<!-- AppInitService&#45;&gt;AppModule -->
<g id="edge38" class="edge">
<title>AppInitService&#45;&gt;AppModule</title>
<path fill="none" stroke="black" d="M1974,-187.3C1974,-205.27 1974,-230 1974,-230 1974,-230 3417.06,-230 3417.06,-230"/>
<polygon fill="black" stroke="black" points="3417.06,-233.5 3427.06,-230 3417.06,-226.5 3417.06,-233.5"/>
</g>
<!-- AuthTokenInterceptor -->
<g id="node40" class="node">
<title>AuthTokenInterceptor</title>
<ellipse fill="#fdb462" stroke="black" cx="1789" cy="-169" rx="97.25" ry="18"/>
<text text-anchor="middle" x="1789" y="-164.8" font-family="Times,serif" font-size="14.00">AuthTokenInterceptor</text>
</g>
<!-- AuthTokenInterceptor&#45;&gt;AppModule -->
<g id="edge39" class="edge">
<title>AuthTokenInterceptor&#45;&gt;AppModule</title>
<path fill="none" stroke="black" d="M1789,-187.22C1789,-205.83 1789,-232 1789,-232 1789,-232 3417.05,-232 3417.05,-232"/>
<polygon fill="black" stroke="black" points="3417.05,-235.5 3427.05,-232 3417.05,-228.5 3417.05,-235.5"/>
</g>
<!-- PrismJsHighlightCodeService -->
<g id="node41" class="node">
<title>PrismJsHighlightCodeService</title>
<ellipse fill="#fdb462" stroke="black" cx="1546" cy="-169" rx="127.38" ry="18"/>
<text text-anchor="middle" x="1546" y="-164.8" font-family="Times,serif" font-size="14.00">PrismJsHighlightCodeService</text>
</g>
<!-- PrismJsHighlightCodeService&#45;&gt;AppModule -->
<g id="edge40" class="edge">
<title>PrismJsHighlightCodeService&#45;&gt;AppModule</title>
<path fill="none" stroke="black" d="M1546,-187.11C1546,-206.34 1546,-234 1546,-234 1546,-234 3417.05,-234 3417.05,-234"/>
<polygon fill="black" stroke="black" points="3417.05,-237.5 3427.05,-234 3417.05,-230.5 3417.05,-237.5"/>
</g>
</g>
</svg>
