<?xml version="1.0" encoding="UTF-8" standalone="no"?>
<!DOCTYPE svg PUBLIC "-//W3C//DTD SVG 1.1//EN"
 "http://www.w3.org/Graphics/SVG/1.1/DTD/svg11.dtd">
<!-- Generated by graphviz version 2.47.3 (20210619.1520)
 -->
<!-- Title: dependencies Pages: 1 -->
<svg width="8217pt" height="312pt"
 viewBox="0.00 0.00 8217.00 311.80" xmlns="http://www.w3.org/2000/svg" xmlns:xlink="http://www.w3.org/1999/xlink">
<g id="graph0" class="graph" transform="scale(1 1) rotate(0) translate(4 307.8)">
<title>dependencies</title>
<polygon fill="white" stroke="transparent" points="-4,4 -4,-307.8 8213,-307.8 8213,4 -4,4"/>
<text text-anchor="middle" x="4104.5" y="-8.2" font-family="sans-serif" font-size="14.00">dependencies</text>
<g id="clust1" class="cluster">
<title>cluster_AppModule</title>
<polygon fill="none" stroke="black" stroke-dasharray="1,5" points="8,-32.8 8,-295.8 8201,-295.8 8201,-32.8 8,-32.8"/>
</g>
<g id="clust2" class="cluster">
<title>cluster_AppModule_declarations</title>
<polygon fill="none" stroke="black" points="2637,-105.8 2637,-157.8 8193,-157.8 8193,-105.8 2637,-105.8"/>
</g>
<g id="clust4" class="cluster">
<title>cluster_AppModule_AppComponent_providers</title>
<polygon fill="none" stroke="black" points="7910,-40.8 7910,-92.8 8086,-92.8 8086,-40.8 7910,-40.8"/>
</g>
<g id="clust36" class="cluster">
<title>cluster_AppModule_providers</title>
<polygon fill="none" stroke="black" points="1712,-105.8 1712,-157.8 2629,-157.8 2629,-105.8 1712,-105.8"/>
</g>
<g id="clust33" class="cluster">
<title>cluster_AppModule_imports</title>
<polygon fill="none" stroke="black" points="16,-105.8 16,-157.8 1704,-157.8 1704,-105.8 16,-105.8"/>
</g>
<g id="clust35" class="cluster">
<title>cluster_AppModule_bootstrap</title>
<polygon fill="none" stroke="black" points="3955,-235.8 3955,-287.8 4079,-287.8 4079,-235.8 3955,-235.8"/>
</g>
<!-- AboutComponent -->
<g id="node1" class="node">
<title>AboutComponent</title>
<polygon fill="#ffffb3" stroke="black" points="8185.33,-149.8 8068.67,-149.8 8068.67,-113.8 8185.33,-113.8 8185.33,-149.8"/>
<text text-anchor="middle" x="8127" y="-127.6" font-family="Times,serif" font-size="14.00">AboutComponent</text>
</g>
<!-- AppModule -->
<g id="node31" class="node">
<title>AppModule</title>
<polygon fill="#8dd3c7" stroke="black" points="4058.66,-214.8 4055.66,-218.8 4034.66,-218.8 4031.66,-214.8 3975.34,-214.8 3975.34,-178.8 4058.66,-178.8 4058.66,-214.8"/>
<text text-anchor="middle" x="4017" y="-192.6" font-family="Times,serif" font-size="14.00">AppModule</text>
</g>
<!-- AboutComponent&#45;&gt;AppModule -->
<g id="edge1" class="edge">
<title>AboutComponent&#45;&gt;AppModule</title>
<path fill="none" stroke="black" d="M8127,-150C8127,-174.16 8127,-213.8 8127,-213.8 8127,-213.8 4068.68,-213.8 4068.68,-213.8"/>
<polygon fill="black" stroke="black" points="4068.68,-210.3 4058.68,-213.8 4068.68,-217.3 4068.68,-210.3"/>
</g>
<!-- AppComponent -->
<g id="node2" class="node">
<title>AppComponent</title>
<polygon fill="#ffffb3" stroke="black" points="8050.94,-149.8 7945.06,-149.8 7945.06,-113.8 8050.94,-113.8 8050.94,-149.8"/>
<text text-anchor="middle" x="7998" y="-127.6" font-family="Times,serif" font-size="14.00">AppComponent</text>
</g>
<!-- AppComponent&#45;&gt;AppModule -->
<g id="edge2" class="edge">
<title>AppComponent&#45;&gt;AppModule</title>
<path fill="none" stroke="black" d="M7998,-149.95C7998,-173.56 7998,-211.8 7998,-211.8 7998,-211.8 4068.68,-211.8 4068.68,-211.8"/>
<polygon fill="black" stroke="black" points="4068.68,-208.3 4058.68,-211.8 4068.68,-215.3 4068.68,-208.3"/>
</g>
<!-- CommunitiesAboutComponent -->
<g id="node3" class="node">
<title>CommunitiesAboutComponent</title>
<polygon fill="#ffffb3" stroke="black" points="7926.78,-149.8 7735.22,-149.8 7735.22,-113.8 7926.78,-113.8 7926.78,-149.8"/>
<text text-anchor="middle" x="7831" y="-127.6" font-family="Times,serif" font-size="14.00">CommunitiesAboutComponent</text>
</g>
<!-- CommunitiesAboutComponent&#45;&gt;AppModule -->
<g id="edge4" class="edge">
<title>CommunitiesAboutComponent&#45;&gt;AppModule</title>
<path fill="none" stroke="black" d="M7831,-150.12C7831,-173.46 7831,-210.8 7831,-210.8 7831,-210.8 4068.86,-210.8 4068.86,-210.8"/>
<polygon fill="black" stroke="black" points="4068.86,-207.3 4058.86,-210.8 4068.86,-214.3 4068.86,-207.3"/>
</g>
<!-- CommunitiesComponent -->
<g id="node4" class="node">
<title>CommunitiesComponent</title>
<polygon fill="#ffffb3" stroke="black" points="7717.28,-149.8 7560.72,-149.8 7560.72,-113.8 7717.28,-113.8 7717.28,-149.8"/>
<text text-anchor="middle" x="7639" y="-127.6" font-family="Times,serif" font-size="14.00">CommunitiesComponent</text>
</g>
<!-- CommunitiesComponent&#45;&gt;AppModule -->
<g id="edge5" class="edge">
<title>CommunitiesComponent&#45;&gt;AppModule</title>
<path fill="none" stroke="black" d="M7639,-150.05C7639,-172.82 7639,-208.8 7639,-208.8 7639,-208.8 4068.93,-208.8 4068.93,-208.8"/>
<polygon fill="black" stroke="black" points="4068.93,-205.3 4058.93,-208.8 4068.93,-212.3 4068.93,-205.3"/>
</g>
<!-- CommunitiesFeaturedComponent -->
<g id="node5" class="node">
<title>CommunitiesFeaturedComponent</title>
<polygon fill="#ffffb3" stroke="black" points="7542.76,-149.8 7337.24,-149.8 7337.24,-113.8 7542.76,-113.8 7542.76,-149.8"/>
<text text-anchor="middle" x="7440" y="-127.6" font-family="Times,serif" font-size="14.00">CommunitiesFeaturedComponent</text>
</g>
<!-- CommunitiesFeaturedComponent&#45;&gt;AppModule -->
<g id="edge6" class="edge">
<title>CommunitiesFeaturedComponent&#45;&gt;AppModule</title>
<path fill="none" stroke="black" d="M7440,-149.81C7440,-172.29 7440,-207.8 7440,-207.8 7440,-207.8 4068.74,-207.8 4068.74,-207.8"/>
<polygon fill="black" stroke="black" points="4068.74,-204.3 4058.74,-207.8 4068.74,-211.3 4068.74,-204.3"/>
</g>
<!-- CommunitiesListCardComponent -->
<g id="node6" class="node">
<title>CommunitiesListCardComponent</title>
<polygon fill="#ffffb3" stroke="black" points="7318.77,-149.8 7113.23,-149.8 7113.23,-113.8 7318.77,-113.8 7318.77,-149.8"/>
<text text-anchor="middle" x="7216" y="-127.6" font-family="Times,serif" font-size="14.00">CommunitiesListCardComponent</text>
</g>
<!-- CommunitiesListCardComponent&#45;&gt;AppModule -->
<g id="edge7" class="edge">
<title>CommunitiesListCardComponent&#45;&gt;AppModule</title>
<path fill="none" stroke="black" d="M7216,-150.09C7216,-172.01 7216,-205.8 7216,-205.8 7216,-205.8 4068.91,-205.8 4068.91,-205.8"/>
<polygon fill="black" stroke="black" points="4068.91,-202.3 4058.91,-205.8 4068.91,-209.3 4068.91,-202.3"/>
</g>
<!-- CommunitiesListComponent -->
<g id="node7" class="node">
<title>CommunitiesListComponent</title>
<polygon fill="#ffffb3" stroke="black" points="7095.06,-149.8 6916.94,-149.8 6916.94,-113.8 7095.06,-113.8 7095.06,-149.8"/>
<text text-anchor="middle" x="7006" y="-127.6" font-family="Times,serif" font-size="14.00">CommunitiesListComponent</text>
</g>
<!-- CommunitiesListComponent&#45;&gt;AppModule -->
<g id="edge8" class="edge">
<title>CommunitiesListComponent&#45;&gt;AppModule</title>
<path fill="none" stroke="black" d="M7006,-149.84C7006,-171.46 7006,-204.8 7006,-204.8 7006,-204.8 4068.68,-204.8 4068.68,-204.8"/>
<polygon fill="black" stroke="black" points="4068.68,-201.3 4058.68,-204.8 4068.68,-208.3 4068.68,-201.3"/>
</g>
<!-- CommunitiesPostsComponent -->
<g id="node8" class="node">
<title>CommunitiesPostsComponent</title>
<polygon fill="#ffffb3" stroke="black" points="6899.34,-149.8 6712.66,-149.8 6712.66,-113.8 6899.34,-113.8 6899.34,-149.8"/>
<text text-anchor="middle" x="6806" y="-127.6" font-family="Times,serif" font-size="14.00">CommunitiesPostsComponent</text>
</g>
<!-- CommunitiesPostsComponent&#45;&gt;AppModule -->
<g id="edge9" class="edge">
<title>CommunitiesPostsComponent&#45;&gt;AppModule</title>
<path fill="none" stroke="black" d="M6806,-150.08C6806,-171.12 6806,-202.8 6806,-202.8 6806,-202.8 4068.86,-202.8 4068.86,-202.8"/>
<polygon fill="black" stroke="black" points="4068.86,-199.3 4058.86,-202.8 4068.86,-206.3 4068.86,-199.3"/>
</g>
<!-- CommunitiesPromotionsComponent -->
<g id="node9" class="node">
<title>CommunitiesPromotionsComponent</title>
<polygon fill="#ffffb3" stroke="black" points="6694.84,-149.8 6473.16,-149.8 6473.16,-113.8 6694.84,-113.8 6694.84,-149.8"/>
<text text-anchor="middle" x="6584" y="-127.6" font-family="Times,serif" font-size="14.00">CommunitiesPromotionsComponent</text>
</g>
<!-- CommunitiesPromotionsComponent&#45;&gt;AppModule -->
<g id="edge10" class="edge">
<title>CommunitiesPromotionsComponent&#45;&gt;AppModule</title>
<path fill="none" stroke="black" d="M6584,-149.93C6584,-170.37 6584,-200.8 6584,-200.8 6584,-200.8 4068.89,-200.8 4068.89,-200.8"/>
<polygon fill="black" stroke="black" points="4068.89,-197.3 4058.89,-200.8 4068.89,-204.3 4068.89,-197.3"/>
</g>
<!-- CommunityComponent -->
<g id="node10" class="node">
<title>CommunityComponent</title>
<polygon fill="#ffffb3" stroke="black" points="6455.23,-149.8 6306.77,-149.8 6306.77,-113.8 6455.23,-113.8 6455.23,-149.8"/>
<text text-anchor="middle" x="6381" y="-127.6" font-family="Times,serif" font-size="14.00">CommunityComponent</text>
</g>
<!-- CommunityComponent&#45;&gt;AppModule -->
<g id="edge11" class="edge">
<title>CommunityComponent&#45;&gt;AppModule</title>
<path fill="none" stroke="black" d="M6381,-150.02C6381,-170.17 6381,-199.8 6381,-199.8 6381,-199.8 4068.78,-199.8 4068.78,-199.8"/>
<polygon fill="black" stroke="black" points="4068.78,-196.3 4058.78,-199.8 4068.78,-203.3 4068.78,-196.3"/>
</g>
<!-- FeaturesComponent -->
<g id="node11" class="node">
<title>FeaturesComponent</title>
<polygon fill="#ffffb3" stroke="black" points="6289.25,-149.8 6160.75,-149.8 6160.75,-113.8 6289.25,-113.8 6289.25,-149.8"/>
<text text-anchor="middle" x="6225" y="-127.6" font-family="Times,serif" font-size="14.00">FeaturesComponent</text>
</g>
<!-- FeaturesComponent&#45;&gt;AppModule -->
<g id="edge12" class="edge">
<title>FeaturesComponent&#45;&gt;AppModule</title>
<path fill="none" stroke="black" d="M6225,-149.83C6225,-169.38 6225,-197.8 6225,-197.8 6225,-197.8 4069.14,-197.8 4069.14,-197.8"/>
<polygon fill="black" stroke="black" points="4069.14,-194.3 4059.14,-197.8 4069.14,-201.3 4069.14,-194.3"/>
</g>
<!-- FillDataFormComponent -->
<g id="node12" class="node">
<title>FillDataFormComponent</title>
<polygon fill="#ffffb3" stroke="black" points="6142.55,-149.8 5985.45,-149.8 5985.45,-113.8 6142.55,-113.8 6142.55,-149.8"/>
<text text-anchor="middle" x="6064" y="-127.6" font-family="Times,serif" font-size="14.00">FillDataFormComponent</text>
</g>
<!-- FillDataFormComponent&#45;&gt;AppModule -->
<g id="edge13" class="edge">
<title>FillDataFormComponent&#45;&gt;AppModule</title>
<path fill="none" stroke="black" d="M6064,-149.91C6064,-169.14 6064,-196.8 6064,-196.8 6064,-196.8 4068.82,-196.8 4068.82,-196.8"/>
<polygon fill="black" stroke="black" points="4068.82,-193.3 4058.82,-196.8 4068.82,-200.3 4068.82,-193.3"/>
</g>
<!-- HomeBuildsCardComponent -->
<g id="node13" class="node">
<title>HomeBuildsCardComponent</title>
<polygon fill="#ffffb3" stroke="black" points="5967.82,-149.8 5788.18,-149.8 5788.18,-113.8 5967.82,-113.8 5967.82,-149.8"/>
<text text-anchor="middle" x="5878" y="-127.6" font-family="Times,serif" font-size="14.00">HomeBuildsCardComponent</text>
</g>
<!-- HomeBuildsCardComponent&#45;&gt;AppModule -->
<g id="edge14" class="edge">
<title>HomeBuildsCardComponent&#45;&gt;AppModule</title>
<path fill="none" stroke="black" d="M5878,-150.02C5878,-168.63 5878,-194.8 5878,-194.8 5878,-194.8 4068.92,-194.8 4068.92,-194.8"/>
<polygon fill="black" stroke="black" points="4068.92,-191.3 4058.92,-194.8 4068.92,-198.3 4068.92,-191.3"/>
</g>
<!-- HomeBuildsComponent -->
<g id="node14" class="node">
<title>HomeBuildsComponent</title>
<polygon fill="#ffffb3" stroke="black" points="5770.11,-149.8 5617.89,-149.8 5617.89,-113.8 5770.11,-113.8 5770.11,-149.8"/>
<text text-anchor="middle" x="5694" y="-127.6" font-family="Times,serif" font-size="14.00">HomeBuildsComponent</text>
</g>
<!-- HomeBuildsComponent&#45;&gt;AppModule -->
<g id="edge15" class="edge">
<title>HomeBuildsComponent&#45;&gt;AppModule</title>
<path fill="none" stroke="black" d="M5694,-150.07C5694,-168.36 5694,-193.8 5694,-193.8 5694,-193.8 4068.87,-193.8 4068.87,-193.8"/>
<polygon fill="black" stroke="black" points="4068.87,-190.3 4058.87,-193.8 4068.87,-197.3 4068.87,-190.3"/>
</g>
<!-- HomeCommunitiesComponent -->
<g id="node15" class="node">
<title>HomeCommunitiesComponent</title>
<polygon fill="#ffffb3" stroke="black" points="5599.49,-149.8 5408.51,-149.8 5408.51,-113.8 5599.49,-113.8 5599.49,-149.8"/>
<text text-anchor="middle" x="5504" y="-127.6" font-family="Times,serif" font-size="14.00">HomeCommunitiesComponent</text>
</g>
<!-- HomeCommunitiesComponent&#45;&gt;AppModule -->
<g id="edge16" class="edge">
<title>HomeCommunitiesComponent&#45;&gt;AppModule</title>
<path fill="none" stroke="black" d="M5504,-149.8C5504,-167.48 5504,-191.8 5504,-191.8 5504,-191.8 4068.71,-191.8 4068.71,-191.8"/>
<polygon fill="black" stroke="black" points="4068.71,-188.3 4058.71,-191.8 4068.71,-195.3 4068.71,-188.3"/>
</g>
<!-- HomeComponent -->
<g id="node16" class="node">
<title>HomeComponent</title>
<polygon fill="#ffffb3" stroke="black" points="5390.55,-149.8 5275.45,-149.8 5275.45,-113.8 5390.55,-113.8 5390.55,-149.8"/>
<text text-anchor="middle" x="5333" y="-127.6" font-family="Times,serif" font-size="14.00">HomeComponent</text>
</g>
<!-- HomeComponent&#45;&gt;AppModule -->
<g id="edge17" class="edge">
<title>HomeComponent&#45;&gt;AppModule</title>
<path fill="none" stroke="black" d="M5333,-149.83C5333,-166.86 5333,-189.8 5333,-189.8 5333,-189.8 4068.93,-189.8 4068.93,-189.8"/>
<polygon fill="black" stroke="black" points="4068.93,-186.3 4058.93,-189.8 4068.93,-193.3 4068.93,-186.3"/>
</g>
<!-- HomeEventsCardComponent -->
<g id="node17" class="node">
<title>HomeEventsCardComponent</title>
<polygon fill="#ffffb3" stroke="black" points="5257.36,-149.8 5076.64,-149.8 5076.64,-113.8 5257.36,-113.8 5257.36,-149.8"/>
<text text-anchor="middle" x="5167" y="-127.6" font-family="Times,serif" font-size="14.00">HomeEventsCardComponent</text>
</g>
<!-- HomeEventsCardComponent&#45;&gt;AppModule -->
<g id="edge18" class="edge">
<title>HomeEventsCardComponent&#45;&gt;AppModule</title>
<path fill="none" stroke="black" d="M5167,-149.84C5167,-166.53 5167,-188.8 5167,-188.8 5167,-188.8 4068.95,-188.8 4068.95,-188.8"/>
<polygon fill="black" stroke="black" points="4068.95,-185.3 4058.95,-188.8 4068.95,-192.3 4068.95,-185.3"/>
</g>
<!-- HomeEventsComponent -->
<g id="node18" class="node">
<title>HomeEventsComponent</title>
<polygon fill="#ffffb3" stroke="black" points="5058.65,-149.8 4905.35,-149.8 4905.35,-113.8 5058.65,-113.8 5058.65,-149.8"/>
<text text-anchor="middle" x="4982" y="-127.6" font-family="Times,serif" font-size="14.00">HomeEventsComponent</text>
</g>
<!-- HomeEventsComponent&#45;&gt;AppModule -->
<g id="edge19" class="edge">
<title>HomeEventsComponent&#45;&gt;AppModule</title>
<path fill="none" stroke="black" d="M4982,-149.81C4982,-165.85 4982,-186.8 4982,-186.8 4982,-186.8 4068.77,-186.8 4068.77,-186.8"/>
<polygon fill="black" stroke="black" points="4068.77,-183.3 4058.77,-186.8 4068.77,-190.3 4068.77,-183.3"/>
</g>
<!-- HomeExpertsComponent -->
<g id="node19" class="node">
<title>HomeExpertsComponent</title>
<polygon fill="#ffffb3" stroke="black" points="4887.31,-149.8 4728.69,-149.8 4728.69,-113.8 4887.31,-113.8 4887.31,-149.8"/>
<text text-anchor="middle" x="4808" y="-127.6" font-family="Times,serif" font-size="14.00">HomeExpertsComponent</text>
</g>
<!-- HomeExpertsComponent&#45;&gt;AppModule -->
<g id="edge20" class="edge">
<title>HomeExpertsComponent&#45;&gt;AppModule</title>
<path fill="none" stroke="black" d="M4808,-150.08C4808,-165.75 4808,-185.8 4808,-185.8 4808,-185.8 4068.69,-185.8 4068.69,-185.8"/>
<polygon fill="black" stroke="black" points="4068.69,-182.3 4058.69,-185.8 4068.69,-189.3 4068.69,-182.3"/>
</g>
<!-- HomeExternalFeedLinksComponent -->
<g id="node20" class="node">
<title>HomeExternalFeedLinksComponent</title>
<polygon fill="#ffffb3" stroke="black" points="4711.07,-149.8 4488.93,-149.8 4488.93,-113.8 4711.07,-113.8 4711.07,-149.8"/>
<text text-anchor="middle" x="4600" y="-127.6" font-family="Times,serif" font-size="14.00">HomeExternalFeedLinksComponent</text>
</g>
<!-- HomeExternalFeedLinksComponent&#45;&gt;AppModule -->
<g id="edge21" class="edge">
<title>HomeExternalFeedLinksComponent&#45;&gt;AppModule</title>
<path fill="none" stroke="black" d="M4600,-149.99C4600,-164.98 4600,-183.8 4600,-183.8 4600,-183.8 4068.93,-183.8 4068.93,-183.8"/>
<polygon fill="black" stroke="black" points="4068.93,-180.3 4058.93,-183.8 4068.93,-187.3 4068.93,-180.3"/>
</g>
<!-- HomeHeadBannerComponent -->
<g id="node21" class="node">
<title>HomeHeadBannerComponent</title>
<polygon fill="#ffffb3" stroke="black" points="4470.51,-149.8 4285.49,-149.8 4285.49,-113.8 4470.51,-113.8 4470.51,-149.8"/>
<text text-anchor="middle" x="4378" y="-127.6" font-family="Times,serif" font-size="14.00">HomeHeadBannerComponent</text>
</g>
<!-- HomeHeadBannerComponent&#45;&gt;AppModule -->
<g id="edge22" class="edge">
<title>HomeHeadBannerComponent&#45;&gt;AppModule</title>
<path fill="none" stroke="black" d="M4378,-149.92C4378,-164.58 4378,-182.8 4378,-182.8 4378,-182.8 4068.76,-182.8 4068.76,-182.8"/>
<polygon fill="black" stroke="black" points="4068.76,-179.3 4058.76,-182.8 4068.76,-186.3 4068.76,-179.3"/>
</g>
<!-- HomeLabsComponent -->
<g id="node22" class="node">
<title>HomeLabsComponent</title>
<polygon fill="#ffffb3" stroke="black" points="4267.26,-149.8 4124.74,-149.8 4124.74,-113.8 4267.26,-113.8 4267.26,-149.8"/>
<text text-anchor="middle" x="4196" y="-127.6" font-family="Times,serif" font-size="14.00">HomeLabsComponent</text>
</g>
<!-- HomeLabsComponent&#45;&gt;AppModule -->
<g id="edge23" class="edge">
<title>HomeLabsComponent&#45;&gt;AppModule</title>
<path fill="none" stroke="black" d="M4196,-150.05C4196,-163.98 4196,-180.8 4196,-180.8 4196,-180.8 4068.97,-180.8 4068.97,-180.8"/>
<polygon fill="black" stroke="black" points="4068.97,-177.3 4058.97,-180.8 4068.97,-184.3 4068.97,-177.3"/>
</g>
<!-- HomePromotionsComponent -->
<g id="node23" class="node">
<title>HomePromotionsComponent</title>
<polygon fill="#ffffb3" stroke="black" points="4107.1,-149.8 3926.9,-149.8 3926.9,-113.8 4107.1,-113.8 4107.1,-149.8"/>
<text text-anchor="middle" x="4017" y="-127.6" font-family="Times,serif" font-size="14.00">HomePromotionsComponent</text>
</g>
<!-- HomePromotionsComponent&#45;&gt;AppModule -->
<g id="edge24" class="edge">
<title>HomePromotionsComponent&#45;&gt;AppModule</title>
<path fill="none" stroke="black" d="M4017,-149.91C4017,-149.91 4017,-168.79 4017,-168.79"/>
<polygon fill="black" stroke="black" points="4013.5,-168.79 4017,-178.79 4020.5,-168.79 4013.5,-168.79"/>
</g>
<!-- LogoutComponent -->
<g id="node24" class="node">
<title>LogoutComponent</title>
<polygon fill="#ffffb3" stroke="black" points="3908.78,-149.8 3787.22,-149.8 3787.22,-113.8 3908.78,-113.8 3908.78,-149.8"/>
<text text-anchor="middle" x="3848" y="-127.6" font-family="Times,serif" font-size="14.00">LogoutComponent</text>
</g>
<!-- LogoutComponent&#45;&gt;AppModule -->
<g id="edge25" class="edge">
<title>LogoutComponent&#45;&gt;AppModule</title>
<path fill="none" stroke="black" d="M3848,-150.05C3848,-163.98 3848,-180.8 3848,-180.8 3848,-180.8 3965.22,-180.8 3965.22,-180.8"/>
<polygon fill="black" stroke="black" points="3965.22,-184.3 3975.22,-180.8 3965.22,-177.3 3965.22,-184.3"/>
</g>
<!-- NavbarMenuComponent -->
<g id="node25" class="node">
<title>NavbarMenuComponent</title>
<polygon fill="#ffffb3" stroke="black" points="3769.69,-149.8 3614.31,-149.8 3614.31,-113.8 3769.69,-113.8 3769.69,-149.8"/>
<text text-anchor="middle" x="3692" y="-127.6" font-family="Times,serif" font-size="14.00">NavbarMenuComponent</text>
</g>
<!-- NavbarMenuComponent&#45;&gt;AppModule -->
<g id="edge26" class="edge">
<title>NavbarMenuComponent&#45;&gt;AppModule</title>
<path fill="none" stroke="black" d="M3692,-149.92C3692,-164.58 3692,-182.8 3692,-182.8 3692,-182.8 3965.18,-182.8 3965.18,-182.8"/>
<polygon fill="black" stroke="black" points="3965.18,-186.3 3975.18,-182.8 3965.18,-179.3 3965.18,-186.3"/>
</g>
<!-- OrganizerCommunitiesListComponent -->
<g id="node26" class="node">
<title>OrganizerCommunitiesListComponent</title>
<polygon fill="#ffffb3" stroke="black" points="3596.02,-149.8 3361.98,-149.8 3361.98,-113.8 3596.02,-113.8 3596.02,-149.8"/>
<text text-anchor="middle" x="3479" y="-127.6" font-family="Times,serif" font-size="14.00">OrganizerCommunitiesListComponent</text>
</g>
<!-- OrganizerCommunitiesListComponent&#45;&gt;AppModule -->
<g id="edge27" class="edge">
<title>OrganizerCommunitiesListComponent&#45;&gt;AppModule</title>
<path fill="none" stroke="black" d="M3479,-149.99C3479,-164.98 3479,-183.8 3479,-183.8 3479,-183.8 3965.23,-183.8 3965.23,-183.8"/>
<polygon fill="black" stroke="black" points="3965.23,-187.3 3975.23,-183.8 3965.23,-180.3 3965.23,-187.3"/>
</g>
<!-- SearchBarComponent -->
<g id="node27" class="node">
<title>SearchBarComponent</title>
<polygon fill="#ffffb3" stroke="black" points="3343.63,-149.8 3204.37,-149.8 3204.37,-113.8 3343.63,-113.8 3343.63,-149.8"/>
<text text-anchor="middle" x="3274" y="-127.6" font-family="Times,serif" font-size="14.00">SearchBarComponent</text>
</g>
<!-- SearchBarComponent&#45;&gt;AppModule -->
<g id="edge28" class="edge">
<title>SearchBarComponent&#45;&gt;AppModule</title>
<path fill="none" stroke="black" d="M3274,-150.08C3274,-165.75 3274,-185.8 3274,-185.8 3274,-185.8 3965.19,-185.8 3965.19,-185.8"/>
<polygon fill="black" stroke="black" points="3965.19,-189.3 3975.19,-185.8 3965.19,-182.3 3965.19,-189.3"/>
</g>
<!-- SidebarMenuComponent -->
<g id="node28" class="node">
<title>SidebarMenuComponent</title>
<polygon fill="#ffffb3" stroke="black" points="3186.25,-149.8 3029.75,-149.8 3029.75,-113.8 3186.25,-113.8 3186.25,-149.8"/>
<text text-anchor="middle" x="3108" y="-127.6" font-family="Times,serif" font-size="14.00">SidebarMenuComponent</text>
</g>
<!-- SidebarMenuComponent&#45;&gt;AppModule -->
<g id="edge29" class="edge">
<title>SidebarMenuComponent&#45;&gt;AppModule</title>
<path fill="none" stroke="black" d="M3108,-149.81C3108,-165.85 3108,-186.8 3108,-186.8 3108,-186.8 3965.28,-186.8 3965.28,-186.8"/>
<polygon fill="black" stroke="black" points="3965.28,-190.3 3975.28,-186.8 3965.28,-183.3 3965.28,-190.3"/>
</g>
<!-- SpeakerResourceFormComponent -->
<g id="node29" class="node">
<title>SpeakerResourceFormComponent</title>
<polygon fill="#ffffb3" stroke="black" points="3011.34,-149.8 2802.66,-149.8 2802.66,-113.8 3011.34,-113.8 3011.34,-149.8"/>
<text text-anchor="middle" x="2907" y="-127.6" font-family="Times,serif" font-size="14.00">SpeakerResourceFormComponent</text>
</g>
<!-- SpeakerResourceFormComponent&#45;&gt;AppModule -->
<g id="edge30" class="edge">
<title>SpeakerResourceFormComponent&#45;&gt;AppModule</title>
<path fill="none" stroke="black" d="M2907,-149.84C2907,-166.53 2907,-188.8 2907,-188.8 2907,-188.8 3965.18,-188.8 3965.18,-188.8"/>
<polygon fill="black" stroke="black" points="3965.18,-192.3 3975.18,-188.8 3965.18,-185.3 3965.18,-192.3"/>
</g>
<!-- SwUpdateComponent -->
<g id="node30" class="node">
<title>SwUpdateComponent</title>
<polygon fill="#ffffb3" stroke="black" points="2784.65,-149.8 2645.35,-149.8 2645.35,-113.8 2784.65,-113.8 2784.65,-149.8"/>
<text text-anchor="middle" x="2715" y="-127.6" font-family="Times,serif" font-size="14.00">SwUpdateComponent</text>
</g>
<!-- SwUpdateComponent&#45;&gt;AppModule -->
<g id="edge31" class="edge">
<title>SwUpdateComponent&#45;&gt;AppModule</title>
<path fill="none" stroke="black" d="M2715,-149.83C2715,-166.86 2715,-189.8 2715,-189.8 2715,-189.8 3965.15,-189.8 3965.15,-189.8"/>
<polygon fill="black" stroke="black" points="3965.15,-193.3 3975.15,-189.8 3965.15,-186.3 3965.15,-193.3"/>
</g>
<!-- AppComponent  -->
<g id="node44" class="node">
<title>AppComponent </title>
<polygon fill="#80b1d3" stroke="black" points="4071.44,-279.8 3962.56,-279.8 3962.56,-243.8 4071.44,-243.8 4071.44,-279.8"/>
<text text-anchor="middle" x="4017" y="-257.6" font-family="Times,serif" font-size="14.00">AppComponent </text>
</g>
<!-- AppModule&#45;&gt;AppComponent  -->
<g id="edge43" class="edge">
<title>AppModule&#45;&gt;AppComponent </title>
<path fill="none" stroke="black" stroke-dasharray="1,5" d="M4017,-214.91C4017,-214.91 4017,-233.79 4017,-233.79"/>
<polygon fill="black" stroke="black" points="4013.5,-233.79 4017,-243.79 4020.5,-233.79 4013.5,-233.79"/>
</g>
<!-- TruncateTextPipe -->
<g id="node32" class="node">
<title>TruncateTextPipe</title>
<ellipse fill="#fdb462" stroke="black" cx="7998" cy="-66.8" rx="80.43" ry="18"/>
<text text-anchor="middle" x="7998" y="-62.6" font-family="Times,serif" font-size="14.00">TruncateTextPipe</text>
</g>
<!-- TruncateTextPipe&#45;&gt;AppComponent -->
<g id="edge3" class="edge">
<title>TruncateTextPipe&#45;&gt;AppComponent</title>
<path fill="none" stroke="black" d="M7998,-84.91C7998,-84.91 7998,-103.79 7998,-103.79"/>
<polygon fill="black" stroke="black" points="7994.5,-103.79 7998,-113.79 8001.5,-103.79 7994.5,-103.79"/>
</g>
<!-- AppRoutingModule -->
<g id="node33" class="node">
<title>AppRoutingModule</title>
<polygon fill="#8dd3c7" stroke="black" points="1696.27,-149.8 1693.27,-153.8 1672.27,-153.8 1669.27,-149.8 1567.73,-149.8 1567.73,-113.8 1696.27,-113.8 1696.27,-149.8"/>
<text text-anchor="middle" x="1632" y="-127.6" font-family="Times,serif" font-size="14.00">AppRoutingModule</text>
</g>
<!-- AppRoutingModule&#45;&gt;AppModule -->
<g id="edge32" class="edge">
<title>AppRoutingModule&#45;&gt;AppModule</title>
<path fill="none" stroke="black" d="M1632,-149.83C1632,-169.38 1632,-197.8 1632,-197.8 1632,-197.8 3965.1,-197.8 3965.1,-197.8"/>
<polygon fill="black" stroke="black" points="3965.1,-201.3 3975.1,-197.8 3965.1,-194.3 3965.1,-201.3"/>
</g>
<!-- CommunityChannelsModule -->
<g id="node34" class="node">
<title>CommunityChannelsModule</title>
<polygon fill="#8dd3c7" stroke="black" points="1549.05,-149.8 1546.05,-153.8 1525.05,-153.8 1522.05,-149.8 1370.95,-149.8 1370.95,-113.8 1549.05,-113.8 1549.05,-149.8"/>
<text text-anchor="middle" x="1460" y="-127.6" font-family="Times,serif" font-size="14.00">CommunityChannelsModule</text>
</g>
<!-- CommunityChannelsModule&#45;&gt;AppModule -->
<g id="edge33" class="edge">
<title>CommunityChannelsModule&#45;&gt;AppModule</title>
<path fill="none" stroke="black" d="M1460,-150.02C1460,-170.17 1460,-199.8 1460,-199.8 1460,-199.8 3965.28,-199.8 3965.28,-199.8"/>
<polygon fill="black" stroke="black" points="3965.28,-203.3 3975.28,-199.8 3965.28,-196.3 3965.28,-203.3"/>
</g>
<!-- LabsModule -->
<g id="node35" class="node">
<title>LabsModule</title>
<polygon fill="#8dd3c7" stroke="black" points="1352.26,-149.8 1349.26,-153.8 1328.26,-153.8 1325.26,-149.8 1265.74,-149.8 1265.74,-113.8 1352.26,-113.8 1352.26,-149.8"/>
<text text-anchor="middle" x="1309" y="-127.6" font-family="Times,serif" font-size="14.00">LabsModule</text>
</g>
<!-- LabsModule&#45;&gt;AppModule -->
<g id="edge34" class="edge">
<title>LabsModule&#45;&gt;AppModule</title>
<path fill="none" stroke="black" d="M1309,-149.93C1309,-170.37 1309,-200.8 1309,-200.8 1309,-200.8 3965.28,-200.8 3965.28,-200.8"/>
<polygon fill="black" stroke="black" points="3965.28,-204.3 3975.28,-200.8 3965.28,-197.3 3965.28,-204.3"/>
</g>
<!-- LibErrorHandlerModule -->
<g id="node36" class="node">
<title>LibErrorHandlerModule</title>
<polygon fill="#8dd3c7" stroke="black" points="1247.61,-149.8 1244.61,-153.8 1223.61,-153.8 1220.61,-149.8 1094.39,-149.8 1094.39,-113.8 1247.61,-113.8 1247.61,-149.8"/>
<text text-anchor="middle" x="1171" y="-127.6" font-family="Times,serif" font-size="14.00">LibErrorHandlerModule</text>
</g>
<!-- LibErrorHandlerModule&#45;&gt;AppModule -->
<g id="edge35" class="edge">
<title>LibErrorHandlerModule&#45;&gt;AppModule</title>
<path fill="none" stroke="black" d="M1171,-150.08C1171,-171.12 1171,-202.8 1171,-202.8 1171,-202.8 3965.12,-202.8 3965.12,-202.8"/>
<polygon fill="black" stroke="black" points="3965.12,-206.3 3975.12,-202.8 3965.12,-199.3 3965.12,-206.3"/>
</g>
<!-- MainNewslettersModule -->
<g id="node37" class="node">
<title>MainNewslettersModule</title>
<polygon fill="#8dd3c7" stroke="black" points="1076.68,-149.8 1073.68,-153.8 1052.68,-153.8 1049.68,-149.8 921.32,-149.8 921.32,-113.8 1076.68,-113.8 1076.68,-149.8"/>
<text text-anchor="middle" x="999" y="-127.6" font-family="Times,serif" font-size="14.00">MainNewslettersModule</text>
</g>
<!-- MainNewslettersModule&#45;&gt;AppModule -->
<g id="edge36" class="edge">
<title>MainNewslettersModule&#45;&gt;AppModule</title>
<path fill="none" stroke="black" d="M999,-149.84C999,-171.46 999,-204.8 999,-204.8 999,-204.8 3965.2,-204.8 3965.2,-204.8"/>
<polygon fill="black" stroke="black" points="3965.2,-208.3 3975.2,-204.8 3965.2,-201.3 3965.2,-208.3"/>
</g>
<!-- PageAdsModule -->
<g id="node38" class="node">
<title>PageAdsModule</title>
<polygon fill="#8dd3c7" stroke="black" points="903.81,-149.8 900.81,-153.8 879.81,-153.8 876.81,-149.8 794.19,-149.8 794.19,-113.8 903.81,-113.8 903.81,-149.8"/>
<text text-anchor="middle" x="849" y="-127.6" font-family="Times,serif" font-size="14.00">PageAdsModule</text>
</g>
<!-- PageAdsModule&#45;&gt;AppModule -->
<g id="edge37" class="edge">
<title>PageAdsModule&#45;&gt;AppModule</title>
<path fill="none" stroke="black" d="M849,-150.09C849,-172.01 849,-205.8 849,-205.8 849,-205.8 3965.2,-205.8 3965.2,-205.8"/>
<polygon fill="black" stroke="black" points="3965.2,-209.3 3975.2,-205.8 3965.2,-202.3 3965.2,-209.3"/>
</g>
<!-- PublicCommunityModule -->
<g id="node39" class="node">
<title>PublicCommunityModule</title>
<polygon fill="#8dd3c7" stroke="black" points="776.23,-149.8 773.23,-153.8 752.23,-153.8 749.23,-149.8 613.77,-149.8 613.77,-113.8 776.23,-113.8 776.23,-149.8"/>
<text text-anchor="middle" x="695" y="-127.6" font-family="Times,serif" font-size="14.00">PublicCommunityModule</text>
</g>
<!-- PublicCommunityModule&#45;&gt;AppModule -->
<g id="edge38" class="edge">
<title>PublicCommunityModule&#45;&gt;AppModule</title>
<path fill="none" stroke="black" d="M695,-149.81C695,-172.29 695,-207.8 695,-207.8 695,-207.8 3965.3,-207.8 3965.3,-207.8"/>
<polygon fill="black" stroke="black" points="3965.3,-211.3 3975.3,-207.8 3965.3,-204.3 3965.3,-211.3"/>
</g>
<!-- SharedDirectivesModule -->
<g id="node40" class="node">
<title>SharedDirectivesModule</title>
<polygon fill="#8dd3c7" stroke="black" points="595.95,-149.8 592.95,-153.8 571.95,-153.8 568.95,-149.8 440.05,-149.8 440.05,-113.8 595.95,-113.8 595.95,-149.8"/>
<text text-anchor="middle" x="518" y="-127.6" font-family="Times,serif" font-size="14.00">SharedDirectivesModule</text>
</g>
<!-- SharedDirectivesModule&#45;&gt;AppModule -->
<g id="edge39" class="edge">
<title>SharedDirectivesModule&#45;&gt;AppModule</title>
<path fill="none" stroke="black" d="M518,-150.05C518,-172.82 518,-208.8 518,-208.8 518,-208.8 3965.27,-208.8 3965.27,-208.8"/>
<polygon fill="black" stroke="black" points="3965.27,-212.3 3975.27,-208.8 3965.27,-205.3 3965.27,-212.3"/>
</g>
<!-- SkeletonScreensModule -->
<g id="node41" class="node">
<title>SkeletonScreensModule</title>
<polygon fill="#8dd3c7" stroke="black" points="422.07,-149.8 419.07,-153.8 398.07,-153.8 395.07,-149.8 269.93,-149.8 269.93,-113.8 422.07,-113.8 422.07,-149.8"/>
<text text-anchor="middle" x="346" y="-127.6" font-family="Times,serif" font-size="14.00">SkeletonScreensModule</text>
</g>
<!-- SkeletonScreensModule&#45;&gt;AppModule -->
<g id="edge40" class="edge">
<title>SkeletonScreensModule&#45;&gt;AppModule</title>
<path fill="none" stroke="black" d="M346,-150.12C346,-173.46 346,-210.8 346,-210.8 346,-210.8 3965.14,-210.8 3965.14,-210.8"/>
<polygon fill="black" stroke="black" points="3965.14,-214.3 3975.14,-210.8 3965.14,-207.3 3965.14,-214.3"/>
</g>
<!-- UserChatsModule -->
<g id="node42" class="node">
<title>UserChatsModule</title>
<polygon fill="#8dd3c7" stroke="black" points="251.86,-149.8 248.86,-153.8 227.86,-153.8 224.86,-149.8 134.14,-149.8 134.14,-113.8 251.86,-113.8 251.86,-149.8"/>
<text text-anchor="middle" x="193" y="-127.6" font-family="Times,serif" font-size="14.00">UserChatsModule</text>
</g>
<!-- UserChatsModule&#45;&gt;AppModule -->
<g id="edge41" class="edge">
<title>UserChatsModule&#45;&gt;AppModule</title>
<path fill="none" stroke="black" d="M193,-149.95C193,-173.56 193,-211.8 193,-211.8 193,-211.8 3965.03,-211.8 3965.03,-211.8"/>
<polygon fill="black" stroke="black" points="3965.03,-215.3 3975.03,-211.8 3965.03,-208.3 3965.03,-215.3"/>
</g>
<!-- UsersModule -->
<g id="node43" class="node">
<title>UsersModule</title>
<polygon fill="#8dd3c7" stroke="black" points="115.92,-149.8 112.92,-153.8 91.92,-153.8 88.92,-149.8 24.08,-149.8 24.08,-113.8 115.92,-113.8 115.92,-149.8"/>
<text text-anchor="middle" x="70" y="-127.6" font-family="Times,serif" font-size="14.00">UsersModule</text>
</g>
<!-- UsersModule&#45;&gt;AppModule -->
<g id="edge42" class="edge">
<title>UsersModule&#45;&gt;AppModule</title>
<path fill="none" stroke="black" d="M70,-150C70,-174.16 70,-213.8 70,-213.8 70,-213.8 3965.01,-213.8 3965.01,-213.8"/>
<polygon fill="black" stroke="black" points="3965.01,-217.3 3975.01,-213.8 3965.01,-210.3 3965.01,-217.3"/>
</g>
<!-- ApiParserResponseInterceptor -->
<g id="node45" class="node">
<title>ApiParserResponseInterceptor</title>
<ellipse fill="#fdb462" stroke="black" cx="2492" cy="-131.8" rx="129.03" ry="18"/>
<text text-anchor="middle" x="2492" y="-127.6" font-family="Times,serif" font-size="14.00">ApiParserResponseInterceptor</text>
</g>
<!-- ApiParserResponseInterceptor&#45;&gt;AppModule -->
<g id="edge44" class="edge">
<title>ApiParserResponseInterceptor&#45;&gt;AppModule</title>
<path fill="none" stroke="black" d="M2492,-149.8C2492,-167.48 2492,-191.8 2492,-191.8 2492,-191.8 3965.02,-191.8 3965.02,-191.8"/>
<polygon fill="black" stroke="black" points="3965.02,-195.3 3975.02,-191.8 3965.02,-188.3 3965.02,-195.3"/>
</g>
<!-- AppInitService -->
<g id="node46" class="node">
<title>AppInitService</title>
<ellipse fill="#fdb462" stroke="black" cx="2275" cy="-131.8" rx="70.06" ry="18"/>
<text text-anchor="middle" x="2275" y="-127.6" font-family="Times,serif" font-size="14.00">AppInitService</text>
</g>
<!-- AppInitService&#45;&gt;AppModule -->
<g id="edge45" class="edge">
<title>AppInitService&#45;&gt;AppModule</title>
<path fill="none" stroke="black" d="M2275,-150.07C2275,-168.36 2275,-193.8 2275,-193.8 2275,-193.8 3965.23,-193.8 3965.23,-193.8"/>
<polygon fill="black" stroke="black" points="3965.23,-197.3 3975.23,-193.8 3965.23,-190.3 3965.23,-197.3"/>
</g>
<!-- AuthTokenInterceptor -->
<g id="node47" class="node">
<title>AuthTokenInterceptor</title>
<ellipse fill="#fdb462" stroke="black" cx="2090" cy="-131.8" rx="97.25" ry="18"/>
<text text-anchor="middle" x="2090" y="-127.6" font-family="Times,serif" font-size="14.00">AuthTokenInterceptor</text>
</g>
<!-- AuthTokenInterceptor&#45;&gt;AppModule -->
<g id="edge46" class="edge">
<title>AuthTokenInterceptor&#45;&gt;AppModule</title>
<path fill="none" stroke="black" d="M2090,-150.02C2090,-168.63 2090,-194.8 2090,-194.8 2090,-194.8 3964.96,-194.8 3964.96,-194.8"/>
<polygon fill="black" stroke="black" points="3964.96,-198.3 3974.96,-194.8 3964.96,-191.3 3964.96,-198.3"/>
</g>
<!-- PrismJsHighlightCodeService -->
<g id="node48" class="node">
<title>PrismJsHighlightCodeService</title>
<ellipse fill="#fdb462" stroke="black" cx="1847" cy="-131.8" rx="127.38" ry="18"/>
<text text-anchor="middle" x="1847" y="-127.6" font-family="Times,serif" font-size="14.00">PrismJsHighlightCodeService</text>
</g>
<!-- PrismJsHighlightCodeService&#45;&gt;AppModule -->
<g id="edge47" class="edge">
<title>PrismJsHighlightCodeService&#45;&gt;AppModule</title>
<path fill="none" stroke="black" d="M1847,-149.91C1847,-169.14 1847,-196.8 1847,-196.8 1847,-196.8 3965.11,-196.8 3965.11,-196.8"/>
<polygon fill="black" stroke="black" points="3965.11,-200.3 3975.11,-196.8 3965.11,-193.3 3965.11,-200.3"/>
</g>
</g>
</svg>
