<?xml version="1.0" encoding="UTF-8" standalone="no"?>
<!DOCTYPE svg PUBLIC "-//W3C//DTD SVG 1.1//EN"
 "http://www.w3.org/Graphics/SVG/1.1/DTD/svg11.dtd">
<!-- Generated by graphviz version 5.0.0 (20220707.1540)
 -->
<!-- Title: dependencies Pages: 1 -->
<svg width="450pt" height="174pt"
 viewBox="0.00 0.00 450.00 173.80" xmlns="http://www.w3.org/2000/svg" xmlns:xlink="http://www.w3.org/1999/xlink">
<g id="graph0" class="graph" transform="scale(1 1) rotate(0) translate(4 169.8)">
<title>dependencies</title>
<polygon fill="white" stroke="transparent" points="-4,4 -4,-169.8 446,-169.8 446,4 -4,4"/>
<text text-anchor="middle" x="221" y="-8.2" font-family="sans-serif" font-size="14.00">dependencies</text>
<g id="clust1" class="cluster">
<title>cluster_PublicNewslettersModule</title>
<polygon fill="none" stroke="black" stroke-dasharray="1,5" points="8,-32.8 8,-157.8 434,-157.8 434,-32.8 8,-32.8"/>
</g>
<g id="clust2" class="cluster">
<title>cluster_PublicNewslettersModule_declarations</title>
<polygon fill="none" stroke="black" points="246,-40.8 246,-92.8 426,-92.8 426,-40.8 246,-40.8"/>
</g>
<g id="clust4" class="cluster">
<title>cluster_PublicNewslettersModule_imports</title>
<polygon fill="none" stroke="black" points="16,-40.8 16,-92.8 238,-92.8 238,-40.8 16,-40.8"/>
</g>
<!-- NewsletterListComponent -->
<g id="node1" class="node">
<title>NewsletterListComponent</title>
<polygon fill="#ffffb3" stroke="black" points="417.75,-84.8 254.25,-84.8 254.25,-48.8 417.75,-48.8 417.75,-84.8"/>
<text text-anchor="middle" x="336" y="-62.6" font-family="Times,serif" font-size="14.00">NewsletterListComponent</text>
</g>
<!-- PublicNewslettersModule -->
<g id="node2" class="node">
<title>PublicNewslettersModule</title>
<polygon fill="#8dd3c7" stroke="black" points="311.92,-149.8 308.92,-153.8 287.92,-153.8 284.92,-149.8 150.08,-149.8 150.08,-113.8 311.92,-113.8 311.92,-149.8"/>
<text text-anchor="middle" x="231" y="-127.6" font-family="Times,serif" font-size="14.00">PublicNewslettersModule</text>
</g>
<!-- NewsletterListComponent&#45;&gt;PublicNewslettersModule -->
<g id="edge1" class="edge">
<title>NewsletterListComponent&#45;&gt;PublicNewslettersModule</title>
<path fill="none" stroke="black" d="M282.92,-84.91C282.92,-84.91 282.92,-103.79 282.92,-103.79"/>
<polygon fill="black" stroke="black" points="279.42,-103.79 282.92,-113.79 286.42,-103.79 279.42,-103.79"/>
</g>
<!-- PublicNewslettersRoutingModule -->
<g id="node3" class="node">
<title>PublicNewslettersRoutingModule</title>
<polygon fill="#8dd3c7" stroke="black" points="230.04,-84.8 227.04,-88.8 206.04,-88.8 203.04,-84.8 23.96,-84.8 23.96,-48.8 230.04,-48.8 230.04,-84.8"/>
<text text-anchor="middle" x="127" y="-62.6" font-family="Times,serif" font-size="14.00">PublicNewslettersRoutingModule</text>
</g>
<!-- PublicNewslettersRoutingModule&#45;&gt;PublicNewslettersModule -->
<g id="edge2" class="edge">
<title>PublicNewslettersRoutingModule&#45;&gt;PublicNewslettersModule</title>
<path fill="none" stroke="black" d="M190.28,-84.91C190.28,-84.91 190.28,-103.79 190.28,-103.79"/>
<polygon fill="black" stroke="black" points="186.78,-103.79 190.28,-113.79 193.78,-103.79 186.78,-103.79"/>
</g>
</g>
</svg>
