<?xml version="1.0" encoding="UTF-8" standalone="no"?>
<!DOCTYPE svg PUBLIC "-//W3C//DTD SVG 1.1//EN"
 "http://www.w3.org/Graphics/SVG/1.1/DTD/svg11.dtd">
<!-- Generated by graphviz version 2.47.0 (20210316.0004)
 -->
<!-- Title: dependencies Pages: 1 -->
<svg width="6335pt" height="284pt"
     viewBox="0.00 0.00 6335.00 284.00" xmlns="http://www.w3.org/2000/svg">
<g id="graph0" class="graph" transform="scale(1 1) rotate(0) translate(4 280)">
<title>dependencies</title>
<polygon fill="white" stroke="transparent" points="-4,4 -4,-280 6331,-280 6331,4 -4,4"/>
<text text-anchor="start" x="3142.51" y="-42.4" font-family="sans-serif" font-weight="bold" font-size="14.00">Legend</text>
<polygon fill="#ffffb3" stroke="transparent" points="2929.5,-10 2929.5,-30 2949.5,-30 2949.5,-10 2929.5,-10"/>
<text text-anchor="start" x="2953.13" y="-15.4" font-family="sans-serif" font-size="14.00"> &#160;Declarations</text>
<polygon fill="#8dd3c7" stroke="transparent" points="3042.5,-10 3042.5,-30 3062.5,-30 3062.5,-10 3042.5,-10"/>
<text text-anchor="start" x="3066.23" y="-15.4" font-family="sans-serif" font-size="14.00"> &#160;Module</text>
<polygon fill="#80b1d3" stroke="transparent" points="3128.5,-10 3128.5,-30 3148.5,-30 3148.5,-10 3128.5,-10"/>
<text text-anchor="start" x="3152.28" y="-15.4" font-family="sans-serif" font-size="14.00"> &#160;Bootstrap</text>
<polygon fill="#fdb462" stroke="transparent" points="3225.5,-10 3225.5,-30 3245.5,-30 3245.5,-10 3225.5,-10"/>
<text text-anchor="start" x="3249.17" y="-15.4" font-family="sans-serif" font-size="14.00"> &#160;Providers</text>
<polygon fill="#fb8072" stroke="transparent" points="3321.5,-10 3321.5,-30 3341.5,-30 3341.5,-10 3321.5,-10"/>
<text text-anchor="start" x="3345.23" y="-15.4" font-family="sans-serif" font-size="14.00"> &#160;Exports</text>
<g id="clust1" class="cluster">
<title>cluster_SharedComponentsModule</title>
<polygon fill="none" stroke="black" stroke-dasharray="1,5" points="8,-70 8,-268 6319,-268 6319,-70 8,-70"/>
</g>
<g id="clust36" class="cluster">
<title>cluster_SharedComponentsModule_imports</title>
<polygon fill="none" stroke="black" points="6175,-78 6175,-130 6311,-130 6311,-78 6175,-78"/>
</g>
<g id="clust2" class="cluster">
<title>cluster_SharedComponentsModule_declarations</title>
<polygon fill="none" stroke="black" points="16,-78 16,-130 6167,-130 6167,-78 16,-78"/>
</g>
<g id="clust37" class="cluster">
<title>cluster_SharedComponentsModule_exports</title>
<polygon fill="none" stroke="black" points="719,-208 719,-260 5681,-260 5681,-208 719,-208"/>
</g>
<!-- BadgeComponent -->
<g id="node1" class="node">
<title>BadgeComponent</title>
<polygon fill="#ffffb3" stroke="black" points="6158.6,-122 6041.4,-122 6041.4,-86 6158.6,-86 6158.6,-122"/>
<text text-anchor="middle" x="6100" y="-99.8" font-family="Times,serif" font-size="14.00">BadgeComponent</text>
</g>
<!-- SharedComponentsModule -->
<g id="node34" class="node">
<title>SharedComponentsModule</title>
<polygon fill="#8dd3c7" stroke="black" points="3404.7,-187 3401.7,-191 3380.7,-191 3377.7,-187 3235.3,-187 3235.3,-151 3404.7,-151 3404.7,-187"/>
<text text-anchor="middle" x="3320" y="-164.8" font-family="Times,serif" font-size="14.00">SharedComponentsModule</text>
</g>
<!-- BadgeComponent&#45;&gt;SharedComponentsModule -->
<g id="edge1" class="edge">
<title>BadgeComponent&#45;&gt;SharedComponentsModule</title>
<path fill="none" stroke="black" d="M6100,-122.03C6100,-141.58 6100,-170 6100,-170 6100,-170 3414.72,-170 3414.72,-170"/>
<polygon fill="black" stroke="black" points="3414.72,-166.5 3404.72,-170 3414.72,-173.5 3414.72,-166.5"/>
</g>
<!-- CommunityBadgeComponent -->
<g id="node2" class="node">
<title>CommunityBadgeComponent</title>
<polygon fill="#ffffb3" stroke="black" points="6023,-122 5839,-122 5839,-86 6023,-86 6023,-122"/>
<text text-anchor="middle" x="5931" y="-99.8" font-family="Times,serif" font-size="14.00">CommunityBadgeComponent</text>
</g>
<!-- CommunityBadgeComponent&#45;&gt;SharedComponentsModule -->
<g id="edge2" class="edge">
<title>CommunityBadgeComponent&#45;&gt;SharedComponentsModule</title>
<path fill="none" stroke="black" d="M5931,-122.11C5931,-141.34 5931,-169 5931,-169 5931,-169 3414.65,-169 3414.65,-169"/>
<polygon fill="black" stroke="black" points="3414.65,-165.5 3404.65,-169 3414.65,-172.5 3414.65,-165.5"/>
</g>
<!-- CookieConsentComponent -->
<g id="node3" class="node">
<title>CookieConsentComponent</title>
<polygon fill="#ffffb3" stroke="black" points="5820.66,-122 5653.34,-122 5653.34,-86 5820.66,-86 5820.66,-122"/>
<text text-anchor="middle" x="5737" y="-99.8" font-family="Times,serif" font-size="14.00">CookieConsentComponent</text>
</g>
<!-- CookieConsentComponent&#45;&gt;SharedComponentsModule -->
<g id="edge3" class="edge">
<title>CookieConsentComponent&#45;&gt;SharedComponentsModule</title>
<path fill="none" stroke="black" d="M5663.23,-122.17C5663.23,-141.09 5663.23,-168 5663.23,-168 5663.23,-168 3414.78,-168 3414.78,-168"/>
<polygon fill="black" stroke="black" points="3414.78,-164.5 3404.78,-168 3414.78,-171.5 3414.78,-164.5"/>
</g>
<!-- DataFormFillComponent -->
<g id="node4" class="node">
<title>DataFormFillComponent</title>
<polygon fill="#ffffb3" stroke="black" points="5634.55,-122 5477.45,-122 5477.45,-86 5634.55,-86 5634.55,-122"/>
<text text-anchor="middle" x="5556" y="-99.8" font-family="Times,serif" font-size="14.00">DataFormFillComponent</text>
</g>
<!-- DataFormFillComponent&#45;&gt;SharedComponentsModule -->
<g id="edge4" class="edge">
<title>DataFormFillComponent&#45;&gt;SharedComponentsModule</title>
<path fill="none" stroke="black" d="M5505.99,-122.27C5505.99,-140.56 5505.99,-166 5505.99,-166 5505.99,-166 3414.69,-166 3414.69,-166"/>
<polygon fill="black" stroke="black" points="3414.69,-162.5 3404.69,-166 3414.69,-169.5 3414.69,-162.5"/>
</g>
<!-- DiscussionChatComponent -->
<g id="node5" class="node">
<title>DiscussionChatComponent</title>
<polygon fill="#ffffb3" stroke="black" points="5459.71,-122 5290.29,-122 5290.29,-86 5459.71,-86 5459.71,-122"/>
<text text-anchor="middle" x="5375" y="-99.8" font-family="Times,serif" font-size="14.00">DiscussionChatComponent</text>
</g>
<!-- DiscussionChatComponent&#45;&gt;SharedComponentsModule -->
<g id="edge5" class="edge">
<title>DiscussionChatComponent&#45;&gt;SharedComponentsModule</title>
<path fill="none" stroke="black" d="M5309.99,-122.3C5309.99,-140.27 5309.99,-165 5309.99,-165 5309.99,-165 3414.87,-165 3414.87,-165"/>
<polygon fill="black" stroke="black" points="3414.87,-161.5 3404.87,-165 3414.87,-168.5 3414.87,-161.5"/>
</g>
<!-- DiscussionPersonalChatComponent -->
<g id="node6" class="node">
<title>DiscussionPersonalChatComponent</title>
<polygon fill="#ffffb3" stroke="black" points="5272.92,-122 5055.08,-122 5055.08,-86 5272.92,-86 5272.92,-122"/>
<text text-anchor="middle" x="5164" y="-99.8" font-family="Times,serif" font-size="14.00">DiscussionPersonalChatComponent</text>
</g>
<!-- DiscussionPersonalChatComponent&#45;&gt;SharedComponentsModule -->
<g id="edge6" class="edge">
<title>DiscussionPersonalChatComponent&#45;&gt;SharedComponentsModule</title>
<path fill="none" stroke="black" d="M5097.91,-122C5097.91,-139.68 5097.91,-164 5097.91,-164 5097.91,-164 3414.85,-164 3414.85,-164"/>
<polygon fill="black" stroke="black" points="3414.85,-160.5 3404.85,-164 3414.85,-167.5 3414.85,-160.5"/>
</g>
<!-- DiscussionQnAComponent -->
<g id="node7" class="node">
<title>DiscussionQnAComponent</title>
<polygon fill="#ffffb3" stroke="black" points="5036.98,-122 4867.02,-122 4867.02,-86 5036.98,-86 5036.98,-122"/>
<text text-anchor="middle" x="4952" y="-99.8" font-family="Times,serif" font-size="14.00">DiscussionQnAComponent</text>
</g>
<!-- DiscussionQnAComponent&#45;&gt;SharedComponentsModule -->
<g id="edge7" class="edge">
<title>DiscussionQnAComponent&#45;&gt;SharedComponentsModule</title>
<path fill="none" stroke="black" d="M4914.18,-122.02C4914.18,-139.37 4914.18,-163 4914.18,-163 4914.18,-163 3414.87,-163 3414.87,-163"/>
<polygon fill="black" stroke="black" points="3414.87,-159.5 3404.87,-163 3414.87,-166.5 3414.87,-159.5"/>
</g>
<!-- FlagsDisplayComponent -->
<g id="node8" class="node">
<title>FlagsDisplayComponent</title>
<polygon fill="#ffffb3" stroke="black" points="4848.71,-122 4693.29,-122 4693.29,-86 4848.71,-86 4848.71,-122"/>
<text text-anchor="middle" x="4771" y="-99.8" font-family="Times,serif" font-size="14.00">FlagsDisplayComponent</text>
</g>
<!-- FlagsDisplayComponent&#45;&gt;SharedComponentsModule -->
<g id="edge8" class="edge">
<title>FlagsDisplayComponent&#45;&gt;SharedComponentsModule</title>
<path fill="none" stroke="black" d="M4731.93,-122.04C4731.93,-138.73 4731.93,-161 4731.93,-161 4731.93,-161 3414.62,-161 3414.62,-161"/>
<polygon fill="black" stroke="black" points="3414.62,-157.5 3404.62,-161 3414.62,-164.5 3414.62,-157.5"/>
</g>
<!-- FormResponsesComponent -->
<g id="node9" class="node">
<title>FormResponsesComponent</title>
<polygon fill="#ffffb3" stroke="black" points="4675.27,-122 4504.73,-122 4504.73,-86 4675.27,-86 4675.27,-122"/>
<text text-anchor="middle" x="4590" y="-99.8" font-family="Times,serif" font-size="14.00">FormResponsesComponent</text>
</g>
<!-- FormResponsesComponent&#45;&gt;SharedComponentsModule -->
<g id="edge9" class="edge">
<title>FormResponsesComponent&#45;&gt;SharedComponentsModule</title>
<path fill="none" stroke="black" d="M4518.18,-122.03C4518.18,-138.4 4518.18,-160 4518.18,-160 4518.18,-160 3414.73,-160 3414.73,-160"/>
<polygon fill="black" stroke="black" points="3414.73,-156.5 3404.73,-160 3414.73,-163.5 3414.73,-156.5"/>
</g>
<!-- NewDataFormComponent -->
<g id="node10" class="node">
<title>NewDataFormComponent</title>
<polygon fill="#ffffb3" stroke="black" points="4486.02,-122 4321.98,-122 4321.98,-86 4486.02,-86 4486.02,-122"/>
<text text-anchor="middle" x="4404" y="-99.8" font-family="Times,serif" font-size="14.00">NewDataFormComponent</text>
</g>
<!-- NewDataFormComponent&#45;&gt;SharedComponentsModule -->
<g id="edge10" class="edge">
<title>NewDataFormComponent&#45;&gt;SharedComponentsModule</title>
<path fill="none" stroke="black" d="M4331.05,-122.01C4331.05,-138.05 4331.05,-159 4331.05,-159 4331.05,-159 3414.9,-159 3414.9,-159"/>
<polygon fill="black" stroke="black" points="3414.9,-155.5 3404.9,-159 3414.9,-162.5 3414.9,-155.5"/>
</g>
<!-- PollCreateFormComponent -->
<g id="node11" class="node">
<title>PollCreateFormComponent</title>
<polygon fill="#ffffb3" stroke="black" points="4303.26,-122 4132.74,-122 4132.74,-86 4303.26,-86 4303.26,-122"/>
<text text-anchor="middle" x="4218" y="-99.8" font-family="Times,serif" font-size="14.00">PollCreateFormComponent</text>
</g>
<!-- PollCreateFormComponent&#45;&gt;SharedComponentsModule -->
<g id="edge11" class="edge">
<title>PollCreateFormComponent&#45;&gt;SharedComponentsModule</title>
<path fill="none" stroke="black" d="M4148.38,-122.28C4148.38,-137.95 4148.38,-158 4148.38,-158 4148.38,-158 3414.76,-158 3414.76,-158"/>
<polygon fill="black" stroke="black" points="3414.76,-154.5 3404.76,-158 3414.76,-161.5 3414.76,-154.5"/>
</g>
<!-- PollFormComponent -->
<g id="node12" class="node">
<title>PollFormComponent</title>
<polygon fill="#ffffb3" stroke="black" points="4115.23,-122 3980.77,-122 3980.77,-86 4115.23,-86 4115.23,-122"/>
<text text-anchor="middle" x="4048" y="-99.8" font-family="Times,serif" font-size="14.00">PollFormComponent</text>
</g>
<!-- PollFormComponent&#45;&gt;SharedComponentsModule -->
<g id="edge12" class="edge">
<title>PollFormComponent&#45;&gt;SharedComponentsModule</title>
<path fill="none" stroke="black" d="M3985.38,-122.19C3985.38,-137.18 3985.38,-156 3985.38,-156 3985.38,-156 3414.61,-156 3414.61,-156"/>
<polygon fill="black" stroke="black" points="3414.61,-152.5 3404.61,-156 3414.61,-159.5 3414.61,-152.5"/>
</g>
<!-- PollListItemComponent -->
<g id="node13" class="node">
<title>PollListItemComponent</title>
<polygon fill="#ffffb3" stroke="black" points="3962.83,-122 3811.17,-122 3811.17,-86 3962.83,-86 3962.83,-122"/>
<text text-anchor="middle" x="3887" y="-99.8" font-family="Times,serif" font-size="14.00">PollListItemComponent</text>
</g>
<!-- PollListItemComponent&#45;&gt;SharedComponentsModule -->
<g id="edge13" class="edge">
<title>PollListItemComponent&#45;&gt;SharedComponentsModule</title>
<path fill="none" stroke="black" d="M3887,-122.12C3887,-136.78 3887,-155 3887,-155 3887,-155 3414.89,-155 3414.89,-155"/>
<polygon fill="black" stroke="black" points="3414.89,-151.5 3404.89,-155 3414.89,-158.5 3414.89,-151.5"/>
</g>
<!-- PollResultComponent -->
<g id="node14" class="node">
<title>PollResultComponent</title>
<polygon fill="#ffffb3" stroke="black" points="3792.67,-122 3653.33,-122 3653.33,-86 3792.67,-86 3792.67,-122"/>
<text text-anchor="middle" x="3723" y="-99.8" font-family="Times,serif" font-size="14.00">PollResultComponent</text>
</g>
<!-- PollResultComponent&#45;&gt;SharedComponentsModule -->
<g id="edge14" class="edge">
<title>PollResultComponent&#45;&gt;SharedComponentsModule</title>
<path fill="none" stroke="black" d="M3719.38,-122.05C3719.38,-136.37 3719.38,-154 3719.38,-154 3719.38,-154 3414.7,-154 3414.7,-154"/>
<polygon fill="black" stroke="black" points="3414.7,-150.5 3404.7,-154 3414.7,-157.5 3414.7,-150.5"/>
</g>
<!-- PollsComponent -->
<g id="node15" class="node">
<title>PollsComponent</title>
<polygon fill="#ffffb3" stroke="black" points="3634.84,-122 3525.16,-122 3525.16,-86 3634.84,-86 3634.84,-122"/>
<text text-anchor="middle" x="3580" y="-99.8" font-family="Times,serif" font-size="14.00">PollsComponent</text>
</g>
<!-- PollsComponent&#45;&gt;SharedComponentsModule -->
<g id="edge15" class="edge">
<title>PollsComponent&#45;&gt;SharedComponentsModule</title>
<path fill="none" stroke="black" d="M3574.88,-122.25C3574.88,-136.18 3574.88,-153 3574.88,-153 3574.88,-153 3414.87,-153 3414.87,-153"/>
<polygon fill="black" stroke="black" points="3414.87,-149.5 3404.87,-153 3414.87,-156.5 3414.87,-149.5"/>
</g>
<!-- QnaUserMessageComponent -->
<g id="node16" class="node">
<title>QnaUserMessageComponent</title>
<polygon fill="#ffffb3" stroke="black" points="3507.06,-122 3326.94,-122 3326.94,-86 3507.06,-86 3507.06,-122"/>
<text text-anchor="middle" x="3417" y="-99.8" font-family="Times,serif" font-size="14.00">QnaUserMessageComponent</text>
</g>
<!-- QnaUserMessageComponent&#45;&gt;SharedComponentsModule -->
<g id="edge16" class="edge">
<title>QnaUserMessageComponent&#45;&gt;SharedComponentsModule</title>
<path fill="none" stroke="black" d="M3365.79,-122.11C3365.79,-122.11 3365.79,-140.99 3365.79,-140.99"/>
<polygon fill="black" stroke="black" points="3362.29,-140.99 3365.79,-150.99 3369.29,-140.99 3362.29,-140.99"/>
</g>
<!-- ResponsesTableComponent -->
<g id="node17" class="node">
<title>ResponsesTableComponent</title>
<polygon fill="#ffffb3" stroke="black" points="3309.3,-122 3136.7,-122 3136.7,-86 3309.3,-86 3309.3,-122"/>
<text text-anchor="middle" x="3223" y="-99.8" font-family="Times,serif" font-size="14.00">ResponsesTableComponent</text>
</g>
<!-- ResponsesTableComponent&#45;&gt;SharedComponentsModule -->
<g id="edge17" class="edge">
<title>ResponsesTableComponent&#45;&gt;SharedComponentsModule</title>
<path fill="none" stroke="black" d="M3272.28,-122.11C3272.28,-122.11 3272.28,-140.99 3272.28,-140.99"/>
<polygon fill="black" stroke="black" points="3268.78,-140.99 3272.28,-150.99 3275.78,-140.99 3268.78,-140.99"/>
</g>
<!-- TagComponent -->
<g id="node18" class="node">
<title>TagComponent</title>
<polygon fill="#ffffb3" stroke="black" points="3118.6,-122 3015.4,-122 3015.4,-86 3118.6,-86 3118.6,-122"/>
<text text-anchor="middle" x="3067" y="-99.8" font-family="Times,serif" font-size="14.00">TagComponent</text>
</g>
<!-- TagComponent&#45;&gt;SharedComponentsModule -->
<g id="edge18" class="edge">
<title>TagComponent&#45;&gt;SharedComponentsModule</title>
<path fill="none" stroke="black" d="M3067,-122.25C3067,-136.18 3067,-153 3067,-153 3067,-153 3225.05,-153 3225.05,-153"/>
<polygon fill="black" stroke="black" points="3225.05,-156.5 3235.05,-153 3225.05,-149.5 3225.05,-156.5"/>
</g>
<!-- UserDetailsCellComponent -->
<g id="node19" class="node">
<title>UserDetailsCellComponent</title>
<polygon fill="#ffffb3" stroke="black" points="2997.24,-122 2826.76,-122 2826.76,-86 2997.24,-86 2997.24,-122"/>
<text text-anchor="middle" x="2912" y="-99.8" font-family="Times,serif" font-size="14.00">UserDetailsCellComponent</text>
</g>
<!-- UserDetailsCellComponent&#45;&gt;SharedComponentsModule -->
<g id="edge19" class="edge">
<title>UserDetailsCellComponent&#45;&gt;SharedComponentsModule</title>
<path fill="none" stroke="black" d="M2987.27,-122.05C2987.27,-136.37 2987.27,-154 2987.27,-154 2987.27,-154 3225.18,-154 3225.18,-154"/>
<polygon fill="black" stroke="black" points="3225.18,-157.5 3235.18,-154 3225.18,-150.5 3225.18,-157.5"/>
</g>
<!-- UserLiveStatusComponent -->
<g id="node20" class="node">
<title>UserLiveStatusComponent</title>
<polygon fill="#ffffb3" stroke="black" points="2808.64,-122 2641.36,-122 2641.36,-86 2808.64,-86 2808.64,-122"/>
<text text-anchor="middle" x="2725" y="-99.8" font-family="Times,serif" font-size="14.00">UserLiveStatusComponent</text>
</g>
<!-- UserLiveStatusComponent&#45;&gt;SharedComponentsModule -->
<g id="edge20" class="edge">
<title>UserLiveStatusComponent&#45;&gt;SharedComponentsModule</title>
<path fill="none" stroke="black" d="M2804.55,-122.12C2804.55,-136.78 2804.55,-155 2804.55,-155 2804.55,-155 3225.17,-155 3225.17,-155"/>
<polygon fill="black" stroke="black" points="3225.17,-158.5 3235.17,-155 3225.17,-151.5 3225.17,-158.5"/>
</g>
<!-- UserMessageComponent -->
<g id="node21" class="node">
<title>UserMessageComponent</title>
<polygon fill="#ffffb3" stroke="black" points="2623.24,-122 2466.76,-122 2466.76,-86 2623.24,-86 2623.24,-122"/>
<text text-anchor="middle" x="2545" y="-99.8" font-family="Times,serif" font-size="14.00">UserMessageComponent</text>
</g>
<!-- UserMessageComponent&#45;&gt;SharedComponentsModule -->
<g id="edge21" class="edge">
<title>UserMessageComponent&#45;&gt;SharedComponentsModule</title>
<path fill="none" stroke="black" d="M2609.54,-122.19C2609.54,-137.18 2609.54,-156 2609.54,-156 2609.54,-156 3225.36,-156 3225.36,-156"/>
<polygon fill="black" stroke="black" points="3225.36,-159.5 3235.36,-156 3225.36,-152.5 3225.36,-159.5"/>
</g>
<!-- UserObjectVisitPixelComponent -->
<g id="node22" class="node">
<title>UserObjectVisitPixelComponent</title>
<polygon fill="#ffffb3" stroke="black" points="2448.58,-122 2247.42,-122 2247.42,-86 2448.58,-86 2448.58,-122"/>
<text text-anchor="middle" x="2348" y="-99.8" font-family="Times,serif" font-size="14.00">UserObjectVisitPixelComponent</text>
</g>
<!-- UserObjectVisitPixelComponent&#45;&gt;SharedComponentsModule -->
<g id="edge22" class="edge">
<title>UserObjectVisitPixelComponent&#45;&gt;SharedComponentsModule</title>
<path fill="none" stroke="black" d="M2408.47,-122.28C2408.47,-137.95 2408.47,-158 2408.47,-158 2408.47,-158 3225.06,-158 3225.06,-158"/>
<polygon fill="black" stroke="black" points="3225.06,-161.5 3235.06,-158 3225.06,-154.5 3225.06,-161.5"/>
</g>
<!-- UserPersonalChatMessageComponent -->
<g id="node23" class="node">
<title>UserPersonalChatMessageComponent</title>
<polygon fill="#ffffb3" stroke="black" points="2229.89,-122 1998.11,-122 1998.11,-86 2229.89,-86 2229.89,-122"/>
<text text-anchor="middle" x="2114" y="-99.8" font-family="Times,serif" font-size="14.00">UserPersonalChatMessageComponent</text>
</g>
<!-- UserPersonalChatMessageComponent&#45;&gt;SharedComponentsModule -->
<g id="edge23" class="edge">
<title>UserPersonalChatMessageComponent&#45;&gt;SharedComponentsModule</title>
<path fill="none" stroke="black" d="M2177.84,-122.01C2177.84,-138.05 2177.84,-159 2177.84,-159 2177.84,-159 3225.09,-159 3225.09,-159"/>
<polygon fill="black" stroke="black" points="3225.09,-162.5 3235.09,-159 3225.09,-155.5 3225.09,-162.5"/>
</g>
<!-- UserProfileCardLargeComponent -->
<g id="node24" class="node">
<title>UserProfileCardLargeComponent</title>
<polygon fill="#ffffb3" stroke="black" points="1979.71,-122 1774.29,-122 1774.29,-86 1979.71,-86 1979.71,-122"/>
<text text-anchor="middle" x="1877" y="-99.8" font-family="Times,serif" font-size="14.00">UserProfileCardLargeComponent</text>
</g>
<!-- UserProfileCardLargeComponent&#45;&gt;SharedComponentsModule -->
<g id="edge24" class="edge">
<title>UserProfileCardLargeComponent&#45;&gt;SharedComponentsModule</title>
<path fill="none" stroke="black" d="M1939.12,-122.03C1939.12,-138.4 1939.12,-160 1939.12,-160 1939.12,-160 3225.18,-160 3225.18,-160"/>
<polygon fill="black" stroke="black" points="3225.18,-163.5 3235.18,-160 3225.18,-156.5 3225.18,-163.5"/>
</g>
<!-- UserProfileCardMediumComponent -->
<g id="node25" class="node">
<title>UserProfileCardMediumComponent</title>
<polygon fill="#ffffb3" stroke="black" points="1756.01,-122 1535.99,-122 1535.99,-86 1756.01,-86 1756.01,-122"/>
<text text-anchor="middle" x="1646" y="-99.8" font-family="Times,serif" font-size="14.00">UserProfileCardMediumComponent</text>
</g>
<!-- UserProfileCardMediumComponent&#45;&gt;SharedComponentsModule -->
<g id="edge25" class="edge">
<title>UserProfileCardMediumComponent&#45;&gt;SharedComponentsModule</title>
<path fill="none" stroke="black" d="M1713.82,-122.04C1713.82,-138.73 1713.82,-161 1713.82,-161 1713.82,-161 3225.34,-161 3225.34,-161"/>
<polygon fill="black" stroke="black" points="3225.34,-164.5 3235.34,-161 3225.34,-157.5 3225.34,-164.5"/>
</g>
<!-- UserProfileCardSmallComponent -->
<g id="node26" class="node">
<title>UserProfileCardSmallComponent</title>
<polygon fill="#ffffb3" stroke="black" points="1517.74,-122 1312.26,-122 1312.26,-86 1517.74,-86 1517.74,-122"/>
<text text-anchor="middle" x="1415" y="-99.8" font-family="Times,serif" font-size="14.00">UserProfileCardSmallComponent</text>
</g>
<!-- UserProfileCardSmallComponent&#45;&gt;SharedComponentsModule -->
<g id="edge26" class="edge">
<title>UserProfileCardSmallComponent&#45;&gt;SharedComponentsModule</title>
<path fill="none" stroke="black" d="M1497.29,-122.02C1497.29,-139.37 1497.29,-163 1497.29,-163 1497.29,-163 3225.14,-163 3225.14,-163"/>
<polygon fill="black" stroke="black" points="3225.14,-166.5 3235.14,-163 3225.14,-159.5 3225.14,-166.5"/>
</g>
<!-- UserProfileHorizontalComponent -->
<g id="node27" class="node">
<title>UserProfileHorizontalComponent</title>
<polygon fill="#ffffb3" stroke="black" points="1293.73,-122 1088.27,-122 1088.27,-86 1293.73,-86 1293.73,-122"/>
<text text-anchor="middle" x="1191" y="-99.8" font-family="Times,serif" font-size="14.00">UserProfileHorizontalComponent</text>
</g>
<!-- UserProfileHorizontalComponent&#45;&gt;SharedComponentsModule -->
<g id="edge27" class="edge">
<title>UserProfileHorizontalComponent&#45;&gt;SharedComponentsModule</title>
<path fill="none" stroke="black" d="M1285.43,-122C1285.43,-139.68 1285.43,-164 1285.43,-164 1285.43,-164 3225.17,-164 3225.17,-164"/>
<polygon fill="black" stroke="black" points="3225.17,-167.5 3235.17,-164 3225.17,-160.5 3225.17,-167.5"/>
</g>
<!-- UserProfileMiniComponent -->
<g id="node28" class="node">
<title>UserProfileMiniComponent</title>
<polygon fill="#ffffb3" stroke="black" points="1070.58,-122 897.42,-122 897.42,-86 1070.58,-86 1070.58,-122"/>
<text text-anchor="middle" x="984" y="-99.8" font-family="Times,serif" font-size="14.00">UserProfileMiniComponent</text>
</g>
<!-- UserProfileMiniComponent&#45;&gt;SharedComponentsModule -->
<g id="edge28" class="edge">
<title>UserProfileMiniComponent&#45;&gt;SharedComponentsModule</title>
<path fill="none" stroke="black" d="M996.01,-122.3C996.01,-140.27 996.01,-165 996.01,-165 996.01,-165 3225.22,-165 3225.22,-165"/>
<polygon fill="black" stroke="black" points="3225.22,-168.5 3235.22,-165 3225.22,-161.5 3225.22,-168.5"/>
</g>
<!-- UserVisitTrackerComponent -->
<g id="node29" class="node">
<title>UserVisitTrackerComponent</title>
<polygon fill="#ffffb3" stroke="black" points="879.5,-122 700.5,-122 700.5,-86 879.5,-86 879.5,-122"/>
<text text-anchor="middle" x="790" y="-99.8" font-family="Times,serif" font-size="14.00">UserVisitTrackerComponent</text>
</g>
<!-- UserVisitTrackerComponent&#45;&gt;SharedComponentsModule -->
<g id="edge29" class="edge">
<title>UserVisitTrackerComponent&#45;&gt;SharedComponentsModule</title>
<path fill="none" stroke="black" d="M802.98,-122.27C802.98,-140.56 802.98,-166 802.98,-166 802.98,-166 3225.17,-166 3225.17,-166"/>
<polygon fill="black" stroke="black" points="3225.17,-169.5 3235.17,-166 3225.17,-162.5 3225.17,-169.5"/>
</g>
<!-- VideoStreamComponent -->
<g id="node30" class="node">
<title>VideoStreamComponent</title>
<polygon fill="#ffffb3" stroke="black" points="682.7,-122 527.3,-122 527.3,-86 682.7,-86 682.7,-122"/>
<text text-anchor="middle" x="605" y="-99.8" font-family="Times,serif" font-size="14.00">VideoStreamComponent</text>
</g>
<!-- VideoStreamComponent&#45;&gt;SharedComponentsModule -->
<g id="edge30" class="edge">
<title>VideoStreamComponent&#45;&gt;SharedComponentsModule</title>
<path fill="none" stroke="black" d="M605,-122.17C605,-141.09 605,-168 605,-168 605,-168 3225.39,-168 3225.39,-168"/>
<polygon fill="black" stroke="black" points="3225.39,-171.5 3235.39,-168 3225.39,-164.5 3225.39,-171.5"/>
</g>
<!-- VotersComponent -->
<g id="node31" class="node">
<title>VotersComponent</title>
<polygon fill="#ffffb3" stroke="black" points="509.15,-122 390.85,-122 390.85,-86 509.15,-86 509.15,-122"/>
<text text-anchor="middle" x="450" y="-99.8" font-family="Times,serif" font-size="14.00">VotersComponent</text>
</g>
<!-- VotersComponent&#45;&gt;SharedComponentsModule -->
<g id="edge31" class="edge">
<title>VotersComponent&#45;&gt;SharedComponentsModule</title>
<path fill="none" stroke="black" d="M450,-122.11C450,-141.34 450,-169 450,-169 450,-169 3225.27,-169 3225.27,-169"/>
<polygon fill="black" stroke="black" points="3225.27,-172.5 3235.27,-169 3225.27,-165.5 3225.27,-172.5"/>
</g>
<!-- VotesDisplayComponent -->
<g id="node32" class="node">
<title>VotesDisplayComponent</title>
<polygon fill="#ffffb3" stroke="black" points="372.54,-122 215.46,-122 215.46,-86 372.54,-86 372.54,-122"/>
<text text-anchor="middle" x="294" y="-99.8" font-family="Times,serif" font-size="14.00">VotesDisplayComponent</text>
</g>
<!-- VotesDisplayComponent&#45;&gt;SharedComponentsModule -->
<g id="edge32" class="edge">
<title>VotesDisplayComponent&#45;&gt;SharedComponentsModule</title>
<path fill="none" stroke="black" d="M294,-122.03C294,-141.58 294,-170 294,-170 294,-170 3225.11,-170 3225.11,-170"/>
<polygon fill="black" stroke="black" points="3225.11,-173.5 3235.11,-170 3225.11,-166.5 3225.11,-173.5"/>
</g>
<!-- WorkInProgressComponent -->
<g id="node33" class="node">
<title>WorkInProgressComponent</title>
<polygon fill="#ffffb3" stroke="black" points="197.58,-122 24.42,-122 24.42,-86 197.58,-86 197.58,-122"/>
<text text-anchor="middle" x="111" y="-99.8" font-family="Times,serif" font-size="14.00">WorkInProgressComponent</text>
</g>
<!-- WorkInProgressComponent&#45;&gt;SharedComponentsModule -->
<g id="edge33" class="edge">
<title>WorkInProgressComponent&#45;&gt;SharedComponentsModule</title>
<path fill="none" stroke="black" d="M111,-122.31C111,-142.15 111,-171 111,-171 111,-171 3224.99,-171 3224.99,-171"/>
<polygon fill="black" stroke="black" points="3224.99,-174.5 3234.99,-171 3224.99,-167.5 3224.99,-174.5"/>
</g>
<!-- BadgeComponent  -->
<g id="node36" class="node">
<title>BadgeComponent </title>
<polygon fill="#fb8072" stroke="black" points="5673.1,-252 5552.9,-252 5552.9,-216 5673.1,-216 5673.1,-252"/>
<text text-anchor="middle" x="5613" y="-229.8" font-family="Times,serif" font-size="14.00">BadgeComponent </text>
</g>
<!-- SharedComponentsModule&#45;&gt;BadgeComponent  -->
<g id="edge35" class="edge">
<title>SharedComponentsModule&#45;&gt;BadgeComponent </title>
<path fill="none" stroke="black" stroke-dasharray="5,2" d="M3404.64,-173C3816.78,-173 5593.74,-173 5593.74,-173 5593.74,-173 5593.74,-205.7 5593.74,-205.7"/>
<polygon fill="black" stroke="black" points="5590.24,-205.7 5593.74,-215.7 5597.24,-205.7 5590.24,-205.7"/>
</g>
<!-- CommunityBadgeComponent  -->
<g id="node37" class="node">
<title>CommunityBadgeComponent </title>
<polygon fill="#fb8072" stroke="black" points="5535,-252 5347,-252 5347,-216 5535,-216 5535,-252"/>
<text text-anchor="middle" x="5441" y="-229.8" font-family="Times,serif" font-size="14.00">CommunityBadgeComponent </text>
</g>
<!-- SharedComponentsModule&#45;&gt;CommunityBadgeComponent  -->
<g id="edge36" class="edge">
<title>SharedComponentsModule&#45;&gt;CommunityBadgeComponent </title>
<path fill="none" stroke="black" stroke-dasharray="5,2" d="M3404.9,-174C3795.82,-174 5403.43,-174 5403.43,-174 5403.43,-174 5403.43,-206 5403.43,-206"/>
<polygon fill="black" stroke="black" points="5399.93,-206 5403.43,-216 5406.93,-206 5399.93,-206"/>
</g>
<!-- CookieConsentComponent  -->
<g id="node38" class="node">
<title>CookieConsentComponent </title>
<polygon fill="#fb8072" stroke="black" points="5329.66,-252 5158.34,-252 5158.34,-216 5329.66,-216 5329.66,-252"/>
<text text-anchor="middle" x="5244" y="-229.8" font-family="Times,serif" font-size="14.00">CookieConsentComponent </text>
</g>
<!-- SharedComponentsModule&#45;&gt;CookieConsentComponent  -->
<g id="edge37" class="edge">
<title>SharedComponentsModule&#45;&gt;CookieConsentComponent </title>
<path fill="none" stroke="black" stroke-dasharray="5,2" d="M3404.82,-175C3773.17,-175 5215.56,-175 5215.56,-175 5215.56,-175 5215.56,-205.98 5215.56,-205.98"/>
<polygon fill="black" stroke="black" points="5212.06,-205.98 5215.56,-215.98 5219.06,-205.98 5212.06,-205.98"/>
</g>
<!-- DataFormFillComponent  -->
<g id="node39" class="node">
<title>DataFormFillComponent </title>
<polygon fill="#fb8072" stroke="black" points="5140.55,-252 4979.45,-252 4979.45,-216 5140.55,-216 5140.55,-252"/>
<text text-anchor="middle" x="5060" y="-229.8" font-family="Times,serif" font-size="14.00">DataFormFillComponent </text>
</g>
<!-- SharedComponentsModule&#45;&gt;DataFormFillComponent  -->
<g id="edge38" class="edge">
<title>SharedComponentsModule&#45;&gt;DataFormFillComponent </title>
<path fill="none" stroke="black" stroke-dasharray="5,2" d="M3404.88,-176C3747.22,-176 5008.23,-176 5008.23,-176 5008.23,-176 5008.23,-205.97 5008.23,-205.97"/>
<polygon fill="black" stroke="black" points="5004.73,-205.97 5008.23,-215.97 5011.73,-205.97 5004.73,-205.97"/>
</g>
<!-- DiscussionChatComponent  -->
<g id="node40" class="node">
<title>DiscussionChatComponent </title>
<polygon fill="#fb8072" stroke="black" points="4961.21,-252 4788.79,-252 4788.79,-216 4961.21,-216 4961.21,-252"/>
<text text-anchor="middle" x="4875" y="-229.8" font-family="Times,serif" font-size="14.00">DiscussionChatComponent </text>
</g>
<!-- SharedComponentsModule&#45;&gt;DiscussionChatComponent  -->
<g id="edge39" class="edge">
<title>SharedComponentsModule&#45;&gt;DiscussionChatComponent </title>
<path fill="none" stroke="black" stroke-dasharray="5,2" d="M3404.87,-178C3721.89,-178 4818.63,-178 4818.63,-178 4818.63,-178 4818.63,-205.97 4818.63,-205.97"/>
<polygon fill="black" stroke="black" points="4815.13,-205.97 4818.63,-215.97 4822.13,-205.97 4815.13,-205.97"/>
</g>
<!-- DiscussionPersonalChatComponent  -->
<g id="node41" class="node">
<title>DiscussionPersonalChatComponent </title>
<polygon fill="#fb8072" stroke="black" points="4770.42,-252 4549.58,-252 4549.58,-216 4770.42,-216 4770.42,-252"/>
<text text-anchor="middle" x="4660" y="-229.8" font-family="Times,serif" font-size="14.00">DiscussionPersonalChatComponent </text>
</g>
<!-- SharedComponentsModule&#45;&gt;DiscussionPersonalChatComponent  -->
<g id="edge40" class="edge">
<title>SharedComponentsModule&#45;&gt;DiscussionPersonalChatComponent </title>
<path fill="none" stroke="black" stroke-dasharray="5,2" d="M3404.8,-179C3692.34,-179 4612.46,-179 4612.46,-179 4612.46,-179 4612.46,-205.99 4612.46,-205.99"/>
<polygon fill="black" stroke="black" points="4608.96,-205.99 4612.46,-215.99 4615.96,-205.99 4608.96,-205.99"/>
</g>
<!-- DiscussionQnAComponent  -->
<g id="node42" class="node">
<title>DiscussionQnAComponent </title>
<polygon fill="#fb8072" stroke="black" points="4531.98,-252 4358.02,-252 4358.02,-216 4531.98,-216 4531.98,-252"/>
<text text-anchor="middle" x="4445" y="-229.8" font-family="Times,serif" font-size="14.00">DiscussionQnAComponent </text>
</g>
<!-- SharedComponentsModule&#45;&gt;DiscussionQnAComponent  -->
<g id="edge41" class="edge">
<title>SharedComponentsModule&#45;&gt;DiscussionQnAComponent </title>
<path fill="none" stroke="black" stroke-dasharray="5,2" d="M3404.66,-180C3662.77,-180 4422.26,-180 4422.26,-180 4422.26,-180 4422.26,-205.72 4422.26,-205.72"/>
<polygon fill="black" stroke="black" points="4418.76,-205.72 4422.26,-215.72 4425.76,-205.72 4418.76,-205.72"/>
</g>
<!-- FlagsDisplayComponent  -->
<g id="node43" class="node">
<title>FlagsDisplayComponent </title>
<polygon fill="#fb8072" stroke="black" points="4340.21,-252 4181.79,-252 4181.79,-216 4340.21,-216 4340.21,-252"/>
<text text-anchor="middle" x="4261" y="-229.8" font-family="Times,serif" font-size="14.00">FlagsDisplayComponent </text>
</g>
<!-- SharedComponentsModule&#45;&gt;FlagsDisplayComponent  -->
<g id="edge42" class="edge">
<title>SharedComponentsModule&#45;&gt;FlagsDisplayComponent </title>
<path fill="none" stroke="black" stroke-dasharray="5,2" d="M3404.72,-181C3632.78,-181 4242.51,-181 4242.51,-181 4242.51,-181 4242.51,-205.76 4242.51,-205.76"/>
<polygon fill="black" stroke="black" points="4239.01,-205.76 4242.51,-215.76 4246.01,-205.76 4239.01,-205.76"/>
</g>
<!-- FormResponsesComponent  -->
<g id="node44" class="node">
<title>FormResponsesComponent </title>
<polygon fill="#fb8072" stroke="black" points="4164.27,-252 3989.73,-252 3989.73,-216 4164.27,-216 4164.27,-252"/>
<text text-anchor="middle" x="4077" y="-229.8" font-family="Times,serif" font-size="14.00">FormResponsesComponent </text>
</g>
<!-- SharedComponentsModule&#45;&gt;FormResponsesComponent  -->
<g id="edge43" class="edge">
<title>SharedComponentsModule&#45;&gt;FormResponsesComponent </title>
<path fill="none" stroke="black" stroke-dasharray="5,2" d="M3404.74,-183C3597.56,-183 4052.49,-183 4052.49,-183 4052.49,-183 4052.49,-205.88 4052.49,-205.88"/>
<polygon fill="black" stroke="black" points="4048.99,-205.88 4052.49,-215.88 4055.99,-205.88 4048.99,-205.88"/>
</g>
<!-- NewDataFormComponent  -->
<g id="node45" class="node">
<title>NewDataFormComponent </title>
<polygon fill="#fb8072" stroke="black" points="3972.02,-252 3803.98,-252 3803.98,-216 3972.02,-216 3972.02,-252"/>
<text text-anchor="middle" x="3888" y="-229.8" font-family="Times,serif" font-size="14.00">NewDataFormComponent </text>
</g>
<!-- SharedComponentsModule&#45;&gt;NewDataFormComponent  -->
<g id="edge44" class="edge">
<title>SharedComponentsModule&#45;&gt;NewDataFormComponent </title>
<path fill="none" stroke="black" stroke-dasharray="5,2" d="M3404.67,-184C3544.31,-184 3807.66,-184 3807.66,-184 3807.66,-184 3807.66,-205.95 3807.66,-205.95"/>
<polygon fill="black" stroke="black" points="3804.16,-205.95 3807.66,-215.95 3811.16,-205.95 3804.16,-205.95"/>
</g>
<!-- PollResultComponent  -->
<g id="node46" class="node">
<title>PollResultComponent </title>
<polygon fill="#fb8072" stroke="black" points="3785.67,-252 3642.33,-252 3642.33,-216 3785.67,-216 3785.67,-252"/>
<text text-anchor="middle" x="3714" y="-229.8" font-family="Times,serif" font-size="14.00">PollResultComponent </text>
</g>
<!-- SharedComponentsModule&#45;&gt;PollResultComponent  -->
<g id="edge45" class="edge">
<title>SharedComponentsModule&#45;&gt;PollResultComponent </title>
<path fill="none" stroke="black" stroke-dasharray="5,2" d="M3404.84,-185C3501.96,-185 3647.79,-185 3647.79,-185 3647.79,-185 3647.79,-205.75 3647.79,-205.75"/>
<polygon fill="black" stroke="black" points="3644.29,-205.75 3647.79,-215.75 3651.29,-205.75 3644.29,-205.75"/>
</g>
<!-- PollsComponent  -->
<g id="node47" class="node">
<title>PollsComponent </title>
<polygon fill="#fb8072" stroke="black" points="3624.34,-252 3511.66,-252 3511.66,-216 3624.34,-216 3624.34,-252"/>
<text text-anchor="middle" x="3568" y="-229.8" font-family="Times,serif" font-size="14.00">PollsComponent </text>
</g>
<!-- SharedComponentsModule&#45;&gt;PollsComponent  -->
<g id="edge46" class="edge">
<title>SharedComponentsModule&#45;&gt;PollsComponent </title>
<path fill="none" stroke="black" stroke-dasharray="5,2" d="M3404.74,-186C3458.68,-186 3518.45,-186 3518.45,-186 3518.45,-186 3518.45,-205.85 3518.45,-205.85"/>
<polygon fill="black" stroke="black" points="3514.95,-205.85 3518.45,-215.85 3521.95,-205.85 3514.95,-205.85"/>
</g>
<!-- QnaUserMessageComponent  -->
<g id="node48" class="node">
<title>QnaUserMessageComponent </title>
<polygon fill="#fb8072" stroke="black" points="3493.56,-252 3310.44,-252 3310.44,-216 3493.56,-216 3493.56,-252"/>
<text text-anchor="middle" x="3402" y="-229.8" font-family="Times,serif" font-size="14.00">QnaUserMessageComponent </text>
</g>
<!-- SharedComponentsModule&#45;&gt;QnaUserMessageComponent  -->
<g id="edge47" class="edge">
<title>SharedComponentsModule&#45;&gt;QnaUserMessageComponent </title>
<path fill="none" stroke="black" stroke-dasharray="5,2" d="M3357.41,-187.11C3357.41,-187.11 3357.41,-205.99 3357.41,-205.99"/>
<polygon fill="black" stroke="black" points="3353.91,-205.99 3357.41,-215.99 3360.91,-205.99 3353.91,-205.99"/>
</g>
<!-- TagComponent  -->
<g id="node49" class="node">
<title>TagComponent </title>
<polygon fill="#fb8072" stroke="black" points="3292.1,-252 3185.9,-252 3185.9,-216 3292.1,-216 3292.1,-252"/>
<text text-anchor="middle" x="3239" y="-229.8" font-family="Times,serif" font-size="14.00">TagComponent </text>
</g>
<!-- SharedComponentsModule&#45;&gt;TagComponent  -->
<g id="edge48" class="edge">
<title>SharedComponentsModule&#45;&gt;TagComponent </title>
<path fill="none" stroke="black" stroke-dasharray="5,2" d="M3263.85,-187.11C3263.85,-187.11 3263.85,-205.99 3263.85,-205.99"/>
<polygon fill="black" stroke="black" points="3260.35,-205.99 3263.85,-215.99 3267.35,-205.99 3260.35,-205.99"/>
</g>
<!-- UserLiveStatusComponent  -->
<g id="node50" class="node">
<title>UserLiveStatusComponent </title>
<polygon fill="#fb8072" stroke="black" points="3167.64,-252 2996.36,-252 2996.36,-216 3167.64,-216 3167.64,-252"/>
<text text-anchor="middle" x="3082" y="-229.8" font-family="Times,serif" font-size="14.00">UserLiveStatusComponent </text>
</g>
<!-- SharedComponentsModule&#45;&gt;UserLiveStatusComponent  -->
<g id="edge49" class="edge">
<title>SharedComponentsModule&#45;&gt;UserLiveStatusComponent </title>
<path fill="none" stroke="black" stroke-dasharray="5,2" d="M3235.12,-186C3193.5,-186 3152.21,-186 3152.21,-186 3152.21,-186 3152.21,-205.85 3152.21,-205.85"/>
<polygon fill="black" stroke="black" points="3148.71,-205.85 3152.21,-215.85 3155.71,-205.85 3148.71,-205.85"/>
</g>
<!-- UserMessageComponent  -->
<g id="node51" class="node">
<title>UserMessageComponent </title>
<polygon fill="#fb8072" stroke="black" points="2978.24,-252 2817.76,-252 2817.76,-216 2978.24,-216 2978.24,-252"/>
<text text-anchor="middle" x="2898" y="-229.8" font-family="Times,serif" font-size="14.00">UserMessageComponent </text>
</g>
<!-- SharedComponentsModule&#45;&gt;UserMessageComponent  -->
<g id="edge50" class="edge">
<title>SharedComponentsModule&#45;&gt;UserMessageComponent </title>
<path fill="none" stroke="black" stroke-dasharray="5,2" d="M3235.24,-185C3113.17,-185 2902.37,-185 2902.37,-185 2902.37,-185 2902.37,-205.75 2902.37,-205.75"/>
<polygon fill="black" stroke="black" points="2898.87,-205.75 2902.37,-215.75 2905.87,-205.75 2898.87,-205.75"/>
</g>
<!-- UserObjectVisitPixelComponent  -->
<g id="node52" class="node">
<title>UserObjectVisitPixelComponent </title>
<polygon fill="#fb8072" stroke="black" points="2800.08,-252 2595.92,-252 2595.92,-216 2800.08,-216 2800.08,-252"/>
<text text-anchor="middle" x="2698" y="-229.8" font-family="Times,serif" font-size="14.00">UserObjectVisitPixelComponent </text>
</g>
<!-- SharedComponentsModule&#45;&gt;UserObjectVisitPixelComponent  -->
<g id="edge51" class="edge">
<title>SharedComponentsModule&#45;&gt;UserObjectVisitPixelComponent </title>
<path fill="none" stroke="black" stroke-dasharray="5,2" d="M3235.09,-184C3069.78,-184 2720.73,-184 2720.73,-184 2720.73,-184 2720.73,-205.95 2720.73,-205.95"/>
<polygon fill="black" stroke="black" points="2717.23,-205.95 2720.73,-215.95 2724.23,-205.95 2717.23,-205.95"/>
</g>
<!-- UserProfileCardLargeComponent  -->
<g id="node53" class="node">
<title>UserProfileCardLargeComponent </title>
<polygon fill="#fb8072" stroke="black" points="2577.71,-252 2368.29,-252 2368.29,-216 2577.71,-216 2577.71,-252"/>
<text text-anchor="middle" x="2473" y="-229.8" font-family="Times,serif" font-size="14.00">UserProfileCardLargeComponent </text>
</g>
<!-- SharedComponentsModule&#45;&gt;UserProfileCardLargeComponent  -->
<g id="edge52" class="edge">
<title>SharedComponentsModule&#45;&gt;UserProfileCardLargeComponent </title>
<path fill="none" stroke="black" stroke-dasharray="5,2" d="M3235.37,-183C3030.02,-183 2522.12,-183 2522.12,-183 2522.12,-183 2522.12,-205.88 2522.12,-205.88"/>
<polygon fill="black" stroke="black" points="2518.62,-205.88 2522.12,-215.88 2525.62,-205.88 2518.62,-205.88"/>
</g>
<!-- UserProfileCardMediumComponent  -->
<g id="node54" class="node">
<title>UserProfileCardMediumComponent </title>
<polygon fill="#fb8072" stroke="black" points="2350.01,-252 2125.99,-252 2125.99,-216 2350.01,-216 2350.01,-252"/>
<text text-anchor="middle" x="2238" y="-229.8" font-family="Times,serif" font-size="14.00">UserProfileCardMediumComponent </text>
</g>
<!-- SharedComponentsModule&#45;&gt;UserProfileCardMediumComponent  -->
<g id="edge53" class="edge">
<title>SharedComponentsModule&#45;&gt;UserProfileCardMediumComponent </title>
<path fill="none" stroke="black" stroke-dasharray="5,2" d="M3235.12,-181C2990.05,-181 2298.73,-181 2298.73,-181 2298.73,-181 2298.73,-205.76 2298.73,-205.76"/>
<polygon fill="black" stroke="black" points="2295.23,-205.76 2298.73,-215.76 2302.23,-205.76 2295.23,-205.76"/>
</g>
<!-- UserProfileCardSmallComponent  -->
<g id="node55" class="node">
<title>UserProfileCardSmallComponent </title>
<polygon fill="#fb8072" stroke="black" points="2107.74,-252 1898.26,-252 1898.26,-216 2107.74,-216 2107.74,-252"/>
<text text-anchor="middle" x="2003" y="-229.8" font-family="Times,serif" font-size="14.00">UserProfileCardSmallComponent </text>
</g>
<!-- SharedComponentsModule&#45;&gt;UserProfileCardSmallComponent  -->
<g id="edge54" class="edge">
<title>SharedComponentsModule&#45;&gt;UserProfileCardSmallComponent </title>
<path fill="none" stroke="black" stroke-dasharray="5,2" d="M3235.39,-180C2951.86,-180 2052.96,-180 2052.96,-180 2052.96,-180 2052.96,-205.72 2052.96,-205.72"/>
<polygon fill="black" stroke="black" points="2049.46,-205.72 2052.96,-215.72 2056.46,-205.72 2049.46,-205.72"/>
</g>
<!-- UserProfileHorizontalComponent  -->
<g id="node56" class="node">
<title>UserProfileHorizontalComponent </title>
<polygon fill="#fb8072" stroke="black" points="1880.73,-252 1671.27,-252 1671.27,-216 1880.73,-216 1880.73,-252"/>
<text text-anchor="middle" x="1776" y="-229.8" font-family="Times,serif" font-size="14.00">UserProfileHorizontalComponent </text>
</g>
<!-- SharedComponentsModule&#45;&gt;UserProfileHorizontalComponent  -->
<g id="edge55" class="edge">
<title>SharedComponentsModule&#45;&gt;UserProfileHorizontalComponent </title>
<path fill="none" stroke="black" stroke-dasharray="5,2" d="M3235.2,-179C2919.1,-179 1827.38,-179 1827.38,-179 1827.38,-179 1827.38,-205.99 1827.38,-205.99"/>
<polygon fill="black" stroke="black" points="1823.88,-205.99 1827.38,-215.99 1830.88,-205.99 1823.88,-205.99"/>
</g>
<!-- UserProfileMiniComponent  -->
<g id="node57" class="node">
<title>UserProfileMiniComponent </title>
<polygon fill="#fb8072" stroke="black" points="1653.08,-252 1476.92,-252 1476.92,-216 1653.08,-216 1653.08,-252"/>
<text text-anchor="middle" x="1565" y="-229.8" font-family="Times,serif" font-size="14.00">UserProfileMiniComponent </text>
</g>
<!-- SharedComponentsModule&#45;&gt;UserProfileMiniComponent  -->
<g id="edge56" class="edge">
<title>SharedComponentsModule&#45;&gt;UserProfileMiniComponent </title>
<path fill="none" stroke="black" stroke-dasharray="5,2" d="M3235.32,-178C2888.45,-178 1594.52,-178 1594.52,-178 1594.52,-178 1594.52,-205.97 1594.52,-205.97"/>
<polygon fill="black" stroke="black" points="1591.02,-205.97 1594.52,-215.97 1598.02,-205.97 1591.02,-205.97"/>
</g>
<!-- UserVisitTrackerComponent  -->
<g id="node58" class="node">
<title>UserVisitTrackerComponent </title>
<polygon fill="#fb8072" stroke="black" points="1459,-252 1277,-252 1277,-216 1459,-216 1459,-252"/>
<text text-anchor="middle" x="1368" y="-229.8" font-family="Times,serif" font-size="14.00">UserVisitTrackerComponent </text>
</g>
<!-- SharedComponentsModule&#45;&gt;UserVisitTrackerComponent  -->
<g id="edge57" class="edge">
<title>SharedComponentsModule&#45;&gt;UserVisitTrackerComponent </title>
<path fill="none" stroke="black" stroke-dasharray="5,2" d="M3235.32,-176C2862.49,-176 1385.57,-176 1385.57,-176 1385.57,-176 1385.57,-205.97 1385.57,-205.97"/>
<polygon fill="black" stroke="black" points="1382.07,-205.97 1385.57,-215.97 1389.07,-205.97 1382.07,-205.97"/>
</g>
<!-- VideoStreamComponent  -->
<g id="node59" class="node">
<title>VideoStreamComponent </title>
<polygon fill="#fb8072" stroke="black" points="1259.2,-252 1100.8,-252 1100.8,-216 1259.2,-216 1259.2,-252"/>
<text text-anchor="middle" x="1180" y="-229.8" font-family="Times,serif" font-size="14.00">VideoStreamComponent </text>
</g>
<!-- SharedComponentsModule&#45;&gt;VideoStreamComponent  -->
<g id="edge58" class="edge">
<title>SharedComponentsModule&#45;&gt;VideoStreamComponent </title>
<path fill="none" stroke="black" stroke-dasharray="5,2" d="M3235.12,-175C2837.69,-175 1180,-175 1180,-175 1180,-175 1180,-205.98 1180,-205.98"/>
<polygon fill="black" stroke="black" points="1176.5,-205.98 1180,-215.98 1183.5,-205.98 1176.5,-205.98"/>
</g>
<!-- VotesDisplayComponent  -->
<g id="node60" class="node">
<title>VotesDisplayComponent </title>
<polygon fill="#fb8072" stroke="black" points="1082.54,-252 921.46,-252 921.46,-216 1082.54,-216 1082.54,-252"/>
<text text-anchor="middle" x="1002" y="-229.8" font-family="Times,serif" font-size="14.00">VotesDisplayComponent </text>
</g>
<!-- SharedComponentsModule&#45;&gt;VotesDisplayComponent  -->
<g id="edge59" class="edge">
<title>SharedComponentsModule&#45;&gt;VotesDisplayComponent </title>
<path fill="none" stroke="black" stroke-dasharray="5,2" d="M3235.13,-174C2825.96,-174 1076.53,-174 1076.53,-174 1076.53,-174 1076.53,-206 1076.53,-206"/>
<polygon fill="black" stroke="black" points="1073.03,-206 1076.53,-216 1080.03,-206 1073.03,-206"/>
</g>
<!-- WorkInProgressComponent  -->
<g id="node61" class="node">
<title>WorkInProgressComponent </title>
<polygon fill="#fb8072" stroke="black" points="903.08,-252 726.92,-252 726.92,-216 903.08,-216 903.08,-252"/>
<text text-anchor="middle" x="815" y="-229.8" font-family="Times,serif" font-size="14.00">WorkInProgressComponent </text>
</g>
<!-- SharedComponentsModule&#45;&gt;WorkInProgressComponent  -->
<g id="edge60" class="edge">
<title>SharedComponentsModule&#45;&gt;WorkInProgressComponent </title>
<path fill="none" stroke="black" stroke-dasharray="5,2" d="M3235.24,-173C2805.55,-173 888.35,-173 888.35,-173 888.35,-173 888.35,-205.7 888.35,-205.7"/>
<polygon fill="black" stroke="black" points="884.85,-205.7 888.35,-215.7 891.85,-205.7 884.85,-205.7"/>
</g>
<!-- HmsVideoModule -->
<g id="node35" class="node">
<title>HmsVideoModule</title>
<polygon fill="#8dd3c7" stroke="black" points="6303.2,-122 6300.2,-126 6279.2,-126 6276.2,-122 6182.8,-122 6182.8,-86 6303.2,-86 6303.2,-122"/>
<text text-anchor="middle" x="6243" y="-99.8" font-family="Times,serif" font-size="14.00">HmsVideoModule</text>
</g>
<!-- HmsVideoModule&#45;&gt;SharedComponentsModule -->
<g id="edge34" class="edge">
<title>HmsVideoModule&#45;&gt;SharedComponentsModule</title>
<path fill="none" stroke="black" d="M6243,-122.31C6243,-142.15 6243,-171 6243,-171 6243,-171 3414.72,-171 3414.72,-171"/>
<polygon fill="black" stroke="black" points="3414.72,-167.5 3404.72,-171 3414.72,-174.5 3414.72,-167.5"/>
</g>
</g>
</svg>
