<?xml version="1.0" encoding="UTF-8" standalone="no"?>
<!DOCTYPE svg PUBLIC "-//W3C//DTD SVG 1.1//EN"
 "http://www.w3.org/Graphics/SVG/1.1/DTD/svg11.dtd">
<!-- Generated by graphviz version 5.0.0 (20220707.1540)
 -->
<!-- Title: dependencies Pages: 1 -->
<svg width="6454pt" height="247pt"
 viewBox="0.00 0.00 6454.00 246.80" xmlns="http://www.w3.org/2000/svg" xmlns:xlink="http://www.w3.org/1999/xlink">
<g id="graph0" class="graph" transform="scale(1 1) rotate(0) translate(4 242.8)">
<title>dependencies</title>
<polygon fill="white" stroke="transparent" points="-4,4 -4,-242.8 6450,-242.8 6450,4 -4,4"/>
<text text-anchor="middle" x="3223" y="-8.2" font-family="sans-serif" font-size="14.00">dependencies</text>
<g id="clust1" class="cluster">
<title>cluster_SharedComponentsModule</title>
<polygon fill="none" stroke="black" stroke-dasharray="1,5" points="8,-32.8 8,-230.8 6438,-230.8 6438,-32.8 8,-32.8"/>
</g>
<g id="clust2" class="cluster">
<title>cluster_SharedComponentsModule_declarations</title>
<polygon fill="none" stroke="black" points="629,-40.8 629,-92.8 6430,-92.8 6430,-40.8 629,-40.8"/>
</g>
<g id="clust36" class="cluster">
<title>cluster_SharedComponentsModule_imports</title>
<polygon fill="none" stroke="black" points="16,-40.8 16,-92.8 621,-92.8 621,-40.8 16,-40.8"/>
</g>
<g id="clust37" class="cluster">
<title>cluster_SharedComponentsModule_exports</title>
<polygon fill="none" stroke="black" points="1317,-170.8 1317,-222.8 5279,-222.8 5279,-170.8 1317,-170.8"/>
</g>
<!-- BadgeComponent -->
<g id="node1" class="node">
<title>BadgeComponent</title>
<polygon fill="#ffffb3" stroke="black" points="6421.6,-84.8 6304.4,-84.8 6304.4,-48.8 6421.6,-48.8 6421.6,-84.8"/>
<text text-anchor="middle" x="6363" y="-62.6" font-family="Times,serif" font-size="14.00">BadgeComponent</text>
</g>
<!-- SharedComponentsModule -->
<g id="node34" class="node">
<title>SharedComponentsModule</title>
<polygon fill="#8dd3c7" stroke="black" points="3408.71,-149.8 3405.71,-153.8 3384.71,-153.8 3381.71,-149.8 3239.29,-149.8 3239.29,-113.8 3408.71,-113.8 3408.71,-149.8"/>
<text text-anchor="middle" x="3324" y="-127.6" font-family="Times,serif" font-size="14.00">SharedComponentsModule</text>
</g>
<!-- BadgeComponent&#45;&gt;SharedComponentsModule -->
<g id="edge1" class="edge">
<title>BadgeComponent&#45;&gt;SharedComponentsModule</title>
<path fill="none" stroke="black" d="M6363,-84.93C6363,-105.37 6363,-135.8 6363,-135.8 6363,-135.8 3418.85,-135.8 3418.85,-135.8"/>
<polygon fill="black" stroke="black" points="3418.85,-132.3 3408.85,-135.8 3418.85,-139.3 3418.85,-132.3"/>
</g>
<!-- CommunityBadgeComponent -->
<g id="node2" class="node">
<title>CommunityBadgeComponent</title>
<polygon fill="#ffffb3" stroke="black" points="6285.99,-84.8 6102.01,-84.8 6102.01,-48.8 6285.99,-48.8 6285.99,-84.8"/>
<text text-anchor="middle" x="6194" y="-62.6" font-family="Times,serif" font-size="14.00">CommunityBadgeComponent</text>
</g>
<!-- CommunityBadgeComponent&#45;&gt;SharedComponentsModule -->
<g id="edge2" class="edge">
<title>CommunityBadgeComponent&#45;&gt;SharedComponentsModule</title>
<path fill="none" stroke="black" d="M6194,-85.02C6194,-105.17 6194,-134.8 6194,-134.8 6194,-134.8 3418.73,-134.8 3418.73,-134.8"/>
<polygon fill="black" stroke="black" points="3418.73,-131.3 3408.73,-134.8 3418.73,-138.3 3418.73,-131.3"/>
</g>
<!-- CookieConsentComponent -->
<g id="node3" class="node">
<title>CookieConsentComponent</title>
<polygon fill="#ffffb3" stroke="black" points="6083.66,-84.8 5916.34,-84.8 5916.34,-48.8 6083.66,-48.8 6083.66,-84.8"/>
<text text-anchor="middle" x="6000" y="-62.6" font-family="Times,serif" font-size="14.00">CookieConsentComponent</text>
</g>
<!-- CookieConsentComponent&#45;&gt;SharedComponentsModule -->
<g id="edge3" class="edge">
<title>CookieConsentComponent&#45;&gt;SharedComponentsModule</title>
<path fill="none" stroke="black" d="M6000,-85.11C6000,-104.95 6000,-133.8 6000,-133.8 6000,-133.8 3418.88,-133.8 3418.88,-133.8"/>
<polygon fill="black" stroke="black" points="3418.88,-130.3 3408.88,-133.8 3418.88,-137.3 3418.88,-130.3"/>
</g>
<!-- DataFormFillComponent -->
<g id="node4" class="node">
<title>DataFormFillComponent</title>
<polygon fill="#ffffb3" stroke="black" points="5897.55,-84.8 5740.45,-84.8 5740.45,-48.8 5897.55,-48.8 5897.55,-84.8"/>
<text text-anchor="middle" x="5819" y="-62.6" font-family="Times,serif" font-size="14.00">DataFormFillComponent</text>
</g>
<!-- DataFormFillComponent&#45;&gt;SharedComponentsModule -->
<g id="edge4" class="edge">
<title>DataFormFillComponent&#45;&gt;SharedComponentsModule</title>
<path fill="none" stroke="black" d="M5819,-84.91C5819,-104.14 5819,-131.8 5819,-131.8 5819,-131.8 3418.8,-131.8 3418.8,-131.8"/>
<polygon fill="black" stroke="black" points="3418.8,-128.3 3408.8,-131.8 3418.8,-135.3 3418.8,-128.3"/>
</g>
<!-- DiscussionPersonalChatComponent -->
<g id="node5" class="node">
<title>DiscussionPersonalChatComponent</title>
<polygon fill="#ffffb3" stroke="black" points="5722.94,-84.8 5505.06,-84.8 5505.06,-48.8 5722.94,-48.8 5722.94,-84.8"/>
<text text-anchor="middle" x="5614" y="-62.6" font-family="Times,serif" font-size="14.00">DiscussionPersonalChatComponent</text>
</g>
<!-- DiscussionPersonalChatComponent&#45;&gt;SharedComponentsModule -->
<g id="edge5" class="edge">
<title>DiscussionPersonalChatComponent&#45;&gt;SharedComponentsModule</title>
<path fill="none" stroke="black" d="M5614,-84.97C5614,-103.89 5614,-130.8 5614,-130.8 5614,-130.8 3418.9,-130.8 3418.9,-130.8"/>
<polygon fill="black" stroke="black" points="3418.9,-127.3 3408.9,-130.8 3418.9,-134.3 3418.9,-127.3"/>
</g>
<!-- FlagsDisplayComponent -->
<g id="node6" class="node">
<title>FlagsDisplayComponent</title>
<polygon fill="#ffffb3" stroke="black" points="5487.72,-84.8 5332.28,-84.8 5332.28,-48.8 5487.72,-48.8 5487.72,-84.8"/>
<text text-anchor="middle" x="5410" y="-62.6" font-family="Times,serif" font-size="14.00">FlagsDisplayComponent</text>
</g>
<!-- FlagsDisplayComponent&#45;&gt;SharedComponentsModule -->
<g id="edge6" class="edge">
<title>FlagsDisplayComponent&#45;&gt;SharedComponentsModule</title>
<path fill="none" stroke="black" d="M5410,-85.02C5410,-103.63 5410,-129.8 5410,-129.8 5410,-129.8 3418.68,-129.8 3418.68,-129.8"/>
<polygon fill="black" stroke="black" points="3418.68,-126.3 3408.68,-129.8 3418.68,-133.3 3418.68,-126.3"/>
</g>
<!-- FormResponsesComponent -->
<g id="node7" class="node">
<title>FormResponsesComponent</title>
<polygon fill="#ffffb3" stroke="black" points="5314.28,-84.8 5143.72,-84.8 5143.72,-48.8 5314.28,-48.8 5314.28,-84.8"/>
<text text-anchor="middle" x="5229" y="-62.6" font-family="Times,serif" font-size="14.00">FormResponsesComponent</text>
</g>
<!-- FormResponsesComponent&#45;&gt;SharedComponentsModule -->
<g id="edge7" class="edge">
<title>FormResponsesComponent&#45;&gt;SharedComponentsModule</title>
<path fill="none" stroke="black" d="M5147.16,-85.07C5147.16,-103.36 5147.16,-128.8 5147.16,-128.8 5147.16,-128.8 3418.88,-128.8 3418.88,-128.8"/>
<polygon fill="black" stroke="black" points="3418.88,-125.3 3408.88,-128.8 3418.88,-132.3 3418.88,-125.3"/>
</g>
<!-- MessageComponent -->
<g id="node8" class="node">
<title>MessageComponent</title>
<polygon fill="#ffffb3" stroke="black" points="5125.32,-84.8 4994.68,-84.8 4994.68,-48.8 5125.32,-48.8 5125.32,-84.8"/>
<text text-anchor="middle" x="5060" y="-62.6" font-family="Times,serif" font-size="14.00">MessageComponent</text>
</g>
<!-- MessageComponent&#45;&gt;SharedComponentsModule -->
<g id="edge8" class="edge">
<title>MessageComponent&#45;&gt;SharedComponentsModule</title>
<path fill="none" stroke="black" d="M5060,-84.8C5060,-102.48 5060,-126.8 5060,-126.8 5060,-126.8 3418.61,-126.8 3418.61,-126.8"/>
<polygon fill="black" stroke="black" points="3418.61,-123.3 3408.61,-126.8 3418.61,-130.3 3418.61,-123.3"/>
</g>
<!-- MessagesComponent -->
<g id="node9" class="node">
<title>MessagesComponent</title>
<polygon fill="#ffffb3" stroke="black" points="4976.77,-84.8 4841.23,-84.8 4841.23,-48.8 4976.77,-48.8 4976.77,-84.8"/>
<text text-anchor="middle" x="4909" y="-62.6" font-family="Times,serif" font-size="14.00">MessagesComponent</text>
</g>
<!-- MessagesComponent&#45;&gt;SharedComponentsModule -->
<g id="edge9" class="edge">
<title>MessagesComponent&#45;&gt;SharedComponentsModule</title>
<path fill="none" stroke="black" d="M4884.35,-84.82C4884.35,-102.17 4884.35,-125.8 4884.35,-125.8 4884.35,-125.8 3418.72,-125.8 3418.72,-125.8"/>
<polygon fill="black" stroke="black" points="3418.72,-122.3 3408.72,-125.8 3418.72,-129.3 3418.72,-122.3"/>
</g>
<!-- MessagesListComponent -->
<g id="node10" class="node">
<title>MessagesListComponent</title>
<polygon fill="#ffffb3" stroke="black" points="4822.55,-84.8 4665.45,-84.8 4665.45,-48.8 4822.55,-48.8 4822.55,-84.8"/>
<text text-anchor="middle" x="4744" y="-62.6" font-family="Times,serif" font-size="14.00">MessagesListComponent</text>
</g>
<!-- MessagesListComponent&#45;&gt;SharedComponentsModule -->
<g id="edge10" class="edge">
<title>MessagesListComponent&#45;&gt;SharedComponentsModule</title>
<path fill="none" stroke="black" d="M4701.88,-84.83C4701.88,-101.86 4701.88,-124.8 4701.88,-124.8 4701.88,-124.8 3418.63,-124.8 3418.63,-124.8"/>
<polygon fill="black" stroke="black" points="3418.63,-121.3 3408.63,-124.8 3418.63,-128.3 3418.63,-121.3"/>
</g>
<!-- NewDataFormComponent -->
<g id="node11" class="node">
<title>NewDataFormComponent</title>
<polygon fill="#ffffb3" stroke="black" points="4647.03,-84.8 4482.97,-84.8 4482.97,-48.8 4647.03,-48.8 4647.03,-84.8"/>
<text text-anchor="middle" x="4565" y="-62.6" font-family="Times,serif" font-size="14.00">NewDataFormComponent</text>
</g>
<!-- NewDataFormComponent&#45;&gt;SharedComponentsModule -->
<g id="edge11" class="edge">
<title>NewDataFormComponent&#45;&gt;SharedComponentsModule</title>
<path fill="none" stroke="black" d="M4521.1,-84.83C4521.1,-101.2 4521.1,-122.8 4521.1,-122.8 4521.1,-122.8 3418.65,-122.8 3418.65,-122.8"/>
<polygon fill="black" stroke="black" points="3418.65,-119.3 3408.65,-122.8 3418.65,-126.3 3418.65,-119.3"/>
</g>
<!-- PollCreateFormComponent -->
<g id="node12" class="node">
<title>PollCreateFormComponent</title>
<polygon fill="#ffffb3" stroke="black" points="4464.27,-84.8 4293.73,-84.8 4293.73,-48.8 4464.27,-48.8 4464.27,-84.8"/>
<text text-anchor="middle" x="4379" y="-62.6" font-family="Times,serif" font-size="14.00">PollCreateFormComponent</text>
</g>
<!-- PollCreateFormComponent&#45;&gt;SharedComponentsModule -->
<g id="edge12" class="edge">
<title>PollCreateFormComponent&#45;&gt;SharedComponentsModule</title>
<path fill="none" stroke="black" d="M4306.99,-84.81C4306.99,-100.85 4306.99,-121.8 4306.99,-121.8 4306.99,-121.8 3418.66,-121.8 3418.66,-121.8"/>
<polygon fill="black" stroke="black" points="3418.66,-118.3 3408.66,-121.8 3418.66,-125.3 3418.66,-118.3"/>
</g>
<!-- PollFormComponent -->
<g id="node13" class="node">
<title>PollFormComponent</title>
<polygon fill="#ffffb3" stroke="black" points="4275.23,-84.8 4140.77,-84.8 4140.77,-48.8 4275.23,-48.8 4275.23,-84.8"/>
<text text-anchor="middle" x="4208" y="-62.6" font-family="Times,serif" font-size="14.00">PollFormComponent</text>
</g>
<!-- PollFormComponent&#45;&gt;SharedComponentsModule -->
<g id="edge13" class="edge">
<title>PollFormComponent&#45;&gt;SharedComponentsModule</title>
<path fill="none" stroke="black" d="M4152.39,-85.08C4152.39,-100.75 4152.39,-120.8 4152.39,-120.8 4152.39,-120.8 3418.76,-120.8 3418.76,-120.8"/>
<polygon fill="black" stroke="black" points="3418.76,-117.3 3408.76,-120.8 3418.76,-124.3 3418.76,-117.3"/>
</g>
<!-- PollListItemComponent -->
<g id="node14" class="node">
<title>PollListItemComponent</title>
<polygon fill="#ffffb3" stroke="black" points="4122.83,-84.8 3971.17,-84.8 3971.17,-48.8 4122.83,-48.8 4122.83,-84.8"/>
<text text-anchor="middle" x="4047" y="-62.6" font-family="Times,serif" font-size="14.00">PollListItemComponent</text>
</g>
<!-- PollListItemComponent&#45;&gt;SharedComponentsModule -->
<g id="edge14" class="edge">
<title>PollListItemComponent&#45;&gt;SharedComponentsModule</title>
<path fill="none" stroke="black" d="M4072.22,-85.04C4072.22,-100.37 4072.22,-119.8 4072.22,-119.8 4072.22,-119.8 3418.74,-119.8 3418.74,-119.8"/>
<polygon fill="black" stroke="black" points="3418.74,-116.3 3408.74,-119.8 3418.74,-123.3 3418.74,-116.3"/>
</g>
<!-- PollResultComponent -->
<g id="node15" class="node">
<title>PollResultComponent</title>
<polygon fill="#ffffb3" stroke="black" points="3952.68,-84.8 3813.32,-84.8 3813.32,-48.8 3952.68,-48.8 3952.68,-84.8"/>
<text text-anchor="middle" x="3883" y="-62.6" font-family="Times,serif" font-size="14.00">PollResultComponent</text>
</g>
<!-- PollResultComponent&#45;&gt;SharedComponentsModule -->
<g id="edge15" class="edge">
<title>PollResultComponent&#45;&gt;SharedComponentsModule</title>
<path fill="none" stroke="black" d="M3858.99,-84.92C3858.99,-99.58 3858.99,-117.8 3858.99,-117.8 3858.99,-117.8 3418.77,-117.8 3418.77,-117.8"/>
<polygon fill="black" stroke="black" points="3418.77,-114.3 3408.77,-117.8 3418.77,-121.3 3418.77,-114.3"/>
</g>
<!-- PollsComponent -->
<g id="node16" class="node">
<title>PollsComponent</title>
<polygon fill="#ffffb3" stroke="black" points="3794.85,-84.8 3685.15,-84.8 3685.15,-48.8 3794.85,-48.8 3794.85,-84.8"/>
<text text-anchor="middle" x="3740" y="-62.6" font-family="Times,serif" font-size="14.00">PollsComponent</text>
</g>
<!-- PollsComponent&#45;&gt;SharedComponentsModule -->
<g id="edge16" class="edge">
<title>PollsComponent&#45;&gt;SharedComponentsModule</title>
<path fill="none" stroke="black" d="M3739.17,-84.85C3739.17,-99.17 3739.17,-116.8 3739.17,-116.8 3739.17,-116.8 3418.77,-116.8 3418.77,-116.8"/>
<polygon fill="black" stroke="black" points="3418.77,-113.3 3408.77,-116.8 3418.77,-120.3 3418.77,-113.3"/>
</g>
<!-- QnaComponent -->
<g id="node17" class="node">
<title>QnaComponent</title>
<polygon fill="#ffffb3" stroke="black" points="3667.16,-84.8 3562.84,-84.8 3562.84,-48.8 3667.16,-48.8 3667.16,-84.8"/>
<text text-anchor="middle" x="3615" y="-62.6" font-family="Times,serif" font-size="14.00">QnaComponent</text>
</g>
<!-- QnaComponent&#45;&gt;SharedComponentsModule -->
<g id="edge17" class="edge">
<title>QnaComponent&#45;&gt;SharedComponentsModule</title>
<path fill="none" stroke="black" d="M3584.63,-85.05C3584.63,-98.98 3584.63,-115.8 3584.63,-115.8 3584.63,-115.8 3418.62,-115.8 3418.62,-115.8"/>
<polygon fill="black" stroke="black" points="3418.62,-112.3 3408.62,-115.8 3418.62,-119.3 3418.62,-112.3"/>
</g>
<!-- QnaListComponent -->
<g id="node18" class="node">
<title>QnaListComponent</title>
<polygon fill="#ffffb3" stroke="black" points="3544.44,-84.8 3417.56,-84.8 3417.56,-48.8 3544.44,-48.8 3544.44,-84.8"/>
<text text-anchor="middle" x="3481" y="-62.6" font-family="Times,serif" font-size="14.00">QnaListComponent</text>
</g>
<!-- QnaListComponent&#45;&gt;SharedComponentsModule -->
<g id="edge18" class="edge">
<title>QnaListComponent&#45;&gt;SharedComponentsModule</title>
<path fill="none" stroke="black" d="M3417.68,-66.8C3409.73,-66.8 3404.32,-66.8 3404.32,-66.8 3404.32,-66.8 3404.32,-103.69 3404.32,-103.69"/>
<polygon fill="black" stroke="black" points="3400.82,-103.69 3404.32,-113.69 3407.82,-103.69 3400.82,-103.69"/>
</g>
<!-- QnaListItemComponent -->
<g id="node19" class="node">
<title>QnaListItemComponent</title>
<polygon fill="#ffffb3" stroke="black" points="3400.09,-84.8 3247.91,-84.8 3247.91,-48.8 3400.09,-48.8 3400.09,-84.8"/>
<text text-anchor="middle" x="3324" y="-62.6" font-family="Times,serif" font-size="14.00">QnaListItemComponent</text>
</g>
<!-- QnaListItemComponent&#45;&gt;SharedComponentsModule -->
<g id="edge19" class="edge">
<title>QnaListItemComponent&#45;&gt;SharedComponentsModule</title>
<path fill="none" stroke="black" d="M3324,-84.91C3324,-84.91 3324,-103.79 3324,-103.79"/>
<polygon fill="black" stroke="black" points="3320.5,-103.79 3324,-113.79 3327.5,-103.79 3320.5,-103.79"/>
</g>
<!-- ResponsesTableComponent -->
<g id="node20" class="node">
<title>ResponsesTableComponent</title>
<polygon fill="#ffffb3" stroke="black" points="3230.31,-84.8 3057.69,-84.8 3057.69,-48.8 3230.31,-48.8 3230.31,-84.8"/>
<text text-anchor="middle" x="3144" y="-62.6" font-family="Times,serif" font-size="14.00">ResponsesTableComponent</text>
</g>
<!-- ResponsesTableComponent&#45;&gt;SharedComponentsModule -->
<g id="edge20" class="edge">
<title>ResponsesTableComponent&#45;&gt;SharedComponentsModule</title>
<path fill="none" stroke="black" d="M3230.23,-66.8C3238.38,-66.8 3243.68,-66.8 3243.68,-66.8 3243.68,-66.8 3243.68,-103.69 3243.68,-103.69"/>
<polygon fill="black" stroke="black" points="3240.18,-103.69 3243.68,-113.69 3247.18,-103.69 3240.18,-103.69"/>
</g>
<!-- ShareButtonComponent -->
<g id="node21" class="node">
<title>ShareButtonComponent</title>
<polygon fill="#ffffb3" stroke="black" points="3039.82,-84.8 2888.18,-84.8 2888.18,-48.8 3039.82,-48.8 3039.82,-84.8"/>
<text text-anchor="middle" x="2964" y="-62.6" font-family="Times,serif" font-size="14.00">ShareButtonComponent</text>
</g>
<!-- ShareButtonComponent&#45;&gt;SharedComponentsModule -->
<g id="edge21" class="edge">
<title>ShareButtonComponent&#45;&gt;SharedComponentsModule</title>
<path fill="none" stroke="black" d="M3024.44,-85.05C3024.44,-98.98 3024.44,-115.8 3024.44,-115.8 3024.44,-115.8 3229.36,-115.8 3229.36,-115.8"/>
<polygon fill="black" stroke="black" points="3229.36,-119.3 3239.36,-115.8 3229.36,-112.3 3229.36,-119.3"/>
</g>
<!-- TagComponent -->
<g id="node22" class="node">
<title>TagComponent</title>
<polygon fill="#ffffb3" stroke="black" points="2870.6,-84.8 2767.4,-84.8 2767.4,-48.8 2870.6,-48.8 2870.6,-84.8"/>
<text text-anchor="middle" x="2819" y="-62.6" font-family="Times,serif" font-size="14.00">TagComponent</text>
</g>
<!-- TagComponent&#45;&gt;SharedComponentsModule -->
<g id="edge22" class="edge">
<title>TagComponent&#45;&gt;SharedComponentsModule</title>
<path fill="none" stroke="black" d="M2819,-84.85C2819,-99.17 2819,-116.8 2819,-116.8 2819,-116.8 3229.19,-116.8 3229.19,-116.8"/>
<polygon fill="black" stroke="black" points="3229.19,-120.3 3239.19,-116.8 3229.19,-113.3 3229.19,-120.3"/>
</g>
<!-- UserDetailsCellComponent -->
<g id="node23" class="node">
<title>UserDetailsCellComponent</title>
<polygon fill="#ffffb3" stroke="black" points="2749.25,-84.8 2578.75,-84.8 2578.75,-48.8 2749.25,-48.8 2749.25,-84.8"/>
<text text-anchor="middle" x="2664" y="-62.6" font-family="Times,serif" font-size="14.00">UserDetailsCellComponent</text>
</g>
<!-- UserDetailsCellComponent&#45;&gt;SharedComponentsModule -->
<g id="edge23" class="edge">
<title>UserDetailsCellComponent&#45;&gt;SharedComponentsModule</title>
<path fill="none" stroke="black" d="M2734.4,-84.92C2734.4,-99.58 2734.4,-117.8 2734.4,-117.8 2734.4,-117.8 3229.21,-117.8 3229.21,-117.8"/>
<polygon fill="black" stroke="black" points="3229.21,-121.3 3239.21,-117.8 3229.21,-114.3 3229.21,-121.3"/>
</g>
<!-- UserLiveStatusComponent -->
<g id="node24" class="node">
<title>UserLiveStatusComponent</title>
<polygon fill="#ffffb3" stroke="black" points="2560.65,-84.8 2393.35,-84.8 2393.35,-48.8 2560.65,-48.8 2560.65,-84.8"/>
<text text-anchor="middle" x="2477" y="-62.6" font-family="Times,serif" font-size="14.00">UserLiveStatusComponent</text>
</g>
<!-- UserLiveStatusComponent&#45;&gt;SharedComponentsModule -->
<g id="edge24" class="edge">
<title>UserLiveStatusComponent&#45;&gt;SharedComponentsModule</title>
<path fill="none" stroke="black" d="M2528.76,-85.04C2528.76,-100.37 2528.76,-119.8 2528.76,-119.8 2528.76,-119.8 3229.27,-119.8 3229.27,-119.8"/>
<polygon fill="black" stroke="black" points="3229.27,-123.3 3239.27,-119.8 3229.27,-116.3 3229.27,-123.3"/>
</g>
<!-- UserObjectVisitPixelComponent -->
<g id="node25" class="node">
<title>UserObjectVisitPixelComponent</title>
<polygon fill="#ffffb3" stroke="black" points="2375.59,-84.8 2174.41,-84.8 2174.41,-48.8 2375.59,-48.8 2375.59,-84.8"/>
<text text-anchor="middle" x="2275" y="-62.6" font-family="Times,serif" font-size="14.00">UserObjectVisitPixelComponent</text>
</g>
<!-- UserObjectVisitPixelComponent&#45;&gt;SharedComponentsModule -->
<g id="edge25" class="edge">
<title>UserObjectVisitPixelComponent&#45;&gt;SharedComponentsModule</title>
<path fill="none" stroke="black" d="M2322.46,-85.08C2322.46,-100.75 2322.46,-120.8 2322.46,-120.8 2322.46,-120.8 3229.04,-120.8 3229.04,-120.8"/>
<polygon fill="black" stroke="black" points="3229.04,-124.3 3239.04,-120.8 3229.04,-117.3 3229.04,-124.3"/>
</g>
<!-- UserPersonalChatMessageComponent -->
<g id="node26" class="node">
<title>UserPersonalChatMessageComponent</title>
<polygon fill="#ffffb3" stroke="black" points="2156.91,-84.8 1925.09,-84.8 1925.09,-48.8 2156.91,-48.8 2156.91,-84.8"/>
<text text-anchor="middle" x="2041" y="-62.6" font-family="Times,serif" font-size="14.00">UserPersonalChatMessageComponent</text>
</g>
<!-- UserPersonalChatMessageComponent&#45;&gt;SharedComponentsModule -->
<g id="edge26" class="edge">
<title>UserPersonalChatMessageComponent&#45;&gt;SharedComponentsModule</title>
<path fill="none" stroke="black" d="M2115.7,-84.81C2115.7,-100.85 2115.7,-121.8 2115.7,-121.8 2115.7,-121.8 3229.03,-121.8 3229.03,-121.8"/>
<polygon fill="black" stroke="black" points="3229.03,-125.3 3239.03,-121.8 3229.03,-118.3 3229.03,-125.3"/>
</g>
<!-- UserProfileHorizontalComponent -->
<g id="node27" class="node">
<title>UserProfileHorizontalComponent</title>
<polygon fill="#ffffb3" stroke="black" points="1906.74,-84.8 1701.26,-84.8 1701.26,-48.8 1906.74,-48.8 1906.74,-84.8"/>
<text text-anchor="middle" x="1804" y="-62.6" font-family="Times,serif" font-size="14.00">UserProfileHorizontalComponent</text>
</g>
<!-- UserProfileHorizontalComponent&#45;&gt;SharedComponentsModule -->
<g id="edge27" class="edge">
<title>UserProfileHorizontalComponent&#45;&gt;SharedComponentsModule</title>
<path fill="none" stroke="black" d="M1890.93,-84.83C1890.93,-101.2 1890.93,-122.8 1890.93,-122.8 1890.93,-122.8 3229.18,-122.8 3229.18,-122.8"/>
<polygon fill="black" stroke="black" points="3229.18,-126.3 3239.18,-122.8 3229.18,-119.3 3229.18,-126.3"/>
</g>
<!-- UserProfileMiniComponent -->
<g id="node28" class="node">
<title>UserProfileMiniComponent</title>
<polygon fill="#ffffb3" stroke="black" points="1683.6,-84.8 1510.4,-84.8 1510.4,-48.8 1683.6,-48.8 1683.6,-84.8"/>
<text text-anchor="middle" x="1597" y="-62.6" font-family="Times,serif" font-size="14.00">UserProfileMiniComponent</text>
</g>
<!-- UserProfileMiniComponent&#45;&gt;SharedComponentsModule -->
<g id="edge28" class="edge">
<title>UserProfileMiniComponent&#45;&gt;SharedComponentsModule</title>
<path fill="none" stroke="black" d="M1573.16,-84.83C1573.16,-101.86 1573.16,-124.8 1573.16,-124.8 1573.16,-124.8 3229.26,-124.8 3229.26,-124.8"/>
<polygon fill="black" stroke="black" points="3229.26,-128.3 3239.26,-124.8 3229.26,-121.3 3229.26,-128.3"/>
</g>
<!-- UserVisitTrackerComponent -->
<g id="node29" class="node">
<title>UserVisitTrackerComponent</title>
<polygon fill="#ffffb3" stroke="black" points="1492.01,-84.8 1313.99,-84.8 1313.99,-48.8 1492.01,-48.8 1492.01,-84.8"/>
<text text-anchor="middle" x="1403" y="-62.6" font-family="Times,serif" font-size="14.00">UserVisitTrackerComponent</text>
</g>
<!-- UserVisitTrackerComponent&#45;&gt;SharedComponentsModule -->
<g id="edge29" class="edge">
<title>UserVisitTrackerComponent&#45;&gt;SharedComponentsModule</title>
<path fill="none" stroke="black" d="M1408.48,-84.82C1408.48,-102.17 1408.48,-125.8 1408.48,-125.8 1408.48,-125.8 3229.22,-125.8 3229.22,-125.8"/>
<polygon fill="black" stroke="black" points="3229.22,-129.3 3239.22,-125.8 3229.22,-122.3 3229.22,-129.3"/>
</g>
<!-- VideoStreamComponent -->
<g id="node30" class="node">
<title>VideoStreamComponent</title>
<polygon fill="#ffffb3" stroke="black" points="1295.7,-84.8 1140.3,-84.8 1140.3,-48.8 1295.7,-48.8 1295.7,-84.8"/>
<text text-anchor="middle" x="1218" y="-62.6" font-family="Times,serif" font-size="14.00">VideoStreamComponent</text>
</g>
<!-- VideoStreamComponent&#45;&gt;SharedComponentsModule -->
<g id="edge30" class="edge">
<title>VideoStreamComponent&#45;&gt;SharedComponentsModule</title>
<path fill="none" stroke="black" d="M1218,-84.8C1218,-102.48 1218,-126.8 1218,-126.8 1218,-126.8 3229.16,-126.8 3229.16,-126.8"/>
<polygon fill="black" stroke="black" points="3229.16,-130.3 3239.16,-126.8 3229.16,-123.3 3229.16,-130.3"/>
</g>
<!-- VotersComponent -->
<g id="node31" class="node">
<title>VotersComponent</title>
<polygon fill="#ffffb3" stroke="black" points="1122.16,-84.8 1003.84,-84.8 1003.84,-48.8 1122.16,-48.8 1122.16,-84.8"/>
<text text-anchor="middle" x="1063" y="-62.6" font-family="Times,serif" font-size="14.00">VotersComponent</text>
</g>
<!-- VotersComponent&#45;&gt;SharedComponentsModule -->
<g id="edge31" class="edge">
<title>VotersComponent&#45;&gt;SharedComponentsModule</title>
<path fill="none" stroke="black" d="M1063,-85.07C1063,-103.36 1063,-128.8 1063,-128.8 1063,-128.8 3229.15,-128.8 3229.15,-128.8"/>
<polygon fill="black" stroke="black" points="3229.15,-132.3 3239.15,-128.8 3229.15,-125.3 3229.15,-132.3"/>
</g>
<!-- VotesDisplayComponent -->
<g id="node32" class="node">
<title>VotesDisplayComponent</title>
<polygon fill="#ffffb3" stroke="black" points="985.55,-84.8 828.45,-84.8 828.45,-48.8 985.55,-48.8 985.55,-84.8"/>
<text text-anchor="middle" x="907" y="-62.6" font-family="Times,serif" font-size="14.00">VotesDisplayComponent</text>
</g>
<!-- VotesDisplayComponent&#45;&gt;SharedComponentsModule -->
<g id="edge32" class="edge">
<title>VotesDisplayComponent&#45;&gt;SharedComponentsModule</title>
<path fill="none" stroke="black" d="M907,-85.02C907,-103.63 907,-129.8 907,-129.8 907,-129.8 3229.39,-129.8 3229.39,-129.8"/>
<polygon fill="black" stroke="black" points="3229.39,-133.3 3239.39,-129.8 3229.39,-126.3 3229.39,-133.3"/>
</g>
<!-- WorkInProgressComponent -->
<g id="node33" class="node">
<title>WorkInProgressComponent</title>
<polygon fill="#ffffb3" stroke="black" points="810.59,-84.8 637.41,-84.8 637.41,-48.8 810.59,-48.8 810.59,-84.8"/>
<text text-anchor="middle" x="724" y="-62.6" font-family="Times,serif" font-size="14.00">WorkInProgressComponent</text>
</g>
<!-- WorkInProgressComponent&#45;&gt;SharedComponentsModule -->
<g id="edge33" class="edge">
<title>WorkInProgressComponent&#45;&gt;SharedComponentsModule</title>
<path fill="none" stroke="black" d="M724,-84.97C724,-103.89 724,-130.8 724,-130.8 724,-130.8 3229.34,-130.8 3229.34,-130.8"/>
<polygon fill="black" stroke="black" points="3229.34,-134.3 3239.34,-130.8 3229.34,-127.3 3229.34,-134.3"/>
</g>
<!-- BadgeComponent  -->
<g id="node39" class="node">
<title>BadgeComponent </title>
<polygon fill="#fb8072" stroke="black" points="5271.1,-214.8 5150.9,-214.8 5150.9,-178.8 5271.1,-178.8 5271.1,-214.8"/>
<text text-anchor="middle" x="5211" y="-192.6" font-family="Times,serif" font-size="14.00">BadgeComponent </text>
</g>
<!-- SharedComponentsModule&#45;&gt;BadgeComponent  -->
<g id="edge38" class="edge">
<title>SharedComponentsModule&#45;&gt;BadgeComponent </title>
<path fill="none" stroke="black" stroke-dasharray="5,2" d="M3408.75,-137.8C3775.92,-137.8 5211,-137.8 5211,-137.8 5211,-137.8 5211,-168.78 5211,-168.78"/>
<polygon fill="black" stroke="black" points="5207.5,-168.78 5211,-178.78 5214.5,-168.78 5207.5,-168.78"/>
</g>
<!-- CommunityBadgeComponent  -->
<g id="node40" class="node">
<title>CommunityBadgeComponent </title>
<polygon fill="#fb8072" stroke="black" points="5132.99,-214.8 4945.01,-214.8 4945.01,-178.8 5132.99,-178.8 5132.99,-214.8"/>
<text text-anchor="middle" x="5039" y="-192.6" font-family="Times,serif" font-size="14.00">CommunityBadgeComponent </text>
</g>
<!-- SharedComponentsModule&#45;&gt;CommunityBadgeComponent  -->
<g id="edge39" class="edge">
<title>SharedComponentsModule&#45;&gt;CommunityBadgeComponent </title>
<path fill="none" stroke="black" stroke-dasharray="5,2" d="M3408.85,-138.8C3744.48,-138.8 4961.07,-138.8 4961.07,-138.8 4961.07,-138.8 4961.07,-168.77 4961.07,-168.77"/>
<polygon fill="black" stroke="black" points="4957.57,-168.77 4961.07,-178.77 4964.57,-168.77 4957.57,-168.77"/>
</g>
<!-- CookieConsentComponent  -->
<g id="node41" class="node">
<title>CookieConsentComponent </title>
<polygon fill="#fb8072" stroke="black" points="4927.66,-214.8 4756.34,-214.8 4756.34,-178.8 4927.66,-178.8 4927.66,-214.8"/>
<text text-anchor="middle" x="4842" y="-192.6" font-family="Times,serif" font-size="14.00">CookieConsentComponent </text>
</g>
<!-- SharedComponentsModule&#45;&gt;CookieConsentComponent  -->
<g id="edge40" class="edge">
<title>SharedComponentsModule&#45;&gt;CookieConsentComponent </title>
<path fill="none" stroke="black" stroke-dasharray="5,2" d="M3408.86,-139.8C3721.31,-139.8 4789.6,-139.8 4789.6,-139.8 4789.6,-139.8 4789.6,-168.76 4789.6,-168.76"/>
<polygon fill="black" stroke="black" points="4786.1,-168.76 4789.6,-178.76 4793.1,-168.76 4786.1,-168.76"/>
</g>
<!-- DataFormFillComponent  -->
<g id="node42" class="node">
<title>DataFormFillComponent </title>
<polygon fill="#fb8072" stroke="black" points="4738.55,-214.8 4577.45,-214.8 4577.45,-178.8 4738.55,-178.8 4738.55,-214.8"/>
<text text-anchor="middle" x="4658" y="-192.6" font-family="Times,serif" font-size="14.00">DataFormFillComponent </text>
</g>
<!-- SharedComponentsModule&#45;&gt;DataFormFillComponent  -->
<g id="edge41" class="edge">
<title>SharedComponentsModule&#45;&gt;DataFormFillComponent </title>
<path fill="none" stroke="black" stroke-dasharray="5,2" d="M3409.03,-140.8C3696.22,-140.8 4612.37,-140.8 4612.37,-140.8 4612.37,-140.8 4612.37,-168.77 4612.37,-168.77"/>
<polygon fill="black" stroke="black" points="4608.87,-168.77 4612.37,-178.77 4615.87,-168.77 4608.87,-168.77"/>
</g>
<!-- DiscussionPersonalChatComponent  -->
<g id="node43" class="node">
<title>DiscussionPersonalChatComponent </title>
<polygon fill="#fb8072" stroke="black" points="4559.43,-214.8 4338.57,-214.8 4338.57,-178.8 4559.43,-178.8 4559.43,-214.8"/>
<text text-anchor="middle" x="4449" y="-192.6" font-family="Times,serif" font-size="14.00">DiscussionPersonalChatComponent </text>
</g>
<!-- SharedComponentsModule&#45;&gt;DiscussionPersonalChatComponent  -->
<g id="edge42" class="edge">
<title>SharedComponentsModule&#45;&gt;DiscussionPersonalChatComponent </title>
<path fill="none" stroke="black" stroke-dasharray="5,2" d="M3409,-142.8C3663.42,-142.8 4401.46,-142.8 4401.46,-142.8 4401.46,-142.8 4401.46,-168.52 4401.46,-168.52"/>
<polygon fill="black" stroke="black" points="4397.96,-168.52 4401.46,-178.52 4404.96,-168.52 4397.96,-168.52"/>
</g>
<!-- FlagsDisplayComponent  -->
<g id="node44" class="node">
<title>FlagsDisplayComponent </title>
<polygon fill="#fb8072" stroke="black" points="4320.22,-214.8 4161.78,-214.8 4161.78,-178.8 4320.22,-178.8 4320.22,-214.8"/>
<text text-anchor="middle" x="4241" y="-192.6" font-family="Times,serif" font-size="14.00">FlagsDisplayComponent </text>
</g>
<!-- SharedComponentsModule&#45;&gt;FlagsDisplayComponent  -->
<g id="edge43" class="edge">
<title>SharedComponentsModule&#45;&gt;FlagsDisplayComponent </title>
<path fill="none" stroke="black" stroke-dasharray="5,2" d="M3408.95,-143.8C3632.2,-143.8 4218.38,-143.8 4218.38,-143.8 4218.38,-143.8 4218.38,-168.56 4218.38,-168.56"/>
<polygon fill="black" stroke="black" points="4214.88,-168.56 4218.38,-178.56 4221.88,-168.56 4214.88,-168.56"/>
</g>
<!-- FormResponsesComponent  -->
<g id="node45" class="node">
<title>FormResponsesComponent </title>
<polygon fill="#fb8072" stroke="black" points="4143.28,-214.8 3968.72,-214.8 3968.72,-178.8 4143.28,-178.8 4143.28,-214.8"/>
<text text-anchor="middle" x="4056" y="-192.6" font-family="Times,serif" font-size="14.00">FormResponsesComponent </text>
</g>
<!-- SharedComponentsModule&#45;&gt;FormResponsesComponent  -->
<g id="edge44" class="edge">
<title>SharedComponentsModule&#45;&gt;FormResponsesComponent </title>
<path fill="none" stroke="black" stroke-dasharray="5,2" d="M3408.86,-144.8C3594.82,-144.8 4021.78,-144.8 4021.78,-144.8 4021.78,-144.8 4021.78,-168.61 4021.78,-168.61"/>
<polygon fill="black" stroke="black" points="4018.28,-168.61 4021.78,-178.61 4025.28,-168.61 4018.28,-168.61"/>
</g>
<!-- MessagesComponent  -->
<g id="node46" class="node">
<title>MessagesComponent </title>
<polygon fill="#fb8072" stroke="black" points="3950.77,-214.8 3811.23,-214.8 3811.23,-178.8 3950.77,-178.8 3950.77,-214.8"/>
<text text-anchor="middle" x="3881" y="-192.6" font-family="Times,serif" font-size="14.00">MessagesComponent </text>
</g>
<!-- SharedComponentsModule&#45;&gt;MessagesComponent  -->
<g id="edge45" class="edge">
<title>SharedComponentsModule&#45;&gt;MessagesComponent </title>
<path fill="none" stroke="black" stroke-dasharray="5,2" d="M3408.77,-146.8C3569.97,-146.8 3904.81,-146.8 3904.81,-146.8 3904.81,-146.8 3904.81,-168.75 3904.81,-168.75"/>
<polygon fill="black" stroke="black" points="3901.31,-168.75 3904.81,-178.75 3908.31,-168.75 3901.31,-168.75"/>
</g>
<!-- NewDataFormComponent  -->
<g id="node47" class="node">
<title>NewDataFormComponent </title>
<polygon fill="#fb8072" stroke="black" points="3793.03,-214.8 3624.97,-214.8 3624.97,-178.8 3793.03,-178.8 3793.03,-214.8"/>
<text text-anchor="middle" x="3709" y="-192.6" font-family="Times,serif" font-size="14.00">NewDataFormComponent </text>
</g>
<!-- SharedComponentsModule&#45;&gt;NewDataFormComponent  -->
<g id="edge46" class="edge">
<title>SharedComponentsModule&#45;&gt;NewDataFormComponent </title>
<path fill="none" stroke="black" stroke-dasharray="5,2" d="M3408.64,-147.8C3504.09,-147.8 3646.16,-147.8 3646.16,-147.8 3646.16,-147.8 3646.16,-168.55 3646.16,-168.55"/>
<polygon fill="black" stroke="black" points="3642.66,-168.55 3646.16,-178.55 3649.66,-168.55 3642.66,-168.55"/>
</g>
<!-- PollResultComponent  -->
<g id="node48" class="node">
<title>PollResultComponent </title>
<polygon fill="#fb8072" stroke="black" points="3606.68,-214.8 3463.32,-214.8 3463.32,-178.8 3606.68,-178.8 3606.68,-214.8"/>
<text text-anchor="middle" x="3535" y="-192.6" font-family="Times,serif" font-size="14.00">PollResultComponent </text>
</g>
<!-- SharedComponentsModule&#45;&gt;PollResultComponent  -->
<g id="edge47" class="edge">
<title>SharedComponentsModule&#45;&gt;PollResultComponent </title>
<path fill="none" stroke="black" stroke-dasharray="5,2" d="M3408.64,-148.8C3455.28,-148.8 3503.81,-148.8 3503.81,-148.8 3503.81,-148.8 3503.81,-168.65 3503.81,-168.65"/>
<polygon fill="black" stroke="black" points="3500.31,-168.65 3503.81,-178.65 3507.31,-168.65 3500.31,-168.65"/>
</g>
<!-- PollsComponent  -->
<g id="node49" class="node">
<title>PollsComponent </title>
<polygon fill="#fb8072" stroke="black" points="3445.34,-214.8 3332.66,-214.8 3332.66,-178.8 3445.34,-178.8 3445.34,-214.8"/>
<text text-anchor="middle" x="3389" y="-192.6" font-family="Times,serif" font-size="14.00">PollsComponent </text>
</g>
<!-- SharedComponentsModule&#45;&gt;PollsComponent  -->
<g id="edge48" class="edge">
<title>SharedComponentsModule&#45;&gt;PollsComponent </title>
<path fill="none" stroke="black" stroke-dasharray="5,2" d="M3370.59,-149.91C3370.59,-149.91 3370.59,-168.79 3370.59,-168.79"/>
<polygon fill="black" stroke="black" points="3367.09,-168.79 3370.59,-178.79 3374.09,-168.79 3367.09,-168.79"/>
</g>
<!-- QnaComponent  -->
<g id="node50" class="node">
<title>QnaComponent </title>
<polygon fill="#fb8072" stroke="black" points="3314.16,-214.8 3205.84,-214.8 3205.84,-178.8 3314.16,-178.8 3314.16,-214.8"/>
<text text-anchor="middle" x="3260" y="-192.6" font-family="Times,serif" font-size="14.00">QnaComponent </text>
</g>
<!-- SharedComponentsModule&#45;&gt;QnaComponent  -->
<g id="edge49" class="edge">
<title>SharedComponentsModule&#45;&gt;QnaComponent </title>
<path fill="none" stroke="black" stroke-dasharray="5,2" d="M3276.74,-149.91C3276.74,-149.91 3276.74,-168.79 3276.74,-168.79"/>
<polygon fill="black" stroke="black" points="3273.24,-168.79 3276.74,-178.79 3280.24,-168.79 3273.24,-168.79"/>
</g>
<!-- ShareButtonComponent  -->
<g id="node51" class="node">
<title>ShareButtonComponent </title>
<polygon fill="#fb8072" stroke="black" points="3188.32,-214.8 3033.68,-214.8 3033.68,-178.8 3188.32,-178.8 3188.32,-214.8"/>
<text text-anchor="middle" x="3111" y="-192.6" font-family="Times,serif" font-size="14.00">ShareButtonComponent </text>
</g>
<!-- SharedComponentsModule&#45;&gt;ShareButtonComponent  -->
<g id="edge50" class="edge">
<title>SharedComponentsModule&#45;&gt;ShareButtonComponent </title>
<path fill="none" stroke="black" stroke-dasharray="5,2" d="M3239.39,-148.8C3184.5,-148.8 3123.13,-148.8 3123.13,-148.8 3123.13,-148.8 3123.13,-168.65 3123.13,-168.65"/>
<polygon fill="black" stroke="black" points="3119.63,-168.65 3123.13,-178.65 3126.63,-168.65 3119.63,-168.65"/>
</g>
<!-- TagComponent  -->
<g id="node52" class="node">
<title>TagComponent </title>
<polygon fill="#fb8072" stroke="black" points="3015.1,-214.8 2908.9,-214.8 2908.9,-178.8 3015.1,-178.8 3015.1,-214.8"/>
<text text-anchor="middle" x="2962" y="-192.6" font-family="Times,serif" font-size="14.00">TagComponent </text>
</g>
<!-- SharedComponentsModule&#45;&gt;TagComponent  -->
<g id="edge51" class="edge">
<title>SharedComponentsModule&#45;&gt;TagComponent </title>
<path fill="none" stroke="black" stroke-dasharray="5,2" d="M3239.13,-147.8C3132.13,-147.8 2962,-147.8 2962,-147.8 2962,-147.8 2962,-168.55 2962,-168.55"/>
<polygon fill="black" stroke="black" points="2958.5,-168.55 2962,-178.55 2965.5,-168.55 2958.5,-168.55"/>
</g>
<!-- UserLiveStatusComponent  -->
<g id="node53" class="node">
<title>UserLiveStatusComponent </title>
<polygon fill="#fb8072" stroke="black" points="2890.65,-214.8 2719.35,-214.8 2719.35,-178.8 2890.65,-178.8 2890.65,-214.8"/>
<text text-anchor="middle" x="2805" y="-192.6" font-family="Times,serif" font-size="14.00">UserLiveStatusComponent </text>
</g>
<!-- SharedComponentsModule&#45;&gt;UserLiveStatusComponent  -->
<g id="edge52" class="edge">
<title>SharedComponentsModule&#45;&gt;UserLiveStatusComponent </title>
<path fill="none" stroke="black" stroke-dasharray="5,2" d="M3239.34,-146.8C3110.35,-146.8 2879.44,-146.8 2879.44,-146.8 2879.44,-146.8 2879.44,-168.75 2879.44,-168.75"/>
<polygon fill="black" stroke="black" points="2875.94,-168.75 2879.44,-178.75 2882.94,-168.75 2875.94,-168.75"/>
</g>
<!-- UserObjectVisitPixelComponent  -->
<g id="node54" class="node">
<title>UserObjectVisitPixelComponent </title>
<polygon fill="#fb8072" stroke="black" points="2701.09,-214.8 2496.91,-214.8 2496.91,-178.8 2701.09,-178.8 2701.09,-214.8"/>
<text text-anchor="middle" x="2599" y="-192.6" font-family="Times,serif" font-size="14.00">UserObjectVisitPixelComponent </text>
</g>
<!-- SharedComponentsModule&#45;&gt;UserObjectVisitPixelComponent  -->
<g id="edge53" class="edge">
<title>SharedComponentsModule&#45;&gt;UserObjectVisitPixelComponent </title>
<path fill="none" stroke="black" stroke-dasharray="5,2" d="M3239.09,-144.8C3055.9,-144.8 2639.96,-144.8 2639.96,-144.8 2639.96,-144.8 2639.96,-168.61 2639.96,-168.61"/>
<polygon fill="black" stroke="black" points="2636.46,-168.61 2639.96,-178.61 2643.46,-168.61 2636.46,-168.61"/>
</g>
<!-- UserProfileHorizontalComponent  -->
<g id="node55" class="node">
<title>UserProfileHorizontalComponent </title>
<polygon fill="#fb8072" stroke="black" points="2478.74,-214.8 2269.26,-214.8 2269.26,-178.8 2478.74,-178.8 2478.74,-214.8"/>
<text text-anchor="middle" x="2374" y="-192.6" font-family="Times,serif" font-size="14.00">UserProfileHorizontalComponent </text>
</g>
<!-- SharedComponentsModule&#45;&gt;UserProfileHorizontalComponent  -->
<g id="edge54" class="edge">
<title>SharedComponentsModule&#45;&gt;UserProfileHorizontalComponent </title>
<path fill="none" stroke="black" stroke-dasharray="5,2" d="M3239.25,-143.8C3017.26,-143.8 2435.9,-143.8 2435.9,-143.8 2435.9,-143.8 2435.9,-168.56 2435.9,-168.56"/>
<polygon fill="black" stroke="black" points="2432.4,-168.56 2435.9,-178.56 2439.4,-168.56 2432.4,-168.56"/>
</g>
<!-- UserProfileMiniComponent  -->
<g id="node56" class="node">
<title>UserProfileMiniComponent </title>
<polygon fill="#fb8072" stroke="black" points="2251.1,-214.8 2074.9,-214.8 2074.9,-178.8 2251.1,-178.8 2251.1,-214.8"/>
<text text-anchor="middle" x="2163" y="-192.6" font-family="Times,serif" font-size="14.00">UserProfileMiniComponent </text>
</g>
<!-- SharedComponentsModule&#45;&gt;UserProfileMiniComponent  -->
<g id="edge55" class="edge">
<title>SharedComponentsModule&#45;&gt;UserProfileMiniComponent </title>
<path fill="none" stroke="black" stroke-dasharray="5,2" d="M3239.12,-142.8C2979.37,-142.8 2212.88,-142.8 2212.88,-142.8 2212.88,-142.8 2212.88,-168.52 2212.88,-168.52"/>
<polygon fill="black" stroke="black" points="2209.38,-168.52 2212.88,-178.52 2216.38,-168.52 2209.38,-168.52"/>
</g>
<!-- UserVisitTrackerComponent  -->
<g id="node57" class="node">
<title>UserVisitTrackerComponent </title>
<polygon fill="#fb8072" stroke="black" points="2057.01,-214.8 1874.99,-214.8 1874.99,-178.8 2057.01,-178.8 2057.01,-214.8"/>
<text text-anchor="middle" x="1966" y="-192.6" font-family="Times,serif" font-size="14.00">UserVisitTrackerComponent </text>
</g>
<!-- SharedComponentsModule&#45;&gt;UserVisitTrackerComponent  -->
<g id="edge56" class="edge">
<title>SharedComponentsModule&#45;&gt;UserVisitTrackerComponent </title>
<path fill="none" stroke="black" stroke-dasharray="5,2" d="M3239.36,-140.8C2946.07,-140.8 1991.15,-140.8 1991.15,-140.8 1991.15,-140.8 1991.15,-168.77 1991.15,-168.77"/>
<polygon fill="black" stroke="black" points="1987.65,-168.77 1991.15,-178.77 1994.65,-168.77 1987.65,-168.77"/>
</g>
<!-- VideoStreamComponent  -->
<g id="node58" class="node">
<title>VideoStreamComponent </title>
<polygon fill="#fb8072" stroke="black" points="1857.2,-214.8 1698.8,-214.8 1698.8,-178.8 1857.2,-178.8 1857.2,-214.8"/>
<text text-anchor="middle" x="1778" y="-192.6" font-family="Times,serif" font-size="14.00">VideoStreamComponent </text>
</g>
<!-- SharedComponentsModule&#45;&gt;VideoStreamComponent  -->
<g id="edge57" class="edge">
<title>SharedComponentsModule&#45;&gt;VideoStreamComponent </title>
<path fill="none" stroke="black" stroke-dasharray="5,2" d="M3239.3,-139.8C2916.2,-139.8 1779.24,-139.8 1779.24,-139.8 1779.24,-139.8 1779.24,-168.76 1779.24,-168.76"/>
<polygon fill="black" stroke="black" points="1775.74,-168.76 1779.24,-178.76 1782.74,-168.76 1775.74,-168.76"/>
</g>
<!-- VotesDisplayComponent  -->
<g id="node59" class="node">
<title>VotesDisplayComponent </title>
<polygon fill="#fb8072" stroke="black" points="1680.54,-214.8 1519.46,-214.8 1519.46,-178.8 1680.54,-178.8 1680.54,-214.8"/>
<text text-anchor="middle" x="1600" y="-192.6" font-family="Times,serif" font-size="14.00">VotesDisplayComponent </text>
</g>
<!-- SharedComponentsModule&#45;&gt;VotesDisplayComponent  -->
<g id="edge58" class="edge">
<title>SharedComponentsModule&#45;&gt;VotesDisplayComponent </title>
<path fill="none" stroke="black" stroke-dasharray="5,2" d="M3239.26,-138.8C2895.95,-138.8 1626.84,-138.8 1626.84,-138.8 1626.84,-138.8 1626.84,-168.77 1626.84,-168.77"/>
<polygon fill="black" stroke="black" points="1623.34,-168.77 1626.84,-178.77 1630.34,-168.77 1623.34,-168.77"/>
</g>
<!-- WorkInProgressComponent  -->
<g id="node60" class="node">
<title>WorkInProgressComponent </title>
<polygon fill="#fb8072" stroke="black" points="1501.09,-214.8 1324.91,-214.8 1324.91,-178.8 1501.09,-178.8 1501.09,-214.8"/>
<text text-anchor="middle" x="1413" y="-192.6" font-family="Times,serif" font-size="14.00">WorkInProgressComponent </text>
</g>
<!-- SharedComponentsModule&#45;&gt;WorkInProgressComponent  -->
<g id="edge59" class="edge">
<title>SharedComponentsModule&#45;&gt;WorkInProgressComponent </title>
<path fill="none" stroke="black" stroke-dasharray="5,2" d="M3239.23,-137.8C2879.4,-137.8 1496.78,-137.8 1496.78,-137.8 1496.78,-137.8 1496.78,-168.78 1496.78,-168.78"/>
<polygon fill="black" stroke="black" points="1493.28,-168.78 1496.78,-178.78 1500.28,-168.78 1493.28,-168.78"/>
</g>
<!-- HmsVideoModule -->
<g id="node35" class="node">
<title>HmsVideoModule</title>
<polygon fill="#8dd3c7" stroke="black" points="613.21,-84.8 610.21,-88.8 589.21,-88.8 586.21,-84.8 492.79,-84.8 492.79,-48.8 613.21,-48.8 613.21,-84.8"/>
<text text-anchor="middle" x="553" y="-62.6" font-family="Times,serif" font-size="14.00">HmsVideoModule</text>
</g>
<!-- HmsVideoModule&#45;&gt;SharedComponentsModule -->
<g id="edge34" class="edge">
<title>HmsVideoModule&#45;&gt;SharedComponentsModule</title>
<path fill="none" stroke="black" d="M553,-84.91C553,-104.14 553,-131.8 553,-131.8 553,-131.8 3229.18,-131.8 3229.18,-131.8"/>
<polygon fill="black" stroke="black" points="3229.18,-135.3 3239.18,-131.8 3229.18,-128.3 3229.18,-135.3"/>
</g>
<!-- MentionModule -->
<g id="node36" class="node">
<title>MentionModule</title>
<polygon fill="#8dd3c7" stroke="black" points="474.49,-84.8 471.49,-88.8 450.49,-88.8 447.49,-84.8 367.51,-84.8 367.51,-48.8 474.49,-48.8 474.49,-84.8"/>
<text text-anchor="middle" x="421" y="-62.6" font-family="Times,serif" font-size="14.00">MentionModule</text>
</g>
<!-- MentionModule&#45;&gt;SharedComponentsModule -->
<g id="edge35" class="edge">
<title>MentionModule&#45;&gt;SharedComponentsModule</title>
<path fill="none" stroke="black" d="M421,-85.11C421,-104.95 421,-133.8 421,-133.8 421,-133.8 3229.08,-133.8 3229.08,-133.8"/>
<polygon fill="black" stroke="black" points="3229.08,-137.3 3239.08,-133.8 3229.08,-130.3 3229.08,-137.3"/>
</g>
<!-- MiniUserProfileModule -->
<g id="node37" class="node">
<title>MiniUserProfileModule</title>
<polygon fill="#8dd3c7" stroke="black" points="349.82,-84.8 346.82,-88.8 325.82,-88.8 322.82,-84.8 198.18,-84.8 198.18,-48.8 349.82,-48.8 349.82,-84.8"/>
<text text-anchor="middle" x="274" y="-62.6" font-family="Times,serif" font-size="14.00">MiniUserProfileModule</text>
</g>
<!-- MiniUserProfileModule&#45;&gt;SharedComponentsModule -->
<g id="edge36" class="edge">
<title>MiniUserProfileModule&#45;&gt;SharedComponentsModule</title>
<path fill="none" stroke="black" d="M274,-85.02C274,-105.17 274,-134.8 274,-134.8 274,-134.8 3229.24,-134.8 3229.24,-134.8"/>
<polygon fill="black" stroke="black" points="3229.24,-138.3 3239.24,-134.8 3229.24,-131.3 3229.24,-138.3"/>
</g>
<!-- SharedDirectivesModule -->
<g id="node38" class="node">
<title>SharedDirectivesModule</title>
<polygon fill="#8dd3c7" stroke="black" points="179.96,-84.8 176.96,-88.8 155.96,-88.8 152.96,-84.8 24.04,-84.8 24.04,-48.8 179.96,-48.8 179.96,-84.8"/>
<text text-anchor="middle" x="102" y="-62.6" font-family="Times,serif" font-size="14.00">SharedDirectivesModule</text>
</g>
<!-- SharedDirectivesModule&#45;&gt;SharedComponentsModule -->
<g id="edge37" class="edge">
<title>SharedDirectivesModule&#45;&gt;SharedComponentsModule</title>
<path fill="none" stroke="black" d="M102,-84.93C102,-105.37 102,-135.8 102,-135.8 102,-135.8 3229.06,-135.8 3229.06,-135.8"/>
<polygon fill="black" stroke="black" points="3229.06,-139.3 3239.06,-135.8 3229.06,-132.3 3229.06,-139.3"/>
</g>
</g>
</svg>
