<?xml version="1.0" encoding="UTF-8" standalone="no"?>
<!DOCTYPE svg PUBLIC "-//W3C//DTD SVG 1.1//EN"
 "http://www.w3.org/Graphics/SVG/1.1/DTD/svg11.dtd">
<!-- Generated by graphviz version 2.47.0 (20210316.0004)
 -->
<!-- Title: dependencies Pages: 1 -->
<svg width="504pt" height="284pt"
     viewBox="0.00 0.00 504.00 284.00" xmlns="http://www.w3.org/2000/svg">
<g id="graph0" class="graph" transform="scale(1 1) rotate(0) translate(4 280)">
<title>dependencies</title>
<polygon fill="white" stroke="transparent" points="-4,4 -4,-280 500,-280 500,4 -4,4"/>
<text text-anchor="start" x="227.01" y="-42.4" font-family="sans-serif" font-weight="bold" font-size="14.00">Legend</text>
<polygon fill="#ffffb3" stroke="transparent" points="14,-10 14,-30 34,-30 34,-10 14,-10"/>
<text text-anchor="start" x="37.63" y="-15.4" font-family="sans-serif" font-size="14.00"> &#160;Declarations</text>
<polygon fill="#8dd3c7" stroke="transparent" points="127,-10 127,-30 147,-30 147,-10 127,-10"/>
<text text-anchor="start" x="150.73" y="-15.4" font-family="sans-serif" font-size="14.00"> &#160;Module</text>
<polygon fill="#80b1d3" stroke="transparent" points="213,-10 213,-30 233,-30 233,-10 213,-10"/>
<text text-anchor="start" x="236.78" y="-15.4" font-family="sans-serif" font-size="14.00"> &#160;Bootstrap</text>
<polygon fill="#fdb462" stroke="transparent" points="310,-10 310,-30 330,-30 330,-10 310,-10"/>
<text text-anchor="start" x="333.67" y="-15.4" font-family="sans-serif" font-size="14.00"> &#160;Providers</text>
<polygon fill="#fb8072" stroke="transparent" points="406,-10 406,-30 426,-30 426,-10 406,-10"/>
<text text-anchor="start" x="429.73" y="-15.4" font-family="sans-serif" font-size="14.00"> &#160;Exports</text>
<g id="clust1" class="cluster">
<title>cluster_AppSharedComponentsModule</title>
<polygon fill="none" stroke="black" stroke-dasharray="1,5" points="44,-70 44,-268 452,-268 452,-70 44,-70"/>
</g>
<g id="clust2" class="cluster">
<title>cluster_AppSharedComponentsModule_declarations</title>
<polygon fill="none" stroke="black" points="56,-78 56,-130 440,-130 440,-78 56,-78"/>
</g>
<g id="clust6" class="cluster">
<title>cluster_AppSharedComponentsModule_exports</title>
<polygon fill="none" stroke="black" points="52,-208 52,-260 444,-260 444,-208 52,-208"/>
</g>
<!-- EmailerComponent -->
<g id="node1" class="node">
<title>EmailerComponent</title>
<polygon fill="#ffffb3" stroke="black" points="431.65,-122 306.35,-122 306.35,-86 431.65,-86 431.65,-122"/>
<text text-anchor="middle" x="369" y="-99.8" font-family="Times,serif" font-size="14.00">EmailerComponent</text>
</g>
<!-- AppSharedComponentsModule -->
<g id="node3" class="node">
<title>AppSharedComponentsModule</title>
<polygon fill="#8dd3c7" stroke="black" points="273.81,-187 270.81,-191 249.81,-191 246.81,-187 80.19,-187 80.19,-151 273.81,-151 273.81,-187"/>
<text text-anchor="middle" x="177" y="-164.8" font-family="Times,serif" font-size="14.00">AppSharedComponentsModule</text>
</g>
<!-- EmailerComponent&#45;&gt;AppSharedComponentsModule -->
<g id="edge1" class="edge">
<title>EmailerComponent&#45;&gt;AppSharedComponentsModule</title>
<path fill="none" stroke="black" d="M390.02,-122.02C390.02,-139.37 390.02,-163 390.02,-163 390.02,-163 283.85,-163 283.85,-163"/>
<polygon fill="black" stroke="black" points="283.85,-159.5 273.85,-163 283.85,-166.5 283.85,-159.5"/>
</g>
<!-- SpeakerResourcePreviewComponent -->
<g id="node2" class="node">
<title>SpeakerResourcePreviewComponent</title>
<polygon fill="#ffffb3" stroke="black" points="288.37,-122 63.63,-122 63.63,-86 288.37,-86 288.37,-122"/>
<text text-anchor="middle" x="176" y="-99.8" font-family="Times,serif" font-size="14.00">SpeakerResourcePreviewComponent</text>
</g>
<!-- SpeakerResourcePreviewComponent&#45;&gt;AppSharedComponentsModule -->
<g id="edge2" class="edge">
<title>SpeakerResourcePreviewComponent&#45;&gt;AppSharedComponentsModule</title>
<path fill="none" stroke="black" d="M177,-122.11C177,-122.11 177,-140.99 177,-140.99"/>
<polygon fill="black" stroke="black" points="173.5,-140.99 177,-150.99 180.5,-140.99 173.5,-140.99"/>
</g>
<!-- EmailerComponent  -->
<g id="node4" class="node">
<title>EmailerComponent </title>
<polygon fill="#fb8072" stroke="black" points="435.65,-252 306.35,-252 306.35,-216 435.65,-216 435.65,-252"/>
<text text-anchor="middle" x="371" y="-229.8" font-family="Times,serif" font-size="14.00">EmailerComponent </text>
</g>
<!-- AppSharedComponentsModule&#45;&gt;EmailerComponent  -->
<g id="edge3" class="edge">
<title>AppSharedComponentsModule&#45;&gt;EmailerComponent </title>
<path fill="none" stroke="black" stroke-dasharray="5,2" d="M274.12,-175C312.77,-175 348.23,-175 348.23,-175 348.23,-175 348.23,-205.98 348.23,-205.98"/>
<polygon fill="black" stroke="black" points="344.73,-205.98 348.23,-215.98 351.73,-205.98 344.73,-205.98"/>
</g>
<!-- SpeakerResourcePreviewComponent  -->
<g id="node5" class="node">
<title>SpeakerResourcePreviewComponent </title>
<polygon fill="#fb8072" stroke="black" points="287.87,-252 60.13,-252 60.13,-216 287.87,-216 287.87,-252"/>
<text text-anchor="middle" x="174" y="-229.8" font-family="Times,serif" font-size="14.00">SpeakerResourcePreviewComponent </text>
</g>
<!-- AppSharedComponentsModule&#45;&gt;SpeakerResourcePreviewComponent  -->
<g id="edge4" class="edge">
<title>AppSharedComponentsModule&#45;&gt;SpeakerResourcePreviewComponent </title>
<path fill="none" stroke="black" stroke-dasharray="5,2" d="M177,-187.11C177,-187.11 177,-205.99 177,-205.99"/>
<polygon fill="black" stroke="black" points="173.5,-205.99 177,-215.99 180.5,-205.99 173.5,-205.99"/>
</g>
</g>
</svg>
