<?xml version="1.0" encoding="UTF-8" standalone="no"?>
<!DOCTYPE svg PUBLIC "-//W3C//DTD SVG 1.1//EN"
 "http://www.w3.org/Graphics/SVG/1.1/DTD/svg11.dtd">
<!-- Generated by graphviz version 2.47.3 (20210619.1520)
 -->
<!-- Title: dependencies Pages: 1 -->
<svg width="432pt" height="247pt"
 viewBox="0.00 0.00 432.00 246.80" xmlns="http://www.w3.org/2000/svg" xmlns:xlink="http://www.w3.org/1999/xlink">
<g id="graph0" class="graph" transform="scale(1 1) rotate(0) translate(4 242.8)">
<title>dependencies</title>
<polygon fill="white" stroke="transparent" points="-4,4 -4,-242.8 428,-242.8 428,4 -4,4"/>
<text text-anchor="middle" x="212" y="-8.2" font-family="sans-serif" font-size="14.00">dependencies</text>
<g id="clust1" class="cluster">
<title>cluster_AppSharedComponentsModule</title>
<polygon fill="none" stroke="black" stroke-dasharray="1,5" points="8,-32.8 8,-230.8 416,-230.8 416,-32.8 8,-32.8"/>
</g>
<g id="clust2" class="cluster">
<title>cluster_AppSharedComponentsModule_declarations</title>
<polygon fill="none" stroke="black" points="20,-40.8 20,-92.8 404,-92.8 404,-40.8 20,-40.8"/>
</g>
<g id="clust6" class="cluster">
<title>cluster_AppSharedComponentsModule_exports</title>
<polygon fill="none" stroke="black" points="16,-170.8 16,-222.8 408,-222.8 408,-170.8 16,-170.8"/>
</g>
<!-- EmailerComponent -->
<g id="node1" class="node">
<title>EmailerComponent</title>
<polygon fill="#ffffb3" stroke="black" points="395.65,-84.8 270.35,-84.8 270.35,-48.8 395.65,-48.8 395.65,-84.8"/>
<text text-anchor="middle" x="333" y="-62.6" font-family="Times,serif" font-size="14.00">EmailerComponent</text>
</g>
<!-- AppSharedComponentsModule -->
<g id="node3" class="node">
<title>AppSharedComponentsModule</title>
<polygon fill="#8dd3c7" stroke="black" points="237.81,-149.8 234.81,-153.8 213.81,-153.8 210.81,-149.8 44.19,-149.8 44.19,-113.8 237.81,-113.8 237.81,-149.8"/>
<text text-anchor="middle" x="141" y="-127.6" font-family="Times,serif" font-size="14.00">AppSharedComponentsModule</text>
</g>
<!-- EmailerComponent&#45;&gt;AppSharedComponentsModule -->
<g id="edge1" class="edge">
<title>EmailerComponent&#45;&gt;AppSharedComponentsModule</title>
<path fill="none" stroke="black" d="M354.02,-84.82C354.02,-102.17 354.02,-125.8 354.02,-125.8 354.02,-125.8 247.85,-125.8 247.85,-125.8"/>
<polygon fill="black" stroke="black" points="247.85,-122.3 237.85,-125.8 247.85,-129.3 247.85,-122.3"/>
</g>
<!-- SpeakerResourcePreviewComponent -->
<g id="node2" class="node">
<title>SpeakerResourcePreviewComponent</title>
<polygon fill="#ffffb3" stroke="black" points="252.37,-84.8 27.63,-84.8 27.63,-48.8 252.37,-48.8 252.37,-84.8"/>
<text text-anchor="middle" x="140" y="-62.6" font-family="Times,serif" font-size="14.00">SpeakerResourcePreviewComponent</text>
</g>
<!-- SpeakerResourcePreviewComponent&#45;&gt;AppSharedComponentsModule -->
<g id="edge2" class="edge">
<title>SpeakerResourcePreviewComponent&#45;&gt;AppSharedComponentsModule</title>
<path fill="none" stroke="black" d="M141,-84.91C141,-84.91 141,-103.79 141,-103.79"/>
<polygon fill="black" stroke="black" points="137.5,-103.79 141,-113.79 144.5,-103.79 137.5,-103.79"/>
</g>
<!-- EmailerComponent  -->
<g id="node4" class="node">
<title>EmailerComponent </title>
<polygon fill="#fb8072" stroke="black" points="399.65,-214.8 270.35,-214.8 270.35,-178.8 399.65,-178.8 399.65,-214.8"/>
<text text-anchor="middle" x="335" y="-192.6" font-family="Times,serif" font-size="14.00">EmailerComponent </text>
</g>
<!-- AppSharedComponentsModule&#45;&gt;EmailerComponent  -->
<g id="edge3" class="edge">
<title>AppSharedComponentsModule&#45;&gt;EmailerComponent </title>
<path fill="none" stroke="black" stroke-dasharray="5,2" d="M238.12,-137.8C276.77,-137.8 312.23,-137.8 312.23,-137.8 312.23,-137.8 312.23,-168.78 312.23,-168.78"/>
<polygon fill="black" stroke="black" points="308.73,-168.78 312.23,-178.78 315.73,-168.78 308.73,-168.78"/>
</g>
<!-- SpeakerResourcePreviewComponent  -->
<g id="node5" class="node">
<title>SpeakerResourcePreviewComponent </title>
<polygon fill="#fb8072" stroke="black" points="251.87,-214.8 24.13,-214.8 24.13,-178.8 251.87,-178.8 251.87,-214.8"/>
<text text-anchor="middle" x="138" y="-192.6" font-family="Times,serif" font-size="14.00">SpeakerResourcePreviewComponent </text>
</g>
<!-- AppSharedComponentsModule&#45;&gt;SpeakerResourcePreviewComponent  -->
<g id="edge4" class="edge">
<title>AppSharedComponentsModule&#45;&gt;SpeakerResourcePreviewComponent </title>
<path fill="none" stroke="black" stroke-dasharray="5,2" d="M141,-149.91C141,-149.91 141,-168.79 141,-168.79"/>
<polygon fill="black" stroke="black" points="137.5,-168.79 141,-178.79 144.5,-168.79 137.5,-168.79"/>
</g>
</g>
</svg>
