<?xml version="1.0" encoding="UTF-8" standalone="no"?>
<!DOCTYPE svg PUBLIC "-//W3C//DTD SVG 1.1//EN"
 "http://www.w3.org/Graphics/SVG/1.1/DTD/svg11.dtd">
<!-- Generated by graphviz version 5.0.0 (20220707.1540)
 -->
<!-- Title: dependencies Pages: 1 -->
<svg width="738pt" height="247pt"
 viewBox="0.00 0.00 738.00 246.80" xmlns="http://www.w3.org/2000/svg" xmlns:xlink="http://www.w3.org/1999/xlink">
<g id="graph0" class="graph" transform="scale(1 1) rotate(0) translate(4 242.8)">
<title>dependencies</title>
<polygon fill="white" stroke="transparent" points="-4,4 -4,-242.8 734,-242.8 734,4 -4,4"/>
<text text-anchor="middle" x="365" y="-8.2" font-family="sans-serif" font-size="14.00">dependencies</text>
<g id="clust1" class="cluster">
<title>cluster_RecommendationsModule</title>
<polygon fill="none" stroke="black" stroke-dasharray="1,5" points="8,-32.8 8,-230.8 722,-230.8 722,-32.8 8,-32.8"/>
</g>
<g id="clust7" class="cluster">
<title>cluster_RecommendationsModule_exports</title>
<polygon fill="none" stroke="black" points="16,-170.8 16,-222.8 714,-222.8 714,-170.8 16,-170.8"/>
</g>
<g id="clust2" class="cluster">
<title>cluster_RecommendationsModule_declarations</title>
<polygon fill="none" stroke="black" points="21,-40.8 21,-92.8 708,-92.8 708,-40.8 21,-40.8"/>
</g>
<!-- RecommendedBuildsComponent -->
<g id="node1" class="node">
<title>RecommendedBuildsComponent</title>
<polygon fill="#ffffb3" stroke="black" points="699.87,-84.8 498.13,-84.8 498.13,-48.8 699.87,-48.8 699.87,-84.8"/>
<text text-anchor="middle" x="599" y="-62.6" font-family="Times,serif" font-size="14.00">RecommendedBuildsComponent</text>
</g>
<!-- RecommendationsModule -->
<g id="node4" class="node">
<title>RecommendationsModule</title>
<polygon fill="#8dd3c7" stroke="black" points="441.75,-149.8 438.75,-153.8 417.75,-153.8 414.75,-149.8 278.25,-149.8 278.25,-113.8 441.75,-113.8 441.75,-149.8"/>
<text text-anchor="middle" x="360" y="-127.6" font-family="Times,serif" font-size="14.00">RecommendationsModule</text>
</g>
<!-- RecommendedBuildsComponent&#45;&gt;RecommendationsModule -->
<g id="edge1" class="edge">
<title>RecommendedBuildsComponent&#45;&gt;RecommendationsModule</title>
<path fill="none" stroke="black" d="M633.39,-84.82C633.39,-102.17 633.39,-125.8 633.39,-125.8 633.39,-125.8 452.03,-125.8 452.03,-125.8"/>
<polygon fill="black" stroke="black" points="452.03,-122.3 442.03,-125.8 452.03,-129.3 452.03,-122.3"/>
</g>
<!-- RecommendedCommunitiesComponent -->
<g id="node2" class="node">
<title>RecommendedCommunitiesComponent</title>
<polygon fill="#ffffb3" stroke="black" points="480.25,-84.8 239.75,-84.8 239.75,-48.8 480.25,-48.8 480.25,-84.8"/>
<text text-anchor="middle" x="360" y="-62.6" font-family="Times,serif" font-size="14.00">RecommendedCommunitiesComponent</text>
</g>
<!-- RecommendedCommunitiesComponent&#45;&gt;RecommendationsModule -->
<g id="edge2" class="edge">
<title>RecommendedCommunitiesComponent&#45;&gt;RecommendationsModule</title>
<path fill="none" stroke="black" d="M360,-84.91C360,-84.91 360,-103.79 360,-103.79"/>
<polygon fill="black" stroke="black" points="356.5,-103.79 360,-113.79 363.5,-103.79 356.5,-103.79"/>
</g>
<!-- RecommendedLabsComponent -->
<g id="node3" class="node">
<title>RecommendedLabsComponent</title>
<polygon fill="#ffffb3" stroke="black" points="221.02,-84.8 28.98,-84.8 28.98,-48.8 221.02,-48.8 221.02,-84.8"/>
<text text-anchor="middle" x="125" y="-62.6" font-family="Times,serif" font-size="14.00">RecommendedLabsComponent</text>
</g>
<!-- RecommendedLabsComponent&#45;&gt;RecommendationsModule -->
<g id="edge3" class="edge">
<title>RecommendedLabsComponent&#45;&gt;RecommendationsModule</title>
<path fill="none" stroke="black" d="M156.25,-84.82C156.25,-102.17 156.25,-125.8 156.25,-125.8 156.25,-125.8 268.01,-125.8 268.01,-125.8"/>
<polygon fill="black" stroke="black" points="268.01,-129.3 278.01,-125.8 268.01,-122.3 268.01,-129.3"/>
</g>
<!-- RecommendedBuildsComponent  -->
<g id="node5" class="node">
<title>RecommendedBuildsComponent </title>
<polygon fill="#fb8072" stroke="black" points="705.87,-214.8 500.13,-214.8 500.13,-178.8 705.87,-178.8 705.87,-214.8"/>
<text text-anchor="middle" x="603" y="-192.6" font-family="Times,serif" font-size="14.00">RecommendedBuildsComponent </text>
</g>
<!-- RecommendationsModule&#45;&gt;RecommendedBuildsComponent  -->
<g id="edge4" class="edge">
<title>RecommendationsModule&#45;&gt;RecommendedBuildsComponent </title>
<path fill="none" stroke="black" stroke-dasharray="5,2" d="M441.75,-137.8C499.57,-137.8 566.86,-137.8 566.86,-137.8 566.86,-137.8 566.86,-168.78 566.86,-168.78"/>
<polygon fill="black" stroke="black" points="563.36,-168.78 566.86,-178.78 570.36,-168.78 563.36,-168.78"/>
</g>
<!-- RecommendedCommunitiesComponent  -->
<g id="node6" class="node">
<title>RecommendedCommunitiesComponent </title>
<polygon fill="#fb8072" stroke="black" points="482.25,-214.8 237.75,-214.8 237.75,-178.8 482.25,-178.8 482.25,-214.8"/>
<text text-anchor="middle" x="360" y="-192.6" font-family="Times,serif" font-size="14.00">RecommendedCommunitiesComponent </text>
</g>
<!-- RecommendationsModule&#45;&gt;RecommendedCommunitiesComponent  -->
<g id="edge5" class="edge">
<title>RecommendationsModule&#45;&gt;RecommendedCommunitiesComponent </title>
<path fill="none" stroke="black" stroke-dasharray="5,2" d="M360,-149.91C360,-149.91 360,-168.79 360,-168.79"/>
<polygon fill="black" stroke="black" points="356.5,-168.79 360,-178.79 363.5,-168.79 356.5,-168.79"/>
</g>
<!-- RecommendedLabsComponent  -->
<g id="node7" class="node">
<title>RecommendedLabsComponent </title>
<polygon fill="#fb8072" stroke="black" points="220.02,-214.8 23.98,-214.8 23.98,-178.8 220.02,-178.8 220.02,-214.8"/>
<text text-anchor="middle" x="122" y="-192.6" font-family="Times,serif" font-size="14.00">RecommendedLabsComponent </text>
</g>
<!-- RecommendationsModule&#45;&gt;RecommendedLabsComponent  -->
<g id="edge6" class="edge">
<title>RecommendationsModule&#45;&gt;RecommendedLabsComponent </title>
<path fill="none" stroke="black" stroke-dasharray="5,2" d="M277.92,-137.8C199.29,-137.8 92.5,-137.8 92.5,-137.8 92.5,-137.8 92.5,-168.78 92.5,-168.78"/>
<polygon fill="black" stroke="black" points="89,-168.78 92.5,-178.78 96,-168.78 89,-168.78"/>
</g>
</g>
</svg>
