<?xml version="1.0" encoding="UTF-8" standalone="no"?>
<!DOCTYPE svg PUBLIC "-//W3C//DTD SVG 1.1//EN"
 "http://www.w3.org/Graphics/SVG/1.1/DTD/svg11.dtd">
<!-- Generated by graphviz version 2.47.3 (20210619.1520)
 -->
<!-- Title: dependencies Pages: 1 -->
<svg width="786pt" height="247pt"
 viewBox="0.00 0.00 786.00 246.80" xmlns="http://www.w3.org/2000/svg" xmlns:xlink="http://www.w3.org/1999/xlink">
<g id="graph0" class="graph" transform="scale(1 1) rotate(0) translate(4 242.8)">
<title>dependencies</title>
<polygon fill="white" stroke="transparent" points="-4,4 -4,-242.8 782,-242.8 782,4 -4,4"/>
<text text-anchor="middle" x="389" y="-8.2" font-family="sans-serif" font-size="14.00">dependencies</text>
<g id="clust1" class="cluster">
<title>cluster_SharedPipesModule</title>
<polygon fill="none" stroke="black" stroke-dasharray="1,5" points="8,-32.8 8,-230.8 770,-230.8 770,-32.8 8,-32.8"/>
</g>
<g id="clust2" class="cluster">
<title>cluster_SharedPipesModule_declarations</title>
<polygon fill="none" stroke="black" points="30,-40.8 30,-92.8 753,-92.8 753,-40.8 30,-40.8"/>
</g>
<g id="clust10" class="cluster">
<title>cluster_SharedPipesModule_exports</title>
<polygon fill="none" stroke="black" points="16,-170.8 16,-222.8 762,-222.8 762,-170.8 16,-170.8"/>
</g>
<!-- CompleteUrlPipe -->
<g id="node1" class="node">
<title>CompleteUrlPipe</title>
<polygon fill="#ffffb3" stroke="black" points="744.98,-84.8 631.02,-84.8 631.02,-48.8 744.98,-48.8 744.98,-84.8"/>
<text text-anchor="middle" x="688" y="-62.6" font-family="Times,serif" font-size="14.00">CompleteUrlPipe</text>
</g>
<!-- SharedPipesModule -->
<g id="node7" class="node">
<title>SharedPipesModule</title>
<polygon fill="#8dd3c7" stroke="black" points="415.25,-149.8 412.25,-153.8 391.25,-153.8 388.25,-149.8 286.75,-149.8 286.75,-113.8 415.25,-113.8 415.25,-149.8"/>
<text text-anchor="middle" x="351" y="-127.6" font-family="Times,serif" font-size="14.00">SharedPipesModule</text>
</g>
<!-- CompleteUrlPipe&#45;&gt;SharedPipesModule -->
<g id="edge1" class="edge">
<title>CompleteUrlPipe&#45;&gt;SharedPipesModule</title>
<path fill="none" stroke="black" d="M708.75,-85.07C708.75,-103.36 708.75,-128.8 708.75,-128.8 708.75,-128.8 425.37,-128.8 425.37,-128.8"/>
<polygon fill="black" stroke="black" points="425.37,-125.3 415.37,-128.8 425.37,-132.3 425.37,-125.3"/>
</g>
<!-- NumkeysPipe -->
<g id="node2" class="node">
<title>NumkeysPipe</title>
<polygon fill="#ffffb3" stroke="black" points="613.05,-84.8 518.95,-84.8 518.95,-48.8 613.05,-48.8 613.05,-84.8"/>
<text text-anchor="middle" x="566" y="-62.6" font-family="Times,serif" font-size="14.00">NumkeysPipe</text>
</g>
<!-- NumkeysPipe&#45;&gt;SharedPipesModule -->
<g id="edge2" class="edge">
<title>NumkeysPipe&#45;&gt;SharedPipesModule</title>
<path fill="none" stroke="black" d="M582.17,-84.81C582.17,-100.85 582.17,-121.8 582.17,-121.8 582.17,-121.8 425.39,-121.8 425.39,-121.8"/>
<polygon fill="black" stroke="black" points="425.39,-118.3 415.39,-121.8 425.39,-125.3 425.39,-118.3"/>
</g>
<!-- SafeHtmlPipe -->
<g id="node3" class="node">
<title>SafeHtmlPipe</title>
<polygon fill="#ffffb3" stroke="black" points="500.04,-84.8 405.96,-84.8 405.96,-48.8 500.04,-48.8 500.04,-84.8"/>
<text text-anchor="middle" x="453" y="-62.6" font-family="Times,serif" font-size="14.00">SafeHtmlPipe</text>
</g>
<!-- SafeHtmlPipe&#45;&gt;SharedPipesModule -->
<g id="edge3" class="edge">
<title>SafeHtmlPipe&#45;&gt;SharedPipesModule</title>
<path fill="none" stroke="black" d="M410.55,-84.91C410.55,-84.91 410.55,-103.79 410.55,-103.79"/>
<polygon fill="black" stroke="black" points="407.05,-103.79 410.55,-113.79 414.05,-103.79 407.05,-103.79"/>
</g>
<!-- SafeUrlPipe -->
<g id="node4" class="node">
<title>SafeUrlPipe</title>
<polygon fill="#ffffb3" stroke="black" points="388.42,-84.8 303.58,-84.8 303.58,-48.8 388.42,-48.8 388.42,-84.8"/>
<text text-anchor="middle" x="346" y="-62.6" font-family="Times,serif" font-size="14.00">SafeUrlPipe</text>
</g>
<!-- SafeUrlPipe&#45;&gt;SharedPipesModule -->
<g id="edge4" class="edge">
<title>SafeUrlPipe&#45;&gt;SharedPipesModule</title>
<path fill="none" stroke="black" d="M346,-84.91C346,-84.91 346,-103.79 346,-103.79"/>
<polygon fill="black" stroke="black" points="342.5,-103.79 346,-113.79 349.5,-103.79 342.5,-103.79"/>
</g>
<!-- TextToLinksPipe -->
<g id="node5" class="node">
<title>TextToLinksPipe</title>
<polygon fill="#ffffb3" stroke="black" points="285.99,-84.8 172.01,-84.8 172.01,-48.8 285.99,-48.8 285.99,-84.8"/>
<text text-anchor="middle" x="229" y="-62.6" font-family="Times,serif" font-size="14.00">TextToLinksPipe</text>
</g>
<!-- TextToLinksPipe&#45;&gt;SharedPipesModule -->
<g id="edge5" class="edge">
<title>TextToLinksPipe&#45;&gt;SharedPipesModule</title>
<path fill="none" stroke="black" d="M286,-66.8C291.57,-66.8 295.21,-66.8 295.21,-66.8 295.21,-66.8 295.21,-103.69 295.21,-103.69"/>
<polygon fill="black" stroke="black" points="291.71,-103.69 295.21,-113.69 298.71,-103.69 291.71,-103.69"/>
</g>
<!-- TruncateTextPipe -->
<g id="node6" class="node">
<title>TruncateTextPipe</title>
<polygon fill="#ffffb3" stroke="black" points="154.29,-84.8 37.71,-84.8 37.71,-48.8 154.29,-48.8 154.29,-84.8"/>
<text text-anchor="middle" x="96" y="-62.6" font-family="Times,serif" font-size="14.00">TruncateTextPipe</text>
</g>
<!-- TruncateTextPipe&#45;&gt;SharedPipesModule -->
<g id="edge6" class="edge">
<title>TruncateTextPipe&#45;&gt;SharedPipesModule</title>
<path fill="none" stroke="black" d="M149.02,-84.82C149.02,-102.17 149.02,-125.8 149.02,-125.8 149.02,-125.8 276.54,-125.8 276.54,-125.8"/>
<polygon fill="black" stroke="black" points="276.54,-129.3 286.54,-125.8 276.54,-122.3 276.54,-129.3"/>
</g>
<!-- CompleteUrlPipe  -->
<g id="node8" class="node">
<title>CompleteUrlPipe </title>
<polygon fill="#fb8072" stroke="black" points="753.98,-214.8 636.02,-214.8 636.02,-178.8 753.98,-178.8 753.98,-214.8"/>
<text text-anchor="middle" x="695" y="-192.6" font-family="Times,serif" font-size="14.00">CompleteUrlPipe </text>
</g>
<!-- SharedPipesModule&#45;&gt;CompleteUrlPipe  -->
<g id="edge7" class="edge">
<title>SharedPipesModule&#45;&gt;CompleteUrlPipe </title>
<path fill="none" stroke="black" stroke-dasharray="5,2" d="M415.29,-135.8C509.11,-135.8 672.5,-135.8 672.5,-135.8 672.5,-135.8 672.5,-168.5 672.5,-168.5"/>
<polygon fill="black" stroke="black" points="669,-168.5 672.5,-178.5 676,-168.5 669,-168.5"/>
</g>
<!-- NumkeysPipe  -->
<g id="node9" class="node">
<title>NumkeysPipe </title>
<polygon fill="#fb8072" stroke="black" points="618.04,-214.8 519.96,-214.8 519.96,-178.8 618.04,-178.8 618.04,-214.8"/>
<text text-anchor="middle" x="569" y="-192.6" font-family="Times,serif" font-size="14.00">NumkeysPipe </text>
</g>
<!-- SharedPipesModule&#45;&gt;NumkeysPipe  -->
<g id="edge8" class="edge">
<title>SharedPipesModule&#45;&gt;NumkeysPipe </title>
<path fill="none" stroke="black" stroke-dasharray="5,2" d="M415.41,-142.8C473.9,-142.8 551.08,-142.8 551.08,-142.8 551.08,-142.8 551.08,-168.52 551.08,-168.52"/>
<polygon fill="black" stroke="black" points="547.58,-168.52 551.08,-178.52 554.58,-168.52 547.58,-168.52"/>
</g>
<!-- SafeHtmlPipe  -->
<g id="node10" class="node">
<title>SafeHtmlPipe </title>
<polygon fill="#fb8072" stroke="black" points="502.04,-214.8 403.96,-214.8 403.96,-178.8 502.04,-178.8 502.04,-214.8"/>
<text text-anchor="middle" x="453" y="-192.6" font-family="Times,serif" font-size="14.00">SafeHtmlPipe </text>
</g>
<!-- SharedPipesModule&#45;&gt;SafeHtmlPipe  -->
<g id="edge9" class="edge">
<title>SharedPipesModule&#45;&gt;SafeHtmlPipe </title>
<path fill="none" stroke="black" stroke-dasharray="5,2" d="M409.68,-149.91C409.68,-149.91 409.68,-168.79 409.68,-168.79"/>
<polygon fill="black" stroke="black" points="406.18,-168.79 409.68,-178.79 413.18,-168.79 406.18,-168.79"/>
</g>
<!-- SafeUrlPipe  -->
<g id="node11" class="node">
<title>SafeUrlPipe </title>
<polygon fill="#fb8072" stroke="black" points="385.92,-214.8 298.08,-214.8 298.08,-178.8 385.92,-178.8 385.92,-214.8"/>
<text text-anchor="middle" x="342" y="-192.6" font-family="Times,serif" font-size="14.00">SafeUrlPipe </text>
</g>
<!-- SharedPipesModule&#45;&gt;SafeUrlPipe  -->
<g id="edge10" class="edge">
<title>SharedPipesModule&#45;&gt;SafeUrlPipe </title>
<path fill="none" stroke="black" stroke-dasharray="5,2" d="M342,-149.91C342,-149.91 342,-168.79 342,-168.79"/>
<polygon fill="black" stroke="black" points="338.5,-168.79 342,-178.79 345.5,-168.79 338.5,-168.79"/>
</g>
<!-- TextToLinksPipe  -->
<g id="node12" class="node">
<title>TextToLinksPipe </title>
<polygon fill="#fb8072" stroke="black" points="279.99,-214.8 162.01,-214.8 162.01,-178.8 279.99,-178.8 279.99,-214.8"/>
<text text-anchor="middle" x="221" y="-192.6" font-family="Times,serif" font-size="14.00">TextToLinksPipe </text>
</g>
<!-- SharedPipesModule&#45;&gt;TextToLinksPipe  -->
<g id="edge11" class="edge">
<title>SharedPipesModule&#45;&gt;TextToLinksPipe </title>
<path fill="none" stroke="black" stroke-dasharray="5,2" d="M292.33,-149.91C292.33,-169.14 292.33,-196.8 292.33,-196.8 292.33,-196.8 289.91,-196.8 289.91,-196.8"/>
<polygon fill="black" stroke="black" points="289.91,-193.3 279.91,-196.8 289.91,-200.3 289.91,-193.3"/>
</g>
<!-- TruncateTextPipe  -->
<g id="node13" class="node">
<title>TruncateTextPipe </title>
<polygon fill="#fb8072" stroke="black" points="143.79,-214.8 24.21,-214.8 24.21,-178.8 143.79,-178.8 143.79,-214.8"/>
<text text-anchor="middle" x="84" y="-192.6" font-family="Times,serif" font-size="14.00">TruncateTextPipe </text>
</g>
<!-- SharedPipesModule&#45;&gt;TruncateTextPipe  -->
<g id="edge12" class="edge">
<title>SharedPipesModule&#45;&gt;TruncateTextPipe </title>
<path fill="none" stroke="black" stroke-dasharray="5,2" d="M286.7,-137.8C209.67,-137.8 90.88,-137.8 90.88,-137.8 90.88,-137.8 90.88,-168.78 90.88,-168.78"/>
<polygon fill="black" stroke="black" points="87.38,-168.78 90.88,-178.78 94.38,-168.78 87.38,-168.78"/>
</g>
</g>
</svg>
