<?xml version="1.0" encoding="UTF-8" standalone="no"?>
<!DOCTYPE svg PUBLIC "-//W3C//DTD SVG 1.1//EN"
 "http://www.w3.org/Graphics/SVG/1.1/DTD/svg11.dtd">
<!-- Generated by graphviz version 5.0.0 (20220707.1540)
 -->
<!-- Title: dependencies Pages: 1 -->
<svg width="1102pt" height="247pt"
 viewBox="0.00 0.00 1102.00 246.80" xmlns="http://www.w3.org/2000/svg" xmlns:xlink="http://www.w3.org/1999/xlink">
<g id="graph0" class="graph" transform="scale(1 1) rotate(0) translate(4 242.8)">
<title>dependencies</title>
<polygon fill="white" stroke="transparent" points="-4,4 -4,-242.8 1098,-242.8 1098,4 -4,4"/>
<text text-anchor="middle" x="547" y="-8.2" font-family="sans-serif" font-size="14.00">dependencies</text>
<g id="clust1" class="cluster">
<title>cluster_SharedPipesModule</title>
<polygon fill="none" stroke="black" stroke-dasharray="1,5" points="8,-32.8 8,-230.8 1086,-230.8 1086,-32.8 8,-32.8"/>
</g>
<g id="clust13" class="cluster">
<title>cluster_SharedPipesModule_exports</title>
<polygon fill="none" stroke="black" points="16,-170.8 16,-222.8 1078,-222.8 1078,-170.8 16,-170.8"/>
</g>
<g id="clust2" class="cluster">
<title>cluster_SharedPipesModule_declarations</title>
<polygon fill="none" stroke="black" points="32,-40.8 32,-92.8 1060,-92.8 1060,-40.8 32,-40.8"/>
</g>
<!-- CompleteUrlPipe -->
<g id="node1" class="node">
<title>CompleteUrlPipe</title>
<polygon fill="#ffffb3" stroke="black" points="1051.99,-84.8 938.01,-84.8 938.01,-48.8 1051.99,-48.8 1051.99,-84.8"/>
<text text-anchor="middle" x="995" y="-62.6" font-family="Times,serif" font-size="14.00">CompleteUrlPipe</text>
</g>
<!-- SharedPipesModule -->
<g id="node10" class="node">
<title>SharedPipesModule</title>
<polygon fill="#8dd3c7" stroke="black" points="619.27,-149.8 616.27,-153.8 595.27,-153.8 592.27,-149.8 490.73,-149.8 490.73,-113.8 619.27,-113.8 619.27,-149.8"/>
<text text-anchor="middle" x="555" y="-127.6" font-family="Times,serif" font-size="14.00">SharedPipesModule</text>
</g>
<!-- CompleteUrlPipe&#45;&gt;SharedPipesModule -->
<g id="edge1" class="edge">
<title>CompleteUrlPipe&#45;&gt;SharedPipesModule</title>
<path fill="none" stroke="black" d="M945.13,-85.02C945.13,-103.63 945.13,-129.8 945.13,-129.8 945.13,-129.8 629.42,-129.8 629.42,-129.8"/>
<polygon fill="black" stroke="black" points="629.42,-126.3 619.42,-129.8 629.42,-133.3 629.42,-126.3"/>
</g>
<!-- NumkeysPipe -->
<g id="node2" class="node">
<title>NumkeysPipe</title>
<polygon fill="#ffffb3" stroke="black" points="920.05,-84.8 825.95,-84.8 825.95,-48.8 920.05,-48.8 920.05,-84.8"/>
<text text-anchor="middle" x="873" y="-62.6" font-family="Times,serif" font-size="14.00">NumkeysPipe</text>
</g>
<!-- NumkeysPipe&#45;&gt;SharedPipesModule -->
<g id="edge2" class="edge">
<title>NumkeysPipe&#45;&gt;SharedPipesModule</title>
<path fill="none" stroke="black" d="M830.85,-84.83C830.85,-101.86 830.85,-124.8 830.85,-124.8 830.85,-124.8 629.33,-124.8 629.33,-124.8"/>
<polygon fill="black" stroke="black" points="629.33,-121.3 619.33,-124.8 629.33,-128.3 629.33,-121.3"/>
</g>
<!-- OrderByPipe -->
<g id="node3" class="node">
<title>OrderByPipe</title>
<polygon fill="#ffffb3" stroke="black" points="807.88,-84.8 718.12,-84.8 718.12,-48.8 807.88,-48.8 807.88,-84.8"/>
<text text-anchor="middle" x="763" y="-62.6" font-family="Times,serif" font-size="14.00">OrderByPipe</text>
</g>
<!-- OrderByPipe&#45;&gt;SharedPipesModule -->
<g id="edge3" class="edge">
<title>OrderByPipe&#45;&gt;SharedPipesModule</title>
<path fill="none" stroke="black" d="M780.06,-85.04C780.06,-100.37 780.06,-119.8 780.06,-119.8 780.06,-119.8 629.49,-119.8 629.49,-119.8"/>
<polygon fill="black" stroke="black" points="629.49,-116.3 619.49,-119.8 629.49,-123.3 629.49,-116.3"/>
</g>
<!-- SafeHtmlPipe -->
<g id="node4" class="node">
<title>SafeHtmlPipe</title>
<polygon fill="#ffffb3" stroke="black" points="700.05,-84.8 605.95,-84.8 605.95,-48.8 700.05,-48.8 700.05,-84.8"/>
<text text-anchor="middle" x="653" y="-62.6" font-family="Times,serif" font-size="14.00">SafeHtmlPipe</text>
</g>
<!-- SafeHtmlPipe&#45;&gt;SharedPipesModule -->
<g id="edge4" class="edge">
<title>SafeHtmlPipe&#45;&gt;SharedPipesModule</title>
<path fill="none" stroke="black" d="M612.56,-84.91C612.56,-84.91 612.56,-103.79 612.56,-103.79"/>
<polygon fill="black" stroke="black" points="609.06,-103.79 612.56,-113.79 616.06,-103.79 609.06,-103.79"/>
</g>
<!-- SafePipe -->
<g id="node5" class="node">
<title>SafePipe</title>
<polygon fill="#ffffb3" stroke="black" points="587.77,-84.8 522.23,-84.8 522.23,-48.8 587.77,-48.8 587.77,-84.8"/>
<text text-anchor="middle" x="555" y="-62.6" font-family="Times,serif" font-size="14.00">SafePipe</text>
</g>
<!-- SafePipe&#45;&gt;SharedPipesModule -->
<g id="edge5" class="edge">
<title>SafePipe&#45;&gt;SharedPipesModule</title>
<path fill="none" stroke="black" d="M555,-84.91C555,-84.91 555,-103.79 555,-103.79"/>
<polygon fill="black" stroke="black" points="551.5,-103.79 555,-113.79 558.5,-103.79 551.5,-103.79"/>
</g>
<!-- SafeUrlPipe -->
<g id="node6" class="node">
<title>SafeUrlPipe</title>
<polygon fill="#ffffb3" stroke="black" points="504.43,-84.8 419.57,-84.8 419.57,-48.8 504.43,-48.8 504.43,-84.8"/>
<text text-anchor="middle" x="462" y="-62.6" font-family="Times,serif" font-size="14.00">SafeUrlPipe</text>
</g>
<!-- SafeUrlPipe&#45;&gt;SharedPipesModule -->
<g id="edge6" class="edge">
<title>SafeUrlPipe&#45;&gt;SharedPipesModule</title>
<path fill="none" stroke="black" d="M497.42,-84.91C497.42,-84.91 497.42,-103.79 497.42,-103.79"/>
<polygon fill="black" stroke="black" points="493.92,-103.79 497.42,-113.79 500.92,-103.79 493.92,-103.79"/>
</g>
<!-- SearchByPipe -->
<g id="node7" class="node">
<title>SearchByPipe</title>
<polygon fill="#ffffb3" stroke="black" points="401.82,-84.8 306.18,-84.8 306.18,-48.8 401.82,-48.8 401.82,-84.8"/>
<text text-anchor="middle" x="354" y="-62.6" font-family="Times,serif" font-size="14.00">SearchByPipe</text>
</g>
<!-- SearchByPipe&#45;&gt;SharedPipesModule -->
<g id="edge7" class="edge">
<title>SearchByPipe&#45;&gt;SharedPipesModule</title>
<path fill="none" stroke="black" d="M366.39,-85.04C366.39,-100.37 366.39,-119.8 366.39,-119.8 366.39,-119.8 480.62,-119.8 480.62,-119.8"/>
<polygon fill="black" stroke="black" points="480.62,-123.3 490.62,-119.8 480.62,-116.3 480.62,-123.3"/>
</g>
<!-- TextToLinksPipe -->
<g id="node8" class="node">
<title>TextToLinksPipe</title>
<polygon fill="#ffffb3" stroke="black" points="287.99,-84.8 174.01,-84.8 174.01,-48.8 287.99,-48.8 287.99,-84.8"/>
<text text-anchor="middle" x="231" y="-62.6" font-family="Times,serif" font-size="14.00">TextToLinksPipe</text>
</g>
<!-- TextToLinksPipe&#45;&gt;SharedPipesModule -->
<g id="edge8" class="edge">
<title>TextToLinksPipe&#45;&gt;SharedPipesModule</title>
<path fill="none" stroke="black" d="M283.87,-84.83C283.87,-101.86 283.87,-124.8 283.87,-124.8 283.87,-124.8 480.4,-124.8 480.4,-124.8"/>
<polygon fill="black" stroke="black" points="480.4,-128.3 490.4,-124.8 480.4,-121.3 480.4,-128.3"/>
</g>
<!-- TruncateTextPipe -->
<g id="node9" class="node">
<title>TruncateTextPipe</title>
<polygon fill="#ffffb3" stroke="black" points="156.29,-84.8 39.71,-84.8 39.71,-48.8 156.29,-48.8 156.29,-84.8"/>
<text text-anchor="middle" x="98" y="-62.6" font-family="Times,serif" font-size="14.00">TruncateTextPipe</text>
</g>
<!-- TruncateTextPipe&#45;&gt;SharedPipesModule -->
<g id="edge9" class="edge">
<title>TruncateTextPipe&#45;&gt;SharedPipesModule</title>
<path fill="none" stroke="black" d="M150.02,-85.02C150.02,-103.63 150.02,-129.8 150.02,-129.8 150.02,-129.8 480.38,-129.8 480.38,-129.8"/>
<polygon fill="black" stroke="black" points="480.38,-133.3 490.38,-129.8 480.38,-126.3 480.38,-133.3"/>
</g>
<!-- CompleteUrlPipe  -->
<g id="node11" class="node">
<title>CompleteUrlPipe </title>
<polygon fill="#fb8072" stroke="black" points="1069.99,-214.8 952.01,-214.8 952.01,-178.8 1069.99,-178.8 1069.99,-214.8"/>
<text text-anchor="middle" x="1011" y="-192.6" font-family="Times,serif" font-size="14.00">CompleteUrlPipe </text>
</g>
<!-- SharedPipesModule&#45;&gt;CompleteUrlPipe  -->
<g id="edge10" class="edge">
<title>SharedPipesModule&#45;&gt;CompleteUrlPipe </title>
<path fill="none" stroke="black" stroke-dasharray="5,2" d="M619.54,-134.8C743.36,-134.8 1002.12,-134.8 1002.12,-134.8 1002.12,-134.8 1002.12,-168.53 1002.12,-168.53"/>
<polygon fill="black" stroke="black" points="998.63,-168.53 1002.12,-178.53 1005.63,-168.53 998.63,-168.53"/>
</g>
<!-- NumkeysPipe  -->
<g id="node12" class="node">
<title>NumkeysPipe </title>
<polygon fill="#fb8072" stroke="black" points="934.05,-214.8 835.95,-214.8 835.95,-178.8 934.05,-178.8 934.05,-214.8"/>
<text text-anchor="middle" x="885" y="-192.6" font-family="Times,serif" font-size="14.00">NumkeysPipe </text>
</g>
<!-- SharedPipesModule&#45;&gt;NumkeysPipe  -->
<g id="edge11" class="edge">
<title>SharedPipesModule&#45;&gt;NumkeysPipe </title>
<path fill="none" stroke="black" stroke-dasharray="5,2" d="M619.61,-139.8C713.91,-139.8 878.12,-139.8 878.12,-139.8 878.12,-139.8 878.12,-168.76 878.12,-168.76"/>
<polygon fill="black" stroke="black" points="874.63,-168.76 878.12,-178.76 881.63,-168.76 874.63,-168.76"/>
</g>
<!-- OrderByPipe  -->
<g id="node13" class="node">
<title>OrderByPipe </title>
<polygon fill="#fb8072" stroke="black" points="817.88,-214.8 724.12,-214.8 724.12,-178.8 817.88,-178.8 817.88,-214.8"/>
<text text-anchor="middle" x="771" y="-192.6" font-family="Times,serif" font-size="14.00">OrderByPipe </text>
</g>
<!-- SharedPipesModule&#45;&gt;OrderByPipe  -->
<g id="edge12" class="edge">
<title>SharedPipesModule&#45;&gt;OrderByPipe </title>
<path fill="none" stroke="black" stroke-dasharray="5,2" d="M619.29,-144.8C676.84,-144.8 752.19,-144.8 752.19,-144.8 752.19,-144.8 752.19,-168.61 752.19,-168.61"/>
<polygon fill="black" stroke="black" points="748.69,-168.61 752.19,-178.61 755.69,-168.61 748.69,-168.61"/>
</g>
<!-- SafeHtmlPipe  -->
<g id="node14" class="node">
<title>SafeHtmlPipe </title>
<polygon fill="#fb8072" stroke="black" points="706.04,-214.8 607.96,-214.8 607.96,-178.8 706.04,-178.8 706.04,-214.8"/>
<text text-anchor="middle" x="657" y="-192.6" font-family="Times,serif" font-size="14.00">SafeHtmlPipe </text>
</g>
<!-- SharedPipesModule&#45;&gt;SafeHtmlPipe  -->
<g id="edge13" class="edge">
<title>SharedPipesModule&#45;&gt;SafeHtmlPipe </title>
<path fill="none" stroke="black" stroke-dasharray="5,2" d="M613.68,-149.91C613.68,-149.91 613.68,-168.79 613.68,-168.79"/>
<polygon fill="black" stroke="black" points="610.18,-168.79 613.68,-178.79 617.18,-168.79 610.18,-168.79"/>
</g>
<!-- SafePipe  -->
<g id="node15" class="node">
<title>SafePipe </title>
<polygon fill="#fb8072" stroke="black" points="589.77,-214.8 520.23,-214.8 520.23,-178.8 589.77,-178.8 589.77,-214.8"/>
<text text-anchor="middle" x="555" y="-192.6" font-family="Times,serif" font-size="14.00">SafePipe </text>
</g>
<!-- SharedPipesModule&#45;&gt;SafePipe  -->
<g id="edge14" class="edge">
<title>SharedPipesModule&#45;&gt;SafePipe </title>
<path fill="none" stroke="black" stroke-dasharray="5,2" d="M555,-149.91C555,-149.91 555,-168.79 555,-168.79"/>
<polygon fill="black" stroke="black" points="551.5,-168.79 555,-178.79 558.5,-168.79 551.5,-168.79"/>
</g>
<!-- SafeUrlPipe  -->
<g id="node16" class="node">
<title>SafeUrlPipe </title>
<polygon fill="#fb8072" stroke="black" points="501.93,-214.8 414.07,-214.8 414.07,-178.8 501.93,-178.8 501.93,-214.8"/>
<text text-anchor="middle" x="458" y="-192.6" font-family="Times,serif" font-size="14.00">SafeUrlPipe </text>
</g>
<!-- SharedPipesModule&#45;&gt;SafeUrlPipe  -->
<g id="edge15" class="edge">
<title>SharedPipesModule&#45;&gt;SafeUrlPipe </title>
<path fill="none" stroke="black" stroke-dasharray="5,2" d="M496.29,-149.91C496.29,-149.91 496.29,-168.79 496.29,-168.79"/>
<polygon fill="black" stroke="black" points="492.79,-168.79 496.29,-178.79 499.79,-168.79 492.79,-168.79"/>
</g>
<!-- SearchByPipe  -->
<g id="node17" class="node">
<title>SearchByPipe </title>
<polygon fill="#fb8072" stroke="black" points="396.32,-214.8 297.68,-214.8 297.68,-178.8 396.32,-178.8 396.32,-214.8"/>
<text text-anchor="middle" x="347" y="-192.6" font-family="Times,serif" font-size="14.00">SearchByPipe </text>
</g>
<!-- SharedPipesModule&#45;&gt;SearchByPipe  -->
<g id="edge16" class="edge">
<title>SharedPipesModule&#45;&gt;SearchByPipe </title>
<path fill="none" stroke="black" stroke-dasharray="5,2" d="M490.58,-144.8C426.09,-144.8 336.36,-144.8 336.36,-144.8 336.36,-144.8 336.36,-168.61 336.36,-168.61"/>
<polygon fill="black" stroke="black" points="332.86,-168.61 336.36,-178.61 339.86,-168.61 332.86,-168.61"/>
</g>
<!-- TextToLinksPipe  -->
<g id="node18" class="node">
<title>TextToLinksPipe </title>
<polygon fill="#fb8072" stroke="black" points="279.99,-214.8 162.01,-214.8 162.01,-178.8 279.99,-178.8 279.99,-214.8"/>
<text text-anchor="middle" x="221" y="-192.6" font-family="Times,serif" font-size="14.00">TextToLinksPipe </text>
</g>
<!-- SharedPipesModule&#45;&gt;TextToLinksPipe  -->
<g id="edge17" class="edge">
<title>SharedPipesModule&#45;&gt;TextToLinksPipe </title>
<path fill="none" stroke="black" stroke-dasharray="5,2" d="M490.56,-139.8C395.01,-139.8 226.88,-139.8 226.88,-139.8 226.88,-139.8 226.88,-168.76 226.88,-168.76"/>
<polygon fill="black" stroke="black" points="223.38,-168.76 226.88,-178.76 230.38,-168.76 223.38,-168.76"/>
</g>
<!-- TruncateTextPipe  -->
<g id="node19" class="node">
<title>TruncateTextPipe </title>
<polygon fill="#fb8072" stroke="black" points="143.79,-214.8 24.21,-214.8 24.21,-178.8 143.79,-178.8 143.79,-214.8"/>
<text text-anchor="middle" x="84" y="-192.6" font-family="Times,serif" font-size="14.00">TruncateTextPipe </text>
</g>
<!-- SharedPipesModule&#45;&gt;TruncateTextPipe  -->
<g id="edge18" class="edge">
<title>SharedPipesModule&#45;&gt;TruncateTextPipe </title>
<path fill="none" stroke="black" stroke-dasharray="5,2" d="M490.6,-134.8C363.35,-134.8 91.88,-134.8 91.88,-134.8 91.88,-134.8 91.88,-168.53 91.88,-168.53"/>
<polygon fill="black" stroke="black" points="88.38,-168.53 91.88,-178.53 95.38,-168.53 88.38,-168.53"/>
</g>
</g>
</svg>
