<?xml version="1.0" encoding="UTF-8" standalone="no"?>
<!DOCTYPE svg PUBLIC "-//W3C//DTD SVG 1.1//EN"
 "http://www.w3.org/Graphics/SVG/1.1/DTD/svg11.dtd">
<!-- Generated by graphviz version 2.47.0 (20210316.0004)
 -->
<!-- Title: dependencies Pages: 1 -->
<svg width="564pt" height="284pt"
     viewBox="0.00 0.00 564.00 284.00" xmlns="http://www.w3.org/2000/svg">
<g id="graph0" class="graph" transform="scale(1 1) rotate(0) translate(4 280)">
<title>dependencies</title>
<polygon fill="white" stroke="transparent" points="-4,4 -4,-280 560,-280 560,4 -4,4"/>
<text text-anchor="start" x="257.01" y="-42.4" font-family="sans-serif" font-weight="bold" font-size="14.00">Legend</text>
<polygon fill="#ffffb3" stroke="transparent" points="44,-10 44,-30 64,-30 64,-10 44,-10"/>
<text text-anchor="start" x="67.63" y="-15.4" font-family="sans-serif" font-size="14.00"> &#160;Declarations</text>
<polygon fill="#8dd3c7" stroke="transparent" points="157,-10 157,-30 177,-30 177,-10 157,-10"/>
<text text-anchor="start" x="180.73" y="-15.4" font-family="sans-serif" font-size="14.00"> &#160;Module</text>
<polygon fill="#80b1d3" stroke="transparent" points="243,-10 243,-30 263,-30 263,-10 243,-10"/>
<text text-anchor="start" x="266.78" y="-15.4" font-family="sans-serif" font-size="14.00"> &#160;Bootstrap</text>
<polygon fill="#fdb462" stroke="transparent" points="340,-10 340,-30 360,-30 360,-10 340,-10"/>
<text text-anchor="start" x="363.67" y="-15.4" font-family="sans-serif" font-size="14.00"> &#160;Providers</text>
<polygon fill="#fb8072" stroke="transparent" points="436,-10 436,-30 456,-30 456,-10 436,-10"/>
<text text-anchor="start" x="459.73" y="-15.4" font-family="sans-serif" font-size="14.00"> &#160;Exports</text>
<g id="clust1" class="cluster">
<title>cluster_SharedPipesModule</title>
<polygon fill="none" stroke="black" stroke-dasharray="1,5" points="8,-70 8,-268 548,-268 548,-70 8,-70"/>
</g>
<g id="clust8" class="cluster">
<title>cluster_SharedPipesModule_exports</title>
<polygon fill="none" stroke="black" points="16,-208 16,-260 540,-260 540,-208 16,-208"/>
</g>
<g id="clust2" class="cluster">
<title>cluster_SharedPipesModule_declarations</title>
<polygon fill="none" stroke="black" points="25,-78 25,-130 533,-130 533,-78 25,-78"/>
</g>
<!-- CompleteUrlPipe -->
<g id="node1" class="node">
<title>CompleteUrlPipe</title>
<polygon fill="#ffffb3" stroke="black" points="524.98,-122 411.02,-122 411.02,-86 524.98,-86 524.98,-122"/>
<text text-anchor="middle" x="468" y="-99.8" font-family="Times,serif" font-size="14.00">CompleteUrlPipe</text>
</g>
<!-- SharedPipesModule -->
<g id="node5" class="node">
<title>SharedPipesModule</title>
<polygon fill="#8dd3c7" stroke="black" points="291.25,-187 288.25,-191 267.25,-191 264.25,-187 162.75,-187 162.75,-151 291.25,-151 291.25,-187"/>
<text text-anchor="middle" x="227" y="-164.8" font-family="Times,serif" font-size="14.00">SharedPipesModule</text>
</g>
<!-- CompleteUrlPipe&#45;&gt;SharedPipesModule -->
<g id="edge1" class="edge">
<title>CompleteUrlPipe&#45;&gt;SharedPipesModule</title>
<path fill="none" stroke="black" d="M488.08,-122.02C488.08,-139.37 488.08,-163 488.08,-163 488.08,-163 301.54,-163 301.54,-163"/>
<polygon fill="black" stroke="black" points="301.54,-159.5 291.54,-163 301.54,-166.5 301.54,-159.5"/>
</g>
<!-- NumkeysPipe -->
<g id="node2" class="node">
<title>NumkeysPipe</title>
<polygon fill="#ffffb3" stroke="black" points="393.05,-122 298.95,-122 298.95,-86 393.05,-86 393.05,-122"/>
<text text-anchor="middle" x="346" y="-99.8" font-family="Times,serif" font-size="14.00">NumkeysPipe</text>
</g>
<!-- NumkeysPipe&#45;&gt;SharedPipesModule -->
<g id="edge2" class="edge">
<title>NumkeysPipe&#45;&gt;SharedPipesModule</title>
<path fill="none" stroke="black" d="M298.87,-104C291.46,-104 286.19,-104 286.19,-104 286.19,-104 286.19,-140.89 286.19,-140.89"/>
<polygon fill="black" stroke="black" points="282.69,-140.89 286.19,-150.89 289.69,-140.89 282.69,-140.89"/>
</g>
<!-- TextToLinksPipe -->
<g id="node3" class="node">
<title>TextToLinksPipe</title>
<polygon fill="#ffffb3" stroke="black" points="280.99,-122 167.01,-122 167.01,-86 280.99,-86 280.99,-122"/>
<text text-anchor="middle" x="224" y="-99.8" font-family="Times,serif" font-size="14.00">TextToLinksPipe</text>
</g>
<!-- TextToLinksPipe&#45;&gt;SharedPipesModule -->
<g id="edge3" class="edge">
<title>TextToLinksPipe&#45;&gt;SharedPipesModule</title>
<path fill="none" stroke="black" d="M224,-122.11C224,-122.11 224,-140.99 224,-140.99"/>
<polygon fill="black" stroke="black" points="220.5,-140.99 224,-150.99 227.5,-140.99 220.5,-140.99"/>
</g>
<!-- TruncateTextPipe -->
<g id="node4" class="node">
<title>TruncateTextPipe</title>
<polygon fill="#ffffb3" stroke="black" points="149.29,-122 32.71,-122 32.71,-86 149.29,-86 149.29,-122"/>
<text text-anchor="middle" x="91" y="-99.8" font-family="Times,serif" font-size="14.00">TruncateTextPipe</text>
</g>
<!-- TruncateTextPipe&#45;&gt;SharedPipesModule -->
<g id="edge4" class="edge">
<title>TruncateTextPipe&#45;&gt;SharedPipesModule</title>
<path fill="none" stroke="black" d="M106.88,-122.02C106.88,-139.37 106.88,-163 106.88,-163 106.88,-163 152.72,-163 152.72,-163"/>
<polygon fill="black" stroke="black" points="152.72,-166.5 162.72,-163 152.72,-159.5 152.72,-166.5"/>
</g>
<!-- CompleteUrlPipe  -->
<g id="node6" class="node">
<title>CompleteUrlPipe </title>
<polygon fill="#fb8072" stroke="black" points="531.98,-252 414.02,-252 414.02,-216 531.98,-216 531.98,-252"/>
<text text-anchor="middle" x="473" y="-229.8" font-family="Times,serif" font-size="14.00">CompleteUrlPipe </text>
</g>
<!-- SharedPipesModule&#45;&gt;CompleteUrlPipe  -->
<g id="edge5" class="edge">
<title>SharedPipesModule&#45;&gt;CompleteUrlPipe </title>
<path fill="none" stroke="black" stroke-dasharray="5,2" d="M291.54,-175C357.76,-175 451.17,-175 451.17,-175 451.17,-175 451.17,-205.98 451.17,-205.98"/>
<polygon fill="black" stroke="black" points="447.67,-205.98 451.17,-215.98 454.67,-205.98 447.67,-205.98"/>
</g>
<!-- NumkeysPipe  -->
<g id="node7" class="node">
<title>NumkeysPipe </title>
<polygon fill="#fb8072" stroke="black" points="396.04,-252 297.96,-252 297.96,-216 396.04,-216 396.04,-252"/>
<text text-anchor="middle" x="347" y="-229.8" font-family="Times,serif" font-size="14.00">NumkeysPipe </text>
</g>
<!-- SharedPipesModule&#45;&gt;NumkeysPipe  -->
<g id="edge6" class="edge">
<title>SharedPipesModule&#45;&gt;NumkeysPipe </title>
<path fill="none" stroke="black" stroke-dasharray="5,2" d="M285.56,-187.11C285.56,-206.34 285.56,-234 285.56,-234 285.56,-234 287.7,-234 287.7,-234"/>
<polygon fill="black" stroke="black" points="287.7,-237.5 297.7,-234 287.7,-230.5 287.7,-237.5"/>
</g>
<!-- TextToLinksPipe  -->
<g id="node8" class="node">
<title>TextToLinksPipe </title>
<polygon fill="#fb8072" stroke="black" points="279.99,-252 162.01,-252 162.01,-216 279.99,-216 279.99,-252"/>
<text text-anchor="middle" x="221" y="-229.8" font-family="Times,serif" font-size="14.00">TextToLinksPipe </text>
</g>
<!-- SharedPipesModule&#45;&gt;TextToLinksPipe  -->
<g id="edge7" class="edge">
<title>SharedPipesModule&#45;&gt;TextToLinksPipe </title>
<path fill="none" stroke="black" stroke-dasharray="5,2" d="M221.18,-187.11C221.18,-187.11 221.18,-205.99 221.18,-205.99"/>
<polygon fill="black" stroke="black" points="217.68,-205.99 221.18,-215.99 224.68,-205.99 217.68,-205.99"/>
</g>
<!-- TruncateTextPipe  -->
<g id="node9" class="node">
<title>TruncateTextPipe </title>
<polygon fill="#fb8072" stroke="black" points="143.79,-252 24.21,-252 24.21,-216 143.79,-216 143.79,-252"/>
<text text-anchor="middle" x="84" y="-229.8" font-family="Times,serif" font-size="14.00">TruncateTextPipe </text>
</g>
<!-- SharedPipesModule&#45;&gt;TruncateTextPipe  -->
<g id="edge8" class="edge">
<title>SharedPipesModule&#45;&gt;TruncateTextPipe </title>
<path fill="none" stroke="black" stroke-dasharray="5,2" d="M162.63,-175C119.24,-175 69.87,-175 69.87,-175 69.87,-175 69.87,-205.98 69.87,-205.98"/>
<polygon fill="black" stroke="black" points="66.37,-205.98 69.87,-215.98 73.37,-205.98 66.37,-205.98"/>
</g>
</g>
</svg>
