<?xml version="1.0" encoding="UTF-8" standalone="no"?>
<!DOCTYPE svg PUBLIC "-//W3C//DTD SVG 1.1//EN"
 "http://www.w3.org/Graphics/SVG/1.1/DTD/svg11.dtd">
<!-- Generated by graphviz version 2.47.3 (20210619.1520)
 -->
<!-- Title: dependencies Pages: 1 -->
<svg width="1468pt" height="174pt"
 viewBox="0.00 0.00 1468.00 173.80" xmlns="http://www.w3.org/2000/svg" xmlns:xlink="http://www.w3.org/1999/xlink">
<g id="graph0" class="graph" transform="scale(1 1) rotate(0) translate(4 169.8)">
<title>dependencies</title>
<polygon fill="white" stroke="transparent" points="-4,4 -4,-169.8 1464,-169.8 1464,4 -4,4"/>
<text text-anchor="middle" x="730" y="-8.2" font-family="sans-serif" font-size="14.00">dependencies</text>
<g id="clust1" class="cluster">
<title>cluster_ExternalFeedModule</title>
<polygon fill="none" stroke="black" stroke-dasharray="1,5" points="8,-32.8 8,-157.8 1452,-157.8 1452,-32.8 8,-32.8"/>
</g>
<g id="clust2" class="cluster">
<title>cluster_ExternalFeedModule_declarations</title>
<polygon fill="none" stroke="black" points="220,-40.8 220,-92.8 1444,-92.8 1444,-40.8 220,-40.8"/>
</g>
<g id="clust9" class="cluster">
<title>cluster_ExternalFeedModule_imports</title>
<polygon fill="none" stroke="black" points="16,-40.8 16,-92.8 212,-92.8 212,-40.8 16,-40.8"/>
</g>
<!-- ExternalFeedComponent -->
<g id="node1" class="node">
<title>ExternalFeedComponent</title>
<polygon fill="#ffffb3" stroke="black" points="1435.97,-84.8 1280.03,-84.8 1280.03,-48.8 1435.97,-48.8 1435.97,-84.8"/>
<text text-anchor="middle" x="1358" y="-62.6" font-family="Times,serif" font-size="14.00">ExternalFeedComponent</text>
</g>
<!-- ExternalFeedModule -->
<g id="node7" class="node">
<title>ExternalFeedModule</title>
<polygon fill="#8dd3c7" stroke="black" points="858.19,-149.8 855.19,-153.8 834.19,-153.8 831.19,-149.8 723.81,-149.8 723.81,-113.8 858.19,-113.8 858.19,-149.8"/>
<text text-anchor="middle" x="791" y="-127.6" font-family="Times,serif" font-size="14.00">ExternalFeedModule</text>
</g>
<!-- ExternalFeedComponent&#45;&gt;ExternalFeedModule -->
<g id="edge1" class="edge">
<title>ExternalFeedComponent&#45;&gt;ExternalFeedModule</title>
<path fill="none" stroke="black" d="M1358,-85.09C1358,-107.01 1358,-140.8 1358,-140.8 1358,-140.8 868.27,-140.8 868.27,-140.8"/>
<polygon fill="black" stroke="black" points="868.27,-137.3 858.27,-140.8 868.27,-144.3 868.27,-137.3"/>
</g>
<!-- ExternalFeedHListItemComponent -->
<g id="node2" class="node">
<title>ExternalFeedHListItemComponent</title>
<polygon fill="#ffffb3" stroke="black" points="1261.51,-84.8 1048.49,-84.8 1048.49,-48.8 1261.51,-48.8 1261.51,-84.8"/>
<text text-anchor="middle" x="1155" y="-62.6" font-family="Times,serif" font-size="14.00">ExternalFeedHListItemComponent</text>
</g>
<!-- ExternalFeedHListItemComponent&#45;&gt;ExternalFeedModule -->
<g id="edge2" class="edge">
<title>ExternalFeedHListItemComponent&#45;&gt;ExternalFeedModule</title>
<path fill="none" stroke="black" d="M1155,-84.91C1155,-104.14 1155,-131.8 1155,-131.8 1155,-131.8 868.19,-131.8 868.19,-131.8"/>
<polygon fill="black" stroke="black" points="868.19,-128.3 858.19,-131.8 868.19,-135.3 868.19,-128.3"/>
</g>
<!-- FeedItemComponent -->
<g id="node3" class="node">
<title>FeedItemComponent</title>
<polygon fill="#ffffb3" stroke="black" points="1030.2,-84.8 895.8,-84.8 895.8,-48.8 1030.2,-48.8 1030.2,-84.8"/>
<text text-anchor="middle" x="963" y="-62.6" font-family="Times,serif" font-size="14.00">FeedItemComponent</text>
</g>
<!-- FeedItemComponent&#45;&gt;ExternalFeedModule -->
<g id="edge3" class="edge">
<title>FeedItemComponent&#45;&gt;ExternalFeedModule</title>
<path fill="none" stroke="black" d="M963,-84.83C963,-101.2 963,-122.8 963,-122.8 963,-122.8 868.49,-122.8 868.49,-122.8"/>
<polygon fill="black" stroke="black" points="868.49,-119.3 858.49,-122.8 868.49,-126.3 868.49,-119.3"/>
</g>
<!-- FeedItemDetailsComponent -->
<g id="node4" class="node">
<title>FeedItemDetailsComponent</title>
<polygon fill="#ffffb3" stroke="black" points="877.85,-84.8 704.15,-84.8 704.15,-48.8 877.85,-48.8 877.85,-84.8"/>
<text text-anchor="middle" x="791" y="-62.6" font-family="Times,serif" font-size="14.00">FeedItemDetailsComponent</text>
</g>
<!-- FeedItemDetailsComponent&#45;&gt;ExternalFeedModule -->
<g id="edge4" class="edge">
<title>FeedItemDetailsComponent&#45;&gt;ExternalFeedModule</title>
<path fill="none" stroke="black" d="M791,-84.91C791,-84.91 791,-103.79 791,-103.79"/>
<polygon fill="black" stroke="black" points="787.5,-103.79 791,-113.79 794.5,-103.79 787.5,-103.79"/>
</g>
<!-- FeedItemDiscussionComponent -->
<g id="node5" class="node">
<title>FeedItemDiscussionComponent</title>
<polygon fill="#ffffb3" stroke="black" points="685.64,-84.8 490.36,-84.8 490.36,-48.8 685.64,-48.8 685.64,-84.8"/>
<text text-anchor="middle" x="588" y="-62.6" font-family="Times,serif" font-size="14.00">FeedItemDiscussionComponent</text>
</g>
<!-- FeedItemDiscussionComponent&#45;&gt;ExternalFeedModule -->
<g id="edge5" class="edge">
<title>FeedItemDiscussionComponent&#45;&gt;ExternalFeedModule</title>
<path fill="none" stroke="black" d="M588,-84.83C588,-101.2 588,-122.8 588,-122.8 588,-122.8 713.69,-122.8 713.69,-122.8"/>
<polygon fill="black" stroke="black" points="713.69,-126.3 723.69,-122.8 713.69,-119.3 713.69,-126.3"/>
</g>
<!-- FeedItemDiscussionMessageComponent -->
<g id="node6" class="node">
<title>FeedItemDiscussionMessageComponent</title>
<polygon fill="#ffffb3" stroke="black" points="472.11,-84.8 227.89,-84.8 227.89,-48.8 472.11,-48.8 472.11,-84.8"/>
<text text-anchor="middle" x="350" y="-62.6" font-family="Times,serif" font-size="14.00">FeedItemDiscussionMessageComponent</text>
</g>
<!-- FeedItemDiscussionMessageComponent&#45;&gt;ExternalFeedModule -->
<g id="edge6" class="edge">
<title>FeedItemDiscussionMessageComponent&#45;&gt;ExternalFeedModule</title>
<path fill="none" stroke="black" d="M350,-84.91C350,-104.14 350,-131.8 350,-131.8 350,-131.8 713.54,-131.8 713.54,-131.8"/>
<polygon fill="black" stroke="black" points="713.54,-135.3 723.54,-131.8 713.54,-128.3 713.54,-135.3"/>
</g>
<!-- ExternalFeedRoutingModule -->
<g id="node8" class="node">
<title>ExternalFeedRoutingModule</title>
<polygon fill="#8dd3c7" stroke="black" points="203.8,-84.8 200.8,-88.8 179.8,-88.8 176.8,-84.8 24.2,-84.8 24.2,-48.8 203.8,-48.8 203.8,-84.8"/>
<text text-anchor="middle" x="114" y="-62.6" font-family="Times,serif" font-size="14.00">ExternalFeedRoutingModule</text>
</g>
<!-- ExternalFeedRoutingModule&#45;&gt;ExternalFeedModule -->
<g id="edge7" class="edge">
<title>ExternalFeedRoutingModule&#45;&gt;ExternalFeedModule</title>
<path fill="none" stroke="black" d="M114,-85.09C114,-107.01 114,-140.8 114,-140.8 114,-140.8 713.61,-140.8 713.61,-140.8"/>
<polygon fill="black" stroke="black" points="713.61,-144.3 723.61,-140.8 713.61,-137.3 713.61,-144.3"/>
</g>
</g>
</svg>
