<?xml version="1.0" encoding="UTF-8" standalone="no"?>
<!DOCTYPE svg PUBLIC "-//W3C//DTD SVG 1.1//EN"
 "http://www.w3.org/Graphics/SVG/1.1/DTD/svg11.dtd">
<!-- Generated by graphviz version 2.47.3 (20210619.1520)
 -->
<!-- Title: dependencies Pages: 1 -->
<svg width="1468pt" height="174pt"
 viewBox="0.00 0.00 1468.00 173.80" xmlns="http://www.w3.org/2000/svg" xmlns:xlink="http://www.w3.org/1999/xlink">
<g id="graph0" class="graph" transform="scale(1 1) rotate(0) translate(4 169.8)">
<title>dependencies</title>
<polygon fill="white" stroke="transparent" points="-4,4 -4,-169.8 1464,-169.8 1464,4 -4,4"/>
<text text-anchor="middle" x="730" y="-8.2" font-family="sans-serif" font-size="14.00">dependencies</text>
<g id="clust1" class="cluster">
<title>cluster_ExternalFeedModule</title>
<polygon fill="none" stroke="black" stroke-dasharray="1,5" points="8,-32.8 8,-157.8 1452,-157.8 1452,-32.8 8,-32.8"/>
</g>
<g id="clust9" class="cluster">
<title>cluster_ExternalFeedModule_imports</title>
<polygon fill="none" stroke="black" points="1248,-40.8 1248,-92.8 1444,-92.8 1444,-40.8 1248,-40.8"/>
</g>
<g id="clust2" class="cluster">
<title>cluster_ExternalFeedModule_declarations</title>
<polygon fill="none" stroke="black" points="16,-40.8 16,-92.8 1240,-92.8 1240,-40.8 16,-40.8"/>
</g>
<!-- ExternalFeedComponent -->
<g id="node1" class="node">
<title>ExternalFeedComponent</title>
<polygon fill="#ffffb3" stroke="black" points="1231.97,-84.8 1076.03,-84.8 1076.03,-48.8 1231.97,-48.8 1231.97,-84.8"/>
<text text-anchor="middle" x="1154" y="-62.6" font-family="Times,serif" font-size="14.00">ExternalFeedComponent</text>
</g>
<!-- ExternalFeedModule -->
<g id="node7" class="node">
<title>ExternalFeedModule</title>
<polygon fill="#8dd3c7" stroke="black" points="826.19,-149.8 823.19,-153.8 802.19,-153.8 799.19,-149.8 691.81,-149.8 691.81,-113.8 826.19,-113.8 826.19,-149.8"/>
<text text-anchor="middle" x="759" y="-127.6" font-family="Times,serif" font-size="14.00">ExternalFeedModule</text>
</g>
<!-- ExternalFeedComponent&#45;&gt;ExternalFeedModule -->
<g id="edge1" class="edge">
<title>ExternalFeedComponent&#45;&gt;ExternalFeedModule</title>
<path fill="none" stroke="black" d="M1154,-84.91C1154,-104.14 1154,-131.8 1154,-131.8 1154,-131.8 836.45,-131.8 836.45,-131.8"/>
<polygon fill="black" stroke="black" points="836.45,-128.3 826.45,-131.8 836.45,-135.3 836.45,-128.3"/>
</g>
<!-- ExternalFeedHListItemComponent -->
<g id="node2" class="node">
<title>ExternalFeedHListItemComponent</title>
<polygon fill="#ffffb3" stroke="black" points="1057.51,-84.8 844.49,-84.8 844.49,-48.8 1057.51,-48.8 1057.51,-84.8"/>
<text text-anchor="middle" x="951" y="-62.6" font-family="Times,serif" font-size="14.00">ExternalFeedHListItemComponent</text>
</g>
<!-- ExternalFeedHListItemComponent&#45;&gt;ExternalFeedModule -->
<g id="edge2" class="edge">
<title>ExternalFeedHListItemComponent&#45;&gt;ExternalFeedModule</title>
<path fill="none" stroke="black" d="M951,-84.83C951,-101.2 951,-122.8 951,-122.8 951,-122.8 836.15,-122.8 836.15,-122.8"/>
<polygon fill="black" stroke="black" points="836.15,-119.3 826.15,-122.8 836.15,-126.3 836.15,-119.3"/>
</g>
<!-- FeedItemComponent -->
<g id="node3" class="node">
<title>FeedItemComponent</title>
<polygon fill="#ffffb3" stroke="black" points="826.2,-84.8 691.8,-84.8 691.8,-48.8 826.2,-48.8 826.2,-84.8"/>
<text text-anchor="middle" x="759" y="-62.6" font-family="Times,serif" font-size="14.00">FeedItemComponent</text>
</g>
<!-- FeedItemComponent&#45;&gt;ExternalFeedModule -->
<g id="edge3" class="edge">
<title>FeedItemComponent&#45;&gt;ExternalFeedModule</title>
<path fill="none" stroke="black" d="M759,-84.91C759,-84.91 759,-103.79 759,-103.79"/>
<polygon fill="black" stroke="black" points="755.5,-103.79 759,-113.79 762.5,-103.79 755.5,-103.79"/>
</g>
<!-- FeedItemDetailsComponent -->
<g id="node4" class="node">
<title>FeedItemDetailsComponent</title>
<polygon fill="#ffffb3" stroke="black" points="673.85,-84.8 500.15,-84.8 500.15,-48.8 673.85,-48.8 673.85,-84.8"/>
<text text-anchor="middle" x="587" y="-62.6" font-family="Times,serif" font-size="14.00">FeedItemDetailsComponent</text>
</g>
<!-- FeedItemDetailsComponent&#45;&gt;ExternalFeedModule -->
<g id="edge4" class="edge">
<title>FeedItemDetailsComponent&#45;&gt;ExternalFeedModule</title>
<path fill="none" stroke="black" d="M587,-84.83C587,-101.2 587,-122.8 587,-122.8 587,-122.8 681.51,-122.8 681.51,-122.8"/>
<polygon fill="black" stroke="black" points="681.51,-126.3 691.51,-122.8 681.51,-119.3 681.51,-126.3"/>
</g>
<!-- FeedItemDiscussionComponent -->
<g id="node5" class="node">
<title>FeedItemDiscussionComponent</title>
<polygon fill="#ffffb3" stroke="black" points="481.64,-84.8 286.36,-84.8 286.36,-48.8 481.64,-48.8 481.64,-84.8"/>
<text text-anchor="middle" x="384" y="-62.6" font-family="Times,serif" font-size="14.00">FeedItemDiscussionComponent</text>
</g>
<!-- FeedItemDiscussionComponent&#45;&gt;ExternalFeedModule -->
<g id="edge5" class="edge">
<title>FeedItemDiscussionComponent&#45;&gt;ExternalFeedModule</title>
<path fill="none" stroke="black" d="M384,-84.91C384,-104.14 384,-131.8 384,-131.8 384,-131.8 681.52,-131.8 681.52,-131.8"/>
<polygon fill="black" stroke="black" points="681.52,-135.3 691.52,-131.8 681.52,-128.3 681.52,-135.3"/>
</g>
<!-- FeedItemDiscussionMessageComponent -->
<g id="node6" class="node">
<title>FeedItemDiscussionMessageComponent</title>
<polygon fill="#ffffb3" stroke="black" points="268.11,-84.8 23.89,-84.8 23.89,-48.8 268.11,-48.8 268.11,-84.8"/>
<text text-anchor="middle" x="146" y="-62.6" font-family="Times,serif" font-size="14.00">FeedItemDiscussionMessageComponent</text>
</g>
<!-- FeedItemDiscussionMessageComponent&#45;&gt;ExternalFeedModule -->
<g id="edge6" class="edge">
<title>FeedItemDiscussionMessageComponent&#45;&gt;ExternalFeedModule</title>
<path fill="none" stroke="black" d="M146,-85.09C146,-107.01 146,-140.8 146,-140.8 146,-140.8 681.64,-140.8 681.64,-140.8"/>
<polygon fill="black" stroke="black" points="681.64,-144.3 691.64,-140.8 681.64,-137.3 681.64,-144.3"/>
</g>
<!-- ExternalFeedRoutingModule -->
<g id="node8" class="node">
<title>ExternalFeedRoutingModule</title>
<polygon fill="#8dd3c7" stroke="black" points="1435.8,-84.8 1432.8,-88.8 1411.8,-88.8 1408.8,-84.8 1256.2,-84.8 1256.2,-48.8 1435.8,-48.8 1435.8,-84.8"/>
<text text-anchor="middle" x="1346" y="-62.6" font-family="Times,serif" font-size="14.00">ExternalFeedRoutingModule</text>
</g>
<!-- ExternalFeedRoutingModule&#45;&gt;ExternalFeedModule -->
<g id="edge7" class="edge">
<title>ExternalFeedRoutingModule&#45;&gt;ExternalFeedModule</title>
<path fill="none" stroke="black" d="M1346,-85.09C1346,-107.01 1346,-140.8 1346,-140.8 1346,-140.8 836.34,-140.8 836.34,-140.8"/>
<polygon fill="black" stroke="black" points="836.34,-137.3 826.34,-140.8 836.34,-144.3 836.34,-137.3"/>
</g>
</g>
</svg>
