<?xml version="1.0" encoding="UTF-8" standalone="no"?>
<!DOCTYPE svg PUBLIC "-//W3C//DTD SVG 1.1//EN"
 "http://www.w3.org/Graphics/SVG/1.1/DTD/svg11.dtd">
<!-- Generated by graphviz version 2.47.0 (20210316.0004)
 -->
<!-- Title: dependencies Pages: 1 -->
<svg width="1468pt" height="211pt"
     viewBox="0.00 0.00 1468.00 211.00" xmlns="http://www.w3.org/2000/svg">
<g id="graph0" class="graph" transform="scale(1 1) rotate(0) translate(4 207)">
<title>dependencies</title>
<polygon fill="white" stroke="transparent" points="-4,4 -4,-207 1464,-207 1464,4 -4,4"/>
<text text-anchor="start" x="709.01" y="-42.4" font-family="sans-serif" font-weight="bold" font-size="14.00">Legend</text>
<polygon fill="#ffffb3" stroke="transparent" points="496,-10 496,-30 516,-30 516,-10 496,-10"/>
<text text-anchor="start" x="519.63" y="-15.4" font-family="sans-serif" font-size="14.00"> &#160;Declarations</text>
<polygon fill="#8dd3c7" stroke="transparent" points="609,-10 609,-30 629,-30 629,-10 609,-10"/>
<text text-anchor="start" x="632.73" y="-15.4" font-family="sans-serif" font-size="14.00"> &#160;Module</text>
<polygon fill="#80b1d3" stroke="transparent" points="695,-10 695,-30 715,-30 715,-10 695,-10"/>
<text text-anchor="start" x="718.78" y="-15.4" font-family="sans-serif" font-size="14.00"> &#160;Bootstrap</text>
<polygon fill="#fdb462" stroke="transparent" points="792,-10 792,-30 812,-30 812,-10 792,-10"/>
<text text-anchor="start" x="815.67" y="-15.4" font-family="sans-serif" font-size="14.00"> &#160;Providers</text>
<polygon fill="#fb8072" stroke="transparent" points="888,-10 888,-30 908,-30 908,-10 888,-10"/>
<text text-anchor="start" x="911.73" y="-15.4" font-family="sans-serif" font-size="14.00"> &#160;Exports</text>
<g id="clust1" class="cluster">
<title>cluster_ExternalFeedModule</title>
<polygon fill="none" stroke="black" stroke-dasharray="1,5" points="8,-70 8,-195 1452,-195 1452,-70 8,-70"/>
</g>
<g id="clust2" class="cluster">
<title>cluster_ExternalFeedModule_declarations</title>
<polygon fill="none" stroke="black" points="220,-78 220,-130 1444,-130 1444,-78 220,-78"/>
</g>
<g id="clust9" class="cluster">
<title>cluster_ExternalFeedModule_imports</title>
<polygon fill="none" stroke="black" points="16,-78 16,-130 212,-130 212,-78 16,-78"/>
</g>
<!-- ExternalFeedComponent -->
<g id="node1" class="node">
<title>ExternalFeedComponent</title>
<polygon fill="#ffffb3" stroke="black" points="1435.97,-122 1280.03,-122 1280.03,-86 1435.97,-86 1435.97,-122"/>
<text text-anchor="middle" x="1358" y="-99.8" font-family="Times,serif" font-size="14.00">ExternalFeedComponent</text>
</g>
<!-- ExternalFeedModule -->
<g id="node7" class="node">
<title>ExternalFeedModule</title>
<polygon fill="#8dd3c7" stroke="black" points="858.19,-187 855.19,-191 834.19,-191 831.19,-187 723.81,-187 723.81,-151 858.19,-151 858.19,-187"/>
<text text-anchor="middle" x="791" y="-164.8" font-family="Times,serif" font-size="14.00">ExternalFeedModule</text>
</g>
<!-- ExternalFeedComponent&#45;&gt;ExternalFeedModule -->
<g id="edge1" class="edge">
<title>ExternalFeedComponent&#45;&gt;ExternalFeedModule</title>
<path fill="none" stroke="black" d="M1358,-122.29C1358,-144.21 1358,-178 1358,-178 1358,-178 868.27,-178 868.27,-178"/>
<polygon fill="black" stroke="black" points="868.27,-174.5 858.27,-178 868.27,-181.5 868.27,-174.5"/>
</g>
<!-- ExternalFeedHListItemComponent -->
<g id="node2" class="node">
<title>ExternalFeedHListItemComponent</title>
<polygon fill="#ffffb3" stroke="black" points="1261.51,-122 1048.49,-122 1048.49,-86 1261.51,-86 1261.51,-122"/>
<text text-anchor="middle" x="1155" y="-99.8" font-family="Times,serif" font-size="14.00">ExternalFeedHListItemComponent</text>
</g>
<!-- ExternalFeedHListItemComponent&#45;&gt;ExternalFeedModule -->
<g id="edge2" class="edge">
<title>ExternalFeedHListItemComponent&#45;&gt;ExternalFeedModule</title>
<path fill="none" stroke="black" d="M1155,-122.11C1155,-141.34 1155,-169 1155,-169 1155,-169 868.19,-169 868.19,-169"/>
<polygon fill="black" stroke="black" points="868.19,-165.5 858.19,-169 868.19,-172.5 868.19,-165.5"/>
</g>
<!-- FeedItemComponent -->
<g id="node3" class="node">
<title>FeedItemComponent</title>
<polygon fill="#ffffb3" stroke="black" points="1030.2,-122 895.8,-122 895.8,-86 1030.2,-86 1030.2,-122"/>
<text text-anchor="middle" x="963" y="-99.8" font-family="Times,serif" font-size="14.00">FeedItemComponent</text>
</g>
<!-- FeedItemComponent&#45;&gt;ExternalFeedModule -->
<g id="edge3" class="edge">
<title>FeedItemComponent&#45;&gt;ExternalFeedModule</title>
<path fill="none" stroke="black" d="M963,-122.03C963,-138.4 963,-160 963,-160 963,-160 868.49,-160 868.49,-160"/>
<polygon fill="black" stroke="black" points="868.49,-156.5 858.49,-160 868.49,-163.5 868.49,-156.5"/>
</g>
<!-- FeedItemDetailsComponent -->
<g id="node4" class="node">
<title>FeedItemDetailsComponent</title>
<polygon fill="#ffffb3" stroke="black" points="877.85,-122 704.15,-122 704.15,-86 877.85,-86 877.85,-122"/>
<text text-anchor="middle" x="791" y="-99.8" font-family="Times,serif" font-size="14.00">FeedItemDetailsComponent</text>
</g>
<!-- FeedItemDetailsComponent&#45;&gt;ExternalFeedModule -->
<g id="edge4" class="edge">
<title>FeedItemDetailsComponent&#45;&gt;ExternalFeedModule</title>
<path fill="none" stroke="black" d="M791,-122.11C791,-122.11 791,-140.99 791,-140.99"/>
<polygon fill="black" stroke="black" points="787.5,-140.99 791,-150.99 794.5,-140.99 787.5,-140.99"/>
</g>
<!-- FeedItemDiscussionComponent -->
<g id="node5" class="node">
<title>FeedItemDiscussionComponent</title>
<polygon fill="#ffffb3" stroke="black" points="685.64,-122 490.36,-122 490.36,-86 685.64,-86 685.64,-122"/>
<text text-anchor="middle" x="588" y="-99.8" font-family="Times,serif" font-size="14.00">FeedItemDiscussionComponent</text>
</g>
<!-- FeedItemDiscussionComponent&#45;&gt;ExternalFeedModule -->
<g id="edge5" class="edge">
<title>FeedItemDiscussionComponent&#45;&gt;ExternalFeedModule</title>
<path fill="none" stroke="black" d="M588,-122.03C588,-138.4 588,-160 588,-160 588,-160 713.69,-160 713.69,-160"/>
<polygon fill="black" stroke="black" points="713.69,-163.5 723.69,-160 713.69,-156.5 713.69,-163.5"/>
</g>
<!-- FeedItemDiscussionMessageComponent -->
<g id="node6" class="node">
<title>FeedItemDiscussionMessageComponent</title>
<polygon fill="#ffffb3" stroke="black" points="472.11,-122 227.89,-122 227.89,-86 472.11,-86 472.11,-122"/>
<text text-anchor="middle" x="350" y="-99.8" font-family="Times,serif" font-size="14.00">FeedItemDiscussionMessageComponent</text>
</g>
<!-- FeedItemDiscussionMessageComponent&#45;&gt;ExternalFeedModule -->
<g id="edge6" class="edge">
<title>FeedItemDiscussionMessageComponent&#45;&gt;ExternalFeedModule</title>
<path fill="none" stroke="black" d="M350,-122.11C350,-141.34 350,-169 350,-169 350,-169 713.54,-169 713.54,-169"/>
<polygon fill="black" stroke="black" points="713.54,-172.5 723.54,-169 713.54,-165.5 713.54,-172.5"/>
</g>
<!-- ExternalFeedRoutingModule -->
<g id="node8" class="node">
<title>ExternalFeedRoutingModule</title>
<polygon fill="#8dd3c7" stroke="black" points="203.8,-122 200.8,-126 179.8,-126 176.8,-122 24.2,-122 24.2,-86 203.8,-86 203.8,-122"/>
<text text-anchor="middle" x="114" y="-99.8" font-family="Times,serif" font-size="14.00">ExternalFeedRoutingModule</text>
</g>
<!-- ExternalFeedRoutingModule&#45;&gt;ExternalFeedModule -->
<g id="edge7" class="edge">
<title>ExternalFeedRoutingModule&#45;&gt;ExternalFeedModule</title>
<path fill="none" stroke="black" d="M114,-122.29C114,-144.21 114,-178 114,-178 114,-178 713.61,-178 713.61,-178"/>
<polygon fill="black" stroke="black" points="713.61,-181.5 723.61,-178 713.61,-174.5 713.61,-181.5"/>
</g>
</g>
</svg>
