<?xml version="1.0" encoding="UTF-8" standalone="no"?>
<!DOCTYPE svg PUBLIC "-//W3C//DTD SVG 1.1//EN"
 "http://www.w3.org/Graphics/SVG/1.1/DTD/svg11.dtd">
<!-- Generated by graphviz version 5.0.0 (20220707.1540)
 -->
<!-- Title: dependencies Pages: 1 -->
<svg width="992pt" height="174pt"
 viewBox="0.00 0.00 992.00 173.80" xmlns="http://www.w3.org/2000/svg" xmlns:xlink="http://www.w3.org/1999/xlink">
<g id="graph0" class="graph" transform="scale(1 1) rotate(0) translate(4 169.8)">
<title>dependencies</title>
<polygon fill="white" stroke="transparent" points="-4,4 -4,-169.8 988,-169.8 988,4 -4,4"/>
<text text-anchor="middle" x="492" y="-8.2" font-family="sans-serif" font-size="14.00">dependencies</text>
<g id="clust1" class="cluster">
<title>cluster_ExternalFeedModule</title>
<polygon fill="none" stroke="black" stroke-dasharray="1,5" points="8,-32.8 8,-157.8 976,-157.8 976,-32.8 8,-32.8"/>
</g>
<g id="clust7" class="cluster">
<title>cluster_ExternalFeedModule_imports</title>
<polygon fill="none" stroke="black" points="772,-40.8 772,-92.8 968,-92.8 968,-40.8 772,-40.8"/>
</g>
<g id="clust2" class="cluster">
<title>cluster_ExternalFeedModule_declarations</title>
<polygon fill="none" stroke="black" points="16,-40.8 16,-92.8 764,-92.8 764,-40.8 16,-40.8"/>
</g>
<!-- ExternalFeedComponent -->
<g id="node1" class="node">
<title>ExternalFeedComponent</title>
<polygon fill="#ffffb3" stroke="black" points="755.97,-84.8 600.03,-84.8 600.03,-48.8 755.97,-48.8 755.97,-84.8"/>
<text text-anchor="middle" x="678" y="-62.6" font-family="Times,serif" font-size="14.00">ExternalFeedComponent</text>
</g>
<!-- ExternalFeedModule -->
<g id="node5" class="node">
<title>ExternalFeedModule</title>
<polygon fill="#8dd3c7" stroke="black" points="542.19,-149.8 539.19,-153.8 518.19,-153.8 515.19,-149.8 407.81,-149.8 407.81,-113.8 542.19,-113.8 542.19,-149.8"/>
<text text-anchor="middle" x="475" y="-127.6" font-family="Times,serif" font-size="14.00">ExternalFeedModule</text>
</g>
<!-- ExternalFeedComponent&#45;&gt;ExternalFeedModule -->
<g id="edge1" class="edge">
<title>ExternalFeedComponent&#45;&gt;ExternalFeedModule</title>
<path fill="none" stroke="black" d="M678,-84.82C678,-102.17 678,-125.8 678,-125.8 678,-125.8 552.31,-125.8 552.31,-125.8"/>
<polygon fill="black" stroke="black" points="552.31,-122.3 542.31,-125.8 552.31,-129.3 552.31,-122.3"/>
</g>
<!-- ExternalFeedHListItemComponent -->
<g id="node2" class="node">
<title>ExternalFeedHListItemComponent</title>
<polygon fill="#ffffb3" stroke="black" points="581.51,-84.8 368.49,-84.8 368.49,-48.8 581.51,-48.8 581.51,-84.8"/>
<text text-anchor="middle" x="475" y="-62.6" font-family="Times,serif" font-size="14.00">ExternalFeedHListItemComponent</text>
</g>
<!-- ExternalFeedHListItemComponent&#45;&gt;ExternalFeedModule -->
<g id="edge2" class="edge">
<title>ExternalFeedHListItemComponent&#45;&gt;ExternalFeedModule</title>
<path fill="none" stroke="black" d="M475,-84.91C475,-84.91 475,-103.79 475,-103.79"/>
<polygon fill="black" stroke="black" points="471.5,-103.79 475,-113.79 478.5,-103.79 471.5,-103.79"/>
</g>
<!-- FeedItemComponent -->
<g id="node3" class="node">
<title>FeedItemComponent</title>
<polygon fill="#ffffb3" stroke="black" points="350.2,-84.8 215.8,-84.8 215.8,-48.8 350.2,-48.8 350.2,-84.8"/>
<text text-anchor="middle" x="283" y="-62.6" font-family="Times,serif" font-size="14.00">FeedItemComponent</text>
</g>
<!-- FeedItemComponent&#45;&gt;ExternalFeedModule -->
<g id="edge3" class="edge">
<title>FeedItemComponent&#45;&gt;ExternalFeedModule</title>
<path fill="none" stroke="black" d="M283,-84.82C283,-102.17 283,-125.8 283,-125.8 283,-125.8 397.85,-125.8 397.85,-125.8"/>
<polygon fill="black" stroke="black" points="397.85,-129.3 407.85,-125.8 397.85,-122.3 397.85,-129.3"/>
</g>
<!-- FeedItemDetailsComponent -->
<g id="node4" class="node">
<title>FeedItemDetailsComponent</title>
<polygon fill="#ffffb3" stroke="black" points="197.86,-84.8 24.14,-84.8 24.14,-48.8 197.86,-48.8 197.86,-84.8"/>
<text text-anchor="middle" x="111" y="-62.6" font-family="Times,serif" font-size="14.00">FeedItemDetailsComponent</text>
</g>
<!-- FeedItemDetailsComponent&#45;&gt;ExternalFeedModule -->
<g id="edge4" class="edge">
<title>FeedItemDetailsComponent&#45;&gt;ExternalFeedModule</title>
<path fill="none" stroke="black" d="M111,-85.08C111,-106.12 111,-137.8 111,-137.8 111,-137.8 397.81,-137.8 397.81,-137.8"/>
<polygon fill="black" stroke="black" points="397.81,-141.3 407.81,-137.8 397.81,-134.3 397.81,-141.3"/>
</g>
<!-- ExternalFeedRoutingModule -->
<g id="node6" class="node">
<title>ExternalFeedRoutingModule</title>
<polygon fill="#8dd3c7" stroke="black" points="959.8,-84.8 956.8,-88.8 935.8,-88.8 932.8,-84.8 780.2,-84.8 780.2,-48.8 959.8,-48.8 959.8,-84.8"/>
<text text-anchor="middle" x="870" y="-62.6" font-family="Times,serif" font-size="14.00">ExternalFeedRoutingModule</text>
</g>
<!-- ExternalFeedRoutingModule&#45;&gt;ExternalFeedModule -->
<g id="edge5" class="edge">
<title>ExternalFeedRoutingModule&#45;&gt;ExternalFeedModule</title>
<path fill="none" stroke="black" d="M870,-85.08C870,-106.12 870,-137.8 870,-137.8 870,-137.8 552.45,-137.8 552.45,-137.8"/>
<polygon fill="black" stroke="black" points="552.45,-134.3 542.45,-137.8 552.45,-141.3 552.45,-134.3"/>
</g>
</g>
</svg>
