<?xml version="1.0" encoding="UTF-8" standalone="no"?>
<!DOCTYPE svg PUBLIC "-//W3C//DTD SVG 1.1//EN"
 "http://www.w3.org/Graphics/SVG/1.1/DTD/svg11.dtd">
<!-- Generated by graphviz version 2.47.3 (20210619.1520)
 -->
<!-- Title: dependencies Pages: 1 -->
<svg width="216pt" height="247pt"
 viewBox="0.00 0.00 216.00 246.80" xmlns="http://www.w3.org/2000/svg" xmlns:xlink="http://www.w3.org/1999/xlink">
<g id="graph0" class="graph" transform="scale(1 1) rotate(0) translate(4 242.8)">
<title>dependencies</title>
<polygon fill="white" stroke="transparent" points="-4,4 -4,-242.8 212,-242.8 212,4 -4,4"/>
<text text-anchor="middle" x="104" y="-8.2" font-family="sans-serif" font-size="14.00">dependencies</text>
<g id="clust1" class="cluster">
<title>cluster_SkeletonScreensModule</title>
<polygon fill="none" stroke="black" stroke-dasharray="1,5" points="8,-32.8 8,-230.8 200,-230.8 200,-32.8 8,-32.8"/>
</g>
<g id="clust5" class="cluster">
<title>cluster_SkeletonScreensModule_exports</title>
<polygon fill="none" stroke="black" points="16,-170.8 16,-222.8 192,-222.8 192,-170.8 16,-170.8"/>
</g>
<g id="clust2" class="cluster">
<title>cluster_SkeletonScreensModule_declarations</title>
<polygon fill="none" stroke="black" points="18,-40.8 18,-92.8 190,-92.8 190,-40.8 18,-40.8"/>
</g>
<!-- SkeletonTextComponent -->
<g id="node1" class="node">
<title>SkeletonTextComponent</title>
<polygon fill="#ffffb3" stroke="black" points="181.98,-84.8 26.02,-84.8 26.02,-48.8 181.98,-48.8 181.98,-84.8"/>
<text text-anchor="middle" x="104" y="-62.6" font-family="Times,serif" font-size="14.00">SkeletonTextComponent</text>
</g>
<!-- SkeletonScreensModule -->
<g id="node2" class="node">
<title>SkeletonScreensModule</title>
<polygon fill="#8dd3c7" stroke="black" points="180.07,-149.8 177.07,-153.8 156.07,-153.8 153.07,-149.8 27.93,-149.8 27.93,-113.8 180.07,-113.8 180.07,-149.8"/>
<text text-anchor="middle" x="104" y="-127.6" font-family="Times,serif" font-size="14.00">SkeletonScreensModule</text>
</g>
<!-- SkeletonTextComponent&#45;&gt;SkeletonScreensModule -->
<g id="edge1" class="edge">
<title>SkeletonTextComponent&#45;&gt;SkeletonScreensModule</title>
<path fill="none" stroke="black" d="M104,-84.91C104,-84.91 104,-103.79 104,-103.79"/>
<polygon fill="black" stroke="black" points="100.5,-103.79 104,-113.79 107.5,-103.79 100.5,-103.79"/>
</g>
<!-- SkeletonTextComponent  -->
<g id="node3" class="node">
<title>SkeletonTextComponent </title>
<polygon fill="#fb8072" stroke="black" points="183.98,-214.8 24.02,-214.8 24.02,-178.8 183.98,-178.8 183.98,-214.8"/>
<text text-anchor="middle" x="104" y="-192.6" font-family="Times,serif" font-size="14.00">SkeletonTextComponent </text>
</g>
<!-- SkeletonScreensModule&#45;&gt;SkeletonTextComponent  -->
<g id="edge2" class="edge">
<title>SkeletonScreensModule&#45;&gt;SkeletonTextComponent </title>
<path fill="none" stroke="black" stroke-dasharray="5,2" d="M104,-149.91C104,-149.91 104,-168.79 104,-168.79"/>
<polygon fill="black" stroke="black" points="100.5,-168.79 104,-178.79 107.5,-168.79 100.5,-168.79"/>
</g>
</g>
</svg>
