<?xml version="1.0" encoding="UTF-8" standalone="no"?>
<!DOCTYPE svg PUBLIC "-//W3C//DTD SVG 1.1//EN"
 "http://www.w3.org/Graphics/SVG/1.1/DTD/svg11.dtd">
<!-- Generated by graphviz version 5.0.0 (20220707.1540)
 -->
<!-- Title: dependencies Pages: 1 -->
<svg width="840pt" height="174pt"
 viewBox="0.00 0.00 840.00 173.80" xmlns="http://www.w3.org/2000/svg" xmlns:xlink="http://www.w3.org/1999/xlink">
<g id="graph0" class="graph" transform="scale(1 1) rotate(0) translate(4 169.8)">
<title>dependencies</title>
<polygon fill="white" stroke="transparent" points="-4,4 -4,-169.8 836,-169.8 836,4 -4,4"/>
<text text-anchor="middle" x="416" y="-8.2" font-family="sans-serif" font-size="14.00">dependencies</text>
<g id="clust1" class="cluster">
<title>cluster_CommunityGroupsModule</title>
<polygon fill="none" stroke="black" stroke-dasharray="1,5" points="8,-32.8 8,-157.8 824,-157.8 824,-32.8 8,-32.8"/>
</g>
<g id="clust2" class="cluster">
<title>cluster_CommunityGroupsModule_declarations</title>
<polygon fill="none" stroke="black" points="426,-40.8 426,-92.8 816,-92.8 816,-40.8 426,-40.8"/>
</g>
<g id="clust5" class="cluster">
<title>cluster_CommunityGroupsModule_imports</title>
<polygon fill="none" stroke="black" points="16,-40.8 16,-92.8 418,-92.8 418,-40.8 16,-40.8"/>
</g>
<!-- CommunityGroupFormComponent -->
<g id="node1" class="node">
<title>CommunityGroupFormComponent</title>
<polygon fill="#ffffb3" stroke="black" points="808.34,-84.8 593.66,-84.8 593.66,-48.8 808.34,-48.8 808.34,-84.8"/>
<text text-anchor="middle" x="701" y="-62.6" font-family="Times,serif" font-size="14.00">CommunityGroupFormComponent</text>
</g>
<!-- CommunityGroupsModule -->
<g id="node3" class="node">
<title>CommunityGroupsModule</title>
<polygon fill="#8dd3c7" stroke="black" points="487.67,-149.8 484.67,-153.8 463.67,-153.8 460.67,-149.8 320.33,-149.8 320.33,-113.8 487.67,-113.8 487.67,-149.8"/>
<text text-anchor="middle" x="404" y="-127.6" font-family="Times,serif" font-size="14.00">CommunityGroupsModule</text>
</g>
<!-- CommunityGroupFormComponent&#45;&gt;CommunityGroupsModule -->
<g id="edge1" class="edge">
<title>CommunityGroupFormComponent&#45;&gt;CommunityGroupsModule</title>
<path fill="none" stroke="black" d="M701,-84.91C701,-104.14 701,-131.8 701,-131.8 701,-131.8 497.92,-131.8 497.92,-131.8"/>
<polygon fill="black" stroke="black" points="497.92,-128.3 487.92,-131.8 497.92,-135.3 497.92,-128.3"/>
</g>
<!-- DashboardComponent -->
<g id="node2" class="node">
<title>DashboardComponent</title>
<polygon fill="#ffffb3" stroke="black" points="575.98,-84.8 434.02,-84.8 434.02,-48.8 575.98,-48.8 575.98,-84.8"/>
<text text-anchor="middle" x="505" y="-62.6" font-family="Times,serif" font-size="14.00">DashboardComponent</text>
</g>
<!-- DashboardComponent&#45;&gt;CommunityGroupsModule -->
<g id="edge2" class="edge">
<title>DashboardComponent&#45;&gt;CommunityGroupsModule</title>
<path fill="none" stroke="black" d="M460.92,-84.91C460.92,-84.91 460.92,-103.79 460.92,-103.79"/>
<polygon fill="black" stroke="black" points="457.42,-103.79 460.92,-113.79 464.42,-103.79 457.42,-103.79"/>
</g>
<!-- CommunityGroupsRoutingModule -->
<g id="node4" class="node">
<title>CommunityGroupsRoutingModule</title>
<polygon fill="#8dd3c7" stroke="black" points="410.29,-84.8 407.29,-88.8 386.29,-88.8 383.29,-84.8 197.71,-84.8 197.71,-48.8 410.29,-48.8 410.29,-84.8"/>
<text text-anchor="middle" x="304" y="-62.6" font-family="Times,serif" font-size="14.00">CommunityGroupsRoutingModule</text>
</g>
<!-- CommunityGroupsRoutingModule&#45;&gt;CommunityGroupsModule -->
<g id="edge3" class="edge">
<title>CommunityGroupsRoutingModule&#45;&gt;CommunityGroupsModule</title>
<path fill="none" stroke="black" d="M365.28,-84.91C365.28,-84.91 365.28,-103.79 365.28,-103.79"/>
<polygon fill="black" stroke="black" points="361.78,-103.79 365.28,-113.79 368.78,-103.79 361.78,-103.79"/>
</g>
<!-- SharedDirectivesModule -->
<g id="node5" class="node">
<title>SharedDirectivesModule</title>
<polygon fill="#8dd3c7" stroke="black" points="179.96,-84.8 176.96,-88.8 155.96,-88.8 152.96,-84.8 24.04,-84.8 24.04,-48.8 179.96,-48.8 179.96,-84.8"/>
<text text-anchor="middle" x="102" y="-62.6" font-family="Times,serif" font-size="14.00">SharedDirectivesModule</text>
</g>
<!-- SharedDirectivesModule&#45;&gt;CommunityGroupsModule -->
<g id="edge4" class="edge">
<title>SharedDirectivesModule&#45;&gt;CommunityGroupsModule</title>
<path fill="none" stroke="black" d="M102,-84.91C102,-104.14 102,-131.8 102,-131.8 102,-131.8 310.28,-131.8 310.28,-131.8"/>
<polygon fill="black" stroke="black" points="310.28,-135.3 320.28,-131.8 310.28,-128.3 310.28,-135.3"/>
</g>
</g>
</svg>
