<?xml version="1.0" encoding="UTF-8" standalone="no"?>
<!DOCTYPE svg PUBLIC "-//W3C//DTD SVG 1.1//EN"
 "http://www.w3.org/Graphics/SVG/1.1/DTD/svg11.dtd">
<!-- Generated by graphviz version 2.47.3 (20210619.1520)
 -->
<!-- Title: dependencies Pages: 1 -->
<svg width="3254pt" height="174pt"
 viewBox="0.00 0.00 3254.00 173.80" xmlns="http://www.w3.org/2000/svg" xmlns:xlink="http://www.w3.org/1999/xlink">
<g id="graph0" class="graph" transform="scale(1 1) rotate(0) translate(4 169.8)">
<title>dependencies</title>
<polygon fill="white" stroke="transparent" points="-4,4 -4,-169.8 3250,-169.8 3250,4 -4,4"/>
<text text-anchor="middle" x="1623" y="-8.2" font-family="sans-serif" font-size="14.00">dependencies</text>
<g id="clust1" class="cluster">
<title>cluster_CommunityGroupsModule</title>
<polygon fill="none" stroke="black" stroke-dasharray="1,5" points="8,-32.8 8,-157.8 3238,-157.8 3238,-32.8 8,-32.8"/>
</g>
<g id="clust15" class="cluster">
<title>cluster_CommunityGroupsModule_imports</title>
<polygon fill="none" stroke="black" points="2794,-40.8 2794,-92.8 3230,-92.8 3230,-40.8 2794,-40.8"/>
</g>
<g id="clust2" class="cluster">
<title>cluster_CommunityGroupsModule_declarations</title>
<polygon fill="none" stroke="black" points="16,-40.8 16,-92.8 2786,-92.8 2786,-40.8 16,-40.8"/>
</g>
<!-- CommunityControlPanelComponent -->
<g id="node1" class="node">
<title>CommunityControlPanelComponent</title>
<polygon fill="#ffffb3" stroke="black" points="2778.11,-84.8 2555.89,-84.8 2555.89,-48.8 2778.11,-48.8 2778.11,-84.8"/>
<text text-anchor="middle" x="2667" y="-62.6" font-family="Times,serif" font-size="14.00">CommunityControlPanelComponent</text>
</g>
<!-- CommunityGroupsModule -->
<g id="node13" class="node">
<title>CommunityGroupsModule</title>
<polygon fill="#8dd3c7" stroke="black" points="1696.66,-149.8 1693.66,-153.8 1672.66,-153.8 1669.66,-149.8 1529.34,-149.8 1529.34,-113.8 1696.66,-113.8 1696.66,-149.8"/>
<text text-anchor="middle" x="1613" y="-127.6" font-family="Times,serif" font-size="14.00">CommunityGroupsModule</text>
</g>
<!-- CommunityControlPanelComponent&#45;&gt;CommunityGroupsModule -->
<g id="edge1" class="edge">
<title>CommunityControlPanelComponent&#45;&gt;CommunityGroupsModule</title>
<path fill="none" stroke="black" d="M2667,-85.02C2667,-105.17 2667,-134.8 2667,-134.8 2667,-134.8 1707.03,-134.8 1707.03,-134.8"/>
<polygon fill="black" stroke="black" points="1707.03,-131.3 1697.03,-134.8 1707.03,-138.3 1707.03,-131.3"/>
</g>
<!-- CommunityCreateComponent -->
<g id="node2" class="node">
<title>CommunityCreateComponent</title>
<polygon fill="#ffffb3" stroke="black" points="2538.26,-84.8 2353.74,-84.8 2353.74,-48.8 2538.26,-48.8 2538.26,-84.8"/>
<text text-anchor="middle" x="2446" y="-62.6" font-family="Times,serif" font-size="14.00">CommunityCreateComponent</text>
</g>
<!-- CommunityCreateComponent&#45;&gt;CommunityGroupsModule -->
<g id="edge2" class="edge">
<title>CommunityCreateComponent&#45;&gt;CommunityGroupsModule</title>
<path fill="none" stroke="black" d="M2446,-85.02C2446,-103.63 2446,-129.8 2446,-129.8 2446,-129.8 1706.69,-129.8 1706.69,-129.8"/>
<polygon fill="black" stroke="black" points="1706.69,-126.3 1696.69,-129.8 1706.69,-133.3 1706.69,-126.3"/>
</g>
<!-- CommunityEditDetailsComponent -->
<g id="node3" class="node">
<title>CommunityEditDetailsComponent</title>
<polygon fill="#ffffb3" stroke="black" points="2335.72,-84.8 2124.28,-84.8 2124.28,-48.8 2335.72,-48.8 2335.72,-84.8"/>
<text text-anchor="middle" x="2230" y="-62.6" font-family="Times,serif" font-size="14.00">CommunityEditDetailsComponent</text>
</g>
<!-- CommunityEditDetailsComponent&#45;&gt;CommunityGroupsModule -->
<g id="edge3" class="edge">
<title>CommunityEditDetailsComponent&#45;&gt;CommunityGroupsModule</title>
<path fill="none" stroke="black" d="M2230,-84.83C2230,-101.86 2230,-124.8 2230,-124.8 2230,-124.8 1706.85,-124.8 1706.85,-124.8"/>
<polygon fill="black" stroke="black" points="1706.85,-121.3 1696.85,-124.8 1706.85,-128.3 1706.85,-121.3"/>
</g>
<!-- CommunityEventsListActionsComponent -->
<g id="node4" class="node">
<title>CommunityEventsListActionsComponent</title>
<polygon fill="#ffffb3" stroke="black" points="2106.66,-84.8 1855.34,-84.8 1855.34,-48.8 2106.66,-48.8 2106.66,-84.8"/>
<text text-anchor="middle" x="1981" y="-62.6" font-family="Times,serif" font-size="14.00">CommunityEventsListActionsComponent</text>
</g>
<!-- CommunityEventsListActionsComponent&#45;&gt;CommunityGroupsModule -->
<g id="edge4" class="edge">
<title>CommunityEventsListActionsComponent&#45;&gt;CommunityGroupsModule</title>
<path fill="none" stroke="black" d="M1981,-85.04C1981,-100.37 1981,-119.8 1981,-119.8 1981,-119.8 1706.97,-119.8 1706.97,-119.8"/>
<polygon fill="black" stroke="black" points="1706.97,-116.3 1696.97,-119.8 1706.97,-123.3 1706.97,-116.3"/>
</g>
<!-- CommunityEventsListComponent -->
<g id="node5" class="node">
<title>CommunityEventsListComponent</title>
<polygon fill="#ffffb3" stroke="black" points="1837.11,-84.8 1628.89,-84.8 1628.89,-48.8 1837.11,-48.8 1837.11,-84.8"/>
<text text-anchor="middle" x="1733" y="-62.6" font-family="Times,serif" font-size="14.00">CommunityEventsListComponent</text>
</g>
<!-- CommunityEventsListComponent&#45;&gt;CommunityGroupsModule -->
<g id="edge5" class="edge">
<title>CommunityEventsListComponent&#45;&gt;CommunityGroupsModule</title>
<path fill="none" stroke="black" d="M1662.89,-84.91C1662.89,-84.91 1662.89,-103.79 1662.89,-103.79"/>
<polygon fill="black" stroke="black" points="1659.39,-103.79 1662.89,-113.79 1666.39,-103.79 1659.39,-103.79"/>
</g>
<!-- CommunityEventsListDateComponent -->
<g id="node6" class="node">
<title>CommunityEventsListDateComponent</title>
<polygon fill="#ffffb3" stroke="black" points="1611.04,-84.8 1376.96,-84.8 1376.96,-48.8 1611.04,-48.8 1611.04,-84.8"/>
<text text-anchor="middle" x="1494" y="-62.6" font-family="Times,serif" font-size="14.00">CommunityEventsListDateComponent</text>
</g>
<!-- CommunityEventsListDateComponent&#45;&gt;CommunityGroupsModule -->
<g id="edge6" class="edge">
<title>CommunityEventsListDateComponent&#45;&gt;CommunityGroupsModule</title>
<path fill="none" stroke="black" d="M1570.22,-84.91C1570.22,-84.91 1570.22,-103.79 1570.22,-103.79"/>
<polygon fill="black" stroke="black" points="1566.72,-103.79 1570.22,-113.79 1573.72,-103.79 1566.72,-103.79"/>
</g>
<!-- CommunityFormsListActionsComponent -->
<g id="node7" class="node">
<title>CommunityFormsListActionsComponent</title>
<polygon fill="#ffffb3" stroke="black" points="1358.84,-84.8 1109.16,-84.8 1109.16,-48.8 1358.84,-48.8 1358.84,-84.8"/>
<text text-anchor="middle" x="1234" y="-62.6" font-family="Times,serif" font-size="14.00">CommunityFormsListActionsComponent</text>
</g>
<!-- CommunityFormsListActionsComponent&#45;&gt;CommunityGroupsModule -->
<g id="edge7" class="edge">
<title>CommunityFormsListActionsComponent&#45;&gt;CommunityGroupsModule</title>
<path fill="none" stroke="black" d="M1234,-85.04C1234,-100.37 1234,-119.8 1234,-119.8 1234,-119.8 1518.89,-119.8 1518.89,-119.8"/>
<polygon fill="black" stroke="black" points="1518.89,-123.3 1528.89,-119.8 1518.89,-116.3 1518.89,-123.3"/>
</g>
<!-- CommunityFormsListComponent -->
<g id="node8" class="node">
<title>CommunityFormsListComponent</title>
<polygon fill="#ffffb3" stroke="black" points="1090.79,-84.8 885.21,-84.8 885.21,-48.8 1090.79,-48.8 1090.79,-84.8"/>
<text text-anchor="middle" x="988" y="-62.6" font-family="Times,serif" font-size="14.00">CommunityFormsListComponent</text>
</g>
<!-- CommunityFormsListComponent&#45;&gt;CommunityGroupsModule -->
<g id="edge8" class="edge">
<title>CommunityFormsListComponent&#45;&gt;CommunityGroupsModule</title>
<path fill="none" stroke="black" d="M988,-84.83C988,-101.86 988,-124.8 988,-124.8 988,-124.8 1519.03,-124.8 1519.03,-124.8"/>
<polygon fill="black" stroke="black" points="1519.03,-128.3 1529.03,-124.8 1519.03,-121.3 1519.03,-128.3"/>
</g>
<!-- CommunityFormsListStatsComponent -->
<g id="node9" class="node">
<title>CommunityFormsListStatsComponent</title>
<polygon fill="#ffffb3" stroke="black" points="867.51,-84.8 634.49,-84.8 634.49,-48.8 867.51,-48.8 867.51,-84.8"/>
<text text-anchor="middle" x="751" y="-62.6" font-family="Times,serif" font-size="14.00">CommunityFormsListStatsComponent</text>
</g>
<!-- CommunityFormsListStatsComponent&#45;&gt;CommunityGroupsModule -->
<g id="edge9" class="edge">
<title>CommunityFormsListStatsComponent&#45;&gt;CommunityGroupsModule</title>
<path fill="none" stroke="black" d="M751,-85.02C751,-103.63 751,-129.8 751,-129.8 751,-129.8 1519.17,-129.8 1519.17,-129.8"/>
<polygon fill="black" stroke="black" points="1519.17,-133.3 1529.17,-129.8 1519.17,-126.3 1519.17,-133.3"/>
</g>
<!-- CommunityMembersComponent -->
<g id="node10" class="node">
<title>CommunityMembersComponent</title>
<polygon fill="#ffffb3" stroke="black" points="616.6,-84.8 415.4,-84.8 415.4,-48.8 616.6,-48.8 616.6,-84.8"/>
<text text-anchor="middle" x="516" y="-62.6" font-family="Times,serif" font-size="14.00">CommunityMembersComponent</text>
</g>
<!-- CommunityMembersComponent&#45;&gt;CommunityGroupsModule -->
<g id="edge10" class="edge">
<title>CommunityMembersComponent&#45;&gt;CommunityGroupsModule</title>
<path fill="none" stroke="black" d="M516,-85.02C516,-105.17 516,-134.8 516,-134.8 516,-134.8 1519.19,-134.8 1519.19,-134.8"/>
<polygon fill="black" stroke="black" points="1519.19,-138.3 1529.19,-134.8 1519.19,-131.3 1519.19,-138.3"/>
</g>
<!-- CommunityStatsComponent -->
<g id="node11" class="node">
<title>CommunityStatsComponent</title>
<polygon fill="#ffffb3" stroke="black" points="397.95,-84.8 222.05,-84.8 222.05,-48.8 397.95,-48.8 397.95,-84.8"/>
<text text-anchor="middle" x="310" y="-62.6" font-family="Times,serif" font-size="14.00">CommunityStatsComponent</text>
</g>
<!-- CommunityStatsComponent&#45;&gt;CommunityGroupsModule -->
<g id="edge11" class="edge">
<title>CommunityStatsComponent&#45;&gt;CommunityGroupsModule</title>
<path fill="none" stroke="black" d="M310,-84.84C310,-106.46 310,-139.8 310,-139.8 310,-139.8 1519.26,-139.8 1519.26,-139.8"/>
<polygon fill="black" stroke="black" points="1519.26,-143.3 1529.26,-139.8 1519.26,-136.3 1519.26,-143.3"/>
</g>
<!-- CommunityTeamComponent -->
<g id="node12" class="node">
<title>CommunityTeamComponent</title>
<polygon fill="#ffffb3" stroke="black" points="204.1,-84.8 23.9,-84.8 23.9,-48.8 204.1,-48.8 204.1,-84.8"/>
<text text-anchor="middle" x="114" y="-62.6" font-family="Times,serif" font-size="14.00">CommunityTeamComponent</text>
</g>
<!-- CommunityTeamComponent&#45;&gt;CommunityGroupsModule -->
<g id="edge12" class="edge">
<title>CommunityTeamComponent&#45;&gt;CommunityGroupsModule</title>
<path fill="none" stroke="black" d="M114,-84.89C114,-107.93 114,-144.8 114,-144.8 114,-144.8 1519.2,-144.8 1519.2,-144.8"/>
<polygon fill="black" stroke="black" points="1519.2,-148.3 1529.2,-144.8 1519.2,-141.3 1519.2,-148.3"/>
</g>
<!-- CommunityControlPanelRoutingModule -->
<g id="node14" class="node">
<title>CommunityControlPanelRoutingModule</title>
<polygon fill="#8dd3c7" stroke="black" points="3221.95,-84.8 3218.95,-88.8 3197.95,-88.8 3194.95,-84.8 2976.05,-84.8 2976.05,-48.8 3221.95,-48.8 3221.95,-84.8"/>
<text text-anchor="middle" x="3099" y="-62.6" font-family="Times,serif" font-size="14.00">CommunityControlPanelRoutingModule</text>
</g>
<!-- CommunityControlPanelRoutingModule&#45;&gt;CommunityGroupsModule -->
<g id="edge13" class="edge">
<title>CommunityControlPanelRoutingModule&#45;&gt;CommunityGroupsModule</title>
<path fill="none" stroke="black" d="M3099,-84.89C3099,-107.93 3099,-144.8 3099,-144.8 3099,-144.8 1706.88,-144.8 1706.88,-144.8"/>
<polygon fill="black" stroke="black" points="1706.88,-141.3 1696.88,-144.8 1706.88,-148.3 1706.88,-141.3"/>
</g>
<!-- SharedDirectivesModule -->
<g id="node15" class="node">
<title>SharedDirectivesModule</title>
<polygon fill="#8dd3c7" stroke="black" points="2957.95,-84.8 2954.95,-88.8 2933.95,-88.8 2930.95,-84.8 2802.05,-84.8 2802.05,-48.8 2957.95,-48.8 2957.95,-84.8"/>
<text text-anchor="middle" x="2880" y="-62.6" font-family="Times,serif" font-size="14.00">SharedDirectivesModule</text>
</g>
<!-- SharedDirectivesModule&#45;&gt;CommunityGroupsModule -->
<g id="edge14" class="edge">
<title>SharedDirectivesModule&#45;&gt;CommunityGroupsModule</title>
<path fill="none" stroke="black" d="M2880,-84.84C2880,-106.46 2880,-139.8 2880,-139.8 2880,-139.8 1707.11,-139.8 1707.11,-139.8"/>
<polygon fill="black" stroke="black" points="1707.11,-136.3 1697.11,-139.8 1707.11,-143.3 1707.11,-136.3"/>
</g>
</g>
</svg>
