<?xml version="1.0" encoding="UTF-8" standalone="no"?>
<!DOCTYPE svg PUBLIC "-//W3C//DTD SVG 1.1//EN"
 "http://www.w3.org/Graphics/SVG/1.1/DTD/svg11.dtd">
<!-- Generated by graphviz version 2.47.0 (20210316.0004)
 -->
<!-- Title: dependencies Pages: 1 -->
<svg width="666pt" height="211pt"
     viewBox="0.00 0.00 666.00 211.00" xmlns="http://www.w3.org/2000/svg">
<g id="graph0" class="graph" transform="scale(1 1) rotate(0) translate(4 207)">
<title>dependencies</title>
<polygon fill="white" stroke="transparent" points="-4,4 -4,-207 662,-207 662,4 -4,4"/>
<text text-anchor="start" x="308.01" y="-42.4" font-family="sans-serif" font-weight="bold" font-size="14.00">Legend</text>
<polygon fill="#ffffb3" stroke="transparent" points="95,-10 95,-30 115,-30 115,-10 95,-10"/>
<text text-anchor="start" x="118.63" y="-15.4" font-family="sans-serif" font-size="14.00"> &#160;Declarations</text>
<polygon fill="#8dd3c7" stroke="transparent" points="208,-10 208,-30 228,-30 228,-10 208,-10"/>
<text text-anchor="start" x="231.73" y="-15.4" font-family="sans-serif" font-size="14.00"> &#160;Module</text>
<polygon fill="#80b1d3" stroke="transparent" points="294,-10 294,-30 314,-30 314,-10 294,-10"/>
<text text-anchor="start" x="317.78" y="-15.4" font-family="sans-serif" font-size="14.00"> &#160;Bootstrap</text>
<polygon fill="#fdb462" stroke="transparent" points="391,-10 391,-30 411,-30 411,-10 391,-10"/>
<text text-anchor="start" x="414.67" y="-15.4" font-family="sans-serif" font-size="14.00"> &#160;Providers</text>
<polygon fill="#fb8072" stroke="transparent" points="487,-10 487,-30 507,-30 507,-10 487,-10"/>
<text text-anchor="start" x="510.73" y="-15.4" font-family="sans-serif" font-size="14.00"> &#160;Exports</text>
<g id="clust1" class="cluster">
<title>cluster_CommunityGroupsModule</title>
<polygon fill="none" stroke="black" stroke-dasharray="1,5" points="8,-70 8,-195 650,-195 650,-70 8,-70"/>
</g>
<g id="clust2" class="cluster">
<title>cluster_CommunityGroupsModule_declarations</title>
<polygon fill="none" stroke="black" points="252,-78 252,-130 642,-130 642,-78 252,-78"/>
</g>
<g id="clust5" class="cluster">
<title>cluster_CommunityGroupsModule_imports</title>
<polygon fill="none" stroke="black" points="16,-78 16,-130 244,-130 244,-78 16,-78"/>
</g>
<!-- CommunityGroupFormComponent -->
<g id="node1" class="node">
<title>CommunityGroupFormComponent</title>
<polygon fill="#ffffb3" stroke="black" points="634.33,-122 419.67,-122 419.67,-86 634.33,-86 634.33,-122"/>
<text text-anchor="middle" x="527" y="-99.8" font-family="Times,serif" font-size="14.00">CommunityGroupFormComponent</text>
</g>
<!-- CommunityGroupsModule -->
<g id="node3" class="node">
<title>CommunityGroupsModule</title>
<polygon fill="#8dd3c7" stroke="black" points="414.66,-187 411.66,-191 390.66,-191 387.66,-187 247.34,-187 247.34,-151 414.66,-151 414.66,-187"/>
<text text-anchor="middle" x="331" y="-164.8" font-family="Times,serif" font-size="14.00">CommunityGroupsModule</text>
</g>
<!-- CommunityGroupFormComponent&#45;&gt;CommunityGroupsModule -->
<g id="edge1" class="edge">
<title>CommunityGroupFormComponent&#45;&gt;CommunityGroupsModule</title>
<path fill="none" stroke="black" d="M419.78,-104C412.75,-104 408.41,-104 408.41,-104 408.41,-104 408.41,-140.89 408.41,-140.89"/>
<polygon fill="black" stroke="black" points="404.91,-140.89 408.41,-150.89 411.91,-140.89 404.91,-140.89"/>
</g>
<!-- DashboardComponent -->
<g id="node2" class="node">
<title>DashboardComponent</title>
<polygon fill="#ffffb3" stroke="black" points="401.97,-122 260.03,-122 260.03,-86 401.97,-86 401.97,-122"/>
<text text-anchor="middle" x="331" y="-99.8" font-family="Times,serif" font-size="14.00">DashboardComponent</text>
</g>
<!-- DashboardComponent&#45;&gt;CommunityGroupsModule -->
<g id="edge2" class="edge">
<title>DashboardComponent&#45;&gt;CommunityGroupsModule</title>
<path fill="none" stroke="black" d="M331,-122.11C331,-122.11 331,-140.99 331,-140.99"/>
<polygon fill="black" stroke="black" points="327.5,-140.99 331,-150.99 334.5,-140.99 327.5,-140.99"/>
</g>
<!-- CommunityGroupsRoutingModule -->
<g id="node4" class="node">
<title>CommunityGroupsRoutingModule</title>
<polygon fill="#8dd3c7" stroke="black" points="236.28,-122 233.28,-126 212.28,-126 209.28,-122 23.72,-122 23.72,-86 236.28,-86 236.28,-122"/>
<text text-anchor="middle" x="130" y="-99.8" font-family="Times,serif" font-size="14.00">CommunityGroupsRoutingModule</text>
</g>
<!-- CommunityGroupsRoutingModule&#45;&gt;CommunityGroupsModule -->
<g id="edge3" class="edge">
<title>CommunityGroupsRoutingModule&#45;&gt;CommunityGroupsModule</title>
<path fill="none" stroke="black" d="M236.41,-104C246.8,-104 253.59,-104 253.59,-104 253.59,-104 253.59,-140.89 253.59,-140.89"/>
<polygon fill="black" stroke="black" points="250.09,-140.89 253.59,-150.89 257.09,-140.89 250.09,-140.89"/>
</g>
</g>
</svg>
