<?xml version="1.0" encoding="UTF-8" standalone="no"?>
<!DOCTYPE svg PUBLIC "-//W3C//DTD SVG 1.1//EN"
 "http://www.w3.org/Graphics/SVG/1.1/DTD/svg11.dtd">
<!-- Generated by graphviz version 2.47.0 (20210316.0004)
 -->
<!-- Title: dependencies Pages: 1 -->
<svg width="556pt" height="211pt"
     viewBox="0.00 0.00 556.00 211.00" xmlns="http://www.w3.org/2000/svg">
<g id="graph0" class="graph" transform="scale(1 1) rotate(0) translate(4 207)">
<title>dependencies</title>
<polygon fill="white" stroke="transparent" points="-4,4 -4,-207 552,-207 552,4 -4,4"/>
<text text-anchor="start" x="253.01" y="-42.4" font-family="sans-serif" font-weight="bold" font-size="14.00">Legend</text>
<polygon fill="#ffffb3" stroke="transparent" points="40,-10 40,-30 60,-30 60,-10 40,-10"/>
<text text-anchor="start" x="63.63" y="-15.4" font-family="sans-serif" font-size="14.00"> &#160;Declarations</text>
<polygon fill="#8dd3c7" stroke="transparent" points="153,-10 153,-30 173,-30 173,-10 153,-10"/>
<text text-anchor="start" x="176.73" y="-15.4" font-family="sans-serif" font-size="14.00"> &#160;Module</text>
<polygon fill="#80b1d3" stroke="transparent" points="239,-10 239,-30 259,-30 259,-10 239,-10"/>
<text text-anchor="start" x="262.78" y="-15.4" font-family="sans-serif" font-size="14.00"> &#160;Bootstrap</text>
<polygon fill="#fdb462" stroke="transparent" points="336,-10 336,-30 356,-30 356,-10 336,-10"/>
<text text-anchor="start" x="359.67" y="-15.4" font-family="sans-serif" font-size="14.00"> &#160;Providers</text>
<polygon fill="#fb8072" stroke="transparent" points="432,-10 432,-30 452,-30 452,-10 432,-10"/>
<text text-anchor="start" x="455.73" y="-15.4" font-family="sans-serif" font-size="14.00"> &#160;Exports</text>
<g id="clust1" class="cluster">
<title>cluster_PricingModule</title>
<polygon fill="none" stroke="black" stroke-dasharray="1,5" points="8,-70 8,-195 540,-195 540,-70 8,-70"/>
</g>
<g id="clust5" class="cluster">
<title>cluster_PricingModule_imports</title>
<polygon fill="none" stroke="black" points="370,-78 370,-130 532,-130 532,-78 370,-78"/>
</g>
<g id="clust2" class="cluster">
<title>cluster_PricingModule_declarations</title>
<polygon fill="none" stroke="black" points="16,-78 16,-130 362,-130 362,-78 16,-78"/>
</g>
<!-- CommudleFeaturesComponent -->
<g id="node1" class="node">
<title>CommudleFeaturesComponent</title>
<polygon fill="#ffffb3" stroke="black" points="354.48,-122 163.52,-122 163.52,-86 354.48,-86 354.48,-122"/>
<text text-anchor="middle" x="259" y="-99.8" font-family="Times,serif" font-size="14.00">CommudleFeaturesComponent</text>
</g>
<!-- PricingModule -->
<g id="node3" class="node">
<title>PricingModule</title>
<polygon fill="#8dd3c7" stroke="black" points="308.99,-187 305.99,-191 284.99,-191 281.99,-187 209.01,-187 209.01,-151 308.99,-151 308.99,-187"/>
<text text-anchor="middle" x="259" y="-164.8" font-family="Times,serif" font-size="14.00">PricingModule</text>
</g>
<!-- CommudleFeaturesComponent&#45;&gt;PricingModule -->
<g id="edge1" class="edge">
<title>CommudleFeaturesComponent&#45;&gt;PricingModule</title>
<path fill="none" stroke="black" d="M259,-122.11C259,-122.11 259,-140.99 259,-140.99"/>
<polygon fill="black" stroke="black" points="255.5,-140.99 259,-150.99 262.5,-140.99 255.5,-140.99"/>
</g>
<!-- PricingComponent -->
<g id="node2" class="node">
<title>PricingComponent</title>
<polygon fill="#ffffb3" stroke="black" points="145.77,-122 24.23,-122 24.23,-86 145.77,-86 145.77,-122"/>
<text text-anchor="middle" x="85" y="-99.8" font-family="Times,serif" font-size="14.00">PricingComponent</text>
</g>
<!-- PricingComponent&#45;&gt;PricingModule -->
<g id="edge2" class="edge">
<title>PricingComponent&#45;&gt;PricingModule</title>
<path fill="none" stroke="black" d="M85,-122.11C85,-141.34 85,-169 85,-169 85,-169 198.67,-169 198.67,-169"/>
<polygon fill="black" stroke="black" points="198.67,-172.5 208.67,-169 198.67,-165.5 198.67,-172.5"/>
</g>
<!-- PricingRoutingModule -->
<g id="node4" class="node">
<title>PricingRoutingModule</title>
<polygon fill="#8dd3c7" stroke="black" points="523.61,-122 520.61,-126 499.61,-126 496.61,-122 378.39,-122 378.39,-86 523.61,-86 523.61,-122"/>
<text text-anchor="middle" x="451" y="-99.8" font-family="Times,serif" font-size="14.00">PricingRoutingModule</text>
</g>
<!-- PricingRoutingModule&#45;&gt;PricingModule -->
<g id="edge3" class="edge">
<title>PricingRoutingModule&#45;&gt;PricingModule</title>
<path fill="none" stroke="black" d="M451,-122.11C451,-141.34 451,-169 451,-169 451,-169 319.45,-169 319.45,-169"/>
<polygon fill="black" stroke="black" points="319.45,-165.5 309.45,-169 319.45,-172.5 319.45,-165.5"/>
</g>
</g>
</svg>
