<?xml version="1.0" encoding="UTF-8" standalone="no"?>
<!DOCTYPE svg PUBLIC "-//W3C//DTD SVG 1.1//EN"
 "http://www.w3.org/Graphics/SVG/1.1/DTD/svg11.dtd">
<!-- Generated by graphviz version 2.47.3 (20210619.1520)
 -->
<!-- Title: dependencies Pages: 1 -->
<svg width="556pt" height="174pt"
 viewBox="0.00 0.00 556.00 173.80" xmlns="http://www.w3.org/2000/svg" xmlns:xlink="http://www.w3.org/1999/xlink">
<g id="graph0" class="graph" transform="scale(1 1) rotate(0) translate(4 169.8)">
<title>dependencies</title>
<polygon fill="white" stroke="transparent" points="-4,4 -4,-169.8 552,-169.8 552,4 -4,4"/>
<text text-anchor="middle" x="274" y="-8.2" font-family="sans-serif" font-size="14.00">dependencies</text>
<g id="clust1" class="cluster">
<title>cluster_PricingModule</title>
<polygon fill="none" stroke="black" stroke-dasharray="1,5" points="8,-32.8 8,-157.8 540,-157.8 540,-32.8 8,-32.8"/>
</g>
<g id="clust5" class="cluster">
<title>cluster_PricingModule_imports</title>
<polygon fill="none" stroke="black" points="370,-40.8 370,-92.8 532,-92.8 532,-40.8 370,-40.8"/>
</g>
<g id="clust2" class="cluster">
<title>cluster_PricingModule_declarations</title>
<polygon fill="none" stroke="black" points="16,-40.8 16,-92.8 362,-92.8 362,-40.8 16,-40.8"/>
</g>
<!-- CommudleFeaturesComponent -->
<g id="node1" class="node">
<title>CommudleFeaturesComponent</title>
<polygon fill="#ffffb3" stroke="black" points="354.48,-84.8 163.52,-84.8 163.52,-48.8 354.48,-48.8 354.48,-84.8"/>
<text text-anchor="middle" x="259" y="-62.6" font-family="Times,serif" font-size="14.00">CommudleFeaturesComponent</text>
</g>
<!-- PricingModule -->
<g id="node3" class="node">
<title>PricingModule</title>
<polygon fill="#8dd3c7" stroke="black" points="308.99,-149.8 305.99,-153.8 284.99,-153.8 281.99,-149.8 209.01,-149.8 209.01,-113.8 308.99,-113.8 308.99,-149.8"/>
<text text-anchor="middle" x="259" y="-127.6" font-family="Times,serif" font-size="14.00">PricingModule</text>
</g>
<!-- CommudleFeaturesComponent&#45;&gt;PricingModule -->
<g id="edge1" class="edge">
<title>CommudleFeaturesComponent&#45;&gt;PricingModule</title>
<path fill="none" stroke="black" d="M259,-84.91C259,-84.91 259,-103.79 259,-103.79"/>
<polygon fill="black" stroke="black" points="255.5,-103.79 259,-113.79 262.5,-103.79 255.5,-103.79"/>
</g>
<!-- PricingComponent -->
<g id="node2" class="node">
<title>PricingComponent</title>
<polygon fill="#ffffb3" stroke="black" points="145.77,-84.8 24.23,-84.8 24.23,-48.8 145.77,-48.8 145.77,-84.8"/>
<text text-anchor="middle" x="85" y="-62.6" font-family="Times,serif" font-size="14.00">PricingComponent</text>
</g>
<!-- PricingComponent&#45;&gt;PricingModule -->
<g id="edge2" class="edge">
<title>PricingComponent&#45;&gt;PricingModule</title>
<path fill="none" stroke="black" d="M85,-84.91C85,-104.14 85,-131.8 85,-131.8 85,-131.8 198.67,-131.8 198.67,-131.8"/>
<polygon fill="black" stroke="black" points="198.67,-135.3 208.67,-131.8 198.67,-128.3 198.67,-135.3"/>
</g>
<!-- PricingRoutingModule -->
<g id="node4" class="node">
<title>PricingRoutingModule</title>
<polygon fill="#8dd3c7" stroke="black" points="523.61,-84.8 520.61,-88.8 499.61,-88.8 496.61,-84.8 378.39,-84.8 378.39,-48.8 523.61,-48.8 523.61,-84.8"/>
<text text-anchor="middle" x="451" y="-62.6" font-family="Times,serif" font-size="14.00">PricingRoutingModule</text>
</g>
<!-- PricingRoutingModule&#45;&gt;PricingModule -->
<g id="edge3" class="edge">
<title>PricingRoutingModule&#45;&gt;PricingModule</title>
<path fill="none" stroke="black" d="M451,-84.91C451,-104.14 451,-131.8 451,-131.8 451,-131.8 319.45,-131.8 319.45,-131.8"/>
<polygon fill="black" stroke="black" points="319.45,-128.3 309.45,-131.8 319.45,-135.3 319.45,-128.3"/>
</g>
</g>
</svg>
