<?xml version="1.0" encoding="UTF-8" standalone="no"?>
<!DOCTYPE svg PUBLIC "-//W3C//DTD SVG 1.1//EN"
 "http://www.w3.org/Graphics/SVG/1.1/DTD/svg11.dtd">
<!-- Generated by graphviz version 2.47.3 (20210619.1520)
 -->
<!-- Title: dependencies Pages: 1 -->
<svg width="556pt" height="174pt"
 viewBox="0.00 0.00 556.00 173.80" xmlns="http://www.w3.org/2000/svg" xmlns:xlink="http://www.w3.org/1999/xlink">
<g id="graph0" class="graph" transform="scale(1 1) rotate(0) translate(4 169.8)">
<title>dependencies</title>
<polygon fill="white" stroke="transparent" points="-4,4 -4,-169.8 552,-169.8 552,4 -4,4"/>
<text text-anchor="middle" x="274" y="-8.2" font-family="sans-serif" font-size="14.00">dependencies</text>
<g id="clust1" class="cluster">
<title>cluster_PricingModule</title>
<polygon fill="none" stroke="black" stroke-dasharray="1,5" points="8,-32.8 8,-157.8 540,-157.8 540,-32.8 8,-32.8"/>
</g>
<g id="clust2" class="cluster">
<title>cluster_PricingModule_declarations</title>
<polygon fill="none" stroke="black" points="186,-40.8 186,-92.8 532,-92.8 532,-40.8 186,-40.8"/>
</g>
<g id="clust5" class="cluster">
<title>cluster_PricingModule_imports</title>
<polygon fill="none" stroke="black" points="16,-40.8 16,-92.8 178,-92.8 178,-40.8 16,-40.8"/>
</g>
<!-- CommudleFeaturesComponent -->
<g id="node1" class="node">
<title>CommudleFeaturesComponent</title>
<polygon fill="#ffffb3" stroke="black" points="524.48,-84.8 333.52,-84.8 333.52,-48.8 524.48,-48.8 524.48,-84.8"/>
<text text-anchor="middle" x="429" y="-62.6" font-family="Times,serif" font-size="14.00">CommudleFeaturesComponent</text>
</g>
<!-- PricingModule -->
<g id="node3" class="node">
<title>PricingModule</title>
<polygon fill="#8dd3c7" stroke="black" points="304.99,-149.8 301.99,-153.8 280.99,-153.8 277.99,-149.8 205.01,-149.8 205.01,-113.8 304.99,-113.8 304.99,-149.8"/>
<text text-anchor="middle" x="255" y="-127.6" font-family="Times,serif" font-size="14.00">PricingModule</text>
</g>
<!-- CommudleFeaturesComponent&#45;&gt;PricingModule -->
<g id="edge1" class="edge">
<title>CommudleFeaturesComponent&#45;&gt;PricingModule</title>
<path fill="none" stroke="black" d="M429,-84.91C429,-104.14 429,-131.8 429,-131.8 429,-131.8 315.33,-131.8 315.33,-131.8"/>
<polygon fill="black" stroke="black" points="315.33,-128.3 305.33,-131.8 315.33,-135.3 315.33,-128.3"/>
</g>
<!-- PricingComponent -->
<g id="node2" class="node">
<title>PricingComponent</title>
<polygon fill="#ffffb3" stroke="black" points="315.77,-84.8 194.23,-84.8 194.23,-48.8 315.77,-48.8 315.77,-84.8"/>
<text text-anchor="middle" x="255" y="-62.6" font-family="Times,serif" font-size="14.00">PricingComponent</text>
</g>
<!-- PricingComponent&#45;&gt;PricingModule -->
<g id="edge2" class="edge">
<title>PricingComponent&#45;&gt;PricingModule</title>
<path fill="none" stroke="black" d="M255,-84.91C255,-84.91 255,-103.79 255,-103.79"/>
<polygon fill="black" stroke="black" points="251.5,-103.79 255,-113.79 258.5,-103.79 251.5,-103.79"/>
</g>
<!-- PricingRoutingModule -->
<g id="node4" class="node">
<title>PricingRoutingModule</title>
<polygon fill="#8dd3c7" stroke="black" points="169.61,-84.8 166.61,-88.8 145.61,-88.8 142.61,-84.8 24.39,-84.8 24.39,-48.8 169.61,-48.8 169.61,-84.8"/>
<text text-anchor="middle" x="97" y="-62.6" font-family="Times,serif" font-size="14.00">PricingRoutingModule</text>
</g>
<!-- PricingRoutingModule&#45;&gt;PricingModule -->
<g id="edge3" class="edge">
<title>PricingRoutingModule&#45;&gt;PricingModule</title>
<path fill="none" stroke="black" d="M97,-84.91C97,-104.14 97,-131.8 97,-131.8 97,-131.8 195.01,-131.8 195.01,-131.8"/>
<polygon fill="black" stroke="black" points="195.01,-135.3 205.01,-131.8 195.01,-128.3 195.01,-135.3"/>
</g>
</g>
</svg>
